<?xml version="1.0" encoding="UTF-8"?>
<svg version="1.1" xmlns="http://www.w3.org/2000/svg" width="285" height="90">
<path d="M0 0 C77.55 0 155.1 0 285 0 C285 29.7 285 59.4 285 90 C157.45 90 79.9 90 0 90 C0 60.3 0 30.6 0 0 Z " fill="#0B4F9D" transform="translate(0,0)"/>
<path d="M0 0 C77.55 0 155.1 0 285 0 C285 29.7 285 59.4 285 90 C157.45 90 79.9 90 0 90 C0 60.3 0 30.6 0 0 Z M7 6 C4.54292931 9.68560604 4.74674957 11.50480583 4.74121094 15.90234375 C4.7377063 16.60022003 4.73420166 17.29809631 4.73059082 18.01712036 C4.72178818 20.32401475 4.72761735 22.63060248 4.734375 24.9375 C4.73302792 26.5402838 4.73108704 28.14306721 4.72857666 29.74584961 C4.72562739 33.10502004 4.72991668 36.46408412 4.73925781 39.82324219 C4.75065228 44.13096075 4.74409175 48.43843011 4.73211288 52.74613953 C4.72488895 56.05580526 4.72718466 59.36541183 4.73236847 62.67507935 C4.73370349 64.26351959 4.7320624 65.85196518 4.72740936 67.44039917 C4.72233533 69.65962982 4.73006642 71.87845577 4.74121094 74.09765625 C4.74280212 75.36101807 4.74439331 76.62437988 4.74603271 77.92602539 C4.76432167 81.17114877 4.76432167 81.17114877 7 84 C9.94118102 84.30075308 12.67279487 84.40405791 15.61706543 84.38095093 C16.51982822 84.3856309 17.42259101 84.39031087 18.35271025 84.39513266 C21.39609424 84.40715668 24.43903406 84.3975966 27.48242188 84.38818359 C29.65678675 84.39224601 31.83114955 84.39758602 34.00550842 84.40411377 C39.92480813 84.41783246 45.8439516 84.41246996 51.76325417 84.40297651 C57.9456488 84.39540345 64.12802967 84.40241896 70.3104248 84.40713501 C80.69444186 84.41259944 91.07839499 84.40538292 101.46240234 84.39111328 C113.48326781 84.37478548 125.50395537 84.3800735 137.52481985 84.3965925 C147.82885343 84.41018779 158.13284094 84.41213662 168.43688059 84.40427649 C174.59840301 84.39958919 180.7598536 84.39900405 186.92137146 84.40888596 C192.71287144 84.41752491 198.50417385 84.41159008 204.29565239 84.39420319 C206.42661142 84.39022187 208.55758695 84.39140028 210.68853951 84.39799118 C213.58689897 84.406132 216.48461654 84.39597597 219.38293457 84.38095093 C220.66199905 84.39098918 220.66199905 84.39098918 221.96690321 84.40123022 C224.53836638 84.41095482 224.53836638 84.41095482 228 84 C230.4723241 80.29151385 230.25330187 78.41834936 230.25878906 73.98999023 C230.2622937 73.28075409 230.26579834 72.57151794 230.26940918 71.84078979 C230.27821141 69.49662488 230.27238341 67.15276173 230.265625 64.80859375 C230.26697194 63.18099408 230.26891271 61.5533948 230.27142334 59.92579651 C230.27437243 56.51535205 230.27008334 53.10501236 230.26074219 49.69458008 C230.24933868 45.31726224 230.25591409 40.9401894 230.26788712 36.56288052 C230.27510382 33.20264327 230.27281883 29.8424644 230.26763153 26.48222542 C230.26629498 24.86783888 230.26794296 23.25344709 230.27259064 21.6390667 C230.27765382 19.38610601 230.26994933 17.13354597 230.25878906 14.88061523 C230.25719788 13.59726791 230.25560669 12.31392059 230.25396729 10.99168396 C230.31396685 7.88412641 230.31396685 7.88412641 228 6 C225.09643514 5.79986544 222.28790453 5.72642837 219.38293457 5.73930359 C218.48017178 5.73547804 217.57740899 5.73165249 216.64728975 5.72771102 C213.60399434 5.71734238 210.56088623 5.72138046 207.51757812 5.7253418 C205.34321415 5.72099749 203.16885172 5.71581529 200.99449158 5.70985413 C195.07522586 5.69642343 189.15602383 5.69588991 183.23674583 5.69841743 C178.30345215 5.69948427 173.3701715 5.69461122 168.43688059 5.689812 C156.80377643 5.67870299 145.17070456 5.67828741 133.53759766 5.68432617 C121.516741 5.69037002 109.49601871 5.67804768 97.47518015 5.6567561 C87.17115228 5.63917314 76.86716174 5.63313346 66.56311941 5.63639385 C60.40159014 5.63821194 54.2401443 5.6355182 48.07862854 5.62167931 C42.28713953 5.60915902 36.49583361 5.61098978 30.70434761 5.62409019 C28.57338463 5.62646814 26.44240899 5.62367813 24.31146049 5.61546707 C21.41311234 5.60510049 18.51539014 5.61301835 15.61706543 5.6257782 C14.76435578 5.61840391 13.91164613 5.61102963 13.03309679 5.60343188 C10.4617026 5.59163538 10.4617026 5.59163538 7 6 Z " fill="#D6E3F0" transform="translate(0,0)"/>
<path d="M0 0 C0.86625 0.37125 0.86625 0.37125 1.75 0.75 C1.26267899 1.59061478 0.77535797 2.43122955 0.27326965 3.2973175 C-1.43610576 7.17183214 -1.62442683 9.77537969 -1.62231445 13.99291992 C-1.62596512 14.69123428 -1.62961578 15.38954865 -1.63337708 16.10902405 C-1.64143362 18.3997588 -1.62791824 20.68977543 -1.61328125 22.98046875 C-1.61276223 24.57896423 -1.61328156 26.17746035 -1.61479187 27.7759552 C-1.61470238 31.11725457 -1.60431693 34.45831149 -1.58618164 37.79956055 C-1.56343994 42.0836685 -1.56296276 46.36742426 -1.56969929 50.65157604 C-1.5730382 53.9483809 -1.56641157 57.24510531 -1.55657005 60.54189491 C-1.55272056 62.12195731 -1.5515688 63.70202866 -1.5531559 65.28209496 C-1.55352632 67.48665869 -1.54091519 69.69076813 -1.5246582 71.89526367 C-1.52005081 73.14957687 -1.51544342 74.40389008 -1.51069641 75.69621277 C-1.4822856 78.923723 -1.4822856 78.923723 0.75 81.75 C3.68259154 82.05645622 6.40621021 82.16546991 9.34255981 82.14872742 C10.69269537 82.15869766 10.69269537 82.15869766 12.07010639 82.16886932 C15.10430501 82.18761113 18.13811316 82.18488654 21.17236328 82.18237305 C23.34012413 82.19138338 25.50787985 82.20170879 27.67562866 82.21325684 C33.57616178 82.24093849 39.47659854 82.25012647 45.37718821 82.25611091 C51.53786477 82.26546562 57.69846852 82.29166653 63.85910034 82.31611633 C75.53212219 82.35986517 87.20512998 82.38836058 98.87820899 82.41143972 C112.16462858 82.43844654 125.45095907 82.48236074 138.737324 82.52772844 C166.07484317 82.62069477 193.41238523 82.69232051 220.75 82.75 C221.08 84.07 221.41 85.39 221.75 86.75 C192.76081492 86.86672338 163.77166498 86.95493438 134.78229237 87.00906086 C132.10445448 87.0141602 129.42661681 87.0193668 126.7487793 87.0246582 C126.08318375 87.02596976 125.41758821 87.02728131 124.73182311 87.0286326 C113.95219731 87.0503938 103.17270474 87.08981917 92.393158 87.13576398 C81.33370919 87.18250892 70.27433398 87.20991691 59.21479148 87.22044247 C53.00217503 87.22696942 46.78986081 87.2423436 40.57734108 87.27865028 C34.73246799 87.31253236 28.88802227 87.32306854 23.0430603 87.31553841 C20.89559801 87.31691642 18.74812175 87.32689489 16.60074425 87.34602737 C13.67237281 87.37084324 10.74562259 87.36494671 7.81721497 87.35127258 C6.9640977 87.36583679 6.11098044 87.380401 5.23201114 87.39540654 C0.93805784 87.34107262 -0.75707646 87.12718705 -4.27743912 84.43339157 C-6.81037921 80.98768292 -6.94946018 78.20793563 -6.88110352 74.08569336 C-6.88825882 73.33060989 -6.89541412 72.57552643 -6.90278625 71.79756165 C-6.91964365 69.31103319 -6.90029195 66.82631516 -6.87890625 64.33984375 C-6.87973514 62.60779166 -6.8821953 60.87573964 -6.88621521 59.14369202 C-6.88907105 55.51799779 -6.87439189 51.89292207 -6.84692383 48.26733398 C-6.81281549 43.62096441 -6.81886949 38.97569876 -6.8375864 34.32927608 C-6.84815579 30.75442813 -6.83921965 27.17983697 -6.82420158 23.60501289 C-6.81902055 21.89180832 -6.81950064 20.17857692 -6.82574654 18.4653759 C-6.83119922 16.07130133 -6.81082535 13.67880661 -6.78344727 11.28491211 C-6.79323608 10.22423019 -6.79323608 10.22423019 -6.80322266 9.14212036 C-6.73713322 5.74231968 -6.44191742 4.00213172 -4.35728455 1.26344299 C-2.25 -0.25 -2.25 -0.25 0 0 Z " fill="#E9F1F6" transform="translate(7.25,2.25)"/>
<path d="M0 0 C77.55 0 155.1 0 285 0 C285 29.7 285 59.4 285 90 C157.45 90 79.9 90 0 90 C0 60.3 0 30.6 0 0 Z M1 6 C0.50393179 8.75709489 0.31346718 10.89859311 0.35302734 13.6484375 C0.34426575 14.40191467 0.33550415 15.15539185 0.32647705 15.93170166 C0.30453502 18.41339319 0.31901561 20.89329152 0.3359375 23.375 C0.33256783 25.10465841 0.32771395 26.83431452 0.32144165 28.56396484 C0.31407742 32.18545114 0.32476087 35.80631997 0.34814453 39.42773438 C0.37663261 44.06518705 0.36022615 48.70119292 0.33028221 53.33859253 C0.31219674 56.9092088 0.31797287 60.47948318 0.33092117 64.05010986 C0.33425176 65.75970634 0.33018029 67.46933406 0.31852341 69.17889404 C0.30579329 71.57061727 0.32521788 73.96001232 0.35302734 76.3515625 C0.34290619 77.0550885 0.33278503 77.7586145 0.32285718 78.48345947 C0.39779842 81.99330935 0.88030359 83.83747074 2.97466373 86.68128872 C7.08637739 89.83263323 9.99457521 89.69841557 15.04029846 89.62818909 C15.9523805 89.63528347 16.86446254 89.64237786 17.80418342 89.64968723 C20.86150165 89.66729441 23.91755317 89.64914833 26.97485352 89.63110352 C29.16612325 89.63624124 31.35738885 89.6435214 33.54864502 89.65278625 C39.50106219 89.67132584 45.45303237 89.65834566 51.40543103 89.63869596 C57.62958134 89.62233151 63.85370285 89.63111918 70.0778656 89.63621521 C80.52976303 89.64073828 90.98149302 89.62495637 101.43334961 89.59692383 C112.18798247 89.5680796 122.94236054 89.56100626 133.69702148 89.57641602 C146.65759967 89.59496108 159.61801854 89.59324508 172.57859612 89.57420158 C177.52950116 89.5673205 182.48031154 89.56837438 187.43121529 89.57574654 C193.25812524 89.58339424 199.08466714 89.5713325 204.91151428 89.54389763 C207.0529159 89.53699715 209.19435179 89.53693352 211.33575249 89.54411316 C214.25314408 89.55276916 217.16938968 89.53691704 220.08668518 89.5146637 C220.93930469 89.52290446 221.79192419 89.53114523 222.67038065 89.53963572 C226.35285877 89.48759015 228.52187946 89.36553435 231.49458218 87.09283352 C234.215879 83.30968367 234.16552841 80.30876244 234.19287109 75.78393555 C234.20104858 75.04065002 234.20922607 74.2973645 234.21765137 73.53155518 C234.24250628 71.06661792 234.25902154 68.60173826 234.2734375 66.13671875 C234.28142302 64.87457015 234.28142302 64.87457015 234.28956985 63.5869236 C234.31630188 59.13328502 234.33567657 54.67957448 234.35009766 50.22583008 C234.36674582 45.62545516 234.41152424 41.0257966 234.4624691 36.42569256 C234.49612406 32.88862789 234.50767311 29.35173364 234.51332474 25.8145237 C234.52004212 24.11882871 234.53527696 22.42314513 234.55921555 20.72760582 C234.59083444 18.35255936 234.59090981 15.9794497 234.58349609 13.60424805 C234.59990143 12.90535965 234.61630676 12.20647125 234.63320923 11.48640442 C234.58842556 7.97695912 234.12068967 6.16388906 232.02659798 3.32024288 C227.91623768 0.16916887 225.01111449 0.29886314 219.96643066 0.36508179 C219.05505419 0.35728183 218.14367772 0.34948188 217.20468378 0.34144557 C214.14971696 0.32149615 211.09599177 0.33730192 208.04101562 0.35302734 C205.8513669 0.34625256 203.66172388 0.33735021 201.47209167 0.32647705 C195.52375284 0.30366094 189.57584705 0.31252988 183.62750053 0.32837248 C177.40648088 0.34101934 171.18549863 0.32929473 164.96447754 0.32144165 C153.84731495 0.31175847 142.73032292 0.32731002 131.61319405 0.35273834 C121.53483764 0.37507703 111.45676918 0.37119684 101.37841797 0.34814453 C89.67271156 0.32138247 77.96717321 0.31142916 66.2614398 0.32620585 C60.06572778 0.33400653 53.8702141 0.3350248 47.67451477 0.31852341 C41.85000651 0.30409461 36.02604275 0.31407195 30.2015934 0.34299469 C28.06222247 0.34961392 25.92280582 0.34769364 23.78345299 0.33668137 C20.86620359 0.32304779 17.95070659 0.34011567 15.03356934 0.36508179 C14.18386267 0.35392818 13.33415601 0.34277457 12.45870066 0.33128297 C6.9793085 0.42244947 4.41728742 1.3615666 1 6 Z " fill="#37649B" transform="translate(0,0)"/>
<path d="M0 0 C0.9178125 0.05285156 1.835625 0.10570312 2.78125 0.16015625 C6.71861706 1.28592643 8.14608566 2.56510567 10.5 5.9375 C11.09665398 9.56472418 10.97240754 13.08688738 10.8125 16.75 C10.78994141 17.72904297 10.76738281 18.70808594 10.74414062 19.71679688 C10.68539727 22.12527455 10.60332129 24.53059078 10.5 26.9375 C8.19 26.9375 5.88 26.9375 3.5 26.9375 C3.5 26.2775 3.5 25.6175 3.5 24.9375 C2.984375 25.4325 2.46875 25.9275 1.9375 26.4375 C-1.43763128 28.51450386 -3.59800946 28.41669182 -7.5 27.9375 C-11.24879143 25.90011335 -12.27169934 24.62240199 -13.625 20.5625 C-13.49664624 16.84024089 -12.95009992 14.84807712 -10.37890625 12.09375 C-6.52641848 9.7229883 -1.91208899 9.9529539 2.5 9.9375 C1.84 8.9475 1.18 7.9575 0.5 6.9375 C-2.16653905 6.57289547 -2.16653905 6.57289547 -5.125 6.75 C-6.12789062 6.77707031 -7.13078125 6.80414063 -8.1640625 6.83203125 C-9.32035156 6.88423828 -9.32035156 6.88423828 -10.5 6.9375 C-10.5 5.2875 -10.5 3.6375 -10.5 1.9375 C-6.7861434 0.20840372 -4.08181186 -0.3153085 0 0 Z " fill="#FAFCFB" transform="translate(44.5,36.0625)"/>
<path d="M0 0 C0 1.98 0 3.96 0 6 C-1.65 6.33 -3.3 6.66 -5 7 C-5.33 8.65 -5.66 10.3 -6 12 C-4.35 12 -2.7 12 -1 12 C-1 13.98 -1 15.96 -1 18 C-2.65 18 -4.3 18 -6 18 C-6 24.6 -6 31.2 -6 38 C-8.64 38 -11.28 38 -14 38 C-14 31.4 -14 24.8 -14 18 C-15.32 18 -16.64 18 -18 18 C-18 16.02 -18 14.04 -18 12 C-16.68 12 -15.36 12 -14 12 C-13.9175 10.7625 -13.835 9.525 -13.75 8.25 C-13.36945697 5.42597016 -12.99507938 3.99179897 -11.5 1.5 C-7.76609605 -0.74034237 -4.24846628 -0.3268051 0 0 Z " fill="#F3F9FA" transform="translate(77,25)"/>
<path d="M0 0 C0.86625 0.37125 0.86625 0.37125 1.75 0.75 C1.26267899 1.59094208 0.77535797 2.43188416 0.27326965 3.29830933 C-1.4344563 7.16797334 -1.62442924 9.76483969 -1.62231445 13.97705078 C-1.62596512 14.67375885 -1.62961578 15.37046692 -1.63337708 16.08828735 C-1.64143454 18.37421607 -1.62791607 20.65942527 -1.61328125 22.9453125 C-1.61276218 24.54141285 -1.6132817 26.13751284 -1.61479187 27.73361206 C-1.61470237 31.07071537 -1.60431634 34.40757597 -1.58618164 37.74462891 C-1.56345832 42.01967059 -1.56295939 46.29435914 -1.56969929 50.56944466 C-1.5730415 53.86200087 -1.56640505 57.1544767 -1.55657005 60.44701767 C-1.55272488 62.02346247 -1.55156701 63.59991621 -1.5531559 65.1763649 C-1.5535271 67.37832933 -1.5408926 69.57984182 -1.5246582 71.78173828 C-1.52005081 73.03383087 -1.51544342 74.28592346 -1.51069641 75.57595825 C-1.26546014 78.56176909 -0.824108 80.24432096 0.75 82.75 C0.09 82.75 -0.57 82.75 -1.25 82.75 C-1.25 83.74 -1.25 84.73 -1.25 85.75 C-4.25 84.75 -4.25 84.75 -6.25 81.75 C-6.45415036 79.23460341 -6.5437292 76.82897894 -6.54052734 74.31274414 C-6.54724457 73.55795273 -6.55396179 72.80316132 -6.56088257 72.02549744 C-6.57989144 69.52865022 -6.58378806 67.03207134 -6.5859375 64.53515625 C-6.59236299 62.80024606 -6.59909117 61.06533697 -6.60610962 59.33042908 C-6.61808929 55.69299812 -6.62178969 52.05566219 -6.62060547 48.41821289 C-6.62040214 43.75619108 -6.64771525 39.09477791 -6.68214989 34.43290043 C-6.70438115 30.8495351 -6.70844419 27.26631718 -6.70738602 23.68288994 C-6.70974725 21.96407407 -6.71860013 20.24525447 -6.73405075 18.52650642 C-6.7536369 16.12278657 -6.74790295 13.72039135 -6.73583984 11.31665039 C-6.74707886 10.60638702 -6.75831787 9.89612366 -6.76989746 9.16433716 C-6.72636182 5.75232918 -6.4495862 4.01282894 -4.36026001 1.26145935 C-2.25 -0.25 -2.25 -0.25 0 0 Z " fill="#F9FDFC" transform="translate(7.25,2.25)"/>
<path d="M0 0 C0 2.64 0 5.28 0 8 C1.65 8 3.3 8 5 8 C5 9.98 5 11.96 5 14 C3.35 14 1.7 14 0 14 C0.33 18.29 0.66 22.58 1 27 C2.32 27.33 3.64 27.66 5 28 C5 29.98 5 31.96 5 34 C3.39667209 34.08121924 1.79215974 34.13929134 0.1875 34.1875 C-1.15248047 34.23970703 -1.15248047 34.23970703 -2.51953125 34.29296875 C-5 34 -5 34 -6.63671875 32.73242188 C-8.29572518 30.62420024 -8.35275965 29.63901098 -8.29296875 26.98828125 C-8.28330078 26.23095703 -8.27363281 25.47363281 -8.26367188 24.69335938 C-8.23853516 23.90767578 -8.21339844 23.12199219 -8.1875 22.3125 C-8.16719727 21.11657227 -8.16719727 21.11657227 -8.14648438 19.89648438 C-8.11117089 17.93070033 -8.05736447 15.96526418 -8 14 C-9.32 14 -10.64 14 -12 14 C-12 12.02 -12 10.04 -12 8 C-10.68 8 -9.36 8 -8 8 C-8 6.02 -8 4.04 -8 2 C-5.09399739 0.74335022 -3.20395416 0 0 0 Z " fill="#EFF6F8" transform="translate(125,29)"/>
<path d="M0 0 C28.78027226 -0.04666032 57.56053887 -0.0819595 86.34084129 -0.10362434 C99.70315264 -0.11394976 113.06543846 -0.12797361 126.42773438 -0.15087891 C138.07033638 -0.17077412 149.71292139 -0.18370722 161.35553992 -0.18817699 C167.52379497 -0.19079094 173.69200142 -0.196961 179.86024094 -0.21146011 C185.65986737 -0.22498298 191.45942493 -0.22923343 197.25906563 -0.22621536 C199.39325522 -0.22676791 201.52744699 -0.23077674 203.661623 -0.23841095 C206.56432684 -0.24828941 209.46676701 -0.24599503 212.36947632 -0.24050903 C213.22855021 -0.24633472 214.0776241 -0.2521604 214.95757902 -0.25816262 C220.77175758 -0.22824242 220.77175758 -0.22824242 223 2 C223.24050903 5.01187134 223.24050903 5.01187134 223.22705078 8.92822266 C223.22734283 9.64052536 223.22763489 10.35282806 223.22793579 11.0867157 C223.22654016 13.44595434 223.21096827 15.80487889 223.1953125 18.1640625 C223.19158319 19.79788032 223.18873583 21.43170038 223.18673706 23.06552124 C223.1790941 27.36952876 223.15943999 31.67340168 223.1373291 35.97735596 C223.1168849 40.36769795 223.1077384 44.75806165 223.09765625 49.1484375 C223.07619466 57.76568682 223.04205081 66.38282668 223 75 C222.67 75 222.34 75 222 75 C221.99191315 74.17394257 221.98382629 73.34788513 221.97549438 72.49679565 C221.89744316 64.69897622 221.81012084 56.90132697 221.71247292 49.10372734 C221.66259986 45.0952282 221.61626931 41.08675427 221.578125 37.078125 C221.54115824 33.20710239 221.49476794 29.33629537 221.44193649 25.46545792 C221.4234529 23.99117961 221.40832282 22.51685519 221.39665604 21.04250717 C221.37968958 18.97196283 221.35063125 16.90190577 221.31884766 14.83154297 C221.29886215 13.06615677 221.29886215 13.06615677 221.2784729 11.2651062 C221.08313517 7.46785322 221.08313517 7.46785322 219 2 C111.09 1.505 111.09 1.505 1 1 C1 1.66 1 2.32 1 3 C0.34 3 -0.32 3 -1 3 C-0.67 2.01 -0.34 1.02 0 0 Z " fill="#2B5B99" transform="translate(7,6)"/>
<path d="M0 0 C0.33 0 0.66 0 1 0 C1.01213028 1.28333221 1.01213028 1.28333221 1.02450562 2.59259033 C1.10245065 10.65592091 1.18974111 18.71908451 1.28752708 26.78219986 C1.33747012 30.92751978 1.3838003 35.07281446 1.421875 39.21826172 C1.45875305 43.21894987 1.50511977 47.21942588 1.55806351 51.21993256 C1.57659408 52.74610421 1.591707 54.27232131 1.60334396 55.7985611 C1.62022952 57.93656634 1.64926929 60.07408715 1.68115234 62.21191406 C1.69447601 63.4288092 1.70779968 64.64570435 1.7215271 65.8994751 C1.83464587 69.27830835 1.83464587 69.27830835 4 73 C76.27 73.33 148.54 73.66 223 74 C223 74.33 223 74.66 223 75 C194.21973796 75.06999045 165.43948862 75.12293922 136.65915871 75.15543652 C123.2968303 75.17092466 109.93455932 75.19196042 96.57226562 75.22631836 C84.92966343 75.25616118 73.28709946 75.27556082 61.64446008 75.28226548 C55.47617831 75.28618643 49.30800589 75.29544147 43.13975906 75.31719017 C37.34010988 75.33747454 31.54061565 75.34385017 25.74093437 75.33932304 C23.60674003 75.34015186 21.47254078 75.34616517 19.338377 75.35761642 C16.4355656 75.37243466 13.53334741 75.36899287 10.63052368 75.36076355 C9.77644979 75.36950207 8.9223759 75.3782406 8.04242098 75.38724393 C5.69753456 75.36914349 5.69753456 75.36914349 2 75 C-0.46813165 71.29780252 -0.24247195 69.46821249 -0.22705078 65.05004883 C-0.22734283 64.34735367 -0.22763489 63.64465851 -0.22793579 62.92066956 C-0.22654308 60.59933093 -0.21098487 58.27831377 -0.1953125 55.95703125 C-0.19158216 54.34706294 -0.18873528 52.73709236 -0.18673706 51.12712097 C-0.17910227 46.89053068 -0.15945513 42.6540776 -0.1373291 38.4175415 C-0.11686735 34.09413509 -0.10773464 29.7707065 -0.09765625 25.44726562 C-0.07620906 16.96478079 -0.04207501 8.48240747 0 0 Z " fill="#295A94" transform="translate(5,9)"/>
<path d="M0 0 C77.55 0 155.1 0 285 0 C285 2.64 285 5.28 285 8 C233.5 6.625 233.5 6.625 232 5 C232 4.34 232 3.68 232 3 C228.06525819 1.6884194 224.30933741 1.8450284 220.2069397 1.83937073 C219.29727208 1.83428291 218.38760445 1.82919509 217.45037115 1.82395309 C214.38960444 1.80820497 211.32886139 1.79969741 208.26806641 1.79125977 C206.07871856 1.78172345 203.88937223 1.77183239 201.70002747 1.76161194 C194.50055738 1.73020946 187.30107566 1.70996227 180.1015625 1.69140625 C178.87771961 1.68810893 177.65387671 1.68481161 176.39294767 1.68141437 C164.8572751 1.65063972 153.32159997 1.6239253 141.78589821 1.60699558 C139.11475238 1.60302976 136.44360661 1.59904309 133.77246094 1.5949707 C133.1085619 1.59396234 132.44466286 1.59295398 131.76064567 1.59191506 C121.000567 1.57489998 110.24071797 1.5337797 99.48075147 1.48294771 C88.4347593 1.43119333 77.38889147 1.40253911 66.34278047 1.3947987 C60.14022713 1.38983371 53.93808227 1.37467129 47.73564529 1.3350544 C41.90297377 1.29828946 36.07094579 1.28974526 30.23818016 1.30306053 C28.09555046 1.30300642 25.95289297 1.29264392 23.81036949 1.2713089 C20.88847128 1.24376415 17.96894254 1.25307465 15.04702759 1.27174377 C14.19595668 1.25494885 13.34488578 1.23815392 12.46802485 1.22085005 C8.06289254 1.2443089 8.06289254 1.2443089 4.36775088 3.38442028 C2.81978397 5.2065732 2.81978397 5.2065732 1 8 C0.67 8 0.34 8 0 8 C0 5.36 0 2.72 0 0 Z " fill="#225998" transform="translate(0,0)"/>
<path d="M0 0 C0 2.64 0 5.28 0 8 C-0.969375 8.309375 -1.93875 8.61875 -2.9375 8.9375 C-5.84065792 9.69523342 -5.84065792 9.69523342 -7 11 C-7.23678716 13.69285776 -7.42198025 16.36498156 -7.5625 19.0625 C-7.60568359 19.82111328 -7.64886719 20.57972656 -7.69335938 21.36132812 C-7.79973633 23.24065438 -7.90039934 25.12030244 -8 27 C-10.64 27 -13.28 27 -16 27 C-16 18.42 -16 9.84 -16 1 C-13.69 1 -11.38 1 -9 1 C-8.67 1.99 -8.34 2.98 -8 4 C-7.4225 3.34 -6.845 2.68 -6.25 2 C-4 0 -4 0 0 0 Z " fill="#F6FBFB" transform="translate(96,36)"/>
<path d="M0 0 C2.97 0 5.94 0 9 0 C9 8.58 9 17.16 9 26 C6.03 26 3.06 26 0 26 C0 17.42 0 8.84 0 0 Z " fill="#E4EEF4" transform="translate(100,37)"/>
<path d="M0 0 C0.99 0.33 1.98 0.66 3 1 C3 25.09 3 49.18 3 74 C1.515 74.495 1.515 74.495 0 75 C0 50.25 0 25.5 0 0 Z " fill="#FAFDFC" transform="translate(230,8)"/>
<path d="M0 0 C0.721875 0.12375 1.44375 0.2475 2.1875 0.375 C2.1875 1.035 2.1875 1.695 2.1875 2.375 C5.1575 2.87 5.1575 2.87 8.1875 3.375 C8.46349507 5.14196843 8.70746915 6.91396215 8.9375 8.6875 C9.07671875 9.67363281 9.2159375 10.65976562 9.359375 11.67578125 C9.1875 14.375 9.1875 14.375 7.41796875 16.203125 C4.1443757 17.9230513 1.83048358 17.82238395 -1.8125 17.375 C-5.56129143 15.33761335 -6.58419934 14.05990199 -7.9375 10 C-7.81415653 6.42303929 -7.70128848 5.63317255 -5.6875 2.9375 C-2.8125 0.375 -2.8125 0.375 0 0 Z " fill="#E4EFF5" transform="translate(38.8125,46.625)"/>
<path d="M0 0 C0.9178125 0.05285156 1.835625 0.10570312 2.78125 0.16015625 C6.71861706 1.28592643 8.14608566 2.56510567 10.5 5.9375 C11.09665398 9.56472418 10.97240754 13.08688738 10.8125 16.75 C10.78994141 17.72904297 10.76738281 18.70808594 10.74414062 19.71679688 C10.68539727 22.12527455 10.60332129 24.53059078 10.5 26.9375 C8.19 26.9375 5.88 26.9375 3.5 26.9375 C3.5 26.6075 3.5 26.2775 3.5 25.9375 C5.48 25.9375 7.46 25.9375 9.5 25.9375 C9.5 19.6675 9.5 13.3975 9.5 6.9375 C4.63867505 7.42902482 4.63867505 7.42902482 2.5 9.9375 C1.84 8.9475 1.18 7.9575 0.5 6.9375 C-2.16653905 6.57289547 -2.16653905 6.57289547 -5.125 6.75 C-6.12789062 6.77707031 -7.13078125 6.80414063 -8.1640625 6.83203125 C-9.32035156 6.88423828 -9.32035156 6.88423828 -10.5 6.9375 C-10.5 5.2875 -10.5 3.6375 -10.5 1.9375 C-6.7861434 0.20840372 -4.08181186 -0.3153085 0 0 Z " fill="#F7FBFC" transform="translate(44.5,36.0625)"/>
<path d="M0 0 C0.66 0.99 1.32 1.98 2 3 C1.67 3.33 1.34 3.66 1 4 C0.87579266 6.29983022 0.82195547 8.60347386 0.79467773 10.90649414 C0.78477814 11.62840439 0.77487854 12.35031464 0.76467896 13.09410095 C0.73297701 15.49108551 0.70827241 17.88808992 0.68359375 20.28515625 C0.66303171 21.94283069 0.64203545 23.6004998 0.62062073 25.25816345 C0.5653225 29.62948295 0.51594756 34.00085037 0.46777344 38.37225342 C0.41761484 42.82959274 0.3618994 47.28686213 0.30664062 51.74414062 C0.19896432 60.4960347 0.09754055 69.24798712 0 78 C1.98 77.01 1.98 77.01 4 76 C4.66 77.32 5.32 78.64 6 80 C5.34 80 4.68 80 4 80 C4 80.99 4 81.98 4 83 C1 82 1 82 -1 79 C-1.18884292 76.46780563 -1.26276206 74.04682293 -1.24291992 71.51513672 C-1.24481827 70.75552643 -1.24671661 69.99591614 -1.24867249 69.21328735 C-1.25237797 66.7019825 -1.24168102 64.19096665 -1.23046875 61.6796875 C-1.22927691 59.9375919 -1.2288238 58.19549565 -1.2290802 56.45339966 C-1.22751583 52.80336482 -1.21922839 49.15342813 -1.20581055 45.50341797 C-1.18879559 40.81442061 -1.18499694 36.12553089 -1.18575573 31.43650627 C-1.18548445 27.84041305 -1.18001037 24.24434356 -1.17275429 20.64825821 C-1.16956283 18.91861272 -1.1675991 17.18896453 -1.16686058 15.45931625 C-1.16470347 13.04818845 -1.15597376 10.63717718 -1.14526367 8.22607422 C-1.14571686 7.50502502 -1.14617004 6.78397583 -1.14663696 6.04107666 C-1.11447642 1.11447642 -1.11447642 1.11447642 0 0 Z " fill="#ECF9FC" transform="translate(2,5)"/>
<path d="M0 0 C0 2.64 0 5.28 0 8 C-0.928125 8.28875 -1.85625 8.5775 -2.8125 8.875 C-6.09791667 9.8875 -6.09791667 9.8875 -9 12 C-9.43290439 7.58437517 -9.50000327 5.65278204 -6.75 2.0625 C-4 0 -4 0 0 0 Z " fill="#E7F1F5" transform="translate(96,36)"/>
<path d="M0 0 C0.33 0 0.66 0 1 0 C1.125 6.625 1.125 6.625 0 10 C3.3 10.33 6.6 10.66 10 11 C10 11.33 10 11.66 10 12 C7.69 12 5.38 12 3 12 C3 12.66 3 13.32 3 14 C2.34 14 1.68 14 1 14 C0.34 15.32 -0.32 16.64 -1 18 C-1 16.02 -1 14.04 -1 12 C-2.65 12 -4.3 12 -6 12 C-6.042721 10.33388095 -6.04063832 8.66617115 -6 7 C-5 6 -5 6 -2.4375 5.9375 C-1.2309375 5.9684375 -1.2309375 5.9684375 0 6 C0 4.02 0 2.04 0 0 Z " fill="#3267A5" transform="translate(77,25)"/>
<path d="M0 0 C0.33 0 0.66 0 1 0 C1.33 2.31 1.66 4.62 2 7 C2.33 4.69 2.66 2.38 3 0 C3.33 0 3.66 0 4 0 C4 1.98 4 3.96 4 6 C4.99 6 5.98 6 7 6 C6.44271087 9.34373475 5.64826111 12.03312999 4 15 C3.34 15 2.68 15 2 15 C1.67 13.68 1.34 12.36 1 11 C1 15.95 1 20.9 1 26 C0.67 26 0.34 26 0 26 C0 17.42 0 8.84 0 0 Z " fill="#185195" transform="translate(109,37)"/>
<path d="M0 0 C3 0.125 3 0.125 4 1.125 C4.125 3.625 4.125 3.625 4 6.125 C3 7.125 3 7.125 0 7.25 C-3 7.125 -3 7.125 -4 6.125 C-4.125 3.625 -4.125 3.625 -4 1.125 C-3 0.125 -3 0.125 0 0 Z " fill="#E9F2F6" transform="translate(105,25.875)"/>
<path d="M0 0 C-0.99 0.33 -1.98 0.66 -3 1 C-3.33 1.66 -3.66 2.32 -4 3 C-1.03 3.33 1.94 3.66 5 4 C5.33 4.99 5.66 5.98 6 7 C5.34 7.66 4.68 8.32 4 9 C3.34 8.01 2.68 7.02 2 6 C-0.66653905 5.63539547 -0.66653905 5.63539547 -3.625 5.8125 C-4.62789062 5.83957031 -5.63078125 5.86664063 -6.6640625 5.89453125 C-7.82035156 5.94673828 -7.82035156 5.94673828 -9 6 C-9 4.35 -9 2.7 -9 1 C-5.57367167 -0.61798838 -3.61944899 -1.34053666 0 0 Z " fill="#D4E5F0" transform="translate(43,37)"/>
<path d="M0 0 C1.98 0 3.96 0 6 0 C6 3 6 3 4 6 C3.01 6 2.02 6 1 6 C1 10.62 1 15.24 1 20 C0.67 20 0.34 20 0 20 C0 13.4 0 6.8 0 0 Z " fill="#195396" transform="translate(71,43)"/>
<path d="M0 0 C0.125 2.375 0.125 2.375 0 5 C-0.66 5.66 -1.32 6.32 -2 7 C-4.625 6.625 -4.625 6.625 -7 6 C-7 4.35 -7 2.7 -7 1 C-4.53721199 -0.231394 -2.7204945 -0.07159196 0 0 Z " fill="#205899" transform="translate(47,51)"/>
<path d="M0 0 C1.8871875 0.0309375 1.8871875 0.0309375 3.8125 0.0625 C4.4725 1.3825 5.1325 2.7025 5.8125 4.0625 C1.3575 4.5575 1.3575 4.5575 -3.1875 5.0625 C-3.5175 4.4025 -3.8475 3.7425 -4.1875 3.0625 C-5.1775 2.4025 -6.1675 1.7425 -7.1875 1.0625 C-4.43671116 0.14557039 -2.82801087 -0.04636083 0 0 Z " fill="#4F7EAC" transform="translate(41.1875,41.9375)"/>
<path d="M0 0 C3.16115776 1.36983503 3.9927092 1.9890638 6 5 C6.22705078 7.26831055 6.22705078 7.26831055 6.1953125 9.88671875 C6.18886719 10.82451172 6.18242188 11.76230469 6.17578125 12.72851562 C6.15902344 13.70498047 6.14226563 14.68144531 6.125 15.6875 C6.11597656 16.67556641 6.10695313 17.66363281 6.09765625 18.68164062 C6.0740843 21.12133765 6.04118022 23.56054697 6 26 C3.69 26 1.38 26 -1 26 C-1 25.67 -1 25.34 -1 25 C0.98 25 2.96 25 5 25 C5 18.73 5 12.46 5 6 C4.01 6 3.02 6 2 6 C2 4.68 2 3.36 2 2 C1.34 2 0.68 2 0 2 C0 1.34 0 0.68 0 0 Z " fill="#E3F1FA" transform="translate(49,37)"/>
<path d="M0 0 C0.99 0.33 1.98 0.66 3 1 C3.125 4.375 3.125 4.375 3 8 C1 10 1 10 -2.625 10.125 C-3.73875 10.08375 -4.8525 10.0425 -6 10 C-5.67 9.34 -5.34 8.68 -5 8 C-3.35 8 -1.7 8 0 8 C0 5.36 0 2.72 0 0 Z " fill="#3066A4" transform="translate(96,36)"/>
<path d="M0 0 C2.64 0 5.28 0 8 0 C5.33333333 2.66666667 2.66666667 5.33333333 0 8 C0 5.36 0 2.72 0 0 Z " fill="#17569C" transform="translate(0,0)"/>
<path d="M0 0 C3 1 3 1 5 4 C4.625 6.1875 4.625 6.1875 4 8 C2.35 7.01 0.7 6.02 -1 5 C-0.67 3.35 -0.34 1.7 0 0 Z " fill="#E1EFF1" transform="translate(229,2)"/>
<path d="M0 0 C2.32472205 2.85306797 3.7508258 5.54074837 5 9 C3.35 9 1.7 9 0 9 C0 6.03 0 3.06 0 0 Z " fill="#175298" transform="translate(0,81)"/>
<path d="M0 0 C1.32 0.33 2.64 0.66 4 1 C3.67 2.65 3.34 4.3 3 6 C2.01 6.33 1.02 6.66 0 7 C-0.66 6.34 -1.32 5.68 -2 5 C-1.34 3.35 -0.68 1.7 0 0 Z " fill="#E3F0F5" transform="translate(229,81)"/>
<path d="M0 0 C0.33 0.66 0.66 1.32 1 2 C2.32 1.34 3.64 0.68 5 0 C5.66 1.32 6.32 2.64 7 4 C6.34 4 5.68 4 5 4 C5 4.99 5 5.98 5 7 C2 6 2 6 0 3 C0 2.01 0 1.02 0 0 Z " fill="#D4E5EF" transform="translate(1,81)"/>
<path d="M0 0 C1.32 0.33 2.64 0.66 4 1 C4 2.65 4 4.3 4 6 C2.68 6 1.36 6 0 6 C0 4.02 0 2.04 0 0 Z " fill="#D8E7F1" transform="translate(59,37)"/>
<path d="M0 0 C2.875 -0.1875 2.875 -0.1875 6 0 C6.66 0.99 7.32 1.98 8 3 C5.36 3 2.72 3 0 3 C0 2.01 0 1.02 0 0 Z " fill="#145193" transform="translate(39,42)"/>
<path d="M0 0 C1.32 0.33 2.64 0.66 4 1 C3.01 2.98 2.02 4.96 1 7 C0.01 5.68 -0.98 4.36 -2 3 C-1.34 2.01 -0.68 1.02 0 0 Z " fill="#EBF4F8" transform="translate(5,2)"/>
<path d="M0 0 C1.65 0 3.3 0 5 0 C5 1.32 5 2.64 5 4 C3.35 4 1.7 4 0 4 C0 2.68 0 1.36 0 0 Z " fill="#F9FBFB" transform="translate(72,25)"/>
<path d="M0 0 C3.16115776 1.36983503 3.9927092 1.9890638 6 5 C5.625 7.1875 5.625 7.1875 5 9 C5 8.01 5 7.02 5 6 C4.01 6 3.02 6 2 6 C2 4.68 2 3.36 2 2 C1.34 2 0.68 2 0 2 C0 1.34 0 0.68 0 0 Z " fill="#CEDFEC" transform="translate(49,37)"/>
<path d="M0 0 C1.32 0.33 2.64 0.66 4 1 C3.67 1.33 3.34 1.66 3 2 C3.99 2.66 4.98 3.32 6 4 C3.03 4 0.06 4 -3 4 C-2.01 3.67 -1.02 3.34 0 3 C0 2.01 0 1.02 0 0 Z " fill="#3F72A8" transform="translate(103,33)"/>
<path d="M0 0 C0.99 0 1.98 0 3 0 C2.67 1.65 2.34 3.3 2 5 C0.68 4.67 -0.64 4.34 -2 4 C-1.34 2.68 -0.68 1.36 0 0 Z " fill="#EBF3F1" transform="translate(115,38)"/>
</svg>
