<?xml version="1.0" encoding="UTF-8"?>
<svg version="1.1" xmlns="http://www.w3.org/2000/svg" width="500" height="118">
<path d="M0 0 C165 0 330 0 500 0 C500 38.94 500 77.88 500 118 C335 118 170 118 0 118 C0 79.06 0 40.12 0 0 Z " fill="#0A4E9C" transform="translate(0,0)"/>
<path d="M0 0 C165 0 330 0 500 0 C500 38.94 500 77.88 500 118 C335 118 170 118 0 118 C0 79.06 0 40.12 0 0 Z M7.02924895 8.40654176 C5.73412762 10.41161716 5.62521349 11.63502023 5.6257782 14.01634216 C5.61876389 14.83085846 5.61174957 15.64537476 5.60452271 16.48457336 C5.61216644 17.37452499 5.61981018 18.26447662 5.62768555 19.18139648 C5.62403488 20.12150574 5.62038422 21.06161499 5.61662292 22.0302124 C5.60850393 25.14402216 5.62213992 28.25731369 5.63671875 31.37109375 C5.63723724 33.5319875 5.63671998 35.69288174 5.63520813 37.85377502 C5.63529792 42.38574248 5.64573983 46.91753228 5.66381836 51.44946289 C5.68649208 57.26145873 5.68705272 63.07319456 5.68030071 68.88522243 C5.67696036 73.34872248 5.68359233 77.81216315 5.69342995 82.27565193 C5.69728209 84.41868848 5.6984301 86.56173162 5.6968441 88.70477104 C5.69647359 91.69971181 5.70909028 94.69431838 5.7253418 97.68920898 C5.72286438 98.57713638 5.72038696 99.46506378 5.71783447 100.37989807 C5.72491928 101.19723419 5.73200409 102.01457031 5.73930359 102.85667419 C5.74135646 103.56440192 5.74340933 104.27212965 5.74552441 105.00130367 C5.9439627 107.43903383 5.9439627 107.43903383 8 111 C167.72 111 327.44 111 492 111 C493.7758112 107.4483776 494.25009256 106.49336293 494.25396729 102.85667419 C494.25960693 102.03933807 494.26524658 101.22200195 494.27105713 100.37989807 C494.26700867 99.49197067 494.26296021 98.60404327 494.25878906 97.68920898 C494.2622937 96.74734741 494.26579834 95.80548584 494.26940918 94.83508301 C494.27821135 91.72201161 494.27238309 88.60916746 494.265625 85.49609375 C494.26697197 83.33423316 494.26891277 81.17237286 494.27142334 79.01051331 C494.27437246 74.4803682 494.2700833 69.95030196 494.26074219 65.42016602 C494.24934101 59.60699158 494.25591274 53.79400169 494.26788712 47.98083401 C494.27510559 43.5173859 494.27281795 39.05398172 494.26763153 34.5905323 C494.26629536 32.44666586 494.26794163 30.30279546 494.27259064 28.15893364 C494.27765636 25.16631334 494.26994518 22.17399429 494.25878906 19.18139648 C494.26486176 17.84646904 494.26486176 17.84646904 494.27105713 16.48457336 C494.26541748 15.67005707 494.25977783 14.85554077 494.25396729 14.01634216 C494.25321323 13.30899146 494.25245918 12.60164076 494.25168228 11.87285519 C494.09466651 9.66648141 494.09466651 9.66648141 492 7 C489.33051138 6.69962059 486.89172781 6.59805989 484.21909428 6.62247658 C483.40220089 6.61811626 482.5853075 6.61375593 481.74365976 6.60926348 C478.97665264 6.59822082 476.21013488 6.60877084 473.44313049 6.61904907 C471.45126127 6.61559606 469.45939395 6.61083391 467.46753067 6.60486734 C461.97082961 6.5922786 456.47428367 6.59856332 450.97758186 6.60782599 C445.05861128 6.61458413 439.13966831 6.60415137 433.22070312 6.59588623 C422.28761974 6.58328577 411.35458998 6.5844221 400.42150371 6.59262064 C390.32204772 6.60015716 380.22261 6.60214216 370.12315178 6.5985527 C369.45411914 6.59832355 368.7850865 6.59809439 368.09578014 6.59785829 C365.38018093 6.59692433 362.66458173 6.59596913 359.94898254 6.594979 C334.45565941 6.58579457 308.96236802 6.59413396 283.46904979 6.61026969 C260.80478898 6.6245057 238.14057873 6.62323485 215.47631836 6.60888672 C190.03215173 6.59283267 164.58801315 6.58644747 139.14384216 6.59572351 C136.43278278 6.59668571 133.72172338 6.59762423 131.01066399 6.5985527 C130.00931437 6.59890855 130.00931437 6.59890855 128.98773546 6.59927159 C118.89371276 6.60268824 108.79971029 6.59868527 98.70569038 6.59111404 C87.23092688 6.58271729 75.75622498 6.58494058 64.28146858 6.60095628 C58.42195252 6.60886386 52.56253931 6.61188843 46.70302391 6.60200882 C41.34590011 6.59311262 35.98897514 6.59791043 30.63186955 6.61394148 C28.68707252 6.61731094 26.74225892 6.61554712 24.79747242 6.60831411 C22.16698701 6.5992764 19.53719518 6.608461 16.90674686 6.62247658 C15.7570777 6.61194133 15.7570777 6.61194133 14.58418289 6.60119325 C10.55008051 6.62985038 10.55008051 6.62985038 7.02924895 8.40654176 Z " fill="#FAFEFE" transform="translate(0,0)"/>
<path d="M0 0 C165 0 330 0 500 0 C500 2.64 500 5.28 500 8 C498.5 6.625 498.5 6.625 497 5 C497 4.34 497 3.68 497 3 C493.06008521 1.70780813 489.08800288 1.85905491 484.9914093 1.86857224 C484.17419619 1.8665196 483.35698309 1.86446697 482.51500595 1.86235213 C479.75909381 1.85666888 477.00323144 1.85814101 474.24731445 1.85955811 C472.25855864 1.85697525 470.26980335 1.85396231 468.28104877 1.8505547 C462.80224746 1.84247246 457.32345923 1.84069446 451.84465265 1.83995724 C445.94138391 1.83810887 440.03812199 1.83056275 434.13485718 1.82382202 C420.54858446 1.80952185 406.96231275 1.80371166 393.37603407 1.79913008 C386.66474313 1.79679475 379.95345305 1.79319222 373.24216279 1.7894347 C350.27602111 1.77660066 327.30987992 1.76588013 304.34373474 1.7624321 C302.90207626 1.76221046 301.46041779 1.76198868 300.01875931 1.76176675 C298.57359699 1.76154611 297.12843468 1.76132562 295.68327236 1.7611053 C292.78396543 1.76066274 289.8846585 1.76021563 286.98535156 1.75976562 C285.90706217 1.75960154 285.90706217 1.75960154 284.80698915 1.75943414 C261.483794 1.75580132 238.1606299 1.73987206 214.83744664 1.71657526 C190.18748173 1.6919981 165.53753456 1.6782603 140.88755703 1.67706418 C138.18353207 1.67689272 135.47950713 1.67667729 132.77548218 1.67642975 C131.77674792 1.6763461 131.77674792 1.6763461 130.75783721 1.67626075 C120.69357665 1.67518004 110.62934479 1.66585851 100.56509399 1.65224457 C89.12408549 1.6368836 77.6831302 1.63169944 66.24211335 1.63998267 C60.40068127 1.64390308 54.55935651 1.64289202 48.71793747 1.62892532 C43.37627052 1.61626978 38.03479246 1.61730984 32.69312608 1.62951604 C30.75509669 1.63148758 28.81705429 1.62832816 26.87904322 1.61967167 C24.25532582 1.60868923 21.63228813 1.61598794 19.0085907 1.6280632 C18.24694764 1.62046801 17.48530458 1.61287282 16.70058143 1.60504746 C12.03263271 1.65178968 10.94788582 2.03908564 7 5 C166.39 5.33 325.78 5.66 490 6 C490 6.33 490 6.66 490 7 C488.98297804 7.00135653 487.96595607 7.00271306 486.91811526 7.00411069 C442.11657443 7.06399902 397.31503762 7.12634811 352.51351929 7.20132446 C351.83571164 7.20245809 351.157904 7.20359171 350.45955673 7.20475969 C335.73052326 7.22940861 321.00149058 7.25450137 306.27245865 7.28005161 C299.0498033 7.29257794 291.82714779 7.30500616 284.60449219 7.31738281 C283.88573437 7.31861614 283.16697655 7.31984946 282.4264382 7.32112016 C259.11105357 7.36108127 235.79566509 7.39455767 212.48026586 7.42468691 C188.52941838 7.45567143 164.57858976 7.49316683 140.62776569 7.53890612 C137.24827717 7.54535694 133.86878852 7.55173298 130.48929977 7.55806351 C129.49155897 7.55993596 129.49155897 7.55993596 128.47366179 7.56184625 C118.41267736 7.58054702 108.35169569 7.59348757 98.29069901 7.60334396 C86.85355683 7.61459384 75.41645014 7.63244708 63.97933318 7.65916704 C58.1382084 7.67259493 52.29712516 7.68270661 46.45598412 7.68421364 C41.11674896 7.68566162 35.77761403 7.69617189 30.43840961 7.71413441 C28.49895778 7.71901572 26.5594939 7.72046545 24.62003715 7.71827881 C21.99925419 7.71580744 19.37879663 7.72542786 16.75805092 7.73828697 C15.99161479 7.73463729 15.22517866 7.73098761 14.43551719 7.72722733 C10.2611126 7.62531278 10.2611126 7.62531278 7 10 C6.80628185 13.05269573 6.73787671 16.01437996 6.75708008 19.06787109 C6.75518173 20.00783432 6.75328339 20.94779755 6.75132751 21.91624451 C6.74761135 25.03539267 6.75833747 28.15430989 6.76953125 31.2734375 C6.77072289 33.43576022 6.77117625 35.59808346 6.7709198 37.76040649 C6.77248622 42.29831165 6.78078676 46.83613809 6.79418945 51.37402344 C6.81115922 57.19384069 6.81500443 63.01357117 6.81424427 68.83341026 C6.81451614 73.30118642 6.82000043 77.76894357 6.82724571 82.23671341 C6.83043065 84.38254274 6.83239938 86.52837422 6.83313942 88.67420578 C6.83530596 91.67395446 6.84405772 94.67361095 6.85473633 97.67333984 C6.85428314 98.56283829 6.85382996 99.45233673 6.85336304 100.36878967 C6.85762802 101.18757095 6.86189301 102.00635223 6.86628723 102.84994507 C6.86796308 103.55897161 6.86963892 104.26799816 6.87136555 104.99851036 C6.96300162 107.36148006 6.96300162 107.36148006 8 111 C168.05 111 328.1 111 493 111 C492.67 111.99 492.34 112.98 492 114 C333.6 114 175.2 114 12 114 C12 114.66 12 115.32 12 116 C57.88178937 116.10268528 103.76358954 116.19821221 149.64546204 116.25405884 C150.66366685 116.25530135 150.66366685 116.25530135 151.70244146 116.25656897 C166.4538021 116.2745254 181.20516395 116.29114663 195.95652763 116.30639198 C203.19033835 116.31387616 210.42414874 116.32165546 217.65795898 116.32958984 C218.73774956 116.33076668 218.73774956 116.33076668 219.83935408 116.33196728 C243.18232391 116.35754646 266.52520673 116.40262254 289.86812383 116.45778332 C313.85115189 116.51435395 337.83413178 116.55130685 361.81722544 116.56348994 C365.20277924 116.56521893 368.58833289 116.56717275 371.97388649 116.56926346 C372.64022791 116.569668 373.30656932 116.57007253 373.9931029 116.57048933 C384.06443646 116.57714649 394.13563673 116.6011102 404.2069149 116.63438034 C415.66009868 116.67207898 427.11308591 116.68984383 438.56633248 116.68100826 C444.41406784 116.67715261 450.26136581 116.68319958 456.10902405 116.71523285 C461.45785822 116.74432069 466.80595875 116.74597801 472.1548259 116.72539337 C474.09435146 116.72284739 476.03392184 116.73055284 477.97335847 116.74929909 C480.60220932 116.77324068 483.22838204 116.76049313 485.85718822 116.73828697 C486.61734766 116.75404905 487.37750709 116.76981114 488.16070166 116.78605086 C491.07843499 116.73001956 493.33146765 116.58721107 495.57683889 114.61497016 C496.79527432 113.13718212 497.90669029 111.57261447 499 110 C499.33 110 499.66 110 500 110 C500 112.64 500 115.28 500 118 C335 118 170 118 0 118 C0 79.06 0 40.12 0 0 Z " fill="#C2D5EC" transform="translate(0,0)"/>
<path d="M0 0 C0.80766194 -0.00115384 1.61532387 -0.00230769 2.44746041 -0.0034965 C5.1828912 -0.00616594 7.91826439 -0.00163831 10.65369225 0.00279331 C12.62294827 0.00235768 14.59220424 0.00148291 16.5614599 0.00020415 C21.99549925 -0.00204233 27.42951905 0.00198256 32.86355591 0.00698221 C38.71497283 0.01128433 44.56638857 0.00984045 50.41780663 0.00907993 C60.56331838 0.00855455 70.70882373 0.01170288 80.85433388 0.01731777 C95.52319775 0.02543079 110.19205958 0.02805113 124.86092548 0.02930576 C148.65784679 0.03140761 172.45476476 0.03814896 196.25168419 0.04760838 C219.37375432 0.05678894 242.49582354 0.06387445 265.61789513 0.06811619 C266.33029674 0.06824771 267.04269836 0.06837924 267.77668791 0.06851475 C274.93075042 0.06983324 282.08481295 0.07110906 289.23887548 0.07235361 C303.81324397 0.07489 318.38761241 0.07771125 332.96198082 0.08070469 C333.63212446 0.08084198 334.30226809 0.08097927 334.99271911 0.08112072 C379.763287 0.09032537 424.53385299 0.10619179 469.30441856 0.12304783 C468.64441856 1.44304783 467.98441856 2.76304783 467.30441856 4.12304783 C466.31441856 3.79304783 465.32441856 3.46304783 464.30441856 3.12304783 C461.75166583 3.02364485 459.22612638 2.98084563 456.67319775 2.98438263 C455.88464245 2.98154041 455.09608715 2.97869819 454.28363624 2.97576985 C451.61923271 2.96739271 448.95487249 2.96615228 446.29045677 2.96482944 C444.36983438 2.96026615 442.44921298 2.95526647 440.52859277 2.94986588 C435.23364117 2.9362489 429.93869602 2.92885614 424.64373147 2.92243922 C418.94024674 2.91445087 413.23677547 2.90074773 407.5333004 2.88772678 C397.64591263 2.86594177 387.75852352 2.8478047 377.87112427 2.83212185 C363.5754763 2.80944164 349.27984323 2.78129627 334.98420789 2.75180257 C311.79236728 2.70410396 288.60052084 2.66083742 265.40866661 2.62036228 C242.87545866 2.58102611 220.34225611 2.53960691 197.80905724 2.49536228 C196.7675451 2.49331849 196.7675451 2.49331849 195.70499233 2.4912334 C188.73225014 2.47754825 181.75950805 2.46382069 174.78676601 2.45006206 C116.29266168 2.33464534 57.79854545 2.22638702 -0.69558144 2.12304783 C-1.35558144 4.43304783 -2.01558144 6.74304783 -2.69558144 9.12304783 C-5.00558144 8.79304783 -7.31558144 8.46304783 -9.69558144 8.12304783 C-9.69558144 35.18304783 -9.69558144 62.24304783 -9.69558144 90.12304783 C-10.35558144 90.12304783 -11.01558144 90.12304783 -11.69558144 90.12304783 C-12.02558144 61.08304783 -12.35558144 32.04304783 -12.69558144 2.12304783 C-12.36558144 3.11304783 -12.03558144 4.10304783 -11.69558144 5.12304783 C-11.03558144 5.12304783 -10.37558144 5.12304783 -9.69558144 5.12304783 C-9.69558144 3.80304783 -9.69558144 2.48304783 -9.69558144 1.12304783 C-6.61513977 -0.417173 -3.37998805 -0.01168297 0 0 Z " fill="#094F9D" transform="translate(18.695581436157227,7.876952171325684)"/>
<path d="M0 0 C4.34121569 2.5179051 6.54113301 5.06089902 8.125 9.8125 C8.20766486 11.73156917 8.23240663 13.65339474 8.22265625 15.57421875 C8.21943359 16.69248047 8.21621094 17.81074219 8.21289062 18.96289062 C8.20032227 20.71375977 8.20032227 20.71375977 8.1875 22.5 C8.18298828 23.67884766 8.17847656 24.85769531 8.17382812 26.07226562 C8.16203273 28.98572789 8.1455727 31.89908863 8.125 34.8125 C4.825 34.8125 1.525 34.8125 -1.875 34.8125 C-2.205 34.1525 -2.535 33.4925 -2.875 32.8125 C-3.514375 33.3075 -4.15375 33.8025 -4.8125 34.3125 C-8.92713217 36.32783004 -12.37143471 36.67522165 -16.875 35.8125 C-20.4444752 33.875633 -22.56904468 31.73036596 -23.875 27.8125 C-24.37741693 23.37448383 -24.23419685 21.37850716 -21.8125 17.5625 C-18.34757608 13.9325797 -14.48842691 12.00006652 -9.42578125 11.63671875 C-7.2323367 11.62638856 -5.06394772 11.67848279 -2.875 11.8125 C-3.205 10.8225 -3.535 9.8325 -3.875 8.8125 C-6.33509963 7.58245019 -8.00672806 7.67935973 -10.75 7.6875 C-11.61367188 7.68492188 -12.47734375 7.68234375 -13.3671875 7.6796875 C-15.68165971 7.80226079 -17.65789116 8.16283555 -19.875 8.8125 C-20.205 6.5025 -20.535 4.1925 -20.875 1.8125 C-14.15486392 -1.69365795 -7.26356971 -2.72773541 0 0 Z " fill="#F5F9FB" transform="translate(64.875,48.1875)"/>
<path d="M0 0 C0 2.64 0 5.28 0 8 C-2.31 8.66 -4.62 9.32 -7 10 C-7.33 11.98 -7.66 13.96 -8 16 C-5.69 16 -3.38 16 -1 16 C-1 18.64 -1 21.28 -1 24 C-3.31 24 -5.62 24 -8 24 C-8 32.91 -8 41.82 -8 51 C-11.63 51 -15.26 51 -19 51 C-19 42.09 -19 33.18 -19 24 C-20.65 24 -22.3 24 -24 24 C-24 21.36 -24 18.72 -24 16 C-22.35 16 -20.7 16 -19 16 C-19.0928125 14.4221875 -19.0928125 14.4221875 -19.1875 12.8125 C-18.93308227 7.63933951 -17.30465471 5.50850701 -14 1.6875 C-9.47010909 -0.86056364 -5.08464979 -0.32057337 0 0 Z " fill="#F8FCFB" transform="translate(102,32)"/>
<path d="M0 0 C0 3.3 0 6.6 0 10 C2.31 10 4.62 10 7 10 C7 12.64 7 15.28 7 18 C4.69 18 2.38 18 0 18 C0 23.94 0 29.88 0 36 C3.465 36.495 3.465 36.495 7 37 C7 39.64 7 42.28 7 45 C3.547912 46.726044 -0.21841567 46.35983934 -4 46 C-7.08715304 44.75200196 -8.47748804 43.91758198 -10.12109375 41.03125 C-11.41139724 36.58113664 -11.20963213 32.29344108 -11.125 27.6875 C-11.11597656 26.75615234 -11.10695312 25.82480469 -11.09765625 24.86523438 C-11.07418263 22.5765564 -11.04134729 20.28841328 -11 18 C-12.65 18 -14.3 18 -16 18 C-16 15.36 -16 12.72 -16 10 C-14.35 10 -12.7 10 -11 10 C-11 7.36 -11 4.72 -11 2 C-7.12315913 0.80712589 -4.08378077 0 0 0 Z " fill="#F8FDFC" transform="translate(166,38)"/>
<path d="M0 0 C0.33 0 0.66 0 1 0 C1.33 29.7 1.66 59.4 2 90 C2.33 90 2.66 90 3 90 C3.33 91.65 3.66 93.3 4 95 C242.59 95.495 242.59 95.495 486 96 C486 96.33 486 96.66 486 97 C326.28 97 166.56 97 2 97 C-0.25 92.5 -0.25 92.5 -0.24050903 88.98834229 C-0.24325836 88.2003273 -0.24600769 87.41231232 -0.24884033 86.60041809 C-0.24164978 85.74518051 -0.23445923 84.88994293 -0.22705078 84.00878906 C-0.22734283 83.10112289 -0.22763489 82.19345673 -0.22793579 81.25828552 C-0.22654338 78.26063449 -0.21098625 75.26323257 -0.1953125 72.265625 C-0.19158206 70.18626033 -0.18873523 68.10689391 -0.18673706 66.02752686 C-0.17910308 60.55632672 -0.15945654 55.08523287 -0.1373291 49.61407471 C-0.11686565 44.03049151 -0.10773427 38.44689114 -0.09765625 32.86328125 C-0.07621049 21.90880748 -0.04207731 10.95441258 0 0 Z " fill="#164886" transform="translate(6,14)"/>
<path d="M0 0 C165 0 330 0 500 0 C500 2.64 500 5.28 500 8 C498.5 6.625 498.5 6.625 497 5 C497 4.34 497 3.68 497 3 C493.04357914 1.70008243 489.04611517 1.85656692 484.93173313 1.86298561 C484.10806613 1.86033378 483.28439912 1.85768196 482.43577251 1.85494977 C479.65789964 1.84725081 476.88007094 1.84669737 474.10218811 1.84609985 C472.09764551 1.84208566 470.09310372 1.83764751 468.08856291 1.8328203 C462.56608909 1.82084478 457.04362401 1.81520411 451.52113974 1.81063914 C445.57081441 1.80468702 439.62049955 1.79307646 433.67018127 1.78234863 C419.97512792 1.75897902 406.28007041 1.74441874 392.58500362 1.73211922 C387.8480178 1.72786457 383.11103237 1.72329886 378.37404704 1.7185359 C353.19301527 1.69328046 328.01198285 1.67123 302.8309412 1.65880775 C296.99772705 1.65588639 291.16451293 1.65291887 285.33129883 1.64990234 C284.24423652 1.64934598 284.24423652 1.64934598 283.13521335 1.64877838 C259.62497843 1.63661595 236.11481826 1.60565913 212.60461847 1.56398082 C188.44023281 1.52122078 164.27588665 1.49457045 140.11146212 1.48933304 C136.70067052 1.48859257 133.28987898 1.48768188 129.87908745 1.48667526 C129.20779943 1.48648465 128.53651141 1.48629403 127.84488134 1.48609764 C117.03022704 1.48258049 106.21566624 1.46226662 95.40104631 1.43587863 C84.53764706 1.40977056 73.67436133 1.40240639 62.81093556 1.41297992 C56.92272492 1.41818394 51.03481238 1.41516667 45.14664459 1.39051437 C39.76102636 1.36815343 34.37592263 1.36865883 28.99029618 1.38771825 C27.03743903 1.39053676 25.08454795 1.38481802 23.1317457 1.36990531 C20.48523209 1.35092358 17.8405768 1.36250258 15.19410801 1.38196754 C14.42867458 1.36911832 13.66324116 1.3562691 12.87461278 1.34303051 C8.89496756 1.40773545 7.20885379 1.82539933 4.11286825 4.41362703 C3.41562173 5.26713011 2.7183752 6.12063319 2 7 C1.34 7.66 0.68 8.32 0 9 C0 6.03 0 3.06 0 0 Z " fill="#89A5C6" transform="translate(0,0)"/>
<path d="M0 0 C1.24028507 1.86042761 2.45254887 3.74027884 3.61878115 5.64800006 C6.36153444 8.3570982 7.97338568 8.59815313 11.76318863 8.66660503 C12.53417191 8.65518504 13.3051552 8.64376506 14.09950161 8.63199902 C14.92654536 8.63956582 15.75358912 8.64713262 16.6056948 8.65492871 C19.39549017 8.67428087 22.18393995 8.65780046 24.97373962 8.64164734 C26.98653889 8.64812049 28.99933213 8.65677169 31.01211363 8.66742164 C36.55752551 8.69031623 42.10251976 8.68182154 47.64794624 8.66828239 C53.62284186 8.65905711 59.59765264 8.67849764 65.57252502 8.69425964 C76.60579591 8.7188854 87.63895459 8.7205313 98.67223737 8.71013172 C108.86471952 8.70055144 119.05715216 8.69982242 129.2496357 8.70801735 C130.61568692 8.70908314 131.98173814 8.71014868 133.34778937 8.71121398 C135.40618723 8.71283501 137.46458509 8.71446731 139.52298292 8.716127 C158.66578101 8.73138874 177.80856243 8.73687972 196.95136166 8.72152996 C197.67330731 8.72095119 198.39525296 8.72037242 199.13907575 8.71977612 C205.0021635 8.71501117 210.865251 8.70995333 216.72833849 8.70487839 C239.60110189 8.68528446 262.47368877 8.69448843 285.34643555 8.72729492 C311.03236827 8.76405807 336.71819763 8.78117737 362.40415674 8.76788265 C365.14162065 8.76652511 367.87908459 8.76522504 370.61654854 8.76395607 C371.62763002 8.76346412 371.62763002 8.76346412 372.65913738 8.76296224 C382.84546023 8.75838029 393.03169495 8.76903635 403.21800041 8.78720665 C414.79921092 8.8078097 426.38020463 8.80672229 437.96140402 8.77857425 C443.87394635 8.76476336 449.78607715 8.76070008 455.69860458 8.78252411 C461.10653609 8.80222242 466.51369109 8.79444126 471.92156822 8.76432977 C473.88248948 8.75829955 475.84347303 8.7624922 477.80434465 8.777693 C480.46206222 8.79680113 483.11706743 8.77926593 485.77465725 8.75225353 C486.92762043 8.7737528 486.92762043 8.7737528 488.10387579 8.79568639 C491.03875473 8.73462963 493.31975601 8.59596835 495.58185721 6.61411957 C496.79957833 5.13732886 497.9090237 3.5727448 499 2 C499.33 2 499.66 2 500 2 C500 4.64 500 7.28 500 10 C335 10 170 10 0 10 C0 6.7 0 3.4 0 0 Z " fill="#89A5C5" transform="translate(0,108)"/>
<path d="M0 0 C0 3.63 0 7.26 0 11 C-3.02734375 11.24414062 -3.02734375 11.24414062 -6.0546875 11.48828125 C-8.39519216 11.87393036 -8.39519216 11.87393036 -10 15 C-10.36576054 17.31923274 -10.36576054 17.31923274 -10.4140625 19.88671875 C-10.47207031 21.2934082 -10.47207031 21.2934082 -10.53125 22.72851562 C-10.5621875 23.70498047 -10.593125 24.68144531 -10.625 25.6875 C-10.68300781 27.16959961 -10.68300781 27.16959961 -10.7421875 28.68164062 C-10.83645399 31.1207861 -10.9193159 33.56036747 -11 36 C-14.63 36 -18.26 36 -22 36 C-22 24.45 -22 12.9 -22 1 C-19.03 1 -16.06 1 -13 1 C-12.67 2.32 -12.34 3.64 -12 5 C-11.13375 4.175 -10.2675 3.35 -9.375 2.5 C-6.25207583 -0.13961448 -4.12269101 -0.49079655 0 0 Z " fill="#F9FEFD" transform="translate(128,47)"/>
<path d="M0 0 C3.63 0 7.26 0 11 0 C11 11.55 11 23.1 11 35 C7.37 35 3.74 35 0 35 C0 23.45 0 11.9 0 0 Z " fill="#F4FAFC" transform="translate(133,48)"/>
<path d="M0 0 C0.99 0.33 1.98 0.66 3 1 C3.3125 3.3125 3.3125 3.3125 3 6 C-0.55964352 9.03616654 -3.42411796 9.31924758 -8 9 C-3.545 9.99 -3.545 9.99 1 11 C1.36010591 18.32215357 1.36010591 18.32215357 -0.0625 21 C-3.02087678 22.52690415 -5.73716599 22.18468872 -9 22 C-9.33 22.99 -9.66 23.98 -10 25 C-10.66 25 -11.32 25 -12 25 C-10.94369738 26.64570159 -10.94369738 26.64570159 -9 28 C-5.37464024 28.2503577 -5.37464024 28.2503577 -2 28 C-4.35951179 30.35951179 -5.01925635 30.34409415 -8.25 30.4375 C-11.75171226 30.36972492 -13.76151613 29.89423943 -16.5 27.6875 C-19.42018052 24.54830594 -19.89788294 22.90203407 -20.375 18.6875 C-19.91800779 14.19374328 -18.38263172 11.82599612 -15 9 C-9.6019202 5.88572319 -5.04840703 5.62968937 1 6 C0.2236068 2.9254644 0.2236068 2.9254644 -2 1 C-1.34 0.67 -0.68 0.34 0 0 Z " fill="#EFF8FB" transform="translate(61,54)"/>
<path d="M0 0 C52.47 0 104.94 0 159 0 C159 0.66 159 1.32 159 2 C158.22124166 1.99539104 157.44248331 1.99078207 156.64012623 1.98603344 C137.69482835 1.87563157 118.74959464 1.7928811 99.80404377 1.74093914 C90.64211287 1.71515297 81.48039664 1.67999463 72.31860352 1.62280273 C64.33355145 1.57298031 56.34865484 1.54071199 48.36345166 1.52955753 C44.13491554 1.52303674 39.90682418 1.50770291 35.67843056 1.47134972 C31.69830734 1.43740828 27.71881201 1.42694308 23.73855782 1.43446159 C22.27803383 1.43308619 20.81748883 1.42314195 19.35709 1.40397263 C17.36214143 1.37907152 15.36685586 1.38806283 13.3717804 1.39872742 C12.25548909 1.39411845 11.13919779 1.38950949 9.98907948 1.38476086 C6.04325791 2.19692524 4.58692985 3.99407927 2 7 C1.34 7.66 0.68 8.32 0 9 C0 6.03 0 3.06 0 0 Z " fill="#85A0C0" transform="translate(0,0)"/>
<path d="M0 0 C0.33 0 0.66 0 1 0 C1 2.64 1 5.28 1 8 C-39.59 8 -80.18 8 -122 8 C-122 7.67 -122 7.34 -122 7 C-121.10243343 7.00056554 -121.10243343 7.00056554 -120.1867342 7.0011425 C-105.62245105 7.00826163 -91.05848541 6.98234471 -76.49434376 6.9197216 C-69.45114717 6.89023266 -62.40825226 6.87189892 -55.36499023 6.87988281 C-48.56961678 6.88755432 -41.77492268 6.86406425 -34.97968102 6.82144547 C-32.38533567 6.81029106 -29.79092354 6.80963492 -27.19657326 6.81957626 C-23.56626706 6.83170599 -19.9379897 6.80674146 -16.30786133 6.77294922 C-15.2318013 6.78517014 -14.15574127 6.79739105 -13.04707336 6.8099823 C-7.7839901 6.86057253 -7.7839901 6.86057253 -3.22867393 4.61285782 C-1.67673987 2.80784754 -1.67673987 2.80784754 0 0 Z " fill="#89A5C6" transform="translate(499,110)"/>
<path d="M0 0 C0 3.63 0 7.26 0 11 C-1.258125 11.103125 -2.51625 11.20625 -3.8125 11.3125 C-6.60499657 11.64858808 -7.74433121 11.80025876 -10 13.5625 C-10.33 14.036875 -10.66 14.51125 -11 15 C-13 13 -13 13 -13.5625 9.1875 C-13.50064425 6.57528426 -13.32494615 5.39237014 -11.64453125 3.36328125 C-7.82735563 0.422455 -4.904085 -0.59805915 0 0 Z " fill="#F9FDFA" transform="translate(128,47)"/>
<path d="M0 0 C0.66 0 1.32 0 2 0 C5.8679344 4.5326534 5.4055486 9.29377686 5.34057617 14.9309082 C5.34101425 15.92650253 5.34145233 16.92209686 5.34190369 17.94786072 C5.33981686 21.23236836 5.31649028 24.51636298 5.29296875 27.80078125 C5.28737243 30.08049745 5.2831025 32.36021726 5.28010559 34.63993835 C5.2686597 40.63560982 5.23919445 46.63106274 5.20599365 52.62664795 C5.17528742 58.74651127 5.16159905 64.86640995 5.14648438 70.98632812 C5.11432473 82.99098136 5.06313124 94.99547249 5 107 C4.67 107 4.34 107 4 107 C3.99191315 105.87184372 3.98382629 104.74368744 3.97549438 103.5813446 C3.89778915 92.91546858 3.80998954 82.2497163 3.71247292 71.58400249 C3.6626665 66.10151861 3.61633576 60.61905255 3.578125 55.13647461 C3.54107362 49.83901829 3.49466131 44.54171699 3.44193649 39.2443943 C3.42349753 37.22997589 3.40835146 35.21552438 3.39665604 33.20105553 C3.39161175 18.48220894 3.39161175 18.48220894 1 4 C0.72042953 2.87310005 0.72042953 2.87310005 0.43521118 1.72343445 C0.29159149 1.15470108 0.1479718 0.58596771 0 0 Z " fill="#E3F9FC" transform="translate(495,3)"/>
<path d="M0 0 C1.32 0.33 2.64 0.66 4 1 C4 12.88 4 24.76 4 37 C3.67 37 3.34 37 3 37 C2.97494385 36.35450195 2.9498877 35.70900391 2.92407227 35.04394531 C2.80785567 32.11244106 2.68524558 29.18123783 2.5625 26.25 C2.52318359 25.23421875 2.48386719 24.2184375 2.44335938 23.171875 C2.40146484 22.1921875 2.35957031 21.2125 2.31640625 20.203125 C2.27974854 19.30239258 2.24309082 18.40166016 2.20532227 17.47363281 C2.01468099 15.17687019 1.75810547 13.17615108 1 11 C0.34 10.67 -0.32 10.34 -1 10 C-1.33 10.66 -1.66 11.32 -2 12 C-2 11.34 -2 10.68 -2 10 C-3.65 10 -5.3 10 -7 10 C-7 18.25 -7 26.5 -7 35 C-6.34 35 -5.68 35 -5 35 C-5.33 35.66 -5.66 36.32 -6 37 C-6.66 37 -7.32 37 -8 37 C-8 27.76 -8 18.52 -8 9 C-5.69 9 -3.38 9 -1 9 C-1.020625 7.700625 -1.04125 6.40125 -1.0625 5.0625 C-1.08399454 3.70834367 -1.07148199 2.35243917 -1 1 C-0.67 0.67 -0.34 0.34 0 0 Z " fill="#1A4D8B" transform="translate(102,47)"/>
<path d="M0 0 C3.0625 0.3125 3.0625 0.3125 5 1.4375 C6.0625 3.3125 6.0625 3.3125 5.9375 6.375 C5.0625 9.3125 5.0625 9.3125 2.0625 11.3125 C-1 11.125 -1 11.125 -3.9375 10.3125 C-5.9375 7.3125 -5.9375 7.3125 -5.6875 4.75 C-4.58727173 1.17425813 -3.7416128 0.39804391 0 0 Z " fill="#EAF3F7" transform="translate(138.9375,32.6875)"/>
<path d="M0 0 C0.99 0.33 1.98 0.66 3 1 C4.1875 4.5625 4.1875 4.5625 5 8 C9.23646767 9.0089034 9.23646767 9.0089034 13.375 8.0625 C13.91125 7.711875 14.4475 7.36125 15 7 C14.34 8.65 13.68 10.3 13 12 C13.66 12 14.32 12 15 12 C15 24.21 15 36.42 15 49 C14.67 49 14.34 49 14 49 C14 37.45 14 25.9 14 14 C10.37 14 6.74 14 3 14 C3.33 13.34 3.66 12.68 4 12 C3.22835994 9.5983685 3.22835994 9.5983685 2.0625 7 C0 2.18983051 0 2.18983051 0 0 Z " fill="#3B6BA1" transform="translate(130,34)"/>
<path d="M0 0 C0.33 0 0.66 0 1 0 C1 28.38 1 56.76 1 86 C0.01 86 -0.98 86 -2 86 C-1.83923477 85.34006546 -1.67846954 84.68013092 -1.51283264 84.00019836 C-0.88444768 80.32399024 -0.82361548 76.71460527 -0.79467773 72.99682617 C-0.78477814 72.20605682 -0.77487854 71.41528748 -0.76467896 70.60055542 C-0.73320074 67.99805654 -0.70836086 65.39553943 -0.68359375 62.79296875 C-0.6630124 60.9840702 -0.64201562 59.17517634 -0.62062073 57.36628723 C-0.56552203 52.61361491 -0.5160591 47.86090007 -0.46777344 43.1081543 C-0.41746915 38.25500724 -0.36182975 33.40192166 -0.30664062 28.54882812 C-0.19920837 19.03260465 -0.09773043 9.51632771 0 0 Z " fill="#0051A9" transform="translate(491,18)"/>
<path d="M0 0 C0 0.33 0 0.66 0 1 C-2.31 1.33 -4.62 1.66 -7 2 C-6.67 3.32 -6.34 4.64 -6 6 C-4.68 6.33 -3.36 6.66 -2 7 C-2 7.33 -2 7.66 -2 8 C-2.67546875 8.06058594 -3.3509375 8.12117188 -4.046875 8.18359375 C-4.93890625 8.26738281 -5.8309375 8.35117187 -6.75 8.4375 C-7.63171875 8.51871094 -8.5134375 8.59992187 -9.421875 8.68359375 C-11.69350452 8.96238465 -13.79851823 9.38790577 -16 10 C-16.33 7.69 -16.66 5.38 -17 3 C-11.17521449 -0.03901852 -6.51791392 -0.3540919 0 0 Z " fill="#D4E6F4" transform="translate(61,47)"/>
<path d="M0 0 C0.87527344 -0.01417969 1.75054687 -0.02835938 2.65234375 -0.04296875 C5.0625 0.1875 5.0625 0.1875 8.0625 2.1875 C8.0625 3.1775 8.0625 4.1675 8.0625 5.1875 C7.26585938 5.29707031 6.46921875 5.40664063 5.6484375 5.51953125 C-0.0847414 6.37741568 -4.96330893 7.14771657 -9.9375 10.1875 C-9.9375 9.1975 -9.9375 8.2075 -9.9375 7.1875 C-9.2775 6.8575 -8.6175 6.5275 -7.9375 6.1875 C-7.9375 5.5275 -7.9375 4.8675 -7.9375 4.1875 C-7.2775 4.1875 -6.6175 4.1875 -5.9375 4.1875 C-5.6075 3.5275 -5.2775 2.8675 -4.9375 2.1875 C-5.5975 1.8575 -6.2575 1.5275 -6.9375 1.1875 C-4.47380468 -0.04434766 -2.7480499 0.02017658 0 0 Z " fill="#285F99" transform="translate(53.9375,54.8125)"/>
<path d="M0 0 C0.36 5.4 0.36 5.4 -1.125 7.875 C-3.80858771 9.48515263 -5.93550972 9.26647742 -9 9 C-10 8 -10 8 -10.25 5.0625 C-10.1675 4.051875 -10.085 3.04125 -10 2 C-6.3558226 -0.4294516 -4.28758728 -0.16179575 0 0 Z " fill="#225994" transform="translate(62,67)"/>
<path d="M0 0 C2.31 0 4.62 0 7 0 C7 2.64 7 5.28 7 8 C4.69 8 2.38 8 0 8 C0 16.91 0 25.82 0 35 C-0.33 35 -0.66 35 -1 35 C-1 25.1 -1 15.2 -1 5 C2 4 2 4 5 5 C5 4.01 5 3.02 5 2 C3.35 1.67 1.7 1.34 0 1 C0 0.67 0 0.34 0 0 Z " fill="#D2E9FB" transform="translate(94,48)"/>
<path d="M0 0 C-1.32 0.99 -2.64 1.98 -4 3 C-3.01 3.66 -2.02 4.32 -1 5 C-2.65 6.65 -4.3 8.3 -6 10 C-6 9.01 -6 8.02 -6 7 C-7.65 8.32 -9.3 9.64 -11 11 C-10.54726428 6.133091 -9.35474936 3.5580675 -6 0 C-3.50907189 -1.24546405 -2.58919267 -0.7767578 0 0 Z " fill="#E0F0F8" transform="translate(11,2)"/>
<path d="M0 0 C0.33 0 0.66 0 1 0 C1.02187378 0.85380249 1.02187378 0.85380249 1.04418945 1.72485352 C1.11929165 4.33803828 1.21574189 6.95003099 1.3125 9.5625 C1.33505859 10.45775391 1.35761719 11.35300781 1.38085938 12.27539062 C1.60712008 17.89077003 2.43484767 21.98660577 5 27 C2.5625 26.3125 2.5625 26.3125 0 25 C-2.93704587 17.77034864 -0.89880084 7.54350703 0 0 Z " fill="#2F5F9A" transform="translate(154,56)"/>
<path d="M0 0 C1.98 0 3.96 0 6 0 C6 3.63 6 7.26 6 11 C4.741875 11.103125 3.48375 11.20625 2.1875 11.3125 C-0.60499657 11.64858808 -1.74433121 11.80025876 -4 13.5625 C-4.33 14.036875 -4.66 14.51125 -5 15 C-5.33 14.34 -5.66 13.68 -6 13 C-5.67 12.34 -5.34 11.68 -5 11 C-4.34 11 -3.68 11 -3 11 C-3 10.34 -3 9.68 -3 9 C0.465 8.505 0.465 8.505 4 8 C4.33 5.69 4.66 3.38 5 1 C3.35 1 1.7 1 0 1 C0 0.67 0 0.34 0 0 Z " fill="#C5DDF1" transform="translate(122,47)"/>
<path d="M0 0 C2.31 0 4.62 0 7 0 C7 0.33 7 0.66 7 1 C5.35 1.33 3.7 1.66 2 2 C2 6.62 2 11.24 2 16 C3.65 16 5.3 16 7 16 C7 16.99 7 17.98 7 19 C4.69 18.67 2.38 18.34 0 18 C0 12.06 0 6.12 0 0 Z " fill="#1D4E85" transform="translate(166,56)"/>
<path d="M0 0 C2 3 2 3 2 6 C3.65 5.67 5.3 5.34 7 5 C7.66 6.65 8.32 8.3 9 10 C6.03 9.505 6.03 9.505 3 9 C2.67 9.66 2.34 10.32 2 11 C0.19769832 7.17010894 -0.19622241 4.21878192 0 0 Z " fill="#E0F4FA" transform="translate(0,102)"/>
<path d="M0 0 C0.99 0.66 1.98 1.32 3 2 C2.01 4.31 1.02 6.62 0 9 C-0.66 9 -1.32 9 -2 9 C-2 9.66 -2 10.32 -2 11 C-2.66 11 -3.32 11 -4 11 C-4.35233161 5.62694301 -4.35233161 5.62694301 -4 3 C-2 1 -2 1 0 0 Z " fill="#FCFAF9" transform="translate(119,49)"/>
<path d="M0 0 C1.65 0 3.3 0 5 0 C5 1.98 5 3.96 5 6 C4.01 6.495 4.01 6.495 3 7 C3 6.34 3 5.68 3 5 C0.69 5.33 -1.62 5.66 -4 6 C-4 5.01 -4 4.02 -4 3 C-2.68 2.34 -1.36 1.68 0 1 C0 0.67 0 0.34 0 0 Z " fill="#134D95" transform="translate(57,67)"/>
<path d="M0 0 C2.97 0 5.94 0 9 0 C8.2575 0.556875 7.515 1.11375 6.75 1.6875 C4.08292005 3.93027178 2.08443768 6.22074975 0 9 C0 6.03 0 3.06 0 0 Z " fill="#1A5594" transform="translate(0,0)"/>
<path d="M0 0 C0.99 1.485 0.99 1.485 2 3 C3.91738499 5.45664952 5.79582183 7.79582183 8 10 C5.36 10 2.72 10 0 10 C0 6.7 0 3.4 0 0 Z " fill="#215594" transform="translate(0,108)"/>
<path d="M0 0 C0.33 0.66 0.66 1.32 1 2 C1.66 2 2.32 2 3 2 C3 2.66 3 3.32 3 4 C4.32 4.33 5.64 4.66 7 5 C6.67 5.66 6.34 6.32 6 7 C3.69 7 1.38 7 -1 7 C-1.04254356 5.00045254 -1.04080783 2.99958364 -1 1 C-0.67 0.67 -0.34 0.34 0 0 Z " fill="#1D5398" transform="translate(95,41)"/>
<path d="M0 0 C0.33 0 0.66 0 1 0 C1 5.94 1 11.88 1 18 C3.31 18.33 5.62 18.66 8 19 C8 19.99 8 20.98 8 22 C2.25 20.125 2.25 20.125 0 19 C0 12.73 0 6.46 0 0 Z " fill="#B4D1E6" transform="translate(165,56)"/>
<path d="M0 0 C7.75 -0.125 7.75 -0.125 10 1 C10 1.99 10 2.98 10 4 C9.484375 3.814375 8.96875 3.62875 8.4375 3.4375 C5.14091261 2.84580483 2.27754265 3.432733 -1 4 C-0.67 2.68 -0.34 1.36 0 0 Z " fill="#154F91" transform="translate(51,55)"/>
<path d="M0 0 C3.3 0 6.6 0 10 0 C10 2.64 10 5.28 10 8 C8.5 6.625 8.5 6.625 7 5 C7 4.34 7 3.68 7 3 C4.69 2.34 2.38 1.68 0 1 C0 0.67 0 0.34 0 0 Z " fill="#1C5493" transform="translate(490,0)"/>
<path d="M0 0 C0.33 0 0.66 0 1 0 C1 2.31 1 4.62 1 7 C2.32 7 3.64 7 5 7 C4.67 7.99 4.34 8.98 4 10 C3.01 9.67 2.02 9.34 1 9 C0.67 10.32 0.34 11.64 0 13 C0 12.34 0 11.68 0 11 C-0.66 11 -1.32 11 -2 11 C-1 3.57142857 -1 3.57142857 0 0 Z " fill="#124B8C" transform="translate(149,49)"/>
<path d="M0 0 C0.33 0 0.66 0 1 0 C1 2.64 1 5.28 1 8 C-1.64 8 -4.28 8 -7 8 C-6.21625 7.236875 -5.4325 6.47375 -4.625 5.6875 C-1.92742283 3.09108195 -1.92742283 3.09108195 0 0 Z " fill="#205595" transform="translate(499,110)"/>
<path d="M0 0 C0.33 1.65 0.66 3.3 1 5 C4.63 5.33 8.26 5.66 12 6 C12 6.33 12 6.66 12 7 C7.71 7 3.42 7 -1 7 C-1.66 5.02 -2.32 3.04 -3 1 C-1 0 -1 0 0 0 Z " fill="#20508C" transform="translate(9,104)"/>
<path d="M0 0 C1.98 0.99 3.96 1.98 6 3 C5.34 4.32 4.68 5.64 4 7 C2 7 2 7 0.3125 5.75 C-1 4 -1 4 -0.6875 1.8125 C-0.460625 1.214375 -0.23375 0.61625 0 0 Z " fill="#DFEEF7" transform="translate(493,107)"/>
<path d="M0 0 C2 0.25 2 0.25 4 1 C4.33 1.99 4.66 2.98 5 4 C4.01 4 3.02 4 2 4 C1.67 4.99 1.34 5.98 1 7 C0.34 7 -0.32 7 -1 7 C-1.04254356 5.00045254 -1.04080783 2.99958364 -1 1 C-0.67 0.67 -0.34 0.34 0 0 Z " fill="#EDF9FB" transform="translate(46,50)"/>
<path d="M0 0 C0.33 1.65 0.66 3.3 1 5 C0.484375 4.67 -0.03125 4.34 -0.5625 4 C-3.78026512 2.67989123 -6.5570528 2.86757895 -10 3 C-10 2.34 -10 1.68 -10 1 C-6.52674819 -0.1577506 -3.63932552 -0.06866652 0 0 Z " fill="#225897" transform="translate(145,31)"/>
<path d="M0 0 C6.93 0.495 6.93 0.495 14 1 C14 1.33 14 1.66 14 2 C13.26394531 2.06058594 12.52789062 2.12117188 11.76953125 2.18359375 C10.79371094 2.26738281 9.81789063 2.35117187 8.8125 2.4375 C7.84957031 2.51871094 6.88664062 2.59992187 5.89453125 2.68359375 C3.21350398 2.97666151 0.6337014 3.42703754 -2 4 C-1.34 2.68 -0.68 1.36 0 0 Z " fill="#17508B" transform="translate(48,45)"/>
<path d="M0 0 C0 3.3 0 6.6 0 10 C-0.33 10 -0.66 10 -1 10 C-1.33 8.02 -1.66 6.04 -2 4 C-2.99 3.67 -3.98 3.34 -5 3 C-5.99 2.34 -6.98 1.68 -8 1 C-5.10765685 0.17361624 -3.11257569 0 0 0 Z " fill="#B4CBE1" transform="translate(166,38)"/>
<path d="M0 0 C0.94875 0.04125 1.8975 0.0825 2.875 0.125 C2.875 0.455 2.875 0.785 2.875 1.125 C1.225 1.455 -0.425 1.785 -2.125 2.125 C-2.455 4.105 -2.785 6.085 -3.125 8.125 C-4.115 7.795 -5.105 7.465 -6.125 7.125 C-5.03177966 0.20127119 -5.03177966 0.20127119 0 0 Z " fill="#DAEFFA" transform="translate(139.125,32.875)"/>
<path d="M0 0 C1.15392455 2.3078491 1.53437166 4.47230331 2 7 C1.01 7.66 0.02 8.32 -1 9 C-1.33 7.35 -1.66 5.7 -2 4 C-3.32 3.67 -4.64 3.34 -6 3 C-5.195625 2.690625 -4.39125 2.38125 -3.5625 2.0625 C-1.10919595 1.23664655 -1.10919595 1.23664655 0 0 Z " fill="#D7ECF5" transform="translate(61,73)"/>
<path d="M0 0 C0 3 0 3 -1 5 C-0.34 5 0.32 5 1 5 C1 5.66 1 6.32 1 7 C-2.96 7 -6.92 7 -11 7 C-11 6.67 -11 6.34 -11 6 C-9.741875 5.938125 -8.48375 5.87625 -7.1875 5.8125 C-4.99662023 5.61479712 -4.99662023 5.61479712 -3 5 C-0.93545998 2.59256899 -0.93545998 2.59256899 0 0 Z " fill="#164A8A" transform="translate(144,41)"/>
<path d="M0 0 C0.33 0 0.66 0 1 0 C1 1.65 1 3.3 1 5 C2.32 4.67 3.64 4.34 5 4 C5 5.32 5 6.64 5 8 C3.35 8 1.7 8 0 8 C0 5.36 0 2.72 0 0 Z " fill="#DBEDFC" transform="translate(78,48)"/>
<path d="M0 0 C1.66623639 0.03786901 3.33397597 0.04627845 5 0 C3 2 3 2 0.90625 2.265625 C0.1121875 2.26046875 -0.681875 2.2553125 -1.5 2.25 C-2.2940625 2.25515625 -3.088125 2.2603125 -3.90625 2.265625 C-6 2 -6 2 -8 0 C-4.87474452 -1.00454641 -3.12599804 -0.85254492 0 0 Z " fill="#D1E7F6" transform="translate(54,82)"/>
<path d="M0 0 C0.66 0.33 1.32 0.66 2 1 C2.625 4.0625 2.625 4.0625 3 7 C3.99 7 4.98 7 6 7 C6 7.66 6 8.32 6 9 C3.625 8.375 3.625 8.375 1 7 C-0.3125 3.875 -0.3125 3.875 -1 1 C-0.67 0.67 -0.34 0.34 0 0 Z " fill="#DAF2FB" transform="translate(156,74)"/>
<path d="M0 0 C0.99 0.33 1.98 0.66 3 1 C3.7166207 3.31847874 4.38242027 5.65319703 5 8 C5.66 8.66 6.32 9.32 7 10 C6.01 10.33 5.02 10.66 4 11 C3.32880451 9.5437455 2.66318193 8.08492133 2 6.625 C1.62875 5.81289063 1.2575 5.00078125 0.875 4.1640625 C0 2 0 2 0 0 Z " fill="#1B5491" transform="translate(130,34)"/>
<path d="M0 0 C-0.33 1.32 -0.66 2.64 -1 4 C-3.96175123 3.38722388 -5.38058783 2.74627478 -8 1 C-5.29120665 -0.35439668 -2.99066732 -0.06501451 0 0 Z " fill="#E6F5FB" transform="translate(97,32)"/>
<path d="M0 0 C1.65 0 3.3 0 5 0 C2.38485683 2.12038635 -0.19637616 4.13091744 -3 6 C-3 4.68 -3 3.36 -3 2 C-2.01 2 -1.02 2 0 2 C0 1.34 0 0.68 0 0 Z " fill="#20538B" transform="translate(88,31)"/>
<path d="M0 0 C0.99 0.66 1.98 1.32 3 2 C0.69 3.32 -1.62 4.64 -4 6 C-3.0022242 3.00667261 -2.2477975 2.05233685 0 0 Z " fill="#D3E4F1" transform="translate(119,49)"/>
<path d="M0 0 C-2.31 1.32 -4.62 2.64 -7 4 C-6.625 2.0625 -6.625 2.0625 -6 0 C-3.50907189 -1.24546405 -2.58919267 -0.7767578 0 0 Z " fill="#EBF7FE" transform="translate(11,2)"/>
</svg>
