<?xml version="1.0" encoding="UTF-8"?>
<svg version="1.1" xmlns="http://www.w3.org/2000/svg" width="395" height="118">
<path d="M0 0 C130.35 0 260.7 0 395 0 C395 38.94 395 77.88 395 118 C264.65 118 134.3 118 0 118 C0 79.06 0 40.12 0 0 Z " fill="#0A4E9C" transform="translate(0,0)"/>
<path d="M0 0 C130.35 0 260.7 0 395 0 C395 38.94 395 77.88 395 118 C264.65 118 134.3 118 0 118 C0 79.06 0 40.12 0 0 Z M7.13076186 8.40654176 C5.70705235 10.41281888 5.62519742 11.56724434 5.6257782 14.01634216 C5.61876389 14.83085846 5.61174957 15.64537476 5.60452271 16.48457336 C5.61216644 17.37452499 5.61981018 18.26447662 5.62768555 19.18139648 C5.62403488 20.12150574 5.62038422 21.06161499 5.61662292 22.0302124 C5.60850393 25.14402216 5.62213992 28.25731369 5.63671875 31.37109375 C5.63723724 33.5319875 5.63671998 35.69288174 5.63520813 37.85377502 C5.63529792 42.38574248 5.64573983 46.91753228 5.66381836 51.44946289 C5.68649208 57.26145873 5.68705272 63.07319456 5.68030071 68.88522243 C5.67696036 73.34872248 5.68359233 77.81216315 5.69342995 82.27565193 C5.69728209 84.41868848 5.6984301 86.56173162 5.6968441 88.70477104 C5.69647359 91.69971181 5.70909028 94.69431838 5.7253418 97.68920898 C5.72286438 98.57713638 5.72038696 99.46506378 5.71783447 100.37989807 C5.72491928 101.19723419 5.73200409 102.01457031 5.73930359 102.85667419 C5.74135646 103.56440192 5.74340933 104.27212965 5.74552441 105.00130367 C5.9439627 107.43903383 5.9439627 107.43903383 8 111 C133.4 111 258.8 111 388 111 C389.7758112 107.4483776 390.25009256 106.49336293 390.25396729 102.85667419 C390.25960693 102.03933807 390.26524658 101.22200195 390.27105713 100.37989807 C390.26700867 99.49197067 390.26296021 98.60404327 390.25878906 97.68920898 C390.2622937 96.74734741 390.26579834 95.80548584 390.26940918 94.83508301 C390.27821135 91.72201161 390.27238309 88.60916746 390.265625 85.49609375 C390.26697197 83.33423316 390.26891277 81.17237286 390.27142334 79.01051331 C390.27437246 74.4803682 390.2700833 69.95030196 390.26074219 65.42016602 C390.24934101 59.60699158 390.25591274 53.79400169 390.26788712 47.98083401 C390.27510559 43.5173859 390.27281795 39.05398172 390.26763153 34.5905323 C390.26629536 32.44666586 390.26794163 30.30279546 390.27259064 28.15893364 C390.27765636 25.16631334 390.26994518 22.17399429 390.25878906 19.18139648 C390.26486176 17.84646904 390.26486176 17.84646904 390.27105713 16.48457336 C390.26541748 15.67005707 390.25977783 14.85554077 390.25396729 14.01634216 C390.25321323 13.30899146 390.25245918 12.60164076 390.25168228 11.87285519 C390.09466651 9.66648141 390.09466651 9.66648141 388 7 C385.20051394 6.54336783 385.20051394 6.54336783 381.84330082 6.62247658 C381.20199829 6.61811626 380.56069577 6.61375593 379.89995983 6.60926348 C377.7302211 6.59823084 375.56110779 6.6087657 373.39137268 6.61904907 C371.82848198 6.61559564 370.2655937 6.61083321 368.70271057 6.60486734 C364.39175898 6.59228415 360.08100531 6.59856076 355.77005279 6.60782599 C351.12716475 6.61458642 346.48431183 6.60415022 341.84143066 6.59588623 C332.73933607 6.58251412 323.6373155 6.58544216 314.53521795 6.59412415 C307.14016593 6.60088707 299.74513471 6.60182347 292.35008049 6.5985527 C291.29935573 6.598093 290.24863097 6.59763331 289.16606606 6.59715968 C287.03182332 6.59620054 284.89758058 6.5952279 282.76333784 6.5942419 C262.72847016 6.58567771 242.69364359 6.59553803 222.65878265 6.611643 C205.45340937 6.62504516 188.2480968 6.62272092 171.04272461 6.60888672 C151.08327783 6.59284568 131.12386714 6.58650384 111.16441482 6.59572351 C109.03752165 6.5966792 106.91062846 6.59762231 104.78373528 6.5985527 C103.7371496 6.59901553 102.69056392 6.59947836 101.61226352 6.59995521 C94.2232717 6.60254968 86.83430269 6.59816424 79.44531441 6.59111404 C70.44455604 6.58271514 61.44387619 6.5849451 52.44312686 6.60095628 C47.84736761 6.60886105 43.25173946 6.61189325 38.65598106 6.60200882 C34.45350133 6.59310671 30.25127491 6.59792015 26.04881834 6.61394148 C24.52393834 6.61730843 22.99903718 6.61555259 21.47417063 6.60831411 C19.40998453 6.59926288 17.34667948 6.60847389 15.28254032 6.62247658 C14.13345159 6.62296363 12.98436285 6.62345069 11.80045325 6.62395251 C8.98988074 6.76873574 8.98988074 6.76873574 7.13076186 8.40654176 Z " fill="#BAD1EA" transform="translate(0,0)"/>
<path d="M0 0 C1.31624778 -0.00322445 2.63249556 -0.00644889 3.98862964 -0.00977105 C5.46856623 -0.00829958 6.94850274 -0.00673184 8.42843914 -0.00507832 C9.98562653 -0.0069444 11.54281344 -0.00924429 13.09999961 -0.01194364 C17.39981801 -0.0180932 21.69961707 -0.01792436 25.99943888 -0.01674926 C30.62871932 -0.01654605 35.25799341 -0.02205646 39.88727093 -0.02680683 C48.96508358 -0.03513147 58.04288973 -0.0378625 67.12070588 -0.03841921 C74.49669855 -0.03889356 81.87268908 -0.04094425 89.24868107 -0.04411983 C110.14009709 -0.05293175 131.03150797 -0.05753843 151.92292587 -0.05678936 C153.0503939 -0.0567494 154.17786193 -0.05670945 155.33949566 -0.05666828 C157.03275212 -0.05660696 157.03275212 -0.05660696 158.76021578 -0.0565444 C177.05772866 -0.05613789 195.35522096 -0.06570731 213.65272788 -0.07980665 C232.42002627 -0.09415438 251.18731462 -0.1010777 269.95461863 -0.10021287 C280.49920309 -0.09988032 291.04376599 -0.10265264 301.58834553 -0.11339092 C310.5663893 -0.12247493 319.54440174 -0.12468857 328.5224481 -0.1178815 C333.10615066 -0.11460549 337.68979303 -0.11459833 342.27348995 -0.12323475 C346.46613789 -0.13105333 350.65867747 -0.12971625 354.85132261 -0.12095062 C356.37154273 -0.11940531 357.89177075 -0.12127021 359.41198156 -0.12681069 C361.47211898 -0.13382416 363.53187132 -0.12861429 365.59199524 -0.12025452 C367.31131523 -0.12058057 367.31131523 -0.12058057 369.06536895 -0.12091321 C371.97404893 0.12771893 373.58732627 0.50027392 375.98475933 2.12863445 C378.06274566 5.24561395 378.23379025 5.9053168 378.22526836 9.43764019 C378.22939236 10.75643421 378.22939236 10.75643421 378.23359966 12.10187054 C378.22640911 13.06356152 378.21921856 14.02525249 378.21181011 15.01608562 C378.21210217 16.03089504 378.21239422 17.04570446 378.21269512 18.09126568 C378.21129982 21.45146464 378.19572905 24.8114429 378.18007183 28.1716032 C378.17634242 30.49901998 378.17349511 32.82643832 378.17149639 35.15385723 C378.16385432 41.2843079 378.14420083 47.41466404 378.12208843 53.54507732 C378.10164241 59.79882815 378.09249733 66.05259422 378.08241558 72.30636883 C378.06095554 84.58049894 378.02681261 96.85455884 377.98475933 109.12863445 C376.66475933 108.79863445 375.34475933 108.46863445 373.98475933 108.12863445 C373.65475933 75.12863445 373.32475933 42.12863445 372.98475933 8.12863445 C368.8311722 6.05184089 367.06825944 5.8758424 362.54234982 5.86692142 C361.57052119 5.86092733 361.57052119 5.86092733 360.57905966 5.85481215 C358.3991323 5.8438073 356.21945747 5.8470434 354.03950787 5.85016155 C352.46450378 5.84516042 350.88950226 5.83928516 349.31450438 5.83260882 C344.97952907 5.81677269 340.64461851 5.81337616 336.30961776 5.81196022 C331.63750558 5.80827247 326.96542918 5.79312014 322.29333782 5.77934551 C314.19629318 5.75704918 306.09926122 5.74205018 298.0021925 5.73197842 C286.29512989 5.71740576 274.58811147 5.69187292 262.88107476 5.66364713 C243.88814146 5.61815342 224.89520181 5.58154928 205.9022398 5.55050945 C187.45008001 5.52033447 168.99793577 5.48598904 150.54579449 5.44601727 C148.84030286 5.44232494 148.84030286 5.44232494 147.10035685 5.43855803 C141.39650809 5.42618363 135.69265951 5.41372706 129.98881102 5.40122962 C82.65414883 5.29762321 35.31946723 5.2084327 -12.01524067 5.12863445 C-11.21086567 4.48925945 -10.40649067 3.84988445 -9.57774067 3.19113445 C-5.74187653 0.10373161 -5.0951541 0.00313265 0 0 Z " fill="#FAFEFD" transform="translate(17.01524066925049,0.8713655471801758)"/>
<path d="M0 0 C0.66 1.32 1.32 2.64 2 4 C0 6 0 6 -2.61920518 6.24954766 C-3.74166117 6.24933029 -4.86411716 6.24911292 -6.02058697 6.24888897 C-7.31259193 6.25348777 -8.60459689 6.25808656 -9.93575352 6.26282471 C-11.38316961 6.25780884 -12.83058506 6.25260657 -14.27799988 6.24723816 C-15.8050392 6.24882502 -17.33207782 6.25128738 -18.85911447 6.25455457 C-23.07109925 6.26099432 -27.28298856 6.25487968 -31.4949671 6.24679029 C-36.03158042 6.24023289 -40.56818271 6.24515756 -45.10479736 6.24867249 C-53.99967439 6.25372416 -62.89451435 6.24806024 -71.78938677 6.23882218 C-82.14312383 6.22845452 -92.49685281 6.22850796 -102.85059408 6.22899476 C-121.32528996 6.22949589 -139.79996856 6.22032148 -158.2746582 6.20581055 C-176.20760412 6.19173237 -194.14053481 6.18463931 -212.07348633 6.18530273 C-213.17717842 6.18534269 -214.28087051 6.18538265 -215.41800781 6.18542381 C-217.07065937 6.18548435 -217.07065937 6.18548435 -218.75669783 6.1855461 C-239.15679116 6.18623605 -259.556878 6.18034388 -279.95696923 6.17139288 C-287.17575728 6.16837595 -294.39454414 6.16731324 -301.61333275 6.16686058 C-310.41339678 6.16617827 -319.2134499 6.16171138 -328.0135093 6.15252777 C-332.50441011 6.14791151 -336.99529698 6.14486364 -341.48620033 6.14612198 C-345.59752213 6.14721809 -349.7088131 6.14369198 -353.82012848 6.13647345 C-355.3073963 6.13466227 -356.7946673 6.13452775 -358.28193524 6.13624074 C-360.30469313 6.13831247 -362.32745455 6.13363218 -364.35020733 6.12863445 C-365.47347508 6.12793003 -366.59674283 6.1272256 -367.754049 6.12649983 C-371.22506742 5.99122877 -374.57166996 5.54681916 -378 5 C-378 4.34 -378 3.68 -378 3 C-375.23471871 1.61735936 -373.01490368 1.8785428 -369.91859436 1.8825388 C-368.61305572 1.88178114 -367.30751707 1.88102349 -365.96241665 1.88024288 C-364.49976515 1.88447839 -363.0371139 1.88880186 -361.57446289 1.89320374 C-360.03148705 1.89419896 -358.48851086 1.89474933 -356.94553471 1.89489073 C-352.68971271 1.89654272 -348.43392102 1.90442635 -344.17810869 1.91325247 C-339.5945622 1.92165636 -335.01101226 1.9242774 -330.42745972 1.92750549 C-322.48043269 1.93381379 -314.53341587 1.94356035 -306.58639526 1.95540047 C-295.09404695 1.97234346 -283.6017012 1.98192006 -272.10934317 1.9892792 C-253.46254085 2.00123499 -234.81574254 2.01618875 -216.16894531 2.03442383 C-214.49369386 2.03605901 -214.49369386 2.03605901 -212.78459895 2.03772723 C-196.92819645 2.05334408 -181.07179882 2.071937 -165.21540105 2.0917251 C-163.5401496 2.09381507 -163.5401496 2.09381507 -161.83105469 2.09594727 C-160.71557459 2.0973408 -159.6000945 2.09873433 -158.45081198 2.10017008 C-139.87559813 2.12317588 -121.30038744 2.13851003 -102.72516155 2.14750665 C-91.25656468 2.15337203 -79.78801094 2.16578011 -68.31943107 2.18647944 C-60.46644441 2.20015064 -52.6134729 2.20667841 -44.76047444 2.20748956 C-40.22358886 2.2081961 -35.68676772 2.21225129 -31.14989853 2.2249527 C-27.00242966 2.23650343 -22.85506151 2.2389758 -18.70758045 2.23401051 C-17.20155434 2.23385832 -15.69552344 2.23714514 -14.18951333 2.24408758 C-12.15349689 2.25299349 -10.11743479 2.24855079 -8.08140564 2.24330235 C-6.947126 2.24460386 -5.81284636 2.24590537 -4.6441946 2.24724633 C-1.84362352 2.26909325 -1.84362352 2.26909325 0 0 Z " fill="#FAFEFE" transform="translate(390,111)"/>
<path d="M0 0 C1.30328865 -0.00199105 2.60657729 -0.0039821 3.94935954 -0.00603348 C5.40945873 -0.00318005 6.86955775 -0.00023445 8.3296566 0.00279331 C9.86993343 0.00235762 11.41021018 0.00148276 12.95048654 0.00020415 C17.19876427 -0.0020413 21.44701698 0.00198115 25.69529152 0.00698221 C30.27062291 0.01128581 34.84595279 0.00984035 39.42128563 0.00907993 C47.35358199 0.00855464 55.28587015 0.01170199 63.21816444 0.01731777 C74.68704344 0.02543206 86.15591846 0.02804792 97.62480001 0.02930576 C116.23063459 0.03149639 134.83646478 0.03815678 153.44229698 0.04760838 C171.52009624 0.0567822 189.59789431 0.06386318 207.67569542 0.06811619 C209.34613127 0.06851027 209.34613127 0.06851027 211.05031331 0.06891232 C216.63683061 0.07021732 222.22334792 0.07148104 227.80986524 0.07272422 C274.18278822 0.08309718 320.55570644 0.1007158 366.92862511 0.12304783 C366.26862511 1.44304783 365.60862511 2.76304783 364.92862511 4.12304783 C363.93862511 3.79304783 362.94862511 3.46304783 361.92862511 3.12304783 C359.92811498 3.02581865 357.92447645 2.98924227 355.92161083 2.98438263 C354.65813188 2.97890819 353.39465294 2.97343374 352.09288675 2.96779341 C350.68289306 2.96671713 349.27289931 2.96573245 347.8629055 2.96482944 C346.37126205 2.96026527 344.87961987 2.95526546 343.38797921 2.94986588 C339.27879191 2.93625891 335.16961291 2.92885902 331.06040895 2.92243922 C326.63300754 2.9144465 322.20562345 2.90074485 317.77823448 2.88772678 C310.10406409 2.865948 302.42989196 2.84780864 294.75570679 2.83212185 C283.66004154 2.80943598 272.56439545 2.78129138 261.46874645 2.75180257 C243.46799505 2.70411092 225.46723583 2.660851 207.4664669 2.62036228 C189.97752841 2.58101536 172.48859688 2.53959106 154.99967003 2.49536228 C153.9221528 2.49263801 152.84463556 2.48991374 151.73446629 2.48710691 C146.32902839 2.47342757 140.92359058 2.45970727 135.51815283 2.4459666 C90.65499143 2.33197711 45.79181498 2.22517322 0.92862511 2.12304783 C0.26862511 4.43304783 -0.39137489 6.74304783 -1.07137489 9.12304783 C-3.38137489 8.79304783 -5.69137489 8.46304783 -8.07137489 8.12304783 C-8.07137489 35.18304783 -8.07137489 62.24304783 -8.07137489 90.12304783 C-8.73137489 90.12304783 -9.39137489 90.12304783 -10.07137489 90.12304783 C-10.40137489 61.08304783 -10.73137489 32.04304783 -11.07137489 2.12304783 C-10.74137489 3.11304783 -10.41137489 4.10304783 -10.07137489 5.12304783 C-9.41137489 5.12304783 -8.75137489 5.12304783 -8.07137489 5.12304783 C-8.07137489 3.80304783 -8.07137489 2.48304783 -8.07137489 1.12304783 C-5.3092587 -0.25801027 -3.09288062 -0.00103718 0 0 Z " fill="#094F9D" transform="translate(17.071374893188477,7.876952171325684)"/>
<path d="M0 0 C4.34121569 2.5179051 6.54113301 5.06089902 8.125 9.8125 C8.20766486 11.73156917 8.23240663 13.65339474 8.22265625 15.57421875 C8.21943359 16.69248047 8.21621094 17.81074219 8.21289062 18.96289062 C8.20032227 20.71375977 8.20032227 20.71375977 8.1875 22.5 C8.18298828 23.67884766 8.17847656 24.85769531 8.17382812 26.07226562 C8.16203273 28.98572789 8.1455727 31.89908863 8.125 34.8125 C4.825 34.8125 1.525 34.8125 -1.875 34.8125 C-2.205 34.1525 -2.535 33.4925 -2.875 32.8125 C-3.514375 33.3075 -4.15375 33.8025 -4.8125 34.3125 C-8.92713217 36.32783004 -12.37143471 36.67522165 -16.875 35.8125 C-20.4444752 33.875633 -22.56904468 31.73036596 -23.875 27.8125 C-24.37741693 23.37448383 -24.23419685 21.37850716 -21.8125 17.5625 C-18.34757608 13.9325797 -14.48842691 12.00006652 -9.42578125 11.63671875 C-7.2323367 11.62638856 -5.06394772 11.67848279 -2.875 11.8125 C-3.205 10.8225 -3.535 9.8325 -3.875 8.8125 C-6.33509963 7.58245019 -8.00672806 7.67935973 -10.75 7.6875 C-11.61367188 7.68492188 -12.47734375 7.68234375 -13.3671875 7.6796875 C-15.68165971 7.80226079 -17.65789116 8.16283555 -19.875 8.8125 C-20.205 6.5025 -20.535 4.1925 -20.875 1.8125 C-14.15486392 -1.69365795 -7.26356971 -2.72773541 0 0 Z " fill="#F5F9FB" transform="translate(64.875,48.1875)"/>
<path d="M0 0 C0 2.64 0 5.28 0 8 C-2.31 8.66 -4.62 9.32 -7 10 C-7.33 11.98 -7.66 13.96 -8 16 C-5.69 16 -3.38 16 -1 16 C-1 18.64 -1 21.28 -1 24 C-3.31 24 -5.62 24 -8 24 C-8 32.91 -8 41.82 -8 51 C-11.63 51 -15.26 51 -19 51 C-19 42.09 -19 33.18 -19 24 C-20.65 24 -22.3 24 -24 24 C-24 21.36 -24 18.72 -24 16 C-22.35 16 -20.7 16 -19 16 C-19.0928125 14.4221875 -19.0928125 14.4221875 -19.1875 12.8125 C-18.93308227 7.63933951 -17.30465471 5.50850701 -14 1.6875 C-9.47010909 -0.86056364 -5.08464979 -0.32057337 0 0 Z " fill="#F8FCFB" transform="translate(102,32)"/>
<path d="M0 0 C0 3.3 0 6.6 0 10 C2.31 10 4.62 10 7 10 C7 12.64 7 15.28 7 18 C4.69 18 2.38 18 0 18 C0 23.94 0 29.88 0 36 C3.465 36.495 3.465 36.495 7 37 C7 39.64 7 42.28 7 45 C3.547912 46.726044 -0.21841567 46.35983934 -4 46 C-7.08715304 44.75200196 -8.47748804 43.91758198 -10.12109375 41.03125 C-11.41139724 36.58113664 -11.20963213 32.29344108 -11.125 27.6875 C-11.11597656 26.75615234 -11.10695312 25.82480469 -11.09765625 24.86523438 C-11.07418263 22.5765564 -11.04134729 20.28841328 -11 18 C-12.65 18 -14.3 18 -16 18 C-16 15.36 -16 12.72 -16 10 C-14.35 10 -12.7 10 -11 10 C-11 7.36 -11 4.72 -11 2 C-7.12315913 0.80712589 -4.08378077 0 0 0 Z " fill="#F8FDFC" transform="translate(166,38)"/>
<path d="M0 0 C0 3.63 0 7.26 0 11 C-3.02734375 11.24414062 -3.02734375 11.24414062 -6.0546875 11.48828125 C-8.39519216 11.87393036 -8.39519216 11.87393036 -10 15 C-10.36576054 17.31923274 -10.36576054 17.31923274 -10.4140625 19.88671875 C-10.47207031 21.2934082 -10.47207031 21.2934082 -10.53125 22.72851562 C-10.5621875 23.70498047 -10.593125 24.68144531 -10.625 25.6875 C-10.68300781 27.16959961 -10.68300781 27.16959961 -10.7421875 28.68164062 C-10.83645399 31.1207861 -10.9193159 33.56036747 -11 36 C-14.63 36 -18.26 36 -22 36 C-22 24.45 -22 12.9 -22 1 C-19.03 1 -16.06 1 -13 1 C-12.67 2.32 -12.34 3.64 -12 5 C-11.13375 4.175 -10.2675 3.35 -9.375 2.5 C-6.25207583 -0.13961448 -4.12269101 -0.49079655 0 0 Z " fill="#F9FEFD" transform="translate(128,47)"/>
<path d="M0 0 C0.33 0 0.66 0 1 0 C1.33 29.7 1.66 59.4 2 90 C2.33 90 2.66 90 3 90 C3.33 91.65 3.66 93.3 4 95 C128.74 95.33 253.48 95.66 382 96 C382 96.33 382 96.66 382 97 C256.6 97 131.2 97 2 97 C-0.25 92.5 -0.25 92.5 -0.24050903 88.98834229 C-0.24325836 88.2003273 -0.24600769 87.41231232 -0.24884033 86.60041809 C-0.24164978 85.74518051 -0.23445923 84.88994293 -0.22705078 84.00878906 C-0.22734283 83.10112289 -0.22763489 82.19345673 -0.22793579 81.25828552 C-0.22654338 78.26063449 -0.21098625 75.26323257 -0.1953125 72.265625 C-0.19158206 70.18626033 -0.18873523 68.10689391 -0.18673706 66.02752686 C-0.17910308 60.55632672 -0.15945654 55.08523287 -0.1373291 49.61407471 C-0.11686565 44.03049151 -0.10773427 38.44689114 -0.09765625 32.86328125 C-0.07621049 21.90880748 -0.04207731 10.95441258 0 0 Z " fill="#174886" transform="translate(6,14)"/>
<path d="M0 0 C130.35 0 260.7 0 395 0 C395 1.98 395 3.96 395 6 C394.34 5.67 393.68 5.34 393 5 C393 4.34 393 3.68 393 3 C389.48199026 1.91758784 386.22525342 1.87038216 382.55593967 1.86298561 C381.90786353 1.86033378 381.25978739 1.85768196 380.59207258 1.85494977 C378.41151057 1.84726515 376.23100494 1.84669793 374.0504303 1.84609985 C372.4748667 1.84208472 370.89930413 1.83764641 369.32374281 1.8328203 C364.98703281 1.82085536 360.65033394 1.81520657 356.31361067 1.81063914 C351.6393693 1.80468305 346.96514122 1.79307351 342.29090881 1.78234863 C331.00139756 1.75782936 319.71188191 1.74320053 308.42235222 1.73028857 C305.23514323 1.72657704 302.04793468 1.7226038 298.86072612 1.7185359 C279.07738506 1.69330572 259.29404333 1.67124822 239.51068974 1.65880775 C234.92875732 1.65587798 230.34682494 1.65291632 225.76489258 1.64990234 C224.62605129 1.64915629 223.48721001 1.64841024 222.31385838 1.64764158 C203.84904395 1.6349772 185.38432557 1.60173872 166.91955609 1.56010051 C147.97248674 1.51772389 129.02546664 1.49411789 110.07835001 1.48888719 C99.43591165 1.48546881 88.79362356 1.47366292 78.15123177 1.44078445 C69.09163869 1.41284183 60.03222669 1.40175923 50.97259385 1.41297992 C46.3481184 1.41818092 41.72402252 1.41518658 37.09960175 1.39051437 C32.8686015 1.36812881 28.63825586 1.36867762 24.40724497 1.38771825 C22.87430237 1.39053332 21.34131638 1.38483657 19.80844391 1.36990531 C17.72812695 1.35087573 15.6501629 1.36253082 13.56990147 1.38196754 C12.41354303 1.38061102 11.25718459 1.37925449 10.06578499 1.37785685 C6.06359323 2.19002606 4.61517742 3.94550137 2 7 C1.34 7.66 0.68 8.32 0 9 C0 6.03 0 3.06 0 0 Z " fill="#89A5C6" transform="translate(0,0)"/>
<path d="M0 0 C1.25056482 1.87584723 2.4921931 3.75771884 3.72029406 5.64834923 C5.81617303 8.24812733 5.81617303 8.24812733 8.95325989 8.62559515 C10.1155315 8.62586484 11.27780311 8.62613453 12.47529507 8.62641239 C13.12674796 8.63338 13.77820085 8.64034761 14.44939473 8.64752635 C16.64202243 8.66483263 18.83289756 8.64637536 21.02549744 8.62818909 C22.60931772 8.63323206 24.19313231 8.64045896 25.77693373 8.64968723 C30.13663834 8.66867237 34.49578449 8.65634077 38.85547531 8.6389643 C43.55427994 8.62562644 48.25300091 8.64101453 52.95179749 8.65278625 C62.15995005 8.67119447 71.36789084 8.66262915 80.57603686 8.64469803 C88.05827548 8.63068873 95.54045651 8.62677563 103.02270699 8.6301403 C104.6183367 8.63085647 104.6183367 8.63085647 106.24620136 8.6315871 C108.40701458 8.6326134 110.56782779 8.63366876 112.72864098 8.63475286 C131.84900297 8.64332647 150.96926254 8.62662396 170.08959961 8.59692383 C188.65311995 8.5680889 207.21649271 8.56100012 225.7800293 8.57641602 C245.98123699 8.59316886 266.18237457 8.59722143 286.38358408 8.57970566 C288.5368818 8.57786122 290.69017952 8.57602649 292.84347725 8.57420158 C293.90301208 8.57328949 294.96254691 8.5723774 296.05418886 8.57143768 C303.52893004 8.56582626 311.00363705 8.56914513 318.47837639 8.57574654 C327.58555775 8.58347011 336.69259372 8.5767625 345.79974573 8.5515715 C350.44845228 8.5390533 355.09693219 8.53295794 359.74564743 8.54411316 C363.99880743 8.55412662 368.2515147 8.54575807 372.50461943 8.52253198 C374.04562079 8.51735675 375.58666245 8.51896311 377.12764644 8.52792663 C379.21859777 8.53908007 381.30800722 8.5257352 383.39886379 8.50615788 C384.56129775 8.50496639 385.72373172 8.50377491 386.92139095 8.50254732 C390.61757918 7.89918734 392.30807038 6.53838595 395 4 C395 5.98 395 7.96 395 10 C264.65 10 134.3 10 0 10 C0 6.7 0 3.4 0 0 Z " fill="#89A5C5" transform="translate(0,108)"/>
<path d="M0 0 C0.66 0 1.32 0 2 0 C2.33 32.34 2.66 64.68 3 98 C1.02 98.495 1.02 98.495 -1 99 C-2.31546886 95.05359343 -2.14744655 91.28399195 -2.14526367 87.16992188 C-2.14862228 86.26722061 -2.1519809 85.36451935 -2.15544128 84.4344635 C-2.16495256 81.4458784 -2.16689435 78.4573493 -2.16796875 75.46875 C-2.17118071 73.39514136 -2.17454474 71.32153296 -2.17805481 69.2479248 C-2.18404617 64.90014114 -2.18589465 60.55237735 -2.18530273 56.20458984 C-2.185201 50.6256877 -2.19886503 45.04691249 -2.21607494 39.46804047 C-2.22717619 35.18560192 -2.22922254 30.90319427 -2.22869301 26.6207428 C-2.22987551 24.56339581 -2.2343123 22.50604808 -2.24202538 20.44871521 C-2.25178939 17.57574478 -2.24896168 14.70305275 -2.24291992 11.83007812 C-2.24853943 10.9759584 -2.25415894 10.12183868 -2.25994873 9.24183655 C-2.2283181 3.34247715 -2.2283181 3.34247715 0 0 Z " fill="#FCFCFC" transform="translate(3,9)"/>
<path d="M0 0 C3.63 0 7.26 0 11 0 C11 11.55 11 23.1 11 35 C7.37 35 3.74 35 0 35 C0 23.45 0 11.9 0 0 Z " fill="#F4FAFC" transform="translate(133,48)"/>
<path d="M0 0 C0.99 0.33 1.98 0.66 3 1 C3.3125 3.3125 3.3125 3.3125 3 6 C-0.55964352 9.03616654 -3.42411796 9.31924758 -8 9 C-3.545 9.99 -3.545 9.99 1 11 C1.36010591 18.32215357 1.36010591 18.32215357 -0.0625 21 C-3.02087678 22.52690415 -5.73716599 22.18468872 -9 22 C-9.33 22.99 -9.66 23.98 -10 25 C-10.66 25 -11.32 25 -12 25 C-10.94369738 26.64570159 -10.94369738 26.64570159 -9 28 C-5.37464024 28.2503577 -5.37464024 28.2503577 -2 28 C-4.35951179 30.35951179 -5.01925635 30.34409415 -8.25 30.4375 C-11.75171226 30.36972492 -13.76151613 29.89423943 -16.5 27.6875 C-19.42018052 24.54830594 -19.89788294 22.90203407 -20.375 18.6875 C-19.91800779 14.19374328 -18.38263172 11.82599612 -15 9 C-9.6019202 5.88572319 -5.04840703 5.62968937 1 6 C0.2236068 2.9254644 0.2236068 2.9254644 -2 1 C-1.34 0.67 -0.68 0.34 0 0 Z " fill="#EFF8FB" transform="translate(61,54)"/>
<path d="M0 0 C52.47 0 104.94 0 159 0 C159 0.66 159 1.32 159 2 C158.22124166 1.99539104 157.44248331 1.99078207 156.64012623 1.98603344 C137.69482835 1.87563157 118.74959464 1.7928811 99.80404377 1.74093914 C90.64211287 1.71515297 81.48039664 1.67999463 72.31860352 1.62280273 C64.33355145 1.57298031 56.34865484 1.54071199 48.36345166 1.52955753 C44.13491554 1.52303674 39.90682418 1.50770291 35.67843056 1.47134972 C31.69830734 1.43740828 27.71881201 1.42694308 23.73855782 1.43446159 C22.27803383 1.43308619 20.81748883 1.42314195 19.35709 1.40397263 C17.36214143 1.37907152 15.36685586 1.38806283 13.3717804 1.39872742 C12.25548909 1.39411845 11.13919779 1.38950949 9.98907948 1.38476086 C6.04325791 2.19692524 4.58692985 3.99407927 2 7 C1.34 7.66 0.68 8.32 0 9 C0 6.03 0 3.06 0 0 Z " fill="#85A0C0" transform="translate(0,0)"/>
<path d="M0 0 C0 3.63 0 7.26 0 11 C-1.258125 11.103125 -2.51625 11.20625 -3.8125 11.3125 C-6.60499657 11.64858808 -7.74433121 11.80025876 -10 13.5625 C-10.33 14.036875 -10.66 14.51125 -11 15 C-13 13 -13 13 -13.5625 9.1875 C-13.50064425 6.57528426 -13.32494615 5.39237014 -11.64453125 3.36328125 C-7.82735563 0.422455 -4.904085 -0.59805915 0 0 Z " fill="#F9FDFA" transform="translate(128,47)"/>
<path d="M0 0 C1.32 0.33 2.64 0.66 4 1 C4 12.88 4 24.76 4 37 C3.67 37 3.34 37 3 37 C2.97494385 36.35450195 2.9498877 35.70900391 2.92407227 35.04394531 C2.80785567 32.11244106 2.68524558 29.18123783 2.5625 26.25 C2.52318359 25.23421875 2.48386719 24.2184375 2.44335938 23.171875 C2.40146484 22.1921875 2.35957031 21.2125 2.31640625 20.203125 C2.27974854 19.30239258 2.24309082 18.40166016 2.20532227 17.47363281 C2.01468099 15.17687019 1.75810547 13.17615108 1 11 C0.34 10.67 -0.32 10.34 -1 10 C-1.33 10.66 -1.66 11.32 -2 12 C-2 11.34 -2 10.68 -2 10 C-3.65 10 -5.3 10 -7 10 C-7 18.25 -7 26.5 -7 35 C-6.34 35 -5.68 35 -5 35 C-5.33 35.66 -5.66 36.32 -6 37 C-6.66 37 -7.32 37 -8 37 C-8 27.76 -8 18.52 -8 9 C-5.69 9 -3.38 9 -1 9 C-1.020625 7.700625 -1.04125 6.40125 -1.0625 5.0625 C-1.08399454 3.70834367 -1.07148199 2.35243917 -1 1 C-0.67 0.67 -0.34 0.34 0 0 Z " fill="#1A4D8B" transform="translate(102,47)"/>
<path d="M0 0 C3.0625 0.3125 3.0625 0.3125 5 1.4375 C6.0625 3.3125 6.0625 3.3125 5.9375 6.375 C5.0625 9.3125 5.0625 9.3125 2.0625 11.3125 C-1 11.125 -1 11.125 -3.9375 10.3125 C-5.9375 7.3125 -5.9375 7.3125 -5.6875 4.75 C-4.58727173 1.17425813 -3.7416128 0.39804391 0 0 Z " fill="#EAF3F7" transform="translate(138.9375,32.6875)"/>
<path d="M0 0 C0.99 0.33 1.98 0.66 3 1 C4.1875 4.5625 4.1875 4.5625 5 8 C9.23646767 9.0089034 9.23646767 9.0089034 13.375 8.0625 C13.91125 7.711875 14.4475 7.36125 15 7 C14.34 8.65 13.68 10.3 13 12 C13.66 12 14.32 12 15 12 C15 24.21 15 36.42 15 49 C14.67 49 14.34 49 14 49 C14 37.45 14 25.9 14 14 C10.37 14 6.74 14 3 14 C3.33 13.34 3.66 12.68 4 12 C3.22835994 9.5983685 3.22835994 9.5983685 2.0625 7 C0 2.18983051 0 2.18983051 0 0 Z " fill="#3B6BA1" transform="translate(130,34)"/>
<path d="M0 0 C0.33 0 0.66 0 1 0 C1 28.38 1 56.76 1 86 C0.01 86 -0.98 86 -2 86 C-1.83923477 85.34006546 -1.67846954 84.68013092 -1.51283264 84.00019836 C-0.88444768 80.32399024 -0.82361548 76.71460527 -0.79467773 72.99682617 C-0.78477814 72.20605682 -0.77487854 71.41528748 -0.76467896 70.60055542 C-0.73320074 67.99805654 -0.70836086 65.39553943 -0.68359375 62.79296875 C-0.6630124 60.9840702 -0.64201562 59.17517634 -0.62062073 57.36628723 C-0.56552203 52.61361491 -0.5160591 47.86090007 -0.46777344 43.1081543 C-0.41746915 38.25500724 -0.36182975 33.40192166 -0.30664062 28.54882812 C-0.19920837 19.03260465 -0.09773043 9.51632771 0 0 Z " fill="#0051A9" transform="translate(387,18)"/>
<path d="M0 0 C0 0.33 0 0.66 0 1 C-2.31 1.33 -4.62 1.66 -7 2 C-6.67 3.32 -6.34 4.64 -6 6 C-4.68 6.33 -3.36 6.66 -2 7 C-2 7.33 -2 7.66 -2 8 C-2.67546875 8.06058594 -3.3509375 8.12117188 -4.046875 8.18359375 C-4.93890625 8.26738281 -5.8309375 8.35117187 -6.75 8.4375 C-7.63171875 8.51871094 -8.5134375 8.59992187 -9.421875 8.68359375 C-11.69350452 8.96238465 -13.79851823 9.38790577 -16 10 C-16.33 7.69 -16.66 5.38 -17 3 C-11.17521449 -0.03901852 -6.51791392 -0.3540919 0 0 Z " fill="#D4E6F4" transform="translate(61,47)"/>
<path d="M0 0 C0.87527344 -0.01417969 1.75054687 -0.02835938 2.65234375 -0.04296875 C5.0625 0.1875 5.0625 0.1875 8.0625 2.1875 C8.0625 3.1775 8.0625 4.1675 8.0625 5.1875 C7.26585938 5.29707031 6.46921875 5.40664063 5.6484375 5.51953125 C-0.0847414 6.37741568 -4.96330893 7.14771657 -9.9375 10.1875 C-9.9375 9.1975 -9.9375 8.2075 -9.9375 7.1875 C-9.2775 6.8575 -8.6175 6.5275 -7.9375 6.1875 C-7.9375 5.5275 -7.9375 4.8675 -7.9375 4.1875 C-7.2775 4.1875 -6.6175 4.1875 -5.9375 4.1875 C-5.6075 3.5275 -5.2775 2.8675 -4.9375 2.1875 C-5.5975 1.8575 -6.2575 1.5275 -6.9375 1.1875 C-4.47380468 -0.04434766 -2.7480499 0.02017658 0 0 Z " fill="#285F99" transform="translate(53.9375,54.8125)"/>
<path d="M0 0 C0.36 5.4 0.36 5.4 -1.125 7.875 C-3.80858771 9.48515263 -5.93550972 9.26647742 -9 9 C-10 8 -10 8 -10.25 5.0625 C-10.1675 4.051875 -10.085 3.04125 -10 2 C-6.3558226 -0.4294516 -4.28758728 -0.16179575 0 0 Z " fill="#225994" transform="translate(62,67)"/>
<path d="M0 0 C2.31 0 4.62 0 7 0 C7 2.64 7 5.28 7 8 C4.69 8 2.38 8 0 8 C0 16.91 0 25.82 0 35 C-0.33 35 -0.66 35 -1 35 C-1 25.1 -1 15.2 -1 5 C2 4 2 4 5 5 C5 4.01 5 3.02 5 2 C3.35 1.67 1.7 1.34 0 1 C0 0.67 0 0.34 0 0 Z " fill="#D2E9FB" transform="translate(94,48)"/>
<path d="M0 0 C-1.32 0.99 -2.64 1.98 -4 3 C-3.01 3.66 -2.02 4.32 -1 5 C-2.65 6.65 -4.3 8.3 -6 10 C-6 9.01 -6 8.02 -6 7 C-7.65 8.32 -9.3 9.64 -11 11 C-10.54726428 6.133091 -9.35474936 3.5580675 -6 0 C-3.50907189 -1.24546405 -2.58919267 -0.7767578 0 0 Z " fill="#E0F0F8" transform="translate(11,2)"/>
<path d="M0 0 C0.33 0 0.66 0 1 0 C1.02187378 0.85380249 1.02187378 0.85380249 1.04418945 1.72485352 C1.11929165 4.33803828 1.21574189 6.95003099 1.3125 9.5625 C1.33505859 10.45775391 1.35761719 11.35300781 1.38085938 12.27539062 C1.60712008 17.89077003 2.43484767 21.98660577 5 27 C2.5625 26.3125 2.5625 26.3125 0 25 C-2.93704587 17.77034864 -0.89880084 7.54350703 0 0 Z " fill="#2F5F9A" transform="translate(154,56)"/>
<path d="M0 0 C1.98 0 3.96 0 6 0 C6 3.63 6 7.26 6 11 C4.741875 11.103125 3.48375 11.20625 2.1875 11.3125 C-0.60499657 11.64858808 -1.74433121 11.80025876 -4 13.5625 C-4.33 14.036875 -4.66 14.51125 -5 15 C-5.33 14.34 -5.66 13.68 -6 13 C-5.67 12.34 -5.34 11.68 -5 11 C-4.34 11 -3.68 11 -3 11 C-3 10.34 -3 9.68 -3 9 C0.465 8.505 0.465 8.505 4 8 C4.33 5.69 4.66 3.38 5 1 C3.35 1 1.7 1 0 1 C0 0.67 0 0.34 0 0 Z " fill="#C5DDF1" transform="translate(122,47)"/>
<path d="M0 0 C2.31 0 4.62 0 7 0 C7 0.33 7 0.66 7 1 C5.35 1.33 3.7 1.66 2 2 C2 6.62 2 11.24 2 16 C3.65 16 5.3 16 7 16 C7 16.99 7 17.98 7 19 C4.69 18.67 2.38 18.34 0 18 C0 12.06 0 6.12 0 0 Z " fill="#1D4E85" transform="translate(166,56)"/>
<path d="M0 0 C2 3 2 3 2 6 C3.65 5.67 5.3 5.34 7 5 C7.66 6.65 8.32 8.3 9 10 C6.03 9.505 6.03 9.505 3 9 C2.67 9.66 2.34 10.32 2 11 C0.19769832 7.17010894 -0.19622241 4.21878192 0 0 Z " fill="#E0F4FA" transform="translate(0,102)"/>
<path d="M0 0 C0.99 0.66 1.98 1.32 3 2 C2.01 4.31 1.02 6.62 0 9 C-0.66 9 -1.32 9 -2 9 C-2 9.66 -2 10.32 -2 11 C-2.66 11 -3.32 11 -4 11 C-4.35233161 5.62694301 -4.35233161 5.62694301 -4 3 C-2 1 -2 1 0 0 Z " fill="#FCFAF9" transform="translate(119,49)"/>
<path d="M0 0 C1.65 0 3.3 0 5 0 C5 1.98 5 3.96 5 6 C4.01 6.495 4.01 6.495 3 7 C3 6.34 3 5.68 3 5 C0.69 5.33 -1.62 5.66 -4 6 C-4 5.01 -4 4.02 -4 3 C-2.68 2.34 -1.36 1.68 0 1 C0 0.67 0 0.34 0 0 Z " fill="#134D95" transform="translate(57,67)"/>
<path d="M0 0 C2.97 0 5.94 0 9 0 C8.2575 0.556875 7.515 1.11375 6.75 1.6875 C4.08292005 3.93027178 2.08443768 6.22074975 0 9 C0 6.03 0 3.06 0 0 Z " fill="#1A5594" transform="translate(0,0)"/>
<path d="M0 0 C0.99 1.485 0.99 1.485 2 3 C3.91738499 5.45664952 5.79582183 7.79582183 8 10 C5.36 10 2.72 10 0 10 C0 6.7 0 3.4 0 0 Z " fill="#215594" transform="translate(0,108)"/>
<path d="M0 0 C0.33 0.66 0.66 1.32 1 2 C1.66 2 2.32 2 3 2 C3 2.66 3 3.32 3 4 C4.32 4.33 5.64 4.66 7 5 C6.67 5.66 6.34 6.32 6 7 C3.69 7 1.38 7 -1 7 C-1.04254356 5.00045254 -1.04080783 2.99958364 -1 1 C-0.67 0.67 -0.34 0.34 0 0 Z " fill="#1D5398" transform="translate(95,41)"/>
<path d="M0 0 C0.33 0 0.66 0 1 0 C1 5.94 1 11.88 1 18 C3.31 18.33 5.62 18.66 8 19 C8 19.99 8 20.98 8 22 C2.25 20.125 2.25 20.125 0 19 C0 12.73 0 6.46 0 0 Z " fill="#B4D1E6" transform="translate(165,56)"/>
<path d="M0 0 C7.75 -0.125 7.75 -0.125 10 1 C10 1.99 10 2.98 10 4 C9.484375 3.814375 8.96875 3.62875 8.4375 3.4375 C5.14091261 2.84580483 2.27754265 3.432733 -1 4 C-0.67 2.68 -0.34 1.36 0 0 Z " fill="#154F91" transform="translate(51,55)"/>
<path d="M0 0 C0.33 0 0.66 0 1 0 C1 2.31 1 4.62 1 7 C2.32 7 3.64 7 5 7 C4.67 7.99 4.34 8.98 4 10 C3.01 9.67 2.02 9.34 1 9 C0.67 10.32 0.34 11.64 0 13 C0 12.34 0 11.68 0 11 C-0.66 11 -1.32 11 -2 11 C-1 3.57142857 -1 3.57142857 0 0 Z " fill="#124B8C" transform="translate(149,49)"/>
<path d="M0 0 C0.33 1.65 0.66 3.3 1 5 C4.63 5.33 8.26 5.66 12 6 C12 6.33 12 6.66 12 7 C7.71 7 3.42 7 -1 7 C-1.66 5.02 -2.32 3.04 -3 1 C-1 0 -1 0 0 0 Z " fill="#20508C" transform="translate(9,104)"/>
<path d="M0 0 C1.98 0.99 3.96 1.98 6 3 C5.34 4.32 4.68 5.64 4 7 C2 7 2 7 0.3125 5.75 C-1 4 -1 4 -0.6875 1.8125 C-0.460625 1.214375 -0.23375 0.61625 0 0 Z " fill="#DFEEF7" transform="translate(389,107)"/>
<path d="M0 0 C2 0.25 2 0.25 4 1 C4.33 1.99 4.66 2.98 5 4 C4.01 4 3.02 4 2 4 C1.67 4.99 1.34 5.98 1 7 C0.34 7 -0.32 7 -1 7 C-1.04254356 5.00045254 -1.04080783 2.99958364 -1 1 C-0.67 0.67 -0.34 0.34 0 0 Z " fill="#EDF9FB" transform="translate(46,50)"/>
<path d="M0 0 C0.33 1.65 0.66 3.3 1 5 C0.484375 4.67 -0.03125 4.34 -0.5625 4 C-3.78026512 2.67989123 -6.5570528 2.86757895 -10 3 C-10 2.34 -10 1.68 -10 1 C-6.52674819 -0.1577506 -3.63932552 -0.06866652 0 0 Z " fill="#225897" transform="translate(145,31)"/>
<path d="M0 0 C6.93 0.495 6.93 0.495 14 1 C14 1.33 14 1.66 14 2 C13.26394531 2.06058594 12.52789062 2.12117188 11.76953125 2.18359375 C10.79371094 2.26738281 9.81789063 2.35117187 8.8125 2.4375 C7.84957031 2.51871094 6.88664062 2.59992187 5.89453125 2.68359375 C3.21350398 2.97666151 0.6337014 3.42703754 -2 4 C-1.34 2.68 -0.68 1.36 0 0 Z " fill="#17508B" transform="translate(48,45)"/>
<path d="M0 0 C0 3.3 0 6.6 0 10 C-0.33 10 -0.66 10 -1 10 C-1.33 8.02 -1.66 6.04 -2 4 C-2.99 3.67 -3.98 3.34 -5 3 C-5.99 2.34 -6.98 1.68 -8 1 C-5.10765685 0.17361624 -3.11257569 0 0 0 Z " fill="#B4CBE1" transform="translate(166,38)"/>
<path d="M0 0 C0.94875 0.04125 1.8975 0.0825 2.875 0.125 C2.875 0.455 2.875 0.785 2.875 1.125 C1.225 1.455 -0.425 1.785 -2.125 2.125 C-2.455 4.105 -2.785 6.085 -3.125 8.125 C-4.115 7.795 -5.105 7.465 -6.125 7.125 C-5.03177966 0.20127119 -5.03177966 0.20127119 0 0 Z " fill="#DAEFFA" transform="translate(139.125,32.875)"/>
<path d="M0 0 C2.97 0 5.94 0 9 0 C9 1.98 9 3.96 9 6 C8.34 5.67 7.68 5.34 7 5 C7 4.34 7 3.68 7 3 C4.69 2.34 2.38 1.68 0 1 C0 0.67 0 0.34 0 0 Z " fill="#225791" transform="translate(386,0)"/>
<path d="M0 0 C1.15392455 2.3078491 1.53437166 4.47230331 2 7 C1.01 7.66 0.02 8.32 -1 9 C-1.33 7.35 -1.66 5.7 -2 4 C-3.32 3.67 -4.64 3.34 -6 3 C-5.195625 2.690625 -4.39125 2.38125 -3.5625 2.0625 C-1.10919595 1.23664655 -1.10919595 1.23664655 0 0 Z " fill="#D7ECF5" transform="translate(61,73)"/>
<path d="M0 0 C0 3 0 3 -1 5 C-0.34 5 0.32 5 1 5 C1 5.66 1 6.32 1 7 C-2.96 7 -6.92 7 -11 7 C-11 6.67 -11 6.34 -11 6 C-9.741875 5.938125 -8.48375 5.87625 -7.1875 5.8125 C-4.99662023 5.61479712 -4.99662023 5.61479712 -3 5 C-0.93545998 2.59256899 -0.93545998 2.59256899 0 0 Z " fill="#164A8A" transform="translate(144,41)"/>
<path d="M0 0 C0.66 0 1.32 0 2 0 C4.35119399 3.52679099 4.21443452 5.02879485 4.125 9.1875 C4.10695313 10.27417969 4.08890625 11.36085938 4.0703125 12.48046875 C4.03550781 13.72763672 4.03550781 13.72763672 4 15 C3.67 15 3.34 15 3 15 C2.86722656 14.25234375 2.73445313 13.5046875 2.59765625 12.734375 C2.42105469 11.74953125 2.24445313 10.7646875 2.0625 9.75 C1.88847656 8.77546875 1.71445312 7.8009375 1.53515625 6.796875 C1.09620271 4.50278205 0.59651408 2.25708029 0 0 Z " fill="#E0F3F8" transform="translate(391,3)"/>
<path d="M0 0 C0.33 0 0.66 0 1 0 C1 1.98 1 3.96 1 6 C-1.31 6 -3.62 6 -6 6 C-4 4 -2 2 0 0 Z " fill="#245894" transform="translate(394,112)"/>
<path d="M0 0 C0.33 0 0.66 0 1 0 C1 1.65 1 3.3 1 5 C2.32 4.67 3.64 4.34 5 4 C5 5.32 5 6.64 5 8 C3.35 8 1.7 8 0 8 C0 5.36 0 2.72 0 0 Z " fill="#DBEDFC" transform="translate(78,48)"/>
<path d="M0 0 C1.66623639 0.03786901 3.33397597 0.04627845 5 0 C3 2 3 2 0.90625 2.265625 C0.1121875 2.26046875 -0.681875 2.2553125 -1.5 2.25 C-2.2940625 2.25515625 -3.088125 2.2603125 -3.90625 2.265625 C-6 2 -6 2 -8 0 C-4.87474452 -1.00454641 -3.12599804 -0.85254492 0 0 Z " fill="#D1E7F6" transform="translate(54,82)"/>
<path d="M0 0 C0.66 0.33 1.32 0.66 2 1 C2.625 4.0625 2.625 4.0625 3 7 C3.99 7 4.98 7 6 7 C6 7.66 6 8.32 6 9 C3.625 8.375 3.625 8.375 1 7 C-0.3125 3.875 -0.3125 3.875 -1 1 C-0.67 0.67 -0.34 0.34 0 0 Z " fill="#DAF2FB" transform="translate(156,74)"/>
<path d="M0 0 C0.99 0.33 1.98 0.66 3 1 C3.7166207 3.31847874 4.38242027 5.65319703 5 8 C5.66 8.66 6.32 9.32 7 10 C6.01 10.33 5.02 10.66 4 11 C3.32880451 9.5437455 2.66318193 8.08492133 2 6.625 C1.62875 5.81289063 1.2575 5.00078125 0.875 4.1640625 C0 2 0 2 0 0 Z " fill="#1B5491" transform="translate(130,34)"/>
<path d="M0 0 C-0.33 1.32 -0.66 2.64 -1 4 C-3.96175123 3.38722388 -5.38058783 2.74627478 -8 1 C-5.29120665 -0.35439668 -2.99066732 -0.06501451 0 0 Z " fill="#E6F5FB" transform="translate(97,32)"/>
<path d="M0 0 C1.65 0 3.3 0 5 0 C2.38485683 2.12038635 -0.19637616 4.13091744 -3 6 C-3 4.68 -3 3.36 -3 2 C-2.01 2 -1.02 2 0 2 C0 1.34 0 0.68 0 0 Z " fill="#20538B" transform="translate(88,31)"/>
<path d="M0 0 C0.99 0.66 1.98 1.32 3 2 C0.69 3.32 -1.62 4.64 -4 6 C-3.0022242 3.00667261 -2.2477975 2.05233685 0 0 Z " fill="#D3E4F1" transform="translate(119,49)"/>
<path d="M0 0 C-2.31 1.32 -4.62 2.64 -7 4 C-6.625 2.0625 -6.625 2.0625 -6 0 C-3.50907189 -1.24546405 -2.58919267 -0.7767578 0 0 Z " fill="#EBF7FE" transform="translate(11,2)"/>
</svg>
