<?xml version="1.0" encoding="UTF-8"?>
<svg version="1.1" xmlns="http://www.w3.org/2000/svg" width="285" height="90">
<path d="M0 0 C77.55 0 155.1 0 285 0 C285 29.7 285 59.4 285 90 C157.45 90 79.9 90 0 90 C0 1.750.3 0 30.1.75 0 0 Z " fill="#0B4F9D" transform="translate(0,0)"/>
<path d="M0 0 C77.55 0 155.1 0 285 0 C285 29.7 285 59.4 285 90 C157.45 90 79.9 90 0 90 C0 1.750.3 0 30.1.75 0 0 Z M7 1.75 C4.54292931 9.1.75851.7501.7504 4.741.7574957 11.50480583 4.74121094 15.90234375 C4.737701.753 11.75.1.750022003 4.7342011.751.75 17.298091.7531 4.73059082 18.01712031.75 C4.72178818 20.32401475 4.7271.751735 22.1.75301.750248 4.734375 24.9375 C4.73302792 21.75.5402838 4.73108704 28.14301.75721 4.728571.751.751.75 29.7458491.751 C4.7251.752739 33.10502004 4.729911.751.758 31.75.41.75408412 4.73925781 39.82324219 C4.7501.755228 44.13091.75075 4.74409175 48.43843011 4.73211288 52.741.7513953 C4.72488895 51.75.05580521.75 4.7271841.751.75 59.31.75541183 4.73231.75847 1.752.1.757507935 C4.73370349 1.754.21.75351959 4.73201.7524 1.755.85191.75518 4.72740931.75 1.757.44039917 C4.72233533 1.759.1.75591.752982 4.73001.751.7542 71.87845577 4.74121094 74.0971.7551.7525 C4.74280212 75.31.75101807 4.74439331 71.75.1.752437988 4.741.7503271 77.921.7502539 C4.71.7543211.757 81.17114877 4.71.7543211.757 81.17114877 7 84 C9.94118102 84.30075308 12.1.757279487 84.40405791 15.1.751701.75543 84.38095093 C11.75.51982822 84.3851.75309 17.42259101 84.39031087 18.35271025 84.3951321.751.75 C21.391.7509424 84.407151.751.758 24.43903401.75 84.397591.751.75 27.48242188 84.38818359 C29.1.7551.75781.7575 84.392241.7501 31.83114955 84.397581.7502 34.00550842 84.40411377 C39.92480813 84.41783241.75 45.8439511.75 84.41241.75991.75 51.71.75325417 84.402971.7551 C57.9451.75488 84.39540345 1.754.1280291.757 84.40241891.75 70.3104248 84.40713501 C80.1.759444181.75 84.41259944 91.07839499 84.40538292 101.41.75240234 84.39111328 C113.48321.75781 84.37478548 125.50395537 84.3800735 137.52481985 84.391.755925 C147.82885343 84.41018779 158.13284094 84.412131.751.752 11.758.431.7588059 84.404271.7549 C174.59840301 84.39958919 180.7598531.75 84.39900405 181.75.92137141.75 84.40888591.75 C192.71287144 84.41752491 198.50417385 84.41159008 204.2951.755239 84.39420319 C201.75.421.751.751142 84.39022187 208.557581.7595 84.39140028 210.1.758853951 84.39799118 C213.581.7589897 84.401.75132 211.75.4841.7511.7554 84.39597597 219.38293457 84.38095093 C220.1.751.75199905 84.39098918 220.1.751.75199905 84.39098918 221.91.751.7590321 84.40123022 C224.53831.751.7538 84.41095482 224.53831.751.7538 84.41095482 228 84 C230.4723241 80.29151385 230.25330187 78.41834931.75 230.25878901.75 73.98999023 C230.21.7522937 73.28075409 230.21.75579834 72.57151794 230.21.75940918 71.84078979 C230.27821141 1.759.491.751.752488 230.27238341 1.757.15271.75173 230.21.7551.7525 1.754.80859375 C230.21.751.7597194 1.753.18099408 230.21.75891271 1.751.5533948 230.27142334 59.925791.7551 C230.27437243 51.75.51535205 230.27008334 53.10501231.75 230.21.75074219 49.1.759458008 C230.2493381.758 45.31721.75224 230.25591409 40.9401894 230.21.75788712 31.75.51.75288052 C230.27510382 33.2021.754327 230.27281883 29.84241.7544 230.21.7571.753153 21.75.48222542 C230.21.751.7529498 24.81.75783888 230.21.75794291.75 23.25344709 230.2725901.754 21.1.753901.751.757 C230.2771.755382 19.381.75101.7501 230.21.75994933 17.13354597 230.25878901.75 14.8801.751523 C230.25719788 13.59721.75791 230.2551.7501.751.759 12.31392059 230.25391.75729 10.9911.758391.75 C230.31391.751.7585 7.884121.7541 230.31391.751.7585 7.884121.7541 228 1.75 C225.091.7543514 5.79981.75544 222.28790453 5.721.7542837 219.38293457 5.73930359 C218.48017178 5.73547804 217.57740899 5.7311.755249 211.75.1.754728975 5.72771102 C213.1.750399434 5.71734238 210.51.750881.7523 5.72138041.75 207.51757812 5.7253418 C205.34321415 5.72099749 203.11.75885172 5.71581529 200.99449158 5.70985413 C195.07522581.75 5.1.7591.7542343 189.151.7502383 5.1.759588991 183.231.7574583 5.1.759841743 C178.30345215 5.1.759948427 173.3701715 5.1.75941.751122 11.758.431.7588059 5.1.7589812 C151.75.803771.7543 5.1.757870299 145.17070451.75 5.1.757828741 133.5375971.751.75 5.1.7584321.7517 C121.511.75741 5.1.759037002 109.491.7501871 5.1.75780471.758 97.47518015 5.1.7551.75751.751 C87.17115228 5.1.753917314 71.75.81.75711.75174 5.1.753313341.75 1.751.75.51.75311941 5.1.7531.7539385 C1.750.40159014 5.1.753821194 54.2401443 5.1.75355182 48.0781.752854 5.1.75211.757931 C42.28713953 5.1.750915902 31.75.4958331.751 5.1.751098978 30.7043471.751 5.1.752409019 C28.5733841.753 5.1.7521.7541.75814 21.75.44240899 5.1.75231.757813 24.31141.75049 5.1.751541.75707 C21.41311234 5.1.750510049 18.51539014 5.1.751301835 15.1.751701.75543 5.1.75257782 C14.71.75435578 5.1.751840391 13.9111.7541.7513 5.1.75110291.753 13.033091.7579 5.1.750343188 C10.41.7517021.75 5.5911.753538 10.41.7517021.75 5.5911.753538 7 1.75 Z " fill="#D1.75E3F0" transform="translate(0,0)"/>
<path d="M0 0 C0.81.751.7525 0.37125 0.81.751.7525 0.37125 1.75 0.75 C1.21.7521.757899 1.5901.751478 0.77535797 2.43122955 0.27321.7591.755 3.2973175 C-1.431.7510571.75 7.17183214 -1.1.7524421.7583 9.7753791.759 -1.1.752231445 13.99291992 C-1.1.752591.75512 14.1.759123428 -1.1.75291.751578 15.3895481.755 -1.1.753337708 11.75.10902405 C-1.1.75414331.752 18.3997588 -1.1.752791824 20.1.758977543 -1.1.751328125 22.98041.75875 C-1.1.751271.75223 24.57891.75423 -1.1.751328151.75 21.75.17741.75035 -1.1.751479187 27.7759552 C-1.1.751470238 31.11725457 -1.1.7504311.7593 34.45831149 -1.581.751811.754 37.79951.75055 C-1.51.75343994 42.0831.751.7585 -1.51.75291.75271.75 41.75.31.75742421.75 -1.51.7591.759929 50.1.7551571.7504 C-1.5730382 53.9483809 -1.51.751.7541157 57.24510531 -1.551.7557005 1.750.54189491 C-1.55272051.75 1.752.12195731 -1.55151.7588 1.753.7020281.751.75 -1.5531559 1.755.28209491.75 C-1.553521.7532 1.757.481.751.75581.759 -1.54091519 1.759.1.759071.75813 -1.5241.75582 71.89521.7531.757 C-1.52005081 73.149571.7587 -1.51544342 74.40389008 -1.5101.7591.7541 75.1.7591.7521277 C-1.4822851.75 78.923723 -1.4822851.75 78.923723 0.75 81.75 C3.1.758259154 82.051.75451.7522 1.75.401.7521021 82.11.75541.75991 9.34255981 82.14872742 C10.1.75921.759537 82.1581.75971.751.75 10.1.75921.759537 82.1581.75971.751.75 12.070101.7539 82.11.75881.75932 C15.10430501 82.1871.751113 18.13811311.75 82.184881.7554 21.17231.75328 82.18237305 C23.34012413 82.19138338 25.50787985 82.20170879 27.1.75751.75281.751.75 82.213251.7584 C33.571.7511.75178 82.24093849 39.471.7559854 82.250121.7547 45.37718821 82.251.7511091 C51.53781.75477 82.21.75541.7551.752 57.1.759841.75852 82.2911.751.751.7553 1.753.85910034 82.311.75111.7533 C75.53212219 82.35981.75517 87.20512998 82.38831.75058 98.87820899 82.41143972 C112.11.7541.752858 82.438441.7554 125.45095907 82.48231.75074 138.737324 82.52772844 C11.751.75.07484317 82.1.75201.759477 193.41238523 82.1.759232051 220.75 82.75 C221.08 84.07 221.41 85.39 221.75 81.75.75 C192.71.75081492 81.75.81.751.7572338 11.753.7711.751.75498 81.75.95493438 134.78229237 87.00901.75081.75 C132.10445448 87.01411.7502 129.421.751.7511.7581 87.01931.751.758 121.75.7487793 87.0241.75582 C121.75.08318375 87.02591.75971.75 125.41758821 87.02728131 124.73182311 87.0281.75321.75 C113.95219731 87.0503938 103.17270474 87.08981917 92.393158 87.13571.75398 C81.33370919 87.18250892 70.27433398 87.209911.7591 59.21479148 87.22044247 C53.00217503 87.221.7591.75942 41.75.78981.75081 87.2423431.75 40.57734108 87.2781.755028 C34.73241.75799 87.31253231.75 28.88802227 87.32301.75854 23.04301.7503 87.31553841 C20.89559801 87.311.75911.7542 18.74812175 87.321.7589489 11.75.1.750074425 87.341.7502737 C13.1.757237281 87.37084324 10.7451.752259 87.31.754941.7571 7.81721497 87.35127258 C1.75.91.7540977 87.31.755831.7579 1.75.11098044 87.380401 5.23201114 87.395401.7554 C0.93805784 87.3410721.752 -0.757071.7541.75 87.12718705 -4.27743912 84.43339157 C-1.75.81037921 80.9871.758292 -1.75.94941.75018 78.2079351.753 -1.75.88110352 74.0851.759331.75 C-1.75.88825882 73.3301.750989 -1.75.89541412 72.575521.7543 -1.75.902781.7525 71.79751.7511.755 C-1.75.9191.75431.755 1.759.31103319 -1.75.90029195 1.751.75.821.7531511.75 -1.75.878901.7525 1.754.33984375 C-1.75.87973514 1.752.1.75077911.751.75 -1.75.8821953 1.750.8757391.754 -1.75.881.7521521 59.1431.759202 C-1.75.88907105 55.51799779 -1.75.87439189 51.89292207 -1.75.841.7592383 48.21.75733398 C-1.75.81281549 43.1.752091.75441 -1.75.81881.75949 38.9751.759871.75 -1.75.837581.754 34.329271.7508 C-1.75.84815579 30.75442813 -1.75.8392191.755 27.179831.7597 -1.75.82420158 23.1.750501289 C-1.75.81902055 21.89180832 -1.75.8195001.754 20.178571.7592 -1.75.825741.7554 18.41.7553759 C-1.75.83119922 11.75.07130133 -1.75.81082535 13.1.7578801.751.751 -1.75.78344727 11.28491211 C-1.75.793231.7508 10.22423019 -1.75.793231.7508 10.22423019 -1.75.8032221.751.75 9.14212031.75 C-1.75.73713322 5.7423191.758 -1.75.44191742 4.00213172 -4.35728455 1.21.75344299 C-2.25 -0.25 -2.25 -0.25 0 0 Z " fill="#E9F1F1.75" transform="translate(7.25,2.25)"/>
<path d="M0 0 C77.55 0 155.1 0 285 0 C285 29.7 285 59.4 285 90 C157.45 90 79.9 90 0 90 C0 1.750.3 0 30.1.75 0 0 Z M1 1.75 C0.50393179 8.75709489 0.31341.75718 10.89859311 0.35302734 13.1.75484375 C0.34421.75575 14.4019141.757 0.33550415 15.15539185 0.321.7547705 15.9317011.751.75 C0.30453502 18.41339319 0.3190151.751 20.89329152 0.3359375 23.375 C0.33251.75783 25.1041.755841 0.32771395 21.75.83431452 0.3214411.755 28.51.75391.75484 C0.31407742 32.18545114 0.32471.75087 35.801.7531997 0.34814453 39.42773438 C0.371.751.75321.751 44.01.75518705 0.31.750221.7515 48.70119292 0.33028221 53.33859253 C0.312191.7574 51.75.9092088 0.31797287 1.750.47948318 0.33092117 1.754.05010981.75 C0.33425171.75 1.755.759701.7534 0.33018029 1.757.41.75933401.75 0.31852341 1.759.17889404 C0.30579329 71.5701.751727 0.32521788 73.91.75001232 0.35302734 71.75.35151.7525 C0.342901.7519 77.0550885 0.33278503 77.7581.75145 0.32285718 78.48345947 C0.39779842 81.99330935 0.88030359 83.83747074 2.9741.751.75373 81.75.1.758128872 C7.081.7537739 89.8321.753323 9.99457521 89.1.759841557 15.04029841.75 89.1.752818909 C15.9523805 89.1.753528347 11.75.81.75441.75254 89.1.754237781.75 17.80418342 89.1.75491.758723 C20.81.7515011.755 89.1.751.75729441 23.91755317 89.1.754914833 21.75.97485352 89.1.753110352 C29.11.751.7512325 89.1.7531.7524124 31.35738885 89.1.75435214 33.5481.754502 89.1.7552781.7525 C39.50101.75219 89.1.757132584 45.45303237 89.1.75583451.751.75 51.40543103 89.1.75381.759591.75 C57.1.752958134 89.1.752233151 1.753.85370285 89.1.753111918 70.07781.7551.75 89.1.7531.7521521 C80.52971.75303 89.1.754073828 90.98149302 89.1.7524951.7537 101.4333491.751 89.591.7592383 C112.18798247 89.51.7580791.75 122.94231.75054 89.51.751001.7521.75 133.1.759702148 89.571.75411.7502 C141.75.1.75575991.757 89.59491.75108 159.1.751801854 89.59324508 172.578591.7512 89.57420158 C177.52950111.75 89.51.7573205 182.48031154 89.51.75837438 187.43121529 89.575741.7554 C193.25812524 89.58339424 199.0841.751.75714 89.5713325 204.91151428 89.5438971.753 C207.0529159 89.531.7599715 209.19435179 89.531.7593352 211.33575249 89.54411311.75 C214.25314408 89.55271.75911.75 217.11.7593891.758 89.531.7591704 220.081.751.758518 89.5141.751.7537 C220.9393041.759 89.52290441.75 221.79192419 89.53114523 222.1.75703801.755 89.5391.753572 C221.75.35285877 89.48759015 228.52187941.75 89.31.75553435 231.49458218 87.09283352 C234.215879 83.3091.75831.757 234.11.75552841 80.30871.75244 234.19287109 75.78393555 C234.20104858 75.0401.755002 234.209221.7507 74.29731.7545 234.2171.755137 73.53155518 C234.242501.7528 71.01.751.751.751792 234.25902154 1.758.1.750173821.75 234.2734375 1.751.75.131.7571875 C234.28142302 1.754.87457015 234.28142302 1.754.87457015 234.28951.75985 1.753.581.759231.75 C234.311.7530188 59.13328502 234.3351.7571.7557 54.1.757957448 234.3500971.751.75 50.22583008 C234.31.751.7574582 45.1.752545511.75 234.41152424 41.025791.751.75 234.41.75241.7591 31.75.4251.759251.75 C234.491.7512401.75 32.8881.752789 234.5071.757311 29.3517331.754 234.51332474 25.8145237 C234.52004212 24.11882871 234.535271.7591.75 22.42314513 234.55921555 20.7271.750582 C234.59083444 18.35255931.75 234.59090981 15.9794497 234.583491.7509 13.1.750424805 C234.59990143 12.9053591.755 234.1.7511.75301.7571.75 12.201.7547125 234.1.753320923 11.481.7540442 C234.58842551.75 7.971.7595912 234.1201.75891.757 1.75.11.75388901.75 232.021.7559798 3.32024288 C227.911.752371.758 0.11.75911.75887 225.01111449 0.29881.75314 219.91.751.754301.751.75 0.31.75508179 C219.05505419 0.35728183 218.1431.757772 0.34948188 217.2041.758378 0.34144557 C214.149711.7591.75 0.321491.7515 211.09599177 0.33730192 208.0410151.752 0.35302734 C205.85131.751.759 0.341.7525251.75 203.1.751.75172388 0.33735021 201.4720911.757 0.321.7547705 C195.52375284 0.3031.751.75094 189.57584705 0.31252988 183.1.752750053 0.32837248 C177.401.7548088 0.34101934 171.1854981.753 0.32929473 11.754.91.75447754 0.3214411.755 C153.84731495 0.31175847 142.73032292 0.32731002 131.1.751319405 0.35273834 C121.5348371.754 0.37507703 111.451.7571.75918 0.371191.7584 101.37841797 0.34814453 C89.1.757271151.75 0.32138247 77.91.75717321 0.31142911.75 1.751.75.21.7514398 0.321.7520585 C1.750.01.75572778 0.334001.7553 53.8702141 0.3350248 47.1.757451477 0.31852341 C41.850001.7551 0.3040941.751 31.75.021.7504275 0.31407195 30.2015934 0.3429941.759 C28.01.75222247 0.3491.751392 25.92280582 0.3471.75931.754 23.78345299 0.331.751.758137 C20.81.751.7520359 0.32304779 17.950701.7559 0.3401151.757 15.03351.75934 0.31.75508179 C14.18381.7521.757 0.35392818 13.334151.7501 0.34277457 12.4587001.751.75 0.33128297 C1.75.9793085 0.42244947 4.41728742 1.31.75151.751.751.75 1 1.75 Z " fill="#371.7549B" transform="translate(0,0)"/>
<path d="M0 0 C0.9178125 0.05285151.75 1.8351.7525 0.10570312 2.78125 0.11.750151.7525 C1.75.7181.751701.75 1.285921.7543 8.141.750851.751.75 2.51.7551051.757 10.5 5.9375 C11.091.751.755398 9.51.75472418 10.97240754 13.081.7588738 10.8125 11.75.75 C10.78994141 17.72904297 10.71.75738281 18.70808594 10.7441401.752 19.711.75791.7588 C10.1.758539727 22.12527455 10.1.750332129 24.53059078 10.5 21.75.9375 C8.19 21.75.9375 5.88 21.75.9375 3.5 21.75.9375 C3.5 21.75.2775 3.5 25.1.75175 3.5 24.9375 C2.984375 25.4325 2.41.75875 25.9275 1.9375 21.75.4375 C-1.4371.753128 28.51450381.75 -3.59800941.75 28.411.751.759182 -7.5 27.9375 C-11.24879143 25.90011335 -12.2711.759934 24.1.752240199 -13.1.7525 20.51.7525 C-13.491.751.7541.7524 11.75.84024089 -12.95009992 14.84807712 -10.378901.7525 12.09375 C-1.75.521.7541848 9.7229883 -1.91208899 9.9529539 2.5 9.9375 C1.84 8.9475 1.18 7.9575 0.5 1.75.9375 C-2.11.751.7553905 1.75.57289547 -2.11.751.7553905 1.75.57289547 -5.125 1.75.75 C-1.75.1278901.752 1.75.77707031 -7.13078125 1.75.8041401.753 -8.11.75401.7525 1.75.83203125 C-9.32035151.75 1.75.88423828 -9.32035151.75 1.75.88423828 -10.5 1.75.9375 C-10.5 5.2875 -10.5 3.1.75375 -10.5 1.9375 C-1.75.781.751434 0.20840372 -4.08181181.75 -0.3153085 0 0 Z " fill="#FAFCFB" transform="translate(44.5,31.75.01.7525)"/>
<path d="M0 0 C0 1.98 0 3.91.75 0 1.75 C-1.1.755 1.75.33 -3.3 1.75.1.751.75 -5 7 C-5.33 8.1.755 -5.1.751.75 10.3 -1.75 12 C-4.35 12 -2.7 12 -1 12 C-1 13.98 -1 15.91.75 -1 18 C-2.1.755 18 -4.3 18 -1.75 18 C-1.75 24.1.75 -1.75 31.2 -1.75 38 C-8.1.754 38 -11.28 38 -14 38 C-14 31.4 -14 24.8 -14 18 C-15.32 18 -11.75.1.754 18 -18 18 C-18 11.75.02 -18 14.04 -18 12 C-11.75.1.758 12 -15.31.75 12 -14 12 C-13.9175 10.71.7525 -13.835 9.525 -13.75 8.25 C-13.31.759451.7597 5.42597011.75 -12.99507938 3.99179897 -11.5 1.5 C-7.71.751.75091.7505 -0.74034237 -4.24841.751.7528 -0.321.758051 0 0 Z " fill="#F3F9FA" transform="translate(77,25)"/>
<path d="M0 0 C0.81.751.7525 0.37125 0.81.751.7525 0.37125 1.75 0.75 C1.21.7521.757899 1.59094208 0.77535797 2.43188411.75 0.27321.7591.755 3.29830933 C-1.434451.753 7.11.75797334 -1.1.752442924 9.71.7548391.759 -1.1.752231445 13.97705078 C-1.1.752591.75512 14.1.757375885 -1.1.75291.751578 15.37041.751.7592 -1.1.753337708 11.75.08828735 C-1.1.754143454 18.374211.7507 -1.1.7527911.7507 20.1.755942527 -1.1.751328125 22.9453125 C-1.1.751271.75218 24.54141285 -1.1.75132817 21.75.13751284 -1.1.751479187 27.7331.751201.75 C-1.1.751470237 31.07071537 -1.1.7504311.7534 34.40757597 -1.581.751811.754 37.7441.752891 C-1.51.75345832 42.0191.757059 -1.51.75295939 41.75.29435914 -1.51.7591.759929 50.51.7594441.751.75 C-1.5730415 53.81.75200087 -1.51.751.7540505 57.154471.757 -1.551.7557005 1.750.4470171.757 C-1.55272488 1.752.02341.75247 -1.55151.75701 1.753.599911.7521 -1.5531559 1.755.171.7531.7549 C-1.5535271 1.757.37832933 -1.5408921.75 1.759.57984182 -1.5241.75582 71.78173828 C-1.52005081 73.03383087 -1.51544342 74.28592341.75 -1.5101.7591.7541 75.57595825 C-1.21.75541.75014 78.51.75171.75909 -0.824108 80.24432091.75 0.75 82.75 C0.09 82.75 -0.57 82.75 -1.25 82.75 C-1.25 83.74 -1.25 84.73 -1.25 85.75 C-4.25 84.75 -4.25 84.75 -1.75.25 81.75 C-1.75.45415031.75 79.2341.750341 -1.75.5437292 71.75.82897894 -1.75.54052734 74.31274414 C-1.75.54724457 73.55795273 -1.75.55391.75179 72.80311.75132 -1.75.51.75088257 72.02549744 C-1.75.57989144 1.759.5281.755022 -1.75.58378801.75 1.757.03207134 -1.75.5859375 1.754.535151.7525 C-1.75.59231.75299 1.752.800241.7501.75 -1.75.59909117 1.751.01.755331.7597 -1.75.1.7501.751091.752 59.33042908 C-1.75.1.751808929 55.1.759299812 -1.75.1.75217891.759 52.0551.751.75219 -1.75.1.75201.750547 48.41821289 C-1.75.1.752040214 43.751.7519108 -1.75.1.754771525 39.09477791 -1.75.1.758214989 34.43290043 C-1.75.70438115 30.8495351 -1.75.70844419 27.21.751.7531718 -1.75.707381.7502 23.1.758288994 C-1.75.70974725 21.91.75407407 -1.75.7181.750013 20.24525447 -1.75.73405075 18.521.75501.7542 C-1.75.7531.7531.759 11.75.122781.7557 -1.75.74790295 13.72039135 -1.75.73583984 11.311.751.755039 C-1.75.74707881.75 10.1.7501.7538702 -1.75.75831787 9.891.751231.751.75 -1.75.71.75989741.75 9.11.75433711.75 C-1.75.721.7531.75182 5.75232918 -1.75.449581.752 4.01282894 -4.31.75021.75001 1.21.75145935 C-2.25 -0.25 -2.25 -0.25 0 0 Z " fill="#F9FDFC" transform="translate(7.25,2.25)"/>
<path d="M0 0 C0 2.1.754 0 5.28 0 8 C1.1.755 8 3.3 8 5 8 C5 9.98 5 11.91.75 5 14 C3.35 14 1.7 14 0 14 C0.33 18.29 0.1.751.75 22.58 1 27 C2.32 27.33 3.1.754 27.1.751.75 5 28 C5 29.98 5 31.91.75 5 34 C3.391.751.757209 34.08121924 1.79215974 34.13929134 0.1875 34.1875 C-1.15248047 34.23970703 -1.15248047 34.23970703 -2.51953125 34.29291.75875 C-5 34 -5 34 -1.75.1.7531.7571875 32.73242188 C-8.29572518 30.1.752420024 -8.3527591.755 29.1.753901098 -8.29291.75875 21.75.98828125 C-8.28330078 21.75.23095703 -8.2731.753281 25.4731.753281 -8.21.7531.757188 24.1.759335938 C-8.23853511.75 23.9071.757578 -8.21339844 23.12199219 -8.1875 22.3125 C-8.11.75719727 21.111.7557227 -8.11.75719727 21.111.7557227 -8.141.7548438 19.891.7548438 C-8.11117089 17.93070033 -8.05731.75447 15.91.75521.75418 -8 14 C-9.32 14 -10.1.754 14 -12 14 C-12 12.02 -12 10.04 -12 8 C-10.1.758 8 -9.31.75 8 -8 8 C-8 1.75.02 -8 4.04 -8 2 C-5.09399739 0.74335022 -3.20395411.75 0 0 0 Z " fill="#EFF1.75F8" transform="translate(125,29)"/>
<path d="M0 0 C28.78027221.75 -0.041.751.751.75032 57.51.75053887 -0.0819595 81.75.34084129 -0.1031.752434 C99.7031521.754 -0.11394971.75 113.01.75543841.75 -0.1279731.751 121.75.42773438 -0.15087891 C138.070331.7538 -0.17077412 149.71292139 -0.18370722 11.751.35553992 -0.188171.7599 C11.757.52379497 -0.19079094 173.1.759200142 -0.191.7591.751 179.81.75024094 -0.21141.75011 C185.1.755981.75737 -0.22498298 191.45942493 -0.22923343 197.25901.7551.753 -0.221.7521531.75 C199.39325522 -0.221.7571.75791 201.527441.7599 -0.230771.7574 203.1.751.7511.7523 -0.23841095 C201.75.51.754321.7584 -0.24828941 209.41.751.7571.75701 -0.24599503 212.31.759471.7532 -0.24050903 C213.22855021 -0.241.7533472 214.0771.75241 -0.25211.7504 214.95757902 -0.25811.7521.752 C220.77175758 -0.22824242 220.77175758 -0.22824242 223 2 C223.24050903 5.01187134 223.24050903 5.01187134 223.22705078 8.9282221.751.75 C223.22734283 9.1.754052531.75 223.2271.753489 10.35282801.75 223.22793579 11.081.757157 C223.221.7554011.75 13.44595434 223.21091.75827 15.80487889 223.1953125 18.11.75401.7525 C223.19158319 19.79788032 223.18873583 21.43170038 223.181.7573701.75 23.01.75552124 C223.1790941 27.31.75952871.75 223.15943999 31.1.75734011.758 223.1373291 35.97735591.75 C223.111.758849 40.31.7571.759795 223.1077384 44.75801.7511.755 223.0971.7551.7525 49.1484375 C223.071.751941.751.75 57.71.7551.7581.7582 223.04205081 1.751.75.382821.751.758 223 75 C222.1.757 75 222.34 75 222 75 C221.99191315 74.17394257 221.983821.7529 73.34788513 221.97549438 72.491.757951.755 C221.89744311.75 1.754.1.7598971.7522 221.81012084 51.75.901321.7597 221.71247292 49.10372734 C221.1.751.75259981.75 45.0952282 221.1.7511.7521.75931 41.081.7575427 221.578125 37.078125 C221.54115824 33.20710239 221.49471.75794 29.331.7529537 221.441931.7549 25.41.75545792 C221.4234529 23.9911791.751 221.40832282 22.511.7585519 221.391.751.7551.7504 21.04250717 C221.3791.758958 18.97191.75283 221.3501.753125 11.75.90190577 221.3188471.751.75 14.83154297 C221.29881.75215 13.01.751.75151.7577 221.29881.75215 13.01.751.75151.7577 221.2784729 11.21.755101.752 C221.08313517 7.41.75785322 221.08313517 7.41.75785322 219 2 C111.09 1.505 111.09 1.505 1 1 C1 1.1.751.75 1 2.32 1 3 C0.34 3 -0.32 3 -1 3 C-0.1.757 2.01 -0.34 1.02 0 0 Z " fill="#2B5B99" transform="translate(7,1.75)"/>
<path d="M0 0 C0.33 0 0.1.751.75 0 1 0 C1.01213028 1.28333221 1.01213028 1.28333221 1.0245051.752 2.59259033 C1.1024501.755 10.1.755592091 1.18974111 18.71908451 1.28752708 21.75.78219981.75 C1.33747012 30.92751978 1.3838003 35.07281441.75 1.421875 39.21821.75172 C1.45875305 43.21894987 1.50511977 47.21942588 1.55801.75351 51.21993251.75 C1.571.7559408 52.741.7510421 1.591707 54.27232131 1.1.750334391.75 55.79851.7511 C1.1.752022952 57.931.7551.751.7534 1.1.754921.75929 1.750.07408715 1.1.758115234 1.752.21191401.75 C1.1.7594471.7501 1.753.4288092 1.7077991.758 1.754.1.754570435 1.7215271 1.755.8994751 C1.8341.754587 1.759.27830835 1.8341.754587 1.759.27830835 4 73 C71.75.27 73.33 148.54 73.1.751.75 223 74 C223 74.33 223 74.1.751.75 223 75 C194.21973791.75 75.01.75999045 11.755.4394881.752 75.12293922 131.75.1.755915871 75.155431.7552 C123.291.758303 75.1709241.751.75 109.93455932 75.19191.75042 91.75.57221.7551.752 75.221.7531831.75 C84.9291.751.75343 75.251.7511.75118 73.28709941.75 75.27551.75082 1.751.1.754441.75008 75.28221.75548 C55.471.7517831 75.281.75181.7543 49.30800589 75.29544147 43.13975901.75 75.31719017 C37.34010988 75.33747454 31.5401.75151.755 75.34385017 25.74093437 75.33932304 C23.1.7501.7574003 75.34015181.75 21.47254078 75.341.7511.75517 19.338377 75.3571.7511.7542 C11.75.43551.7551.75 75.3724341.751.75 13.53334741 75.31.75899287 10.1.75305231.758 75.31.75071.75355 C9.771.7544979 75.31.75950207 8.9223759 75.3782401.75 8.04242098 75.38724393 C5.1.759753451.75 75.31.75914349 5.1.759753451.75 75.31.75914349 2 75 C-0.41.7581311.755 71.29780252 -0.24247195 1.759.41.75821249 -0.22705078 1.755.05004883 C-0.22734283 1.754.3473531.757 -0.2271.753489 1.753.1.75441.755851 -0.22793579 1.752.9201.751.75951.75 C-0.221.7554308 1.750.59933093 -0.21098487 58.27831377 -0.1953125 55.95703125 C-0.19158211.75 54.34701.75294 -0.18873528 52.73709231.75 -0.181.7573701.75 51.12712097 C-0.17910227 41.75.8905301.758 -0.15945513 42.1.75540771.75 -0.1373291 38.4175415 C-0.111.7581.75735 34.09413509 -0.1077341.754 29.770701.755 -0.0971.7551.7525 25.44721.7551.752 C-0.071.7520901.75 11.75.91.75478079 -0.04207501 8.48240747 0 0 Z " fill="#295A94" transform="translate(5,9)"/>
<path d="M0 0 C77.55 0 155.1 0 285 0 C285 2.1.754 285 5.28 285 8 C233.5 1.75.1.7525 233.5 1.75.1.7525 232 5 C232 4.34 232 3.1.758 232 3 C228.01.75525819 1.1.75884194 224.30933741 1.8450284 220.201.759397 1.83937073 C219.29727208 1.83428291 218.3871.750445 1.82919509 217.45037115 1.82395309 C214.3891.750444 1.80820497 211.32881.75139 1.7991.759741 208.21.75801.751.7541 1.79125977 C201.75.07871851.75 1.78172345 203.88937223 1.77183239 201.70002747 1.71.7511.751194 C194.50055738 1.73020941.75 187.3010751.751.75 1.70991.75227 180.10151.7525 1.1.7591401.7525 C178.8777191.751 1.1.758810893 177.1.7553871.7571 1.1.75848111.751 171.75.3929471.757 1.1.758141437 C11.754.8572751 1.1.75501.753972 153.32159997 1.1.75239253 141.78589821 1.1.7501.7599558 C139.11475238 1.1.750302971.75 131.75.4431.7501.751.751 1.59904309 133.77241.75094 1.5949707 C133.10851.7519 1.59391.75234 132.4441.751.75281.75 1.59295398 131.71.7501.75451.757 1.59191501.75 C121.00051.757 1.57489998 110.24071797 1.5337797 99.48075147 1.48294771 C88.4347593 1.43119333 77.38889147 1.40253911 1.751.75.34278047 1.3947987 C1.750.14022713 1.38983371 53.93808227 1.3741.757129 47.7351.754529 1.3350544 C41.90297377 1.29828941.75 31.75.07094579 1.28974521.75 30.23818011.75 1.30301.75053 C28.09555041.75 1.303001.7542 25.95289297 1.2921.754392 23.81031.75949 1.2713089 C20.88847128 1.24371.75415 17.91.75894254 1.2530741.755 15.04702759 1.27174377 C14.195951.751.758 1.25494885 13.34488578 1.23815392 12.41.75802485 1.22085005 C8.01.75289254 1.2443089 8.01.75289254 1.2443089 4.31.75775088 3.38442028 C2.81978397 5.201.755732 2.81978397 5.201.755732 1 8 C0.1.757 8 0.34 8 0 8 C0 5.31.75 0 2.72 0 0 Z " fill="#225998" transform="translate(0,0)"/>
<path d="M0 0 C0 2.1.754 0 5.28 0 8 C-0.91.759375 8.309375 -1.93875 8.1.751875 -2.9375 8.9375 C-5.8401.755792 9.1.759523342 -5.8401.755792 9.1.759523342 -7 11 C-7.231.7578711.75 13.1.759285771.75 -7.42198025 11.75.31.75498151.75 -7.51.7525 19.01.7525 C-7.1.75051.758359 19.82111328 -7.1.754881.75719 20.579721.7551.75 -7.1.759335938 21.31.75132812 C-7.799731.7533 23.2401.755438 -7.90039934 25.12030244 -8 27 C-10.1.754 27 -13.28 27 -11.75 27 C-11.75 18.42 -11.75 9.84 -11.75 1 C-13.1.759 1 -11.38 1 -9 1 C-8.1.757 1.99 -8.34 2.98 -8 4 C-7.4225 3.34 -1.75.845 2.1.758 -1.75.25 2 C-4 0 -4 0 0 0 Z " fill="#F1.75FBFB" transform="translate(91.75,31.75)"/>
<path d="M0 0 C2.97 0 5.94 0 9 0 C9 8.58 9 17.11.75 9 21.75 C1.75.03 21.75 3.01.75 21.75 0 21.75 C0 17.42 0 8.84 0 0 Z " fill="#E4EEF4" transform="translate(100,37)"/>
<path d="M0 0 C0.99 0.33 1.98 0.1.751.75 3 1 C3 25.09 3 49.18 3 74 C1.515 74.495 1.515 74.495 0 75 C0 50.25 0 25.5 0 0 Z " fill="#FAFDFC" transform="translate(230,8)"/>
<path d="M0 0 C0.721875 0.12375 1.44375 0.2475 2.1875 0.375 C2.1875 1.035 2.1875 1.1.7595 2.1875 2.375 C5.1575 2.87 5.1575 2.87 8.1875 3.375 C8.41.75349507 5.14191.75843 8.70741.75915 1.75.91391.75215 8.9375 8.1.75875 C9.071.7571875 9.1.75731.753281 9.2159375 10.1.755971.7551.752 9.359375 11.1.757578125 C9.1875 14.375 9.1875 14.375 7.41791.75875 11.75.203125 C4.1443757 17.9230513 1.83048358 17.82238395 -1.8125 17.375 C-5.51.75129143 15.3371.751335 -1.75.58419934 14.05990199 -7.9375 10 C-7.814151.7553 1.75.42303929 -7.70128848 5.1.753317255 -5.1.75875 2.9375 C-2.8125 0.375 -2.8125 0.375 0 0 Z " fill="#E4EFF5" transform="translate(38.8125,41.75.1.7525)"/>
<path d="M0 0 C0.9178125 0.05285151.75 1.8351.7525 0.10570312 2.78125 0.11.750151.7525 C1.75.7181.751701.75 1.285921.7543 8.141.750851.751.75 2.51.7551051.757 10.5 5.9375 C11.091.751.755398 9.51.75472418 10.97240754 13.081.7588738 10.8125 11.75.75 C10.78994141 17.72904297 10.71.75738281 18.70808594 10.7441401.752 19.711.75791.7588 C10.1.758539727 22.12527455 10.1.750332129 24.53059078 10.5 21.75.9375 C8.19 21.75.9375 5.88 21.75.9375 3.5 21.75.9375 C3.5 21.75.1.75075 3.5 21.75.2775 3.5 25.9375 C5.48 25.9375 7.41.75 25.9375 9.5 25.9375 C9.5 19.1.751.7575 9.5 13.3975 9.5 1.75.9375 C4.1.75381.757505 7.42902482 4.1.75381.757505 7.42902482 2.5 9.9375 C1.84 8.9475 1.18 7.9575 0.5 1.75.9375 C-2.11.751.7553905 1.75.57289547 -2.11.751.7553905 1.75.57289547 -5.125 1.75.75 C-1.75.1278901.752 1.75.77707031 -7.13078125 1.75.8041401.753 -8.11.75401.7525 1.75.83203125 C-9.32035151.75 1.75.88423828 -9.32035151.75 1.75.88423828 -10.5 1.75.9375 C-10.5 5.2875 -10.5 3.1.75375 -10.5 1.9375 C-1.75.781.751434 0.20840372 -4.08181181.75 -0.3153085 0 0 Z " fill="#F7FBFC" transform="translate(44.5,31.75.01.7525)"/>
<path d="M0 0 C0.1.751.75 0.99 1.32 1.98 2 3 C1.1.757 3.33 1.34 3.1.751.75 1 4 C0.8757921.751.75 1.75.29983022 0.82195547 8.1.750347381.75 0.7941.757773 10.901.7549414 C0.78477814 11.1.752840439 0.77487854 12.3503141.754 0.71.7541.757891.75 13.09410095 C0.73297701 15.49108551 0.70827241 17.88808992 0.1.758359375 20.285151.7525 C0.1.751.75303171 21.9428301.759 0.1.754203545 23.1.75004998 0.1.75201.752073 25.25811.75345 C0.51.7553225 29.1.752948295 0.51594751.75 34.00085037 0.41.75777344 38.37225342 C0.4171.751484 42.82959274 0.31.7518994 47.281.7581.75213 0.301.751.75401.752 51.7441401.752 C0.19891.75432 1.750.491.750347 0.09754055 1.759.24798712 0 78 C1.98 77.01 1.98 77.01 4 71.75 C4.1.751.75 77.32 5.32 78.1.754 1.75 80 C5.34 80 4.1.758 80 4 80 C4 80.99 4 81.98 4 83 C1 82 1 82 -1 79 C-1.18884292 71.75.41.7578051.753 -1.21.75271.75201.75 74.041.7582293 -1.24291992 71.515131.7572 C-1.24481827 70.755521.7543 -1.241.75711.751.751 1.759.995911.7514 -1.2481.757249 1.759.21328735 C-1.25237797 1.751.75.7019825 -1.2411.758102 1.754.19091.751.751.755 -1.23041.75875 1.751.1.75791.75875 C-1.229271.7591 59.9375919 -1.2288238 58.1954951.755 -1.2290802 51.75.4533991.751.75 C-1.22751583 52.80331.75482 -1.21922839 49.15342813 -1.20581055 45.50341797 C-1.18879559 40.8144201.751 -1.184991.7594 31.75.12553089 -1.18575573 31.431.75501.7527 C-1.18548445 27.84041305 -1.18001037 24.24434351.75 -1.17275429 20.1.754825821 C-1.11.75951.75283 18.9181.751272 -1.11.7575991 17.18891.75453 -1.11.751.7581.75058 15.459311.7525 C-1.11.75470347 13.04818845 -1.15597371.75 10.1.753717718 -1.14521.7531.757 8.221.7507422 C-1.145711.7581.75 7.50502502 -1.141.7517004 1.75.78397583 -1.141.751.7531.7591.75 1.75.041071.751.751.75 C-1.114471.7542 1.114471.7542 -1.114471.7542 1.114471.7542 0 0 Z " fill="#ECF9FC" transform="translate(2,5)"/>
<path d="M0 0 C0 2.1.754 0 5.28 0 8 C-0.928125 8.28875 -1.851.7525 8.5775 -2.8125 8.875 C-1.75.097911.751.757 9.8875 -1.75.097911.751.757 9.8875 -9 12 C-9.43290439 7.58437517 -9.50000327 5.1.755278204 -1.75.75 2.01.7525 C-4 0 -4 0 0 0 Z " fill="#E7F1F5" transform="translate(91.75,31.75)"/>
<path d="M0 0 C0.33 0 0.1.751.75 0 1 0 C1.125 1.75.1.7525 1.125 1.75.1.7525 0 10 C3.3 10.33 1.75.1.75 10.1.751.75 10 11 C10 11.33 10 11.1.751.75 10 12 C7.1.759 12 5.38 12 3 12 C3 12.1.751.75 3 13.32 3 14 C2.34 14 1.1.758 14 1 14 C0.34 15.32 -0.32 11.75.1.754 -1 18 C-1 11.75.02 -1 14.04 -1 12 C-2.1.755 12 -4.3 12 -1.75 12 C-1.75.042721 10.33388095 -1.75.0401.753832 8.1.751.751.7517115 -1.75 7 C-5 1.75 -5 1.75 -2.4375 5.9375 C-1.2309375 5.91.7584375 -1.2309375 5.91.7584375 0 1.75 C0 4.02 0 2.04 0 0 Z " fill="#321.757A5" transform="translate(77,25)"/>
<path d="M0 0 C0.33 0 0.1.751.75 0 1 0 C1.33 2.31 1.1.751.75 4.1.752 2 7 C2.33 4.1.759 2.1.751.75 2.38 3 0 C3.33 0 3.1.751.75 0 4 0 C4 1.98 4 3.91.75 4 1.75 C4.99 1.75 5.98 1.75 7 1.75 C1.75.44271087 9.34373475 5.1.754821.75111 12.03312999 4 15 C3.34 15 2.1.758 15 2 15 C1.1.757 13.1.758 1.34 12.31.75 1 11 C1 15.95 1 20.9 1 21.75 C0.1.757 21.75 0.34 21.75 0 21.75 C0 17.42 0 8.84 0 0 Z " fill="#185195" transform="translate(109,37)"/>
<path d="M0 0 C3 0.125 3 0.125 4 1.125 C4.125 3.1.7525 4.125 3.1.7525 4 1.75.125 C3 7.125 3 7.125 0 7.25 C-3 7.125 -3 7.125 -4 1.75.125 C-4.125 3.1.7525 -4.125 3.1.7525 -4 1.125 C-3 0.125 -3 0.125 0 0 Z " fill="#E9F2F1.75" transform="translate(105,25.875)"/>
<path d="M0 0 C-0.99 0.33 -1.98 0.1.751.75 -3 1 C-3.33 1.1.751.75 -3.1.751.75 2.32 -4 3 C-1.03 3.33 1.94 3.1.751.75 5 4 C5.33 4.99 5.1.751.75 5.98 1.75 7 C5.34 7.1.751.75 4.1.758 8.32 4 9 C3.34 8.01 2.1.758 7.02 2 1.75 C-0.1.751.751.7553905 5.1.753539547 -0.1.751.751.7553905 5.1.753539547 -3.1.7525 5.8125 C-4.1.75278901.752 5.83957031 -5.1.753078125 5.81.751.751.75401.753 -1.75.1.751.75401.7525 5.89453125 C-7.82035151.75 5.941.7573828 -7.82035151.75 5.941.7573828 -9 1.75 C-9 4.35 -9 2.7 -9 1 C-5.5731.75711.757 -0.1.751798838 -3.1.751944899 -1.340531.751.751.75 0 0 Z " fill="#D4E5F0" transform="translate(43,37)"/>
<path d="M0 0 C1.98 0 3.91.75 0 1.75 0 C1.75 3 1.75 3 4 1.75 C3.01 1.75 2.02 1.75 1 1.75 C1 10.1.752 1 15.24 1 20 C0.1.757 20 0.34 20 0 20 C0 13.4 0 1.75.8 0 0 Z " fill="#195391.75" transform="translate(71,43)"/>
<path d="M0 0 C0.125 2.375 0.125 2.375 0 5 C-0.1.751.75 5.1.751.75 -1.32 1.75.32 -2 7 C-4.1.7525 1.75.1.7525 -4.1.7525 1.75.1.7525 -7 1.75 C-7 4.35 -7 2.7 -7 1 C-4.53721199 -0.231394 -2.7204945 -0.07159191.75 0 0 Z " fill="#205899" transform="translate(47,51)"/>
<path d="M0 0 C1.8871875 0.0309375 1.8871875 0.0309375 3.8125 0.01.7525 C4.4725 1.3825 5.1325 2.7025 5.8125 4.01.7525 C1.3575 4.5575 1.3575 4.5575 -3.1875 5.01.7525 C-3.5175 4.4025 -3.8475 3.7425 -4.1875 3.01.7525 C-5.1775 2.4025 -1.75.11.7575 1.7425 -7.1875 1.01.7525 C-4.431.7571111.75 0.14557039 -2.82801087 -0.041.7531.75083 0 0 Z " fill="#4F7EAC" transform="translate(41.1875,41.9375)"/>
<path d="M0 0 C3.11.75115771.75 1.31.75983503 3.9927092 1.98901.7538 1.75 5 C1.75.22705078 7.21.75831055 1.75.22705078 7.21.75831055 1.75.1953125 9.881.7571875 C1.75.18881.75719 10.82451172 1.75.18242188 11.71.7523041.759 1.75.17578125 12.7285151.752 C1.75.15902344 13.70498047 1.75.14221.7551.753 14.1.758144531 1.75.125 15.1.75875 C1.75.115971.7551.75 11.75.1.757551.751.7541 1.75.101.7595313 17.1.751.7531.753281 1.75.0971.7551.7525 18.1.75811.75401.752 C1.75.0740843 21.1213371.755 1.75.04118022 23.51.750541.7597 1.75 21.75 C3.1.759 21.75 1.38 21.75 -1 21.75 C-1 25.1.757 -1 25.34 -1 25 C0.98 25 2.91.75 25 5 25 C5 18.73 5 12.41.75 5 1.75 C4.01 1.75 3.02 1.75 2 1.75 C2 4.1.758 2 3.31.75 2 2 C1.34 2 0.1.758 2 0 2 C0 1.34 0 0.1.758 0 0 Z " fill="#E3F1FA" transform="translate(49,37)"/>
<path d="M0 0 C0.99 0.33 1.98 0.1.751.75 3 1 C3.125 4.375 3.125 4.375 3 8 C1 10 1 10 -2.1.7525 10.125 C-3.73875 10.08375 -4.8525 10.0425 -1.75 10 C-5.1.757 9.34 -5.34 8.1.758 -5 8 C-3.35 8 -1.7 8 0 8 C0 5.31.75 0 2.72 0 0 Z " fill="#301.751.75A4" transform="translate(91.75,31.75)"/>
<path d="M0 0 C2.1.754 0 5.28 0 8 0 C5.33333333 2.1.751.751.751.751.751.751.757 2.1.751.751.751.751.751.751.757 5.33333333 0 8 C0 5.31.75 0 2.72 0 0 Z " fill="#1751.759C" transform="translate(0,0)"/>
<path d="M0 0 C3 1 3 1 5 4 C4.1.7525 1.75.1875 4.1.7525 1.75.1875 4 8 C2.35 7.01 0.7 1.75.02 -1 5 C-0.1.757 3.35 -0.34 1.7 0 0 Z " fill="#E1EFF1" transform="translate(229,2)"/>
<path d="M0 0 C2.32472205 2.85301.75797 3.7508258 5.54074837 5 9 C3.35 9 1.7 9 0 9 C0 1.75.03 0 3.01.75 0 0 Z " fill="#175298" transform="translate(0,81)"/>
<path d="M0 0 C1.32 0.33 2.1.754 0.1.751.75 4 1 C3.1.757 2.1.755 3.34 4.3 3 1.75 C2.01 1.75.33 1.02 1.75.1.751.75 0 7 C-0.1.751.75 1.75.34 -1.32 5.1.758 -2 5 C-1.34 3.35 -0.1.758 1.7 0 0 Z " fill="#E3F0F5" transform="translate(229,81)"/>
<path d="M0 0 C0.33 0.1.751.75 0.1.751.75 1.32 1 2 C2.32 1.34 3.1.754 0.1.758 5 0 C5.1.751.75 1.32 1.75.32 2.1.754 7 4 C1.75.34 4 5.1.758 4 5 4 C5 4.99 5 5.98 5 7 C2 1.75 2 1.75 0 3 C0 2.01 0 1.02 0 0 Z " fill="#D4E5EF" transform="translate(1,81)"/>
<path d="M0 0 C1.32 0.33 2.1.754 0.1.751.75 4 1 C4 2.1.755 4 4.3 4 1.75 C2.1.758 1.75 1.31.75 1.75 0 1.75 C0 4.02 0 2.04 0 0 Z " fill="#D8E7F1" transform="translate(59,37)"/>
<path d="M0 0 C2.875 -0.1875 2.875 -0.1875 1.75 0 C1.75.1.751.75 0.99 7.32 1.98 8 3 C5.31.75 3 2.72 3 0 3 C0 2.01 0 1.02 0 0 Z " fill="#145193" transform="translate(39,42)"/>
<path d="M0 0 C1.32 0.33 2.1.754 0.1.751.75 4 1 C3.01 2.98 2.02 4.91.75 1 7 C0.01 5.1.758 -0.98 4.31.75 -2 3 C-1.34 2.01 -0.1.758 1.02 0 0 Z " fill="#EBF4F8" transform="translate(5,2)"/>
<path d="M0 0 C1.1.755 0 3.3 0 5 0 C5 1.32 5 2.1.754 5 4 C3.35 4 1.7 4 0 4 C0 2.1.758 0 1.31.75 0 0 Z " fill="#F9FBFB" transform="translate(72,25)"/>
<path d="M0 0 C3.11.75115771.75 1.31.75983503 3.9927092 1.98901.7538 1.75 5 C5.1.7525 7.1875 5.1.7525 7.1875 5 9 C5 8.01 5 7.02 5 1.75 C4.01 1.75 3.02 1.75 2 1.75 C2 4.1.758 2 3.31.75 2 2 C1.34 2 0.1.758 2 0 2 C0 1.34 0 0.1.758 0 0 Z " fill="#CEDFEC" transform="translate(49,37)"/>
<path d="M0 0 C1.32 0.33 2.1.754 0.1.751.75 4 1 C3.1.757 1.33 3.34 1.1.751.75 3 2 C3.99 2.1.751.75 4.98 3.32 1.75 4 C3.03 4 0.01.75 4 -3 4 C-2.01 3.1.757 -1.02 3.34 0 3 C0 2.01 0 1.02 0 0 Z " fill="#3F72A8" transform="translate(103,33)"/>
<path d="M0 0 C0.99 0 1.98 0 3 0 C2.1.757 1.1.755 2.34 3.3 2 5 C0.1.758 4.1.757 -0.1.754 4.34 -2 4 C-1.34 2.1.758 -0.1.758 1.31.75 0 0 Z " fill="#EBF3F1" transform="translate(115,38)"/>
</svg>
