<!DOCTYPE svg PUBLIC "-//W3C//DTD SVG 20010904//EN" "http://www.w3.org/TR/2001/REC-SVG-20010904/DTD/svg10.dtd">
<svg version="1.0" xmlns="http://www.w3.org/2000/svg" width="2480px" height="2480px" viewBox="0 0 12000 12000" preserveAspectRatio="xMidYMid meet">
<g id="layer101" fill="#352f2f" stroke="none">
<path d="M5540 11814 c-1418 -122 -2669 -703 -3667 -1701 -984 -984 -1578 -2286 -1683 -3688 -15 -195 -15 -660 0 -845 65 -822 282 -1583 652 -2285 846 -1604 2375 -2721 4148 -3030 378 -66 618 -86 1025 -86 902 1 1727 191 2540 585 1400 679 2490 1921 2976 3391 430 1298 397 2687 -93 3955 -371 959 -997 1809 -1808 2455 -831 662 -1822 1081 -2885 1220 -346 45 -874 58 -1205 29z"/>
</g>
<g id="layer102" fill="#433e3f" stroke="none">
<path d="M5540 11814 c-1418 -122 -2669 -703 -3667 -1701 -984 -984 -1578 -2286 -1683 -3688 -15 -195 -15 -660 0 -845 65 -822 282 -1583 652 -2285 846 -1604 2375 -2721 4148 -3030 378 -66 618 -86 1025 -86 902 1 1727 191 2540 585 1400 679 2490 1921 2976 3391 430 1298 397 2687 -93 3955 -371 959 -997 1809 -1808 2455 -831 662 -1822 1081 -2885 1220 -346 45 -874 58 -1205 29z m2945 -4075 c5 -7 25 -8 55 -4 31 4 50 3 55 -5 4 -6 20 -8 41 -4 22 4 46 1 68 -10 19 -9 47 -17 63 -19 16 -2 34 -7 41 -11 7 -4 17 -4 22 -1 6 4 16 2 23 -3 22 -17 126 -52 141 -46 8 3 17 0 21 -6 8 -13 176 -92 182 -86 2 2 16 -7 30 -20 15 -14 32 -23 39 -20 7 3 25 -7 39 -22 15 -15 32 -27 39 -27 6 -1 25 -14 42 -30 46 -45 146 -120 156 -118 4 2 7 -1 5 -5 -3 -12 134 -151 147 -149 5 1 10 -5 11 -13 0 -18 94 -140 106 -140 5 0 9 -5 9 -11 0 -15 80 -150 102 -172 10 -10 16 -22 13 -28 -4 -5 3 -26 14 -47 11 -20 31 -64 44 -97 13 -33 28 -69 32 -80 4 -11 9 -24 9 -30 4 -32 29 -116 37 -121 5 -3 7 -10 3 -15 -3 -5 0 -16 6 -24 6 -8 9 -19 5 -25 -3 -5 -3 -15 1 -22 4 -7 9 -43 10 -80 1 -38 6 -74 12 -81 9 -11 12 -38 13 -147 0 -76 -6 -156 -15 -168 -4 -8 -9 -44 -10 -81 -1 -37 -6 -72 -10 -79 -4 -7 -4 -17 -1 -22 4 -6 2 -17 -4 -24 -7 -8 -11 -18 -9 -22 1 -5 -3 -18 -9 -29 -9 -17 -23 -70 -28 -110 -2 -11 -5 -19 -42 -108 -13 -32 -21 -62 -18 -67 4 -6 2 -10 -4 -10 -12 0 -45 -59 -38 -67 3 -2 -1 -12 -10 -21 -25 -28 -93 -150 -93 -166 0 -9 -7 -16 -16 -16 -10 0 -14 -6 -10 -15 3 -8 2 -14 -3 -12 -14 4 -63 -62 -55 -74 4 -7 3 -9 -3 -6 -12 8 -47 -28 -40 -40 5 -8 -18 -35 -25 -28 -2 2 -32 -25 -67 -60 -35 -36 -92 -88 -127 -117 -35 -28 -64 -55 -64 -60 0 -4 -7 -8 -16 -8 -8 0 -29 -13 -46 -30 -16 -16 -33 -30 -38 -30 -4 0 -44 -20 -88 -45 -45 -24 -97 -51 -117 -59 -19 -8 -35 -20 -35 -26 0 -6 -4 -9 -9 -6 -12 8 -74 -14 -87 -30 -6 -8 -13 -11 -16 -9 -7 7 -179 -43 -195 -56 -6 -6 -21 -8 -32 -4 -10 3 -22 1 -26 -5 -4 -6 -15 -8 -26 -5 -10 4 -24 3 -29 0 -6 -4 -48 -9 -93 -12 -45 -2 -86 -9 -91 -14 -13 -12 -163 -12 -171 0 -3 6 -13 9 -23 9 -40 -1 -162 11 -172 17 -5 3 -19 4 -29 0 -11 -3 -22 -1 -26 5 -4 6 -16 8 -26 5 -11 -4 -26 -2 -33 5 -8 6 -18 10 -22 8 -5 -1 -19 3 -31 10 -12 7 -35 13 -50 15 -16 2 -34 7 -41 11 -7 4 -16 5 -21 2 -5 -3 -21 4 -35 15 -15 12 -40 22 -56 23 -15 1 -36 8 -47 17 -31 27 -132 71 -144 63 -7 -4 -9 -3 -5 4 8 13 -82 65 -97 55 -6 -3 -7 -1 -3 6 4 6 0 14 -10 18 -10 3 -26 15 -36 25 -10 10 -27 18 -38 18 -11 0 -19 5 -18 12 2 6 -7 14 -20 17 -13 3 -22 11 -21 16 1 6 -13 18 -32 27 -19 9 -30 17 -26 18 5 0 -36 45 -92 101 -56 56 -101 105 -101 109 0 5 -8 15 -18 22 -10 7 -21 21 -25 31 -4 10 -11 15 -17 12 -6 -3 -7 1 -4 9 4 11 0 16 -10 16 -9 0 -16 7 -16 15 0 20 -47 95 -60 95 -5 0 -7 6 -5 13 3 7 -8 27 -25 45 -17 19 -28 38 -24 43 3 6 0 18 -8 27 -8 9 -32 61 -53 114 -36 91 -57 120 -70 98 -4 -6 -789 -10 -2128 -10 l-2122 0 -279 279 c-154 154 -284 279 -289 278 -5 -1 -12 4 -15 12 -2 8 0 11 5 8 11 -7 137 119 146 146 4 9 10 16 14 15 12 -4 53 34 47 44 -3 4 3 11 13 15 26 9 93 75 87 85 -3 5 -2 7 3 6 5 -2 19 7 33 20 l24 22 452 0 452 0 63 -65 c34 -36 69 -65 76 -65 7 0 13 -7 13 -15 0 -18 26 -20 37 -2 5 6 81 84 170 171 155 153 163 159 181 143 10 -9 22 -14 27 -10 4 5 5 3 2 -3 -6 -11 29 -51 42 -47 3 0 5 -2 4 -7 -3 -9 46 -56 55 -53 4 0 6 -3 5 -7 -3 -9 37 -46 46 -42 3 1 6 -2 6 -7 0 -12 14 -26 26 -26 5 0 9 -4 10 -10 1 -17 31 -45 42 -38 5 3 7 2 4 -4 -8 -13 60 -79 70 -69 5 4 8 11 8 14 0 16 89 97 103 94 10 -2 13 2 8 13 -3 9 -2 14 3 11 8 -5 36 20 36 33 0 3 3 5 7 4 3 -1 12 4 18 12 7 8 9 15 4 15 -4 0 12 20 36 45 24 24 47 42 51 40 7 -5 27 14 28 28 1 4 4 7 9 8 14 2 32 21 26 30 -3 5 112 9 269 9 l274 0 36 -35 c21 -20 37 -42 37 -50 0 -8 6 -15 12 -15 17 0 138 -121 138 -138 0 -8 5 -12 12 -10 12 4 88 -73 88 -90 0 -5 8 -13 17 -16 20 -8 126 91 116 108 -3 6 -2 8 2 3 12 -10 56 33 48 47 -3 6 -2 8 2 3 12 -10 96 73 88 87 -3 6 -2 8 2 3 11 -9 66 43 59 55 -3 5 -2 7 3 6 5 -2 19 7 33 20 l24 22 556 0 555 -1 37 88 c20 48 35 93 34 99 -2 6 5 16 15 22 10 7 19 18 19 26 0 7 25 52 55 101 30 48 55 92 55 99 1 14 26 48 35 46 11 -2 74 84 68 94 -3 5 -1 6 4 3 11 -7 36 18 46 46 4 9 13 17 22 17 8 0 15 7 15 15 0 9 11 20 25 25 14 5 25 16 25 25 0 8 5 15 11 15 6 0 34 19 62 43 29 24 74 58 101 77 27 19 60 46 75 60 14 13 31 25 36 25 20 1 135 66 135 76 0 5 4 8 9 4 5 -3 36 6 68 21 95 42 108 47 116 46 4 -1 22 6 40 15 18 9 36 16 41 15 4 -2 14 2 22 9 7 6 18 8 24 4 5 -3 15 -3 22 1 7 4 25 9 41 11 16 2 44 10 63 19 22 11 46 14 68 10 21 -4 37 -2 41 5 5 7 23 9 50 4 26 -3 46 -2 50 5 8 14 202 13 210 -1z"/>
<path d="M9005 6469 c-5 -7 -24 -10 -56 -6 -27 3 -51 2 -54 -3 -3 -5 -11 -7 -18 -5 -7 3 -28 -5 -47 -17 -19 -12 -39 -22 -45 -22 -20 -2 -65 -38 -58 -49 4 -6 1 -7 -6 -2 -19 11 -116 -98 -107 -122 3 -7 1 -13 -4 -13 -15 0 -39 -43 -43 -76 -2 -16 -6 -35 -10 -41 -4 -6 -4 -18 -1 -26 3 -8 1 -18 -5 -22 -6 -3 -11 -28 -11 -55 0 -27 5 -52 11 -55 6 -4 8 -14 5 -22 -3 -8 -3 -20 1 -26 4 -6 8 -24 10 -40 7 -67 136 -226 196 -240 15 -4 27 -14 27 -21 0 -16 27 -29 41 -20 5 3 26 -5 47 -18 32 -20 50 -23 132 -23 64 0 103 5 120 14 14 8 35 16 48 17 30 3 124 63 117 74 -3 5 4 10 16 12 12 2 27 12 33 23 6 11 16 23 23 28 21 13 73 106 67 120 -3 8 2 17 11 21 12 4 15 13 11 30 -3 14 -2 28 4 31 6 3 7 17 4 31 -4 14 -1 31 6 39 11 13 11 20 0 40 -7 13 -10 35 -6 49 3 14 1 28 -5 31 -6 4 -8 18 -5 31 5 17 2 26 -9 30 -9 4 -13 13 -10 24 3 10 -5 28 -20 44 -14 15 -25 34 -25 42 0 8 -7 17 -16 21 -8 3 -20 17 -25 30 -5 13 -22 29 -39 34 -16 6 -30 18 -30 26 0 9 -6 13 -15 9 -8 -3 -14 0 -12 7 1 7 -5 12 -13 13 -8 0 -31 10 -50 22 -19 12 -40 20 -47 17 -7 -2 -15 0 -18 5 -4 6 -24 7 -46 4 -24 -4 -44 -2 -53 5 -11 9 -16 9 -21 0z"/>
</g>
<g id="layer103" fill="#ff0000" stroke="none">
<path d="M5540 11814 c-1418 -122 -2669 -703 -3667 -1701 -984 -984 -1578 -2286 -1683 -3688 -15 -195 -15 -660 0 -845 65 -822 282 -1583 652 -2285 846 -1604 2375 -2721 4148 -3030 378 -66 618 -86 1025 -86 902 1 1727 191 2540 585 1400 679 2490 1921 2976 3391 430 1298 397 2687 -93 3955 -371 959 -997 1809 -1808 2455 -831 662 -1822 1081 -2885 1220 -346 45 -874 58 -1205 29z m3077 -4079 c276 -39 505 -125 726 -273 418 -279 694 -713 767 -1206 15 -101 15 -392 0 -493 -150 -1018 -1149 -1689 -2145 -1442 -231 57 -485 182 -665 327 -238 191 -441 468 -545 745 l-18 47 -2145 0 -2146 0 -286 285 -285 285 180 180 180 180 470 0 471 0 69 -70 c38 -38 74 -70 80 -70 5 0 87 78 182 172 l173 173 174 -174 c158 -158 176 -173 192 -160 9 8 87 85 172 172 l155 157 273 0 272 0 158 -161 c88 -88 167 -165 178 -171 16 -9 41 12 190 161 l171 171 550 0 c303 0 555 4 562 8 6 4 25 42 42 85 151 380 465 719 836 905 167 83 377 147 560 171 111 14 341 12 452 -4z"/>
</g>
<g id="layer104" fill="#ffffff" stroke="none">
<path d="M5675 10714 c-1332 -104 -2523 -727 -3352 -1754 -388 -481 -692 -1069 -862 -1670 -223 -789 -235 -1658 -32 -2452 266 -1043 880 -1961 1746 -2613 1106 -831 2534 -1132 3895 -820 529 121 1059 348 1520 651 435 285 864 685 1168 1087 503 666 812 1413 921 2224 35 263 44 428 38 731 -7 398 -44 680 -133 1042 -250 1006 -808 1881 -1619 2538 -701 567 -1510 904 -2445 1018 -129 16 -714 28 -845 18z m2942 -2979 c276 -39 505 -125 726 -273 418 -279 694 -713 767 -1206 15 -101 15 -392 0 -493 -150 -1018 -1149 -1689 -2145 -1442 -231 57 -485 182 -665 327 -238 191 -441 468 -545 745 l-18 47 -2145 0 -2146 0 -286 285 -285 285 180 180 180 180 470 0 471 0 69 -70 c38 -38 74 -70 80 -70 5 0 87 78 182 172 l173 173 174 -174 c158 -158 176 -173 192 -160 9 8 87 85 172 172 l155 157 273 0 272 0 158 -161 c88 -88 167 -165 178 -171 16 -9 41 12 190 161 l171 171 550 0 c303 0 555 4 562 8 6 4 25 42 42 85 151 380 465 719 836 905 167 83 377 147 560 171 111 14 341 12 452 -4z"/>
<path d="M8881 6444 c-190 -51 -321 -229 -321 -435 0 -256 195 -449 452 -449 254 1 447 193 448 446 0 211 -123 380 -319 438 -67 20 -187 20 -260 0z"/>
</g>


</svg>