<!DOCTYPE svg PUBLIC "-//W3C//DTD SVG 20010904//EN" "http://www.w3.org/TR/2001/REC-SVG-20010904/DTD/svg10.dtd">
<svg version="1.0" xmlns="http://www.w3.org/2000/svg" width="2480px" height="2480px" viewBox="0 0 12000 12000" preserveAspectRatio="xMidYMid meet">
<g id="layer101" fill="#ff0000" stroke="none">
 <path d="M5540 11814 c-1418 -122 -2669 -703 -3667 -1701 -984 -984 -1578 -2286 -1683 -3688 -15 -195 -15 -660 0 -845 65 -822 282 -1583 652 -2285 846 -1604 2375 -2721 4148 -3030 378 -66 618 -86 1025 -86 902 1 1727 191 2540 585 1400 679 2490 1921 2976 3391 430 1298 397 2687 -93 3955 -371 959 -997 1809 -1808 2455 -831 662 -1822 1081 -2885 1220 -346 45 -874 58 -1205 29z"/>
 </g>
<g id="layer102" fill="#ffffff" stroke="none">
 <path d="M5675 10714 c-1332 -104 -2523 -727 -3352 -1754 -388 -481 -692 -1069 -862 -1670 -223 -789 -235 -1658 -32 -2452 266 -1043 880 -1961 1746 -2613 1106 -831 2534 -1132 3895 -820 529 121 1059 348 1520 651 435 285 864 685 1168 1087 503 666 812 1413 921 2224 35 263 44 428 38 731 -7 398 -44 680 -133 1042 -250 1006 -808 1881 -1619 2538 -701 567 -1510 904 -2445 1018 -129 16 -714 28 -845 18z"/>
 </g>

</svg>