<svg id="svg" version="1.1" xmlns="http://www.w3.org/2000/svg" xmlns:xlink="http://www.w3.org/1999/xlink" width="400" height="265.2442448062886" viewBox="0, 0, 400,265.2442448062886"><g id="svgg"><path id="path0" d="M12.777 9.994 C 12.454 10.170,12.074 10.595,11.932 10.940 C 11.739 11.409,11.689 42.003,11.733 132.922 L 11.791 254.278 12.421 254.820 L 13.051 255.362 199.982 255.362 L 386.912 255.362 387.504 254.770 L 388.097 254.178 388.097 132.604 L 388.097 11.030 387.555 10.400 L 387.013 9.770 200.188 9.722 C 39.126 9.682,13.282 9.719,12.777 9.994 M384.054 132.622 L 384.054 251.319 200.000 251.319 L 15.946 251.319 15.946 132.622 L 15.946 13.925 200.000 13.925 L 384.054 13.925 384.054 132.622 " stroke="none" fill="#fcfcfc" fill-rule="evenodd"></path><path id="path1" d="M0.000 132.622 L 0.000 265.244 200.000 265.244 L 400.000 265.244 400.000 132.622 L 400.000 0.000 200.000 0.000 L 0.000 0.000 0.000 132.622 M387.555 10.400 L 388.097 11.030 388.097 132.604 L 388.097 254.178 387.504 254.770 L 386.912 255.362 199.982 255.362 L 13.051 255.362 12.421 254.820 L 11.791 254.278 11.733 132.922 C 11.689 42.003,11.739 11.409,11.932 10.940 C 12.074 10.595,12.454 10.170,12.777 9.994 C 13.282 9.719,39.126 9.682,200.188 9.722 L 387.013 9.770 387.555 10.400 M15.946 132.622 L 15.946 251.319 200.000 251.319 L 384.054 251.319 384.054 132.622 L 384.054 13.925 200.000 13.925 L 15.946 13.925 15.946 132.622 " stroke="none" fill="#fc0404" fill-rule="evenodd"></path><path id="path2" d="" stroke="none" fill="#fcc0100" fill-rule="evenodd"></path><path id="path3" d="" stroke="none" fill="#fc4084" fill-rule="evenodd"></path><path id="path4" d="" stroke="none" fill="#fc4404" fill-rule="evenodd"></path></g></svg>