<?xml version="1.0" standalone="no"?>
<!DOCTYPE svg PUBLIC "-//W3C//DTD SVG 20010904//EN"
 "http://www.w3.org/TR/2001/REC-SVG-20010904/DTD/svg10.dtd">
<svg version="1.0" xmlns="http://www.w3.org/2000/svg"
 width="100.000000pt" height="100.000000pt" viewBox="0 0 100.000000 100.000000"
 preserveAspectRatio="xMidYMid meet">

<g transform="translate(0.000000,100.000000) scale(0.100000,-0.100000)"
fill="#000000" stroke="none">
<path d="M133 812 c-29 -23 -63 -82 -63 -108 0 -12 13 -46 28 -76 l29 -54 -43
-47 c-54 -60 -105 -187 -74 -187 6 0 10 -18 10 -40 0 -29 4 -40 15 -40 8 0 15
-8 15 -18 0 -29 21 -42 67 -42 61 0 105 -21 176 -85 68 -61 165 -115 206 -115
43 0 122 44 201 110 86 72 122 90 183 90 46 0 67 13 67 42 0 10 7 18 15 18 11
0 15 11 15 40 0 22 5 40 10 40 29 0 -18 124 -70 183 -22 25 -40 48 -40 53 0 4
12 31 26 60 33 68 27 110 -22 159 -30 31 -41 35 -85 35 -31 0 -67 -8 -97 -23
-43 -21 -60 -22 -207 -21 -143 1 -164 3 -202 22 -52 27 -129 29 -160 4z m136
-16 c46 -16 49 -31 12 -50 -28 -15 -31 -15 -45 5 -8 12 -28 30 -43 40 l-28 19
35 -1 c19 0 50 -6 69 -13z m538 -5 c-15 -10 -35 -28 -43 -39 -14 -20 -15 -20
-44 -4 -16 9 -30 20 -30 23 0 12 74 38 110 38 l35 1 -28 -19z m-240 -73 c15
-44 18 -86 19 -243 0 -188 0 -191 32 -275 17 -47 32 -91 32 -97 0 -17 -67 -58
-113 -71 -25 -7 -49 -7 -73 0 -41 11 -101 47 -108 64 -2 6 10 51 27 100 30 86
31 94 32 279 1 151 4 201 18 243 l18 52 49 0 48 0 19 -52z m-341 -131 c1 -49
11 -124 26 -187 14 -58 28 -123 32 -145 l6 -40 -17 25 c-31 44 -65 70 -105 81
-53 14 -80 5 -72 -25 4 -16 0 -25 -10 -29 -10 -4 -16 -1 -16 9 0 8 -7 17 -16
21 -12 5 -15 14 -10 44 4 25 2 39 -7 42 -19 6 24 87 81 150 27 30 59 73 72 95
13 23 26 42 29 42 3 0 7 -37 7 -83z m660 -59 c52 -56 96 -139 77 -145 -9 -3
-11 -17 -7 -42 5 -30 2 -39 -10 -44 -9 -4 -16 -13 -16 -21 0 -10 -6 -13 -16
-9 -10 4 -14 13 -10 29 8 30 -19 39 -73 24 -27 -7 -53 -25 -80 -57 -23 -25
-41 -42 -41 -37 0 5 14 70 31 144 17 74 33 173 36 218 l6 84 30 -49 c16 -26
49 -69 73 -95z m-526 -124 c0 -29 -24 -41 -45 -24 -19 16 -19 25 0 44 21 20
45 9 45 -20z m324 13 c13 -21 -15 -53 -38 -44 -19 8 -21 38 -4 55 15 15 28 11
42 -11z"/>
<path d="M423 173 c-38 -26 -28 -74 18 -98 44 -23 93 -19 128 11 41 34 41 68
1 89 -37 19 -118 19 -147 -2z"/>
</g>
</svg>
