<?xml version="1.0" encoding="UTF-8" standalone="no"?>
<svg
   xmlns:dc="http://purl.org/dc/elements/1.1/"
   xmlns:cc="http://creativecommons.org/ns#"
   xmlns:rdf="http://www.w3.org/1999/02/22-rdf-syntax-ns#"
   xmlns:svg="http://www.w3.org/2000/svg"
   xmlns="http://www.w3.org/2000/svg"
   id="svg8"
   version="1.1"
   viewBox="0 0 210 297"
   height="297mm"
   width="210mm">
  <defs
     id="defs2" />
  <metadata
     id="metadata5">
    <rdf:RDF>
      <cc:Work
         rdf:about="">
        <dc:format>image/svg+xml</dc:format>
        <dc:type
           rdf:resource="http://purl.org/dc/dcmitype/StillImage" />
        <dc:title></dc:title>
      </cc:Work>
    </rdf:RDF>
  </metadata>
  <g
     id="layer1">
    <g
       style="fill:#000000;stroke:none"
       transform="matrix(0.01068747,0,0,-0.01175926,23.934841,91.711114)"
       id="g3733">
      <path
         d="m 487,2486 c -122,-44 -237,-184 -268,-324 -19,-92 20,-208 125,-367 l 46,-70 -62,-55 C 179,1538 45,1301 11,1113 c -13,-70 -7,-93 23,-93 20,0 21,-4 21,-105 0,-94 2,-107 22,-126 18,-19 24,-20 38,-9 19,16 19,17 33,-54 6,-32 23,-73 36,-91 l 25,-32 153,-5 C 589,590 628,572 840,379 909,316 986,249 1010,229 1176,97 1383,0 1500,0 c 102,0 296,85 440,193 47,35 134,108 194,163 235,215 298,244 528,244 53,0 108,4 122,10 34,13 54,47 68,116 7,32 13,60 14,62 1,2 11,-1 22,-7 45,-24 66,34 60,163 -3,73 -2,76 19,76 30,0 37,29 23,98 -41,197 -167,418 -311,544 -32,29 -59,57 -59,63 0,6 25,51 57,100 100,158 126,253 98,358 -22,84 -50,133 -114,200 -79,83 -134,109 -241,115 -131,7 -231,-24 -401,-123 l -75,-45 -90,18 c -128,24 -580,24 -708,0 l -89,-18 -57,35 c -84,51 -197,102 -265,120 -73,18 -197,19 -248,1 z m 205,-60 c 71,-16 220,-76 254,-104 21,-17 20,-18 -92,-73 l -114,-56 -19,41 c -30,69 -130,148 -216,171 -30,8 -29,8 20,21 67,16 88,16 167,0 z m 1813,-6 c 18,-7 17,-8 -10,-15 -85,-22 -185,-102 -217,-173 l -19,-43 -33,21 c -18,11 -71,37 -116,59 l -83,39 74,37 c 141,71 185,84 289,84 52,0 104,-4 115,-9 z m -851,-135 c 16,-22 67,-195 92,-315 24,-116 30,-473 11,-635 -38,-311 -34,-364 49,-588 98,-263 125,-349 131,-412 l 6,-61 -39,-31 C 1837,191 1732,133 1652,103 1494,45 1354,73 1159,203 c -84,55 -94,66 -97,95 -5,48 28,167 98,352 118,313 126,367 90,659 -28,231 -25,517 9,669 38,179 82,313 105,323 12,5 78,8 148,6 114,-2 129,-4 142,-22 z M 669,1919 c -19,-193 -3,-315 91,-714 72,-303 100,-449 100,-525 l -1,-45 -36,68 c -95,178 -249,277 -433,277 -67,0 -83,-3 -100,-20 l -20,-20 20,-40 c 11,-21 20,-45 20,-52 0,-8 -25,-30 -55,-51 l -54,-36 -3,72 c -3,65 -5,72 -24,75 -12,2 -28,-4 -37,-12 -9,-9 -18,-16 -21,-16 -13,0 -5,81 16,163 20,76 21,89 8,97 -8,5 -25,7 -37,3 -13,-3 -23,-3 -23,-1 0,19 56,161 85,216 47,89 148,216 222,276 64,53 77,71 148,196 48,86 136,213 142,206 2,-2 -1,-55 -8,-117 z m 1725,27 c 24,-34 65,-101 92,-150 39,-70 66,-104 132,-164 129,-118 230,-267 283,-419 24,-71 24,-76 -4,-70 -47,12 -52,-3 -29,-94 11,-46 23,-106 26,-132 l 6,-48 -26,20 c -54,43 -74,23 -74,-76 v -51 l -55,36 c -30,20 -55,42 -55,49 0,7 10,31 22,54 l 22,42 -23,18 c -46,38 -209,21 -318,-32 -69,-34 -171,-140 -216,-224 l -36,-70 -1,42 c 0,68 36,256 99,520 33,136 68,291 77,343 19,103 25,348 11,439 -7,50 -7,53 8,41 9,-8 36,-41 59,-74 z M 1050,1295 c 57,-29 61,-132 7,-170 -56,-39 -147,7 -147,75 0,86 67,133 140,95 z m 987,-9 c 24,-21 28,-32 28,-76 0,-44 -4,-55 -28,-76 -74,-64 -179,15 -147,111 21,63 97,84 147,41 z"
         id="path3729" />
      <path
         d="m 1352,565 c -19,-8 -47,-26 -64,-40 -16,-14 -36,-25 -44,-25 -29,0 -54,-38 -54,-82 1,-60 29,-117 85,-166 62,-54 137,-82 224,-82 83,0 141,19 205,68 67,50 98,110 94,182 -3,52 -5,56 -39,75 -20,11 -58,34 -85,50 -46,28 -55,30 -169,33 -89,1 -129,-2 -153,-13 z"
         id="path3731" />
    </g>
  </g>
</svg>
