<?xml version="1.0" encoding="UTF-8"?>
<svg width="31.981mm" height="29.387mm" version="1.1" viewBox="0 0 31.981 29.387" xmlns="http://www.w3.org/2000/svg" xmlns:cc="http://creativecommons.org/ns#" xmlns:dc="http://purl.org/dc/elements/1.1/" xmlns:rdf="http://www.w3.org/1999/02/22-rdf-syntax-ns#">
 <g transform="translate(-23.983 -62.325)">
  <g transform="matrix(.010687 0 0 -.011759 23.935 91.711)">
   <path d="m487 2486c-122-44-237-184-268-324-19-92 20-208 125-367l46-70-62-55c-149-132-283-369-317-557-13-70-7-93 23-93 20 0 21-4 21-105 0-94 2-107 22-126 18-19 24-20 38-9 19 16 19 17 33-54 6-32 23-73 36-91l25-32 153-5c227-8 266-26 478-219 69-63 146-130 170-150 166-132 373-229 490-229 102 0 296 85 440 193 47 35 134 108 194 163 235 215 298 244 528 244 53 0 108 4 122 10 34 13 54 47 68 116 7 32 13 60 14 62s11-1 22-7c45-24 66 34 60 163-3 73-2 76 19 76 30 0 37 29 23 98-41 197-167 418-311 544-32 29-59 57-59 63s25 51 57 100c100 158 126 253 98 358-22 84-50 133-114 200-79 83-134 109-241 115-131 7-231-24-401-123l-75-45-90 18c-128 24-580 24-708 0l-89-18-57 35c-84 51-197 102-265 120-73 18-197 19-248 1zm205-60c71-16 220-76 254-104 21-17 20-18-92-73l-114-56-19 41c-30 69-130 148-216 171-30 8-29 8 20 21 67 16 88 16 167 0zm1813-6c18-7 17-8-10-15-85-22-185-102-217-173l-19-43-33 21c-18 11-71 37-116 59l-83 39 74 37c141 71 185 84 289 84 52 0 104-4 115-9zm-851-135c16-22 67-195 92-315 24-116 30-473 11-635-38-311-34-364 49-588 98-263 125-349 131-412l6-61-39-31c-67-52-172-110-252-140-158-58-298-30-493 100-84 55-94 66-97 95-5 48 28 167 98 352 118 313 126 367 90 659-28 231-25 517 9 669 38 179 82 313 105 323 12 5 78 8 148 6 114-2 129-4 142-22zm-985-366c-19-193-3-315 91-714 72-303 100-449 100-525l-1-45-36 68c-95 178-249 277-433 277-67 0-83-3-100-20l-20-20 20-40c11-21 20-45 20-52 0-8-25-30-55-51l-54-36-3 72c-3 65-5 72-24 75-12 2-28-4-37-12-9-9-18-16-21-16-13 0-5 81 16 163 20 76 21 89 8 97-8 5-25 7-37 3-13-3-23-3-23-1 0 19 56 161 85 216 47 89 148 216 222 276 64 53 77 71 148 196 48 86 136 213 142 206 2-2-1-55-8-117zm1725 27c24-34 65-101 92-150 39-70 66-104 132-164 129-118 230-267 283-419 24-71 24-76-4-70-47 12-52-3-29-94 11-46 23-106 26-132l6-48-26 20c-54 43-74 23-74-76v-51l-55 36c-30 20-55 42-55 49s10 31 22 54l22 42-23 18c-46 38-209 21-318-32-69-34-171-140-216-224l-36-70-1 42c0 68 36 256 99 520 33 136 68 291 77 343 19 103 25 348 11 439-7 50-7 53 8 41 9-8 36-41 59-74zm-1344-651c57-29 61-132 7-170-56-39-147 7-147 75 0 86 67 133 140 95zm987-9c24-21 28-32 28-76s-4-55-28-76c-74-64-179 15-147 111 21 63 97 84 147 41z"/>
   <path d="m1352 565c-19-8-47-26-64-40-16-14-36-25-44-25-29 0-54-38-54-82 1-60 29-117 85-166 62-54 137-82 224-82 83 0 141 19 205 68 67 50 98 110 94 182-3 52-5 56-39 75-20 11-58 34-85 50-46 28-55 30-169 33-89 1-129-2-153-13z"/>
  </g>
 </g>
</svg>
