<?xml version="1.0" standalone="no"?>
<!DOCTYPE svg PUBLIC "-//W3C//DTD SVG 20010904//EN"
 "http://www.w3.org/TR/2001/REC-SVG-20010904/DTD/svg10.dtd">
<svg version="1.0" xmlns="http://www.w3.org/2000/svg"
 width="170.000000pt" height="200.000000pt" viewBox="0 0 600.000000 400.000000"
 preserveAspectRatio="xMidYMid meet">

<g transform="translate(0.000000,336.000000) scale(0.100000,-0.100000)"
fill="#000000" stroke="none">
<path d="M681 3325 c-146 -41 -258 -141 -336 -297 -56 -116 -71 -187 -55 -277
17 -97 61 -194 151 -332 l81 -123 -44 -35 c-230 -185 -420 -508 -468 -799 -14
-85 -5 -106 42 -100 28 4 28 4 21 -31 -16 -72 -9 -213 12 -256 22 -44 53 -56
75 -30 21 25 30 17 30 -28 0 -68 28 -147 65 -184 l33 -33 169 0 c304 0 402
-43 653 -286 307 -295 560 -454 805 -504 236 -48 580 127 957 488 270 258 367
302 666 302 123 0 170 4 191 15 37 18 71 92 78 164 7 82 10 87 32 67 60 -54
106 41 98 199 -3 50 -8 98 -12 108 -6 15 -4 17 19 11 43 -10 59 11 52 71 -16
134 -88 333 -173 476 -63 106 -185 254 -265 319 -35 29 -67 56 -71 60 -4 4 21
51 57 104 112 164 162 279 172 395 7 81 -25 191 -83 290 -48 80 -152 179 -225
213 -193 92 -443 46 -728 -132 l-85 -53 -65 12 c-211 37 -291 44 -530 44 -239
0 -322 -7 -530 -44 l-65 -12 -70 45 c-99 64 -201 114 -308 150 -113 37 -259
47 -346 23z m295 -101 c88 -25 246 -97 294 -134 l25 -19 -33 -12 c-47 -16
-201 -93 -237 -118 -39 -27 -41 -26 -48 7 -21 100 -186 238 -309 259 l-43 7
55 17 c83 27 190 24 296 -7z m2364 4 l35 -15 -44 -7 c-107 -17 -262 -139 -297
-233 -10 -27 -19 -50 -20 -52 -2 -2 -25 10 -51 27 -44 28 -188 99 -238 116
l-20 7 20 16 c43 33 244 124 315 143 87 23 242 22 300 -2z m-1186 -154 c55 -8
58 -12 111 -194 75 -258 100 -440 99 -730 0 -181 -5 -253 -23 -370 -13 -80
-25 -211 -28 -291 -8 -213 7 -276 147 -634 85 -217 117 -324 126 -426 l7 -66
-59 -44 c-152 -112 -333 -199 -463 -221 -155 -26 -351 44 -588 211 -83 58 -81
53 -58 182 17 97 47 187 139 421 144 364 154 462 97 873 -55 390 -28 749 83
1116 52 173 49 167 93 172 67 7 269 7 317 1z m-1245 -381 c-22 -99 -31 -295
-20 -441 16 -190 35 -289 132 -675 87 -346 114 -488 124 -642 l7 -100 -46 90
c-80 159 -174 256 -311 321 -96 46 -174 64 -272 64 -142 0 -186 -34 -139 -107
13 -21 27 -52 31 -70 6 -29 4 -32 -26 -38 -17 -4 -51 -25 -75 -47 l-44 -41 0
81 c0 44 -4 92 -10 106 -14 37 -51 34 -84 -5 -22 -25 -27 -28 -32 -14 -11 29
5 131 35 226 22 68 27 97 20 111 -11 20 -40 23 -71 7 -11 -6 -21 -9 -23 -7 -7
7 64 206 94 266 79 157 224 334 354 431 49 38 65 58 109 144 58 112 151 258
210 330 22 26 41 47 43 47 2 0 -1 -17 -6 -37z m2308 -131 c30 -45 81 -132 112
-193 54 -102 63 -114 139 -174 180 -145 329 -361 402 -586 31 -94 32 -111 6
-90 -8 7 -27 11 -43 9 -39 -4 -40 -35 -7 -134 15 -47 28 -112 31 -159 l6 -80
-35 33 c-37 35 -72 42 -83 15 -4 -10 -10 -58 -12 -106 l-6 -88 -36 35 c-20 19
-53 42 -74 51 -41 17 -42 28 -11 85 7 14 19 35 25 48 28 52 -24 82 -142 82
-270 0 -495 -154 -611 -419 l-29 -66 6 98 c10 153 39 304 124 646 98 389 118
493 133 682 11 140 4 326 -18 444 l-5 30 36 -40 c20 -22 62 -77 92 -123z
m-1820 -832 c45 -27 65 -62 65 -113 0 -85 -48 -137 -125 -137 -52 0 -93 27
-113 76 -19 45 -18 78 5 123 34 65 108 88 168 51z m1300 0 c46 -28 66 -72 60
-134 -4 -41 -10 -55 -41 -83 -29 -27 -44 -33 -81 -33 -128 0 -173 183 -62 250
18 11 46 20 62 20 17 0 44 -9 62 -20z"/>
<path d="M1843 766 c-55 -14 -92 -34 -135 -73 -14 -14 -41 -28 -60 -32 -69
-14 -86 -117 -36 -220 33 -69 107 -137 193 -177 163 -78 359 -49 494 72 71 64
105 134 106 215 0 74 -19 109 -61 109 -12 0 -41 16 -65 36 -55 45 -82 59 -147
73 -69 14 -223 13 -289 -3z"/>
</g>
</svg>
