<?xml version="1.0" standalone="no"?>
<!DOCTYPE svg PUBLIC "-//W3C//DTD SVG 20010904//EN"
 "http://www.w3.org/TR/2001/REC-SVG-20010904/DTD/svg10.dtd">
<svg version="1.0" xmlns="http://www.w3.org/2000/svg"
 width="7740.000000pt" height="7740.000000pt" viewBox="0 0 140.000000 140.000000"
 preserveAspectRatio="xMidYMid meet">

<g transform="translate(0.000000,7740.000000) scale(0.100000,-0.100000)"
fill="#000000" stroke="none">
<path d="M247 7152 l-248 -248 3 -67 3 -67 275 275 c216 216 272 277 262 287
-7 7 -12 25 -12 40 0 20 -5 28 -18 28 -9 0 -129 -112 -265 -248z"/>
<path d="M487 6912 l-488 -488 3 -72 3 -72 519 519 c499 499 519 521 503 539
-9 10 -17 28 -17 40 0 14 -6 22 -18 22 -9 0 -232 -215 -505 -488z"/>
<path d="M732 6667 l-733 -733 3 -72 3 -72 764 764 c734 734 764 766 748 784
-9 10 -17 28 -17 40 0 14 -6 22 -18 22 -9 0 -337 -320 -750 -733z"/>
<path d="M977 6422 l-978 -978 3 -72 3 -72 1009 1009 c970 970 1009 1011 993
1029 -9 10 -17 28 -17 40 0 14 -6 22 -18 22 -9 0 -442 -425 -995 -978z"/>
<path d="M1222 6177 l-1222 -1222 0 -68 c0 -37 3 -67 8 -67 4 0 569 562 1256
1250 1196 1196 1249 1250 1233 1268 -9 10 -17 28 -17 40 0 14 -6 22 -18 22 -9
0 -547 -530 -1240 -1223z"/>
<path d="M1467 5932 l-1467 -1467 0 -70 0 -70 1500 1500 c1350 1350 1498 1501
1485 1515 -8 9 -15 26 -15 38 0 14 -6 22 -18 22 -9 0 -652 -635 -1485 -1468z"/>
<path d="M1712 5687 l-1713 -1713 3 -67 3 -67 1740 1740 c1372 1372 1737 1742
1727 1752 -6 6 -12 25 -12 40 0 20 -5 28 -18 28 -9 0 -757 -740 -1730 -1713z"/>
<path d="M1952 5447 l-1953 -1953 3 -72 3 -72 1984 1984 c1907 1907 1984 1986
1968 2004 -9 10 -17 28 -17 40 0 14 -6 22 -18 22 -9 0 -860 -843 -1970 -1953z"/>
<path d="M2197 5202 l-2198 -2198 3 -72 3 -72 2229 2229 c2142 2142 2229 2231
2213 2249 -9 10 -17 28 -17 40 0 14 -6 22 -18 22 -9 0 -965 -948 -2215 -2198z"/>
<path d="M2442 4957 l-2443 -2443 3 -72 3 -72 2474 2474 c2377 2377 2474 2476
2458 2494 -9 10 -17 28 -17 40 0 14 -6 22 -18 22 -9 0 -1070 -1053 -2460
-2443z"/>
<path d="M2687 4712 l-2688 -2688 3 -68 3 -68 2717 2718 c2430 2432 2715 2720
2702 2735 -8 8 -14 25 -14 37 0 14 -6 22 -18 22 -9 0 -1175 -1158 -2705 -2688z"/>
<path d="M2932 4467 l-2932 -2932 0 -70 0 -70 2965 2965 c2668 2668 2963 2966
2950 2980 -8 9 -15 26 -15 38 0 14 -6 22 -18 22 -9 0 -1280 -1263 -2950 -2933z"/>
<path d="M3175 4223 l-3170 -3173 -3 -72 -3 -73 3207 3206 c3198 3198 3207
3207 3190 3230 -9 13 -16 31 -16 41 0 11 -7 17 -17 16 -10 -1 -1444 -1429
-3188 -3175z"/>
<path d="M3417 3982 l-3418 -3418 3 -72 3 -72 3449 3449 c3314 3314 3449 3451
3433 3469 -9 10 -17 28 -17 40 0 14 -6 22 -18 22 -9 0 -1488 -1471 -3435
-3418z"/>
<path d="M3662 3737 c-3574 -3574 -3662 -3663 -3662 -3700 0 -36 1 -37 38 -37
36 0 125 88 3700 3663 2014 2014 3662 3668 3662 3675 0 6 -11 12 -25 12 -20 0
-25 5 -25 25 0 14 -6 25 -13 25 -6 0 -1660 -1648 -3675 -3663z"/>
<path d="M3865 3450 l-3450 -3450 75 0 75 0 3418 3418 c1945 1945 3417 3425
3417 3435 0 11 -8 17 -24 17 -13 0 -29 7 -36 15 -7 8 -15 15 -19 15 -3 0
-1559 -1552 -3456 -3450z"/>
<path d="M4110 3205 l-3205 -3205 70 0 70 0 3175 3175 c1746 1746 3176 3184
3178 3195 3 16 -2 20 -27 20 -16 0 -33 5 -36 10 -3 6 -9 10 -13 10 -4 0 -1449
-1442 -3212 -3205z"/>
<path d="M4360 2965 l-2965 -2965 70 0 70 0 2933 2933 c1668 1668 2932 2940
2932 2950 0 11 -8 17 -22 17 -12 0 -29 7 -38 15 -14 13 -312 -282 -2980 -2950z"/>
<path d="M4605 2724 l-2714 -2719 66 -3 67 -3 2688 2688 c1530 1530 2688 2696
2688 2705 0 12 -8 18 -22 18 -12 0 -30 7 -40 16 -17 16 -158 -124 -2733 -2702z"/>
<path d="M4840 2475 l-2475 -2475 75 0 75 0 2443 2443 c1388 1388 2442 2450
2442 2460 0 11 -8 17 -24 17 -13 0 -29 7 -36 15 -7 8 -15 15 -19 15 -3 0
-1120 -1114 -2481 -2475z"/>
<path d="M5085 2230 l-2230 -2230 75 0 75 0 2198 2198 c1248 1248 2197 2205
2197 2215 0 11 -8 17 -24 17 -13 0 -29 7 -36 15 -7 8 -15 15 -19 15 -3 0
-1010 -1003 -2236 -2230z"/>
<path d="M5330 1985 l-1985 -1985 75 0 75 0 1953 1953 c1108 1108 1952 1960
1952 1970 0 11 -8 17 -24 17 -13 0 -29 7 -36 15 -7 8 -15 15 -19 15 -3 0 -899
-893 -1991 -1985z"/>
<path d="M5575 1740 l-1740 -1740 70 0 70 0 1713 1713 c971 971 1712 1720
1712 1730 0 12 -8 17 -29 17 -17 0 -33 5 -36 10 -3 6 -9 10 -13 10 -4 0 -790
-783 -1747 -1740z"/>
<path d="M5825 1500 l-1500 -1500 70 0 70 0 1468 1468 c831 831 1467 1475
1467 1485 0 11 -8 17 -22 17 -12 0 -29 7 -38 15 -14 13 -165 -135 -1515 -1485z"/>
<path d="M6067 1262 c-686 -686 -1247 -1250 -1247 -1255 0 -4 30 -7 68 -7 l67
0 1223 1223 c691 691 1222 1230 1222 1240 0 11 -8 17 -24 17 -13 0 -29 7 -36
15 -7 8 -15 15 -19 15 -3 0 -567 -561 -1254 -1248z"/>
<path d="M6305 1010 l-1010 -1010 75 0 75 0 978 978 c551 551 977 985 977 995
0 11 -8 17 -24 17 -13 0 -29 7 -36 15 -7 8 -15 15 -19 15 -3 0 -461 -454
-1016 -1010z"/>
<path d="M6550 765 l-765 -765 75 0 75 0 733 733 c411 411 732 740 732 750 0
11 -8 17 -24 17 -13 0 -29 7 -36 15 -7 8 -15 15 -19 15 -3 0 -350 -344 -771
-765z"/>
<path d="M6795 520 l-520 -520 75 0 75 0 488 488 c271 271 487 495 487 505 0
11 -8 17 -24 17 -13 0 -29 7 -36 15 -7 8 -15 15 -19 15 -3 0 -240 -234 -526
-520z"/>
<path d="M7040 275 l-275 -275 70 0 70 0 248 248 c136 136 247 255 247 265 0
12 -8 17 -29 17 -17 0 -33 5 -36 10 -3 6 -9 10 -13 10 -4 0 -131 -124 -282
-275z"/>
</g>
</svg>
