<svg version="1.1" id="Layer_1" xmlns="http://www.w3.org/2000/svg" xmlns:xlink="http://www.w3.org/1999/xlink" x="0px" y="0px"
	 width="100%" viewBox="0 0 170 200" enable-background="new 0 0 170 200" xml:space="preserve">
<path fill="#24458E" opacity="1.000000" stroke="none" 
	d="
M171.000000,13.000000 
	C171.000000,71.687561 171.000000,130.375122 170.650848,189.413773 
	C166.907242,193.059143 163.499741,196.340302 160.145355,199.674866 
	C159.900131,199.918655 160.039459,200.549240 160.000000,201.000000 
	C110.979103,201.000000 61.958210,201.000000 12.578114,200.647461 
	C9.154959,197.350555 6.103596,194.392838 3.016162,191.473297 
	C2.416203,190.905960 1.675687,190.487259 1.000001,190.000000 
	C1.000000,131.312439 1.000000,72.624878 1.353050,13.404378 
	C4.704501,8.238708 7.386036,3.249732 13.704968,2.381754 
	C13.863585,2.359966 13.904298,1.479821 14.000000,1.000000 
	C61.687561,1.000000 109.375122,1.000000 157.566559,1.361836 
	C161.459320,4.703528 164.845078,7.686978 168.239227,10.660843 
	C169.146317,11.455599 170.079041,12.221079 171.000000,13.000000 
M141.488739,4.622599 
	C103.160027,4.622490 64.831299,4.614539 26.502604,4.639271 
	C23.843290,4.640987 21.163139,4.718793 18.528990,5.050005 
	C11.648515,5.915139 5.919836,11.669103 5.041202,18.542215 
	C4.746502,20.847502 4.636654,23.190996 4.635647,25.517111 
	C4.613787,76.011086 4.615444,126.505058 4.633783,176.999039 
	C4.634506,178.991119 4.745341,180.994644 4.974447,182.973190 
	C5.909309,191.046677 12.380474,197.013153 20.508081,197.022064 
	C64.169487,197.069870 107.831009,197.073730 151.492401,197.018784 
	C160.236084,197.007782 167.015335,190.224106 167.023315,181.476837 
	C167.072250,127.816605 167.070099,74.156296 167.025757,20.496058 
	C167.019043,12.365430 160.985565,5.781663 152.958572,5.001811 
	C149.487106,4.664544 145.975876,4.736494 141.488739,4.622599 
z"/>
<path fill="#000000" opacity="1.000000" stroke="none" 
	d="
M171.000000,12.520824 
	C170.079041,12.221079 169.146317,11.455599 168.239227,10.660843 
	C164.845078,7.686978 161.459320,4.703528 158.035217,1.361836 
	C162.252258,1.000000 166.504532,1.000000 171.000000,1.000000 
	C171.000000,4.678430 171.000000,8.360040 171.000000,12.520824 
z"/>
<path fill="#000000" opacity="1.000000" stroke="none" 
	d="
M13.523338,1.000000 
	C13.904298,1.479821 13.863585,2.359966 13.704968,2.381754 
	C7.386036,3.249732 4.704501,8.238708 1.353050,12.935720 
	C1.000000,9.074012 1.000000,5.148024 1.000000,1.000000 
	C5.013897,1.000000 9.030287,1.000000 13.523338,1.000000 
z"/>
<path fill="#000000" opacity="1.000000" stroke="none" 
	d="
M160.482956,201.000000 
	C160.039459,200.549240 159.900131,199.918655 160.145355,199.674866 
	C163.499741,196.340302 166.907242,193.059143 170.650848,189.882431 
	C171.000000,193.587204 171.000000,197.174423 171.000000,201.000000 
	C167.657455,201.000000 164.311676,201.000000 160.482956,201.000000 
z"/>
<path fill="#000000" opacity="1.000000" stroke="none" 
	d="
M1.000001,190.482956 
	C1.675687,190.487259 2.416203,190.905960 3.016162,191.473297 
	C6.103596,194.392838 9.154959,197.350555 12.109456,200.647461 
	C8.412791,201.000000 4.825583,201.000000 1.000000,201.000000 
	C1.000000,197.657455 1.000000,194.311676 1.000001,190.482956 
z"/>
<path fill="#FBFCFD" opacity="1.000000" stroke="none" 
	d="
M141.985718,4.622579 
	C145.975876,4.736494 149.487106,4.664544 152.958572,5.001811 
	C160.985565,5.781663 167.019043,12.365430 167.025757,20.496058 
	C167.070099,74.156296 167.072250,127.816605 167.023315,181.476837 
	C167.015335,190.224106 160.236084,197.007782 151.492401,197.018784 
	C107.831009,197.073730 64.169487,197.069870 20.508081,197.022064 
	C12.380474,197.013153 5.909309,191.046677 4.974447,182.973190 
	C4.745341,180.994644 4.634506,178.991119 4.633783,176.999039 
	C4.615444,126.505058 4.613787,76.011086 4.635647,25.517111 
	C4.636654,23.190996 4.746502,20.847502 5.041202,18.542215 
	C5.919836,11.669103 11.648515,5.915139 18.528990,5.050005 
	C21.163139,4.718793 23.843290,4.640987 26.502604,4.639271 
	C64.831299,4.614539 103.160027,4.622490 141.985718,4.622579 
M71.341492,17.805363 
	C71.171295,18.183788 71.001099,18.562212 70.542175,19.711950 
	C70.542175,32.413670 70.542175,45.115387 70.542175,58.809036 
	C57.725857,51.660511 46.031437,45.137741 33.949604,38.398888 
	C29.140739,46.502487 24.526102,54.278793 19.798000,62.246300 
	C32.062229,69.258408 43.830181,75.986771 56.238071,83.081017 
	C43.589619,90.199097 31.784496,96.842583 19.754467,103.612633 
	C24.498419,111.810509 28.977985,119.551506 33.697193,127.706619 
	C45.893089,120.873466 57.786598,114.209740 70.551346,107.057869 
	C70.551346,119.439095 70.551346,130.544403 70.551346,141.646454 
	C80.232552,141.646454 89.454277,141.646454 99.288994,141.646454 
	C99.288994,130.131790 99.288994,118.963219 99.288994,107.145905 
	C111.850403,114.238609 123.653587,120.903191 135.706573,127.708824 
	C140.603989,119.384956 145.202637,111.568901 149.891129,103.600128 
	C137.636719,96.613419 125.838020,89.886536 113.400978,82.795708 
	C125.968964,75.712486 137.790405,69.050018 149.910904,62.218990 
	C145.064941,54.215160 140.441132,46.578270 135.660660,38.682636 
	C123.481598,45.389343 111.625671,51.918110 98.965248,58.889889 
	C98.965248,46.225060 99.004532,34.619633 98.921524,23.015079 
	C98.909523,21.336779 98.310562,19.662676 97.509560,17.699152 
	C97.331650,17.748764 97.153748,17.798374 96.073624,17.585016 
	C88.055992,17.674650 80.038368,17.764286 71.341492,17.805363 
M67.967003,158.678040 
	C61.340164,178.222687 71.985344,194.467575 90.806175,193.531372 
	C104.226212,192.863815 112.727600,182.971359 112.568092,168.208588 
	C112.437729,156.143951 105.851440,147.117249 95.506470,144.825134 
	C83.719719,142.213562 73.733650,147.026062 67.967003,158.678040 
M30.042196,165.193451 
	C33.021191,167.494583 35.876751,169.984680 39.018486,172.036636 
	C41.503719,173.659821 44.584507,174.422180 46.926712,176.193649 
	C48.269672,177.209366 49.534534,179.644592 49.245228,181.131516 
	C48.956699,182.614426 46.823460,184.533798 45.250477,184.801483 
	C42.223961,185.316513 38.953697,185.165817 35.914421,184.597061 
	C33.477081,184.140945 31.231726,182.658936 28.224337,181.334000 
	C29.461405,185.558624 25.856514,191.164154 31.829874,192.042099 
	C38.413895,193.009811 45.331341,192.771591 51.965725,191.948212 
	C56.157902,191.427933 59.431522,188.044235 60.143692,183.482132 
	C61.587017,174.236252 59.335388,170.286652 50.673527,166.039902 
	C48.584473,165.015656 46.351521,164.266083 44.324432,163.138962 
	C41.727543,161.695007 38.113361,159.937515 39.876011,156.564240 
	C40.918365,154.569443 44.564651,153.157074 47.161449,152.940750 
	C50.777542,152.639496 54.507362,153.703384 58.154175,154.178528 
	C59.763191,145.536240 56.598503,144.658386 50.279839,144.374161 
	C47.306271,144.240387 44.266911,144.351379 41.331017,144.816437 
	C30.648512,146.508545 26.243315,154.089279 30.042196,165.193451 
M150.644958,176.233551 
	C148.348892,173.333176 146.412354,170.008774 143.645996,167.663040 
	C141.322800,165.693100 137.960159,164.996811 135.191132,163.491257 
	C132.470718,162.012146 128.911560,160.666901 129.906677,156.641235 
	C130.861969,152.776611 134.435883,152.606445 137.645386,152.799194 
	C140.929306,152.996399 144.187515,153.621170 147.455215,154.073532 
	C149.130173,146.296799 148.058197,144.718658 140.469986,144.370712 
	C137.661728,144.241943 134.801437,144.349899 132.018677,144.736801 
	C124.658211,145.760101 119.758568,149.929337 118.775414,155.703873 
	C117.584900,162.696320 120.654442,168.009430 128.031464,171.579224 
	C130.425491,172.737717 133.262405,173.305176 135.220322,174.948761 
	C137.145798,176.565079 138.212921,179.203903 139.656693,181.394043 
	C137.372971,182.724960 135.041107,185.232452 132.815567,185.141403 
	C128.207062,184.952866 123.655075,183.382553 119.079491,182.380371 
	C117.442497,191.015686 118.359894,192.428619 127.485855,193.278000 
	C130.773544,193.584000 134.151764,193.575851 137.430084,193.200012 
	C147.172379,192.083145 151.339630,186.919159 150.644958,176.233551 
z"/>
<path fill="#1A3D89" opacity="1.000000" stroke="none" 
	d="
M97.983231,17.986629 
	C98.310562,19.662676 98.909523,21.336779 98.921524,23.015079 
	C99.004532,34.619633 98.965248,46.225060 98.965248,58.889889 
	C111.625671,51.918110 123.481598,45.389343 135.660660,38.682636 
	C140.441132,46.578270 145.064941,54.215160 149.910904,62.218990 
	C137.790405,69.050018 125.968964,75.712486 113.400978,82.795708 
	C125.838020,89.886536 137.636719,96.613419 149.891129,103.600128 
	C145.202637,111.568901 140.603989,119.384956 135.706573,127.708824 
	C123.653587,120.903191 111.850403,114.238609 99.288994,107.145905 
	C99.288994,118.963219 99.288994,130.131790 99.288994,141.646454 
	C89.454277,141.646454 80.232552,141.646454 70.551346,141.646454 
	C70.551346,130.544403 70.551346,119.439095 70.551346,107.057869 
	C57.786598,114.209740 45.893089,120.873466 33.697193,127.706619 
	C28.977985,119.551506 24.498419,111.810509 19.754467,103.612633 
	C31.784496,96.842583 43.589619,90.199097 56.238071,83.081017 
	C43.830181,75.986771 32.062229,69.258408 19.798000,62.246300 
	C24.526102,54.278793 29.140739,46.502487 33.949604,38.398888 
	C46.031437,45.137741 57.725857,51.660511 70.542175,58.809036 
	C70.542175,45.115387 70.542175,32.413670 70.909447,19.173477 
	C71.524727,18.374643 71.772728,18.114283 72.020737,17.853922 
	C80.038368,17.764286 88.055992,17.674650 96.631042,17.822769 
	C97.188461,18.060524 97.586266,18.177643 97.586266,18.177643 
	C97.586266,18.177643 97.983231,17.986629 97.983231,17.986629 
M84.485306,77.171944 
	C84.534637,77.347618 84.583961,77.523293 84.684631,77.637032 
	C84.684631,77.637032 84.612434,77.601532 84.482407,78.278152 
	C78.171570,85.453522 77.679558,88.830994 82.078369,95.526512 
	C82.386391,95.629807 82.694412,95.733093 83.724846,96.235107 
	C83.878998,98.149803 84.033150,100.064491 84.048264,102.800156 
	C84.347847,106.505287 85.330505,110.100945 82.465439,113.626732 
	C81.493675,114.822601 82.748642,117.827911 83.062546,120.644341 
	C83.798973,121.396706 84.535393,122.149071 85.214607,123.698219 
	C85.569580,125.786751 85.924545,127.875275 86.704041,130.525833 
	C86.634697,131.766953 86.565353,133.008087 86.573807,132.856827 
	C86.677826,132.637695 87.309486,131.306946 88.563049,129.890564 
	C88.321709,124.254547 88.080360,118.618523 88.153259,112.510971 
	C88.362335,111.984131 88.571404,111.457291 89.432274,110.637543 
	C94.069534,105.187187 93.934677,99.390839 89.046082,96.068680 
	C89.217873,92.055725 89.389664,88.042778 89.589821,83.222313 
	C89.595894,82.471260 89.601974,81.720215 90.059013,80.430885 
	C91.685120,78.521591 93.311226,76.612297 95.213264,74.652245 
	C95.213264,74.652245 95.347412,74.407005 95.347412,74.407005 
	C95.347412,74.407005 95.193512,74.173798 95.729362,73.570129 
	C95.820274,73.047417 95.911186,72.524704 96.329628,71.572617 
	C96.215179,70.716347 96.100723,69.860085 96.033463,68.253418 
	C95.227394,66.664429 94.791115,64.144783 93.549667,63.651508 
	C88.794075,61.761894 90.055801,58.023228 90.183411,54.627548 
	C90.280632,52.040741 90.687202,49.465565 91.257080,46.195667 
	C91.240982,44.115860 91.224876,42.036053 91.504929,39.077118 
	C91.363602,36.609089 91.222275,34.141060 91.261200,31.552179 
	C91.261200,31.552179 90.949867,31.347792 90.582474,30.567514 
	C85.005829,28.648129 81.950600,29.612921 82.049683,33.578201 
	C82.122353,36.486179 81.148117,37.675747 78.597321,38.987164 
	C76.665154,39.980537 74.996727,42.446243 74.250450,44.614529 
	C71.565147,52.416599 74.488861,59.027496 82.267181,63.716316 
	C82.585449,63.806435 82.903709,63.896557 83.438683,64.823288 
	C83.652725,68.549393 83.866760,72.275497 83.976486,76.656349 
	C84.318352,76.768059 84.660225,76.879768 84.485306,77.171944 
z"/>
<path fill="#1F408A" opacity="1.000000" stroke="none" 
	d="
M68.111710,158.317764 
	C73.733650,147.026062 83.719719,142.213562 95.506470,144.825134 
	C105.851440,147.117249 112.437729,156.143951 112.568092,168.208588 
	C112.727600,182.971359 104.226212,192.863815 90.806175,193.531372 
	C71.985344,194.467575 61.340164,178.222687 68.111710,158.317764 
M92.479706,184.199768 
	C100.574921,180.863251 103.746895,171.514069 100.322617,161.400772 
	C98.713860,156.649445 95.618217,153.909470 90.558098,153.548355 
	C85.142738,153.161926 80.628143,155.265305 78.986061,160.231674 
	C77.676430,164.192566 77.105232,168.692780 77.460213,172.846420 
	C78.164001,181.081451 83.310913,184.883194 92.479706,184.199768 
z"/>
<path fill="#1F408A" opacity="1.000000" stroke="none" 
	d="
M29.874054,164.852921 
	C26.243315,154.089279 30.648512,146.508545 41.331017,144.816437 
	C44.266911,144.351379 47.306271,144.240387 50.279839,144.374161 
	C56.598503,144.658386 59.763191,145.536240 58.154175,154.178528 
	C54.507362,153.703384 50.777542,152.639496 47.161449,152.940750 
	C44.564651,153.157074 40.918365,154.569443 39.876011,156.564240 
	C38.113361,159.937515 41.727543,161.695007 44.324432,163.138962 
	C46.351521,164.266083 48.584473,165.015656 50.673527,166.039902 
	C59.335388,170.286652 61.587017,174.236252 60.143692,183.482132 
	C59.431522,188.044235 56.157902,191.427933 51.965725,191.948212 
	C45.331341,192.771591 38.413895,193.009811 31.829874,192.042099 
	C25.856514,191.164154 29.461405,185.558624 28.224337,181.334000 
	C31.231726,182.658936 33.477081,184.140945 35.914421,184.597061 
	C38.953697,185.165817 42.223961,185.316513 45.250477,184.801483 
	C46.823460,184.533798 48.956699,182.614426 49.245228,181.131516 
	C49.534534,179.644592 48.269672,177.209366 46.926712,176.193649 
	C44.584507,174.422180 41.503719,173.659821 39.018486,172.036636 
	C35.876751,169.984680 33.021191,167.494583 29.874054,164.852921 
z"/>
<path fill="#20418B" opacity="1.000000" stroke="none" 
	d="
M150.729706,176.637207 
	C151.339630,186.919159 147.172379,192.083145 137.430084,193.200012 
	C134.151764,193.575851 130.773544,193.584000 127.485855,193.278000 
	C118.359894,192.428619 117.442497,191.015686 119.079491,182.380371 
	C123.655075,183.382553 128.207062,184.952866 132.815567,185.141403 
	C135.041107,185.232452 137.372971,182.724960 139.656693,181.394043 
	C138.212921,179.203903 137.145798,176.565079 135.220322,174.948761 
	C133.262405,173.305176 130.425491,172.737717 128.031464,171.579224 
	C120.654442,168.009430 117.584900,162.696320 118.775414,155.703873 
	C119.758568,149.929337 124.658211,145.760101 132.018677,144.736801 
	C134.801437,144.349899 137.661728,144.241943 140.469986,144.370712 
	C148.058197,144.718658 149.130173,146.296799 147.456100,154.066162 
	C144.187515,153.621170 140.929306,152.996399 137.645386,152.799194 
	C134.435883,152.606445 130.861969,152.776611 129.906677,156.641235 
	C128.911560,160.666901 132.470718,162.012146 135.191132,163.491257 
	C137.960159,164.996811 141.322800,165.693100 143.645996,167.663040 
	C146.412354,170.008774 148.348892,173.333176 150.729706,176.637207 
z"/>
<path fill="#053384" opacity="1.000000" stroke="none" 
	d="
M97.746399,17.842892 
	C97.983231,17.986629 97.586266,18.177643 97.586266,18.177643 
	C97.586266,18.177643 97.188461,18.060524 97.082153,17.954254 
	C97.153748,17.798374 97.331650,17.748764 97.746399,17.842892 
z"/>
<path fill="#053384" opacity="1.000000" stroke="none" 
	d="
M71.681114,17.829643 
	C71.772728,18.114283 71.524727,18.374643 71.053810,18.787819 
	C71.001099,18.562212 71.171295,18.183788 71.681114,17.829643 
z"/>
<path fill="#FBFBFD" opacity="1.000000" stroke="none" 
	d="
M89.561455,84.029823 
	C89.389664,88.042778 89.217873,92.055725 88.816467,96.802521 
	C88.146225,99.993919 87.705605,102.451477 87.264984,104.909035 
	C86.930695,104.869240 86.596413,104.829437 86.262123,104.789642 
	C86.162369,103.875458 86.062607,102.961266 85.972435,101.624863 
	C85.314232,99.135773 84.646439,97.068909 83.873138,94.896011 
	C83.466690,94.651344 83.208344,94.719017 82.995575,94.996460 
	C82.998543,94.999901 82.998146,94.997444 82.760857,94.995026 
	C82.523567,94.992599 82.049080,94.982117 82.049080,94.982117 
	C77.679558,88.830994 78.171570,85.453522 84.788345,78.067848 
	C85.136017,77.697540 85.177757,77.537544 85.219490,77.377541 
	C85.024086,77.484680 84.828682,77.591820 84.633278,77.698959 
	C84.583961,77.523293 84.534637,77.347618 84.628723,76.883720 
	C84.580704,76.352119 84.350258,76.154152 84.080795,76.001602 
	C83.866760,72.275497 83.652725,68.549393 83.516373,64.089531 
	C83.384949,60.893559 83.175850,58.431347 83.010818,55.514412 
	C83.091530,51.713474 83.128166,48.367256 83.510300,45.032921 
	C84.907455,44.705109 85.959114,44.365410 87.009766,44.016102 
	C87.008759,44.006489 87.027679,44.012791 87.278885,43.805317 
	C92.474503,40.730808 89.980797,45.615715 90.956146,46.885212 
	C90.687202,49.465565 90.280632,52.040741 90.183411,54.627548 
	C90.055801,58.023228 88.794075,61.761894 93.549667,63.651508 
	C94.791115,64.144783 95.227394,66.664429 95.816208,68.843155 
	C95.733345,70.289261 95.867729,71.145630 96.002106,72.001991 
	C95.911186,72.524704 95.820274,73.047417 95.391586,73.944969 
	C95.053818,74.319809 94.937332,74.703003 94.937332,74.703003 
	C93.311226,76.612297 91.685120,78.521591 89.535103,80.743790 
	C88.502609,81.746613 87.994026,82.436523 87.485451,83.126442 
	C88.177452,83.427567 88.869453,83.728699 89.561455,84.029823 
M85.468163,87.222420 
	C85.242577,86.773872 85.016983,86.325317 84.791397,85.876770 
	C84.427231,86.177086 84.063065,86.477394 83.698898,86.777702 
	C84.159485,87.035927 84.620071,87.294151 85.468163,87.222420 
M87.582748,74.775742 
	C87.832916,74.950752 88.083084,75.125755 88.333252,75.300766 
	C88.173309,75.041893 88.013374,74.783020 87.582748,74.775742 
M90.550781,72.031990 
	C90.324821,72.023972 90.097527,72.002625 89.874626,72.025040 
	C89.847221,72.027802 89.843330,72.264336 89.828545,72.392540 
	C90.057701,72.373215 90.286858,72.353889 90.550781,72.031990 
z"/>
<path fill="#ECEEF3" opacity="1.000000" stroke="none" 
	d="
M82.009979,63.277229 
	C74.488861,59.027496 71.565147,52.416599 74.250450,44.614529 
	C74.996727,42.446243 76.665154,39.980537 78.597321,38.987164 
	C81.148117,37.675747 82.122353,36.486179 82.049683,33.578201 
	C81.950600,29.612921 85.005829,28.648129 90.783905,31.013428 
	C90.985344,31.459341 91.080940,31.673029 91.080940,31.673029 
	C91.222275,34.141060 91.363602,36.609089 91.066849,39.398727 
	C86.664154,37.573669 86.664154,37.573669 83.617897,40.443562 
	C84.900795,40.654575 85.950348,40.827209 86.999947,40.999924 
	C87.000000,41.000000 87.000305,41.000153 86.998749,41.376709 
	C87.007355,42.506439 87.017509,43.259613 87.027679,44.012791 
	C87.027679,44.012791 87.008759,44.006489 86.591217,44.006317 
	C85.057793,44.026878 83.941902,44.047607 82.440987,44.041054 
	C78.321968,43.675518 77.725975,46.513718 78.237564,48.856236 
	C78.799164,51.427700 80.607559,53.726875 81.920967,56.586006 
	C81.982819,59.110622 81.996399,61.193924 82.009979,63.277229 
z"/>
<path fill="#DCE0EB" opacity="1.000000" stroke="none" 
	d="
M85.962845,102.047081 
	C86.062607,102.961266 86.162369,103.875458 86.262123,104.789642 
	C86.596413,104.829437 86.930695,104.869240 87.264984,104.909035 
	C87.705605,102.451477 88.146225,99.993919 88.850403,97.246086 
	C93.934677,99.390839 94.069534,105.187187 88.825760,110.871521 
	C87.759201,111.701439 87.299156,112.297379 86.738937,112.966904 
	C86.638748,113.040482 86.721458,113.432487 86.721458,113.432487 
	C86.721458,113.432487 87.113281,113.162903 87.297226,113.127899 
	C87.481171,113.092896 87.839012,112.982506 87.839012,112.982506 
	C88.080360,118.618523 88.321709,124.254547 87.975815,129.902740 
	C87.018898,129.931213 86.649200,129.947510 86.279510,129.963806 
	C85.924545,127.875275 85.569580,125.786751 85.421761,123.005402 
	C85.733047,120.662163 85.837181,119.011742 86.007759,116.308258 
	C84.431992,118.236755 83.709030,119.121559 82.986069,120.006355 
	C82.748642,117.827911 81.493675,114.822601 82.465439,113.626732 
	C85.330505,110.100945 84.347847,106.505287 84.414062,102.396805 
	C85.174187,102.011322 85.568520,102.029205 85.962845,102.047081 
z"/>
<path fill="#E7EAF1" opacity="1.000000" stroke="none" 
	d="
M87.278877,43.805317 
	C87.017509,43.259613 87.007355,42.506439 87.065948,41.340111 
	C87.134697,40.926956 87.147430,40.756294 87.147430,40.756294 
	C87.147430,40.756294 86.999893,40.999847 86.999893,40.999847 
	C85.950348,40.827209 84.900795,40.654575 83.617897,40.443562 
	C86.664154,37.573669 86.664154,37.573669 90.918777,39.838291 
	C91.224876,42.036053 91.240982,44.115860 91.106613,46.540440 
	C89.980797,45.615715 92.474503,40.730808 87.278877,43.805317 
z"/>
<path fill="#F1F2F6" opacity="1.000000" stroke="none" 
	d="
M85.972435,101.624863 
	C85.568520,102.029205 85.174187,102.011322 84.483582,101.986313 
	C84.033150,100.064491 83.878998,98.149803 83.362381,95.826042 
	C82.999924,95.416977 82.998146,94.997444 82.998146,94.997444 
	C82.998146,94.997444 82.998543,94.999901 83.242111,94.998856 
	C83.485680,94.997810 83.978645,95.002037 83.978645,95.002037 
	C84.646439,97.068909 85.314232,99.135773 85.972435,101.624863 
z"/>
<path fill="#CFD5E3" opacity="1.000000" stroke="none" 
	d="
M83.024307,120.325348 
	C83.709030,119.121559 84.431992,118.236755 86.007759,116.308258 
	C85.837181,119.011742 85.733047,120.662163 85.450363,122.607010 
	C84.535393,122.149071 83.798973,121.396706 83.024307,120.325348 
z"/>
<path fill="#8996BA" opacity="1.000000" stroke="none" 
	d="
M82.138580,63.496773 
	C81.996399,61.193924 81.982819,59.110622 82.193779,56.537628 
	C82.601128,56.021671 82.783943,55.995403 82.966751,55.969131 
	C83.175850,58.431347 83.384949,60.893559 83.408020,63.671227 
	C82.903709,63.896557 82.585449,63.806435 82.138580,63.496773 
z"/>
<path fill="#CFD5E3" opacity="1.000000" stroke="none" 
	d="
M86.491776,130.244812 
	C86.649200,129.947510 87.018898,129.931213 87.664864,129.945557 
	C87.309486,131.306946 86.677826,132.637695 86.573807,132.856827 
	C86.565353,133.008087 86.634697,131.766953 86.491776,130.244812 
z"/>
<path fill="#EFF0F5" opacity="1.000000" stroke="none" 
	d="
M89.575638,83.626068 
	C88.869453,83.728699 88.177452,83.427567 87.485451,83.126442 
	C87.994026,82.436523 88.502609,81.746613 89.309616,81.012932 
	C89.601974,81.720215 89.595894,82.471260 89.575638,83.626068 
z"/>
<path fill="#EFF0F5" opacity="1.000000" stroke="none" 
	d="
M96.165863,71.787308 
	C95.867729,71.145630 95.733345,70.289261 95.792618,69.218353 
	C96.100723,69.860085 96.215179,70.716347 96.165863,71.787308 
z"/>
<path fill="#CFD5E3" opacity="1.000000" stroke="none" 
	d="
M86.839119,112.893318 
	C87.299156,112.297379 87.759201,111.701439 88.499863,111.017975 
	C88.571404,111.457291 88.362335,111.984131 87.996140,112.746735 
	C87.839012,112.982506 87.481171,113.092896 87.231842,113.057289 
	C86.982513,113.021683 86.839119,112.893318 86.839119,112.893318 
z"/>
<path fill="#EFF0F5" opacity="1.000000" stroke="none" 
	d="
M82.760857,94.995026 
	C82.998146,94.997444 82.999924,95.416977 83.001175,95.626678 
	C82.694412,95.733093 82.386391,95.629807 82.063721,95.254318 
	C82.049080,94.982117 82.523567,94.992599 82.760857,94.995026 
z"/>
<path fill="#8996BA" opacity="1.000000" stroke="none" 
	d="
M84.658951,77.667999 
	C84.828682,77.591820 85.024086,77.484680 85.219490,77.377541 
	C85.177757,77.537544 85.136017,77.697540 84.853363,77.729538 
	C84.612434,77.601532 84.684631,77.637032 84.658951,77.667999 
z"/>
<path fill="#EFF0F5" opacity="1.000000" stroke="none" 
	d="
M84.028641,76.328979 
	C84.350258,76.154152 84.580704,76.352119 84.887115,76.793488 
	C84.660225,76.879768 84.318352,76.768059 84.028641,76.328979 
z"/>
<path fill="#EFF0F5" opacity="1.000000" stroke="none" 
	d="
M95.075302,74.677628 
	C94.937332,74.703003 95.053818,74.319809 95.123665,74.246803 
	C95.193512,74.173798 95.347412,74.407005 95.347412,74.407005 
	C95.347412,74.407005 95.213264,74.652245 95.075302,74.677628 
z"/>
<path fill="#E7EAF1" opacity="1.000000" stroke="none" 
	d="
M91.171066,31.612604 
	C91.080940,31.673029 90.985344,31.459341 90.967606,31.403566 
	C90.949867,31.347792 91.261200,31.552179 91.171066,31.612604 
z"/>
<path fill="#F8F9FB" opacity="1.000000" stroke="none" 
	d="
M92.104050,184.298355 
	C83.310913,184.883194 78.164001,181.081451 77.460213,172.846420 
	C77.105232,168.692780 77.676430,164.192566 78.986061,160.231674 
	C80.628143,155.265305 85.142738,153.161926 90.558098,153.548355 
	C95.618217,153.909470 98.713860,156.649445 100.322617,161.400772 
	C103.746895,171.514069 100.574921,180.863251 92.104050,184.298355 
z"/>
<path fill="#2E4B90" opacity="1.000000" stroke="none" 
	d="
M83.010818,55.514412 
	C82.783943,55.995403 82.601128,56.021671 82.145508,56.096321 
	C80.607559,53.726875 78.799164,51.427700 78.237564,48.856236 
	C77.725975,46.513718 78.321968,43.675518 82.522598,44.280319 
	C83.047760,44.704929 83.106285,44.862984 83.164803,45.021034 
	C83.128166,48.367256 83.091530,51.713474 83.010818,55.514412 
z"/>
<path fill="#EFF0F5" opacity="1.000000" stroke="none" 
	d="
M85.274414,87.387390 
	C84.620071,87.294151 84.159485,87.035927 83.698898,86.777702 
	C84.063065,86.477394 84.427231,86.177086 84.791397,85.876770 
	C85.016983,86.325317 85.242577,86.773872 85.274414,87.387390 
z"/>
<path fill="#EFF0F5" opacity="1.000000" stroke="none" 
	d="
M87.718094,74.649948 
	C88.013374,74.783020 88.173309,75.041893 88.333252,75.300766 
	C88.083084,75.125755 87.832916,74.950752 87.718094,74.649948 
z"/>
<path fill="#E7EAF1" opacity="1.000000" stroke="none" 
	d="
M83.510300,45.032921 
	C83.106285,44.862984 83.047760,44.704929 82.907623,44.307602 
	C83.941902,44.047607 85.057793,44.026878 86.592232,44.015930 
	C85.959114,44.365410 84.907455,44.705109 83.510300,45.032921 
z"/>
<path fill="#EFF0F5" opacity="1.000000" stroke="none" 
	d="
M90.533401,72.183281 
	C90.286858,72.353889 90.057701,72.373215 89.828545,72.392540 
	C89.843330,72.264336 89.847221,72.027802 89.874626,72.025040 
	C90.097527,72.002625 90.324821,72.023972 90.533401,72.183281 
z"/>
<path fill="#EFF0F5" opacity="1.000000" stroke="none" 
	d="
M83.873138,94.896011 
	C83.978645,95.002037 83.485680,94.997810 83.239136,94.995415 
	C83.208344,94.719017 83.466690,94.651344 83.873138,94.896011 
z"/>
<path fill="#CFD5E3" opacity="1.000000" stroke="none" 
	d="
M87.047897,113.092293 
	C87.113281,113.162903 86.721458,113.432487 86.721458,113.432487 
	C86.721458,113.432487 86.638748,113.040482 86.738937,112.966904 
	C86.839119,112.893318 86.982513,113.021683 87.047897,113.092293 
z"/>
<path fill="#ECEEF3" opacity="1.000000" stroke="none" 
	d="
M86.999947,40.999924 
	C86.999893,40.999847 87.147430,40.756294 87.147430,40.756294 
	C87.147430,40.756294 87.134697,40.926956 87.067505,40.963554 
	C87.000305,41.000153 87.000000,41.000000 86.999947,40.999924 
z"/>
</svg>