<?xml version="1.0" standalone="no"?>
<!DOCTYPE svg PUBLIC "-//W3C//DTD SVG 20010904//EN"
 "http://www.w3.org/TR/2001/REC-SVG-20010904/DTD/svg10.dtd">
<svg version="1.0" xmlns="http://www.w3.org/2000/svg"
 width="20.000000pt" height="20.000000pt" viewBox="0 0 20.000000 20.000000"
 preserveAspectRatio="xMidYMid meet">

<g transform="translate(0.000000,20.000000) scale(0.100000,-0.100000)"
stroke="#000000">
  <path fill="#FF0000" fill-rule="evenodd" d="
    M83 192 c-12 -2 -33 -14 -46 -28 -64 -64 -22 -164 68 -164 59 0 95
    36 95 95 0 65 -51 107 -117 97z 
    M141 120 c21 0 21 -1 5 -19 -9 -10 -14 -25 -10 -35 7 -18 -7 -21 -23 -5 
    -8 8 -13 8 -17 0 -11 -17 -29 -13 -22 5 4 10 -1 25 -10 35 -16 18 -16 19 
    5 19 15 0 25 8 29 22 l5 22 8 -22 c5 -14 17 -22 30 -22z"/>
</g>
</svg>
