<?xml version="1.0" encoding="UTF-8"?>
<svg version="1.1" xmlns="http://www.w3.org/2000/svg" width="960" height="960">
<path d="M0 0 C1.05106934 0.22913086 2.10213867 0.45826172 3.18505859 0.69433594 C54.8765223 12.11502489 104.65931573 35.74862043 147.37451172 66.81982422 C148.90258517 67.92927256 150.43740299 69.02941476 151.97265625 70.12890625 C161.03829281 76.64443407 169.65520763 83.58806043 178 91 C179.29103762 92.12572183 180.58271415 93.25071131 181.875 94.375 C183.25027922 95.58301553 184.6252688 96.79136086 186 98 C186.71414063 98.62003906 187.42828125 99.24007812 188.1640625 99.87890625 C193.69612816 104.75415475 198.96446784 109.85930671 204.1875 115.0625 C205.18523437 116.05334595 205.18523437 116.05334595 206.203125 117.06420898 C210.67107604 121.5460391 214.88583743 126.19278177 219 131 C219.70153198 131.81102173 219.70153198 131.81102173 220.41723633 132.63842773 C231.69760773 145.69914236 241.75859209 159.34935384 251.39379883 173.65454102 C252.47331488 175.23090683 253.57258381 176.793909 254.69018555 178.34350586 C259.49249536 185.00877487 263.50185136 191.98236132 267.4375 199.1875 C268.36272461 200.86295898 268.36272461 200.86295898 269.30664062 202.57226562 C270.89066836 205.44856989 272.46350492 208.33055059 274.02893066 211.2170105 C275.01592388 213.02923799 276.01397207 214.83508436 277.01269531 216.64086914 C281.90385816 225.55446514 286.0535318 234.64448688 289.875 244.0625 C290.32205292 245.15874191 290.32205292 245.15874191 290.77813721 246.27713013 C303.67804383 278.00977026 313.57533725 310.94220944 318 345 C318.12713379 345.97646484 318.25426758 346.95292969 318.38525391 347.95898438 C319.32533556 355.29847029 320.2174392 362.64198276 321 370 C321.09788818 370.86471924 321.19577637 371.72943848 321.29663086 372.62036133 C322.3676687 383.35497131 322.28745123 394.16016343 322.3125 404.9375 C322.31511841 406.01570007 322.31773682 407.09390015 322.32043457 408.20477295 C322.32564908 428.37038306 320.89394589 448.05509924 318 468 C317.84515137 469.0926416 317.69030273 470.1852832 317.53076172 471.31103516 C316.56589718 477.92190655 315.36127053 484.46003016 314 491 C313.77505859 492.1019873 313.55011719 493.20397461 313.31835938 494.33935547 C305.81149817 530.47231472 293.37390358 565.40477967 276 598 C275.56751953 598.82097168 275.13503906 599.64194336 274.68945312 600.48779297 C259.6069144 629.04427318 241.79093996 656.08085783 220 680 C218.76707278 681.39251279 217.53780757 682.78827781 216.3125 684.1875 C215.46558594 685.15236328 215.46558594 685.15236328 214.6015625 686.13671875 C213.08996405 687.8953345 211.63702434 689.69021376 210.1875 691.5 C209.465625 692.325 208.74375 693.15 208 694 C207.34 694 206.68 694 206 694 C205.7628125 694.56203125 205.525625 695.1240625 205.28125 695.703125 C203.71052303 698.51894042 201.78528536 700.47955416 199.5 702.75 C198.7059375 703.54921875 197.911875 704.3484375 197.09375 705.171875 C195 707 195 707 193 707 C192.7628125 707.57234375 192.525625 708.1446875 192.28125 708.734375 C188.2983984 715.77722234 179.90326984 720.96549647 173.6171875 725.91015625 C170.77868798 728.1767193 168.01743588 730.52231247 165.25 732.875 C158.75254069 738.29781591 151.97150071 743.20742062 145 748 C144.31663574 748.47195801 143.63327148 748.94391602 142.92919922 749.43017578 C132.3221871 756.72535475 121.45892666 763.40890559 110.24462891 769.72705078 C108.13488515 770.92350542 106.04030875 772.1424045 103.94921875 773.37109375 C57.83691484 800.2684947 3.86540021 815.40011663 -49 821 C-49.74050598 821.08366821 -50.48101196 821.16733643 -51.24395752 821.25354004 C-65.34602517 822.83788272 -79.31337392 823.40024161 -93.5 823.375 C-94.55572205 823.37512085 -95.61144409 823.3752417 -96.69915771 823.37536621 C-116.6837622 823.34308515 -136.2334685 821.86806504 -156 819 C-157.0926416 818.84515137 -158.1852832 818.69030273 -159.31103516 818.53076172 C-165.92190655 817.56589718 -172.46003016 816.36127053 -179 815 C-180.1019873 814.77505859 -181.20397461 814.55011719 -182.33935547 814.31835938 C-212.07551342 808.14047594 -240.31744083 798.46291482 -268 786 C-269.2694043 785.44046631 -269.2694043 785.44046631 -270.56445312 784.86962891 C-284.65804301 778.64467567 -297.80556956 770.92606165 -311 763 C-312.30703182 762.22482212 -313.61428279 761.45001348 -314.921875 760.67578125 C-322.30522686 756.23676605 -329.28233936 751.33820481 -336.23828125 746.26904297 C-337.96756384 745.02336518 -339.71360189 743.80654918 -341.46875 742.59765625 C-349.94602602 736.72932369 -357.72152349 730.26151914 -365.41845703 723.40673828 C-367.36917809 721.67162641 -369.3401384 719.96043833 -371.3125 718.25 C-372.54212945 717.16719198 -373.77129015 716.08385143 -375 715 C-375.70511719 714.38769531 -376.41023437 713.77539062 -377.13671875 713.14453125 C-382.67866114 708.26212581 -387.95587395 703.14925454 -393.1875 697.9375 C-394.18523437 696.94665405 -394.18523437 696.94665405 -395.203125 695.93579102 C-401.27491333 689.84514151 -406.9010441 683.43288535 -412.3125 676.75 C-414.67548376 673.83739184 -417.04933256 670.94204396 -419.48046875 668.0859375 C-424.61500684 662.05186017 -429.31579433 655.86919475 -433.7421875 649.30078125 C-435.20401458 647.1636811 -436.70727791 645.05410757 -438.2578125 642.98046875 C-446.95859496 631.33635229 -453.94050782 618.68357324 -461 606 C-461.80123291 604.57469971 -461.80123291 604.57469971 -462.61865234 603.12060547 C-488.31429121 557.1097912 -503.44963565 505.27391986 -509 453 C-509.08506805 452.22409515 -509.17013611 451.44819031 -509.25778198 450.64877319 C-510.82750263 436.10035083 -511.36364592 421.69023423 -511.3125 407.0625 C-511.31100952 405.99894287 -511.30951904 404.93538574 -511.3079834 403.83959961 C-511.26338161 386.04281896 -510.41155492 368.64449979 -508 351 C-507.86609863 349.96294922 -507.73219727 348.92589844 -507.59423828 347.85742188 C-499.07541453 283.13501307 -474.22990448 219.94672612 -436 167 C-435.22277787 165.89405782 -434.44683363 164.78721694 -433.671875 163.6796875 C-428.40997606 156.18692327 -422.90666227 149.00304942 -417 142 C-416.13756347 140.96261965 -415.27560156 139.92484457 -414.4140625 138.88671875 C-405.18517509 127.81305646 -395.41888247 117.3404169 -385.25 107.125 C-384.55310059 106.42342773 -383.85620117 105.72185547 -383.13818359 104.99902344 C-378.58802325 100.4628835 -373.87847279 96.17917823 -369 92 C-367.96723733 91.09919971 -366.93466944 90.19817604 -365.90234375 89.296875 C-358.48211953 82.92271664 -350.81817675 77.02805164 -342.86425781 71.33642578 C-341.0465524 70.0333719 -339.23728812 68.71936695 -337.4296875 67.40234375 C-323.51759774 57.30385807 -309.00365032 48.38522828 -294 40 C-293.15920898 39.52691406 -292.31841797 39.05382812 -291.45214844 38.56640625 C-248.94203917 14.86224256 -200.12595871 -1.3518648 -151.68652344 -6.69238281 C-148.71450015 -7.03269082 -145.75360476 -7.43580972 -142.7890625 -7.8359375 C-95.2643605 -13.83028814 -46.63970677 -10.41759818 0 0 Z " fill="#FEFEFE" transform="translate(575,73)"/>
<path d="M0 0 C1.05106934 0.22913086 2.10213867 0.45826172 3.18505859 0.69433594 C54.8765223 12.11502489 104.65931573 35.74862043 147.37451172 66.81982422 C148.90258517 67.92927256 150.43740299 69.02941476 151.97265625 70.12890625 C161.03829281 76.64443407 169.65520763 83.58806043 178 91 C179.29103762 92.12572183 180.58271415 93.25071131 181.875 94.375 C183.25027922 95.58301553 184.6252688 96.79136086 186 98 C186.71414063 98.62003906 187.42828125 99.24007812 188.1640625 99.87890625 C193.69612816 104.75415475 198.96446784 109.85930671 204.1875 115.0625 C205.18523437 116.05334595 205.18523437 116.05334595 206.203125 117.06420898 C210.67107604 121.5460391 214.88583743 126.19278177 219 131 C219.70153198 131.81102173 219.70153198 131.81102173 220.41723633 132.63842773 C231.69760773 145.69914236 241.75859209 159.34935384 251.39379883 173.65454102 C252.47331488 175.23090683 253.57258381 176.793909 254.69018555 178.34350586 C259.49249536 185.00877487 263.50185136 191.98236132 267.4375 199.1875 C268.36272461 200.86295898 268.36272461 200.86295898 269.30664062 202.57226562 C270.89066836 205.44856989 272.46350492 208.33055059 274.02893066 211.2170105 C275.01592388 213.02923799 276.01397207 214.83508436 277.01269531 216.64086914 C281.90385816 225.55446514 286.0535318 234.64448688 289.875 244.0625 C290.32205292 245.15874191 290.32205292 245.15874191 290.77813721 246.27713013 C303.67804383 278.00977026 313.57533725 310.94220944 318 345 C318.12713379 345.97646484 318.25426758 346.95292969 318.38525391 347.95898438 C319.32533556 355.29847029 320.2174392 362.64198276 321 370 C321.09788818 370.86471924 321.19577637 371.72943848 321.29663086 372.62036133 C322.3676687 383.35497131 322.28745123 394.16016343 322.3125 404.9375 C322.31511841 406.01570007 322.31773682 407.09390015 322.32043457 408.20477295 C322.32564908 428.37038306 320.89394589 448.05509924 318 468 C317.84515137 469.0926416 317.69030273 470.1852832 317.53076172 471.31103516 C316.56589718 477.92190655 315.36127053 484.46003016 314 491 C313.77505859 492.1019873 313.55011719 493.20397461 313.31835938 494.33935547 C305.81149817 530.47231472 293.37390358 565.40477967 276 598 C275.56751953 598.82097168 275.13503906 599.64194336 274.68945312 600.48779297 C259.6069144 629.04427318 241.79093996 656.08085783 220 680 C218.76707278 681.39251279 217.53780757 682.78827781 216.3125 684.1875 C215.46558594 685.15236328 215.46558594 685.15236328 214.6015625 686.13671875 C213.08996405 687.8953345 211.63702434 689.69021376 210.1875 691.5 C209.465625 692.325 208.74375 693.15 208 694 C207.34 694 206.68 694 206 694 C205.7628125 694.56203125 205.525625 695.1240625 205.28125 695.703125 C203.71052303 698.51894042 201.78528536 700.47955416 199.5 702.75 C198.7059375 703.54921875 197.911875 704.3484375 197.09375 705.171875 C195 707 195 707 193 707 C192.7628125 707.57234375 192.525625 708.1446875 192.28125 708.734375 C188.2983984 715.77722234 179.90326984 720.96549647 173.6171875 725.91015625 C170.77868798 728.1767193 168.01743588 730.52231247 165.25 732.875 C158.75254069 738.29781591 151.97150071 743.20742062 145 748 C144.31663574 748.47195801 143.63327148 748.94391602 142.92919922 749.43017578 C132.3221871 756.72535475 121.45892666 763.40890559 110.24462891 769.72705078 C108.13488515 770.92350542 106.04030875 772.1424045 103.94921875 773.37109375 C57.83691484 800.2684947 3.86540021 815.40011663 -49 821 C-49.74050598 821.08366821 -50.48101196 821.16733643 -51.24395752 821.25354004 C-65.34602517 822.83788272 -79.31337392 823.40024161 -93.5 823.375 C-94.55572205 823.37512085 -95.61144409 823.3752417 -96.69915771 823.37536621 C-116.6837622 823.34308515 -136.2334685 821.86806504 -156 819 C-157.0926416 818.84515137 -158.1852832 818.69030273 -159.31103516 818.53076172 C-165.92190655 817.56589718 -172.46003016 816.36127053 -179 815 C-180.1019873 814.77505859 -181.20397461 814.55011719 -182.33935547 814.31835938 C-212.07551342 808.14047594 -240.31744083 798.46291482 -268 786 C-269.2694043 785.44046631 -269.2694043 785.44046631 -270.56445312 784.86962891 C-284.65804301 778.64467567 -297.80556956 770.92606165 -311 763 C-312.30703182 762.22482212 -313.61428279 761.45001348 -314.921875 760.67578125 C-322.30522686 756.23676605 -329.28233936 751.33820481 -336.23828125 746.26904297 C-337.96756384 745.02336518 -339.71360189 743.80654918 -341.46875 742.59765625 C-349.94602602 736.72932369 -357.72152349 730.26151914 -365.41845703 723.40673828 C-367.36917809 721.67162641 -369.3401384 719.96043833 -371.3125 718.25 C-372.54212945 717.16719198 -373.77129015 716.08385143 -375 715 C-375.70511719 714.38769531 -376.41023437 713.77539062 -377.13671875 713.14453125 C-382.67866114 708.26212581 -387.95587395 703.14925454 -393.1875 697.9375 C-394.18523437 696.94665405 -394.18523437 696.94665405 -395.203125 695.93579102 C-401.27491333 689.84514151 -406.9010441 683.43288535 -412.3125 676.75 C-414.67548376 673.83739184 -417.04933256 670.94204396 -419.48046875 668.0859375 C-424.61500684 662.05186017 -429.31579433 655.86919475 -433.7421875 649.30078125 C-435.20401458 647.1636811 -436.70727791 645.05410757 -438.2578125 642.98046875 C-446.95859496 631.33635229 -453.94050782 618.68357324 -461 606 C-461.80123291 604.57469971 -461.80123291 604.57469971 -462.61865234 603.12060547 C-488.31429121 557.1097912 -503.44963565 505.27391986 -509 453 C-509.08506805 452.22409515 -509.17013611 451.44819031 -509.25778198 450.64877319 C-510.82750263 436.10035083 -511.36364592 421.69023423 -511.3125 407.0625 C-511.31100952 405.99894287 -511.30951904 404.93538574 -511.3079834 403.83959961 C-511.26338161 386.04281896 -510.41155492 368.64449979 -508 351 C-507.86609863 349.96294922 -507.73219727 348.92589844 -507.59423828 347.85742188 C-499.07541453 283.13501307 -474.22990448 219.94672612 -436 167 C-435.22277787 165.89405782 -434.44683363 164.78721694 -433.671875 163.6796875 C-428.40997606 156.18692327 -422.90666227 149.00304942 -417 142 C-416.13756347 140.96261965 -415.27560156 139.92484457 -414.4140625 138.88671875 C-405.18517509 127.81305646 -395.41888247 117.3404169 -385.25 107.125 C-384.55310059 106.42342773 -383.85620117 105.72185547 -383.13818359 104.99902344 C-378.58802325 100.4628835 -373.87847279 96.17917823 -369 92 C-367.96723733 91.09919971 -366.93466944 90.19817604 -365.90234375 89.296875 C-358.48211953 82.92271664 -350.81817675 77.02805164 -342.86425781 71.33642578 C-341.0465524 70.0333719 -339.23728812 68.71936695 -337.4296875 67.40234375 C-323.51759774 57.30385807 -309.00365032 48.38522828 -294 40 C-293.15920898 39.52691406 -292.31841797 39.05382812 -291.45214844 38.56640625 C-248.94203917 14.86224256 -200.12595871 -1.3518648 -151.68652344 -6.69238281 C-148.71450015 -7.03269082 -145.75360476 -7.43580972 -142.7890625 -7.8359375 C-95.2643605 -13.83028814 -46.63970677 -10.41759818 0 0 Z M-141 92 C-141.84836426 92.13390137 -142.69672852 92.26780273 -143.57080078 92.40576172 C-163.50540029 95.7061921 -183.69288315 101.06598463 -202.875 107.375 C-203.97062256 107.73247314 -203.97062256 107.73247314 -205.08837891 108.09716797 C-208.74879622 109.16066986 -208.74879622 109.16066986 -211 112 C-212.85888672 112.65161133 -212.85888672 112.65161133 -215.3046875 113.26953125 C-221.59764523 115.05070507 -227.27313795 117.80251712 -233.125 120.6875 C-234.7028125 121.45416992 -234.7028125 121.45416992 -236.3125 122.23632812 C-238.87833023 123.48425465 -241.44063668 124.73887836 -244 126 C-244 126.66 -244 127.32 -244 128 C-245.06541016 128.15275391 -245.06541016 128.15275391 -246.15234375 128.30859375 C-267.7267056 133.54681329 -291.88105759 157.11477359 -307.76171875 172.0078125 C-310.10055818 174.19602965 -312.49900564 176.29726923 -314.9296875 178.3828125 C-319.02161256 181.94707789 -322.75091839 185.77223222 -326.4375 189.75 C-327.08855713 190.44883301 -327.73961426 191.14766602 -328.41040039 191.86767578 C-333.52327238 197.39671915 -338.33119818 203.08988975 -343 209 C-343.6496875 209.78117187 -344.299375 210.56234375 -344.96875 211.3671875 C-350.89314055 218.53758083 -355.96082212 226.19752579 -361 234 C-361.41540039 234.63711914 -361.83080078 235.27423828 -362.25878906 235.93066406 C-371.7912614 250.59084631 -379.97703416 265.98501248 -387 282 C-387.49371094 283.11117187 -387.98742187 284.22234375 -388.49609375 285.3671875 C-390.0657317 289.15878047 -391.37482865 292.9701438 -392.625 296.875 C-394.86657303 303.86657303 -394.86657303 303.86657303 -396 305 C-396.2555562 306.4748364 -396.47771359 307.95546051 -396.6875 309.4375 C-397.4321947 313.81048168 -398.57335068 317.79033966 -400.08203125 321.93969727 C-404.13202618 333.1008748 -405.90684323 344.3113678 -407.56640625 356.03662109 C-408.28981165 360.98070599 -409.16119614 365.89955186 -410.04956055 370.81640625 C-411.9916007 382.06645785 -412.2404604 393.42173157 -412.25 404.8125 C-412.25067474 405.5465506 -412.25134949 406.2806012 -412.25204468 407.03689575 C-412.20410157 440.33674464 -408.37677672 475.04595829 -396.37109375 506.31640625 C-395.34212239 509.08085067 -394.62561671 511.37595438 -394.1875 514.25 C-393.17744761 519.18143228 -391.00322751 523.3028933 -388.6328125 527.71484375 C-387.34086985 530.31418292 -386.26581262 532.82705115 -385.2265625 535.52734375 C-382.64018652 542.09384456 -379.48145827 548.35657369 -376.25 554.625 C-375.92730133 555.25229004 -375.60460266 555.87958008 -375.27212524 556.52587891 C-365.98598829 574.46922822 -354.81497531 591.37042113 -342 607 C-341.57444824 607.52029785 -341.14889648 608.0405957 -340.71044922 608.57666016 C-328.86181123 622.99977436 -316.20586366 636.86729721 -302 649 C-300.91207333 649.9510375 -299.8248972 650.90293395 -298.73828125 651.85546875 C-292.07529538 657.67198392 -285.38707954 663.1154821 -278 668 C-276.6360589 668.92350537 -275.27284375 669.84808337 -273.91015625 670.7734375 C-266.60981031 675.71204588 -259.25948192 680.57167557 -251.75 685.1875 C-251.15485596 685.56181152 -250.55971191 685.93612305 -249.9465332 686.32177734 C-246.31473854 688.51442223 -243.21794706 689.57181446 -239 690 C-239 690.66 -239 691.32 -239 692 C-231.86442302 695.66032479 -224.78752113 699.25015431 -217.28125 702.1015625 C-215.02412796 702.99049755 -212.87213722 704.00975815 -210.6875 705.0625 C-206.00825936 707.18717287 -201.21424982 708.14619096 -196.20703125 709.21875 C-192.39631679 710.14706046 -188.92692846 711.504252 -185.3203125 713.0234375 C-178.64000939 715.83501288 -172.17055902 717.45134323 -164.9921875 718.47265625 C-162 719 -162 719 -158.890625 719.9296875 C-142.660097 724.72879883 -124.84864265 725.79246327 -108 726 C-107.2924054 726.00988953 -106.58481079 726.01977905 -105.85577393 726.02996826 C-76.08357139 726.43772154 -49.10641422 724.83751841 -20 718 C-19.23848633 717.82210937 -18.47697266 717.64421875 -17.69238281 717.4609375 C-9.06667866 715.40574701 -0.6362328 712.67550355 7.8125 710 C8.86332764 709.66758301 9.91415527 709.33516602 10.99682617 708.99267578 C19.61398284 706.22007477 27.93323128 703.12301512 36 699 C36.98742187 698.59007812 37.97484375 698.18015625 38.9921875 697.7578125 C59.35095902 689.08505562 78.28799235 677.17298295 96 664 C96.5475293 663.59281738 97.09505859 663.18563477 97.65917969 662.76611328 C101.48680783 659.90277484 105.25280754 656.96750442 109 654 C110.41539062 652.89591797 110.41539062 652.89591797 111.859375 651.76953125 C119.83785446 645.30020862 127.09998662 638.11229201 134.375 630.875 C134.8972818 630.35798523 135.4195636 629.84097046 135.95767212 629.30828857 C142.11517564 623.19881211 147.82837772 616.98331529 153 610 C153.89529973 608.86912827 154.79598485 607.74248985 155.703125 606.62109375 C166.65999666 592.96522453 176.07736582 578.66569958 184.64599609 563.40234375 C185.99483695 561.00916055 187.36449569 558.62893456 188.73828125 556.25 C193.17683223 548.49977563 197.12444169 540.96162558 200.0625 532.50390625 C201 530 201 530 203 527 C203.49593603 525.71756737 203.94489628 524.41649636 204.359375 523.10546875 C204.61654297 522.30544434 204.87371094 521.50541992 205.13867188 520.68115234 C205.42291016 519.79637207 205.70714844 518.9115918 206 518 C206.67030511 516.01639589 207.3422854 514.03335735 208.015625 512.05078125 C221.15818821 472.76103278 226.22301783 434.40168641 225 393 C224.97921387 392.08460449 224.95842773 391.16920898 224.93701172 390.22607422 C224.51248492 372.64437533 222.46655178 355.47317267 217.890625 338.4765625 C217.14091158 335.55004958 216.61254248 332.73453741 216.1875 329.75 C215.12379415 323.36776493 212.79294684 317.40681338 210.6027832 311.34277344 C209.01015645 306.92551145 207.52141581 302.55915653 206.375 298 C203.83261614 288.15209145 199.17136783 279.13443975 194.55078125 270.12890625 C193.22411097 267.45217353 192.05903198 264.79104488 191 262 C190.34 262 189.68 262 189 262 C188.62681641 260.49759766 188.62681641 260.49759766 188.24609375 258.96484375 C187.05636588 254.82417513 185.2055669 251.28299856 183.0625 247.5625 C182.4746875 246.53141113 182.4746875 246.53141113 181.875 245.47949219 C177.35287312 237.68626569 172.25667685 230.311078 167 223 C166.24847656 221.95070313 165.49695313 220.90140625 164.72265625 219.8203125 C150.93950905 201.02737763 134.72544419 183.13864636 117 168 C115.50919922 166.71029297 115.50919922 166.71029297 113.98828125 165.39453125 C107.22743102 159.57353471 100.34842518 154.07027061 93 149 C92.29439941 148.50661133 91.58879883 148.01322266 90.86181641 147.50488281 C77.10934485 137.92539943 62.87662347 129.70121529 48 122 C46.77748535 121.36094727 46.77748535 121.36094727 45.53027344 120.70898438 C38.82379182 117.21119499 32.22934338 113.79096621 24.9453125 111.64453125 C22.16859347 110.72453398 19.67166556 109.37832161 17.1171875 107.96484375 C14.18093641 106.6267367 11.10109675 105.86175706 8 105 C7.0445932 104.7314193 7.0445932 104.7314193 6.06988525 104.45741272 C1.60191479 103.2025087 -2.87194159 101.96930981 -7.34741211 100.74145508 C-8.97204385 100.29398545 -10.59577085 99.84321596 -12.21850586 99.38891602 C-23.73499257 96.16759521 -35.16391584 93.70621172 -47 92 C-48.1243042 91.83201904 -49.2486084 91.66403809 -50.40698242 91.4909668 C-80.24074253 87.26117443 -111.23321752 87.28431769 -141 92 Z " fill="#DF1111" transform="translate(575,73)"/>
<path d="M0 0 C26.73 0 53.46 0 81 0 C81 37.95 81 75.9 81 115 C120.6 115 160.2 115 201 115 C201 77.05 201 39.1 201 0 C227.4 0 253.8 0 281 0 C281 103.62 281 207.24 281 314 C254.6 314 228.2 314 201 314 C201 268.46 201 222.92 201 176 C161.4 176 121.8 176 81 176 C81 221.54 81 267.08 81 314 C54.27 314 27.54 314 0 314 C0 210.38 0 106.76 0 0 Z " fill="#000000" transform="translate(343,214)"/>
<path d="M0 0 C1.05106934 0.22913086 2.10213867 0.45826172 3.18505859 0.69433594 C54.8765223 12.11502489 104.65931573 35.74862043 147.37451172 66.81982422 C148.90258517 67.92927256 150.43740299 69.02941476 151.97265625 70.12890625 C161.03829281 76.64443407 169.65520763 83.58806043 178 91 C179.29103762 92.12572183 180.58271415 93.25071131 181.875 94.375 C183.25027922 95.58301553 184.6252688 96.79136086 186 98 C186.71414063 98.62003906 187.42828125 99.24007812 188.1640625 99.87890625 C193.69612816 104.75415475 198.96446784 109.85930671 204.1875 115.0625 C205.18523437 116.05334595 205.18523437 116.05334595 206.203125 117.06420898 C210.67107604 121.5460391 214.88583743 126.19278177 219 131 C219.70153198 131.81102173 219.70153198 131.81102173 220.41723633 132.63842773 C231.69760773 145.69914236 241.75859209 159.34935384 251.39379883 173.65454102 C252.47331488 175.23090683 253.57258381 176.793909 254.69018555 178.34350586 C259.49249536 185.00877487 263.50185136 191.98236132 267.4375 199.1875 C268.36272461 200.86295898 268.36272461 200.86295898 269.30664062 202.57226562 C270.89066836 205.44856989 272.46350492 208.33055059 274.02893066 211.2170105 C275.01592388 213.02923799 276.01397207 214.83508436 277.01269531 216.64086914 C281.90385816 225.55446514 286.0535318 234.64448688 289.875 244.0625 C290.32205292 245.15874191 290.32205292 245.15874191 290.77813721 246.27713013 C303.67804383 278.00977026 313.57533725 310.94220944 318 345 C318.12713379 345.97646484 318.25426758 346.95292969 318.38525391 347.95898438 C319.32533556 355.29847029 320.2174392 362.64198276 321 370 C321.09788818 370.86471924 321.19577637 371.72943848 321.29663086 372.62036133 C322.3676687 383.35497131 322.28745123 394.16016343 322.3125 404.9375 C322.31511841 406.01570007 322.31773682 407.09390015 322.32043457 408.20477295 C322.32564908 428.37038306 320.89394589 448.05509924 318 468 C317.84515137 469.0926416 317.69030273 470.1852832 317.53076172 471.31103516 C316.56589718 477.92190655 315.36127053 484.46003016 314 491 C313.77505859 492.1019873 313.55011719 493.20397461 313.31835938 494.33935547 C305.81149817 530.47231472 293.37390358 565.40477967 276 598 C275.56751953 598.82097168 275.13503906 599.64194336 274.68945312 600.48779297 C259.6069144 629.04427318 241.79093996 656.08085783 220 680 C218.76707278 681.39251279 217.53780757 682.78827781 216.3125 684.1875 C215.46558594 685.15236328 215.46558594 685.15236328 214.6015625 686.13671875 C213.08996405 687.8953345 211.63702434 689.69021376 210.1875 691.5 C209.465625 692.325 208.74375 693.15 208 694 C207.34 694 206.68 694 206 694 C205.7628125 694.56203125 205.525625 695.1240625 205.28125 695.703125 C203.71052303 698.51894042 201.78528536 700.47955416 199.5 702.75 C198.7059375 703.54921875 197.911875 704.3484375 197.09375 705.171875 C195 707 195 707 193 707 C192.7628125 707.57234375 192.525625 708.1446875 192.28125 708.734375 C188.2983984 715.77722234 179.90326984 720.96549647 173.6171875 725.91015625 C170.77868798 728.1767193 168.01743588 730.52231247 165.25 732.875 C158.75254069 738.29781591 151.97150071 743.20742062 145 748 C144.31663574 748.47195801 143.63327148 748.94391602 142.92919922 749.43017578 C132.3221871 756.72535475 121.45892666 763.40890559 110.24462891 769.72705078 C108.13488515 770.92350542 106.04030875 772.1424045 103.94921875 773.37109375 C57.83691484 800.2684947 3.86540021 815.40011663 -49 821 C-49.74050598 821.08366821 -50.48101196 821.16733643 -51.24395752 821.25354004 C-65.34602517 822.83788272 -79.31337392 823.40024161 -93.5 823.375 C-94.55572205 823.37512085 -95.61144409 823.3752417 -96.69915771 823.37536621 C-116.6837622 823.34308515 -136.2334685 821.86806504 -156 819 C-157.0926416 818.84515137 -158.1852832 818.69030273 -159.31103516 818.53076172 C-165.92190655 817.56589718 -172.46003016 816.36127053 -179 815 C-180.1019873 814.77505859 -181.20397461 814.55011719 -182.33935547 814.31835938 C-212.07551342 808.14047594 -240.31744083 798.46291482 -268 786 C-269.2694043 785.44046631 -269.2694043 785.44046631 -270.56445312 784.86962891 C-284.65804301 778.64467567 -297.80556956 770.92606165 -311 763 C-312.30703182 762.22482212 -313.61428279 761.45001348 -314.921875 760.67578125 C-322.30522686 756.23676605 -329.28233936 751.33820481 -336.23828125 746.26904297 C-337.96756384 745.02336518 -339.71360189 743.80654918 -341.46875 742.59765625 C-349.94602602 736.72932369 -357.72152349 730.26151914 -365.41845703 723.40673828 C-367.36917809 721.67162641 -369.3401384 719.96043833 -371.3125 718.25 C-372.54212945 717.16719198 -373.77129015 716.08385143 -375 715 C-375.70511719 714.38769531 -376.41023437 713.77539062 -377.13671875 713.14453125 C-382.67866114 708.26212581 -387.95587395 703.14925454 -393.1875 697.9375 C-394.18523437 696.94665405 -394.18523437 696.94665405 -395.203125 695.93579102 C-401.27491333 689.84514151 -406.9010441 683.43288535 -412.3125 676.75 C-414.67548376 673.83739184 -417.04933256 670.94204396 -419.48046875 668.0859375 C-424.61500684 662.05186017 -429.31579433 655.86919475 -433.7421875 649.30078125 C-435.20401458 647.1636811 -436.70727791 645.05410757 -438.2578125 642.98046875 C-446.95859496 631.33635229 -453.94050782 618.68357324 -461 606 C-461.80123291 604.57469971 -461.80123291 604.57469971 -462.61865234 603.12060547 C-488.31429121 557.1097912 -503.44963565 505.27391986 -509 453 C-509.08506805 452.22409515 -509.17013611 451.44819031 -509.25778198 450.64877319 C-510.82750263 436.10035083 -511.36364592 421.69023423 -511.3125 407.0625 C-511.31100952 405.99894287 -511.30951904 404.93538574 -511.3079834 403.83959961 C-511.26338161 386.04281896 -510.41155492 368.64449979 -508 351 C-507.86609863 349.96294922 -507.73219727 348.92589844 -507.59423828 347.85742188 C-499.07541453 283.13501307 -474.22990448 219.94672612 -436 167 C-435.22277787 165.89405782 -434.44683363 164.78721694 -433.671875 163.6796875 C-428.40997606 156.18692327 -422.90666227 149.00304942 -417 142 C-416.13756347 140.96261965 -415.27560156 139.92484457 -414.4140625 138.88671875 C-405.18517509 127.81305646 -395.41888247 117.3404169 -385.25 107.125 C-384.55310059 106.42342773 -383.85620117 105.72185547 -383.13818359 104.99902344 C-378.58802325 100.4628835 -373.87847279 96.17917823 -369 92 C-367.96723733 91.09919971 -366.93466944 90.19817604 -365.90234375 89.296875 C-358.48211953 82.92271664 -350.81817675 77.02805164 -342.86425781 71.33642578 C-341.0465524 70.0333719 -339.23728812 68.71936695 -337.4296875 67.40234375 C-323.51759774 57.30385807 -309.00365032 48.38522828 -294 40 C-293.15920898 39.52691406 -292.31841797 39.05382812 -291.45214844 38.56640625 C-248.94203917 14.86224256 -200.12595871 -1.3518648 -151.68652344 -6.69238281 C-148.71450015 -7.03269082 -145.75360476 -7.43580972 -142.7890625 -7.8359375 C-95.2643605 -13.83028814 -46.63970677 -10.41759818 0 0 Z M-155 13 C-155.97533691 13.14985352 -156.95067383 13.29970703 -157.95556641 13.45410156 C-173.52342387 15.8905398 -189.04429599 19.24389372 -203.97045898 24.33276367 C-206.49331411 25.16218302 -209.03602693 25.78694417 -211.625 26.375 C-226.77848715 30.06672965 -241.05208373 36.00319628 -255.1875 42.5 C-256.22841797 42.97308594 -257.26933594 43.44617188 -258.34179688 43.93359375 C-263.72587099 46.4017217 -268.8851719 49.01970646 -274 52 C-275.9812585 52.72045764 -277.97669589 53.40781343 -280 54 C-280 54.66 -280 55.32 -280 56 C-280.55179932 56.15927979 -281.10359863 56.31855957 -281.67211914 56.48266602 C-287.475635 58.27058988 -292.32540616 60.68933468 -297.4375 63.9375 C-298.20900391 64.41985107 -298.98050781 64.90220215 -299.77539062 65.39916992 C-302.19230285 66.91954101 -304.59743723 68.45706978 -307 70 C-307.75555176 70.48178711 -308.51110352 70.96357422 -309.28955078 71.45996094 C-321.05182976 78.99457148 -332.10202404 87.27119842 -343 96 C-344.02867187 96.81339844 -345.05734375 97.62679687 -346.1171875 98.46484375 C-358.12991004 108.09243153 -368.98994918 118.89524993 -379.875 129.75 C-380.42101868 130.29333984 -380.96703735 130.83667969 -381.52960205 131.39648438 C-389.61517256 139.45199249 -397.31085978 147.66278272 -404.3125 156.6875 C-404.78341064 157.29360107 -405.25432129 157.89970215 -405.73950195 158.52416992 C-406.70355401 159.76532834 -407.66702254 161.00694024 -408.62988281 162.24902344 C-409.85775095 163.81820916 -411.11089606 165.36753872 -412.3671875 166.9140625 C-425.2877898 183.05393944 -440.32811685 202.98158888 -446 223 C-446.66 223 -447.32 223 -448 223 C-448.38414062 223.92683594 -448.76828125 224.85367188 -449.1640625 225.80859375 C-450.94588847 229.96862473 -452.93495158 234.0186642 -454.921875 238.08374023 C-459.55897106 247.5893197 -463.7209756 256.93678719 -467 267 C-467.49100437 268.3158917 -467.98986942 269.62890417 -468.5 270.9375 C-471.96104224 280.12106094 -474.98729949 289.41264783 -477.25 298.96484375 C-478.09441869 302.38210066 -479.07146467 305.74746414 -480.0625 309.125 C-481.44133664 313.89347673 -482.61334978 318.61187335 -483.5078125 323.4921875 C-484.04998421 326.25468146 -484.74635349 328.95854007 -485.4375 331.6875 C-488.55273611 345.0181804 -490.01295089 358.9183501 -490.7890625 372.57421875 C-491 375 -491 375 -491.50311279 376.85443115 C-492.0501676 379.21662471 -492.14106419 381.33084156 -492.16113281 383.75488281 C-492.17074036 384.69817444 -492.1803479 385.64146606 -492.19024658 386.61334229 C-492.19449646 387.63297058 -492.19874634 388.65259888 -492.203125 389.703125 C-492.20882507 390.77254333 -492.21452515 391.84196167 -492.22039795 392.94378662 C-492.22985378 395.22016412 -492.23638424 397.49655534 -492.24023438 399.77294922 C-492.24976944 403.16790931 -492.28071243 406.56221777 -492.3125 409.95703125 C-492.37949796 423.97278763 -491.36339259 437.49422663 -489.35270691 451.35943604 C-488.78315958 455.6233904 -488.4277925 459.90221869 -488.0625 464.1875 C-486.57541951 479.65041534 -483.48988495 494.41326068 -478.58203125 509.14453125 C-476.5385431 515.3003649 -474.817656 521.54576871 -473.09228516 527.796875 C-471.64133366 532.98740268 -469.92172514 537.96539777 -468 543 C-467.23673644 545.55834637 -466.53363372 548.12427397 -465.84375 550.703125 C-465.11418289 553.04512554 -465.11418289 553.04512554 -463.5625 554.86083984 C-461.96001972 557.0547355 -461.09422334 558.98300521 -460.15625 561.5234375 C-457.89942811 567.37358322 -455.23128261 572.98382229 -452.5 578.625 C-452.02691406 579.60984375 -451.55382812 580.5946875 -451.06640625 581.609375 C-449.71840035 584.40994128 -448.3611109 587.20578382 -447 590 C-446.66081543 590.70318359 -446.32163086 591.40636719 -445.97216797 592.13085938 C-438.05586595 608.31385042 -428.02466299 623.36126665 -417.49072266 637.93212891 C-416.23275418 639.67713267 -414.99489912 641.43661016 -413.76171875 643.19921875 C-409.28411914 649.54943766 -404.32974489 655.40558964 -399.22265625 661.25 C-397.45694258 663.27325453 -395.74712338 665.3181734 -394.07592773 667.42089844 C-388.36143863 674.60527497 -382.17347327 681.10422644 -375.65209961 687.55371094 C-373.9308349 689.25659392 -372.2178334 690.96746929 -370.50585938 692.6796875 C-364.84111581 698.32642746 -359.14006598 703.86493667 -353 709 C-352.09894531 709.75925781 -351.19789063 710.51851562 -350.26953125 711.30078125 C-347.52440698 713.54837902 -344.7675786 715.78009527 -342 718 C-341.02289063 718.78375 -340.04578125 719.5675 -339.0390625 720.375 C-330.71293541 726.91845504 -322.01685164 732.81264172 -313.14990234 738.59667969 C-311.19539284 739.87245991 -309.2473769 741.15750735 -307.30078125 742.4453125 C-293.73721994 751.366994 -279.56925088 758.81667513 -265 765.9375 C-264.3197879 766.27259583 -263.63957581 766.60769165 -262.93875122 766.95294189 C-260.96317231 767.92374132 -258.98253637 768.88334654 -257 769.83984375 C-255.845 770.40050537 -254.69 770.96116699 -253.5 771.53881836 C-250.8313272 772.65293713 -248.53234795 773.42430501 -245.75390625 774.08422852 C-242.33750999 774.91766389 -240.16656144 776.06171586 -237.2109375 777.8671875 C-232.41345133 780.32526346 -227.14740187 781.75020649 -222.01611328 783.36328125 C-220.09902189 783.9687274 -218.18798023 784.59323207 -216.27734375 785.21875 C-191.16564424 793.32097363 -165.25781325 799.20025387 -139 802 C-138.2565332 802.08878418 -137.51306641 802.17756836 -136.74707031 802.26904297 C-109.84963391 805.43753319 -81.8754132 805.28100593 -55 802 C-54.3389325 801.91987671 -53.67786499 801.83975342 -52.99676514 801.75720215 C-30.74119087 799.04373965 -8.62878952 795.99281007 12.76953125 789.0390625 C17.5417845 787.5040935 22.36051002 786.13209741 27.17895508 784.75 C30.87753427 783.67569856 34.44058949 782.46675531 38 781 C39.051875 780.71125 40.10375 780.4225 41.1875 780.125 C48.26416232 778.03680456 54.96640574 775.043767 61.68359375 772.015625 C65.74479884 770.23499545 69.87260292 768.61993873 74 767 C74 766.34 74 765.68 74 765 C74.72348633 764.88390381 75.44697266 764.76780762 76.19238281 764.64819336 C79.09040114 763.97912913 81.29172169 763.00506012 83.921875 761.62890625 C84.85676758 761.14196289 85.79166016 760.65501953 86.75488281 760.15332031 C87.74327148 759.62834961 88.73166016 759.10337891 89.75 758.5625 C90.7719043 758.02334961 91.79380859 757.48419922 92.84667969 756.92871094 C104.69850678 750.63022666 116.40969211 744.22349899 127.13671875 736.1171875 C129.97399372 734.01922974 132.8703503 732.0485509 135.79980469 730.08325195 C142.91012265 725.30093574 149.54892992 720.2295282 156.00390625 714.59765625 C158.70120982 712.25905537 161.4527268 710.02928643 164.25 707.8125 C177.81296196 696.77890099 190.63959693 684.28293282 202 671 C202.90572194 669.95787415 203.81201803 668.91624715 204.71875 667.875 C231.99749111 636.45769312 252.83945059 601.3555605 271 564 C271.34546875 563.36835937 271.6909375 562.73671875 272.046875 562.0859375 C273.07898767 559.82713354 273.70420495 557.54628138 274.35693359 555.15527344 C275.7749919 550.40257081 277.60024555 545.7777661 279.3125 541.125 C282.93076545 531.17278432 286.25723476 521.22730446 289 511 C289.50080078 509.16115234 289.50080078 509.16115234 290.01171875 507.28515625 C291.07739994 503.20355518 292.06439183 499.11306423 293 495 C293.29390625 493.71053467 293.29390625 493.71053467 293.59375 492.39501953 C296.51876564 479.30328938 298.64513428 466.18415443 300.25 452.875 C300.33290283 452.19261261 300.41580566 451.51022522 300.5012207 450.80715942 C305.07559912 412.69902427 303.92546654 373.75534495 297 336 C296.81034668 334.94345215 296.62069336 333.8869043 296.42529297 332.79833984 C292.04248099 308.66180313 285.63872912 285.07719346 275.5 262.6875 C274.37579497 259.9238293 273.54890015 257.42809569 272.78125 254.57421875 C270.86366126 248.10235676 267.96046977 242.17465562 265 236.125 C264.46632813 235.01125 263.93265625 233.8975 263.3828125 232.75 C260.74003075 227.10376908 260.74003075 227.10376908 257.3984375 221.87060547 C256 220 256 220 254.8125 216.5625 C250.88879188 205.60038763 242.8336173 195.57345681 236.33398438 185.97216797 C235.42909141 184.6343705 234.52683081 183.29478944 233.62695312 181.95361328 C227.79891001 173.27080992 221.75297844 164.99855493 215 157 C213.60387865 155.25022977 212.20805282 153.5002237 210.8125 151.75 C197.12600531 135.07179305 181.62710577 118.28438122 164.58984375 105.02734375 C162.1020915 103.07991778 159.71763011 101.05189257 157.33154297 98.9831543 C150.2083626 92.82785484 142.76807705 87.31028744 135 82 C133.83138428 81.1970752 133.83138428 81.1970752 132.63916016 80.37792969 C115.43336575 68.59696627 97.81183831 58.00427206 79 49 C78.11860352 48.5776709 77.23720703 48.1553418 76.32910156 47.72021484 C70.93499048 45.13949925 65.53482098 42.57189607 60.12792969 40.01806641 C58.7121464 39.34071254 57.30619889 38.64239564 55.91113281 37.92333984 C53.73153696 36.87029545 51.51325939 36.26518052 49.18359375 35.62890625 C43.07734652 33.87021966 37.05325857 31.79388992 31.12109375 29.51953125 C27.13310799 28.01380037 23.09879576 26.78917789 19 25.625 C14.77147716 24.4192067 10.57837684 23.20376077 6.4296875 21.7421875 C-6.98434399 17.05464683 -21.01845778 15.20124903 -35.04272461 13.27142334 C-36.8648331 13.01874414 -38.68542129 12.75516791 -40.50585938 12.49072266 C-77.51375466 7.2908655 -118.07742188 7.04860131 -155 13 Z " fill="#E12525" transform="translate(575,73)"/>
<path d="M0 0 C5.28 0 10.56 0 16 0 C16 4.29 16 8.58 16 13 C27.22 13 38.44 13 50 13 C50 8.71 50 4.42 50 0 C55.61 0 61.22 0 67 0 C67 4.29 67 8.58 67 13 C78.22 13 89.44 13 101 13 C101 8.71 101 4.42 101 0 C106.61 0 112.22 0 118 0 C118 4.29 118 8.58 118 13 C129.22 13 140.44 13 152 13 C152 8.71 152 4.42 152 0 C157.61 0 163.22 0 169 0 C169 4.29 169 8.58 169 13 C180.22 13 191.44 13 203 13 C203 8.71 203 4.42 203 0 C208.28 0 213.56 0 219 0 C219 4.29 219 8.58 219 13 C230.55 13 242.1 13 254 13 C254 8.71 254 4.42 254 0 C259.28 0 264.56 0 270 0 C270 4.29 270 8.58 270 13 C281.55 13 293.1 13 305 13 C305 8.71 305 4.42 305 0 C310.28 0 315.56 0 321 0 C321 4.29 321 8.58 321 13 C332.22 13 343.44 13 355 13 C355 18.61 355 24.22 355 30 C343.78 30 332.56 30 321 30 C321 48.48 321 66.96 321 86 C332.22 86 343.44 86 355 86 C355 91.61 355 97.22 355 103 C343.78 103 332.56 103 321 103 C321 109.93 321 116.86 321 124 C315.39 124 309.78 124 304 124 C304 117.07 304 110.14 304 103 C293.11 103 282.22 103 271 103 C271 109.93 271 116.86 271 124 C265.39 124 259.78 124 254 124 C254 116.74 254 109.48 254 102 C242.78 102 231.56 102 220 102 C220 109.26 220 116.52 220 124 C214.39 124 208.78 124 203 124 C203 117.07 203 110.14 203 103 C191.78 103 180.56 103 169 103 C169 109.93 169 116.86 169 124 C163.39 124 157.78 124 152 124 C152 117.07 152 110.14 152 103 C140.78 103 129.56 103 118 103 C118 109.93 118 116.86 118 124 C112.39 124 106.78 124 101 124 C101 117.07 101 110.14 101 103 C89.78 103 78.56 103 67 103 C67 109.93 67 116.86 67 124 C61.39 124 55.78 124 50 124 C50 116.74 50 109.48 50 102 C38.78 102 27.56 102 16 102 C16 109.26 16 116.52 16 124 C10.72 124 5.44 124 0 124 C0 116.74 0 109.48 0 102 C-11.22 102 -22.44 102 -34 102 C-34 96.72 -34 91.44 -34 86 C-22.78 86 -11.56 86 0 86 C0 67.52 0 49.04 0 30 C-11.22 30 -22.44 30 -34 30 C-34 24.39 -34 18.78 -34 13 C-22.78 13 -11.56 13 0 13 C0 8.71 0 4.42 0 0 Z " fill="#040404" transform="translate(320,556)"/>
<path d="M0 0 C0.87190979 0.12518005 1.74381958 0.25036011 2.64215088 0.3793335 C5.24858176 0.75801613 7.85303779 1.1478997 10.45703125 1.54296875 C11.63624397 1.71678825 11.63624397 1.71678825 12.83927917 1.89411926 C16.8401181 2.51981746 20.25725524 3.40026886 24 5 C25.8032741 5.44779515 27.61709838 5.85446584 29.4375 6.2265625 C43.08968453 9.12845081 55.77211291 12.84625375 68.69140625 18.09667969 C72.14252831 19.44705528 75.65519682 20.5711802 79.1875 21.6875 C84.2868475 23.34284374 88.93523629 25.29883823 93.6640625 27.8125 C96.1255329 29.06381606 98.61081086 30.07206093 101.1875 31.0625 C104.15720668 32.21146608 106.89323923 33.42716022 109.625 35.0625 C112.94107348 37.10673854 112.94107348 37.10673854 116.625 38.25 C121.56649151 40.01952458 125.77451149 42.84240728 130.19140625 45.640625 C133.6775122 47.83183863 137.24446909 49.8585328 140.83032227 51.88110352 C151.02476102 57.64845475 160.60022509 64.01813494 170 71 C170.57411621 71.42635742 171.14823242 71.85271484 171.73974609 72.29199219 C175.54111724 75.1342863 179.28216997 78.04983204 183 81 C183.6276123 81.49612793 184.25522461 81.99225586 184.90185547 82.50341797 C186.94044745 84.12006072 188.97135187 85.7459009 191 87.375 C191.60400635 87.85573975 192.2080127 88.33647949 192.83032227 88.83178711 C203.70682149 97.64079351 213.70721839 107.52045214 223.59472656 117.40942383 C225.25828808 119.07077708 226.92975104 120.7239069 228.6015625 122.37695312 C235.20012854 128.94154761 241.21717851 135.69748822 247 143 C248.43335857 144.71180964 249.87040212 146.42054621 251.3125 148.125 C259.99904853 158.75199916 267.66599826 170.20820585 274.984375 181.80859375 C276.24920733 183.81124494 277.52837839 185.80498673 278.828125 187.78515625 C283.29587223 194.61758952 287.14848961 201.71388336 290.91894531 208.94384766 C292.0526856 211.10020735 293.20747544 213.24422385 294.3671875 215.38671875 C298.3625223 222.78986309 302.11100095 230.08250732 305 238 C305.68109261 239.75250367 306.36867673 241.50249735 307.0625 243.25 C307.36285156 244.01828125 307.66320312 244.7865625 307.97265625 245.578125 C309.0018197 248.0918527 309.0018197 248.0918527 310.4453125 250.78125 C312.25349308 254.52481985 313.54092677 258.29902491 314.8125 262.25 C315.33558772 263.85297877 315.85903572 265.45584 316.3828125 267.05859375 C316.64868164 267.87569824 316.91455078 268.69280273 317.18847656 269.53466797 C317.979413 271.93745862 318.79348426 274.33092157 319.6171875 276.72265625 C322.59562027 285.40019676 325.18907003 293.98951915 327 303 C327.14308594 303.68030273 327.28617188 304.36060547 327.43359375 305.06152344 C329.16297569 313.42135574 330.4821129 321.85009262 331.82275391 330.27929688 C332.13779257 332.25462273 332.4594496 334.22888943 332.78125 336.203125 C332.96751953 337.36489258 333.15378906 338.52666016 333.34570312 339.72363281 C333.98820635 342.94094374 334.95476801 345.89503056 336 349 C346.96347244 410.57013118 336.3547184 491.18130029 309.99609375 547.8359375 C307.0757911 554.18043816 304.50828969 560.69499584 301.9375 567.1875 C300.08591239 571.85047778 298.07423745 576.43226433 296 581 C295.34 581 294.68 581 294 581 C293.76796875 581.804375 293.5359375 582.60875 293.296875 583.4375 C291.67898312 587.88182949 289.5403008 591.8701361 287.25 596 C286.77191895 596.86431641 286.29383789 597.72863281 285.80126953 598.61914062 C277.53317964 613.36376881 268.50595759 627.74203936 258 641 C257.10719594 642.14645301 256.21531912 643.29362852 255.32421875 644.44140625 C252.99788014 647.43061976 250.65213795 650.40374263 248.29492188 653.36865234 C247.13389439 654.83131933 245.98050398 656.30004079 244.828125 657.76953125 C235.54651801 669.40643324 225.0517151 680.02133972 214.5625 690.5625 C213.92497803 691.20469482 213.28745605 691.84688965 212.63061523 692.50854492 C208.25107471 696.87327238 203.69367433 700.9767646 199 705 C198.45351807 705.47348877 197.90703613 705.94697754 197.34399414 706.43481445 C190.36555566 712.47281007 183.272557 718.29813624 175.78808594 723.70556641 C174.51910433 724.62420929 173.25456855 725.54900754 171.99316406 726.47802734 C161.35915129 734.28984482 150.37828436 741.33776187 139 748 C138.0879631 748.53548462 138.0879631 748.53548462 137.15750122 749.08178711 C115.08664945 762 115.08664945 762 111 762 C111 762.66 111 763.32 111 764 C103.72400417 767.14637658 96.37046557 770.08368606 89 773 C88.12730469 773.34804688 87.25460937 773.69609375 86.35546875 774.0546875 C83.41157262 775.20166002 81.19015739 776 78 776 C77.67 776.99 77.34 777.98 77 779 C74.97759836 779.45329692 72.95121659 779.89187531 70.9140625 780.2734375 C67.37238496 781.15648311 64.10193014 782.52074004 60.75 783.9375 C55.02214512 786.32012208 49.44239064 788.02589866 43.3515625 789.29296875 C40.34936896 789.92629862 37.38644606 790.65239235 34.41748047 791.42504883 C30.95416211 792.32141199 27.47899789 793.16682135 24 794 C23.32839844 794.16113281 22.65679688 794.32226562 21.96484375 794.48828125 C9.50269409 797.39690442 -3.13417678 799.05263738 -15.8125 800.6875 C-16.64725861 800.79609344 -17.48201721 800.90468689 -18.34207153 801.01657104 C-35.50512143 803.23297256 -52.51078597 804.23282014 -69.8125 804.25 C-71.15903656 804.25250763 -71.15903656 804.25250763 -72.53277588 804.25506592 C-86.63467218 804.25663144 -100.29749037 803.41875184 -114.26611328 801.37597656 C-117.79414043 800.89078619 -121.32800458 800.55453604 -124.87353516 800.2265625 C-131.91349291 799.57260046 -138.66294898 798.59909671 -145.53125 796.85546875 C-150.80801075 795.55410546 -156.13733419 794.50810659 -161.46679688 793.44580078 C-164.57730213 792.80803066 -167.49264709 792.20733172 -170.4375 791.00390625 C-172.86264869 790.05380989 -174.97231296 789.60483697 -177.52734375 789.15234375 C-183.78922523 787.96352572 -189.60490338 785.78805963 -195.5625 783.5625 C-197.70928093 782.77117306 -199.85641059 781.9807915 -202.00390625 781.19140625 C-203.02129883 780.81580566 -204.03869141 780.44020508 -205.08691406 780.05322266 C-208.42453968 778.8465082 -211.78344391 777.72429403 -215.16333008 776.64233398 C-217.90809364 775.68241468 -220.42550043 774.34321717 -223 773 C-226.43244594 771.50475881 -229.87491738 770.05120341 -233.33984375 768.6328125 C-257.87523912 758.3497912 -280.2410268 744.1549683 -302 729 C-302.6290625 728.56526367 -303.258125 728.13052734 -303.90625 727.68261719 C-305.48533057 726.58892446 -307.05561519 725.48256063 -308.625 724.375 C-309.46289062 723.78460937 -310.30078125 723.19421875 -311.1640625 722.5859375 C-313 721 -313 721 -314 718 C-314.55429687 717.87625 -315.10859375 717.7525 -315.6796875 717.625 C-319.16529994 716.68611449 -321.46869218 714.33457988 -324.125 712 C-324.98387817 711.2589502 -324.98387817 711.2589502 -325.86010742 710.50292969 C-330.20046115 706.74342541 -334.48178397 702.91778822 -338.7265625 699.05078125 C-340.84763649 697.13744131 -343.00974725 695.28566948 -345.1875 693.4375 C-348.43200417 690.61226575 -351.18695655 687.56970664 -353.9609375 684.2890625 C-356.47845278 681.46288634 -359.17224572 678.83378008 -361.875 676.1875 C-367.35873303 670.77648879 -372.210793 665.03720882 -377 659 C-378.00523225 657.78172054 -379.01322022 656.56571149 -380.0234375 655.3515625 C-387.33263531 646.53811157 -394.13961301 637.48169609 -400.60644531 628.03320312 C-401.9222656 626.11341488 -403.25290013 624.20472711 -404.5859375 622.296875 C-410.99339748 613.01896316 -416.41047153 603.27766283 -421.73291016 593.34570312 C-422.9930364 591.01289138 -424.27951444 588.69658395 -425.57421875 586.3828125 C-431.04501765 576.56133905 -435.98639201 566.60202241 -439.8671875 556.0390625 C-440.92998457 553.1878345 -442.09860931 550.41453689 -443.3125 547.625 C-445.83734648 541.62949154 -447.98665464 535.51621465 -450.125 529.375 C-450.46184814 528.40900879 -450.79869629 527.44301758 -451.14575195 526.44775391 C-454.01714233 518.1226394 -456.68754264 509.76932762 -458.6875 501.1875 C-458.93886719 500.12917969 -459.19023437 499.07085938 -459.44921875 497.98046875 C-459.95678253 495.23386474 -460.10803573 492.78320614 -460 490 C-460.66 490 -461.32 490 -462 490 C-466.92214976 457.02305716 -466.92214976 457.02305716 -468.75 443 C-468.86512939 442.12013428 -468.98025879 441.24026855 -469.09887695 440.33374023 C-470.28444344 431.0795111 -471.1599642 421.9412357 -471.23828125 412.60546875 C-471.25290405 411.14533356 -471.25290405 411.14533356 -471.26782227 409.65570068 C-471.52057946 377.77101309 -469.9724445 346.841759 -462.61914062 315.71240234 C-461.99767673 312.98982195 -461.4499361 310.26164928 -460.921875 307.51953125 C-458.66605582 296.01313608 -455.58648335 284.90067265 -452 273.75 C-451.7905777 273.09409882 -451.5811554 272.43819763 -451.36538696 271.76242065 C-449.0129593 264.43911602 -446.41320607 257.38994457 -443.12573242 250.43530273 C-441.54730247 247.02067711 -440.28872074 243.53382735 -439 240 C-424.32387992 203.28818056 -402.57086133 169.40796134 -376.921875 139.4296875 C-375.034513 137.22359881 -373.17107136 135.00110435 -371.328125 132.7578125 C-365.16582552 125.32112522 -358.57622658 118.3949737 -351.75 111.5625 C-350.91025635 110.72195068 -350.0705127 109.88140137 -349.20532227 109.01538086 C-344.2927989 104.14654162 -339.26151729 99.4880159 -334 95 C-332.99068378 94.12262774 -331.98155453 93.24504032 -330.97265625 92.3671875 C-314.8677423 78.5753283 -297.80315722 66.50871498 -280 55 C-279.32855957 54.56236328 -278.65711914 54.12472656 -277.96533203 53.67382812 C-268.69719598 47.68031229 -258.84858632 42.70383883 -249.0625 37.625 C-248.37960907 37.26962158 -247.69671814 36.91424316 -246.99313354 36.5480957 C-240.12537388 32.98328098 -233.35031723 29.4789985 -226 27 C-225.24589844 26.7215625 -224.49179687 26.443125 -223.71484375 26.15625 C-223.12832031 25.9396875 -222.54179687 25.723125 -221.9375 25.5 C-219.42224151 24.55861671 -216.97181342 23.55934861 -214.5 22.5 C-206.43646723 19.04420024 -198.12319283 16.29327779 -189.8125 13.5 C-188.66974609 13.10941406 -187.52699219 12.71882813 -186.34960938 12.31640625 C-176.96411966 9.16491903 -167.52989712 6.85881672 -157.8125 5 C-154.55426265 4.37067906 -151.46197613 3.5501902 -148.3046875 2.53125 C-143.33364718 1.02296049 -138.45983843 0.14439588 -133.3125 -0.5 C-131.90000977 -0.67946167 -131.90000977 -0.67946167 -130.45898438 -0.86254883 C-128.39477068 -1.11824948 -126.32978408 -1.36776972 -124.26416016 -1.61181641 C-122.07510019 -1.8721459 -119.88724273 -2.14277942 -117.70068359 -2.42333984 C-78.32647646 -7.41634361 -39.19202958 -5.66364362 0 0 Z M-127 6 C-127.97533691 6.14985352 -128.95067383 6.29970703 -129.95556641 6.45410156 C-145.52342387 8.8905398 -161.04429599 12.24389372 -175.97045898 17.33276367 C-178.49331411 18.16218302 -181.03602693 18.78694417 -183.625 19.375 C-198.77848715 23.06672965 -213.05208373 29.00319628 -227.1875 35.5 C-228.22841797 35.97308594 -229.26933594 36.44617188 -230.34179688 36.93359375 C-235.72587099 39.4017217 -240.8851719 42.01970646 -246 45 C-247.9812585 45.72045764 -249.97669589 46.40781343 -252 47 C-252 47.66 -252 48.32 -252 49 C-252.55179932 49.15927979 -253.10359863 49.31855957 -253.67211914 49.48266602 C-259.475635 51.27058988 -264.32540616 53.68933468 -269.4375 56.9375 C-270.20900391 57.41985107 -270.98050781 57.90220215 -271.77539062 58.39916992 C-274.19230285 59.91954101 -276.59743723 61.45706978 -279 63 C-279.75555176 63.48178711 -280.51110352 63.96357422 -281.28955078 64.45996094 C-293.05182976 71.99457148 -304.10202404 80.27119842 -315 89 C-316.02867187 89.81339844 -317.05734375 90.62679687 -318.1171875 91.46484375 C-330.12991004 101.09243153 -340.98994918 111.89524993 -351.875 122.75 C-352.42101868 123.29333984 -352.96703735 123.83667969 -353.52960205 124.39648438 C-361.61517256 132.45199249 -369.31085978 140.66278272 -376.3125 149.6875 C-376.78341064 150.29360107 -377.25432129 150.89970215 -377.73950195 151.52416992 C-378.70355401 152.76532834 -379.66702254 154.00694024 -380.62988281 155.24902344 C-381.85775095 156.81820916 -383.11089606 158.36753872 -384.3671875 159.9140625 C-397.2877898 176.05393944 -412.32811685 195.98158888 -418 216 C-418.66 216 -419.32 216 -420 216 C-420.38414062 216.92683594 -420.76828125 217.85367188 -421.1640625 218.80859375 C-422.94588847 222.96862473 -424.93495158 227.0186642 -426.921875 231.08374023 C-431.55897106 240.5893197 -435.7209756 249.93678719 -439 260 C-439.49100437 261.3158917 -439.98986942 262.62890417 -440.5 263.9375 C-443.96104224 273.12106094 -446.98729949 282.41264783 -449.25 291.96484375 C-450.09441869 295.38210066 -451.07146467 298.74746414 -452.0625 302.125 C-453.44133664 306.89347673 -454.61334978 311.61187335 -455.5078125 316.4921875 C-456.04998421 319.25468146 -456.74635349 321.95854007 -457.4375 324.6875 C-460.55273611 338.0181804 -462.01295089 351.9183501 -462.7890625 365.57421875 C-463 368 -463 368 -463.50311279 369.85443115 C-464.0501676 372.21662471 -464.14106419 374.33084156 -464.16113281 376.75488281 C-464.17074036 377.69817444 -464.1803479 378.64146606 -464.19024658 379.61334229 C-464.19449646 380.63297058 -464.19874634 381.65259888 -464.203125 382.703125 C-464.20882507 383.77254333 -464.21452515 384.84196167 -464.22039795 385.94378662 C-464.22985378 388.22016412 -464.23638424 390.49655534 -464.24023438 392.77294922 C-464.24976944 396.16790931 -464.28071243 399.56221777 -464.3125 402.95703125 C-464.37949796 416.97278763 -463.36339259 430.49422663 -461.35270691 444.35943604 C-460.78315958 448.6233904 -460.4277925 452.90221869 -460.0625 457.1875 C-458.57541951 472.65041534 -455.48988495 487.41326068 -450.58203125 502.14453125 C-448.5385431 508.3003649 -446.817656 514.54576871 -445.09228516 520.796875 C-443.64133366 525.98740268 -441.92172514 530.96539777 -440 536 C-439.23673644 538.55834637 -438.53363372 541.12427397 -437.84375 543.703125 C-437.11418289 546.04512554 -437.11418289 546.04512554 -435.5625 547.86083984 C-433.96001972 550.0547355 -433.09422334 551.98300521 -432.15625 554.5234375 C-429.89942811 560.37358322 -427.23128261 565.98382229 -424.5 571.625 C-424.02691406 572.60984375 -423.55382812 573.5946875 -423.06640625 574.609375 C-421.71840035 577.40994128 -420.3611109 580.20578382 -419 583 C-418.66081543 583.70318359 -418.32163086 584.40636719 -417.97216797 585.13085938 C-410.05586595 601.31385042 -400.02466299 616.36126665 -389.49072266 630.93212891 C-388.23275418 632.67713267 -386.99489912 634.43661016 -385.76171875 636.19921875 C-381.28411914 642.54943766 -376.32974489 648.40558964 -371.22265625 654.25 C-369.45694258 656.27325453 -367.74712338 658.3181734 -366.07592773 660.42089844 C-360.36143863 667.60527497 -354.17347327 674.10422644 -347.65209961 680.55371094 C-345.9308349 682.25659392 -344.2178334 683.96746929 -342.50585938 685.6796875 C-336.84111581 691.32642746 -331.14006598 696.86493667 -325 702 C-324.09894531 702.75925781 -323.19789063 703.51851562 -322.26953125 704.30078125 C-319.52440698 706.54837902 -316.7675786 708.78009527 -314 711 C-313.02289063 711.78375 -312.04578125 712.5675 -311.0390625 713.375 C-302.71293541 719.91845504 -294.01685164 725.81264172 -285.14990234 731.59667969 C-283.19539284 732.87245991 -281.2473769 734.15750735 -279.30078125 735.4453125 C-265.73721994 744.366994 -251.56925088 751.81667513 -237 758.9375 C-236.3197879 759.27259583 -235.63957581 759.60769165 -234.93875122 759.95294189 C-232.96317231 760.92374132 -230.98253637 761.88334654 -229 762.83984375 C-227.845 763.40050537 -226.69 763.96116699 -225.5 764.53881836 C-222.8313272 765.65293713 -220.53234795 766.42430501 -217.75390625 767.08422852 C-214.33750999 767.91766389 -212.16656144 769.06171586 -209.2109375 770.8671875 C-204.41345133 773.32526346 -199.14740187 774.75020649 -194.01611328 776.36328125 C-192.09902189 776.9687274 -190.18798023 777.59323207 -188.27734375 778.21875 C-163.16564424 786.32097363 -137.25781325 792.20025387 -111 795 C-110.2565332 795.08878418 -109.51306641 795.17756836 -108.74707031 795.26904297 C-81.84963391 798.43753319 -53.8754132 798.28100593 -27 795 C-26.3389325 794.91987671 -25.67786499 794.83975342 -24.99676514 794.75720215 C-2.74119087 792.04373965 19.37121048 788.99281007 40.76953125 782.0390625 C45.5417845 780.5040935 50.36051002 779.13209741 55.17895508 777.75 C58.87753427 776.67569856 62.44058949 775.46675531 66 774 C67.051875 773.71125 68.10375 773.4225 69.1875 773.125 C76.26416232 771.03680456 82.96640574 768.043767 89.68359375 765.015625 C93.74479884 763.23499545 97.87260292 761.61993873 102 760 C102 759.34 102 758.68 102 758 C102.72348633 757.88390381 103.44697266 757.76780762 104.19238281 757.64819336 C107.09040114 756.97912913 109.29172169 756.00506012 111.921875 754.62890625 C112.85676758 754.14196289 113.79166016 753.65501953 114.75488281 753.15332031 C115.74327148 752.62834961 116.73166016 752.10337891 117.75 751.5625 C118.7719043 751.02334961 119.79380859 750.48419922 120.84667969 749.92871094 C132.69850678 743.63022666 144.40969211 737.22349899 155.13671875 729.1171875 C157.97399372 727.01922974 160.8703503 725.0485509 163.79980469 723.08325195 C170.91012265 718.30093574 177.54892992 713.2295282 184.00390625 707.59765625 C186.70120982 705.25905537 189.4527268 703.02928643 192.25 700.8125 C205.81296196 689.77890099 218.63959693 677.28293282 230 664 C230.90572194 662.95787415 231.81201803 661.91624715 232.71875 660.875 C259.99749111 629.45769312 280.83945059 594.3555605 299 557 C299.34546875 556.36835937 299.6909375 555.73671875 300.046875 555.0859375 C301.07898767 552.82713354 301.70420495 550.54628138 302.35693359 548.15527344 C303.7749919 543.40257081 305.60024555 538.7777661 307.3125 534.125 C310.93076545 524.17278432 314.25723476 514.22730446 317 504 C317.50080078 502.16115234 317.50080078 502.16115234 318.01171875 500.28515625 C319.07739994 496.20355518 320.06439183 492.11306423 321 488 C321.29390625 486.71053467 321.29390625 486.71053467 321.59375 485.39501953 C324.51876564 472.30328938 326.64513428 459.18415443 328.25 445.875 C328.33290283 445.19261261 328.41580566 444.51022522 328.5012207 443.80715942 C333.07559912 405.69902427 331.92546654 366.75534495 325 329 C324.81034668 327.94345215 324.62069336 326.8869043 324.42529297 325.79833984 C320.04248099 301.66180313 313.63872912 278.07719346 303.5 255.6875 C302.37579497 252.9238293 301.54890015 250.42809569 300.78125 247.57421875 C298.86366126 241.10235676 295.96046977 235.17465562 293 229.125 C292.46632813 228.01125 291.93265625 226.8975 291.3828125 225.75 C288.74003075 220.10376908 288.74003075 220.10376908 285.3984375 214.87060547 C284 213 284 213 282.8125 209.5625 C278.88879188 198.60038763 270.8336173 188.57345681 264.33398438 178.97216797 C263.42909141 177.6343705 262.52683081 176.29478944 261.62695312 174.95361328 C255.79891001 166.27080992 249.75297844 157.99855493 243 150 C241.60387865 148.25022977 240.20805282 146.5002237 238.8125 144.75 C225.12600531 128.07179305 209.62710577 111.28438122 192.58984375 98.02734375 C190.1020915 96.07991778 187.71763011 94.05189257 185.33154297 91.9831543 C178.2083626 85.82785484 170.76807705 80.31028744 163 75 C161.83138428 74.1970752 161.83138428 74.1970752 160.63916016 73.37792969 C143.43336575 61.59696627 125.81183831 51.00427206 107 42 C106.11860352 41.5776709 105.23720703 41.1553418 104.32910156 40.72021484 C98.93499048 38.13949925 93.53482098 35.57189607 88.12792969 33.01806641 C86.7121464 32.34071254 85.30619889 31.64239564 83.91113281 30.92333984 C81.73153696 29.87029545 79.51325939 29.26518052 77.18359375 28.62890625 C71.07734652 26.87021966 65.05325857 24.79388992 59.12109375 22.51953125 C55.13310799 21.01380037 51.09879576 19.78917789 47 18.625 C42.77147716 17.4192067 38.57837684 16.20376077 34.4296875 14.7421875 C21.01565601 10.05464683 6.98154222 8.20124903 -7.04272461 6.27142334 C-8.8648331 6.01874414 -10.68542129 5.75516791 -12.50585938 5.49072266 C-49.51375466 0.2908655 -90.07742188 0.04860131 -127 6 Z " fill="#FCEDED" transform="translate(547,80)"/>
<path d="M0 0 C11.55 0 23.1 0 35 0 C35 18.48 35 36.96 35 56 C23.45 56 11.9 56 0 56 C0 37.52 0 19.04 0 0 Z " fill="#F7F7F7" transform="translate(590,586)"/>
<path d="M0 0 C11.55 0 23.1 0 35 0 C35 18.48 35 36.96 35 56 C23.45 56 11.9 56 0 56 C0 37.52 0 19.04 0 0 Z " fill="#F7F7F7" transform="translate(336,586)"/>
<path d="M0 0 C11.22 0 22.44 0 34 0 C34 18.48 34 36.96 34 56 C22.78 56 11.56 56 0 56 C0 37.52 0 19.04 0 0 Z " fill="#FBFBFB" transform="translate(540,586)"/>
<path d="M0 0 C11.22 0 22.44 0 34 0 C34 18.48 34 36.96 34 56 C22.78 56 11.56 56 0 56 C0 37.52 0 19.04 0 0 Z " fill="#FBFBFB" transform="translate(489,586)"/>
<path d="M0 0 C11.22 0 22.44 0 34 0 C34 18.48 34 36.96 34 56 C22.78 56 11.56 56 0 56 C0 37.52 0 19.04 0 0 Z " fill="#FCFCFC" transform="translate(438,586)"/>
<path d="M0 0 C11.22 0 22.44 0 34 0 C34 18.48 34 36.96 34 56 C22.78 56 11.56 56 0 56 C0 37.52 0 19.04 0 0 Z " fill="#FBFBFB" transform="translate(387,586)"/>
<path d="M0 0 C0.66 0.33 1.32 0.66 2 1 C-6.1867304 9.90083772 -14.5235656 18.64687663 -23.04779053 27.22503662 C-24.00807171 28.19209826 -24.96664047 29.16086365 -25.92340088 30.13140869 C-31.00048285 35.2759042 -35.93621651 40.04354786 -42 44 C-40.68608209 41.12114702 -39.25342861 38.97132389 -37.0859375 36.671875 C-36.49756104 36.04466553 -35.90918457 35.41745605 -35.30297852 34.77124023 C-34.66674561 34.10423096 -34.0305127 33.43722168 -33.375 32.75 C-32.71491943 32.05269775 -32.05483887 31.35539551 -31.37475586 30.63696289 C-26.49780867 25.51085796 -21.55304512 20.45294449 -16.5625 15.4375 C-15.92554199 14.79586914 -15.28858398 14.15423828 -14.63232422 13.49316406 C-10.74753016 9.62149772 -6.73687936 5.94763088 -2.58178711 2.36743164 C-1.69846462 1.60381236 -0.82564309 0.82564309 0 0 Z " fill="#E87070" transform="translate(207,164)"/>
<path d="M0 0 C52.85349181 -0.64339237 52.85349181 -0.64339237 79 3 C79 3.33 79 3.66 79 4 C71.08382136 4.11454278 63.21670171 3.98419612 55.3125 3.5625 C54.14581787 3.50364624 54.14581787 3.50364624 52.95556641 3.44360352 C49.76996417 3.26085756 47.04183217 3.01394406 44 2 C42.54293083 1.88650152 41.08155041 1.82398525 39.62036133 1.79467773 C38.73967484 1.77473251 37.85898834 1.75478729 36.95161438 1.73423767 C36.00465195 1.71752518 35.05768951 1.70081268 34.08203125 1.68359375 C33.10965012 1.66281265 32.13726898 1.64203156 31.13542175 1.62062073 C28.02785335 1.55521252 24.92020015 1.49628071 21.8125 1.4375 C19.70637142 1.39430649 17.60025144 1.35069193 15.49414062 1.30664062 C10.32951409 1.19954001 5.16480222 1.09824781 0 1 C0 0.67 0 0.34 0 0 Z " fill="#EE8888" transform="translate(456,63)"/>
<path d="M0 0 C0.66 0.33 1.32 0.66 2 1 C-2.68094741 6.594303 -7.68199181 11.82068212 -12.8125 17 C-13.48289307 17.68328369 -14.15328613 18.36656738 -14.84399414 19.07055664 C-15.47942139 19.70727295 -16.11484863 20.34398926 -16.76953125 21 C-17.34292236 21.5775 -17.91631348 22.155 -18.50708008 22.75 C-20 24 -20 24 -22 24 C-22 24.66 -22 25.32 -22 26 C-22.66 25.67 -23.32 25.34 -24 25 C-18.95102033 19.05263618 -13.6081983 13.48392102 -8.0625 8 C-7.28326172 7.22527344 -6.50402344 6.45054687 -5.70117188 5.65234375 C-3.8030758 3.76589243 -1.90266851 1.88183755 0 0 Z " fill="#F8CACA" transform="translate(205,182)"/>
<path d="M0 0 C0.66 0.33 1.32 0.66 2 1 C-6.25 9.25 -14.5 17.5 -23 26 C-23.66 25.67 -24.32 25.34 -25 25 C-17.14714907 16.10544435 -8.79496567 7.96040689 0 0 Z " fill="#F8CDCD" transform="translate(272,240)"/>
<path d="M0 0 C1.11664263 3.3341871 0.86848847 5.35472352 -0.14453125 8.6953125 C-0.54188477 10.01595703 -0.54188477 10.01595703 -0.94726562 11.36328125 C-1.37555664 12.73033203 -1.37555664 12.73033203 -1.8125 14.125 C-2.08642578 15.04410156 -2.36035156 15.96320312 -2.64257812 16.91015625 C-4.73085317 23.73085317 -4.73085317 23.73085317 -7 26 C-6.48743782 19.54171651 -5.26998887 14.05330366 -3 8 C-2.71511719 7.2265625 -2.43023438 6.453125 -2.13671875 5.65625 C-1.43487902 3.76693737 -0.71891793 1.8828803 0 0 Z " fill="#EEA0A0" transform="translate(882,586)"/>
<path d="M0 0 C-2.57525715 1.53617083 -5.158674 3.05388201 -7.75 4.5625 C-8.47960937 5.00013672 -9.20921875 5.43777344 -9.9609375 5.88867188 C-10.66992188 6.29794922 -11.37890625 6.70722656 -12.109375 7.12890625 C-13.08342285 7.70233765 -13.08342285 7.70233765 -14.07714844 8.28735352 C-16.4410801 9.16347293 -17.65942846 8.82193222 -20 8 C-17.23796468 6.46276266 -14.46414848 4.94815839 -11.6875 3.4375 C-10.50897461 2.78104492 -10.50897461 2.78104492 -9.30664062 2.11132812 C-8.1706543 1.49741211 -8.1706543 1.49741211 -7.01171875 0.87109375 C-6.31522217 0.48880615 -5.61872559 0.10651855 -4.90112305 -0.28735352 C-3 -1 -3 -1 0 0 Z " fill="#ED9696" transform="translate(307,102)"/>
</svg>
