<!DOCTYPE svg PUBLIC "-//W3C//DTD SVG 20010904//EN" "http://www.w3.org/TR/2001/REC-SVG-20010904/DTD/svg10.dtd">
<svg version="1.0" xmlns="http://www.w3.org/2000/svg" width="591px" height="591px" viewBox="0 0 5910 5910" preserveAspectRatio="xMidYMid meet">
<g id="layer101" fill="#000000" stroke="none">
 <path d="M2 2953 l-2 -2953 2953 2 2952 3 -2947 2 -2948 3 -3 2948 -2 2947 -3 -2952z"/>
 <path d="M1100 2870 l0 -1740 1745 0 1745 0 0 1740 0 1740 -1745 0 -1745 0 0 -1740z"/>
 </g>
<g id="layer102" fill="#d4d4d4" stroke="none">
 <path d="M2 2953 l-2 -2953 2953 2 2952 3 -2947 2 -2948 3 -3 2948 -2 2947 -3 -2952z"/>
 <path d="M1100 2870 l0 -1740 185 0 186 0 -27 47 c-15 27 -51 89 -79 138 -29 50 -87 150 -129 222 l-76 133 0 1470 0 1470 -30 0 -30 0 0 -1740z"/>
 <path d="M1804 4594 c3 -9 6 -182 6 -385 l0 -369 115 0 115 0 0 369 c0 203 3 376 6 385 5 14 -9 16 -121 16 -112 0 -126 -2 -121 -16z"/>
 <path d="M2688 4225 l2 -385 130 0 130 0 2 385 3 385 -135 0 -135 0 3 -385z"/>
 <path d="M3598 4225 l2 -385 140 0 140 0 2 385 3 385 -145 0 -145 0 3 -385z"/>
 <path d="M4528 3144 l2 -1467 -87 -151 c-47 -83 -117 -204 -155 -268 -37 -64 -68 -119 -68 -122 0 -3 83 -6 185 -6 l185 0 0 1740 0 1740 -32 0 -33 0 3 -1466z"/>
 <path d="M1425 3745 c-30 -29 -32 -68 -5 -95 41 -41 110 -13 110 43 0 38 -7 50 -37 66 -31 16 -41 14 -68 -14z"/>
 <path d="M2355 3758 c-28 -16 -35 -28 -35 -65 0 -56 69 -84 110 -43 29 29 26 74 -6 99 -30 24 -41 25 -69 9z"/>
 <path d="M3270 3763 c-25 -9 -40 -35 -40 -68 0 -60 64 -86 108 -45 29 27 28 65 -3 95 -24 25 -36 28 -65 18z"/>
 <path d="M4165 3745 c-14 -13 -25 -33 -25 -43 0 -33 38 -72 70 -72 32 0 70 39 70 72 0 25 -44 68 -70 68 -11 0 -32 -11 -45 -25z"/>
 <path d="M1810 3035 c0 -305 0 -558 0 -562 0 -5 52 -8 115 -8 63 0 115 3 115 8 0 4 0 257 0 562 l0 555 -115 0 -115 0 0 -555z"/>
 <path d="M2690 3025 l0 -565 130 0 130 0 0 565 0 565 -130 0 -130 0 0 -565z"/>
 <path d="M3600 3025 l0 -565 140 0 140 0 0 565 0 565 -140 0 -140 0 0 -565z"/>
 <path d="M1420 2340 c-27 -27 -25 -66 6 -96 44 -45 104 -14 104 52 0 57 -69 85 -110 44z"/>
 <path d="M2340 2340 c-57 -57 15 -150 79 -103 34 26 40 74 12 102 -27 27 -65 27 -91 1z"/>
 <path d="M3252 2344 c-15 -10 -22 -25 -22 -48 0 -40 17 -63 52 -71 21 -5 33 -1 52 19 63 62 -9 151 -82 100z"/>
 <path d="M4165 2335 c-30 -29 -32 -55 -7 -86 38 -45 122 -16 122 43 0 25 -44 68 -70 68 -11 0 -32 -11 -45 -25z"/>
 <path d="M1810 2198 c0 -7 0 -127 0 -267 l1 -254 -50 -86 c-27 -47 -97 -169 -155 -269 -58 -101 -106 -186 -106 -188 0 -2 191 -4 425 -4 234 0 425 2 425 4 0 2 -48 87 -106 188 -58 100 -128 222 -155 269 l-50 86 1 254 c0 140 0 260 0 267 0 9 -30 12 -115 12 -85 0 -115 -3 -115 -12z"/>
 <path d="M2690 1939 l0 -271 -117 -201 c-64 -111 -133 -231 -154 -267 l-39 -65 437 -3 c240 -1 438 -1 440 1 2 2 -30 61 -72 131 -41 70 -75 129 -75 131 0 1 -36 64 -80 138 l-80 135 0 271 0 271 -130 0 -130 0 0 -271z"/>
 <path d="M3600 1941 l0 -269 -69 -118 c-37 -66 -92 -159 -121 -209 -29 -49 -68 -118 -87 -152 l-34 -63 451 0 c248 0 449 3 447 8 -3 4 -73 125 -156 269 l-151 262 0 270 0 271 -140 0 -140 0 0 -269z"/>
 </g>
<g id="layer103" fill="#fefefe" stroke="none">
 <path d="M2 2953 l-2 -2953 2953 2 2952 3 -2947 2 -2948 3 -3 2948 -2 2947 -3 -2952z"/>
 <path d="M1100 2870 l0 -1740 180 0 c167 0 179 1 173 18 -3 9 -11 24 -18 32 -6 8 -49 80 -94 160 -45 80 -87 152 -91 160 -5 8 -27 46 -50 83 l-40 69 0 1479 0 1479 -30 0 -30 0 0 -1740z"/>
 <path d="M1810 4230 l0 -380 115 0 115 0 0 380 0 380 -115 0 -115 0 0 -380z"/>
 <path d="M2688 4598 c9 -9 12 -107 12 -380 l0 -368 125 0 125 0 2 380 3 380 -139 0 c-109 0 -137 -3 -128 -12z"/>
 <path d="M3598 4230 l2 -380 135 0 135 0 2 380 3 380 -140 0 -140 0 3 -380z"/>
 <path d="M4528 3134 l2 -1476 -85 -147 c-47 -80 -90 -153 -95 -161 -46 -80 -120 -212 -120 -216 0 -2 81 -4 180 -4 l180 0 0 1740 0 1740 -32 0 -33 0 3 -1476z"/>
 <path d="M1440 3750 c-35 -8 -40 -63 -9 -96 28 -30 38 -30 72 1 31 29 33 42 12 72 -17 24 -41 32 -75 23z"/>
 <path d="M2363 3749 c-46 -17 -50 -66 -8 -101 27 -23 38 -22 63 5 48 51 8 120 -55 96z"/>
 <path d="M3273 3749 c-49 -18 -53 -84 -6 -106 37 -18 45 -16 66 13 26 36 19 86 -13 94 -14 4 -35 3 -47 -1z"/>
 <path d="M4185 3748 c-50 -23 -49 -81 2 -105 47 -23 111 41 78 77 -8 9 -15 21 -15 26 0 12 -40 14 -65 2z"/>
 <path d="M1810 3030 l0 -560 115 0 115 0 0 560 0 560 -115 0 -115 0 0 -560z"/>
 <path d="M2707 3583 c-4 -3 -7 -255 -7 -560 l0 -553 125 0 125 0 0 560 0 560 -118 0 c-65 0 -122 -3 -125 -7z"/>
 <path d="M3612 3578 c-9 -9 -12 -140 -12 -560 l0 -548 135 0 135 0 -2 558 -3 557 -120 3 c-85 2 -124 -1 -133 -10z"/>
 <path d="M1436 2337 c-37 -30 -34 -76 8 -96 25 -12 31 -11 55 6 35 27 33 60 -4 89 l-31 23 -28 -22z"/>
 <path d="M2358 2341 c-31 -18 -41 -46 -27 -72 28 -53 101 -41 107 17 2 25 -3 36 -25 51 -26 18 -30 19 -55 4z"/>
 <path d="M3285 2350 c-3 -5 -14 -10 -25 -10 -22 0 -35 -43 -20 -70 29 -54 102 -42 108 16 3 26 -3 36 -27 53 -18 13 -32 17 -36 11z"/>
 <path d="M4185 2347 c-50 -25 -48 -100 3 -110 34 -7 55 1 74 28 14 19 15 27 5 48 -7 14 -19 28 -27 31 -8 4 -19 8 -25 10 -5 2 -19 -1 -30 -7z"/>
 <path d="M1810 1923 l0 -268 -150 -259 c-83 -142 -150 -260 -150 -262 0 -2 187 -4 415 -4 228 0 415 2 415 4 0 3 -16 33 -36 68 -20 35 -40 70 -44 78 -17 30 -142 245 -151 260 -5 8 -15 26 -21 40 -7 14 -20 36 -30 49 -16 21 -18 50 -18 292 l0 269 -115 0 -115 0 0 -267z"/>
 <path d="M2698 1923 l-3 -268 -30 -45 c-16 -25 -35 -56 -42 -70 -7 -14 -17 -32 -22 -40 -14 -23 -141 -244 -179 -311 l-32 -59 430 0 c407 0 430 1 421 18 -5 9 -73 127 -150 261 l-141 244 0 269 0 268 -125 0 -124 0 -3 -267z"/>
 <path d="M3598 1918 l-3 -273 -53 -90 c-29 -49 -57 -97 -62 -105 -5 -8 -37 -64 -71 -125 -34 -60 -67 -117 -74 -125 -6 -8 -16 -27 -23 -42 l-12 -28 440 0 439 0 -155 269 -154 268 0 262 0 261 -135 0 -134 0 -3 -272z"/>
 </g>

</svg>