<?xml version="1.0" encoding="UTF-8"?>
<!-- Generator: visioncortex VTracer 0.6.3 -->
<svg version="1.1" xmlns="http://www.w3.org/2000/svg" width="1240" height="1240">
<path d="M0 0 C409.2 0 818.4 0 1240 0 C1240 409.2 1240 818.4 1240 1240 C830.8 1240 421.6 1240 0 1240 C0 830.8 0 421.6 0 0 Z " fill="#FEFEFE" transform="translate(0,0)"/>
<path d="M0 0 C409.2 0 818.4 0 1240 0 C1240 409.2 1240 818.4 1240 1240 C830.8 1240 421.6 1240 0 1240 C0 830.8 0 421.6 0 0 Z M540.48 23.64 C537.74 24.04 535 24.41 532.26 24.77 C531.29 24.9 530.31 25.03 529.31 25.17 C527.44 25.42 525.57 25.66 523.7 25.91 C501.68 28.87 479.31 33.83 458.1 40.36 C455.43 41.17 452.76 41.97 450.09 42.78 C418 52.47 387.24 64.52 357 79 C355.47 79.73 355.47 79.73 353.92 80.47 C322.94 95.36 293.54 113.45 266 134 C264.96 134.76 263.93 135.53 262.86 136.31 C259.89 138.52 256.94 140.75 254 143 C253.31 143.52 252.63 144.04 251.92 144.58 C243.55 150.97 235.32 157.36 227.65 164.59 C225.31 166.72 222.92 168.65 220.41 170.58 C212.06 177.38 204.59 185.11 197 192.74 C194.38 195.37 191.75 197.99 189.12 200.61 C180.95 208.77 173.1 216.88 166 226 C164.42 227.82 162.78 229.56 161.12 231.31 C155.36 237.59 150.16 244.23 145 251 C144.52 251.63 144.05 252.25 143.55 252.9 C140 257.57 136.49 262.28 133 267 C132.47 267.72 131.93 268.43 131.38 269.17 C123.73 279.47 116.74 289.98 110.19 301.01 C108.54 303.76 106.83 306.47 105.12 309.19 C99.12 318.95 93.57 328.98 88 339 C87.35 340.16 87.35 340.16 86.68 341.35 C68.47 373.87 55.21 409.57 44 445 C43.73 445.86 43.45 446.71 43.17 447.6 C31.77 483.97 25.03 521.76 21.24 559.62 C21.08 561.23 20.91 562.85 20.73 564.46 C18.82 581.93 18.64 599.33 18.68 616.88 C18.69 619.21 18.69 621.55 18.69 623.88 C18.72 646.36 19.14 668.67 22 691 C22.11 691.92 22.22 692.85 22.34 693.8 C22.93 698.58 23.67 703.32 24.5 708.07 C25 711.02 25.48 713.97 25.96 716.92 C28.74 734.13 31.83 751.16 36.23 768.04 C37.01 771.03 37.74 774.02 38.48 777.01 C47.82 814.27 62.46 850.42 79 885 C79.45 885.96 79.91 886.91 80.38 887.89 C97.9 924.46 120.27 959.63 145.64 991.29 C147.03 993.04 148.41 994.82 149.78 996.59 C154.86 1003.17 160.08 1009.46 165.73 1015.55 C167.71 1017.69 169.65 1019.86 171.56 1022.06 C172.71 1023.38 173.85 1024.69 175 1026 C175.87 1027 175.87 1027 176.76 1028.02 C183.34 1035.46 190.3 1042.49 197.32 1049.5 C199.37 1051.56 201.41 1053.62 203.45 1055.68 C209.98 1062.23 216.51 1068.49 223.77 1074.23 C226.44 1076.35 228.9 1078.6 231.38 1080.94 C236.73 1085.85 242.38 1090.27 248.18 1094.63 C250.1 1096.08 252 1097.55 253.9 1099.03 C269.08 1110.81 284.71 1121.92 301.15 1131.88 C302.92 1132.95 304.68 1134.04 306.45 1135.12 C310.27 1137.46 314.13 1139.74 318 1142 C319.27 1142.74 319.27 1142.74 320.56 1143.5 C344.3 1157.3 368.87 1169.28 394.25 1179.75 C394.95 1180.04 395.65 1180.33 396.38 1180.63 C404.16 1183.84 411.96 1186.7 420.05 1189.08 C422.76 1189.92 425.33 1190.89 427.95 1191.98 C434.1 1194.52 440.44 1196.41 446.81 1198.31 C447.46 1198.51 448.1 1198.7 448.76 1198.9 C463.04 1203.16 477.46 1206.73 492 1210 C493.16 1210.26 494.32 1210.52 495.52 1210.79 C503.12 1212.46 510.73 1213.85 518.44 1215 C519.57 1215.17 520.69 1215.34 521.85 1215.51 C524.16 1215.85 526.46 1216.19 528.76 1216.53 C530.77 1216.82 532.78 1217.12 534.78 1217.42 C585.26 1225.06 638.34 1226.46 689 1220 C689.73 1219.91 690.46 1219.82 691.21 1219.72 C714.56 1216.76 737.57 1212.78 760.5 1207.5 C761.74 1207.22 762.98 1206.93 764.26 1206.64 C771.26 1204.99 778.12 1203.11 784.97 1200.95 C788.56 1199.82 792.17 1198.82 795.8 1197.82 C805.11 1195.25 814.13 1192.27 823.12 1188.73 C825.59 1187.77 828.09 1186.86 830.58 1185.95 C886.78 1165.33 940.28 1136.27 987.4 1099.26 C989.07 1097.95 990.74 1096.65 992.42 1095.36 C1004.1 1086.31 1015.28 1076.72 1026.11 1066.68 C1027.95 1064.97 1029.8 1063.28 1031.68 1061.61 C1038.6 1055.39 1045.22 1048.88 1051.81 1042.31 C1052.71 1041.42 1053.6 1040.53 1054.53 1039.61 C1059.56 1034.57 1064.36 1029.41 1069 1024 C1070.45 1022.39 1071.91 1020.79 1073.38 1019.19 C1077.22 1014.92 1080.89 1010.55 1084.5 1006.09 C1086.32 1003.84 1088.15 1001.61 1090 999.38 C1132.57 947.9 1165.46 887.76 1188 825 C1188.66 823.18 1188.66 823.18 1189.33 821.32 C1211.9 758.4 1223.74 691.47 1223.45 624.6 C1223.44 622.39 1223.43 620.19 1223.43 617.98 C1223.4 595.89 1222.46 574.08 1219.53 552.16 C1219.03 548.39 1218.65 544.62 1218.27 540.83 C1217.37 531.75 1216.1 522.85 1214.38 513.88 C1214.19 512.88 1214.19 512.88 1213.99 511.87 C1209.77 489.68 1204.34 467.68 1198 446 C1197.73 445.03 1197.45 444.06 1197.17 443.06 C1196.02 439.04 1194.7 435.18 1193.1 431.31 C1191.46 427.25 1190.04 423.16 1188.72 418.98 C1184.39 405.26 1178.8 392.14 1173 379 C1172.55 377.98 1172.1 376.96 1171.64 375.91 C1154.66 337.53 1134.05 299.8 1108.24 266.62 C1106.45 264.29 1104.76 261.89 1103.06 259.5 C1098.17 252.73 1092.83 246.31 1087.52 239.86 C1086.2 238.24 1084.89 236.62 1083.59 234.99 C1078.69 228.9 1073.53 223.13 1068.19 217.43 C1065.72 214.8 1063.33 212.12 1060.94 209.42 C1055.71 203.59 1050.2 198.05 1044.65 192.52 C1042.93 190.81 1041.22 189.09 1039.51 187.37 C1033.84 181.7 1028.13 176.17 1022 171 C1020.92 170.06 1019.83 169.12 1018.75 168.18 C1003.63 155.14 988.24 142.64 972 131 C970.76 130.11 970.76 130.11 969.5 129.2 C958.75 121.48 947.84 114.18 936.44 107.45 C933.83 105.9 931.23 104.33 928.63 102.77 C896.48 83.57 862.99 67.6 827.73 54.98 C824.14 53.69 820.57 52.35 817 51 C799.04 44.28 780.6 39.57 762 35 C760.59 34.65 759.18 34.29 757.78 33.94 C757.07 33.76 756.37 33.58 755.64 33.4 C753.7 32.91 751.76 32.42 749.82 31.93 C748.56 31.62 747.3 31.32 746 31 C745.01 30.76 745.01 30.76 743.99 30.51 C737.32 28.95 730.59 27.97 723.81 27 C722.01 26.74 722.01 26.74 720.17 26.47 C716.78 25.98 713.39 25.49 710 25 C708.55 24.79 707.1 24.58 705.65 24.37 C703.46 24.05 701.26 23.74 699.07 23.43 C696.95 23.13 694.83 22.82 692.71 22.51 C668.8 19.07 644.86 18.56 620.75 18.56 C619.95 18.56 619.16 18.56 618.33 18.56 C592.12 18.53 566.45 19.77 540.48 23.64 Z " fill="#FFFEFE" transform="translate(0,0)"/>
<path d="M0 0 C2.34 -0 4.69 -0.01 7.03 -0.02 C27.13 -0.05 46.89 0.96 66.87 3.15 C70.48 3.54 74.09 3.9 77.71 4.24 C86.01 5.06 94.19 6.51 102.38 8.09 C106.42 8.86 110.39 9.56 114.48 9.93 C119.09 10.4 123.44 11.52 127.91 12.69 C131.09 13.5 134.28 14.21 137.49 14.89 C150.27 17.61 162.72 20.66 175.1 24.84 C177.97 25.8 180.87 26.68 183.77 27.56 C184.78 27.87 185.79 28.18 186.84 28.51 C189.22 29.24 191.62 29.96 194.01 30.68 C195.39 31.1 196.76 31.52 198.14 31.94 C199.37 32.31 200.6 32.68 201.86 33.06 C206.34 34.51 210.64 36.36 214.97 38.2 C217.88 39.41 220.8 40.58 223.73 41.72 C288.39 66.88 349.82 103.51 401.08 150.5 C402.41 151.67 403.74 152.84 405.08 154 C406.41 155.16 407.75 156.33 409.08 157.5 C410.12 158.41 410.12 158.41 411.19 159.35 C417.88 165.29 424.25 171.51 430.56 177.85 C432.27 179.57 433.99 181.28 435.71 182.99 C441.38 188.66 446.89 194.38 452.08 200.5 C453.53 202.11 454.99 203.71 456.45 205.31 C461.18 210.56 465.65 215.99 470.08 221.5 C471 222.63 471.93 223.76 472.86 224.9 C480.08 233.77 486.85 242.92 493.48 252.25 C495.03 254.43 496.6 256.61 498.18 258.79 C504.85 268.04 510.97 277.53 516.79 287.34 C517.98 289.33 519.18 291.31 520.39 293.29 C542.96 330.51 562.72 370.94 574.93 412.82 C576.01 416.52 576.01 416.52 577.61 420.03 C579.13 423.63 580.07 427.07 580.95 430.87 C582.28 436.44 583.77 441.91 585.45 447.37 C595.16 479.62 599.61 512.76 603.06 546.15 C603.15 547 603.24 547.85 603.33 548.73 C604.53 560.56 605.25 572.3 605.32 584.2 C605.32 584.88 605.33 585.56 605.33 586.27 C605.37 591.43 605.38 596.59 605.39 601.75 C605.39 602.88 605.39 602.88 605.4 604.04 C605.5 663.4 597.48 722.91 579.08 779.5 C578.69 780.72 578.29 781.95 577.89 783.21 C567.32 816.29 554.83 848.53 538.34 879.14 C537.08 881.49 535.86 883.85 534.64 886.21 C517.72 919.07 496.74 950.25 473.39 978.89 C471.53 981.17 469.71 983.49 467.89 985.81 C464.49 990.07 460.89 994.12 457.22 998.14 C455.37 1000.18 453.56 1002.23 451.77 1004.31 C443.28 1014 434.42 1023.25 425.33 1032.37 C424.44 1033.26 423.55 1034.16 422.64 1035.08 C418.16 1039.54 413.63 1043.87 408.83 1047.99 C406.42 1050.06 404.1 1052.22 401.77 1054.37 C397.33 1058.41 392.8 1062.27 388.13 1066.03 C385.9 1067.84 383.67 1069.66 381.46 1071.49 C371.64 1079.61 361.5 1087.17 351.08 1094.5 C350.4 1094.97 349.73 1095.45 349.03 1095.94 C303.71 1127.86 253.77 1154.19 201.03 1171.49 C197.33 1172.71 193.72 1174.03 190.12 1175.53 C184.37 1177.88 178.46 1179.44 172.45 1181 C170.73 1181.45 170.73 1181.45 168.97 1181.92 C161.74 1183.83 154.49 1185.7 147.22 1187.47 C144.38 1188.17 141.54 1188.9 138.71 1189.65 C126.46 1192.86 114.21 1195.2 101.7 1197.12 C100.76 1197.27 99.81 1197.42 98.83 1197.57 C83.4 1199.99 67.97 1201.97 52.4 1203.23 C50.29 1203.4 48.18 1203.58 46.07 1203.76 C38.47 1204.39 30.93 1204.67 23.31 1204.7 C21.53 1204.71 21.53 1204.71 19.72 1204.72 C15.9 1204.74 12.09 1204.75 8.27 1204.75 C6.95 1204.75 5.64 1204.75 4.29 1204.75 C-18.24 1204.74 -40.53 1203.95 -62.92 1201.5 C-63.73 1201.41 -64.53 1201.32 -65.36 1201.23 C-85.72 1199 -105.73 1195.95 -125.69 1191.25 C-128.91 1190.5 -132.13 1189.8 -135.37 1189.1 C-157.05 1184.37 -178.64 1178.28 -199.42 1170.44 C-201.31 1169.73 -203.2 1169.03 -205.09 1168.33 C-226.27 1160.53 -246.68 1151.47 -266.92 1141.5 C-268.01 1140.96 -269.1 1140.43 -270.22 1139.87 C-306.51 1121.8 -340.9 1099.43 -372.31 1073.81 C-374.6 1071.95 -376.92 1070.13 -379.23 1068.31 C-383.39 1064.99 -387.33 1061.46 -391.25 1057.87 C-393.64 1055.75 -396.08 1053.8 -398.6 1051.84 C-406.5 1045.4 -413.58 1038.11 -420.75 1030.88 C-423.18 1028.43 -425.61 1025.99 -428.05 1023.56 C-429.62 1021.99 -431.18 1020.41 -432.75 1018.84 C-433.47 1018.12 -434.18 1017.4 -434.92 1016.66 C-439.45 1012.1 -443.74 1007.38 -447.92 1002.5 C-448.87 1001.4 -449.82 1000.31 -450.77 999.22 C-467.78 979.53 -483.46 959.12 -497.92 937.5 C-498.45 936.71 -498.98 935.93 -499.52 935.12 C-517.72 907.99 -533.32 879.19 -546.92 849.5 C-547.21 848.87 -547.5 848.24 -547.81 847.6 C-561.85 817.26 -572.86 784.89 -580.92 752.5 C-581.21 751.34 -581.5 750.18 -581.8 748.98 C-593.49 702.02 -599.32 654.74 -599.24 606.35 C-599.23 603.37 -599.24 600.4 -599.26 597.43 C-599.73 518.94 -583.75 439.37 -552.19 367.39 C-550.84 364.32 -549.52 361.23 -548.21 358.14 C-543.08 346.19 -537.63 334.52 -531.37 323.13 C-529.74 320.16 -528.13 317.18 -526.52 314.2 C-514.68 292.41 -501.52 271.56 -486.92 251.5 C-486.38 250.74 -485.84 249.99 -485.28 249.21 C-474.9 234.81 -463.82 221.12 -452.23 207.69 C-451.76 207.14 -451.29 206.59 -450.8 206.02 C-441.28 195.08 -431.28 184.67 -421.02 174.42 C-418.92 172.31 -416.82 170.19 -414.73 168.08 C-408.12 161.45 -401.52 155.08 -394.16 149.28 C-391.36 147.05 -388.81 144.66 -386.23 142.19 C-379.85 136.2 -372.88 131.08 -365.83 125.91 C-363.07 123.86 -360.37 121.74 -357.67 119.62 C-337.82 104.33 -316.64 90.95 -294.92 78.5 C-294.24 78.1 -293.56 77.71 -292.85 77.31 C-248.97 52.1 -201.53 32.36 -152.41 20.13 C-149.04 19.28 -145.7 18.36 -142.36 17.44 C-123.29 12.39 -104.15 8.8 -84.62 6.15 C-81.48 5.72 -78.35 5.27 -75.22 4.79 C-50.16 1.03 -25.3 0.01 0 0 Z M-84.92 122.5 C-86.48 122.78 -88.04 123.02 -89.61 123.25 C-163.93 135.38 -236.3 169.88 -295.31 216.23 C-297.01 217.57 -298.73 218.89 -300.45 220.21 C-306.96 225.24 -313.21 230.4 -319.23 236.01 C-320.63 237.31 -322.04 238.6 -323.5 239.83 C-330.29 245.61 -336.55 251.94 -342.85 258.24 C-344.85 260.23 -346.85 262.22 -348.86 264.21 C-356.01 271.34 -362.68 278.55 -368.92 286.5 C-369.89 287.66 -370.87 288.81 -371.86 289.96 C-422.96 349.44 -456.27 421.63 -474.05 497.62 C-474.29 498.65 -474.53 499.67 -474.78 500.72 C-478 514.71 -480.24 528.76 -481.8 543.02 C-482.05 545.26 -482.3 547.5 -482.56 549.74 C-482.97 553.36 -483.35 556.97 -483.73 560.58 C-483.9 562.26 -484.08 563.93 -484.25 565.61 C-485.32 577.05 -485.12 588.58 -485.11 600.06 C-485.11 601.2 -485.11 602.34 -485.11 603.52 C-485.06 631.38 -482.8 658.06 -477.92 685.5 C-477.71 686.72 -477.5 687.93 -477.28 689.19 C-474.94 702.76 -472.32 716.15 -468.52 729.39 C-467.95 731.4 -467.4 733.41 -466.85 735.42 C-453.84 782.19 -433.37 826.85 -406.92 867.5 C-406.24 868.56 -405.55 869.63 -404.84 870.72 C-395.73 884.65 -385.79 897.99 -375.25 910.87 C-374.05 912.34 -372.88 913.82 -371.7 915.31 C-361.52 928.1 -349.89 939.63 -338.39 951.21 C-337.26 952.34 -336.13 953.48 -335.01 954.62 C-327.97 961.74 -320.77 968.27 -312.92 974.5 C-311.84 975.41 -310.77 976.33 -309.71 977.26 C-294.74 990.27 -278.61 1001.82 -261.92 1012.5 C-261.11 1013.02 -260.29 1013.54 -259.45 1014.08 C-223.75 1036.86 -184.67 1056.47 -143.92 1068.5 C-142.54 1068.91 -142.54 1068.91 -141.13 1069.33 C-126.99 1073.51 -112.79 1077.03 -98.36 1079.99 C-96.14 1080.45 -93.94 1080.96 -91.73 1081.48 C-85.73 1082.82 -79.65 1083.74 -73.57 1084.68 C-71.55 1084.99 -69.52 1085.32 -67.5 1085.64 C-44.76 1089.21 -21.89 1089.88 1.1 1089.82 C3.18 1089.81 5.25 1089.81 7.33 1089.81 C27.71 1089.77 47.86 1089.31 68.08 1086.5 C69.3 1086.33 70.52 1086.17 71.77 1086 C82.3 1084.53 92.72 1082.89 103.08 1080.5 C105.04 1080.06 107.01 1079.63 108.98 1079.2 C121.25 1076.47 133.32 1073.52 145.22 1069.47 C147.99 1068.53 150.76 1067.61 153.54 1066.69 C170.69 1060.98 187.55 1054.86 204.08 1047.5 C204.91 1047.13 205.73 1046.76 206.58 1046.38 C243.43 1029.81 277.66 1007.8 309.08 982.5 C310.05 981.72 311.03 980.94 312.04 980.13 C317.33 975.85 322.47 971.43 327.5 966.83 C328.89 965.57 330.3 964.31 331.73 963.09 C337.62 958.06 343.09 952.64 348.55 947.16 C350.14 945.56 351.73 943.98 353.32 942.39 C358.78 936.93 364.08 931.39 369.08 925.5 C370.02 924.43 370.95 923.36 371.89 922.29 C418.07 869.28 450.51 807.41 471.16 740.47 C471.95 737.93 472.75 735.38 473.57 732.85 C477.43 720.63 479.75 708.08 482.08 695.5 C482.26 694.5 482.45 693.51 482.64 692.49 C484.56 682 486.29 671.49 487.77 660.94 C487.89 660.09 488 659.25 488.13 658.38 C489.77 646.13 490.24 633.87 490.32 621.52 C490.32 620.83 490.33 620.15 490.33 619.44 C490.37 614.25 490.38 609.06 490.39 603.87 C490.39 602.73 490.39 602.73 490.4 601.57 C490.43 579.54 490.03 557.83 486.62 536.02 C486.09 532.6 485.64 529.18 485.2 525.74 C480.53 490.38 469.78 455.72 457.08 422.5 C456.81 421.79 456.54 421.08 456.26 420.35 C438.65 374.3 411.94 331.09 380.5 293.23 C379.25 291.71 378.02 290.16 376.79 288.62 C366.67 275.9 355.1 264.43 343.64 252.94 C342.72 252.01 341.79 251.08 340.84 250.12 C335.75 245.04 330.56 240.16 325.08 235.5 C323.95 234.51 322.82 233.53 321.69 232.54 C299.55 213.33 275.45 196.17 250.08 181.5 C249.19 180.98 248.3 180.47 247.38 179.94 C208.41 157.44 167.22 139.99 123.45 129.33 C121.06 128.74 118.68 128.14 116.3 127.52 C106.73 125.04 97.14 123.08 87.39 121.44 C86.64 121.31 85.9 121.18 85.13 121.05 C70.17 118.51 55.2 116.78 40.08 115.5 C39.13 115.41 38.18 115.31 37.2 115.22 C26.04 114.21 14.84 114.17 3.64 114.12 C1.98 114.12 1.98 114.12 0.29 114.11 C-43.25 112.75 -43.25 112.75 -84.92 122.5 Z " fill="#FF0000" transform="translate(617.921875,18.501895904541016)"/>
<path d="M0 0 C10.39 9.33 18.51 20.01 25.41 32.13 C26.07 33.26 26.73 34.39 27.41 35.55 C44.94 66.38 51.44 102.71 55.6 137.51 C55.69 138.21 55.77 138.92 55.86 139.65 C56.1 141.74 56.34 143.82 56.58 145.9 C56.72 147.1 56.85 148.31 57 149.54 C58.28 162.68 58.61 175.81 58.69 189 C58.7 190.32 58.7 190.32 58.71 191.66 C58.75 198.3 58.78 204.93 58.79 211.57 C58.79 212.54 58.79 213.52 58.79 214.52 C58.89 283.3 55.37 364.66 7.41 419.13 C6.61 420.06 6.61 420.06 5.78 421.01 C-8.92 436.86 -31.2 447.55 -52.72 449.04 C-83.48 450 -109.06 444.3 -132.29 422.75 C-180.57 376.65 -186.96 303.34 -188.59 240.13 C-189.12 213.47 -189.28 186.75 -186.86 160.17 C-186.6 157.23 -186.38 154.29 -186.18 151.35 C-184.62 129.28 -181.63 106.45 -175.59 85.13 C-175.32 84.18 -175.05 83.22 -174.78 82.24 C-170.55 67.28 -165.6 53.01 -158.59 39.13 C-158.04 38.05 -158.04 38.05 -157.49 36.95 C-144.11 10.86 -123.39 -9.71 -95.25 -19.15 C-62.89 -29.52 -25.56 -22.22 0 0 Z " fill="#010101" transform="translate(736.587158203125,423.869384765625)"/>
<path d="M0 0 C4.49 3.24 8.5 6.89 12.44 10.76 C13.06 11.37 13.67 11.97 14.31 12.59 C36.45 36.06 41.32 71.51 44.25 102.25 C44.5 104.93 44.77 107.6 45.03 110.28 C45.2 112.04 45.37 113.8 45.54 115.55 C45.62 116.33 45.69 117.1 45.77 117.89 C47.07 131.74 47.6 145.54 47.57 159.43 C47.57 160.97 47.58 162.51 47.58 164.05 C47.58 167.25 47.58 170.45 47.57 173.65 C47.57 177.69 47.57 181.72 47.58 185.76 C47.6 202.44 47.58 219.11 46.44 235.76 C46.32 237.48 46.32 237.48 46.2 239.24 C46 242 45.76 244.75 45.5 247.51 C45.42 248.47 45.33 249.43 45.24 250.41 C44.98 253.2 44.71 255.98 44.44 258.76 C44.37 259.53 44.29 260.3 44.22 261.09 C41.14 292.63 34.58 326.81 12.44 350.76 C11.73 351.56 11.03 352.36 10.3 353.18 C0.47 363.74 -11.35 369.63 -25.68 370.21 C-43.44 370.54 -55.7 364.3 -68.62 352.2 C-77.3 343.22 -84.04 332.39 -88.56 320.76 C-88.98 319.74 -89.39 318.73 -89.82 317.68 C-93.72 307.61 -95.71 297.37 -97.56 286.76 C-97.73 285.83 -97.9 284.91 -98.07 283.95 C-100.52 270.33 -102.08 256.7 -103.15 242.91 C-103.22 242.07 -103.28 241.24 -103.35 240.38 C-104.79 221.52 -105.07 202.72 -105.01 183.82 C-105 181.15 -104.99 178.48 -104.99 175.81 C-104.94 149.03 -104.22 122.51 -100.83 95.92 C-100.57 93.82 -100.32 91.73 -100.07 89.63 C-96.65 60.74 -89.27 32.04 -69.56 9.76 C-69.01 9.13 -68.46 8.49 -67.89 7.84 C-49.96 -11.46 -21.88 -13.95 0 0 Z " fill="#FEFEFE" transform="translate(700.55859375,456.23828125)"/>
<path d="M0 0 C4.2 3.46 8.1 7.2 12 11 C12.63 11.56 13.26 12.12 13.91 12.69 C33.92 30.85 44.55 60.95 46.2 87.23 C46.62 98.88 46.59 110.59 44 122 C43.74 123.24 43.49 124.49 43.22 125.77 C37.29 152.94 21.09 175.9 -2.35 190.97 C-2.89 191.31 -3.44 191.65 -4 192 C-1.35 193.76 1.03 194.81 3.99 195.9 C12.12 198.92 19.01 202.81 26 208 C27.58 209.14 27.58 209.14 29.19 210.31 C51.56 231.7 63.35 263.67 64.39 294.26 C64.47 298.4 64.47 302.54 64.44 306.69 C64.44 307.56 64.43 308.43 64.43 309.32 C64.37 323.21 63.37 336.48 60 350 C59.85 350.68 59.69 351.35 59.53 352.05 C57.32 361.65 53.42 370.25 49 379 C48.16 380.69 48.16 380.69 47.31 382.41 C31.78 412.61 4.43 435.26 -27.44 446.38 C-56.82 455.46 -89.13 452.58 -116.31 438.38 C-149.03 420.76 -167.6 390.64 -178 356 C-180.15 348.78 -181.51 341.48 -182.75 334.06 C-182.89 333.24 -183.03 332.43 -183.17 331.58 C-183.3 330.8 -183.42 330.03 -183.55 329.22 C-183.71 328.18 -183.71 328.18 -183.89 327.12 C-184.02 324.61 -183.58 322.44 -183 320 C-176.93 319 -170.86 318 -164.79 317.01 C-162.73 316.67 -160.66 316.33 -158.6 315.99 C-155.63 315.5 -152.67 315.02 -149.7 314.53 C-148.77 314.38 -147.85 314.23 -146.9 314.07 C-146.04 313.93 -145.17 313.79 -144.29 313.64 C-143.15 313.46 -143.15 313.46 -141.99 313.27 C-140 313 -140 313 -137 313 C-136.65 314.89 -136.65 314.89 -136.3 316.81 C-131.7 341.23 -124.65 365.93 -108 385 C-107.46 385.64 -106.91 386.28 -106.36 386.93 C-99.45 394.47 -89.87 399.54 -80 402 C-79.3 402.18 -78.59 402.37 -77.87 402.55 C-58.42 405.57 -39.45 401.84 -23.18 390.76 C-5.1 377.5 5.28 358.3 11 337 C11.18 336.36 11.36 335.72 11.54 335.07 C18.66 308.53 14.26 277.61 1.07 253.83 C-1.59 249.27 -4.64 245.08 -8 241 C-8.52 240.37 -9.03 239.74 -9.57 239.09 C-19.88 227.74 -36.04 219.81 -51.23 218.86 C-64.08 218.33 -75.61 219.64 -88 223 C-89.33 223.34 -90.67 223.67 -92 224 C-90.8 207.27 -89.14 190.64 -87 174 C-85.91 174.02 -84.82 174.05 -83.7 174.07 C-60.53 174.42 -39.55 168.74 -22.44 152.45 C-18.7 148.68 -15.77 144.51 -13 140 C-12.45 139.12 -11.89 138.25 -11.32 137.34 C-0.31 117.89 -0.21 91.12 -6 70 C-8.69 61.69 -12.69 54.89 -18 48 C-18.74 46.97 -19.49 45.94 -20.25 44.88 C-29.69 35.01 -43.21 27.2 -57.07 26.7 C-58.95 26.68 -60.82 26.68 -62.69 26.69 C-63.67 26.69 -64.65 26.7 -65.65 26.7 C-82.74 26.99 -94.95 32.95 -107 45 C-107.64 45.64 -108.28 46.28 -108.93 46.93 C-123.41 62.44 -128.91 84.12 -131.61 104.62 C-132 107 -132 107 -133 108 C-142.75 107.54 -152.15 105.1 -161.62 102.94 C-163.31 102.56 -165 102.18 -166.69 101.79 C-170.8 100.87 -174.9 99.94 -179 99 C-178.02 89.96 -176.92 81.22 -174.25 72.5 C-173.99 71.62 -173.72 70.73 -173.45 69.82 C-163.1 35.66 -145.35 8.42 -114 -10 C-78.09 -29.15 -32.14 -24.5 0 0 Z " fill="#010101" transform="translate(437,422)"/>
<path d="M0 0 C0 38.28 0 76.56 0 116 C15.51 116 31.02 116 47 116 C47 130.52 47 145.04 47 160 C31.49 160 15.98 160 0 160 C0.09 187.84 0.18 215.69 0.29 243.53 C0.34 256.46 0.38 269.38 0.42 282.31 C0.45 293.58 0.49 304.85 0.54 316.12 C0.57 322.09 0.59 328.05 0.6 334.02 C0.62 339.64 0.64 345.26 0.67 350.88 C0.68 352.94 0.68 355 0.68 357.05 C0.07 377.62 0.07 377.62 8.31 395.75 C13.42 400.03 17.5 401.38 24.15 401.29 C24.81 401.29 25.46 401.28 26.14 401.28 C28.22 401.26 30.3 401.23 32.38 401.19 C33.79 401.17 35.21 401.16 36.63 401.15 C40.09 401.11 43.54 401.06 47 401 C47.7 406.03 48.39 411.06 49.08 416.09 C49.32 417.8 49.55 419.51 49.79 421.21 C51.17 431.13 52.41 441 53 451 C41.46 454.26 30.44 455.39 18.44 455.38 C17.17 455.38 15.9 455.38 14.59 455.38 C-1.29 455.2 -14.93 451.79 -27 441 C-27.64 440.44 -28.28 439.89 -28.93 439.31 C-37.22 431.61 -41.81 420.98 -43.62 409.94 C-43.75 409.28 -43.87 408.61 -43.99 407.93 C-46.45 393.61 -46.14 379.05 -46.11 364.57 C-46.11 362.33 -46.11 360.1 -46.11 357.86 C-46.11 351.82 -46.11 345.78 -46.1 339.74 C-46.1 333.42 -46.09 327.09 -46.09 320.77 C-46.09 310.17 -46.08 299.56 -46.08 288.96 C-46.07 278.04 -46.06 267.13 -46.05 256.22 C-46.05 255.54 -46.05 254.87 -46.05 254.17 C-46.05 250.79 -46.05 247.41 -46.05 244.02 C-46.04 216.01 -46.02 188.01 -46 160 C-57.55 160 -69.1 160 -81 160 C-81 145.48 -81 130.96 -81 116 C-69.45 116 -57.9 116 -46 116 C-46.06 113.53 -46.12 111.07 -46.17 108.52 C-46.36 100.35 -46.48 92.18 -46.57 84 C-46.63 79.05 -46.7 74.09 -46.83 69.14 C-46.95 64.36 -47.02 59.57 -47.04 54.79 C-47.06 52.96 -47.1 51.14 -47.16 49.32 C-47.61 35.07 -47.61 35.07 -43.6 29.91 C-40.83 27.62 -38.11 25.78 -35 24 C-33.83 23.16 -32.67 22.3 -31.53 21.43 C-30.03 20.38 -30.03 20.38 -28.5 19.31 C-24.27 16.35 -20.09 13.34 -15.95 10.25 C-14.66 9.29 -14.66 9.29 -13.34 8.31 C-11.63 7.03 -9.92 5.75 -8.22 4.47 C-7.05 3.6 -7.05 3.6 -5.86 2.71 C-5.16 2.19 -4.47 1.67 -3.75 1.13 C-2 0 -2 0 0 0 Z " fill="#010101" transform="translate(913,414)"/>
</svg>
