<!DOCTYPE svg PUBLIC "-//W3C//DTD SVG 20010904//EN" "http://www.w3.org/TR/2001/REC-SVG-20010904/DTD/svg10.dtd">
<svg version="1.0" xmlns="http://www.w3.org/2000/svg" width="1200px" height="1200px" viewBox="0 0 12000 12000" preserveAspectRatio="xMidYMid meet">
<g id="layer101" fill="#010101" stroke="none">
<path d="M0 6000 l0 -6000 6000 0 6000 0 0 6000 0 6000 -6000 0 -6000 0 0 -6000z"/>
</g>
<g id="layer102" fill="#773e18" stroke="none">
<path d="M0 6000 l0 -6000 6000 0 6000 0 0 6000 0 6000 -6000 0 -6000 0 0 -6000z m9690 2740 l0 -130 -125 0 -125 0 0 -1225 0 -1225 125 0 125 0 0 -130 0 -130 -125 0 -125 0 0 -1240 0 -1240 125 0 126 0 -3 -132 -3 -133 -3740 0 -3740 0 0 130 0 130 143 3 142 3 0 1239 0 1239 -142 3 -143 3 0 125 0 125 140 5 140 5 3 1222 2 1222 -142 3 -143 3 -3 114 c-1 63 0 121 2 128 4 11 670 13 3746 13 l3740 0 0 -130z"/>
</g>
<g id="layer103" fill="#ffffff" stroke="none">
<path d="M0 6000 l0 -6000 6000 0 6000 0 0 6000 0 6000 -6000 0 -6000 0 0 -6000z m9840 5717 c506 -87 901 -287 1246 -631 289 -289 476 -615 578 -1006 78 -297 71 76 71 -4070 0 -3534 -1 -3710 -18 -3820 -61 -387 -180 -680 -402 -993 -86 -121 -279 -327 -393 -418 -90 -73 -274 -195 -373 -248 -178 -95 -428 -179 -674 -224 l-120 -22 -3660 -3 c-2619 -2 -3697 0 -3790 8 -524 45 -1004 269 -1376 642 -367 368 -587 835 -638 1352 -15 150 -15 7300 -1 7447 22 212 74 428 150 620 107 268 274 519 487 733 127 128 227 208 389 312 143 91 193 117 344 177 212 85 435 139 645 157 50 4 1742 7 3760 6 3476 -1 3676 -2 3775 -19z"/>
<path d="M2290 10815 c-552 -87 -988 -521 -1085 -1079 -13 -78 -15 -504 -15 -3726 0 -3295 2 -3645 16 -3731 45 -266 162 -494 352 -691 192 -199 424 -324 702 -380 53 -11 755 -13 3760 -13 l3695 0 108 27 c454 116 795 431 942 871 70 210 65 -74 65 3918 0 3089 -2 3618 -15 3699 -42 282 -170 536 -370 735 -178 179 -388 294 -661 362 -65 16 -301 17 -3739 19 -3025 2 -3685 0 -3755 -11z m7400 -2075 l0 -130 -125 0 -125 0 0 -1225 0 -1225 125 0 125 0 0 -130 0 -130 -125 0 -125 0 0 -1240 0 -1240 125 0 126 0 -3 -132 -3 -133 -3740 0 -3740 0 0 130 0 130 143 3 142 3 0 1239 0 1239 -142 3 -143 3 0 125 0 125 140 5 140 5 3 1222 2 1222 -142 3 -143 3 -3 114 c-1 63 0 121 2 128 4 11 670 13 3746 13 l3740 0 0 -130z"/>
<path d="M2760 7385 l0 -1225 510 0 510 0 0 1225 0 1225 -510 0 -510 0 0 -1225z"/>
<path d="M4045 8598 c-3 -7 -4 -557 -3 -1223 l3 -1210 560 0 560 0 0 1220 0 1220 -558 3 c-441 2 -559 0 -562 -10z"/>
<path d="M5430 7385 l0 -1225 513 2 512 3 3 1223 2 1222 -515 0 -515 0 0 -1225z"/>
<path d="M6722 7388 l3 -1223 578 -3 577 -2 0 1225 0 1225 -580 0 -580 0 2 -1222z"/>
<path d="M8150 7385 l0 -1225 510 0 510 0 0 1225 0 1225 -510 0 -510 0 0 -1225z"/>
<path d="M2760 4670 l0 -1220 510 0 510 0 0 1220 0 1220 -510 0 -510 0 0 -1220z"/>
<path d="M4040 4670 l0 -1220 565 0 565 0 0 1220 0 1220 -565 0 -565 0 0 -1220z"/>
<path d="M5430 4670 l0 -1220 515 0 515 0 0 1220 0 1220 -515 0 -515 0 0 -1220z"/>
<path d="M6720 4670 l0 -1220 580 0 580 0 0 1220 0 1220 -580 0 -580 0 0 -1220z"/>
<path d="M8150 4670 l0 -1220 510 0 510 0 0 1220 0 1220 -510 0 -510 0 0 -1220z"/>
</g>


</svg>