<!DOCTYPE svg PUBLIC "-//W3C//DTD SVG 20010904//EN" "http://www.w3.org/TR/2001/REC-SVG-20010904/DTD/svg10.dtd">
<svg version="1.0" xmlns="http://www.w3.org/2000/svg" width="2480px" height="2480px" viewBox="0 0 12000 12000" preserveAspectRatio="xMidYMid meet">
<g id="layer101" fill="#ff0000" stroke="none">
 <path d="M0 6000 l0 -6000 6000 0 6000 0 0 6000 0 6000 -6000 0 -6000 0 0 -6000z"/>
 </g>
<g id="layer102" fill="#ffcccc" stroke="none">
 <path d="M0 6000 l0 -6000 6000 0 6000 0 0 6000 0 6000 -6000 0 -6000 0 0 -6000z m11890 -5 l0 -5915 -5895 0 -5895 0 0 5915 0 5915 5895 0 5895 0 0 -5915z"/>
 <path d="M5885 11134 c-209 -30 -326 -64 -480 -141 -134 -67 -229 -136 -345 -253 -243 -242 -376 -528 -411 -880 -32 -331 73 -701 276 -972 436 -580 1224 -719 1824 -321 111 73 272 230 351 341 118 166 211 384 246 582 24 131 23 373 -1 500 -109 577 -538 1017 -1096 1125 -82 16 -305 28 -364 19z"/>
 <path d="M5290 7119 c-388 -358 -818 -754 -957 -882 l-252 -232 479 -3 480 -2 0 -2585 0 -2585 955 0 955 0 0 2585 0 2585 482 2 481 3 -179 165 c-170 157 -690 636 -1384 1274 -173 159 -324 297 -335 307 -19 17 -39 0 -725 -632z"/>
 </g>
<g id="layer103" fill="#ffffff" stroke="none">
 <path d="M0 6000 l0 -6000 6000 0 6000 0 0 6000 0 6000 -6000 0 -6000 0 0 -6000z m11900 -5 l0 -5915 -5900 0 -5900 0 0 5915 0 5915 5900 0 5900 0 0 -5915z"/>
 <path d="M5785 11115 c-177 -33 -308 -80 -442 -159 -234 -138 -408 -320 -532 -557 -64 -122 -94 -202 -127 -346 -25 -107 -28 -136 -29 -308 0 -163 3 -206 23 -299 30 -140 60 -224 129 -359 192 -376 545 -642 961 -724 120 -23 357 -23 475 0 389 78 724 314 920 649 89 151 134 269 173 448 28 129 26 439 -3 572 -30 133 -65 232 -119 341 -202 402 -555 666 -993 742 -102 18 -339 18 -436 0z"/>
 <path d="M5843 7623 c-81 -76 -204 -190 -273 -253 -110 -100 -413 -379 -1249 -1149 l-234 -216 476 -3 477 -2 0 -2580 0 -2580 955 0 955 0 0 2580 0 2580 479 2 480 3 -446 410 c-245 226 -570 525 -723 665 -152 140 -379 350 -505 465 -125 116 -231 211 -235 213 -5 2 -75 -59 -157 -135z"/>
 </g>

</svg>