<?xml version="1.0" encoding="UTF-8"?>
<!-- Generator: visioncortex VTracer 0.6.3 -->
<svg version="1.1" xmlns="http://www.w3.org/2000/svg" width="2480" height="2480">
<path d="M0 0 C818.4 0 1636.8 0 2480 0 C2480 818.4 2480 1636.8 2480 2480 C1661.6 2480 843.2 2480 0 2480 C0 1661.6 0 843.2 0 0 Z " fill="#FEFEFE" transform="translate(0,0)"/>
<path d="M0 0 C3.44 0.81 3.44 0.81 7 2 C7.33 2.99 7.66 3.98 8 5 C9.64 5.72 11.32 6.38 13 7 C15.34 8.3 17.63 9.63 19.93 11 C20.59 11.39 21.24 11.78 21.92 12.19 C24.06 13.45 26.18 14.73 28.31 16 C29.79 16.88 31.26 17.76 32.74 18.64 C40.78 23.44 48.77 28.3 56.68 33.31 C62.81 37.16 69.04 40.85 75.25 44.56 C85.29 50.57 95.32 56.6 105.31 62.69 C115.04 68.6 124.78 74.48 134.55 80.32 C143.2 85.51 151.83 90.74 160.45 95.99 C167.9 100.52 175.36 105.03 182.84 109.5 C189.54 113.52 196.21 117.59 202.88 121.64 C209.41 125.61 215.94 129.58 222.5 133.5 C229.58 137.74 236.63 142.03 243.69 146.31 C251.78 151.23 259.87 156.14 268 161 C276.75 166.23 285.46 171.52 294.17 176.82 C301.71 181.4 309.27 185.97 316.84 190.5 C323.54 194.52 330.21 198.59 336.88 202.64 C343.41 206.61 349.94 210.58 356.5 214.5 C363.58 218.74 370.63 223.03 377.69 227.31 C385.78 232.23 393.87 237.14 402 242 C410.75 247.23 419.46 252.52 428.17 257.82 C434.6 261.73 441.04 265.63 447.5 269.5 C454.58 273.74 461.63 278.03 468.69 282.31 C476.78 287.23 484.87 292.14 493 297 C501.75 302.23 510.46 307.52 519.17 312.82 C526.71 317.4 534.27 321.97 541.84 326.5 C548.54 330.52 555.21 334.59 561.88 338.64 C568.41 342.61 574.94 346.58 581.5 350.5 C588.58 354.74 595.63 359.03 602.69 363.31 C610.78 368.23 618.87 373.14 627 378 C635.75 383.23 644.46 388.52 653.17 393.82 C659.6 397.73 666.04 401.63 672.5 405.5 C679.58 409.74 686.63 414.03 693.69 418.31 C701.78 423.23 709.87 428.14 718 433 C726.75 438.23 735.46 443.52 744.17 448.82 C751.71 453.4 759.27 457.97 766.84 462.5 C773.54 466.52 780.21 470.59 786.88 474.64 C793.41 478.61 799.94 482.58 806.5 486.5 C814.2 491.1 821.86 495.77 829.52 500.43 C838.26 505.74 847 511.02 855.78 516.25 C859.94 518.72 864 521.28 868 524 C867.32 527.81 865.59 530.68 863.64 534 C863.13 534.87 863.13 534.87 862.61 535.76 C861.49 537.66 860.37 539.55 859.25 541.44 C858.48 542.74 857.71 544.04 856.95 545.35 C850.46 556.33 843.79 567.2 837 578 C832.83 576.49 829.15 574.4 825.39 572.09 C824.77 571.71 824.16 571.34 823.52 570.95 C821.58 569.76 819.63 568.57 817.69 567.38 C816.36 566.56 815.04 565.75 813.71 564.95 C810.47 562.97 807.23 560.99 804 559 C804 559.72 804 560.44 804 561.18 C804.1 639.76 804.19 718.33 804.29 796.91 C804.29 798.09 804.29 799.26 804.29 800.48 C804.32 826.07 804.35 851.66 804.38 877.25 C804.4 889.8 804.41 902.36 804.43 914.91 C804.43 916.16 804.43 917.41 804.43 918.69 C804.48 959.05 804.53 999.41 804.58 1039.76 C804.63 1081.3 804.68 1122.83 804.73 1164.36 C804.73 1170.25 804.74 1176.14 804.75 1182.03 C804.75 1183.19 804.75 1184.35 804.75 1185.54 C804.77 1204.07 804.8 1222.59 804.82 1241.12 C804.84 1259.82 804.86 1278.53 804.89 1297.23 C804.9 1308.29 804.91 1319.35 804.93 1330.41 C804.94 1337.86 804.94 1345.32 804.95 1352.77 C804.96 1356.97 804.96 1361.18 804.97 1365.38 C805.01 1397.59 805 1429.79 805 1462 C268.42 1462 -268.16 1462 -821 1462 C-821 1163.02 -821 864.04 -821 556 C-834.53 563.65 -847.99 571.27 -861.28 579.31 C-863 580 -863 580 -866 579 C-867.5 576.88 -867.5 576.88 -869.08 574.06 C-869.68 573.01 -870.27 571.96 -870.89 570.88 C-871.52 569.75 -872.16 568.61 -872.81 567.44 C-873.81 565.67 -874.81 563.91 -875.81 562.14 C-876.5 560.93 -877.18 559.71 -877.87 558.5 C-880.23 554.32 -882.66 550.19 -885.14 546.07 C-885.79 544.99 -886.44 543.9 -887.1 542.79 C-888.35 540.71 -889.61 538.63 -890.87 536.57 C-891.71 535.16 -891.71 535.16 -892.56 533.73 C-893.06 532.91 -893.56 532.09 -894.07 531.24 C-895 529 -895 529 -894.95 526.9 C-893.58 524.16 -891.83 523.37 -889.16 521.89 C-888.13 521.31 -887.1 520.73 -886.04 520.13 C-884.91 519.51 -883.79 518.89 -882.62 518.25 C-880.84 517.25 -879.06 516.24 -877.28 515.24 C-876.04 514.54 -874.8 513.84 -873.57 513.15 C-867.19 509.56 -860.91 505.82 -854.62 502.06 C-844.24 495.88 -833.78 489.84 -823.28 483.86 C-812.78 477.89 -802.35 471.82 -791.93 465.71 C-777.55 457.3 -763.15 448.92 -748.72 440.61 C-737.45 434.12 -726.22 427.56 -715 421 C-701.59 413.16 -688.17 405.36 -674.72 397.61 C-663.45 391.12 -652.22 384.56 -641 378 C-627.59 370.16 -614.17 362.36 -600.72 354.61 C-589.45 348.12 -578.22 341.56 -567 335 C-563.04 332.69 -559.08 330.37 -555.12 328.06 C-554.14 327.49 -553.15 326.91 -552.13 326.32 C-544.83 322.06 -537.51 317.84 -530.19 313.62 C-521.29 308.51 -512.44 303.31 -503.62 298.06 C-493.24 291.88 -482.78 285.84 -472.28 279.86 C-461.78 273.89 -451.35 267.82 -440.93 261.71 C-426.55 253.3 -412.15 244.92 -397.72 236.61 C-386.45 230.12 -375.22 223.56 -364 217 C-350.59 209.16 -337.17 201.36 -323.72 193.61 C-312.45 187.12 -301.22 180.56 -290 174 C-276.59 166.16 -263.17 158.36 -249.72 150.61 C-238.45 144.12 -227.22 137.56 -216 131 C-202.59 123.16 -189.17 115.36 -175.72 107.61 C-164.45 101.12 -153.22 94.56 -142 88 C-138.04 85.69 -134.08 83.37 -130.12 81.06 C-129.14 80.49 -128.15 79.91 -127.13 79.32 C-119.83 75.06 -112.51 70.84 -105.19 66.62 C-96.29 61.51 -87.44 56.31 -78.62 51.06 C-69.4 45.57 -60.14 40.18 -50.81 34.88 C-41.79 29.74 -32.79 24.59 -23.81 19.38 C-22.85 18.82 -21.89 18.26 -20.9 17.69 C-16.54 15.15 -12.23 12.57 -7.98 9.84 C-7.28 9.39 -6.57 8.93 -5.84 8.47 C-2.87 6.1 -1.57 3.42 0 0 Z " fill="#FEFE00" transform="translate(1235,499)"/>
<path d="M0 0 C818.4 0 1636.8 0 2480 0 C2480 818.4 2480 1636.8 2480 2480 C1661.6 2480 843.2 2480 0 2480 C0 1661.6 0 843.2 0 0 Z M103 109 C103 855.79 103 1602.58 103 2372 C851.77 2372 1600.54 2372 2372 2372 C2372 1625.21 2372 878.42 2372 109 C1623.23 109 874.46 109 103 109 Z " fill="#FFFFFF" transform="translate(0,0)"/>
<path d="M0 0 C748.77 0 1497.54 0 2269 0 C2269 746.79 2269 1493.58 2269 2263 C1520.23 2263 771.46 2263 0 2263 C0 1516.21 0 769.42 0 0 Z M84 83 C84 775.01 84 1467.02 84 2180 C777.66 2180 1471.32 2180 2186 2180 C2186 1487.99 2186 795.98 2186 83 C1492.34 83 798.68 83 84 83 Z " fill="#000000" transform="translate(103,109)"/>
<path d="M0 0 C3.44 0.81 3.44 0.81 7 2 C7.33 2.99 7.66 3.98 8 5 C9.64 5.72 11.32 6.38 13 7 C15.34 8.3 17.63 9.63 19.93 11 C20.59 11.39 21.24 11.78 21.92 12.19 C24.06 13.45 26.18 14.73 28.31 16 C29.79 16.88 31.26 17.76 32.74 18.64 C40.78 23.44 48.77 28.3 56.68 33.31 C62.81 37.16 69.04 40.85 75.25 44.56 C85.29 50.57 95.32 56.6 105.31 62.69 C115.04 68.6 124.78 74.48 134.55 80.32 C143.2 85.51 151.83 90.74 160.45 95.99 C167.9 100.52 175.36 105.03 182.84 109.5 C189.54 113.52 196.21 117.59 202.88 121.64 C209.41 125.61 215.94 129.58 222.5 133.5 C229.58 137.74 236.63 142.03 243.69 146.31 C251.78 151.23 259.87 156.14 268 161 C276.75 166.23 285.46 171.52 294.17 176.82 C301.71 181.4 309.27 185.97 316.84 190.5 C323.54 194.52 330.21 198.59 336.88 202.64 C343.41 206.61 349.94 210.58 356.5 214.5 C363.58 218.74 370.63 223.03 377.69 227.31 C385.78 232.23 393.87 237.14 402 242 C410.75 247.23 419.46 252.52 428.17 257.82 C434.6 261.73 441.04 265.63 447.5 269.5 C454.58 273.74 461.63 278.03 468.69 282.31 C476.78 287.23 484.87 292.14 493 297 C501.75 302.23 510.46 307.52 519.17 312.82 C526.71 317.4 534.27 321.97 541.84 326.5 C548.54 330.52 555.21 334.59 561.88 338.64 C568.41 342.61 574.94 346.58 581.5 350.5 C588.58 354.74 595.63 359.03 602.69 363.31 C610.78 368.23 618.87 373.14 627 378 C635.75 383.23 644.46 388.52 653.17 393.82 C659.6 397.73 666.04 401.63 672.5 405.5 C679.58 409.74 686.63 414.03 693.69 418.31 C701.78 423.23 709.87 428.14 718 433 C726.75 438.23 735.46 443.52 744.17 448.82 C751.71 453.4 759.27 457.97 766.84 462.5 C773.54 466.52 780.21 470.59 786.88 474.64 C793.41 478.61 799.94 482.58 806.5 486.5 C814.2 491.1 821.86 495.77 829.52 500.43 C838.26 505.74 847 511.02 855.78 516.25 C859.94 518.72 864 521.28 868 524 C867.32 527.81 865.59 530.68 863.64 534 C863.13 534.87 863.13 534.87 862.61 535.76 C861.49 537.66 860.37 539.55 859.25 541.44 C858.48 542.74 857.71 544.04 856.95 545.35 C850.46 556.33 843.79 567.2 837 578 C832.83 576.49 829.15 574.4 825.39 572.09 C824.77 571.71 824.16 571.34 823.52 570.95 C821.58 569.76 819.63 568.57 817.69 567.38 C816.36 566.56 815.04 565.75 813.71 564.95 C810.47 562.97 807.23 560.99 804 559 C804 559.72 804 560.44 804 561.18 C804.1 639.76 804.19 718.33 804.29 796.91 C804.29 798.09 804.29 799.26 804.29 800.48 C804.32 826.07 804.35 851.66 804.38 877.25 C804.4 889.8 804.41 902.36 804.43 914.91 C804.43 916.16 804.43 917.41 804.43 918.69 C804.48 959.05 804.53 999.41 804.58 1039.76 C804.63 1081.3 804.68 1122.83 804.73 1164.36 C804.73 1170.25 804.74 1176.14 804.75 1182.03 C804.75 1183.19 804.75 1184.35 804.75 1185.54 C804.77 1204.07 804.8 1222.59 804.82 1241.12 C804.84 1259.82 804.86 1278.53 804.89 1297.23 C804.9 1308.29 804.91 1319.35 804.93 1330.41 C804.94 1337.86 804.94 1345.32 804.95 1352.77 C804.96 1356.97 804.96 1361.18 804.97 1365.38 C805.01 1397.59 805 1429.79 805 1462 C268.42 1462 -268.16 1462 -821 1462 C-821 1163.02 -821 864.04 -821 556 C-834.53 563.65 -847.99 571.27 -861.28 579.31 C-863 580 -863 580 -866 579 C-867.5 576.88 -867.5 576.88 -869.08 574.06 C-869.68 573.01 -870.27 571.96 -870.89 570.88 C-871.52 569.75 -872.16 568.61 -872.81 567.44 C-873.81 565.67 -874.81 563.91 -875.81 562.14 C-876.5 560.93 -877.18 559.71 -877.87 558.5 C-880.23 554.32 -882.66 550.19 -885.14 546.07 C-885.79 544.99 -886.44 543.9 -887.1 542.79 C-888.35 540.71 -889.61 538.63 -890.87 536.57 C-891.71 535.16 -891.71 535.16 -892.56 533.73 C-893.06 532.91 -893.56 532.09 -894.07 531.24 C-895 529 -895 529 -894.95 526.9 C-893.58 524.16 -891.83 523.37 -889.16 521.89 C-888.13 521.31 -887.1 520.73 -886.04 520.13 C-884.91 519.51 -883.79 518.89 -882.62 518.25 C-880.84 517.25 -879.06 516.24 -877.28 515.24 C-876.04 514.54 -874.8 513.84 -873.57 513.15 C-867.19 509.56 -860.91 505.82 -854.62 502.06 C-844.24 495.88 -833.78 489.84 -823.28 483.86 C-812.78 477.89 -802.35 471.82 -791.93 465.71 C-777.55 457.3 -763.15 448.92 -748.72 440.61 C-737.45 434.12 -726.22 427.56 -715 421 C-701.59 413.16 -688.17 405.36 -674.72 397.61 C-663.45 391.12 -652.22 384.56 -641 378 C-627.59 370.16 -614.17 362.36 -600.72 354.61 C-589.45 348.12 -578.22 341.56 -567 335 C-563.04 332.69 -559.08 330.37 -555.12 328.06 C-554.14 327.49 -553.15 326.91 -552.13 326.32 C-544.83 322.06 -537.51 317.84 -530.19 313.62 C-521.29 308.51 -512.44 303.31 -503.62 298.06 C-493.24 291.88 -482.78 285.84 -472.28 279.86 C-461.78 273.89 -451.35 267.82 -440.93 261.71 C-426.55 253.3 -412.15 244.92 -397.72 236.61 C-386.45 230.12 -375.22 223.56 -364 217 C-350.59 209.16 -337.17 201.36 -323.72 193.61 C-312.45 187.12 -301.22 180.56 -290 174 C-276.59 166.16 -263.17 158.36 -249.72 150.61 C-238.45 144.12 -227.22 137.56 -216 131 C-202.59 123.16 -189.17 115.36 -175.72 107.61 C-164.45 101.12 -153.22 94.56 -142 88 C-138.04 85.69 -134.08 83.37 -130.12 81.06 C-129.14 80.49 -128.15 79.91 -127.13 79.32 C-119.83 75.06 -112.51 70.84 -105.19 66.62 C-96.29 61.51 -87.44 56.31 -78.62 51.06 C-69.4 45.57 -60.14 40.18 -50.81 34.88 C-41.79 29.74 -32.79 24.59 -23.81 19.38 C-22.85 18.82 -21.89 18.26 -20.9 17.69 C-16.54 15.15 -12.23 12.57 -7.98 9.84 C-7.28 9.39 -6.57 8.93 -5.84 8.47 C-2.87 6.1 -1.57 3.42 0 0 Z M-2.57 79.01 C-3.7 79.66 -4.83 80.31 -6 80.98 C-7.23 81.69 -8.46 82.41 -9.69 83.12 C-10.96 83.86 -12.23 84.59 -13.5 85.32 C-16.73 87.19 -19.95 89.06 -23.17 90.94 C-24.88 91.93 -26.58 92.92 -28.28 93.91 C-34.22 97.36 -40.15 100.82 -46.07 104.29 C-60.45 112.7 -74.85 121.08 -89.28 129.39 C-100.55 135.88 -111.78 142.44 -123 149 C-126.96 151.31 -130.92 153.63 -134.88 155.94 C-135.86 156.51 -136.85 157.09 -137.87 157.68 C-145.17 161.94 -152.49 166.16 -159.81 170.38 C-168.71 175.49 -177.56 180.69 -186.38 185.94 C-196.11 191.73 -205.91 197.4 -215.76 203 C-224.4 207.91 -232.97 212.91 -241.5 218 C-251.26 223.82 -261.08 229.51 -270.96 235.13 C-280.03 240.29 -289.06 245.51 -298.06 250.78 C-305.36 255.05 -312.68 259.28 -320 263.5 C-332.36 270.62 -344.68 277.8 -357 285 C-370.41 292.84 -383.83 300.64 -397.28 308.39 C-408.55 314.88 -419.78 321.44 -431 328 C-444.57 335.93 -458.16 343.83 -471.78 351.68 C-477.7 355.09 -483.61 358.52 -489.5 362 C-496.49 366.13 -503.52 370.2 -510.56 374.25 C-523.07 381.45 -535.54 388.72 -548 396 C-561.57 403.93 -575.16 411.83 -588.78 419.68 C-594.7 423.09 -600.61 426.52 -606.5 430 C-613.49 434.13 -620.52 438.2 -627.56 442.25 C-640.07 449.45 -652.54 456.72 -665 464 C-677.46 471.28 -689.93 478.55 -702.44 485.75 C-710.16 490.2 -717.88 494.67 -725.56 499.2 C-729.81 501.71 -734.07 504.21 -738.34 506.69 C-739.44 507.33 -740.54 507.97 -741.67 508.63 C-743.86 509.9 -746.05 511.17 -748.24 512.44 C-749.73 513.31 -749.73 513.31 -751.25 514.19 C-752.59 514.97 -752.59 514.97 -753.95 515.76 C-755.92 516.84 -755.92 516.84 -757 518 C-757.1 519.92 -757.12 521.85 -757.12 523.77 C-757.13 525.04 -757.13 526.3 -757.13 527.61 C-757.13 529.03 -757.13 530.46 -757.12 531.88 C-757.12 533.39 -757.12 534.89 -757.13 536.39 C-757.13 540.57 -757.13 544.74 -757.12 548.91 C-757.12 553.42 -757.12 557.93 -757.12 562.44 C-757.12 570.37 -757.12 578.3 -757.12 586.23 C-757.11 598.18 -757.11 610.12 -757.11 622.07 C-757.11 642.08 -757.11 662.1 -757.11 682.11 C-757.1 709.17 -757.1 736.23 -757.09 763.29 C-757.09 828.38 -757.08 893.47 -757.06 958.56 C-757.04 1103.91 -757.02 1249.25 -757 1399 C-262.66 1399 231.68 1399 741 1399 C741.58 1254.32 742.15 1109.63 742.75 960.56 C743 914.83 743.26 869.09 743.52 821.97 C743.62 781.08 743.62 781.08 743.67 740.19 C743.7 720.73 743.82 701.28 743.99 681.82 C744.15 661.98 744.22 642.14 744.18 622.29 C744.16 610.49 744.21 598.7 744.38 586.9 C744.49 579.11 744.49 571.32 744.41 563.52 C744.37 559.08 744.37 554.65 744.5 550.21 C745.5 533.49 745.5 533.49 739.75 518.44 C733.28 511.98 724.86 508.21 716.58 504.63 C710.93 502.06 705.75 498.78 700.5 495.5 C698.46 494.27 696.41 493.05 694.36 491.82 C686.85 487.32 679.37 482.77 671.88 478.21 C664.6 473.79 657.31 469.38 650 465 C642.15 460.3 634.32 455.56 626.5 450.81 C625.91 450.45 625.31 450.09 624.7 449.72 C618.74 446.1 612.78 442.47 606.82 438.84 C603.96 437.1 601.11 435.36 598.25 433.62 C597.68 433.28 597.12 432.94 596.53 432.58 C586.12 426.25 575.64 420.03 565.15 413.82 C557.43 409.25 549.72 404.65 542.14 399.84 C535.42 395.59 528.58 391.52 521.75 387.44 C511.6 381.37 501.48 375.27 491.38 369.12 C482.82 363.92 474.25 358.74 465.65 353.6 C457.8 348.89 449.99 344.14 442.17 339.39 C434.79 334.9 427.41 330.43 420 326 C412.15 321.3 404.32 316.56 396.5 311.81 C395.61 311.27 395.61 311.27 394.7 310.72 C388.74 307.1 382.78 303.47 376.82 299.84 C373.96 298.1 371.11 296.36 368.25 294.62 C367.68 294.28 367.12 293.94 366.53 293.58 C356.12 287.25 345.64 281.03 335.15 274.82 C327.48 270.28 319.83 265.71 312.31 260.92 C304.97 256.29 297.47 251.92 290 247.5 C272.67 237.25 272.67 237.25 265.88 232.94 C258.58 228.31 251.17 223.87 243.75 219.44 C234.1 213.66 224.46 207.87 214.86 202.03 C213.08 200.95 211.3 199.87 209.52 198.79 C204.77 195.91 200.02 193.02 195.3 190.08 C189.16 186.26 183.25 183.1 176.37 180.82 C171.7 179.21 168 177.35 165 173.29 C161.23 168.67 156.03 166.12 150.94 163.19 C149.26 162.2 147.59 161.22 145.91 160.23 C144.74 159.55 143.57 158.86 142.4 158.18 C136.38 154.65 130.43 151.03 124.47 147.4 C115.22 141.76 105.95 136.16 96.66 130.6 C88.81 125.89 80.99 121.14 73.17 116.39 C65.02 111.44 56.86 106.51 48.68 101.62 C43.71 98.64 38.75 95.64 33.79 92.62 C32.85 92.05 32.85 92.05 31.89 91.47 C28.78 89.58 25.66 87.68 22.55 85.79 C19.37 83.85 16.19 81.92 13 80 C12.25 79.54 11.5 79.08 10.73 78.61 C5.12 75.26 2.96 75.81 -2.57 79.01 Z " fill="#010100" transform="translate(1235,499)"/>
<path d="M0 0 C47.52 0 95.04 0 144 0 C148.22 12.05 152.36 24.03 156.15 36.21 C157.6 40.84 159.11 45.38 160.96 49.87 C164.01 57.29 166.25 65 168.64 72.66 C170.55 78.69 172.58 84.6 174.99 90.45 C177.04 95.64 178.7 100.96 180.44 106.25 C181.32 108.93 182.21 111.61 183.1 114.29 C183.45 115.34 183.45 115.34 183.8 116.41 C186.61 124.85 189.49 133.27 192.38 141.69 C192.65 142.48 192.92 143.28 193.2 144.1 C194.59 148.14 195.97 152.18 197.36 156.22 C198.96 160.87 200.55 165.53 202.14 170.18 C203.16 173.14 204.17 176.1 205.19 179.06 C205.43 179.78 205.68 180.5 205.93 181.24 C208.55 188.89 211.18 196.54 213.83 204.18 C214.29 205.49 214.74 206.8 215.2 208.11 C216.03 210.52 216.87 212.92 217.7 215.33 C219.59 220.76 221.38 226.19 223.03 231.7 C224.45 236.39 226.11 240.89 227.98 245.42 C230.03 250.61 231.7 255.94 233.44 261.25 C234.32 263.93 235.21 266.61 236.1 269.29 C236.45 270.34 236.45 270.34 236.8 271.41 C239.61 279.85 242.49 288.27 245.38 296.69 C245.65 297.48 245.92 298.28 246.2 299.1 C247.59 303.14 248.97 307.18 250.36 311.22 C251.96 315.87 253.55 320.53 255.14 325.18 C256.16 328.14 257.17 331.1 258.19 334.06 C258.43 334.78 258.68 335.5 258.93 336.24 C261.55 343.89 264.18 351.54 266.83 359.18 C267.29 360.49 267.74 361.8 268.2 363.11 C269.03 365.52 269.87 367.92 270.7 370.33 C272.59 375.76 274.38 381.19 276.03 386.7 C277.45 391.39 279.11 395.89 280.98 400.42 C283.03 405.61 284.7 410.94 286.44 416.25 C287.31 418.9 288.19 421.54 289.07 424.19 C289.3 424.89 289.53 425.58 289.77 426.3 C292.75 435.28 295.81 444.23 298.88 453.19 C299.15 454 299.43 454.81 299.71 455.64 C302.72 464.46 305.76 473.26 309 482 C310.95 479.08 311.87 476.74 312.97 473.42 C313.35 472.28 313.73 471.13 314.12 469.95 C314.53 468.7 314.94 467.46 315.36 466.18 C315.79 464.88 316.22 463.58 316.65 462.28 C317.79 458.84 318.93 455.41 320.06 451.97 C321.85 446.53 323.65 441.1 325.45 435.66 C325.89 434.34 326.33 433.02 326.77 431.69 C328.95 425.08 331.15 418.47 333.51 411.91 C335.58 406.14 337.51 400.39 339.18 394.48 C342.39 383.43 346.06 372.54 349.71 361.62 C350.46 359.4 351.2 357.18 351.94 354.96 C353.48 350.33 355.03 345.7 356.57 341.07 C358.54 335.19 360.5 329.3 362.47 323.41 C363.99 318.83 365.52 314.25 367.05 309.67 C367.78 307.51 368.5 305.34 369.22 303.17 C372.46 293.45 375.71 283.74 379.18 274.1 C381.34 268.06 383.23 261.97 384.99 255.8 C387.93 245.64 391.36 235.65 394.71 225.62 C395.46 223.4 396.2 221.18 396.94 218.96 C398.48 214.33 400.03 209.7 401.57 205.07 C403.54 199.19 405.5 193.3 407.47 187.41 C408.99 182.83 410.52 178.25 412.05 173.67 C412.78 171.51 413.5 169.34 414.22 167.17 C417.46 157.45 420.71 147.74 424.18 138.1 C426.1 132.75 427.82 127.38 429.39 121.91 C432.53 110.96 436.2 100.18 439.82 89.38 C440.57 87.14 441.32 84.9 442.06 82.66 C444.02 76.82 445.97 70.98 447.93 65.13 C451.07 55.76 454.2 46.38 457.34 37.01 C458.42 33.76 459.51 30.5 460.6 27.25 C461.28 25.24 461.95 23.24 462.62 21.23 C462.92 20.34 463.22 19.45 463.52 18.53 C465.25 13.36 466.86 8.17 468.37 2.93 C469 1 469 1 470 0 C471.81 -0.1 473.62 -0.12 475.44 -0.12 C476.61 -0.12 477.79 -0.12 479.01 -0.12 C480.31 -0.12 481.62 -0.12 482.97 -0.11 C484.34 -0.11 485.72 -0.11 487.1 -0.11 C490.86 -0.11 494.62 -0.11 498.37 -0.1 C502.29 -0.1 506.21 -0.09 510.13 -0.09 C517.57 -0.09 525 -0.08 532.43 -0.07 C540.88 -0.06 549.34 -0.06 557.8 -0.05 C575.2 -0.04 592.6 -0.02 610 0 C609.69 1.43 609.38 2.86 609.07 4.28 C608.9 5.08 608.72 5.87 608.55 6.69 C607.8 9.85 606.75 12.85 605.63 15.89 C605.28 16.85 605.28 16.85 604.92 17.83 C604.41 19.23 603.9 20.63 603.38 22.03 C602.23 25.16 601.08 28.3 599.94 31.44 C599.31 33.17 598.68 34.9 598.05 36.64 C593.96 47.82 589.95 59.04 585.94 70.25 C585.13 72.51 584.32 74.78 583.5 77.04 C577.24 94.53 570.99 112.02 564.75 129.51 C558.17 147.93 551.58 166.33 544.98 184.74 C540.19 198.1 535.4 211.47 530.63 224.84 C523.81 243.97 516.94 263.08 510.07 282.2 C502.11 304.31 494.19 326.44 486.29 348.58 C480.6 364.52 474.9 380.45 469.19 396.38 C463.61 411.91 458.05 427.45 452.5 443 C446.93 458.61 441.34 474.21 435.75 489.81 C435.35 490.92 434.95 492.03 434.55 493.17 C431.29 502.26 428.03 511.34 424.77 520.43 C422.33 527.23 419.89 534.03 417.45 540.83 C416.65 543.07 415.85 545.3 415.05 547.54 C410.76 559.5 406.48 571.45 402.22 583.41 C393.59 607.65 384.79 631.82 376 656 C329.14 656 282.28 656 234 656 C227.73 638.51 221.46 621.02 215 603 C211.19 592.39 211.19 592.39 207.39 581.79 C200.6 562.86 193.83 543.92 187.09 524.96 C174.57 489.69 161.96 454.45 149.32 419.22 C142.78 400.97 136.25 382.72 129.74 364.47 C124.08 348.62 118.42 332.79 112.73 316.95 C105.18 295.9 97.66 274.83 90.17 253.75 C83.56 235.18 76.93 216.61 70.27 198.05 C63.74 179.86 57.23 161.66 50.74 143.46 C45.49 128.76 40.23 114.06 34.95 99.36 C27.39 78.3 19.86 57.23 12.37 36.15 C11.38 33.36 10.39 30.56 9.39 27.76 C8.01 23.87 6.62 19.98 5.24 16.09 C4.83 14.92 4.41 13.76 3.98 12.55 C3.6 11.48 3.22 10.41 2.83 9.3 C2.33 7.91 2.33 7.91 1.83 6.48 C1.12 4.35 0.54 2.18 0 0 Z " fill="#000000" transform="translate(744,1090)"/>
<path d="M0 0 C43.56 0 87.12 0 132 0 C132 216.48 132 432.96 132 656 C88.44 656 44.88 656 0 656 C0 439.52 0 223.04 0 0 Z " fill="#000000" transform="translate(1419,1090)"/>
</svg>
