<!DOCTYPE svg PUBLIC "-//W3C//DTD SVG 20010904//EN" "http://www.w3.org/TR/2001/REC-SVG-20010904/DTD/svg10.dtd">
<svg version="1.0" xmlns="http://www.w3.org/2000/svg" width="1200px" height="1200px" viewBox="0 0 12000 12000" preserveAspectRatio="xMidYMid meet">
<g id="layer101" fill="#040202" stroke="none">
<path d="M0 6000 l0 -6000 6000 0 6000 0 0 6000 0 6000 -6000 0 -6000 0 0 -6000z"/>
</g>
<g id="layer102" fill="#773e18" stroke="none">
<path d="M0 6000 l0 -6000 6000 0 6000 0 0 6000 0 6000 -6000 0 -6000 0 0 -6000z m9780 2070 l0 -280 -422 0 -423 -1 -50 -67 c-27 -36 -171 -224 -319 -417 -148 -192 -355 -462 -461 -600 -284 -370 -1018 -1327 -1094 -1425 -35 -47 -212 -277 -393 -513 l-329 -427 194 -238 c106 -130 228 -280 270 -332 42 -52 77 -97 77 -100 0 -18 -328 -283 -340 -275 -6 3 -107 125 -226 271 -197 241 -218 264 -233 250 -9 -8 -113 -134 -231 -280 -118 -146 -220 -265 -225 -265 -6 -1 -86 60 -178 135 l-168 135 43 54 c24 29 150 184 280 344 131 160 238 295 238 301 0 6 -73 106 -163 223 -90 116 -255 331 -367 477 -112 146 -307 400 -434 565 -221 290 -291 380 -606 790 -189 246 -430 559 -660 860 -101 132 -235 306 -298 388 l-114 147 -449 0 -449 0 0 280 0 280 3765 0 3765 0 0 -280z"/>
</g>
<g id="layer103" fill="#ffffff" stroke="none">
<path d="M0 6000 l0 -6000 6000 0 6000 0 0 6000 0 6000 -6000 0 -6000 0 0 -6000z m9840 5717 c506 -86 901 -286 1246 -631 289 -289 476 -615 578 -1006 78 -297 71 76 71 -4070 0 -3534 -1 -3710 -18 -3820 -61 -387 -180 -680 -402 -993 -86 -121 -279 -327 -393 -418 -88 -71 -269 -191 -372 -247 -176 -95 -428 -179 -675 -225 l-120 -22 -3660 -3 c-2619 -2 -3697 0 -3790 8 -524 45 -1001 267 -1374 641 -368 367 -589 835 -640 1353 -15 150 -15 7300 -1 7447 22 212 74 428 150 620 107 268 274 519 487 733 127 128 227 208 389 312 143 91 193 117 344 177 212 85 435 139 645 157 50 4 1742 7 3760 6 3474 -1 3676 -2 3775 -19z"/>
<path d="M2290 10815 c-552 -87 -988 -521 -1085 -1079 -13 -78 -15 -503 -15 -3725 0 -4030 -5 -3718 66 -3931 67 -201 174 -369 333 -523 189 -183 406 -296 671 -349 53 -11 755 -13 3760 -13 l3695 0 108 27 c454 116 795 431 942 871 70 210 65 -74 65 3918 0 3918 3 3682 -55 3884 -35 121 -120 293 -195 395 -194 260 -452 431 -780 513 l-85 21 -3670 2 c-3024 2 -3685 0 -3755 -11z m7490 -2745 l0 -280 -422 0 -423 -1 -50 -67 c-27 -36 -171 -224 -319 -417 -148 -192 -355 -462 -461 -600 -284 -370 -1018 -1327 -1094 -1425 -35 -47 -212 -277 -393 -513 l-329 -427 194 -238 c106 -130 228 -280 270 -332 42 -52 77 -97 77 -100 0 -18 -328 -283 -340 -275 -6 3 -107 125 -226 271 -197 241 -218 264 -233 250 -9 -8 -113 -134 -231 -280 -118 -146 -220 -265 -225 -265 -6 -1 -86 60 -178 135 l-168 135 43 54 c24 29 150 184 280 344 131 160 238 295 238 301 0 6 -73 106 -163 223 -90 116 -255 331 -367 477 -112 146 -307 400 -434 565 -221 290 -291 380 -606 790 -189 246 -430 559 -660 860 -101 132 -235 306 -298 388 l-114 147 -449 0 -449 0 0 280 0 280 3765 0 3765 0 0 -280z"/>
<path d="M4893 7638 c51 -62 156 -189 233 -283 77 -93 216 -262 310 -376 93 -113 286 -347 429 -521 143 -174 263 -314 267 -311 9 5 1300 1571 1312 1591 6 9 -261 12 -1319 12 l-1326 0 94 -112z"/>
</g>


</svg>