<?xml version="1.0" encoding="UTF-8"?>
<!DOCTYPE svg PUBLIC "-//W3C//DTD SVG 1.1//EN" "http://www.w3.org/Graphics/SVG/1.1/DTD/svg11.dtd">
<svg xmlns="http://www.w3.org/2000/svg" version="1.1" width="1063px" height="1063px" style="shape-rendering:geometricPrecision; text-rendering:geometricPrecision; image-rendering:optimizeQuality; fill-rule:evenodd; clip-rule:evenodd" xmlns:xlink="http://www.w3.org/1999/xlink">
<g><path style="opacity:1" fill="#fffefe" d="M -0.5,-0.5 C 353.833,-0.5 708.167,-0.5 1062.5,-0.5C 1062.5,353.833 1062.5,708.167 1062.5,1062.5C 708.167,1062.5 353.833,1062.5 -0.5,1062.5C -0.5,708.167 -0.5,353.833 -0.5,-0.5 Z"/></g>
<g><path style="opacity:1" fill="#ff0100" d="M 769.5,198.5 C 768.5,406.333 768.167,614.333 768.5,822.5C 770.167,822.5 771.833,822.5 773.5,822.5C 800.291,823.922 826.624,828.089 852.5,835C 854.746,836.039 856.913,837.206 859,838.5C 860.156,859.58 860.656,880.747 860.5,902C 860.333,922.5 860.167,943 860,963.5C 854.236,967.871 847.736,970.705 840.5,972C 810.059,977.472 779.392,981.138 748.5,983C 674.755,988.058 600.921,990.225 527,989.5C 437.277,990.62 347.777,986.786 258.5,978C 244.025,976.066 229.691,973.399 215.5,970C 211.131,968.733 207.297,966.567 204,963.5C 203.333,922.167 203.333,880.833 204,839.5C 206.669,836.836 209.836,835.002 213.5,834C 242.082,827.074 271.082,822.908 300.5,821.5C 299.339,611.517 299.172,401.517 300,191.5C 300.425,178.89 304.425,167.557 312,157.5C 329.621,137.24 351.121,122.407 376.5,113C 439.551,90.2521 504.551,81.5854 571.5,87C 623.697,89.3817 673.03,102.382 719.5,126C 734.36,134.359 747.193,145.192 758,158.5C 766.801,170.363 770.634,183.697 769.5,198.5 Z"/></g>
<g><path style="opacity:1" fill="#ff3131" d="M 501.5,90.5 C 555.737,87.8087 609.071,93.3087 661.5,107C 689.514,114.765 715.181,127.098 738.5,144C 750.565,153.722 759.065,165.889 764,180.5C 766.359,194.068 764.026,206.735 757,218.5C 746.319,233.512 732.819,245.345 716.5,254C 674.561,274.868 630.227,287.201 583.5,291C 528.57,296.005 474.237,292.338 420.5,280C 387.635,272.283 357.635,258.616 330.5,239C 296.73,208.611 296.063,177.611 328.5,146C 346.668,131.911 366.668,120.911 388.5,113C 425.351,100.751 463.018,93.2511 501.5,90.5 Z"/></g>
<g><path style="opacity:1" fill="#ff2120" d="M 769.5,198.5 C 769.5,406.167 769.5,613.833 769.5,821.5C 771.099,821.232 772.432,821.566 773.5,822.5C 771.833,822.5 770.167,822.5 768.5,822.5C 768.167,614.333 768.5,406.333 769.5,198.5 Z"/></g>
<g><path style="opacity:1" fill="#fefffe" d="M 307.5,330.5 C 458.833,330.5 610.167,330.5 761.5,330.5C 761.5,373.833 761.5,417.167 761.5,460.5C 610.167,460.5 458.833,460.5 307.5,460.5C 307.5,417.167 307.5,373.833 307.5,330.5 Z"/></g>
<g><path style="opacity:1" fill="#fefffe" d="M 307.5,551.5 C 458.833,551.5 610.167,551.5 761.5,551.5C 761.5,594.5 761.5,637.5 761.5,680.5C 610.167,680.5 458.833,680.5 307.5,680.5C 307.5,637.5 307.5,594.5 307.5,551.5 Z"/></g>
</svg>
