<!DOCTYPE svg PUBLIC "-//W3C//DTD SVG 20010904//EN" "http://www.w3.org/TR/2001/REC-SVG-20010904/DTD/svg10.dtd">
<svg version="1.0" xmlns="http://www.w3.org/2000/svg" width="1024px" height="1024px" viewBox="0 0 10240 10240" preserveAspectRatio="xMidYMid meet">
<g id="layer101" fill="#0e518d" stroke="none">
 <path d="M0 5120 l0 -5120 5120 0 5120 0 0 5120 0 5120 -5120 0 -5120 0 0 -5120z"/>
 </g>
<g id="layer102" fill="#f7fbf5" stroke="none">
 <path d="M655 10066 c-227 -57 -406 -227 -477 -456 l-23 -75 0 -4415 0 -4415 23 -75 c38 -120 79 -187 172 -281 93 -93 177 -143 300 -176 62 -17 296 -18 4470 -18 4202 0 4408 1 4470 18 122 34 207 84 300 177 93 92 142 176 177 300 17 62 18 244 18 4465 0 3705 -2 4409 -14 4455 -51 204 -173 358 -354 444 -51 24 -116 49 -145 55 -82 17 -8849 14 -8917 -3z m8956 -253 c84 -41 160 -118 202 -202 l32 -66 0 -4425 0 -4425 -33 -68 c-65 -132 -186 -218 -332 -237 -102 -13 -8618 -13 -8719 0 -196 26 -344 169 -371 362 -13 84 -13 8652 -1 8735 23 159 129 288 281 343 55 19 95 19 4465 17 l4410 -2 66 -32z"/>
 <path d="M2520 5180 l0 -3631 1663 4 c1502 3 1674 5 1782 21 905 128 1534 632 1806 1446 43 131 80 283 106 446 15 88 18 168 17 414 0 285 -2 315 -27 450 -95 525 -307 945 -636 1263 -323 311 -692 488 -1201 573 -94 16 -213 19 -1135 24 l-1030 5 -3 1308 -2 1307 -670 0 -670 0 0 -3630z m2815 -260 c334 -24 571 -86 765 -201 320 -190 468 -510 431 -929 -46 -504 -340 -784 -926 -881 -178 -29 -534 -40 -1175 -37 l-565 3 -3 1015 c-1 558 0 1021 3 1028 6 15 1253 17 1470 2z"/>
 </g>

</svg>