<?xml version="1.0" encoding="UTF-8" standalone="no"?>
<!DOCTYPE svg PUBLIC "-//W3C//DTD SVG 1.1//EN" 
  "http://www.w3.org/Graphics/SVG/1.1/DTD/svg11.dtd">
<svg width="121" height="121"
     xmlns="http://www.w3.org/2000/svg" version="1.1">
 <path d="  M 121,121  L 121,0  L 0,0  L 0,121  L 59,121  L 59,120  L 49,120  L 49,119  L 45,119  L 45,118  L 41,118  L 41,117  L 38,117  L 38,116  L 36,116  L 36,115  L 34,115  L 34,114  L 32,114  L 32,113  L 30,113  L 30,112  L 28,112  L 28,111  L 27,111  L 27,110  L 26,110  L 26,109  L 24,109  L 24,108  L 23,108  L 23,107  L 22,107  L 22,106  L 20,106  L 20,105  L 19,105  L 19,104  L 18,104  L 18,103  L 17,103  L 17,102  L 16,102  L 16,101  L 15,101  L 15,99  L 14,99  L 14,98  L 13,98  L 13,97  L 12,97  L 12,95  L 11,95  L 11,94  L 10,94  L 10,92  L 9,92  L 9,91  L 8,91  L 8,89  L 7,89  L 7,87  L 6,87  L 6,85  L 5,85  L 5,83  L 4,83  L 4,80  L 3,80  L 3,76  L 2,76  L 2,72  L 1,72  L 1,49  L 2,49  L 2,45  L 3,45  L 3,41  L 4,41  L 4,39  L 5,39  L 5,36  L 6,36  L 6,34  L 7,34  L 7,32  L 8,32  L 8,30  L 9,30  L 9,29  L 10,29  L 10,27  L 11,27  L 11,26  L 12,26  L 12,24  L 13,24  L 13,23  L 14,23  L 14,22  L 15,22  L 15,21  L 16,21  L 16,19  L 17,19  L 17,18  L 18,18  L 18,17  L 19,17  L 19,16  L 21,16  L 21,15  L 22,15  L 22,14  L 23,14  L 23,13  L 24,13  L 24,12  L 26,12  L 26,11  L 27,11  L 27,10  L 29,10  L 29,9  L 30,9  L 30,8  L 32,8  L 32,7  L 34,7  L 34,6  L 36,6  L 36,5  L 39,5  L 39,4  L 41,4  L 41,3  L 45,3  L 45,2  L 49,2  L 49,1  L 72,1  L 72,2  L 76,2  L 76,3  L 80,3  L 80,4  L 82,4  L 82,5  L 85,5  L 85,6  L 87,6  L 87,7  L 89,7  L 89,8  L 91,8  L 91,9  L 92,9  L 92,10  L 94,10  L 94,11  L 95,11  L 95,12  L 97,12  L 97,13  L 98,13  L 98,14  L 99,14  L 99,15  L 100,15  L 100,16  L 102,16  L 102,17  L 103,17  L 103,18  L 104,18  L 104,19  L 105,19  L 105,21  L 106,21  L 106,22  L 107,22  L 107,23  L 108,23  L 108,24  L 109,24  L 109,26  L 110,26  L 110,27  L 111,27  L 111,29  L 112,29  L 112,30  L 113,30  L 113,32  L 114,32  L 114,34  L 115,34  L 115,36  L 116,36  L 116,39  L 117,39  L 117,41  L 118,41  L 118,45  L 119,45  L 119,49  L 120,49  L 120,72  L 119,72  L 119,76  L 118,76  L 118,80  L 117,80  L 117,83  L 116,83  L 116,85  L 115,85  L 115,87  L 114,87  L 114,89  L 113,89  L 113,91  L 112,91  L 112,92  L 111,92  L 111,94  L 110,94  L 110,95  L 109,95  L 109,97  L 108,97  L 108,98  L 107,98  L 107,99  L 106,99  L 106,101  L 105,101  L 105,102  L 104,102  L 104,103  L 103,103  L 103,104  L 102,104  L 102,105  L 101,105  L 101,106  L 99,106  L 99,107  L 98,107  L 98,108  L 97,108  L 97,109  L 95,109  L 95,110  L 94,110  L 94,111  L 93,111  L 93,112  L 91,112  L 91,113  L 89,113  L 89,114  L 87,114  L 87,115  L 85,115  L 85,116  L 83,116  L 83,117  L 80,117  L 80,118  L 76,118  L 76,119  L 72,119  L 72,120  L 62,120  L 62,121  Z  " style="fill:rgb(0, 0, 0); fill-opacity:0.000; stroke:none;" />
 <path d="  M 1,50  L 2,50  L 2,49  L 1,49  Z  " style="fill:rgb(145, 34, 0); fill-opacity:0.125; stroke:none;" />
 <path d="  M 2,71  L 1,71  L 1,72  L 2,72  Z  " style="fill:rgb(145, 34, 0); fill-opacity:0.125; stroke:none;" />
 <path d="  M 6,36  L 5,36  L 5,37  L 6,37  Z  " style="fill:rgb(145, 34, 0); fill-opacity:0.125; stroke:none;" />
 <path d="  M 6,84  L 5,84  L 5,85  L 6,85  Z  " style="fill:rgb(145, 34, 0); fill-opacity:0.125; stroke:none;" />
 <path d="  M 9,30  L 8,30  L 8,31  L 9,31  Z  " style="fill:rgb(145, 34, 0); fill-opacity:0.125; stroke:none;" />
 <path d="  M 8,90  L 8,91  L 9,91  L 9,90  Z  " style="fill:rgb(145, 34, 0); fill-opacity:0.125; stroke:none;" />
 <path d="  M 13,25  L 13,24  L 12,24  L 12,25  Z  " style="fill:rgb(145, 34, 0); fill-opacity:0.125; stroke:none;" />
 <path d="  M 24,13  L 25,13  L 25,12  L 24,12  Z  " style="fill:rgb(145, 34, 0); fill-opacity:0.125; stroke:none;" />
 <path d="  M 31,8  L 30,8  L 30,9  L 31,9  Z  " style="fill:rgb(145, 34, 0); fill-opacity:0.125; stroke:none;" />
 <path d="  M 30,113  L 31,113  L 31,112  L 30,112  Z  " style="fill:rgb(145, 34, 0); fill-opacity:0.125; stroke:none;" />
 <path d="  M 37,6  L 37,5  L 36,5  L 36,6  Z  " style="fill:rgb(145, 34, 0); fill-opacity:0.125; stroke:none;" />
 <path d="  M 36,116  L 37,116  L 37,115  L 36,115  Z  " style="fill:rgb(145, 34, 0); fill-opacity:0.125; stroke:none;" />
 <path d="  M 50,2  L 50,1  L 49,1  L 49,2  Z  " style="fill:rgb(145, 34, 0); fill-opacity:0.125; stroke:none;" />
 <path d="  M 72,2  L 72,1  L 71,1  L 71,2  Z  " style="fill:rgb(145, 34, 0); fill-opacity:0.125; stroke:none;" />
 <path d="  M 85,5  L 84,5  L 84,6  L 85,6  Z  " style="fill:rgb(145, 34, 0); fill-opacity:0.125; stroke:none;" />
 <path d="  M 85,115  L 84,115  L 84,116  L 85,116  Z  " style="fill:rgb(145, 34, 0); fill-opacity:0.125; stroke:none;" />
 <path d="  M 90,112  L 90,113  L 91,113  L 91,112  Z  " style="fill:rgb(145, 34, 0); fill-opacity:0.125; stroke:none;" />
 <path d="  M 96,13  L 97,13  L 97,12  L 96,12  Z  " style="fill:rgb(145, 34, 0); fill-opacity:0.125; stroke:none;" />
 <path d="  M 109,25  L 109,24  L 108,24  L 108,25  Z  " style="fill:rgb(145, 34, 0); fill-opacity:0.125; stroke:none;" />
 <path d="  M 113,30  L 112,30  L 112,31  L 113,31  Z  " style="fill:rgb(145, 34, 0); fill-opacity:0.125; stroke:none;" />
 <path d="  M 112,90  L 112,91  L 113,91  L 113,90  Z  " style="fill:rgb(145, 34, 0); fill-opacity:0.125; stroke:none;" />
 <path d="  M 116,36  L 115,36  L 115,37  L 116,37  Z  " style="fill:rgb(145, 34, 0); fill-opacity:0.125; stroke:none;" />
 <path d="  M 116,84  L 115,84  L 115,85  L 116,85  Z  " style="fill:rgb(145, 34, 0); fill-opacity:0.125; stroke:none;" />
 <path d="  M 119,50  L 120,50  L 120,49  L 119,49  Z  " style="fill:rgb(145, 34, 0); fill-opacity:0.125; stroke:none;" />
 <path d="  M 119,72  L 120,72  L 120,71  L 119,71  Z  " style="fill:rgb(145, 34, 0); fill-opacity:0.125; stroke:none;" />
 <path d="  M 1,50  L 1,51  L 2,51  L 2,50  Z  " style="fill:rgb(145, 34, 0); fill-opacity:0.251; stroke:none;" />
 <path d="  M 1,70  L 1,71  L 2,71  L 2,70  Z  " style="fill:rgb(145, 34, 0); fill-opacity:0.251; stroke:none;" />
 <path d="  M 2,45  L 2,46  L 3,46  L 3,45  Z  " style="fill:rgb(145, 34, 0); fill-opacity:0.251; stroke:none;" />
 <path d="  M 2,76  L 3,76  L 3,75  L 2,75  Z  " style="fill:rgb(145, 34, 0); fill-opacity:0.251; stroke:none;" />
 <path d="  M 7,86  L 6,86  L 6,87  L 7,87  Z  " style="fill:rgb(145, 34, 0); fill-opacity:0.251; stroke:none;" />
 <path d="  M 10,93  L 10,94  L 11,94  L 11,93  Z  " style="fill:rgb(145, 34, 0); fill-opacity:0.251; stroke:none;" />
 <path d="  M 27,110  L 27,111  L 28,111  L 28,110  Z  " style="fill:rgb(145, 34, 0); fill-opacity:0.251; stroke:none;" />
 <path d="  M 33,114  L 33,113  L 32,113  L 32,114  Z  " style="fill:rgb(145, 34, 0); fill-opacity:0.251; stroke:none;" />
 <path d="  M 35,115  L 35,114  L 34,114  L 34,115  Z  " style="fill:rgb(145, 34, 0); fill-opacity:0.251; stroke:none;" />
 <path d="  M 45,2  L 45,3  L 46,3  L 46,2  Z  " style="fill:rgb(145, 34, 0); fill-opacity:0.251; stroke:none;" />
 <path d="  M 45,119  L 46,119  L 46,118  L 45,118  Z  " style="fill:rgb(145, 34, 0); fill-opacity:0.251; stroke:none;" />
 <path d="  M 50,2  L 51,2  L 51,1  L 50,1  Z  " style="fill:rgb(145, 34, 0); fill-opacity:0.251; stroke:none;" />
 <path d="  M 59,120  L 59,121  L 62,121  L 62,120  Z  " style="fill:rgb(145, 34, 0); fill-opacity:0.251; stroke:none;" />
 <path d="  M 70,1  L 70,2  L 71,2  L 71,1  Z  " style="fill:rgb(145, 34, 0); fill-opacity:0.251; stroke:none;" />
 <path d="  M 76,2  L 75,2  L 75,3  L 76,3  Z  " style="fill:rgb(145, 34, 0); fill-opacity:0.251; stroke:none;" />
 <path d="  M 75,118  L 75,119  L 76,119  L 76,118  Z  " style="fill:rgb(145, 34, 0); fill-opacity:0.251; stroke:none;" />
 <path d="  M 86,114  L 86,115  L 87,115  L 87,114  Z  " style="fill:rgb(145, 34, 0); fill-opacity:0.251; stroke:none;" />
 <path d="  M 88,113  L 88,114  L 89,114  L 89,113  Z  " style="fill:rgb(145, 34, 0); fill-opacity:0.251; stroke:none;" />
 <path d="  M 93,111  L 94,111  L 94,110  L 93,110  Z  " style="fill:rgb(145, 34, 0); fill-opacity:0.251; stroke:none;" />
 <path d="  M 114,87  L 115,87  L 115,86  L 114,86  Z  " style="fill:rgb(145, 34, 0); fill-opacity:0.251; stroke:none;" />
 <path d="  M 118,45  L 118,46  L 119,46  L 119,45  Z  " style="fill:rgb(145, 34, 0); fill-opacity:0.251; stroke:none;" />
 <path d="  M 119,76  L 119,75  L 118,75  L 118,76  Z  " style="fill:rgb(145, 34, 0); fill-opacity:0.251; stroke:none;" />
 <path d="  M 119,50  L 119,51  L 120,51  L 120,50  Z  " style="fill:rgb(145, 34, 0); fill-opacity:0.251; stroke:none;" />
 <path d="  M 120,71  L 120,70  L 119,70  L 119,71  Z  " style="fill:rgb(145, 34, 0); fill-opacity:0.251; stroke:none;" />
 <path d="  M 2,52  L 2,51  L 1,51  L 1,52  Z  " style="fill:rgb(145, 34, 0); fill-opacity:0.502; stroke:none;" />
 <path d="  M 1,70  L 2,70  L 2,69  L 1,69  Z  " style="fill:rgb(145, 34, 0); fill-opacity:0.502; stroke:none;" />
 <path d="  M 3,46  L 2,46  L 2,47  L 3,47  Z  " style="fill:rgb(145, 34, 0); fill-opacity:0.502; stroke:none;" />
 <path d="  M 2,75  L 3,75  L 3,74  L 2,74  Z  " style="fill:rgb(145, 34, 0); fill-opacity:0.502; stroke:none;" />
 <path d="  M 10,30  L 10,29  L 9,29  L 9,30  Z  " style="fill:rgb(145, 34, 0); fill-opacity:0.502; stroke:none;" />
 <path d="  M 10,92  L 10,91  L 9,91  L 9,92  Z  " style="fill:rgb(145, 34, 0); fill-opacity:0.502; stroke:none;" />
 <path d="  M 26,12  L 27,12  L 27,11  L 26,11  Z  " style="fill:rgb(145, 34, 0); fill-opacity:0.502; stroke:none;" />
 <path d="  M 30,10  L 30,9  L 29,9  L 29,10  Z  " style="fill:rgb(145, 34, 0); fill-opacity:0.502; stroke:none;" />
 <path d="  M 29,112  L 30,112  L 30,111  L 29,111  Z  " style="fill:rgb(145, 34, 0); fill-opacity:0.502; stroke:none;" />
 <path d="  M 46,3  L 47,3  L 47,2  L 46,2  Z  " style="fill:rgb(145, 34, 0); fill-opacity:0.502; stroke:none;" />
 <path d="  M 46,119  L 47,119  L 47,118  L 46,118  Z  " style="fill:rgb(145, 34, 0); fill-opacity:0.502; stroke:none;" />
 <path d="  M 51,2  L 52,2  L 52,1  L 51,1  Z  " style="fill:rgb(145, 34, 0); fill-opacity:0.502; stroke:none;" />
 <path d="  M 52,120  L 52,119  L 51,119  L 51,120  Z  " style="fill:rgb(145, 34, 0); fill-opacity:0.502; stroke:none;" />
 <path d="  M 70,2  L 70,1  L 69,1  L 69,2  Z  " style="fill:rgb(145, 34, 0); fill-opacity:0.502; stroke:none;" />
 <path d="  M 70,120  L 70,119  L 69,119  L 69,120  Z  " style="fill:rgb(145, 34, 0); fill-opacity:0.502; stroke:none;" />
 <path d="  M 74,3  L 75,3  L 75,2  L 74,2  Z  " style="fill:rgb(145, 34, 0); fill-opacity:0.502; stroke:none;" />
 <path d="  M 75,118  L 74,118  L 74,119  L 75,119  Z  " style="fill:rgb(145, 34, 0); fill-opacity:0.502; stroke:none;" />
 <path d="  M 91,10  L 92,10  L 92,9  L 91,9  Z  " style="fill:rgb(145, 34, 0); fill-opacity:0.502; stroke:none;" />
 <path d="  M 92,112  L 92,111  L 91,111  L 91,112  Z  " style="fill:rgb(145, 34, 0); fill-opacity:0.502; stroke:none;" />
 <path d="  M 94,12  L 95,12  L 95,11  L 94,11  Z  " style="fill:rgb(145, 34, 0); fill-opacity:0.502; stroke:none;" />
 <path d="  M 109,27  L 110,27  L 110,26  L 109,26  Z  " style="fill:rgb(145, 34, 0); fill-opacity:0.502; stroke:none;" />
 <path d="  M 111,29  L 111,30  L 112,30  L 112,29  Z  " style="fill:rgb(145, 34, 0); fill-opacity:0.502; stroke:none;" />
 <path d="  M 111,91  L 111,92  L 112,92  L 112,91  Z  " style="fill:rgb(145, 34, 0); fill-opacity:0.502; stroke:none;" />
 <path d="  M 119,46  L 118,46  L 118,47  L 119,47  Z  " style="fill:rgb(145, 34, 0); fill-opacity:0.502; stroke:none;" />
 <path d="  M 118,75  L 119,75  L 119,74  L 118,74  Z  " style="fill:rgb(145, 34, 0); fill-opacity:0.502; stroke:none;" />
 <path d="  M 119,51  L 119,52  L 120,52  L 120,51  Z  " style="fill:rgb(145, 34, 0); fill-opacity:0.502; stroke:none;" />
 <path d="  M 120,70  L 120,69  L 119,69  L 119,70  Z  " style="fill:rgb(145, 34, 0); fill-opacity:0.502; stroke:none;" />
 <path d="  M 2,53  L 2,52  L 1,52  L 1,53  Z  " style="fill:rgb(145, 34, 0); fill-opacity:0.561; stroke:none;" />
 <path d="  M 5,38  L 6,38  L 6,37  L 5,37  Z  " style="fill:rgb(145, 34, 0); fill-opacity:0.561; stroke:none;" />
 <path d="  M 37,5  L 37,6  L 38,6  L 38,5  Z  " style="fill:rgb(145, 34, 0); fill-opacity:0.561; stroke:none;" />
 <path d="  M 52,1  L 52,2  L 53,2  L 53,1  Z  " style="fill:rgb(145, 34, 0); fill-opacity:0.561; stroke:none;" />
 <path d="  M 68,2  L 69,2  L 69,1  L 68,1  Z  " style="fill:rgb(145, 34, 0); fill-opacity:0.561; stroke:none;" />
 <path d="  M 83,6  L 84,6  L 84,5  L 83,5  Z  " style="fill:rgb(145, 34, 0); fill-opacity:0.561; stroke:none;" />
 <path d="  M 116,38  L 116,37  L 115,37  L 115,38  Z  " style="fill:rgb(145, 34, 0); fill-opacity:0.561; stroke:none;" />
 <path d="  M 119,53  L 120,53  L 120,52  L 119,52  Z  " style="fill:rgb(145, 34, 0); fill-opacity:0.561; stroke:none;" />
 <path d="  M 2,53  L 1,53  L 1,55  L 2,55  Z  " style="fill:rgb(145, 34, 0); fill-opacity:0.749; stroke:none;" />
 <path d="  M 2,68  L 2,67  L 1,67  L 1,68  Z  " style="fill:rgb(145, 34, 0); fill-opacity:0.749; stroke:none;" />
 <path d="  M 2,48  L 3,48  L 3,47  L 2,47  Z  " style="fill:rgb(145, 34, 0); fill-opacity:0.749; stroke:none;" />
 <path d="  M 3,73  L 2,73  L 2,74  L 3,74  Z  " style="fill:rgb(145, 34, 0); fill-opacity:0.749; stroke:none;" />
 <path d="  M 7,34  L 8,34  L 8,33  L 7,33  Z  " style="fill:rgb(145, 34, 0); fill-opacity:0.749; stroke:none;" />
 <path d="  M 7,87  L 7,88  L 8,88  L 8,87  Z  " style="fill:rgb(145, 34, 0); fill-opacity:0.749; stroke:none;" />
 <path d="  M 34,114  L 34,113  L 33,113  L 33,114  Z  " style="fill:rgb(145, 34, 0); fill-opacity:0.749; stroke:none;" />
 <path d="  M 47,3  L 48,3  L 48,2  L 47,2  Z  " style="fill:rgb(145, 34, 0); fill-opacity:0.749; stroke:none;" />
 <path d="  M 47,119  L 48,119  L 48,118  L 47,118  Z  " style="fill:rgb(145, 34, 0); fill-opacity:0.749; stroke:none;" />
 <path d="  M 55,2  L 55,1  L 53,1  L 53,2  Z  " style="fill:rgb(145, 34, 0); fill-opacity:0.749; stroke:none;" />
 <path d="  M 54,119  L 53,119  L 53,120  L 54,120  Z  " style="fill:rgb(145, 34, 0); fill-opacity:0.749; stroke:none;" />
 <path d="  M 68,2  L 68,1  L 66,1  L 66,2  Z  " style="fill:rgb(145, 34, 0); fill-opacity:0.749; stroke:none;" />
 <path d="  M 67,119  L 67,120  L 68,120  L 68,119  Z  " style="fill:rgb(145, 34, 0); fill-opacity:0.749; stroke:none;" />
 <path d="  M 73,119  L 74,119  L 74,118  L 73,118  Z  " style="fill:rgb(145, 34, 0); fill-opacity:0.749; stroke:none;" />
 <path d="  M 87,113  L 87,114  L 88,114  L 88,113  Z  " style="fill:rgb(145, 34, 0); fill-opacity:0.749; stroke:none;" />
 <path d="  M 113,33  L 113,34  L 114,34  L 114,33  Z  " style="fill:rgb(145, 34, 0); fill-opacity:0.749; stroke:none;" />
 <path d="  M 114,87  L 113,87  L 113,88  L 114,88  Z  " style="fill:rgb(145, 34, 0); fill-opacity:0.749; stroke:none;" />
 <path d="  M 119,48  L 119,47  L 118,47  L 118,48  Z  " style="fill:rgb(145, 34, 0); fill-opacity:0.749; stroke:none;" />
 <path d="  M 119,74  L 119,73  L 118,73  L 118,74  Z  " style="fill:rgb(145, 34, 0); fill-opacity:0.749; stroke:none;" />
 <path d="  M 119,55  L 120,55  L 120,53  L 119,53  Z  " style="fill:rgb(145, 34, 0); fill-opacity:0.749; stroke:none;" />
 <path d="  M 119,67  L 119,68  L 120,68  L 120,67  Z  " style="fill:rgb(145, 34, 0); fill-opacity:0.749; stroke:none;" />
 <path d="  M 7,51  L 7,47  L 8,47  L 8,43  L 9,43  L 9,40  L 10,40  L 10,38  L 11,38  L 11,36  L 12,36  L 12,34  L 13,34  L 13,32  L 14,32  L 14,31  L 15,31  L 15,29  L 16,29  L 16,28  L 17,28  L 17,26  L 18,26  L 18,25  L 19,25  L 19,24  L 20,24  L 20,23  L 21,23  L 21,22  L 22,22  L 22,21  L 23,21  L 23,20  L 24,20  L 24,19  L 25,19  L 25,18  L 27,18  L 27,17  L 28,17  L 28,16  L 29,16  L 29,15  L 31,15  L 31,14  L 32,14  L 32,13  L 34,13  L 34,12  L 36,12  L 36,11  L 38,11  L 38,10  L 40,10  L 40,9  L 43,9  L 43,8  L 47,8  L 47,7  L 51,7  L 51,6  L 70,6  L 70,7  L 74,7  L 74,8  L 78,8  L 78,9  L 81,9  L 81,10  L 83,10  L 83,11  L 85,11  L 85,12  L 87,12  L 87,13  L 89,13  L 89,14  L 90,14  L 90,15  L 92,15  L 92,16  L 93,16  L 93,17  L 94,17  L 94,18  L 96,18  L 96,19  L 97,19  L 97,20  L 98,20  L 98,21  L 99,21  L 99,22  L 100,22  L 100,23  L 101,23  L 101,24  L 102,24  L 102,25  L 103,25  L 103,26  L 104,26  L 104,28  L 105,28  L 105,29  L 106,29  L 106,31  L 107,31  L 107,32  L 108,32  L 108,34  L 109,34  L 109,36  L 110,36  L 110,38  L 111,38  L 111,40  L 112,40  L 112,43  L 113,43  L 113,47  L 114,47  L 114,51  L 115,51  L 115,70  L 114,70  L 114,74  L 113,74  L 113,78  L 112,78  L 112,81  L 111,81  L 111,83  L 110,83  L 110,85  L 109,85  L 109,87  L 108,87  L 108,89  L 107,89  L 107,90  L 106,90  L 106,92  L 105,92  L 105,93  L 104,93  L 104,95  L 103,95  L 103,96  L 102,96  L 102,97  L 101,97  L 101,98  L 100,98  L 100,99  L 99,99  L 99,100  L 98,100  L 98,101  L 97,101  L 97,102  L 96,102  L 96,103  L 95,103  L 95,104  L 93,104  L 93,105  L 92,105  L 92,106  L 90,106  L 90,107  L 89,107  L 89,108  L 87,108  L 87,109  L 85,109  L 85,110  L 83,110  L 83,111  L 81,111  L 81,112  L 78,112  L 78,113  L 75,113  L 75,114  L 70,114  L 70,115  L 51,115  L 51,114  L 46,114  L 46,113  L 43,113  L 43,112  L 40,112  L 40,111  L 38,111  L 38,110  L 36,110  L 36,109  L 34,109  L 34,108  L 32,108  L 32,107  L 31,107  L 31,106  L 29,106  L 29,105  L 28,105  L 28,104  L 26,104  L 26,103  L 25,103  L 25,102  L 24,102  L 24,101  L 23,101  L 23,100  L 22,100  L 22,99  L 21,99  L 21,98  L 20,98  L 20,97  L 19,97  L 19,96  L 18,96  L 18,95  L 17,95  L 17,93  L 16,93  L 16,92  L 15,92  L 15,90  L 14,90  L 14,89  L 13,89  L 13,87  L 12,87  L 12,85  L 11,85  L 11,83  L 10,83  L 10,81  L 9,81  L 9,78  L 8,78  L 8,74  L 7,74  L 7,70  L 6,70  L 6,51  Z  M 87,8  L 87,7  L 85,7  L 85,6  L 82,6  L 82,5  L 80,5  L 80,4  L 76,4  L 76,3  L 72,3  L 72,2  L 66,2  L 66,1  L 55,1  L 55,2  L 49,2  L 49,3  L 45,3  L 45,4  L 41,4  L 41,5  L 39,5  L 39,6  L 36,6  L 36,7  L 34,7  L 34,8  L 32,8  L 32,9  L 31,9  L 31,10  L 29,10  L 29,11  L 27,11  L 27,12  L 26,12  L 26,13  L 25,13  L 25,14  L 23,14  L 23,15  L 22,15  L 22,16  L 21,16  L 21,17  L 20,17  L 20,18  L 19,18  L 19,19  L 18,19  L 18,20  L 17,20  L 17,21  L 16,21  L 16,22  L 15,22  L 15,23  L 14,23  L 14,25  L 13,25  L 13,26  L 12,26  L 12,27  L 11,27  L 11,29  L 10,29  L 10,31  L 9,31  L 9,32  L 8,32  L 8,34  L 7,34  L 7,36  L 6,36  L 6,39  L 5,39  L 5,41  L 4,41  L 4,45  L 3,45  L 3,49  L 2,49  L 2,55  L 1,55  L 1,66  L 2,66  L 2,72  L 3,72  L 3,76  L 4,76  L 4,80  L 5,80  L 5,82  L 6,82  L 6,85  L 7,85  L 7,87  L 8,87  L 8,89  L 9,89  L 9,90  L 10,90  L 10,92  L 11,92  L 11,94  L 12,94  L 12,95  L 13,95  L 13,96  L 14,96  L 14,98  L 15,98  L 15,99  L 16,99  L 16,100  L 17,100  L 17,101  L 18,101  L 18,102  L 19,102  L 19,103  L 20,103  L 20,104  L 21,104  L 21,105  L 22,105  L 22,106  L 23,106  L 23,107  L 25,107  L 25,108  L 26,108  L 26,109  L 27,109  L 27,110  L 29,110  L 29,111  L 31,111  L 31,112  L 32,112  L 32,113  L 34,113  L 34,114  L 36,114  L 36,115  L 39,115  L 39,116  L 41,116  L 41,117  L 44,117  L 44,118  L 49,118  L 49,119  L 55,119  L 55,120  L 66,120  L 66,119  L 72,119  L 72,118  L 77,118  L 77,117  L 80,117  L 80,116  L 82,116  L 82,115  L 85,115  L 85,114  L 87,114  L 87,113  L 89,113  L 89,112  L 90,112  L 90,111  L 92,111  L 92,110  L 94,110  L 94,109  L 95,109  L 95,108  L 96,108  L 96,107  L 98,107  L 98,106  L 99,106  L 99,105  L 100,105  L 100,104  L 101,104  L 101,103  L 102,103  L 102,102  L 103,102  L 103,101  L 104,101  L 104,100  L 105,100  L 105,99  L 106,99  L 106,98  L 107,98  L 107,96  L 108,96  L 108,95  L 109,95  L 109,94  L 110,94  L 110,92  L 111,92  L 111,90  L 112,90  L 112,89  L 113,89  L 113,87  L 114,87  L 114,85  L 115,85  L 115,82  L 116,82  L 116,80  L 117,80  L 117,76  L 118,76  L 118,72  L 119,72  L 119,66  L 120,66  L 120,55  L 119,55  L 119,49  L 118,49  L 118,45  L 117,45  L 117,41  L 116,41  L 116,39  L 115,39  L 115,36  L 114,36  L 114,34  L 113,34  L 113,32  L 112,32  L 112,31  L 111,31  L 111,29  L 110,29  L 110,27  L 109,27  L 109,26  L 108,26  L 108,25  L 107,25  L 107,23  L 106,23  L 106,22  L 105,22  L 105,21  L 104,21  L 104,20  L 103,20  L 103,19  L 102,19  L 102,18  L 101,18  L 101,17  L 100,17  L 100,16  L 99,16  L 99,15  L 98,15  L 98,14  L 96,14  L 96,13  L 95,13  L 95,12  L 94,12  L 94,11  L 92,11  L 92,10  L 90,10  L 90,9  L 89,9  L 89,8  Z  " style="fill:rgb(145, 34, 0); fill-opacity:1.000; stroke:none;" />
 <path d="  M 2,66  L 1,66  L 1,67  L 2,67  Z  " style="fill:rgb(142, 33, 0); fill-opacity:0.765; stroke:none;" />
 <path d="  M 119,67  L 120,67  L 120,66  L 119,66  Z  " style="fill:rgb(142, 33, 0); fill-opacity:0.765; stroke:none;" />
 <path d="  M 1,68  L 1,69  L 2,69  L 2,68  Z  " style="fill:rgb(145, 34, 0); fill-opacity:0.624; stroke:none;" />
 <path d="  M 8,32  L 9,32  L 9,31  L 8,31  Z  " style="fill:rgb(145, 34, 0); fill-opacity:0.624; stroke:none;" />
 <path d="  M 16,22  L 16,21  L 15,21  L 15,22  Z  " style="fill:rgb(145, 34, 0); fill-opacity:0.624; stroke:none;" />
 <path d="  M 15,100  L 16,100  L 16,99  L 15,99  Z  " style="fill:rgb(145, 34, 0); fill-opacity:0.624; stroke:none;" />
 <path d="  M 22,16  L 22,15  L 21,15  L 21,16  Z  " style="fill:rgb(145, 34, 0); fill-opacity:0.624; stroke:none;" />
 <path d="  M 21,106  L 22,106  L 22,105  L 21,105  Z  " style="fill:rgb(145, 34, 0); fill-opacity:0.624; stroke:none;" />
 <path d="  M 31,8  L 31,9  L 32,9  L 32,8  Z  " style="fill:rgb(145, 34, 0); fill-opacity:0.624; stroke:none;" />
 <path d="  M 36,7  L 36,6  L 35,6  L 35,7  Z  " style="fill:rgb(145, 34, 0); fill-opacity:0.624; stroke:none;" />
 <path d="  M 52,120  L 53,120  L 53,119  L 52,119  Z  " style="fill:rgb(145, 34, 0); fill-opacity:0.624; stroke:none;" />
 <path d="  M 69,120  L 69,119  L 68,119  L 68,120  Z  " style="fill:rgb(145, 34, 0); fill-opacity:0.624; stroke:none;" />
 <path d="  M 86,6  L 85,6  L 85,7  L 86,7  Z  " style="fill:rgb(145, 34, 0); fill-opacity:0.624; stroke:none;" />
 <path d="  M 90,8  L 89,8  L 89,9  L 90,9  Z  " style="fill:rgb(145, 34, 0); fill-opacity:0.624; stroke:none;" />
 <path d="  M 99,16  L 100,16  L 100,15  L 99,15  Z  " style="fill:rgb(145, 34, 0); fill-opacity:0.624; stroke:none;" />
 <path d="  M 100,106  L 100,105  L 99,105  L 99,106  Z  " style="fill:rgb(145, 34, 0); fill-opacity:0.624; stroke:none;" />
 <path d="  M 105,22  L 106,22  L 106,21  L 105,21  Z  " style="fill:rgb(145, 34, 0); fill-opacity:0.624; stroke:none;" />
 <path d="  M 106,99  L 105,99  L 105,100  L 106,100  Z  " style="fill:rgb(145, 34, 0); fill-opacity:0.624; stroke:none;" />
 <path d="  M 113,32  L 113,31  L 112,31  L 112,32  Z  " style="fill:rgb(145, 34, 0); fill-opacity:0.624; stroke:none;" />
 <path d="  M 112,90  L 113,90  L 113,89  L 112,89  Z  " style="fill:rgb(145, 34, 0); fill-opacity:0.624; stroke:none;" />
 <path d="  M 2,48  L 2,49  L 3,49  L 3,48  Z  " style="fill:rgb(145, 34, 0); fill-opacity:0.937; stroke:none;" />
 <path d="  M 2,73  L 3,73  L 3,72  L 2,72  Z  " style="fill:rgb(145, 34, 0); fill-opacity:0.937; stroke:none;" />
 <path d="  M 4,44  L 3,44  L 3,45  L 4,45  Z  " style="fill:rgb(145, 34, 0); fill-opacity:0.937; stroke:none;" />
 <path d="  M 6,38  L 5,38  L 5,39  L 6,39  Z  " style="fill:rgb(145, 34, 0); fill-opacity:0.937; stroke:none;" />
 <path d="  M 5,83  L 6,83  L 6,82  L 5,82  Z  " style="fill:rgb(145, 34, 0); fill-opacity:0.937; stroke:none;" />
 <path d="  M 10,30  L 9,30  L 9,31  L 10,31  Z  " style="fill:rgb(145, 34, 0); fill-opacity:0.937; stroke:none;" />
 <path d="  M 13,24  L 13,25  L 14,25  L 14,24  Z  " style="fill:rgb(145, 34, 0); fill-opacity:0.937; stroke:none;" />
 <path d="  M 13,96  L 13,97  L 14,97  L 14,96  Z  " style="fill:rgb(145, 34, 0); fill-opacity:0.937; stroke:none;" />
 <path d="  M 24,13  L 24,14  L 25,14  L 25,13  Z  " style="fill:rgb(145, 34, 0); fill-opacity:0.937; stroke:none;" />
 <path d="  M 24,108  L 25,108  L 25,107  L 24,107  Z  " style="fill:rgb(145, 34, 0); fill-opacity:0.937; stroke:none;" />
 <path d="  M 31,9  L 30,9  L 30,10  L 31,10  Z  " style="fill:rgb(145, 34, 0); fill-opacity:0.937; stroke:none;" />
 <path d="  M 39,5  L 38,5  L 38,6  L 39,6  Z  " style="fill:rgb(145, 34, 0); fill-opacity:0.937; stroke:none;" />
 <path d="  M 39,115  L 38,115  L 38,116  L 39,116  Z  " style="fill:rgb(145, 34, 0); fill-opacity:0.937; stroke:none;" />
 <path d="  M 44,3  L 44,4  L 45,4  L 45,3  Z  " style="fill:rgb(145, 34, 0); fill-opacity:0.937; stroke:none;" />
 <path d="  M 49,3  L 49,2  L 48,2  L 48,3  Z  " style="fill:rgb(145, 34, 0); fill-opacity:0.937; stroke:none;" />
 <path d="  M 72,2  L 72,3  L 73,3  L 73,2  Z  " style="fill:rgb(145, 34, 0); fill-opacity:0.937; stroke:none;" />
 <path d="  M 77,4  L 77,3  L 76,3  L 76,4  Z  " style="fill:rgb(145, 34, 0); fill-opacity:0.937; stroke:none;" />
 <path d="  M 82,6  L 83,6  L 83,5  L 82,5  Z  " style="fill:rgb(145, 34, 0); fill-opacity:0.937; stroke:none;" />
 <path d="  M 83,115  L 82,115  L 82,116  L 83,116  Z  " style="fill:rgb(145, 34, 0); fill-opacity:0.937; stroke:none;" />
 <path d="  M 90,9  L 90,10  L 91,10  L 91,9  Z  " style="fill:rgb(145, 34, 0); fill-opacity:0.937; stroke:none;" />
 <path d="  M 96,13  L 96,14  L 97,14  L 97,13  Z  " style="fill:rgb(145, 34, 0); fill-opacity:0.937; stroke:none;" />
 <path d="  M 97,107  L 96,107  L 96,108  L 97,108  Z  " style="fill:rgb(145, 34, 0); fill-opacity:0.937; stroke:none;" />
 <path d="  M 108,24  L 107,24  L 107,25  L 108,25  Z  " style="fill:rgb(145, 34, 0); fill-opacity:0.937; stroke:none;" />
 <path d="  M 108,96  L 107,96  L 107,97  L 108,97  Z  " style="fill:rgb(145, 34, 0); fill-opacity:0.937; stroke:none;" />
 <path d="  M 111,31  L 112,31  L 112,30  L 111,30  Z  " style="fill:rgb(145, 34, 0); fill-opacity:0.937; stroke:none;" />
 <path d="  M 115,39  L 116,39  L 116,38  L 115,38  Z  " style="fill:rgb(145, 34, 0); fill-opacity:0.937; stroke:none;" />
 <path d="  M 115,83  L 116,83  L 116,82  L 115,82  Z  " style="fill:rgb(145, 34, 0); fill-opacity:0.937; stroke:none;" />
 <path d="  M 117,44  L 117,45  L 118,45  L 118,44  Z  " style="fill:rgb(145, 34, 0); fill-opacity:0.937; stroke:none;" />
 <path d="  M 119,49  L 119,48  L 118,48  L 118,49  Z  " style="fill:rgb(145, 34, 0); fill-opacity:0.937; stroke:none;" />
 <path d="  M 118,72  L 118,73  L 119,73  L 119,72  Z  " style="fill:rgb(145, 34, 0); fill-opacity:0.937; stroke:none;" />
 <path d="  M 4,41  L 3,41  L 3,42  L 4,42  Z  " style="fill:rgb(145, 34, 0); fill-opacity:0.063; stroke:none;" />
 <path d="  M 3,80  L 4,80  L 4,79  L 3,79  Z  " style="fill:rgb(145, 34, 0); fill-opacity:0.063; stroke:none;" />
 <path d="  M 16,19  L 16,20  L 17,20  L 17,19  Z  " style="fill:rgb(145, 34, 0); fill-opacity:0.063; stroke:none;" />
 <path d="  M 17,101  L 16,101  L 16,102  L 17,102  Z  " style="fill:rgb(145, 34, 0); fill-opacity:0.063; stroke:none;" />
 <path d="  M 18,19  L 18,18  L 17,18  L 17,19  Z  " style="fill:rgb(145, 34, 0); fill-opacity:0.063; stroke:none;" />
 <path d="  M 18,102  L 17,102  L 17,103  L 18,103  Z  " style="fill:rgb(145, 34, 0); fill-opacity:0.063; stroke:none;" />
 <path d="  M 18,17  L 18,18  L 19,18  L 19,17  Z  " style="fill:rgb(145, 34, 0); fill-opacity:0.063; stroke:none;" />
 <path d="  M 18,103  L 18,104  L 19,104  L 19,103  Z  " style="fill:rgb(145, 34, 0); fill-opacity:0.063; stroke:none;" />
 <path d="  M 19,17  L 20,17  L 20,16  L 19,16  Z  " style="fill:rgb(145, 34, 0); fill-opacity:0.063; stroke:none;" />
 <path d="  M 19,104  L 19,105  L 20,105  L 20,104  Z  " style="fill:rgb(145, 34, 0); fill-opacity:0.063; stroke:none;" />
 <path d="  M 42,3  L 41,3  L 41,4  L 42,4  Z  " style="fill:rgb(145, 34, 0); fill-opacity:0.063; stroke:none;" />
 <path d="  M 79,3  L 79,4  L 80,4  L 80,3  Z  " style="fill:rgb(145, 34, 0); fill-opacity:0.063; stroke:none;" />
 <path d="  M 101,17  L 102,17  L 102,16  L 101,16  Z  " style="fill:rgb(145, 34, 0); fill-opacity:0.063; stroke:none;" />
 <path d="  M 102,104  L 101,104  L 101,105  L 102,105  Z  " style="fill:rgb(145, 34, 0); fill-opacity:0.063; stroke:none;" />
 <path d="  M 103,18  L 103,17  L 102,17  L 102,18  Z  " style="fill:rgb(145, 34, 0); fill-opacity:0.063; stroke:none;" />
 <path d="  M 103,103  L 102,103  L 102,104  L 103,104  Z  " style="fill:rgb(145, 34, 0); fill-opacity:0.063; stroke:none;" />
 <path d="  M 104,19  L 104,18  L 103,18  L 103,19  Z  " style="fill:rgb(145, 34, 0); fill-opacity:0.063; stroke:none;" />
 <path d="  M 103,102  L 103,103  L 104,103  L 104,102  Z  " style="fill:rgb(145, 34, 0); fill-opacity:0.063; stroke:none;" />
 <path d="  M 104,20  L 105,20  L 105,19  L 104,19  Z  " style="fill:rgb(145, 34, 0); fill-opacity:0.063; stroke:none;" />
 <path d="  M 104,102  L 105,102  L 105,101  L 104,101  Z  " style="fill:rgb(145, 34, 0); fill-opacity:0.063; stroke:none;" />
 <path d="  M 117,41  L 117,42  L 118,42  L 118,41  Z  " style="fill:rgb(145, 34, 0); fill-opacity:0.063; stroke:none;" />
 <path d="  M 117,80  L 118,80  L 118,79  L 117,79  Z  " style="fill:rgb(145, 34, 0); fill-opacity:0.063; stroke:none;" />
 <path d="  M 4,42  L 3,42  L 3,43  L 4,43  Z  " style="fill:rgb(145, 34, 0); fill-opacity:0.376; stroke:none;" />
 <path d="  M 4,79  L 4,78  L 3,78  L 3,79  Z  " style="fill:rgb(145, 34, 0); fill-opacity:0.376; stroke:none;" />
 <path d="  M 4,39  L 4,40  L 5,40  L 5,39  Z  " style="fill:rgb(145, 34, 0); fill-opacity:0.376; stroke:none;" />
 <path d="  M 4,82  L 5,82  L 5,81  L 4,81  Z  " style="fill:rgb(145, 34, 0); fill-opacity:0.376; stroke:none;" />
 <path d="  M 40,5  L 40,4  L 39,4  L 39,5  Z  " style="fill:rgb(145, 34, 0); fill-opacity:0.376; stroke:none;" />
 <path d="  M 39,117  L 40,117  L 40,116  L 39,116  Z  " style="fill:rgb(145, 34, 0); fill-opacity:0.376; stroke:none;" />
 <path d="  M 42,4  L 43,4  L 43,3  L 42,3  Z  " style="fill:rgb(145, 34, 0); fill-opacity:0.376; stroke:none;" />
 <path d="  M 43,117  L 42,117  L 42,118  L 43,118  Z  " style="fill:rgb(145, 34, 0); fill-opacity:0.376; stroke:none;" />
 <path d="  M 79,3  L 78,3  L 78,4  L 79,4  Z  " style="fill:rgb(145, 34, 0); fill-opacity:0.376; stroke:none;" />
 <path d="  M 78,118  L 79,118  L 79,117  L 78,117  Z  " style="fill:rgb(145, 34, 0); fill-opacity:0.376; stroke:none;" />
 <path d="  M 82,4  L 81,4  L 81,5  L 82,5  Z  " style="fill:rgb(145, 34, 0); fill-opacity:0.376; stroke:none;" />
 <path d="  M 81,116  L 81,117  L 82,117  L 82,116  Z  " style="fill:rgb(145, 34, 0); fill-opacity:0.376; stroke:none;" />
 <path d="  M 116,40  L 117,40  L 117,39  L 116,39  Z  " style="fill:rgb(145, 34, 0); fill-opacity:0.376; stroke:none;" />
 <path d="  M 116,82  L 117,82  L 117,81  L 116,81  Z  " style="fill:rgb(145, 34, 0); fill-opacity:0.376; stroke:none;" />
 <path d="  M 118,43  L 118,42  L 117,42  L 117,43  Z  " style="fill:rgb(145, 34, 0); fill-opacity:0.376; stroke:none;" />
 <path d="  M 118,79  L 118,78  L 117,78  L 117,79  Z  " style="fill:rgb(145, 34, 0); fill-opacity:0.376; stroke:none;" />
 <path d="  M 4,44  L 4,43  L 3,43  L 3,44  Z  " style="fill:rgb(145, 34, 0); fill-opacity:0.686; stroke:none;" />
 <path d="  M 3,77  L 3,78  L 4,78  L 4,77  Z  " style="fill:rgb(145, 34, 0); fill-opacity:0.686; stroke:none;" />
 <path d="  M 5,41  L 5,40  L 4,40  L 4,41  Z  " style="fill:rgb(145, 34, 0); fill-opacity:0.686; stroke:none;" />
 <path d="  M 4,80  L 4,81  L 5,81  L 5,80  Z  " style="fill:rgb(145, 34, 0); fill-opacity:0.686; stroke:none;" />
 <path d="  M 40,5  L 41,5  L 41,4  L 40,4  Z  " style="fill:rgb(145, 34, 0); fill-opacity:0.686; stroke:none;" />
 <path d="  M 41,117  L 41,116  L 40,116  L 40,117  Z  " style="fill:rgb(145, 34, 0); fill-opacity:0.686; stroke:none;" />
 <path d="  M 43,3  L 43,4  L 44,4  L 44,3  Z  " style="fill:rgb(145, 34, 0); fill-opacity:0.686; stroke:none;" />
 <path d="  M 43,118  L 44,118  L 44,117  L 43,117  Z  " style="fill:rgb(145, 34, 0); fill-opacity:0.686; stroke:none;" />
 <path d="  M 77,4  L 78,4  L 78,3  L 77,3  Z  " style="fill:rgb(145, 34, 0); fill-opacity:0.686; stroke:none;" />
 <path d="  M 78,118  L 78,117  L 77,117  L 77,118  Z  " style="fill:rgb(145, 34, 0); fill-opacity:0.686; stroke:none;" />
 <path d="  M 81,4  L 80,4  L 80,5  L 81,5  Z  " style="fill:rgb(145, 34, 0); fill-opacity:0.686; stroke:none;" />
 <path d="  M 81,116  L 80,116  L 80,117  L 81,117  Z  " style="fill:rgb(145, 34, 0); fill-opacity:0.686; stroke:none;" />
 <path d="  M 116,40  L 116,41  L 117,41  L 117,40  Z  " style="fill:rgb(145, 34, 0); fill-opacity:0.686; stroke:none;" />
 <path d="  M 117,81  L 117,80  L 116,80  L 116,81  Z  " style="fill:rgb(145, 34, 0); fill-opacity:0.686; stroke:none;" />
 <path d="  M 117,43  L 117,44  L 118,44  L 118,43  Z  " style="fill:rgb(145, 34, 0); fill-opacity:0.686; stroke:none;" />
 <path d="  M 117,77  L 117,78  L 118,78  L 118,77  Z  " style="fill:rgb(145, 34, 0); fill-opacity:0.686; stroke:none;" />
 <path d="  M 4,76  L 3,76  L 3,77  L 4,77  Z  " style="fill:rgb(143, 33, 0); fill-opacity:0.953; stroke:none;" />
 <path d="  M 9,90  L 9,91  L 10,91  L 10,90  Z  " style="fill:rgb(143, 33, 0); fill-opacity:0.953; stroke:none;" />
 <path d="  M 31,111  L 30,111  L 30,112  L 31,112  Z  " style="fill:rgb(143, 33, 0); fill-opacity:0.953; stroke:none;" />
 <path d="  M 49,119  L 49,118  L 48,118  L 48,119  Z  " style="fill:rgb(143, 33, 0); fill-opacity:0.953; stroke:none;" />
 <path d="  M 72,118  L 72,119  L 73,119  L 73,118  Z  " style="fill:rgb(143, 33, 0); fill-opacity:0.953; stroke:none;" />
 <path d="  M 91,112  L 91,111  L 90,111  L 90,112  Z  " style="fill:rgb(143, 33, 0); fill-opacity:0.953; stroke:none;" />
 <path d="  M 112,91  L 112,90  L 111,90  L 111,91  Z  " style="fill:rgb(143, 33, 0); fill-opacity:0.953; stroke:none;" />
 <path d="  M 118,76  L 117,76  L 117,77  L 118,77  Z  " style="fill:rgb(143, 33, 0); fill-opacity:0.953; stroke:none;" />
 <path d="  M 5,83  L 5,82  L 4,82  L 4,83  Z  " style="fill:rgb(0, 0, 0); fill-opacity:0.016; stroke:none;" />
 <path d="  M 15,100  L 15,101  L 16,101  L 16,100  Z  " style="fill:rgb(0, 0, 0); fill-opacity:0.016; stroke:none;" />
 <path d="  M 21,106  L 21,105  L 20,105  L 20,106  Z  " style="fill:rgb(0, 0, 0); fill-opacity:0.016; stroke:none;" />
 <path d="  M 29,112  L 29,111  L 28,111  L 28,112  Z  " style="fill:rgb(0, 0, 0); fill-opacity:0.016; stroke:none;" />
 <path d="  M 38,116  L 38,117  L 39,117  L 39,116  Z  " style="fill:rgb(0, 0, 0); fill-opacity:0.016; stroke:none;" />
 <path d="  M 82,116  L 82,117  L 83,117  L 83,116  Z  " style="fill:rgb(0, 0, 0); fill-opacity:0.016; stroke:none;" />
 <path d="  M 92,111  L 92,112  L 93,112  L 93,111  Z  " style="fill:rgb(0, 0, 0); fill-opacity:0.016; stroke:none;" />
 <path d="  M 100,105  L 100,106  L 101,106  L 101,105  Z  " style="fill:rgb(0, 0, 0); fill-opacity:0.016; stroke:none;" />
 <path d="  M 105,100  L 105,101  L 106,101  L 106,100  Z  " style="fill:rgb(0, 0, 0); fill-opacity:0.016; stroke:none;" />
 <path d="  M 117,83  L 117,82  L 116,82  L 116,83  Z  " style="fill:rgb(0, 0, 0); fill-opacity:0.016; stroke:none;" />
 <path d="  M 6,83  L 5,83  L 5,84  L 6,84  Z  " style="fill:rgb(141, 33, 0); fill-opacity:0.576; stroke:none;" />
 <path d="  M 38,116  L 38,115  L 37,115  L 37,116  Z  " style="fill:rgb(141, 33, 0); fill-opacity:0.576; stroke:none;" />
 <path d="  M 83,115  L 83,116  L 84,116  L 84,115  Z  " style="fill:rgb(141, 33, 0); fill-opacity:0.576; stroke:none;" />
 <path d="  M 116,83  L 115,83  L 115,84  L 116,84  Z  " style="fill:rgb(141, 33, 0); fill-opacity:0.576; stroke:none;" />
 <path d="  M 120,69  L 120,68  L 119,68  L 119,69  Z  " style="fill:rgb(141, 33, 0); fill-opacity:0.576; stroke:none;" />
 <path d="  M 7,34  L 6,34  L 6,35  L 7,35  Z  " style="fill:rgb(134, 31, 0); fill-opacity:0.204; stroke:none;" />
 <path d="  M 8,33  L 8,32  L 7,32  L 7,33  Z  " style="fill:rgb(134, 31, 0); fill-opacity:0.204; stroke:none;" />
 <path d="  M 8,88  L 7,88  L 7,89  L 8,89  Z  " style="fill:rgb(134, 31, 0); fill-opacity:0.204; stroke:none;" />
 <path d="  M 10,27  L 10,28  L 11,28  L 11,27  Z  " style="fill:rgb(134, 31, 0); fill-opacity:0.204; stroke:none;" />
 <path d="  M 28,10  L 27,10  L 27,11  L 28,11  Z  " style="fill:rgb(134, 31, 0); fill-opacity:0.204; stroke:none;" />
 <path d="  M 93,11  L 94,11  L 94,10  L 93,10  Z  " style="fill:rgb(134, 31, 0); fill-opacity:0.204; stroke:none;" />
 <path d="  M 110,28  L 111,28  L 111,27  L 110,27  Z  " style="fill:rgb(134, 31, 0); fill-opacity:0.204; stroke:none;" />
 <path d="  M 110,94  L 111,94  L 111,93  L 110,93  Z  " style="fill:rgb(134, 31, 0); fill-opacity:0.204; stroke:none;" />
 <path d="  M 114,89  L 114,88  L 113,88  L 113,89  Z  " style="fill:rgb(134, 31, 0); fill-opacity:0.204; stroke:none;" />
 <path d="  M 115,34  L 114,34  L 114,35  L 115,35  Z  " style="fill:rgb(134, 31, 0); fill-opacity:0.204; stroke:none;" />
 <path d="  M 6,35  L 6,36  L 7,36  L 7,35  Z  " style="fill:rgb(141, 33, 0); fill-opacity:0.639; stroke:none;" />
 <path d="  M 7,85  L 6,85  L 6,86  L 7,86  Z  " style="fill:rgb(141, 33, 0); fill-opacity:0.639; stroke:none;" />
 <path d="  M 8,90  L 9,90  L 9,89  L 8,89  Z  " style="fill:rgb(141, 33, 0); fill-opacity:0.639; stroke:none;" />
 <path d="  M 32,113  L 32,112  L 31,112  L 31,113  Z  " style="fill:rgb(141, 33, 0); fill-opacity:0.639; stroke:none;" />
 <path d="  M 90,112  L 89,112  L 89,113  L 90,113  Z  " style="fill:rgb(141, 33, 0); fill-opacity:0.639; stroke:none;" />
 <path d="  M 115,35  L 114,35  L 114,36  L 115,36  Z  " style="fill:rgb(141, 33, 0); fill-opacity:0.639; stroke:none;" />
 <path d="  M 115,86  L 115,85  L 114,85  L 114,86  Z  " style="fill:rgb(141, 33, 0); fill-opacity:0.639; stroke:none;" />
 <path d="  M 6,52  L 7,52  L 7,51  L 6,51  Z  " style="fill:rgb(151, 36, 0); fill-opacity:1.000; stroke:none;" />
 <path d="  M 6,70  L 7,70  L 7,69  L 6,69  Z  " style="fill:rgb(151, 36, 0); fill-opacity:1.000; stroke:none;" />
 <path d="  M 9,44  L 9,43  L 8,43  L 8,44  Z  " style="fill:rgb(151, 36, 0); fill-opacity:1.000; stroke:none;" />
 <path d="  M 8,78  L 9,78  L 9,77  L 8,77  Z  " style="fill:rgb(151, 36, 0); fill-opacity:1.000; stroke:none;" />
 <path d="  M 11,39  L 11,38  L 10,38  L 10,39  Z  " style="fill:rgb(151, 36, 0); fill-opacity:1.000; stroke:none;" />
 <path d="  M 13,88  L 13,89  L 14,89  L 14,88  Z  " style="fill:rgb(151, 36, 0); fill-opacity:1.000; stroke:none;" />
 <path d="  M 16,30  L 16,29  L 15,29  L 15,30  Z  " style="fill:rgb(151, 36, 0); fill-opacity:1.000; stroke:none;" />
 <path d="  M 16,91  L 15,91  L 15,92  L 16,92  Z  " style="fill:rgb(151, 36, 0); fill-opacity:1.000; stroke:none;" />
 <path d="  M 18,96  L 19,96  L 19,95  L 18,95  Z  " style="fill:rgb(151, 36, 0); fill-opacity:1.000; stroke:none;" />
 <path d="  M 26,103  L 26,102  L 25,102  L 25,103  Z  " style="fill:rgb(151, 36, 0); fill-opacity:1.000; stroke:none;" />
 <path d="  M 30,15  L 29,15  L 29,16  L 30,16  Z  " style="fill:rgb(151, 36, 0); fill-opacity:1.000; stroke:none;" />
 <path d="  M 29,106  L 30,106  L 30,105  L 29,105  Z  " style="fill:rgb(151, 36, 0); fill-opacity:1.000; stroke:none;" />
 <path d="  M 32,108  L 33,108  L 33,107  L 32,107  Z  " style="fill:rgb(151, 36, 0); fill-opacity:1.000; stroke:none;" />
 <path d="  M 39,10  L 38,10  L 38,11  L 39,11  Z  " style="fill:rgb(151, 36, 0); fill-opacity:1.000; stroke:none;" />
 <path d="  M 43,8  L 43,9  L 44,9  L 44,8  Z  " style="fill:rgb(151, 36, 0); fill-opacity:1.000; stroke:none;" />
 <path d="  M 43,112  L 43,113  L 44,113  L 44,112  Z  " style="fill:rgb(151, 36, 0); fill-opacity:1.000; stroke:none;" />
 <path d="  M 51,115  L 52,115  L 52,114  L 51,114  Z  " style="fill:rgb(151, 36, 0); fill-opacity:1.000; stroke:none;" />
 <path d="  M 69,114  L 69,115  L 70,115  L 70,114  Z  " style="fill:rgb(151, 36, 0); fill-opacity:1.000; stroke:none;" />
 <path d="  M 78,8  L 77,8  L 77,9  L 78,9  Z  " style="fill:rgb(151, 36, 0); fill-opacity:1.000; stroke:none;" />
 <path d="  M 77,112  L 77,113  L 78,113  L 78,112  Z  " style="fill:rgb(151, 36, 0); fill-opacity:1.000; stroke:none;" />
 <path d="  M 82,11  L 83,11  L 83,10  L 82,10  Z  " style="fill:rgb(151, 36, 0); fill-opacity:1.000; stroke:none;" />
 <path d="  M 88,108  L 89,108  L 89,107  L 88,107  Z  " style="fill:rgb(151, 36, 0); fill-opacity:1.000; stroke:none;" />
 <path d="  M 91,16  L 92,16  L 92,15  L 91,15  Z  " style="fill:rgb(151, 36, 0); fill-opacity:1.000; stroke:none;" />
 <path d="  M 91,106  L 92,106  L 92,105  L 91,105  Z  " style="fill:rgb(151, 36, 0); fill-opacity:1.000; stroke:none;" />
 <path d="  M 95,103  L 96,103  L 96,102  L 95,102  Z  " style="fill:rgb(151, 36, 0); fill-opacity:1.000; stroke:none;" />
 <path d="  M 102,95  L 102,96  L 103,96  L 103,95  Z  " style="fill:rgb(151, 36, 0); fill-opacity:1.000; stroke:none;" />
 <path d="  M 105,29  L 105,30  L 106,30  L 106,29  Z  " style="fill:rgb(151, 36, 0); fill-opacity:1.000; stroke:none;" />
 <path d="  M 106,91  L 105,91  L 105,92  L 106,92  Z  " style="fill:rgb(151, 36, 0); fill-opacity:1.000; stroke:none;" />
 <path d="  M 108,89  L 108,88  L 107,88  L 107,89  Z  " style="fill:rgb(151, 36, 0); fill-opacity:1.000; stroke:none;" />
 <path d="  M 111,38  L 110,38  L 110,39  L 111,39  Z  " style="fill:rgb(151, 36, 0); fill-opacity:1.000; stroke:none;" />
 <path d="  M 113,44  L 113,43  L 112,43  L 112,44  Z  " style="fill:rgb(151, 36, 0); fill-opacity:1.000; stroke:none;" />
 <path d="  M 113,78  L 113,77  L 112,77  L 112,78  Z  " style="fill:rgb(151, 36, 0); fill-opacity:1.000; stroke:none;" />
 <path d="  M 114,51  L 114,52  L 115,52  L 115,51  Z  " style="fill:rgb(151, 36, 0); fill-opacity:1.000; stroke:none;" />
 <path d="  M 115,69  L 114,69  L 114,70  L 115,70  Z  " style="fill:rgb(151, 36, 0); fill-opacity:1.000; stroke:none;" />
 <path d="  M 6,53  L 7,53  L 7,52  L 6,52  Z  " style="fill:rgb(157, 37, 0); fill-opacity:1.000; stroke:none;" />
 <path d="  M 6,68  L 6,69  L 7,69  L 7,68  Z  " style="fill:rgb(157, 37, 0); fill-opacity:1.000; stroke:none;" />
 <path d="  M 7,47  L 7,48  L 8,48  L 8,47  Z  " style="fill:rgb(157, 37, 0); fill-opacity:1.000; stroke:none;" />
 <path d="  M 8,73  L 7,73  L 7,74  L 8,74  Z  " style="fill:rgb(157, 37, 0); fill-opacity:1.000; stroke:none;" />
 <path d="  M 11,37  L 12,37  L 12,36  L 11,36  Z  " style="fill:rgb(157, 37, 0); fill-opacity:1.000; stroke:none;" />
 <path d="  M 12,85  L 12,84  L 11,84  L 11,85  Z  " style="fill:rgb(157, 37, 0); fill-opacity:1.000; stroke:none;" />
 <path d="  M 12,87  L 13,87  L 13,86  L 12,86  Z  " style="fill:rgb(157, 37, 0); fill-opacity:1.000; stroke:none;" />
 <path d="  M 20,98  L 21,98  L 21,97  L 20,97  Z  " style="fill:rgb(157, 37, 0); fill-opacity:1.000; stroke:none;" />
 <path d="  M 23,101  L 24,101  L 24,100  L 23,100  Z  " style="fill:rgb(157, 37, 0); fill-opacity:1.000; stroke:none;" />
 <path d="  M 35,108  L 34,108  L 34,109  L 35,109  Z  " style="fill:rgb(157, 37, 0); fill-opacity:1.000; stroke:none;" />
 <path d="  M 37,12  L 37,11  L 36,11  L 36,12  Z  " style="fill:rgb(157, 37, 0); fill-opacity:1.000; stroke:none;" />
 <path d="  M 37,109  L 36,109  L 36,110  L 37,110  Z  " style="fill:rgb(157, 37, 0); fill-opacity:1.000; stroke:none;" />
 <path d="  M 48,8  L 48,7  L 47,7  L 47,8  Z  " style="fill:rgb(157, 37, 0); fill-opacity:1.000; stroke:none;" />
 <path d="  M 52,6  L 52,7  L 53,7  L 53,6  Z  " style="fill:rgb(157, 37, 0); fill-opacity:1.000; stroke:none;" />
 <path d="  M 52,115  L 53,115  L 53,114  L 52,114  Z  " style="fill:rgb(157, 37, 0); fill-opacity:1.000; stroke:none;" />
 <path d="  M 69,6  L 68,6  L 68,7  L 69,7  Z  " style="fill:rgb(157, 37, 0); fill-opacity:1.000; stroke:none;" />
 <path d="  M 69,114  L 68,114  L 68,115  L 69,115  Z  " style="fill:rgb(157, 37, 0); fill-opacity:1.000; stroke:none;" />
 <path d="  M 74,8  L 74,7  L 73,7  L 73,8  Z  " style="fill:rgb(157, 37, 0); fill-opacity:1.000; stroke:none;" />
 <path d="  M 84,11  L 84,12  L 85,12  L 85,11  Z  " style="fill:rgb(157, 37, 0); fill-opacity:1.000; stroke:none;" />
 <path d="  M 84,109  L 84,110  L 85,110  L 85,109  Z  " style="fill:rgb(157, 37, 0); fill-opacity:1.000; stroke:none;" />
 <path d="  M 87,109  L 87,108  L 86,108  L 86,109  Z  " style="fill:rgb(157, 37, 0); fill-opacity:1.000; stroke:none;" />
 <path d="  M 97,100  L 97,101  L 98,101  L 98,100  Z  " style="fill:rgb(157, 37, 0); fill-opacity:1.000; stroke:none;" />
 <path d="  M 101,97  L 100,97  L 100,98  L 101,98  Z  " style="fill:rgb(157, 37, 0); fill-opacity:1.000; stroke:none;" />
 <path d="  M 109,86  L 108,86  L 108,87  L 109,87  Z  " style="fill:rgb(157, 37, 0); fill-opacity:1.000; stroke:none;" />
 <path d="  M 110,37  L 110,36  L 109,36  L 109,37  Z  " style="fill:rgb(157, 37, 0); fill-opacity:1.000; stroke:none;" />
 <path d="  M 110,85  L 110,84  L 109,84  L 109,85  Z  " style="fill:rgb(157, 37, 0); fill-opacity:1.000; stroke:none;" />
 <path d="  M 113,48  L 114,48  L 114,47  L 113,47  Z  " style="fill:rgb(157, 37, 0); fill-opacity:1.000; stroke:none;" />
 <path d="  M 114,73  L 113,73  L 113,74  L 114,74  Z  " style="fill:rgb(157, 37, 0); fill-opacity:1.000; stroke:none;" />
 <path d="  M 114,53  L 115,53  L 115,52  L 114,52  Z  " style="fill:rgb(157, 37, 0); fill-opacity:1.000; stroke:none;" />
 <path d="  M 115,69  L 115,68  L 114,68  L 114,69  Z  " style="fill:rgb(157, 37, 0); fill-opacity:1.000; stroke:none;" />
 <path d="  M 6,53  L 6,54  L 7,54  L 7,53  Z  " style="fill:rgb(166, 39, 0); fill-opacity:1.000; stroke:none;" />
 <path d="  M 7,68  L 7,67  L 6,67  L 6,68  Z  " style="fill:rgb(166, 39, 0); fill-opacity:1.000; stroke:none;" />
 <path d="  M 9,44  L 8,44  L 8,45  L 9,45  Z  " style="fill:rgb(166, 39, 0); fill-opacity:1.000; stroke:none;" />
 <path d="  M 9,76  L 8,76  L 8,77  L 9,77  Z  " style="fill:rgb(166, 39, 0); fill-opacity:1.000; stroke:none;" />
 <path d="  M 15,32  L 15,31  L 14,31  L 14,32  Z  " style="fill:rgb(166, 39, 0); fill-opacity:1.000; stroke:none;" />
 <path d="  M 15,89  L 14,89  L 14,90  L 15,90  Z  " style="fill:rgb(166, 39, 0); fill-opacity:1.000; stroke:none;" />
 <path d="  M 32,15  L 32,14  L 31,14  L 31,15  Z  " style="fill:rgb(166, 39, 0); fill-opacity:1.000; stroke:none;" />
 <path d="  M 31,107  L 32,107  L 32,106  L 31,106  Z  " style="fill:rgb(166, 39, 0); fill-opacity:1.000; stroke:none;" />
 <path d="  M 42,111  L 41,111  L 41,112  L 42,112  Z  " style="fill:rgb(166, 39, 0); fill-opacity:1.000; stroke:none;" />
 <path d="  M 44,9  L 45,9  L 45,8  L 44,8  Z  " style="fill:rgb(166, 39, 0); fill-opacity:1.000; stroke:none;" />
 <path d="  M 45,112  L 44,112  L 44,113  L 45,113  Z  " style="fill:rgb(166, 39, 0); fill-opacity:1.000; stroke:none;" />
 <path d="  M 54,6  L 53,6  L 53,7  L 54,7  Z  " style="fill:rgb(166, 39, 0); fill-opacity:1.000; stroke:none;" />
 <path d="  M 67,7  L 68,7  L 68,6  L 67,6  Z  " style="fill:rgb(166, 39, 0); fill-opacity:1.000; stroke:none;" />
 <path d="  M 77,8  L 76,8  L 76,9  L 77,9  Z  " style="fill:rgb(166, 39, 0); fill-opacity:1.000; stroke:none;" />
 <path d="  M 77,112  L 76,112  L 76,113  L 77,113  Z  " style="fill:rgb(166, 39, 0); fill-opacity:1.000; stroke:none;" />
 <path d="  M 79,112  L 80,112  L 80,111  L 79,111  Z  " style="fill:rgb(166, 39, 0); fill-opacity:1.000; stroke:none;" />
 <path d="  M 90,14  L 89,14  L 89,15  L 90,15  Z  " style="fill:rgb(166, 39, 0); fill-opacity:1.000; stroke:none;" />
 <path d="  M 89,106  L 89,107  L 90,107  L 90,106  Z  " style="fill:rgb(166, 39, 0); fill-opacity:1.000; stroke:none;" />
 <path d="  M 107,32  L 107,31  L 106,31  L 106,32  Z  " style="fill:rgb(166, 39, 0); fill-opacity:1.000; stroke:none;" />
 <path d="  M 107,89  L 106,89  L 106,90  L 107,90  Z  " style="fill:rgb(166, 39, 0); fill-opacity:1.000; stroke:none;" />
 <path d="  M 112,44  L 112,45  L 113,45  L 113,44  Z  " style="fill:rgb(166, 39, 0); fill-opacity:1.000; stroke:none;" />
 <path d="  M 113,77  L 113,76  L 112,76  L 112,77  Z  " style="fill:rgb(166, 39, 0); fill-opacity:1.000; stroke:none;" />
 <path d="  M 114,53  L 114,54  L 115,54  L 115,53  Z  " style="fill:rgb(166, 39, 0); fill-opacity:1.000; stroke:none;" />
 <path d="  M 115,68  L 115,67  L 114,67  L 114,68  Z  " style="fill:rgb(166, 39, 0); fill-opacity:1.000; stroke:none;" />
 <path d="  M 6,55  L 7,55  L 7,54  L 6,54  Z  " style="fill:rgb(169, 40, 0); fill-opacity:1.000; stroke:none;" />
 <path d="  M 6,66  L 6,67  L 7,67  L 7,66  Z  " style="fill:rgb(169, 40, 0); fill-opacity:1.000; stroke:none;" />
 <path d="  M 8,49  L 8,48  L 7,48  L 7,49  Z  " style="fill:rgb(169, 40, 0); fill-opacity:1.000; stroke:none;" />
 <path d="  M 8,72  L 7,72  L 7,73  L 8,73  Z  " style="fill:rgb(169, 40, 0); fill-opacity:1.000; stroke:none;" />
 <path d="  M 48,7  L 48,8  L 49,8  L 49,7  Z  " style="fill:rgb(169, 40, 0); fill-opacity:1.000; stroke:none;" />
 <path d="  M 49,114  L 49,113  L 48,113  L 48,114  Z  " style="fill:rgb(169, 40, 0); fill-opacity:1.000; stroke:none;" />
 <path d="  M 53,114  L 53,115  L 55,115  L 55,114  Z  " style="fill:rgb(169, 40, 0); fill-opacity:1.000; stroke:none;" />
 <path d="  M 55,6  L 54,6  L 54,7  L 55,7  Z  " style="fill:rgb(169, 40, 0); fill-opacity:1.000; stroke:none;" />
 <path d="  M 67,7  L 67,6  L 66,6  L 66,7  Z  " style="fill:rgb(169, 40, 0); fill-opacity:1.000; stroke:none;" />
 <path d="  M 68,114  L 66,114  L 66,115  L 68,115  Z  " style="fill:rgb(169, 40, 0); fill-opacity:1.000; stroke:none;" />
 <path d="  M 72,7  L 72,8  L 73,8  L 73,7  Z  " style="fill:rgb(169, 40, 0); fill-opacity:1.000; stroke:none;" />
 <path d="  M 73,114  L 73,113  L 72,113  L 72,114  Z  " style="fill:rgb(169, 40, 0); fill-opacity:1.000; stroke:none;" />
 <path d="  M 113,49  L 114,49  L 114,48  L 113,48  Z  " style="fill:rgb(169, 40, 0); fill-opacity:1.000; stroke:none;" />
 <path d="  M 114,72  L 113,72  L 113,73  L 114,73  Z  " style="fill:rgb(169, 40, 0); fill-opacity:1.000; stroke:none;" />
 <path d="  M 115,54  L 114,54  L 114,55  L 115,55  Z  " style="fill:rgb(169, 40, 0); fill-opacity:1.000; stroke:none;" />
 <path d="  M 114,66  L 114,67  L 115,67  L 115,66  Z  " style="fill:rgb(169, 40, 0); fill-opacity:1.000; stroke:none;" />
 <path d="  M 6,55  L 6,56  L 7,56  L 7,55  Z  " style="fill:rgb(178, 42, 0); fill-opacity:1.000; stroke:none;" />
 <path d="  M 6,65  L 6,66  L 7,66  L 7,65  Z  " style="fill:rgb(178, 42, 0); fill-opacity:1.000; stroke:none;" />
 <path d="  M 45,9  L 46,9  L 46,8  L 45,8  Z  " style="fill:rgb(178, 42, 0); fill-opacity:1.000; stroke:none;" />
 <path d="  M 56,114  L 55,114  L 55,115  L 56,115  Z  " style="fill:rgb(178, 42, 0); fill-opacity:1.000; stroke:none;" />
 <path d="  M 65,115  L 66,115  L 66,114  L 65,114  Z  " style="fill:rgb(178, 42, 0); fill-opacity:1.000; stroke:none;" />
 <path d="  M 76,8  L 75,8  L 75,9  L 76,9  Z  " style="fill:rgb(178, 42, 0); fill-opacity:1.000; stroke:none;" />
 <path d="  M 113,46  L 113,45  L 112,45  L 112,46  Z  " style="fill:rgb(178, 42, 0); fill-opacity:1.000; stroke:none;" />
 <path d="  M 7,56  L 6,56  L 6,60  L 7,60  Z  " style="fill:rgb(181, 43, 0); fill-opacity:1.000; stroke:none;" />
 <path d="  M 6,65  L 7,65  L 7,61  L 6,61  Z  " style="fill:rgb(181, 43, 0); fill-opacity:1.000; stroke:none;" />
 <path d="  M 8,50  L 8,49  L 7,49  L 7,50  Z  " style="fill:rgb(181, 43, 0); fill-opacity:1.000; stroke:none;" />
 <path d="  M 8,71  L 7,71  L 7,72  L 8,72  Z  " style="fill:rgb(181, 43, 0); fill-opacity:1.000; stroke:none;" />
 <path d="  M 9,45  L 8,45  L 8,46  L 9,46  Z  " style="fill:rgb(181, 43, 0); fill-opacity:1.000; stroke:none;" />
 <path d="  M 9,76  L 9,75  L 8,75  L 8,76  Z  " style="fill:rgb(181, 43, 0); fill-opacity:1.000; stroke:none;" />
 <path d="  M 11,37  L 11,38  L 12,38  L 12,37  Z  " style="fill:rgb(181, 43, 0); fill-opacity:1.000; stroke:none;" />
 <path d="  M 11,83  L 11,84  L 12,84  L 12,83  Z  " style="fill:rgb(181, 43, 0); fill-opacity:1.000; stroke:none;" />
 <path d="  M 12,36  L 13,36  L 13,35  L 12,35  Z  " style="fill:rgb(181, 43, 0); fill-opacity:1.000; stroke:none;" />
 <path d="  M 12,86  L 13,86  L 13,85  L 12,85  Z  " style="fill:rgb(181, 43, 0); fill-opacity:1.000; stroke:none;" />
 <path d="  M 16,31  L 16,30  L 15,30  L 15,31  Z  " style="fill:rgb(181, 43, 0); fill-opacity:1.000; stroke:none;" />
 <path d="  M 15,91  L 16,91  L 16,90  L 15,90  Z  " style="fill:rgb(181, 43, 0); fill-opacity:1.000; stroke:none;" />
 <path d="  M 31,15  L 30,15  L 30,16  L 31,16  Z  " style="fill:rgb(181, 43, 0); fill-opacity:1.000; stroke:none;" />
 <path d="  M 30,106  L 31,106  L 31,105  L 30,105  Z  " style="fill:rgb(181, 43, 0); fill-opacity:1.000; stroke:none;" />
 <path d="  M 36,12  L 35,12  L 35,13  L 36,13  Z  " style="fill:rgb(181, 43, 0); fill-opacity:1.000; stroke:none;" />
 <path d="  M 36,108  L 35,108  L 35,109  L 36,109  Z  " style="fill:rgb(181, 43, 0); fill-opacity:1.000; stroke:none;" />
 <path d="  M 38,12  L 38,11  L 37,11  L 37,12  Z  " style="fill:rgb(181, 43, 0); fill-opacity:1.000; stroke:none;" />
 <path d="  M 38,109  L 37,109  L 37,110  L 38,110  Z  " style="fill:rgb(181, 43, 0); fill-opacity:1.000; stroke:none;" />
 <path d="  M 45,112  L 45,113  L 46,113  L 46,112  Z  " style="fill:rgb(181, 43, 0); fill-opacity:1.000; stroke:none;" />
 <path d="  M 49,7  L 49,8  L 50,8  L 50,7  Z  " style="fill:rgb(181, 43, 0); fill-opacity:1.000; stroke:none;" />
 <path d="  M 49,113  L 49,114  L 50,114  L 50,113  Z  " style="fill:rgb(181, 43, 0); fill-opacity:1.000; stroke:none;" />
 <path d="  M 65,7  L 65,6  L 56,6  L 56,7  Z  " style="fill:rgb(181, 43, 0); fill-opacity:1.000; stroke:none;" />
 <path d="  M 59,115  L 59,114  L 56,114  L 56,115  Z  " style="fill:rgb(181, 43, 0); fill-opacity:1.000; stroke:none;" />
 <path d="  M 62,114  L 62,115  L 65,115  L 65,114  Z  " style="fill:rgb(181, 43, 0); fill-opacity:1.000; stroke:none;" />
 <path d="  M 71,8  L 72,8  L 72,7  L 71,7  Z  " style="fill:rgb(181, 43, 0); fill-opacity:1.000; stroke:none;" />
 <path d="  M 71,114  L 72,114  L 72,113  L 71,113  Z  " style="fill:rgb(181, 43, 0); fill-opacity:1.000; stroke:none;" />
 <path d="  M 75,113  L 76,113  L 76,112  L 75,112  Z  " style="fill:rgb(181, 43, 0); fill-opacity:1.000; stroke:none;" />
 <path d="  M 83,12  L 84,12  L 84,11  L 83,11  Z  " style="fill:rgb(181, 43, 0); fill-opacity:1.000; stroke:none;" />
 <path d="  M 84,109  L 83,109  L 83,110  L 84,110  Z  " style="fill:rgb(181, 43, 0); fill-opacity:1.000; stroke:none;" />
 <path d="  M 86,12  L 85,12  L 85,13  L 86,13  Z  " style="fill:rgb(181, 43, 0); fill-opacity:1.000; stroke:none;" />
 <path d="  M 85,109  L 86,109  L 86,108  L 85,108  Z  " style="fill:rgb(181, 43, 0); fill-opacity:1.000; stroke:none;" />
 <path d="  M 91,16  L 91,15  L 90,15  L 90,16  Z  " style="fill:rgb(181, 43, 0); fill-opacity:1.000; stroke:none;" />
 <path d="  M 90,106  L 91,106  L 91,105  L 90,105  Z  " style="fill:rgb(181, 43, 0); fill-opacity:1.000; stroke:none;" />
 <path d="  M 106,30  L 105,30  L 105,31  L 106,31  Z  " style="fill:rgb(181, 43, 0); fill-opacity:1.000; stroke:none;" />
 <path d="  M 105,90  L 105,91  L 106,91  L 106,90  Z  " style="fill:rgb(181, 43, 0); fill-opacity:1.000; stroke:none;" />
 <path d="  M 109,36  L 109,35  L 108,35  L 108,36  Z  " style="fill:rgb(181, 43, 0); fill-opacity:1.000; stroke:none;" />
 <path d="  M 108,86  L 109,86  L 109,85  L 108,85  Z  " style="fill:rgb(181, 43, 0); fill-opacity:1.000; stroke:none;" />
 <path d="  M 110,38  L 110,37  L 109,37  L 109,38  Z  " style="fill:rgb(181, 43, 0); fill-opacity:1.000; stroke:none;" />
 <path d="  M 109,83  L 109,84  L 110,84  L 110,83  Z  " style="fill:rgb(181, 43, 0); fill-opacity:1.000; stroke:none;" />
 <path d="  M 112,75  L 112,76  L 113,76  L 113,75  Z  " style="fill:rgb(181, 43, 0); fill-opacity:1.000; stroke:none;" />
 <path d="  M 114,49  L 113,49  L 113,50  L 114,50  Z  " style="fill:rgb(181, 43, 0); fill-opacity:1.000; stroke:none;" />
 <path d="  M 114,71  L 113,71  L 113,72  L 114,72  Z  " style="fill:rgb(181, 43, 0); fill-opacity:1.000; stroke:none;" />
 <path d="  M 114,65  L 115,65  L 115,56  L 114,56  Z  " style="fill:rgb(181, 43, 0); fill-opacity:1.000; stroke:none;" />
 <path d="  M 6,60  L 6,61  L 7,61  L 7,60  Z  " style="fill:rgb(187, 45, 0); fill-opacity:1.000; stroke:none;" />
 <path d="  M 7,50  L 7,51  L 8,51  L 8,50  Z  " style="fill:rgb(190, 45, 0); fill-opacity:1.000; stroke:none;" />
 <path d="  M 7,70  L 7,71  L 8,71  L 8,70  Z  " style="fill:rgb(190, 45, 0); fill-opacity:1.000; stroke:none;" />
 <path d="  M 11,40  L 10,40  L 10,41  L 11,41  Z  " style="fill:rgb(190, 45, 0); fill-opacity:1.000; stroke:none;" />
 <path d="  M 15,32  L 14,32  L 14,33  L 15,33  Z  " style="fill:rgb(190, 45, 0); fill-opacity:1.000; stroke:none;" />
 <path d="  M 15,88  L 14,88  L 14,89  L 15,89  Z  " style="fill:rgb(190, 45, 0); fill-opacity:1.000; stroke:none;" />
 <path d="  M 16,29  L 16,30  L 17,30  L 17,29  Z  " style="fill:rgb(190, 45, 0); fill-opacity:1.000; stroke:none;" />
 <path d="  M 17,92  L 17,91  L 16,91  L 16,92  Z  " style="fill:rgb(190, 45, 0); fill-opacity:1.000; stroke:none;" />
 <path d="  M 19,25  L 19,26  L 20,26  L 20,25  Z  " style="fill:rgb(190, 45, 0); fill-opacity:1.000; stroke:none;" />
 <path d="  M 20,95  L 19,95  L 19,96  L 20,96  Z  " style="fill:rgb(190, 45, 0); fill-opacity:1.000; stroke:none;" />
 <path d="  M 20,24  L 20,25  L 21,25  L 21,24  Z  " style="fill:rgb(190, 45, 0); fill-opacity:1.000; stroke:none;" />
 <path d="  M 21,97  L 21,96  L 20,96  L 20,97  Z  " style="fill:rgb(190, 45, 0); fill-opacity:1.000; stroke:none;" />
 <path d="  M 22,23  L 21,23  L 21,24  L 22,24  Z  " style="fill:rgb(190, 45, 0); fill-opacity:1.000; stroke:none;" />
 <path d="  M 24,21  L 23,21  L 23,22  L 24,22  Z  " style="fill:rgb(190, 45, 0); fill-opacity:1.000; stroke:none;" />
 <path d="  M 25,21  L 25,20  L 24,20  L 24,21  Z  " style="fill:rgb(190, 45, 0); fill-opacity:1.000; stroke:none;" />
 <path d="  M 24,101  L 25,101  L 25,100  L 24,100  Z  " style="fill:rgb(190, 45, 0); fill-opacity:1.000; stroke:none;" />
 <path d="  M 26,20  L 26,19  L 25,19  L 25,20  Z  " style="fill:rgb(190, 45, 0); fill-opacity:1.000; stroke:none;" />
 <path d="  M 25,101  L 25,102  L 26,102  L 26,101  Z  " style="fill:rgb(190, 45, 0); fill-opacity:1.000; stroke:none;" />
 <path d="  M 30,16  L 29,16  L 29,17  L 30,17  Z  " style="fill:rgb(190, 45, 0); fill-opacity:1.000; stroke:none;" />
 <path d="  M 29,105  L 30,105  L 30,104  L 29,104  Z  " style="fill:rgb(190, 45, 0); fill-opacity:1.000; stroke:none;" />
 <path d="  M 33,14  L 32,14  L 32,15  L 33,15  Z  " style="fill:rgb(190, 45, 0); fill-opacity:1.000; stroke:none;" />
 <path d="  M 33,106  L 32,106  L 32,107  L 33,107  Z  " style="fill:rgb(190, 45, 0); fill-opacity:1.000; stroke:none;" />
 <path d="  M 41,10  L 40,10  L 40,11  L 41,11  Z  " style="fill:rgb(190, 45, 0); fill-opacity:1.000; stroke:none;" />
 <path d="  M 51,8  L 51,7  L 50,7  L 50,8  Z  " style="fill:rgb(190, 45, 0); fill-opacity:1.000; stroke:none;" />
 <path d="  M 50,114  L 51,114  L 51,113  L 50,113  Z  " style="fill:rgb(190, 45, 0); fill-opacity:1.000; stroke:none;" />
 <path d="  M 60,115  L 60,114  L 59,114  L 59,115  Z  " style="fill:rgb(190, 45, 0); fill-opacity:1.000; stroke:none;" />
 <path d="  M 62,114  L 61,114  L 61,115  L 62,115  Z  " style="fill:rgb(190, 45, 0); fill-opacity:1.000; stroke:none;" />
 <path d="  M 71,8  L 71,7  L 70,7  L 70,8  Z  " style="fill:rgb(190, 45, 0); fill-opacity:1.000; stroke:none;" />
 <path d="  M 80,11  L 81,11  L 81,10  L 80,10  Z  " style="fill:rgb(190, 45, 0); fill-opacity:1.000; stroke:none;" />
 <path d="  M 88,14  L 88,15  L 89,15  L 89,14  Z  " style="fill:rgb(190, 45, 0); fill-opacity:1.000; stroke:none;" />
 <path d="  M 89,106  L 88,106  L 88,107  L 89,107  Z  " style="fill:rgb(190, 45, 0); fill-opacity:1.000; stroke:none;" />
 <path d="  M 91,16  L 91,17  L 92,17  L 92,16  Z  " style="fill:rgb(190, 45, 0); fill-opacity:1.000; stroke:none;" />
 <path d="  M 92,105  L 92,104  L 91,104  L 91,105  Z  " style="fill:rgb(190, 45, 0); fill-opacity:1.000; stroke:none;" />
 <path d="  M 95,19  L 95,20  L 96,20  L 96,19  Z  " style="fill:rgb(190, 45, 0); fill-opacity:1.000; stroke:none;" />
 <path d="  M 95,102  L 96,102  L 96,101  L 95,101  Z  " style="fill:rgb(190, 45, 0); fill-opacity:1.000; stroke:none;" />
 <path d="  M 96,21  L 97,21  L 97,20  L 96,20  Z  " style="fill:rgb(190, 45, 0); fill-opacity:1.000; stroke:none;" />
 <path d="  M 97,100  L 96,100  L 96,101  L 97,101  Z  " style="fill:rgb(190, 45, 0); fill-opacity:1.000; stroke:none;" />
 <path d="  M 97,21  L 97,22  L 98,22  L 98,21  Z  " style="fill:rgb(190, 45, 0); fill-opacity:1.000; stroke:none;" />
 <path d="  M 100,23  L 99,23  L 99,24  L 100,24  Z  " style="fill:rgb(190, 45, 0); fill-opacity:1.000; stroke:none;" />
 <path d="  M 100,24  L 100,25  L 101,25  L 101,24  Z  " style="fill:rgb(190, 45, 0); fill-opacity:1.000; stroke:none;" />
 <path d="  M 101,97  L 101,96  L 100,96  L 100,97  Z  " style="fill:rgb(190, 45, 0); fill-opacity:1.000; stroke:none;" />
 <path d="  M 101,26  L 102,26  L 102,25  L 101,25  Z  " style="fill:rgb(190, 45, 0); fill-opacity:1.000; stroke:none;" />
 <path d="  M 102,96  L 102,95  L 101,95  L 101,96  Z  " style="fill:rgb(190, 45, 0); fill-opacity:1.000; stroke:none;" />
 <path d="  M 104,30  L 105,30  L 105,29  L 104,29  Z  " style="fill:rgb(190, 45, 0); fill-opacity:1.000; stroke:none;" />
 <path d="  M 104,92  L 105,92  L 105,91  L 104,91  Z  " style="fill:rgb(190, 45, 0); fill-opacity:1.000; stroke:none;" />
 <path d="  M 106,32  L 106,33  L 107,33  L 107,32  Z  " style="fill:rgb(190, 45, 0); fill-opacity:1.000; stroke:none;" />
 <path d="  M 107,89  L 107,88  L 106,88  L 106,89  Z  " style="fill:rgb(190, 45, 0); fill-opacity:1.000; stroke:none;" />
 <path d="  M 110,40  L 110,41  L 111,41  L 111,40  Z  " style="fill:rgb(190, 45, 0); fill-opacity:1.000; stroke:none;" />
 <path d="  M 113,50  L 113,51  L 114,51  L 114,50  Z  " style="fill:rgb(190, 45, 0); fill-opacity:1.000; stroke:none;" />
 <path d="  M 113,71  L 114,71  L 114,70  L 113,70  Z  " style="fill:rgb(190, 45, 0); fill-opacity:1.000; stroke:none;" />
 <path d="  M 85,13  L 85,12  L 83,12  L 83,11  L 80,11  L 80,10  L 78,10  L 78,9  L 75,9  L 75,8  L 70,8  L 70,7  L 51,7  L 51,8  L 46,8  L 46,9  L 43,9  L 43,10  L 41,10  L 41,11  L 38,11  L 38,12  L 36,12  L 36,13  L 34,13  L 34,14  L 33,14  L 33,15  L 31,15  L 31,16  L 30,16  L 30,17  L 28,17  L 28,18  L 27,18  L 27,19  L 26,19  L 26,20  L 25,20  L 25,21  L 24,21  L 24,22  L 22,22  L 22,24  L 21,24  L 21,25  L 20,25  L 20,26  L 19,26  L 19,27  L 18,27  L 18,28  L 17,28  L 17,30  L 16,30  L 16,31  L 15,31  L 15,33  L 14,33  L 14,34  L 13,34  L 13,36  L 12,36  L 12,38  L 11,38  L 11,41  L 10,41  L 10,43  L 9,43  L 9,46  L 8,46  L 8,51  L 7,51  L 7,70  L 8,70  L 8,75  L 9,75  L 9,78  L 10,78  L 10,81  L 11,81  L 11,83  L 12,83  L 12,85  L 13,85  L 13,87  L 14,87  L 14,88  L 15,88  L 15,90  L 16,90  L 16,91  L 17,91  L 17,93  L 18,93  L 18,94  L 19,94  L 19,95  L 20,95  L 20,96  L 21,96  L 21,98  L 22,98  L 22,99  L 23,99  L 23,100  L 25,100  L 25,101  L 26,101  L 26,102  L 27,102  L 27,103  L 28,103  L 28,104  L 30,104  L 30,105  L 31,105  L 31,106  L 33,106  L 33,107  L 34,107  L 34,108  L 36,108  L 36,109  L 38,109  L 38,110  L 40,110  L 40,111  L 43,111  L 43,112  L 46,112  L 46,113  L 51,113  L 51,114  L 60,114  L 60,115  L 61,115  L 61,114  L 71,114  L 71,113  L 75,113  L 75,112  L 78,112  L 78,111  L 81,111  L 81,110  L 83,110  L 83,109  L 85,109  L 85,108  L 87,108  L 87,107  L 88,107  L 88,106  L 90,106  L 90,105  L 91,105  L 91,104  L 93,104  L 93,103  L 94,103  L 94,102  L 95,102  L 95,101  L 96,101  L 96,100  L 98,100  L 98,99  L 99,99  L 99,98  L 100,98  L 100,96  L 101,96  L 101,95  L 102,95  L 102,94  L 103,94  L 103,93  L 104,93  L 104,91  L 105,91  L 105,90  L 106,90  L 106,88  L 107,88  L 107,87  L 108,87  L 108,85  L 109,85  L 109,83  L 110,83  L 110,81  L 111,81  L 111,78  L 112,78  L 112,75  L 113,75  L 113,70  L 114,70  L 114,51  L 113,51  L 113,46  L 112,46  L 112,43  L 111,43  L 111,41  L 110,41  L 110,38  L 109,38  L 109,36  L 108,36  L 108,34  L 107,34  L 107,33  L 106,33  L 106,31  L 105,31  L 105,30  L 104,30  L 104,28  L 103,28  L 103,27  L 102,27  L 102,26  L 101,26  L 101,25  L 100,25  L 100,24  L 99,24  L 99,22  L 97,22  L 97,21  L 96,21  L 96,20  L 95,20  L 95,19  L 94,19  L 94,18  L 93,18  L 93,17  L 91,17  L 91,16  L 90,16  L 90,15  L 88,15  L 88,14  L 87,14  L 87,13  Z  M 82,71  L 82,72  L 80,72  L 80,73  L 78,73  L 78,74  L 77,74  L 77,93  L 87,93  L 87,102  L 35,102  L 35,93  L 44,93  L 44,74  L 42,74  L 42,73  L 40,73  L 40,72  L 38,72  L 38,71  L 37,71  L 37,70  L 35,70  L 35,56  L 36,56  L 36,55  L 38,55  L 38,54  L 40,54  L 40,53  L 42,53  L 42,52  L 44,52  L 44,47  L 35,47  L 35,37  L 44,37  L 44,36  L 45,36  L 45,32  L 46,32  L 46,30  L 47,30  L 47,28  L 48,28  L 48,27  L 49,27  L 49,26  L 51,26  L 51,25  L 53,25  L 53,24  L 58,24  L 58,19  L 63,19  L 63,24  L 67,24  L 67,25  L 69,25  L 69,26  L 71,26  L 71,27  L 72,27  L 72,28  L 73,28  L 73,29  L 74,29  L 74,31  L 75,31  L 75,33  L 76,33  L 76,37  L 86,37  L 86,47  L 77,47  L 77,52  L 79,52  L 79,53  L 81,53  L 81,54  L 83,54  L 83,55  L 85,55  L 85,56  L 86,56  L 86,70  L 84,70  L 84,71  Z  " style="fill:rgb(193, 46, 0); fill-opacity:1.000; stroke:none;" />
 <path d="  M 9,41  L 10,41  L 10,40  L 9,40  Z  " style="fill:rgb(148, 35, 0); fill-opacity:1.000; stroke:none;" />
 <path d="  M 10,81  L 10,80  L 9,80  L 9,81  Z  " style="fill:rgb(148, 35, 0); fill-opacity:1.000; stroke:none;" />
 <path d="  M 13,32  L 13,33  L 14,33  L 14,32  Z  " style="fill:rgb(148, 35, 0); fill-opacity:1.000; stroke:none;" />
 <path d="  M 18,27  L 18,26  L 17,26  L 17,27  Z  " style="fill:rgb(148, 35, 0); fill-opacity:1.000; stroke:none;" />
 <path d="  M 17,94  L 17,95  L 18,95  L 18,94  Z  " style="fill:rgb(148, 35, 0); fill-opacity:1.000; stroke:none;" />
 <path d="  M 19,25  L 18,25  L 18,26  L 19,26  Z  " style="fill:rgb(148, 35, 0); fill-opacity:1.000; stroke:none;" />
 <path d="  M 25,18  L 25,19  L 26,19  L 26,18  Z  " style="fill:rgb(148, 35, 0); fill-opacity:1.000; stroke:none;" />
 <path d="  M 27,103  L 26,103  L 26,104  L 27,104  Z  " style="fill:rgb(148, 35, 0); fill-opacity:1.000; stroke:none;" />
 <path d="  M 33,14  L 33,13  L 32,13  L 32,14  Z  " style="fill:rgb(148, 35, 0); fill-opacity:1.000; stroke:none;" />
 <path d="  M 40,9  L 40,10  L 41,10  L 41,9  Z  " style="fill:rgb(148, 35, 0); fill-opacity:1.000; stroke:none;" />
 <path d="  M 41,112  L 41,111  L 40,111  L 40,112  Z  " style="fill:rgb(148, 35, 0); fill-opacity:1.000; stroke:none;" />
 <path d="  M 46,113  L 46,114  L 47,114  L 47,113  Z  " style="fill:rgb(148, 35, 0); fill-opacity:1.000; stroke:none;" />
 <path d="  M 52,7  L 52,6  L 51,6  L 51,7  Z  " style="fill:rgb(148, 35, 0); fill-opacity:1.000; stroke:none;" />
 <path d="  M 70,7  L 70,6  L 69,6  L 69,7  Z  " style="fill:rgb(148, 35, 0); fill-opacity:1.000; stroke:none;" />
 <path d="  M 74,114  L 75,114  L 75,113  L 74,113  Z  " style="fill:rgb(148, 35, 0); fill-opacity:1.000; stroke:none;" />
 <path d="  M 81,9  L 80,9  L 80,10  L 81,10  Z  " style="fill:rgb(148, 35, 0); fill-opacity:1.000; stroke:none;" />
 <path d="  M 80,112  L 81,112  L 81,111  L 80,111  Z  " style="fill:rgb(148, 35, 0); fill-opacity:1.000; stroke:none;" />
 <path d="  M 89,14  L 89,13  L 88,13  L 88,14  Z  " style="fill:rgb(148, 35, 0); fill-opacity:1.000; stroke:none;" />
 <path d="  M 94,103  L 94,104  L 95,104  L 95,103  Z  " style="fill:rgb(148, 35, 0); fill-opacity:1.000; stroke:none;" />
 <path d="  M 96,18  L 95,18  L 95,19  L 96,19  Z  " style="fill:rgb(148, 35, 0); fill-opacity:1.000; stroke:none;" />
 <path d="  M 103,26  L 103,25  L 102,25  L 102,26  Z  " style="fill:rgb(148, 35, 0); fill-opacity:1.000; stroke:none;" />
 <path d="  M 104,26  L 103,26  L 103,27  L 104,27  Z  " style="fill:rgb(148, 35, 0); fill-opacity:1.000; stroke:none;" />
 <path d="  M 103,94  L 103,95  L 104,95  L 104,94  Z  " style="fill:rgb(148, 35, 0); fill-opacity:1.000; stroke:none;" />
 <path d="  M 108,32  L 107,32  L 107,33  L 108,33  Z  " style="fill:rgb(148, 35, 0); fill-opacity:1.000; stroke:none;" />
 <path d="  M 111,40  L 111,41  L 112,41  L 112,40  Z  " style="fill:rgb(148, 35, 0); fill-opacity:1.000; stroke:none;" />
 <path d="  M 112,80  L 111,80  L 111,81  L 112,81  Z  " style="fill:rgb(148, 35, 0); fill-opacity:1.000; stroke:none;" />
 <path d="  M 9,42  L 10,42  L 10,41  L 9,41  Z  " style="fill:rgb(163, 39, 0); fill-opacity:1.000; stroke:none;" />
 <path d="  M 10,79  L 9,79  L 9,80  L 10,80  Z  " style="fill:rgb(163, 39, 0); fill-opacity:1.000; stroke:none;" />
 <path d="  M 17,29  L 17,28  L 16,28  L 16,29  Z  " style="fill:rgb(163, 39, 0); fill-opacity:1.000; stroke:none;" />
 <path d="  M 17,93  L 17,92  L 16,92  L 16,93  Z  " style="fill:rgb(163, 39, 0); fill-opacity:1.000; stroke:none;" />
 <path d="  M 22,22  L 21,22  L 21,23  L 22,23  Z  " style="fill:rgb(163, 39, 0); fill-opacity:1.000; stroke:none;" />
 <path d="  M 22,98  L 21,98  L 21,99  L 22,99  Z  " style="fill:rgb(163, 39, 0); fill-opacity:1.000; stroke:none;" />
 <path d="  M 23,22  L 23,21  L 22,21  L 22,22  Z  " style="fill:rgb(163, 39, 0); fill-opacity:1.000; stroke:none;" />
 <path d="  M 23,100  L 23,99  L 22,99  L 22,100  Z  " style="fill:rgb(163, 39, 0); fill-opacity:1.000; stroke:none;" />
 <path d="  M 28,17  L 29,17  L 29,16  L 28,16  Z  " style="fill:rgb(163, 39, 0); fill-opacity:1.000; stroke:none;" />
 <path d="  M 29,105  L 29,104  L 28,104  L 28,105  Z  " style="fill:rgb(163, 39, 0); fill-opacity:1.000; stroke:none;" />
 <path d="  M 41,10  L 42,10  L 42,9  L 41,9  Z  " style="fill:rgb(163, 39, 0); fill-opacity:1.000; stroke:none;" />
 <path d="  M 80,10  L 80,9  L 79,9  L 79,10  Z  " style="fill:rgb(163, 39, 0); fill-opacity:1.000; stroke:none;" />
 <path d="  M 92,17  L 93,17  L 93,16  L 92,16  Z  " style="fill:rgb(163, 39, 0); fill-opacity:1.000; stroke:none;" />
 <path d="  M 93,104  L 92,104  L 92,105  L 93,105  Z  " style="fill:rgb(163, 39, 0); fill-opacity:1.000; stroke:none;" />
 <path d="  M 98,22  L 99,22  L 99,21  L 98,21  Z  " style="fill:rgb(163, 39, 0); fill-opacity:1.000; stroke:none;" />
 <path d="  M 99,100  L 99,99  L 98,99  L 98,100  Z  " style="fill:rgb(163, 39, 0); fill-opacity:1.000; stroke:none;" />
 <path d="  M 99,22  L 99,23  L 100,23  L 100,22  Z  " style="fill:rgb(163, 39, 0); fill-opacity:1.000; stroke:none;" />
 <path d="  M 99,99  L 100,99  L 100,98  L 99,98  Z  " style="fill:rgb(163, 39, 0); fill-opacity:1.000; stroke:none;" />
 <path d="  M 105,28  L 104,28  L 104,29  L 105,29  Z  " style="fill:rgb(163, 39, 0); fill-opacity:1.000; stroke:none;" />
 <path d="  M 104,92  L 104,93  L 105,93  L 105,92  Z  " style="fill:rgb(163, 39, 0); fill-opacity:1.000; stroke:none;" />
 <path d="  M 112,42  L 112,41  L 111,41  L 111,42  Z  " style="fill:rgb(163, 39, 0); fill-opacity:1.000; stroke:none;" />
 <path d="  M 111,80  L 112,80  L 112,79  L 111,79  Z  " style="fill:rgb(163, 39, 0); fill-opacity:1.000; stroke:none;" />
 <path d="  M 10,43  L 10,42  L 9,42  L 9,43  Z  " style="fill:rgb(184, 44, 0); fill-opacity:1.000; stroke:none;" />
 <path d="  M 9,78  L 9,79  L 10,79  L 10,78  Z  " style="fill:rgb(184, 44, 0); fill-opacity:1.000; stroke:none;" />
 <path d="  M 18,26  L 18,27  L 19,27  L 19,26  Z  " style="fill:rgb(184, 44, 0); fill-opacity:1.000; stroke:none;" />
 <path d="  M 19,94  L 18,94  L 18,95  L 19,95  Z  " style="fill:rgb(184, 44, 0); fill-opacity:1.000; stroke:none;" />
 <path d="  M 26,19  L 27,19  L 27,18  L 26,18  Z  " style="fill:rgb(184, 44, 0); fill-opacity:1.000; stroke:none;" />
 <path d="  M 27,102  L 26,102  L 26,103  L 27,103  Z  " style="fill:rgb(184, 44, 0); fill-opacity:1.000; stroke:none;" />
 <path d="  M 43,10  L 43,9  L 42,9  L 42,10  Z  " style="fill:rgb(184, 44, 0); fill-opacity:1.000; stroke:none;" />
 <path d="  M 43,111  L 42,111  L 42,112  L 43,112  Z  " style="fill:rgb(184, 44, 0); fill-opacity:1.000; stroke:none;" />
 <path d="  M 79,10  L 79,9  L 78,9  L 78,10  Z  " style="fill:rgb(184, 44, 0); fill-opacity:1.000; stroke:none;" />
 <path d="  M 79,111  L 78,111  L 78,112  L 79,112  Z  " style="fill:rgb(184, 44, 0); fill-opacity:1.000; stroke:none;" />
 <path d="  M 95,18  L 94,18  L 94,19  L 95,19  Z  " style="fill:rgb(184, 44, 0); fill-opacity:1.000; stroke:none;" />
 <path d="  M 95,103  L 95,102  L 94,102  L 94,103  Z  " style="fill:rgb(184, 44, 0); fill-opacity:1.000; stroke:none;" />
 <path d="  M 102,27  L 103,27  L 103,26  L 102,26  Z  " style="fill:rgb(184, 44, 0); fill-opacity:1.000; stroke:none;" />
 <path d="  M 103,95  L 103,94  L 102,94  L 102,95  Z  " style="fill:rgb(184, 44, 0); fill-opacity:1.000; stroke:none;" />
 <path d="  M 111,42  L 111,43  L 112,43  L 112,42  Z  " style="fill:rgb(184, 44, 0); fill-opacity:1.000; stroke:none;" />
 <path d="  M 111,79  L 112,79  L 112,78  L 111,78  Z  " style="fill:rgb(184, 44, 0); fill-opacity:1.000; stroke:none;" />
 <path d="  M 11,29  L 11,28  L 10,28  L 10,29  Z  " style="fill:rgb(145, 34, 0); fill-opacity:0.812; stroke:none;" />
 <path d="  M 13,25  L 12,25  L 12,26  L 13,26  Z  " style="fill:rgb(145, 34, 0); fill-opacity:0.812; stroke:none;" />
 <path d="  M 13,95  L 12,95  L 12,96  L 13,96  Z  " style="fill:rgb(145, 34, 0); fill-opacity:0.812; stroke:none;" />
 <path d="  M 16,101  L 17,101  L 17,100  L 16,100  Z  " style="fill:rgb(145, 34, 0); fill-opacity:0.812; stroke:none;" />
 <path d="  M 18,20  L 18,19  L 17,19  L 17,20  Z  " style="fill:rgb(145, 34, 0); fill-opacity:0.812; stroke:none;" />
 <path d="  M 17,101  L 17,102  L 18,102  L 18,101  Z  " style="fill:rgb(145, 34, 0); fill-opacity:0.812; stroke:none;" />
 <path d="  M 19,19  L 19,18  L 18,18  L 18,19  Z  " style="fill:rgb(145, 34, 0); fill-opacity:0.812; stroke:none;" />
 <path d="  M 19,102  L 18,102  L 18,103  L 19,103  Z  " style="fill:rgb(145, 34, 0); fill-opacity:0.812; stroke:none;" />
 <path d="  M 20,17  L 19,17  L 19,18  L 20,18  Z  " style="fill:rgb(145, 34, 0); fill-opacity:0.812; stroke:none;" />
 <path d="  M 20,103  L 19,103  L 19,104  L 20,104  Z  " style="fill:rgb(145, 34, 0); fill-opacity:0.812; stroke:none;" />
 <path d="  M 20,105  L 21,105  L 21,104  L 20,104  Z  " style="fill:rgb(145, 34, 0); fill-opacity:0.812; stroke:none;" />
 <path d="  M 25,12  L 25,13  L 26,13  L 26,12  Z  " style="fill:rgb(145, 34, 0); fill-opacity:0.812; stroke:none;" />
 <path d="  M 25,108  L 25,109  L 26,109  L 26,108  Z  " style="fill:rgb(145, 34, 0); fill-opacity:0.812; stroke:none;" />
 <path d="  M 29,11  L 29,10  L 28,10  L 28,11  Z  " style="fill:rgb(145, 34, 0); fill-opacity:0.812; stroke:none;" />
 <path d="  M 55,119  L 54,119  L 54,120  L 55,120  Z  " style="fill:rgb(145, 34, 0); fill-opacity:0.812; stroke:none;" />
 <path d="  M 67,119  L 66,119  L 66,120  L 67,120  Z  " style="fill:rgb(145, 34, 0); fill-opacity:0.812; stroke:none;" />
 <path d="  M 92,10  L 92,11  L 93,11  L 93,10  Z  " style="fill:rgb(145, 34, 0); fill-opacity:0.812; stroke:none;" />
 <path d="  M 95,12  L 95,13  L 96,13  L 96,12  Z  " style="fill:rgb(145, 34, 0); fill-opacity:0.812; stroke:none;" />
 <path d="  M 95,108  L 95,109  L 96,109  L 96,108  Z  " style="fill:rgb(145, 34, 0); fill-opacity:0.812; stroke:none;" />
 <path d="  M 100,105  L 101,105  L 101,104  L 100,104  Z  " style="fill:rgb(145, 34, 0); fill-opacity:0.812; stroke:none;" />
 <path d="  M 101,18  L 102,18  L 102,17  L 101,17  Z  " style="fill:rgb(145, 34, 0); fill-opacity:0.812; stroke:none;" />
 <path d="  M 102,104  L 102,103  L 101,103  L 101,104  Z  " style="fill:rgb(145, 34, 0); fill-opacity:0.812; stroke:none;" />
 <path d="  M 103,18  L 102,18  L 102,19  L 103,19  Z  " style="fill:rgb(145, 34, 0); fill-opacity:0.812; stroke:none;" />
 <path d="  M 102,102  L 102,103  L 103,103  L 103,102  Z  " style="fill:rgb(145, 34, 0); fill-opacity:0.812; stroke:none;" />
 <path d="  M 103,20  L 104,20  L 104,19  L 103,19  Z  " style="fill:rgb(145, 34, 0); fill-opacity:0.812; stroke:none;" />
 <path d="  M 103,102  L 104,102  L 104,101  L 103,101  Z  " style="fill:rgb(145, 34, 0); fill-opacity:0.812; stroke:none;" />
 <path d="  M 105,100  L 104,100  L 104,101  L 105,101  Z  " style="fill:rgb(145, 34, 0); fill-opacity:0.812; stroke:none;" />
 <path d="  M 109,25  L 108,25  L 108,26  L 109,26  Z  " style="fill:rgb(145, 34, 0); fill-opacity:0.812; stroke:none;" />
 <path d="  M 109,96  L 109,95  L 108,95  L 108,96  Z  " style="fill:rgb(145, 34, 0); fill-opacity:0.812; stroke:none;" />
 <path d="  M 111,28  L 110,28  L 110,29  L 111,29  Z  " style="fill:rgb(145, 34, 0); fill-opacity:0.812; stroke:none;" />
 <path d="  M 11,40  L 11,39  L 10,39  L 10,40  Z  " style="fill:rgb(175, 42, 0); fill-opacity:1.000; stroke:none;" />
 <path d="  M 11,81  L 10,81  L 10,82  L 11,82  Z  " style="fill:rgb(175, 42, 0); fill-opacity:1.000; stroke:none;" />
 <path d="  M 13,34  L 14,34  L 14,33  L 13,33  Z  " style="fill:rgb(175, 42, 0); fill-opacity:1.000; stroke:none;" />
 <path d="  M 13,87  L 13,88  L 14,88  L 14,87  Z  " style="fill:rgb(175, 42, 0); fill-opacity:1.000; stroke:none;" />
 <path d="  M 17,28  L 18,28  L 18,27  L 17,27  Z  " style="fill:rgb(175, 42, 0); fill-opacity:1.000; stroke:none;" />
 <path d="  M 18,93  L 17,93  L 17,94  L 18,94  Z  " style="fill:rgb(175, 42, 0); fill-opacity:1.000; stroke:none;" />
 <path d="  M 28,17  L 27,17  L 27,18  L 28,18  Z  " style="fill:rgb(175, 42, 0); fill-opacity:1.000; stroke:none;" />
 <path d="  M 27,103  L 27,104  L 28,104  L 28,103  Z  " style="fill:rgb(175, 42, 0); fill-opacity:1.000; stroke:none;" />
 <path d="  M 33,14  L 34,14  L 34,13  L 33,13  Z  " style="fill:rgb(175, 42, 0); fill-opacity:1.000; stroke:none;" />
 <path d="  M 33,108  L 34,108  L 34,107  L 33,107  Z  " style="fill:rgb(175, 42, 0); fill-opacity:1.000; stroke:none;" />
 <path d="  M 40,10  L 39,10  L 39,11  L 40,11  Z  " style="fill:rgb(175, 42, 0); fill-opacity:1.000; stroke:none;" />
 <path d="  M 40,110  L 39,110  L 39,111  L 40,111  Z  " style="fill:rgb(175, 42, 0); fill-opacity:1.000; stroke:none;" />
 <path d="  M 55,6  L 55,7  L 56,7  L 56,6  Z  " style="fill:rgb(175, 42, 0); fill-opacity:1.000; stroke:none;" />
 <path d="  M 66,7  L 66,6  L 65,6  L 65,7  Z  " style="fill:rgb(175, 42, 0); fill-opacity:1.000; stroke:none;" />
 <path d="  M 82,10  L 81,10  L 81,11  L 82,11  Z  " style="fill:rgb(175, 42, 0); fill-opacity:1.000; stroke:none;" />
 <path d="  M 82,110  L 81,110  L 81,111  L 82,111  Z  " style="fill:rgb(175, 42, 0); fill-opacity:1.000; stroke:none;" />
 <path d="  M 87,14  L 88,14  L 88,13  L 87,13  Z  " style="fill:rgb(175, 42, 0); fill-opacity:1.000; stroke:none;" />
 <path d="  M 87,107  L 87,108  L 88,108  L 88,107  Z  " style="fill:rgb(175, 42, 0); fill-opacity:1.000; stroke:none;" />
 <path d="  M 94,18  L 94,17  L 93,17  L 93,18  Z  " style="fill:rgb(175, 42, 0); fill-opacity:1.000; stroke:none;" />
 <path d="  M 93,104  L 94,104  L 94,103  L 93,103  Z  " style="fill:rgb(175, 42, 0); fill-opacity:1.000; stroke:none;" />
 <path d="  M 104,27  L 103,27  L 103,28  L 104,28  Z  " style="fill:rgb(175, 42, 0); fill-opacity:1.000; stroke:none;" />
 <path d="  M 103,94  L 104,94  L 104,93  L 103,93  Z  " style="fill:rgb(175, 42, 0); fill-opacity:1.000; stroke:none;" />
 <path d="  M 107,34  L 108,34  L 108,33  L 107,33  Z  " style="fill:rgb(175, 42, 0); fill-opacity:1.000; stroke:none;" />
 <path d="  M 108,87  L 107,87  L 107,88  L 108,88  Z  " style="fill:rgb(175, 42, 0); fill-opacity:1.000; stroke:none;" />
 <path d="  M 110,40  L 111,40  L 111,39  L 110,39  Z  " style="fill:rgb(175, 42, 0); fill-opacity:1.000; stroke:none;" />
 <path d="  M 111,82  L 111,81  L 110,81  L 110,82  Z  " style="fill:rgb(175, 42, 0); fill-opacity:1.000; stroke:none;" />
 <path d="  M 115,56  L 115,55  L 114,55  L 114,56  Z  " style="fill:rgb(175, 42, 0); fill-opacity:1.000; stroke:none;" />
 <path d="  M 115,66  L 115,65  L 114,65  L 114,66  Z  " style="fill:rgb(175, 42, 0); fill-opacity:1.000; stroke:none;" />
 <path d="  M 11,82  L 10,82  L 10,83  L 11,83  Z  " style="fill:rgb(154, 36, 0); fill-opacity:1.000; stroke:none;" />
 <path d="  M 13,34  L 12,34  L 12,35  L 13,35  Z  " style="fill:rgb(154, 36, 0); fill-opacity:1.000; stroke:none;" />
 <path d="  M 20,25  L 20,24  L 19,24  L 19,25  Z  " style="fill:rgb(154, 36, 0); fill-opacity:1.000; stroke:none;" />
 <path d="  M 19,97  L 20,97  L 20,96  L 19,96  Z  " style="fill:rgb(154, 36, 0); fill-opacity:1.000; stroke:none;" />
 <path d="  M 21,24  L 21,23  L 20,23  L 20,24  Z  " style="fill:rgb(154, 36, 0); fill-opacity:1.000; stroke:none;" />
 <path d="  M 24,20  L 23,20  L 23,21  L 24,21  Z  " style="fill:rgb(154, 36, 0); fill-opacity:1.000; stroke:none;" />
 <path d="  M 25,20  L 25,19  L 24,19  L 24,20  Z  " style="fill:rgb(154, 36, 0); fill-opacity:1.000; stroke:none;" />
 <path d="  M 24,101  L 24,102  L 25,102  L 25,101  Z  " style="fill:rgb(154, 36, 0); fill-opacity:1.000; stroke:none;" />
 <path d="  M 34,13  L 35,13  L 35,12  L 34,12  Z  " style="fill:rgb(154, 36, 0); fill-opacity:1.000; stroke:none;" />
 <path d="  M 38,111  L 39,111  L 39,110  L 38,110  Z  " style="fill:rgb(154, 36, 0); fill-opacity:1.000; stroke:none;" />
 <path d="  M 83,110  L 82,110  L 82,111  L 83,111  Z  " style="fill:rgb(154, 36, 0); fill-opacity:1.000; stroke:none;" />
 <path d="  M 87,12  L 86,12  L 86,13  L 87,13  Z  " style="fill:rgb(154, 36, 0); fill-opacity:1.000; stroke:none;" />
 <path d="  M 96,20  L 97,20  L 97,19  L 96,19  Z  " style="fill:rgb(154, 36, 0); fill-opacity:1.000; stroke:none;" />
 <path d="  M 97,101  L 96,101  L 96,102  L 97,102  Z  " style="fill:rgb(154, 36, 0); fill-opacity:1.000; stroke:none;" />
 <path d="  M 98,21  L 98,20  L 97,20  L 97,21  Z  " style="fill:rgb(154, 36, 0); fill-opacity:1.000; stroke:none;" />
 <path d="  M 100,24  L 101,24  L 101,23  L 100,23  Z  " style="fill:rgb(154, 36, 0); fill-opacity:1.000; stroke:none;" />
 <path d="  M 102,24  L 101,24  L 101,25  L 102,25  Z  " style="fill:rgb(154, 36, 0); fill-opacity:1.000; stroke:none;" />
 <path d="  M 101,96  L 101,97  L 102,97  L 102,96  Z  " style="fill:rgb(154, 36, 0); fill-opacity:1.000; stroke:none;" />
 <path d="  M 109,35  L 109,34  L 108,34  L 108,35  Z  " style="fill:rgb(154, 36, 0); fill-opacity:1.000; stroke:none;" />
 <path d="  M 111,82  L 110,82  L 110,83  L 111,83  Z  " style="fill:rgb(154, 36, 0); fill-opacity:1.000; stroke:none;" />
 <path d="  M 10,93  L 11,93  L 11,92  L 10,92  Z  " style="fill:rgb(142, 33, 0); fill-opacity:0.827; stroke:none;" />
 <path d="  M 28,110  L 28,111  L 29,111  L 29,110  Z  " style="fill:rgb(142, 33, 0); fill-opacity:0.827; stroke:none;" />
 <path d="  M 93,110  L 92,110  L 92,111  L 93,111  Z  " style="fill:rgb(142, 33, 0); fill-opacity:0.827; stroke:none;" />
 <path d="  M 111,92  L 110,92  L 110,93  L 111,93  Z  " style="fill:rgb(142, 33, 0); fill-opacity:0.827; stroke:none;" />
 <path d="  M 12,26  L 11,26  L 11,27  L 12,27  Z  " style="fill:rgb(141, 33, 0); fill-opacity:0.518; stroke:none;" />
 <path d="  M 12,95  L 12,94  L 11,94  L 11,95  Z  " style="fill:rgb(141, 33, 0); fill-opacity:0.518; stroke:none;" />
 <path d="  M 15,98  L 14,98  L 14,99  L 15,99  Z  " style="fill:rgb(141, 33, 0); fill-opacity:0.518; stroke:none;" />
 <path d="  M 23,106  L 22,106  L 22,107  L 23,107  Z  " style="fill:rgb(141, 33, 0); fill-opacity:0.518; stroke:none;" />
 <path d="  M 26,109  L 26,110  L 27,110  L 27,109  Z  " style="fill:rgb(141, 33, 0); fill-opacity:0.518; stroke:none;" />
 <path d="  M 94,110  L 95,110  L 95,109  L 94,109  Z  " style="fill:rgb(141, 33, 0); fill-opacity:0.518; stroke:none;" />
 <path d="  M 99,107  L 99,106  L 98,106  L 98,107  Z  " style="fill:rgb(141, 33, 0); fill-opacity:0.518; stroke:none;" />
 <path d="  M 106,99  L 107,99  L 107,98  L 106,98  Z  " style="fill:rgb(141, 33, 0); fill-opacity:0.518; stroke:none;" />
 <path d="  M 109,95  L 110,95  L 110,94  L 109,94  Z  " style="fill:rgb(141, 33, 0); fill-opacity:0.518; stroke:none;" />
 <path d="  M 13,96  L 12,96  L 12,97  L 13,97  Z  " style="fill:rgb(129, 30, 0); fill-opacity:0.141; stroke:none;" />
 <path d="  M 25,109  L 25,108  L 24,108  L 24,109  Z  " style="fill:rgb(129, 30, 0); fill-opacity:0.141; stroke:none;" />
 <path d="  M 50,120  L 50,119  L 49,119  L 49,120  Z  " style="fill:rgb(129, 30, 0); fill-opacity:0.141; stroke:none;" />
 <path d="  M 72,119  L 71,119  L 71,120  L 72,120  Z  " style="fill:rgb(129, 30, 0); fill-opacity:0.141; stroke:none;" />
 <path d="  M 88,7  L 88,8  L 89,8  L 89,7  Z  " style="fill:rgb(129, 30, 0); fill-opacity:0.141; stroke:none;" />
 <path d="  M 97,108  L 96,108  L 96,109  L 97,109  Z  " style="fill:rgb(129, 30, 0); fill-opacity:0.141; stroke:none;" />
 <path d="  M 109,97  L 109,96  L 108,96  L 108,97  Z  " style="fill:rgb(129, 30, 0); fill-opacity:0.141; stroke:none;" />
 <path d="  M 14,23  L 13,23  L 13,24  L 14,24  Z  " style="fill:rgb(145, 34, 0); fill-opacity:0.314; stroke:none;" />
 <path d="  M 50,119  L 50,120  L 51,120  L 51,119  Z  " style="fill:rgb(145, 34, 0); fill-opacity:0.314; stroke:none;" />
 <path d="  M 70,119  L 70,120  L 71,120  L 71,119  Z  " style="fill:rgb(145, 34, 0); fill-opacity:0.314; stroke:none;" />
 <path d="  M 108,24  L 108,23  L 107,23  L 107,24  Z  " style="fill:rgb(145, 34, 0); fill-opacity:0.314; stroke:none;" />
 <path d="  M 14,98  L 14,97  L 13,97  L 13,98  Z  " style="fill:rgb(138, 32, 0); fill-opacity:0.329; stroke:none;" />
 <path d="  M 24,107  L 23,107  L 23,108  L 24,108  Z  " style="fill:rgb(138, 32, 0); fill-opacity:0.329; stroke:none;" />
 <path d="  M 97,108  L 98,108  L 98,107  L 97,107  Z  " style="fill:rgb(138, 32, 0); fill-opacity:0.329; stroke:none;" />
 <path d="  M 108,98  L 108,97  L 107,97  L 107,98  Z  " style="fill:rgb(138, 32, 0); fill-opacity:0.329; stroke:none;" />
 <path d="  M 15,23  L 15,22  L 14,22  L 14,23  Z  " style="fill:rgb(140, 33, 0); fill-opacity:0.455; stroke:none;" />
 <path d="  M 23,15  L 23,14  L 22,14  L 22,15  Z  " style="fill:rgb(140, 33, 0); fill-opacity:0.455; stroke:none;" />
 <path d="  M 99,14  L 98,14  L 98,15  L 99,15  Z  " style="fill:rgb(140, 33, 0); fill-opacity:0.455; stroke:none;" />
 <path d="  M 106,22  L 106,23  L 107,23  L 107,22  Z  " style="fill:rgb(140, 33, 0); fill-opacity:0.455; stroke:none;" />
 <path d="  M 16,20  L 16,21  L 17,21  L 17,20  Z  " style="fill:rgb(139, 33, 0); fill-opacity:0.718; stroke:none;" />
 <path d="  M 20,16  L 20,17  L 21,17  L 21,16  Z  " style="fill:rgb(139, 33, 0); fill-opacity:0.718; stroke:none;" />
 <path d="  M 100,16  L 100,17  L 101,17  L 101,16  Z  " style="fill:rgb(139, 33, 0); fill-opacity:0.718; stroke:none;" />
 <path d="  M 104,21  L 105,21  L 105,20  L 104,20  Z  " style="fill:rgb(139, 33, 0); fill-opacity:0.718; stroke:none;" />
 <path d="  M 24,13  L 23,13  L 23,14  L 24,14  Z  " style="fill:rgb(136, 32, 0); fill-opacity:0.267; stroke:none;" />
 <path d="  M 98,14  L 98,13  L 97,13  L 97,14  Z  " style="fill:rgb(136, 32, 0); fill-opacity:0.267; stroke:none;" />
 <path d="  M 33,7  L 32,7  L 32,8  L 33,8  Z  " style="fill:rgb(116, 27, 0); fill-opacity:0.157; stroke:none;" />
 <path d="  M 35,6  L 34,6  L 34,7  L 35,7  Z  " style="fill:rgb(116, 27, 0); fill-opacity:0.157; stroke:none;" />
 <path d="  M 87,6  L 86,6  L 86,7  L 87,7  Z  " style="fill:rgb(116, 27, 0); fill-opacity:0.157; stroke:none;" />
 <path d="  M 114,32  L 113,32  L 113,33  L 114,33  Z  " style="fill:rgb(116, 27, 0); fill-opacity:0.157; stroke:none;" />
 <path d="  M 33,7  L 33,8  L 34,8  L 34,7  Z  " style="fill:rgb(142, 33, 0); fill-opacity:0.702; stroke:none;" />
 <path d="  M 36,114  L 35,114  L 35,115  L 36,115  Z  " style="fill:rgb(142, 33, 0); fill-opacity:0.702; stroke:none;" />
 <path d="  M 73,2  L 73,3  L 74,3  L 74,2  Z  " style="fill:rgb(142, 33, 0); fill-opacity:0.702; stroke:none;" />
 <path d="  M 86,114  L 85,114  L 85,115  L 86,115  Z  " style="fill:rgb(142, 33, 0); fill-opacity:0.702; stroke:none;" />
 <path d="  M 88,7  L 87,7  L 87,8  L 88,8  Z  " style="fill:rgb(142, 33, 0); fill-opacity:0.702; stroke:none;" />
 <path d="  M 50,28  L 49,28  L 49,29  L 48,29  L 48,30  L 47,30  L 47,32  L 46,32  L 46,36  L 45,36  L 45,37  L 35,37  L 35,47  L 44,47  L 44,53  L 42,53  L 42,54  L 40,54  L 40,55  L 38,55  L 38,56  L 36,56  L 36,57  L 35,57  L 35,69  L 37,69  L 37,70  L 39,70  L 39,71  L 40,71  L 40,72  L 42,72  L 42,73  L 44,73  L 44,93  L 35,93  L 35,102  L 86,102  L 86,93  L 77,93  L 77,73  L 78,73  L 78,72  L 80,72  L 80,71  L 82,71  L 82,70  L 84,70  L 84,69  L 86,69  L 86,57  L 85,57  L 85,56  L 83,56  L 83,55  L 81,55  L 81,54  L 79,54  L 79,53  L 77,53  L 77,47  L 86,47  L 86,37  L 76,37  L 76,36  L 75,36  L 75,33  L 74,33  L 74,31  L 73,31  L 73,30  L 72,30  L 72,28  L 70,28  L 70,27  L 69,27  L 69,26  L 67,26  L 67,25  L 64,25  L 64,24  L 63,24  L 63,19  L 58,19  L 58,24  L 56,24  L 56,25  L 53,25  L 53,26  L 51,26  L 51,27  L 50,27  Z  " style="fill:rgb(255, 255, 255); fill-opacity:1.000; stroke:none;" />
 <path d="  M 35,56  L 35,57  L 36,57  L 36,56  Z  " style="fill:rgb(232, 177, 159); fill-opacity:1.000; stroke:none;" />
 <path d="  M 38,56  L 38,55  L 37,55  L 37,56  Z  " style="fill:rgb(232, 177, 159); fill-opacity:1.000; stroke:none;" />
 <path d="  M 46,32  L 47,32  L 47,31  L 46,31  Z  " style="fill:rgb(232, 177, 159); fill-opacity:1.000; stroke:none;" />
 <path d="  M 66,25  L 66,24  L 65,24  L 65,25  Z  " style="fill:rgb(232, 177, 159); fill-opacity:1.000; stroke:none;" />
 <path d="  M 76,34  L 75,34  L 75,35  L 76,35  Z  " style="fill:rgb(232, 177, 159); fill-opacity:1.000; stroke:none;" />
 <path d="  M 84,55  L 83,55  L 83,56  L 84,56  Z  " style="fill:rgb(232, 177, 159); fill-opacity:1.000; stroke:none;" />
 <path d="  M 85,56  L 85,57  L 86,57  L 86,56  Z  " style="fill:rgb(232, 177, 159); fill-opacity:1.000; stroke:none;" />
 <path d="  M 36,70  L 36,69  L 35,69  L 35,70  Z  " style="fill:rgb(209, 98, 64); fill-opacity:1.000; stroke:none;" />
 <path d="  M 40,54  L 41,54  L 41,53  L 40,53  Z  " style="fill:rgb(209, 98, 64); fill-opacity:1.000; stroke:none;" />
 <path d="  M 42,53  L 43,53  L 43,52  L 42,52  Z  " style="fill:rgb(209, 98, 64); fill-opacity:1.000; stroke:none;" />
 <path d="  M 42,73  L 42,74  L 43,74  L 43,73  Z  " style="fill:rgb(209, 98, 64); fill-opacity:1.000; stroke:none;" />
 <path d="  M 72,28  L 72,27  L 71,27  L 71,28  Z  " style="fill:rgb(209, 98, 64); fill-opacity:1.000; stroke:none;" />
 <path d="  M 73,28  L 72,28  L 72,29  L 73,29  Z  " style="fill:rgb(209, 98, 64); fill-opacity:1.000; stroke:none;" />
 <path d="  M 79,53  L 79,52  L 78,52  L 78,53  Z  " style="fill:rgb(209, 98, 64); fill-opacity:1.000; stroke:none;" />
 <path d="  M 81,53  L 80,53  L 80,54  L 81,54  Z  " style="fill:rgb(209, 98, 64); fill-opacity:1.000; stroke:none;" />
 <path d="  M 82,71  L 81,71  L 81,72  L 82,72  Z  " style="fill:rgb(209, 98, 64); fill-opacity:1.000; stroke:none;" />
 <path d="  M 83,70  L 83,71  L 84,71  L 84,70  Z  " style="fill:rgb(209, 98, 64); fill-opacity:1.000; stroke:none;" />
 <path d="  M 85,69  L 85,70  L 86,70  L 86,69  Z  " style="fill:rgb(209, 98, 64); fill-opacity:1.000; stroke:none;" />
 <path d="  M 87,93  L 86,93  L 86,102  L 87,102  Z  " style="fill:rgb(209, 98, 64); fill-opacity:1.000; stroke:none;" />
 <path d="  M 37,55  L 36,55  L 36,56  L 37,56  Z  " style="fill:rgb(201, 72, 32); fill-opacity:1.000; stroke:none;" />
 <path d="  M 39,55  L 39,54  L 38,54  L 38,55  Z  " style="fill:rgb(201, 72, 32); fill-opacity:1.000; stroke:none;" />
 <path d="  M 40,73  L 41,73  L 41,72  L 40,72  Z  " style="fill:rgb(201, 72, 32); fill-opacity:1.000; stroke:none;" />
 <path d="  M 46,31  L 47,31  L 47,30  L 46,30  Z  " style="fill:rgb(201, 72, 32); fill-opacity:1.000; stroke:none;" />
 <path d="  M 83,54  L 82,54  L 82,55  L 83,55  Z  " style="fill:rgb(201, 72, 32); fill-opacity:1.000; stroke:none;" />
 <path d="  M 84,55  L 84,56  L 85,56  L 85,55  Z  " style="fill:rgb(201, 72, 32); fill-opacity:1.000; stroke:none;" />
 <path d="  M 36,69  L 36,70  L 37,70  L 37,69  Z  " style="fill:rgb(247, 229, 223); fill-opacity:1.000; stroke:none;" />
 <path d="  M 46,36  L 46,35  L 45,35  L 45,36  Z  " style="fill:rgb(247, 229, 223); fill-opacity:1.000; stroke:none;" />
 <path d="  M 53,25  L 52,25  L 52,26  L 53,26  Z  " style="fill:rgb(247, 229, 223); fill-opacity:1.000; stroke:none;" />
 <path d="  M 65,25  L 65,24  L 64,24  L 64,25  Z  " style="fill:rgb(247, 229, 223); fill-opacity:1.000; stroke:none;" />
 <path d="  M 67,26  L 68,26  L 68,25  L 67,25  Z  " style="fill:rgb(247, 229, 223); fill-opacity:1.000; stroke:none;" />
 <path d="  M 74,32  L 74,33  L 75,33  L 75,32  Z  " style="fill:rgb(247, 229, 223); fill-opacity:1.000; stroke:none;" />
 <path d="  M 75,36  L 76,36  L 76,35  L 75,35  Z  " style="fill:rgb(247, 229, 223); fill-opacity:1.000; stroke:none;" />
 <path d="  M 79,73  L 79,72  L 78,72  L 78,73  Z  " style="fill:rgb(247, 229, 223); fill-opacity:1.000; stroke:none;" />
 <path d="  M 80,71  L 80,72  L 81,72  L 81,71  Z  " style="fill:rgb(247, 229, 223); fill-opacity:1.000; stroke:none;" />
 <path d="  M 38,71  L 38,70  L 37,70  L 37,71  Z  " style="fill:rgb(216, 124, 96); fill-opacity:1.000; stroke:none;" />
 <path d="  M 45,34  L 46,34  L 46,33  L 45,33  Z  " style="fill:rgb(216, 124, 96); fill-opacity:1.000; stroke:none;" />
 <path d="  M 52,26  L 52,25  L 51,25  L 51,26  Z  " style="fill:rgb(216, 124, 96); fill-opacity:1.000; stroke:none;" />
 <path d="  M 68,26  L 69,26  L 69,25  L 68,25  Z  " style="fill:rgb(216, 124, 96); fill-opacity:1.000; stroke:none;" />
 <path d="  M 74,32  L 75,32  L 75,31  L 74,31  Z  " style="fill:rgb(216, 124, 96); fill-opacity:1.000; stroke:none;" />
 <path d="  M 78,74  L 78,73  L 77,73  L 77,74  Z  " style="fill:rgb(216, 124, 96); fill-opacity:1.000; stroke:none;" />
 <path d="  M 79,72  L 79,73  L 80,73  L 80,72  Z  " style="fill:rgb(216, 124, 96); fill-opacity:1.000; stroke:none;" />
 <path d="  M 39,70  L 38,70  L 38,71  L 39,71  Z  " style="fill:rgb(251, 242, 239); fill-opacity:1.000; stroke:none;" />
 <path d="  M 71,27  L 70,27  L 70,28  L 71,28  Z  " style="fill:rgb(251, 242, 239); fill-opacity:1.000; stroke:none;" />
 <path d="  M 73,30  L 73,29  L 72,29  L 72,30  Z  " style="fill:rgb(251, 242, 239); fill-opacity:1.000; stroke:none;" />
 <path d="  M 39,71  L 38,71  L 38,72  L 39,72  Z  " style="fill:rgb(197, 59, 16); fill-opacity:1.000; stroke:none;" />
 <path d="  M 45,37  L 45,36  L 44,36  L 44,37  Z  " style="fill:rgb(197, 59, 16); fill-opacity:1.000; stroke:none;" />
 <path d="  M 46,33  L 46,32  L 45,32  L 45,33  Z  " style="fill:rgb(197, 59, 16); fill-opacity:1.000; stroke:none;" />
 <path d="  M 47,28  L 47,29  L 48,29  L 48,28  Z  " style="fill:rgb(197, 59, 16); fill-opacity:1.000; stroke:none;" />
 <path d="  M 48,27  L 48,28  L 49,28  L 49,27  Z  " style="fill:rgb(197, 59, 16); fill-opacity:1.000; stroke:none;" />
 <path d="  M 50,27  L 50,26  L 49,26  L 49,27  Z  " style="fill:rgb(197, 59, 16); fill-opacity:1.000; stroke:none;" />
 <path d="  M 39,54  L 39,55  L 40,55  L 40,54  Z  " style="fill:rgb(240, 203, 191); fill-opacity:1.000; stroke:none;" />
 <path d="  M 42,53  L 41,53  L 41,54  L 42,54  Z  " style="fill:rgb(240, 203, 191); fill-opacity:1.000; stroke:none;" />
 <path d="  M 44,52  L 43,52  L 43,53  L 44,53  Z  " style="fill:rgb(240, 203, 191); fill-opacity:1.000; stroke:none;" />
 <path d="  M 50,27  L 51,27  L 51,26  L 50,26  Z  " style="fill:rgb(240, 203, 191); fill-opacity:1.000; stroke:none;" />
 <path d="  M 56,25  L 56,24  L 55,24  L 55,25  Z  " style="fill:rgb(240, 203, 191); fill-opacity:1.000; stroke:none;" />
 <path d="  M 77,52  L 77,53  L 78,53  L 78,52  Z  " style="fill:rgb(240, 203, 191); fill-opacity:1.000; stroke:none;" />
 <path d="  M 80,53  L 79,53  L 79,54  L 80,54  Z  " style="fill:rgb(240, 203, 191); fill-opacity:1.000; stroke:none;" />
 <path d="  M 81,55  L 82,55  L 82,54  L 81,54  Z  " style="fill:rgb(240, 203, 191); fill-opacity:1.000; stroke:none;" />
 <path d="  M 83,71  L 83,70  L 82,70  L 82,71  Z  " style="fill:rgb(240, 203, 191); fill-opacity:1.000; stroke:none;" />
 <path d="  M 84,70  L 85,70  L 85,69  L 84,69  Z  " style="fill:rgb(240, 203, 191); fill-opacity:1.000; stroke:none;" />
 <path d="  M 39,71  L 39,72  L 40,72  L 40,71  Z  " style="fill:rgb(224, 151, 128); fill-opacity:1.000; stroke:none;" />
 <path d="  M 41,72  L 41,73  L 42,73  L 42,72  Z  " style="fill:rgb(236, 190, 175); fill-opacity:1.000; stroke:none;" />
 <path d="  M 46,35  L 46,34  L 45,34  L 45,35  Z  " style="fill:rgb(236, 190, 175); fill-opacity:1.000; stroke:none;" />
 <path d="  M 41,118  L 42,118  L 42,117  L 41,117  Z  " style="fill:rgb(116, 27, 0); fill-opacity:0.078; stroke:none;" />
 <path d="  M 80,118  L 80,117  L 79,117  L 79,118  Z  " style="fill:rgb(116, 27, 0); fill-opacity:0.078; stroke:none;" />
 <path d="  M 91,8  L 90,8  L 90,9  L 91,9  Z  " style="fill:rgb(116, 27, 0); fill-opacity:0.078; stroke:none;" />
 <path d="  M 43,74  L 44,74  L 44,73  L 43,73  Z  " style="fill:rgb(243, 216, 207); fill-opacity:1.000; stroke:none;" />
 <path d="  M 49,28  L 48,28  L 48,29  L 49,29  Z  " style="fill:rgb(243, 216, 207); fill-opacity:1.000; stroke:none;" />
 <path d="  M 49,27  L 49,28  L 50,28  L 50,27  Z  " style="fill:rgb(243, 216, 207); fill-opacity:1.000; stroke:none;" />
 <path d="  M 69,27  L 70,27  L 70,26  L 69,26  Z  " style="fill:rgb(243, 216, 207); fill-opacity:1.000; stroke:none;" />
 <path d="  M 74,30  L 73,30  L 73,31  L 74,31  Z  " style="fill:rgb(243, 216, 207); fill-opacity:1.000; stroke:none;" />
 <path d="  M 47,29  L 47,30  L 48,30  L 48,29  Z  " style="fill:rgb(228, 164, 143); fill-opacity:1.000; stroke:none;" />
 <path d="  M 54,24  L 54,25  L 55,25  L 55,24  Z  " style="fill:rgb(228, 164, 143); fill-opacity:1.000; stroke:none;" />
 <path d="  M 48,113  L 47,113  L 47,114  L 48,114  Z  " style="fill:rgb(160, 38, 0); fill-opacity:1.000; stroke:none;" />
 <path d="  M 73,114  L 74,114  L 74,113  L 73,113  Z  " style="fill:rgb(160, 38, 0); fill-opacity:1.000; stroke:none;" />
 <path d="  M 54,25  L 54,24  L 53,24  L 53,25  Z  " style="fill:rgb(212, 111, 80); fill-opacity:1.000; stroke:none;" />
 <path d="  M 66,25  L 67,25  L 67,24  L 66,24  Z  " style="fill:rgb(212, 111, 80); fill-opacity:1.000; stroke:none;" />
 <path d="  M 75,34  L 76,34  L 76,33  L 75,33  Z  " style="fill:rgb(212, 111, 80); fill-opacity:1.000; stroke:none;" />
 <path d="  M 71,26  L 70,26  L 70,27  L 71,27  Z  " style="fill:rgb(205, 85, 48); fill-opacity:1.000; stroke:none;" />
 <path d="  M 73,30  L 74,30  L 74,29  L 73,29  Z  " style="fill:rgb(205, 85, 48); fill-opacity:1.000; stroke:none;" />
</svg>
