<svg xmlns="http://www.w3.org/2000/svg" width="243.6" height="225.3" viewBox="0 0 243.6 225.3">
  <g id="logo-rgb" transform="translate(-52.5 -44.1)">
    <g id="Group_72" data-name="Group 72">
      <path id="Path_41" data-name="Path 41" d="M247.4,133V80.9L174.2,44.1,101,80.9V133H52.5v60.5h48.4v26.8c0,10.1,12.4,21.4,36.7,33.6a340.025,340.025,0,0,0,35.9,15.2l.6.2.6-.2a340.02,340.02,0,0,0,35.9-15.2c24.4-12.2,36.7-23.6,36.7-33.6V193.5h48.8V133Z" fill="#ffe801"/>
      <path id="Path_42" data-name="Path 42" d="M74,161.5h3.4a2.063,2.063,0,0,0,1.7-.6,3.281,3.281,0,0,0,.6-2.1,2.986,2.986,0,0,0-.6-2,2.352,2.352,0,0,0-1.7-.6H74Zm13.3,14.4H79.6l-2.8-8H74v8H66.9V149.8H77.3c6.2,0,9.6,3.1,9.6,9a8.636,8.636,0,0,1-3.3,7.3Z"/>
    </g>
    <rect id="Rectangle_212" data-name="Rectangle 212" width="7.1" height="26.1" transform="translate(88.7 149.8)"/>
    <g id="Group_73" data-name="Group 73">
      <path id="Path_43" data-name="Path 43" d="M106.8,176.3a32.644,32.644,0,0,1-6.9-.9l-2.3-.4.8-5.9,1.1.2a58.985,58.985,0,0,0,7.1.6c2.4,0,2.6-1,2.6-2a1.086,1.086,0,0,0-.4-.9,11.13,11.13,0,0,0-3.1-1.2c-2.9-.8-5-1.8-6.2-3a7.085,7.085,0,0,1-2-5.3,7.641,7.641,0,0,1,2.6-6.2,10.684,10.684,0,0,1,6.7-2,38.1,38.1,0,0,1,6.8.7l2.3.4-.6,6-1.1-.1a65.434,65.434,0,0,0-6.9-.6c-2.7,0-2.7,1-2.7,1.4a.812.812,0,0,0,.4.8,19.925,19.925,0,0,0,4.2,1.6,13.467,13.467,0,0,1,5.4,2.8c1.2,1.2,1.7,2.9,1.7,5.2a8.026,8.026,0,0,1-2.7,6.5,9.848,9.848,0,0,1-6.8,2.3"/>
    </g>
    <path id="Path_44" data-name="Path 44" d="M138.4,175.9h-8.1l-3.9-9.4-1.5.1v9.3h-7V149.8h7v10.4l1.4-.2,3.9-10.2h8l-5.7,13.1Z"/>
    <path id="Path_45" data-name="Path 45" d="M153.5,175.9h-7.1V149.8h19.1l-1.6,6.4H153.5V161h9.4l-1.5,6.5h-7.9Z"/>
    <path id="Path_46" data-name="Path 46" d="M171.6,165.1h3.8l-1.9-8.8Zm13.2,10.8h-7.2l-1-4.3H170l-.9,4.3h-7.2l5.9-26.1h11Z"/>
    <g id="Group_74" data-name="Group 74">
      <path id="Path_47" data-name="Path 47" d="M249,161.5h3.4a2.063,2.063,0,0,0,1.7-.6,3.281,3.281,0,0,0,.6-2.1,2.986,2.986,0,0,0-.6-2,2.2,2.2,0,0,0-1.7-.6H249Zm13.2,14.4h-7.7l-2.8-8H249v8h-7.1V149.8h10.4c6.2,0,9.6,3.1,9.6,9a8.636,8.636,0,0,1-3.3,7.3Z"/>
    </g>
    <path id="Path_48" data-name="Path 48" d="M274.7,175.9h-7.1V165.4l-8-15.6h7.9l3.7,8,3.6-8h8l-8.1,15.6Z"/>
    <g id="Group_75" data-name="Group 75">
      <path id="Path_49" data-name="Path 49" d="M131.5,232l51-42.3H160.2l-40.6,33.7c2.2,2.3,6,5.1,11.9,8.6"/>
    </g>
    <path id="Path_50" data-name="Path 50" d="M137.7,189.7H117.2v17Z"/>
    <g id="Group_76" data-name="Group 76">
      <path id="Path_51" data-name="Path 51" d="M159.5,246l67.8-56.3H205l-59.8,49.7h0c4.9,2.4,9.8,4.7,14.3,6.6"/>
      <path id="Path_52" data-name="Path 52" d="M231.1,219V205.3l-55.2,45.8c5.6-2.1,16.4-6.4,27.2-11.7,20.6-10.4,28-16.5,28-20.4"/>
      <path id="Path_53" data-name="Path 53" d="M292.4,189.7H243.6v30.6c0,8.4-12,18.9-34.6,30.3a311.674,311.674,0,0,1-34.9,14.8,335.31,335.31,0,0,1-34.8-14.8c-22.7-11.4-34.7-21.9-34.7-30.3V189.7H56.2v-53h48.4V83.2l69.5-34.9,69.5,34.9v53.5h48.8Zm-45-56.7V80.9L174.2,44.1,101,80.9V133H52.5v60.5h48.4v26.8c0,10.1,12.4,21.4,36.7,33.7a350.141,350.141,0,0,0,35.9,15.2l.6.2.6-.2A340.02,340.02,0,0,0,210.6,254c24.4-12.2,36.7-23.6,36.7-33.7V193.5h48.8V133Z"/>
    </g>
    <path id="Path_54" data-name="Path 54" d="M187,68.7l-10.8-5.4v73.4h16.4V102.5L187,99.7Z"/>
    <path id="Path_55" data-name="Path 55" d="M206.3,78.4l-9.6-4.8v63.1h15.2V110l-5.6-2.8Z"/>
    <path id="Path_56" data-name="Path 56" d="M225.6,114.7V88.1L216,83.3v53.4h15.2V117.5h-.1Z"/>
    <path id="Path_57" data-name="Path 57" d="M117.2,136.7h7.3V117.8l11-5.5v24.4h4V110l10.9-5.5v32.2h4V102.5l11-5.5v39.7h6.7V63.3L117.2,90.9Z"/>
    <g id="Group_77" data-name="Group 77">
      <path id="Path_58" data-name="Path 58" d="M194.5,149.4c-3.9,0-6.6,1.1-8.1,3.2-1.4,2-2.2,5.4-2.2,10.3a30.385,30.385,0,0,0,.4,5.7,11.147,11.147,0,0,0,1.6,4.2,6.945,6.945,0,0,0,3.3,2.8,12.618,12.618,0,0,0,5.2.8,35.691,35.691,0,0,0,6.9-.8l.9-.2-.2-6.2-1.3.2a42.814,42.814,0,0,1-6,.5c-1.5,0-2.5-.4-2.9-1.1-.4-.6-.8-2-.8-5.2a24.386,24.386,0,0,1,.4-5.6,2.746,2.746,0,0,1,1-1.7,5.407,5.407,0,0,1,2.7-.4,23.55,23.55,0,0,1,2.5.1v-6.4c-1.2-.1-2.3-.2-3.4-.2"/>
      <path id="Path_59" data-name="Path 59" d="M231.8,168.6c-.2.3-.7,1.3-2.9,1.3s-2.7-1-2.9-1.3c-.4-.7-.9-2.3-.9-5.6a13.679,13.679,0,0,1,.9-5.8c.3-.6,1-1.4,2.9-1.4s2.6.8,2.9,1.4c.6,1.1.9,3.1.9,5.8,0,3.3-.5,4.9-.9,5.6m5.8-15.8c-1.7-2.3-4.6-3.5-8.6-3.5s-6.9,1.2-8.6,3.5c-1.6,2.3-2.4,5.6-2.4,10.1s.8,7.8,2.5,10c1.7,2.3,4.6,3.4,8.6,3.4s6.9-1.1,8.6-3.4c1.7-2.2,2.5-5.5,2.5-10-.2-4.5-1-7.8-2.6-10.1"/>
      <path id="Path_60" data-name="Path 60" d="M221.3,149.8H200.5v6.5H206v19.6h7.1V156.3H217a13.468,13.468,0,0,1,1.9-4.2,6.645,6.645,0,0,1,2.4-2.3"/>
    </g>
  </g>
</svg>