<?xml version="1.0" encoding="UTF-8"?>
<svg version="1.1" xmlns="http://www.w3.org/2000/svg" width="1063" height="1063">
<path d="M0 0 C350.79 0 701.58 0 1063 0 C1063 350.79 1063 701.58 1063 1063 C712.21 1063 361.42 1063 0 1063 C0 712.21 0 361.42 0 0 Z " fill="#FFFFFF" transform="translate(0,0)"/>
<path d="M0 0 C46.53 0 93.06 0 141 0 C141 53.46 141 106.92 141 162 C400.38 162 659.76 162 927 162 C927 187.41 927 212.82 927 239 C667.62 239 408.24 239 141 239 C141 436.67 141 634.34 141 838 C94.47 838 47.94 838 0 838 C0 561.46 0 284.92 0 0 Z " fill="#C0C0C0" transform="translate(69,108)"/>
<path d="M0 0 C46.53 0 93.06 0 141 0 C141 53.46 141 106.92 141 162 C400.38 162 659.76 162 927 162 C927 187.41 927 212.82 927 239 C667.62 239 408.24 239 141 239 C141 436.67 141 634.34 141 838 C94.47 838 47.94 838 0 838 C0 561.46 0 284.92 0 0 Z M4 4 C4 277.9 4 551.8 4 834 C47.89 834 91.78 834 137 834 C137 637.65 137 441.3 137 239 C113.9 239 90.8 239 67 239 C67 213.59 67 188.18 67 162 C90.1 162 113.2 162 137 162 C137 109.86 137 57.72 137 4 C93.11 4 49.22 4 4 4 Z " fill="#777777" transform="translate(69,108)"/>
<path d="M0 0 C128.37 0 256.74 0 389 0 C389 22.44 389 44.88 389 68 C260.63 68 132.26 68 0 68 C0 45.56 0 23.12 0 0 Z " fill="#FF0000" transform="translate(214,274)"/>
<path d="M0 0 C45.21 0 90.42 0 137 0 C137 22.44 137 44.88 137 68 C91.79 68 46.58 68 0 68 C0 45.56 0 23.12 0 0 Z " fill="#FFFFFF" transform="translate(466,274)"/>
<path d="M0 0 C44.88 0 89.76 0 136 0 C136 22.44 136 44.88 136 68 C91.12 68 46.24 68 0 68 C0 45.56 0 23.12 0 0 Z " fill="#FFFFFF" transform="translate(731,274)"/>
<path d="M0 0 C42.24 0 84.48 0 128 0 C128 22.44 128 44.88 128 68 C85.76 68 43.52 68 0 68 C0 45.56 0 23.12 0 0 Z " fill="#FF0000" transform="translate(603,274)"/>
<path d="M0 0 C40.92 0 81.84 0 124 0 C124 22.44 124 44.88 124 68 C83.08 68 42.16 68 0 68 C0 45.56 0 23.12 0 0 Z " fill="#FF0000" transform="translate(867,274)"/>
<path d="M0 0 C40.92 0 81.84 0 124 0 C124 22.44 124 44.88 124 68 C83.08 68 42.16 68 0 68 C0 45.56 0 23.12 0 0 Z " fill="#FFFFFF" transform="translate(214,274)"/>
<path d="M0 0 C46.53 0 93.06 0 141 0 C141 53.46 141 106.92 141 162 C139.68 162 138.36 162 137 162 C137 109.86 137 57.72 137 4 C93.11 4 49.22 4 4 4 C4 277.9 4 551.8 4 834 C47.89 834 91.78 834 137 834 C137 637.65 137 441.3 137 239 C138.32 239 139.64 239 141 239 C141 436.67 141 634.34 141 838 C94.47 838 47.94 838 0 838 C0 561.46 0 284.92 0 0 Z " fill="#000000" transform="translate(69,108)"/>
<path d="M0 0 C24.42 0 48.84 0 74 0 C74 22.44 74 44.88 74 68 C49.58 68 25.16 68 0 68 C0 45.56 0 23.12 0 0 Z " fill="#FF0000" transform="translate(140,274)"/>
</svg>
