<?xml version="1.0" standalone="no"?>
<!DOCTYPE svg PUBLIC "-//W3C//DTD SVG 20010904//EN"
 "http://www.w3.org/TR/2001/REC-SVG-20010904/DTD/svg10.dtd">
<svg version="1.0" xmlns="http://www.w3.org/2000/svg"
 width="111.000000pt" height="91.000000pt" viewBox="0 0 111.000000 91.000000"
 preserveAspectRatio="xMidYMid meet">

<g transform="translate(0.000000,91.000000) scale(0.100000,-0.100000)"
fill="#000000" stroke="none">
<path d="M15 884 c-24 -37 -13 -39 20 -4 21 22 24 30 13 30 -9 0 -23 -12 -33
-26z"/>
<path d="M57 852 c-62 -63 -81 -109 -21 -51 47 45 98 109 87 109 -5 0 -34 -26
-66 -58z"/>
<path d="M96 811 c-54 -54 -97 -103 -95 -109 2 -6 51 39 107 99 57 60 100 109
95 109 -5 0 -53 -44 -107 -99z"/>
<path d="M131 769 c-74 -77 -132 -142 -129 -144 2 -2 69 61 148 140 80 80 138
145 130 144 -8 0 -75 -63 -149 -140z"/>
<path d="M171 731 c-94 -98 -171 -182 -171 -187 0 -11 220 207 302 299 33 37
56 67 50 67 -5 0 -87 -80 -181 -179z"/>
<path d="M211 693 c-116 -119 -211 -221 -211 -227 0 -13 32 18 252 247 105
108 186 197 180 197 -6 0 -105 -98 -221 -217z"/>
<path d="M294 702 c-226 -232 -299 -311 -292 -317 2 -3 120 115 262 260 142
146 252 265 244 264 -7 0 -104 -94 -214 -207z"/>
<path d="M288 615 c-159 -162 -288 -300 -288 -307 0 -6 116 107 258 253 284
291 339 349 326 349 -5 0 -138 -133 -296 -295z"/>
<path d="M326 576 c-179 -184 -326 -339 -326 -346 0 -10 94 84 569 573 58 59
100 107 94 107 -6 0 -157 -150 -337 -334z"/>
<path d="M365 538 c-198 -203 -361 -376 -363 -383 -2 -7 88 80 200 193 112
114 282 287 378 384 96 98 168 178 160 178 -8 -1 -177 -168 -375 -372z"/>
<path d="M404 499 c-219 -226 -400 -416 -402 -422 -3 -13 554 549 719 726 56
59 97 107 92 107 -5 0 -189 -185 -409 -411z"/>
<path d="M441 458 c-242 -249 -438 -455 -434 -458 3 -3 106 99 230 225 509
523 665 685 655 685 -6 0 -209 -203 -451 -452z"/>
<path d="M517 458 c-241 -247 -435 -453 -432 -456 4 -4 50 38 102 93 53 55
253 261 446 458 192 196 343 357 336 356 -8 0 -211 -203 -452 -451z"/>
<path d="M893 766 c-76 -79 -275 -284 -443 -456 -168 -172 -298 -311 -290
-309 8 2 195 188 414 414 488 500 483 495 469 495 -6 0 -74 -65 -150 -144z"/>
<path d="M666 454 c-239 -247 -433 -450 -430 -453 9 -9 880 886 872 895 -3 2
-202 -196 -442 -442z"/>
<path d="M706 417 c-219 -224 -396 -411 -392 -414 3 -3 122 113 263 258 141
145 320 328 396 406 77 77 138 145 136 150 -2 4 -183 -176 -403 -400z"/>
<path d="M743 376 c-198 -204 -359 -373 -357 -375 6 -6 30 18 396 391 181 186
328 341 326 346 -1 5 -166 -158 -365 -362z"/>
<path d="M870 428 c-315 -323 -414 -428 -403 -428 14 0 645 649 641 659 -1 5
-109 -99 -238 -231z"/>
<path d="M821 299 c-156 -160 -280 -293 -277 -296 3 -4 118 108 254 248 264
270 317 327 310 334 -2 2 -131 -126 -287 -286z"/>
<path d="M855 255 c-136 -140 -243 -255 -238 -255 4 0 94 87 198 193 253 255
300 305 293 312 -3 3 -116 -110 -253 -250z"/>
<path d="M896 219 c-113 -117 -203 -215 -201 -218 7 -6 61 46 257 252 89 92
158 170 156 173 -3 3 -98 -91 -212 -207z"/>
<path d="M930 175 c-96 -96 -168 -175 -160 -175 15 0 346 337 338 345 -2 2
-82 -74 -178 -170z"/>
<path d="M971 138 c-74 -76 -130 -138 -125 -138 14 0 267 256 263 266 -2 5
-64 -53 -138 -128z"/>
<path d="M1012 101 c-52 -56 -90 -101 -85 -101 15 0 185 178 181 190 -2 6 -45
-34 -96 -89z"/>
<path d="M1045 60 c-33 -34 -53 -60 -44 -60 19 0 112 95 108 109 -2 6 -31 -16
-64 -49z"/>
<path d="M1085 20 c-10 -11 -13 -20 -8 -20 13 0 38 29 31 35 -3 3 -13 -4 -23
-15z"/>
</g>
</svg>
