<?xml version="1.0" encoding="UTF-8"?>
<svg version="1.1" xmlns="http://www.w3.org/2000/svg" width="235" height="90">
<path d="M0 0 C77.55 0 155.1 0 235 0 C235 29.7 235 59.4 235 90 C157.45 90 79.9 90 0 90 C0 60.3 0 30.6 0 0 Z " fill="#0C4F9C" transform="translate(0,0)"/>
<path d="M0 0 C77.55 0 155.1 0 235 0 C235 29.7 235 59.4 235 90 C157.45 90 79.9 90 0 90 C0 60.3 0 30.6 0 0 Z M8 7 C8.33 7.66 8.66 8.32 9 9 C8.51202438 9.3592305 8.02404877 9.718461 7.52128601 10.08857727 C5.2920136 12.88955087 5.63975204 15.0352847 5.65942383 18.58276367 C5.65898575 19.24644455 5.65854767 19.91012543 5.65809631 20.59391785 C5.66018481 22.78556839 5.68351732 24.97645201 5.70703125 27.16796875 C5.71262702 28.6882536 5.71689721 30.20854386 5.71989441 31.72883606 C5.73134476 35.72877965 5.76081328 39.72839606 5.79400635 43.72821045 C5.82470331 47.8102984 5.83839893 51.89243925 5.85351562 55.97460938 C5.88568305 63.98322301 5.9368814 71.99157079 6 80 C6.66 80 7.32 80 8 80 C8.33 80.99 8.66 81.98 9 83 C12.27063974 84.63531987 15.88478612 84.13273905 19.47866821 84.12025452 C20.81042778 84.12153615 20.81042778 84.12153615 22.16909158 84.12284368 C25.16173875 84.12449858 28.1543306 84.11897694 31.14697266 84.11352539 C33.2851715 84.1132435 35.42337043 84.1134013 37.56156921 84.1139679 C43.38152152 84.11425578 49.20145339 84.10836054 55.02140093 84.10139394 C61.09795561 84.09515886 67.17451072 84.09455648 73.25106812 84.09336853 C84.76473702 84.09025567 96.27839647 84.08204289 107.79206121 84.07201904 C120.89705651 84.0608565 134.00205226 84.0553471 147.10705113 84.05032361 C174.07137267 84.03986024 201.03568581 84.02226167 228 84 C228.96422933 80.44171072 229.1268256 77.28129425 229.12939453 73.58251953 C229.13412277 71.6299675 229.13412277 71.6299675 229.13894653 69.63796997 C229.13715621 68.2195838 229.13510512 66.80119794 229.1328125 65.3828125 C229.1334865 63.92316675 229.13445734 62.4635211 229.13571167 61.00387573 C229.13718502 57.94576956 229.13504635 54.88769262 229.13037109 51.82958984 C229.12468414 47.92021407 229.12794854 44.01090712 229.13394356 40.10153389 C229.13756759 37.08685799 229.13640195 34.07219823 229.13381577 31.05752182 C229.13315107 29.61669786 229.13395888 28.17587242 229.13629532 26.7350502 C229.13885095 24.71545695 229.13426154 22.69585853 229.12939453 20.67626953 C229.12859894 19.52917511 229.12780334 18.38208069 229.12698364 17.20022583 C229.04755936 13.5135313 229.04755936 13.5135313 228 8 C178.5 8 129 8 78 8 C79.8076787 10.23131867 79.8076787 10.23131867 82.33837891 10.22705078 C83.76802979 10.21134033 83.76802979 10.21134033 85.2265625 10.1953125 C86.2578125 10.18886719 87.2890625 10.18242187 88.3515625 10.17578125 C89.43179688 10.15902344 90.51203125 10.14226563 91.625 10.125 C93.25695312 10.11146484 93.25695312 10.11146484 94.921875 10.09765625 C97.61480152 10.07403409 100.30729255 10.04109556 103 10 C102.97354686 21.04418449 102.35336584 30.51736441 96 40 C94.515 40.495 94.515 40.495 93 41 C92.81824219 40.09507813 92.81824219 40.09507813 92.6328125 39.171875 C92.46523437 38.37265625 92.29765625 37.5734375 92.125 36.75 C91.96257812 35.96109375 91.80015625 35.1721875 91.6328125 34.359375 C91.00849925 32.03168856 90.15161458 30.10968048 89 28 C82.5392739 29.69209493 78.03751184 32.80446968 74.625 38.5 C69.14938926 50.83162754 75.00785012 66.02355036 79 78 C57.22 78 35.44 78 13 78 C18 62 18 62 20 56 C20.33259736 53.94370365 20.62327334 51.88025467 20.875 49.8125 C21.65701443 44.36322485 23.0512909 39.60303239 25.05859375 34.4921875 C25.89900208 32.26737209 26.52696882 30.12563467 27.0625 27.8125 C27.76761122 24.94504771 28.54817998 22.46959661 29.625 19.75 C31.2295031 16.03977184 31.2295031 16.03977184 31 12 C28.75026553 11.945862 26.50015617 11.90714509 24.25 11.875 C22.37054687 11.84019531 22.37054687 11.84019531 20.453125 11.8046875 C17.27179508 11.98462698 15.63478104 12.31001418 13 14 C13.33 12.35 13.66 10.7 14 9 C14.66 9 15.32 9 16 9 C16 8.34 16 7.68 16 7 C13.36 7 10.72 7 8 7 Z " fill="#175095" transform="translate(0,0)"/>
<path d="M0 0 C77.55 0 155.1 0 235 0 C235 29.7 235 59.4 235 90 C157.45 90 79.9 90 0 90 C0 60.3 0 30.6 0 0 Z M6.48805904 6.83210659 C4.35778414 9.93561847 4.49878542 12.25664715 4.49829102 16 C4.49288803 16.69641602 4.48748505 17.39283203 4.48191833 18.11035156 C4.46943335 20.40733631 4.48591886 22.70306698 4.50390625 25 C4.50375125 26.598959 4.50226219 28.19791838 4.49949646 29.796875 C4.49811258 33.14600253 4.51066818 36.49470176 4.53344727 39.84375 C4.56183222 44.13465975 4.55909461 48.42485791 4.54635715 52.71582031 C4.53939897 56.01698881 4.54719078 59.3179931 4.55961418 62.61914062 C4.56412735 64.20116547 4.56446665 65.78320795 4.56054878 67.36523438 C4.5576351 69.57718986 4.57414944 71.78816808 4.59594727 74 C4.60135025 75.258125 4.60675323 76.51625 4.61231995 77.8125 C5.05176394 81.42560242 5.32244356 82.566952 8 85 C11.00508095 85.40006987 13.64667154 85.5398363 16.65466309 85.50793457 C17.9967799 85.51729451 17.9967799 85.51729451 19.36601019 85.52684355 C22.37643308 85.54285054 25.3860549 85.53013919 28.39648438 85.51757812 C30.54967218 85.52299581 32.70285629 85.53011648 34.85603333 85.53881836 C40.71340029 85.55709654 46.5704863 85.54996556 52.42785835 85.53730202 C58.54838969 85.52719764 64.66889646 85.53656055 70.78942871 85.54284668 C81.06913588 85.55013056 91.34872822 85.54051592 101.62841797 85.52148438 C113.52491823 85.49971431 125.42114431 85.50676515 137.31763792 85.52879 C147.51895866 85.54692286 157.7201967 85.54951266 167.92152834 85.53903532 C174.0199308 85.53278877 180.11820426 85.53199664 186.21659851 85.54518127 C191.94907701 85.55670837 197.68120091 85.54877142 203.41364098 85.52560425 C205.52160235 85.52030035 207.62959341 85.52185945 209.73754311 85.53065491 C212.60721508 85.54152765 215.47573883 85.52794719 218.34533691 85.50793457 C219.6073361 85.5213189 219.6073361 85.5213189 220.89483023 85.53497362 C225.36877982 85.51098781 225.36877982 85.51098781 229.01668644 83.17026615 C230.443328 80.02153312 230.38947597 77.34270785 230.40405273 73.89233398 C230.41091599 73.18455811 230.41777924 72.47678223 230.42485046 71.74755859 C230.44311752 69.41353163 230.43928233 67.08017669 230.43359375 64.74609375 C230.43815474 63.12231731 230.44346006 61.49854281 230.44947815 59.87477112 C230.45840836 56.47445829 230.45598622 53.07438036 230.44604492 49.67407227 C230.43453912 45.31347676 230.45479113 40.9536891 230.48396206 36.59319973 C230.50229104 33.24146873 230.50203854 29.88993266 230.49632454 26.53816414 C230.496171 24.93017504 230.50224193 23.32217299 230.51461601 21.71423149 C230.52946756 19.4683922 230.51889535 17.22406295 230.50170898 14.97827148 C230.50154282 13.70016098 230.50137665 12.42205048 230.50120544 11.10520935 C230.28937181 8.02336403 230.28937181 8.02336403 228.51194096 6.33015442 C224.86196655 4.39737428 221.3389848 4.58312807 217.30773926 4.61231995 C215.97764981 4.60424164 215.97764981 4.60424164 214.62068987 4.59600013 C211.64347061 4.58166968 208.66669277 4.58883681 205.68945312 4.59594727 C203.55744569 4.5902464 201.42544131 4.58328325 199.29344177 4.57514954 C193.4980965 4.55717278 187.70290226 4.55839488 181.90753746 4.56409192 C177.07373918 4.56717689 172.23997021 4.56109912 167.40617609 4.55505317 C156.00594819 4.54099504 144.6057952 4.54258029 133.20556641 4.55395508 C121.43347304 4.56544113 109.66160737 4.55135524 97.88954401 4.5245586 C87.79095428 4.50242957 77.69243617 4.49575781 67.59382391 4.50163502 C61.55855197 4.50501206 55.52342605 4.50253981 49.48817444 4.48538399 C43.8147891 4.46996125 38.14174218 4.47381847 32.46837044 4.49268913 C30.38339873 4.49638781 28.29840221 4.49322957 26.21345329 4.48280334 C23.37266101 4.46967932 20.53300335 4.4810644 17.69226074 4.49879456 C16.86230481 4.48918955 16.03234887 4.47958454 15.17724276 4.46968848 C11.58158789 4.51603608 9.43376919 4.68362656 6.48805904 6.83210659 Z " fill="#F6FEFE" transform="translate(0,0)"/>
<path d="M0 0 C3.63 0 7.26 0 11 0 C12.00777029 2.74737377 13.00641446 5.49749952 14 8.25 C14.28617188 9.02730469 14.57234375 9.80460937 14.8671875 10.60546875 C15.13789062 11.35957031 15.40859375 12.11367188 15.6875 12.890625 C16.06455078 13.92751465 16.06455078 13.92751465 16.44921875 14.98535156 C17 17 17 17 17 21 C17.71285156 20.45730469 18.42570312 19.91460938 19.16015625 19.35546875 C24.28139881 15.53004531 28.96075961 12.14728547 35 10 C34.21625 9.21625 33.4325 8.4325 32.625 7.625 C31.08333333 6.08333333 29.54166667 4.54166667 28 3 C28 2.01 28 1.02 28 0 C37.24 0 46.48 0 56 0 C56.75568871 12.30693048 55.41399759 19.52816721 49 30 C48.01 30 47.02 30 46 30 C44.68 26.04 43.36 22.08 42 18 C35.72883588 20.09038804 32.079907 21.78348833 28.6875 27.4375 C24.33053017 37.09396783 27.31510621 47.67189648 30.02734375 57.37109375 C31 61 31 61 32 67 C22.1 67 12.2 67 2 67 C1.71331452 59.22621604 1.42786475 51.45240643 1.14550781 43.6784668 C1.04921968 41.03749003 0.95222522 38.39653892 0.85449219 35.75561523 C0.7136059 31.94521613 0.5753154 28.13473001 0.4375 24.32421875 C0.39375244 23.15606125 0.35000488 21.98790375 0.30493164 20.78434753 C0.05712404 13.85087658 -0.04064699 6.93793388 0 0 Z " fill="#FAFCFC" transform="translate(47,11)"/>
<path d="M0 0 C3.63 0 7.26 0 11 0 C10.52431522 22.34341878 10.04883614 44.67477356 9 67 C-0.9 67 -10.8 67 -21 67 C-20.30569319 62.83415912 -19.59752134 59.3916549 -18.3203125 55.44921875 C-17.97347412 54.37317383 -17.62663574 53.29712891 -17.26928711 52.18847656 C-16.89167236 51.0331543 -16.51405762 49.87783203 -16.125 48.6875 C-15.73513916 47.48448242 -15.34527832 46.28146484 -14.94360352 45.04199219 C-10.0586597 29.99643806 -5.02988329 14.99757934 0 0 Z " fill="#F8FBFB" transform="translate(34,11)"/>
<path d="M0 0 C77.55 0 155.1 0 235 0 C235 29.7 235 59.4 235 90 C157.45 90 79.9 90 0 90 C0 87.03 0 84.06 0 81 C0.66 82.32 1.32 83.64 2 85 C4.58037673 87.83801029 6.06157693 88.00584455 9.94807434 88.37473011 C11.59267252 88.38994801 13.23747347 88.3884997 14.88208008 88.3742218 C16.24279617 88.38018341 16.24279617 88.38018341 17.63100147 88.38626546 C20.67733644 88.3959067 23.72320914 88.38405918 26.76953125 88.37231445 C28.95079726 88.37474181 31.13206216 88.37846058 33.31332397 88.38337708 C39.24297784 88.39279732 45.17246698 88.38335103 51.102108 88.37004495 C57.30090109 88.35874513 63.4996859 88.36283682 69.69848633 88.36479187 C80.77652056 88.36573193 91.85448306 88.35228237 102.9324981 88.33263048 C112.97812777 88.31514069 123.02369308 88.31044162 133.06933594 88.31567383 C145.97685395 88.32236055 158.88432591 88.31908702 171.7918396 88.30657005 C176.72318136 88.30191964 181.65450258 88.30105213 186.58584595 88.3031559 C192.39047792 88.30503647 198.19501256 88.29695265 203.99962234 88.2810955 C206.13296735 88.27684492 208.26632222 88.27600728 210.39966965 88.27878571 C213.30586068 88.28199703 216.21175899 88.27295208 219.11791992 88.26069641 C220.39203594 88.2663654 220.39203594 88.2663654 221.69189167 88.27214891 C227.19911152 88.33260662 227.19911152 88.33260662 232 86 C233.18419046 82.44742861 233.14760535 79.22772827 233.14526367 75.53100586 C233.14862228 74.77300186 233.1519809 74.01499786 233.15544128 73.23402405 C233.1649433 70.72761397 233.16689377 68.22127071 233.16796875 65.71484375 C233.17118097 63.97514315 233.17454501 62.23544282 233.17805481 60.4957428 C233.18404357 56.84993869 233.18589488 53.20415829 233.18530273 49.55834961 C233.18520092 44.87838331 233.19887379 40.19856809 233.21607494 35.51863766 C233.22717041 31.92679643 233.22922273 28.33499207 233.22869301 24.74313545 C233.22987604 23.01710042 233.23431581 21.29106453 233.24202538 19.56504631 C233.25177944 17.15645484 233.24896599 14.74819599 233.24291992 12.33959961 C233.24853943 11.62214569 233.25415894 10.90469177 233.25994873 10.16549683 C233.34765488 6.13481542 233.34765488 6.13481542 231 3 C228.01726138 2.79409855 225.12626888 2.71494603 222.14169312 2.7215271 C221.21301788 2.7157347 220.28434264 2.7099423 219.32752573 2.70397437 C216.1966688 2.68688636 213.06595849 2.68409032 209.93505859 2.68115234 C207.69833511 2.67186023 205.46161512 2.66169265 203.22489929 2.65071106 C197.13637635 2.62331611 191.04787665 2.60823361 184.95930815 2.59528303 C178.60245298 2.57969389 172.24564561 2.55289034 165.88882446 2.5272522 C155.21398182 2.48571989 144.53913926 2.45114682 133.86425781 2.421875 C122.86781948 2.39170244 111.87140726 2.35735816 100.875 2.31738281 C100.19747745 2.31492126 99.5199549 2.31245972 98.82190137 2.30992357 C95.42305821 2.29754922 92.02421536 2.28509264 88.62537265 2.27259517 C60.4169514 2.16897983 32.20849752 2.07994004 4 2 C3.67 3.32 3.34 4.64 3 6 C2.34 6 1.68 6 1 6 C0.67 6.66 0.34 7.32 0 8 C0 5.36 0 2.72 0 0 Z " fill="#4F76A2" transform="translate(0,0)"/>
<path d="M0 0 C0.8867263 -0.0055344 1.7734526 -0.01106879 2.68704939 -0.0167709 C5.66441165 -0.03040642 8.64093985 -0.01539239 11.61828613 -0.00050354 C13.75029355 -0.00428566 15.88229851 -0.00978481 18.01429749 -0.01687622 C23.80970299 -0.03086203 29.60481266 -0.019639 35.4002018 -0.00316501 C41.45886099 0.01066338 47.51750261 0.00422794 53.57617188 0.0007019 C63.75155416 -0.00200197 73.9268186 0.01149065 84.10217285 0.03465271 C95.87423942 0.06126349 107.64610891 0.06301017 119.41819525 0.05126435 C130.73231883 0.04049335 142.04637098 0.04666832 153.36048889 0.06081963 C158.180198 0.0665853 162.99985493 0.06649217 167.81956482 0.06175423 C173.49291868 0.05698962 179.16605614 0.06706482 184.83936882 0.08870888 C186.92433378 0.09428395 189.0093195 0.09473548 191.09428596 0.08975601 C193.93492541 0.08382151 196.77489915 0.09627311 199.61547852 0.11352539 C200.86041242 0.10451032 200.86041242 0.10451032 202.1304965 0.09531313 C205.42683166 0.13185251 207.87868704 0.2744096 210.82094193 1.82967758 C213.2203118 4.52716264 212.78618669 7.00671557 212.76184082 10.54295349 C212.76242493 11.25540222 212.76300903 11.96785095 212.76361084 12.70188904 C212.76082474 15.05606364 212.72971039 17.40897092 212.69836426 19.76292419 C212.69090368 21.3953075 212.68520988 23.02769976 212.68121338 24.66009521 C212.66594247 28.95605711 212.62664859 33.25147784 212.58239746 37.54722595 C212.54147588 41.93089985 212.52320905 46.31466121 212.50305176 50.69847107 C212.46015531 59.29963084 212.39188692 67.90035082 212.30773926 76.50120544 C211.64773926 76.17120544 210.98773926 75.84120544 210.30773926 75.50120544 C210.30773926 51.74120544 210.30773926 27.98120544 210.30773926 3.50120544 C138.36773926 3.50120544 66.42773926 3.50120544 -7.69226074 3.50120544 C-8.02226074 4.16120544 -8.35226074 4.82120544 -8.69226074 5.50120544 C-9.35226074 5.50120544 -10.01226074 5.50120544 -10.69226074 5.50120544 C-11.02226074 28.60120544 -11.35226074 51.70120544 -11.69226074 75.50120544 C-11.03226074 75.50120544 -10.37226074 75.50120544 -9.69226074 75.50120544 C-9.23319971 75.98826975 -8.77413868 76.47533406 -8.30116671 76.97715789 C-5.52450711 79.60736833 -1.76282257 78.92109907 1.86869812 78.89993286 C2.7533087 78.90657969 3.63791929 78.91322652 4.54933625 78.92007476 C7.5251533 78.93878558 10.50057112 78.93609405 13.47644043 78.93357849 C15.60494051 78.94259071 17.73343537 78.95291659 19.86192322 78.96446228 C25.65083072 78.99212176 31.43963999 79.00132894 37.22860503 79.00731635 C43.27449828 79.01667678 49.32031747 79.0428782 55.36616516 79.06732178 C66.81957445 79.11105477 78.27296943 79.13955995 89.72643691 79.16264516 C102.76378579 79.18966043 115.80106042 79.23357416 128.83835638 79.27893388 C155.66144379 79.37187754 182.4845545 79.44351372 209.30773926 79.50120544 C209.30773926 79.83120544 209.30773926 80.16120544 209.30773926 80.50120544 C180.8055302 80.5945462 152.30334397 80.66513431 123.80101299 80.70845413 C110.56760748 80.72910072 97.3342968 80.75726139 84.10095215 80.80296326 C72.57004145 80.8427668 61.03919941 80.86862299 49.50822192 80.87755942 C43.3996737 80.88278515 37.29132194 80.89511106 31.18283653 80.92412567 C25.43814368 80.9511923 19.69372898 80.95966816 13.94897842 80.95363617 C11.83616056 80.95474033 9.72333379 80.962746 7.61057091 80.97802734 C4.73423088 80.99781821 1.85895237 80.99318456 -1.01741028 80.98222351 C-1.86078943 80.99387488 -2.70416858 81.00552624 -3.57310468 81.01753068 C-9.18726862 80.95937492 -9.18726862 80.95937492 -11.71020889 78.67036057 C-13.1221338 75.55170227 -13.08163519 72.91915406 -13.09631348 69.50120544 C-13.10317673 68.80478943 -13.11003998 68.10837341 -13.11711121 67.39085388 C-13.13537857 65.09409569 -13.13154252 62.79802053 -13.12585449 60.50120544 C-13.13041598 58.90224485 -13.13572145 57.30328622 -13.14173889 55.70433044 C-13.15066955 52.35529102 -13.14824706 49.00649006 -13.13830566 45.65745544 C-13.12680901 41.36645532 -13.14703762 37.07627726 -13.1762228 32.78538513 C-13.19457045 29.48422522 -13.19429539 26.18326292 -13.18858528 22.88206482 C-13.18843193 21.30002183 -13.19448808 19.71796556 -13.20687675 18.13597107 C-13.22176083 15.92385784 -13.21113153 13.71327099 -13.19396973 11.50120544 C-13.19380356 10.24308044 -13.19363739 8.98495544 -13.19346619 7.68870544 C-11.99373808 0.05883354 -6.68125091 -0.07732153 0 0 Z " fill="#6182AA" transform="translate(17.6922607421875,4.4987945556640625)"/>
<path d="M0 0 C1.0342579 3.40268063 1.12085412 6.50660734 1.11352539 10.05371094 C1.11344986 11.27467468 1.11337433 12.49563843 1.11329651 13.75360107 C1.10813522 15.06725647 1.10297394 16.38091187 1.09765625 17.734375 C1.09579021 19.0962926 1.09436718 20.45821088 1.09336853 21.82012939 C1.08955803 25.39741889 1.07974032 28.97466752 1.06866455 32.55194092 C1.05841884 36.20519457 1.05386415 39.85845486 1.04882812 43.51171875 C1.03811669 50.67449776 1.02105794 57.83724314 1 65 C2.97610092 64.64982588 2.97610092 64.64982588 5 64 C6.07918899 61.99592877 6.07918899 61.99592877 6.625 59.5 C6.86476563 58.60410156 7.10453125 57.70820312 7.3515625 56.78515625 C8.12893483 53.44620159 8.80464906 50.09536129 9.375 46.71484375 C9.58125 46.14894531 9.7875 45.58304688 10 45 C11.485 44.505 11.485 44.505 13 44 C12.40192462 46.50159449 11.79671394 49.00111517 11.1875 51.5 C10.9390332 52.54414062 10.9390332 52.54414062 10.68554688 53.609375 C10.51474609 54.30546875 10.34394531 55.0015625 10.16796875 55.71875 C10.01610107 56.34716797 9.8642334 56.97558594 9.70776367 57.62304688 C8.65952406 61.14345422 7.28973114 64.56071697 6 68 C15.57 68 25.14 68 35 68 C35 68.33 35 68.66 35 69 C26.42 69 17.84 69 9 69 C9 69.99 9 70.98 9 72 C78.63 72 148.26 72 220 72 C220.33 49.56 220.66 27.12 221 4 C221.33 4 221.66 4 222 4 C222.02314123 12.83155316 222.0409242 21.66309594 222.05181217 30.49467278 C222.05703709 34.59525496 222.06412768 38.69581645 222.07543945 42.79638672 C222.08628218 46.75154957 222.09227979 50.70669248 222.09487724 54.66186905 C222.09672898 56.17298827 222.10034482 57.68410637 222.10573006 59.19521713 C222.11295886 61.30708958 222.11399016 63.41887895 222.11352539 65.53076172 C222.115746 66.73433319 222.11796661 67.93790466 222.12025452 69.177948 C222 72 222 72 221 74 C192.75853387 74.04667069 164.51707349 74.08196462 136.27557659 74.10362434 C123.1632782 74.11394755 110.05100374 74.12802779 96.9387207 74.15087891 C85.5132859 74.17078086 74.08786841 74.18370883 62.66241676 74.18817699 C56.60982451 74.19078979 50.55728183 74.19695263 44.50470543 74.21146011 C38.81259717 74.22499358 33.1205591 74.22923125 27.42843628 74.22621536 C25.33498059 74.22676743 23.24152265 74.23076999 21.14808083 74.23841095 C18.29827408 74.24830593 15.44873519 74.24598887 12.59892273 74.24050903 C11.34552685 74.24924756 11.34552685 74.24924756 10.06680983 74.25816262 C6.18546615 74.23787584 4.30560233 74.20373489 1 72 C1 71.34 1 70.68 1 70 C0.34 70 -0.32 70 -1 70 C-1.02314123 61.16844684 -1.0409242 52.33690406 -1.05181217 43.50532722 C-1.05703709 39.40474504 -1.06412768 35.30418355 -1.07543945 31.20361328 C-1.08628218 27.24845043 -1.09227979 23.29330752 -1.09487724 19.33813095 C-1.09672898 17.82701173 -1.10034482 16.31589363 -1.10573006 14.80478287 C-1.11295886 12.69291042 -1.11399016 10.58112105 -1.11352539 8.46923828 C-1.115746 7.26566681 -1.11796661 6.06209534 -1.12025452 4.822052 C-1 2 -1 2 0 0 Z " fill="#25548D" transform="translate(7,10)"/>
<path d="M0 0 C1.65 0 3.3 0 5 0 C5 0.66 5 1.32 5 2 C5.66 2.33 6.32 2.66 7 3 C6.0409375 3.1546875 6.0409375 3.1546875 5.0625 3.3125 C4.381875 3.539375 3.70125 3.76625 3 4 C1.84671342 7.45985975 1.83990916 10.20733184 1.79467773 13.8581543 C1.78477814 14.55109589 1.77487854 15.24403748 1.76467896 15.95797729 C1.7331104 18.24668978 1.70832497 20.53542301 1.68359375 22.82421875 C1.66302021 24.41177406 1.64202363 25.99932394 1.62062073 27.58686829 C1.56544139 31.76416628 1.51601388 35.94151337 1.46777344 40.11889648 C1.4175282 44.38204312 1.36185791 48.6451185 1.30664062 52.90820312 C1.19910966 61.27207516 1.09765347 69.63600683 1 78 C0.67 78 0.34 78 0 78 C-0.495 71.565 -0.495 71.565 -1 65 C-1.33 65 -1.66 65 -2 65 C-2.33 69.62 -2.66 74.24 -3 79 C-3.33 79 -3.66 79 -4 79 C-4.02313912 69.51652748 -4.04092312 60.03306464 -4.05181217 50.54957008 C-4.05703755 46.14631785 -4.06412897 41.74308489 -4.07543945 37.33984375 C-4.08628054 33.09290756 -4.09227944 28.84598994 -4.09487724 24.59904099 C-4.09672928 22.97627851 -4.10034568 21.35351708 -4.10573006 19.73076248 C-4.11295668 17.46322661 -4.11399025 15.19576813 -4.11352539 12.92822266 C-4.115746 11.63582672 -4.11796661 10.34343079 -4.12025452 9.01187134 C-4 6 -4 6 -3 4 C-2.34 4 -1.68 4 -1 4 C-0.67 2.68 -0.34 1.36 0 0 Z " fill="#E6F1F6" transform="translate(4,2)"/>
<path d="M0 0 C0.33 0 0.66 0 1 0 C1 27.06 1 54.12 1 82 C-76.55 82 -154.1 82 -234 82 C-234 79.03 -234 76.06 -234 73 C-233.34 74.32 -232.68 75.64 -232 77 C-229.41962327 79.83801029 -227.93842307 80.00584455 -224.05192566 80.37473011 C-222.40732748 80.38994801 -220.76252653 80.3884997 -219.11791992 80.3742218 C-217.75720383 80.38018341 -217.75720383 80.38018341 -216.36899853 80.38626546 C-213.32266356 80.3959067 -210.27679086 80.38405918 -207.23046875 80.37231445 C-205.04920274 80.37474181 -202.86793784 80.37846058 -200.68667603 80.38337708 C-194.75702216 80.39279732 -188.82753302 80.38335103 -182.897892 80.37004495 C-176.69909891 80.35874513 -170.5003141 80.36283682 -164.30151367 80.36479187 C-153.22347944 80.36573193 -142.14551694 80.35228237 -131.0675019 80.33263048 C-121.02187223 80.31514069 -110.97630692 80.31044162 -100.93066406 80.31567383 C-88.02314605 80.32236055 -75.11567409 80.31908702 -62.2081604 80.30657005 C-57.27681864 80.30191964 -52.34549742 80.30105213 -47.41415405 80.3031559 C-41.60952208 80.30503647 -35.80498744 80.29695265 -30.00037766 80.2810955 C-27.86703265 80.27684492 -25.73367778 80.27600728 -23.60033035 80.27878571 C-20.69413932 80.28199703 -17.78824101 80.27295208 -14.88208008 80.26069641 C-13.60796406 80.2663654 -13.60796406 80.2663654 -12.30810833 80.27214891 C-6.80088848 80.33260662 -6.80088848 80.33260662 -2 78 C-0.84233092 74.52699275 -0.82480443 71.38915053 -0.79467773 67.7746582 C-0.78477814 67.04270233 -0.77487854 66.31074646 -0.76467896 65.55661011 C-0.73309989 63.13803335 -0.70832077 60.71943696 -0.68359375 58.30078125 C-0.66302112 56.62354523 -0.64202456 54.94631436 -0.62062073 53.26908875 C-0.56543199 48.85505341 -0.51600861 44.44097154 -0.46777344 40.02685547 C-0.41753507 35.52241881 -0.36186119 31.01804972 -0.30664062 26.51367188 C-0.19909817 17.67583898 -0.09764449 8.83794741 0 0 Z " fill="#A2AAB4" transform="translate(234,8)"/>
<path d="M0 0 C9.24 0 18.48 0 28 0 C28.061875 2.495625 28.12375 4.99125 28.1875 7.5625 C28.21481201 8.33408447 28.24212402 9.10566895 28.27026367 9.90063477 C28.33065194 14.995976 27.28103251 18.44392195 25 23 C23 20 23 20 23.2421875 18.08984375 C23.45101562 17.37957031 23.65984375 16.66929688 23.875 15.9375 C25.17921678 10.85439871 25.14745673 6.23471375 25 1 C18.73 1 12.46 1 6 1 C6.33 3.31 6.66 5.62 7 8 C5.82512964 7.24172908 4.66027408 6.46792245 3.5 5.6875 C2.52546875 5.04361328 2.52546875 5.04361328 1.53125 4.38671875 C1.0259375 3.92910156 0.520625 3.47148437 0 3 C0 2.01 0 1.02 0 0 Z " fill="#E5F8FD" transform="translate(75,11)"/>
<path d="M0 0 C0.33 0 0.66 0 1 0 C1 27.06 1 54.12 1 82 C-0.98 82 -2.96 82 -5 82 C-4.35125916 81.00338852 -3.70251831 80.00677704 -3.03411865 78.97996521 C-0.80000916 75.04998113 -0.48480218 71.87192265 -0.45410156 67.32055664 C-0.44376389 66.58801666 -0.43342621 65.85547668 -0.42277527 65.10073853 C-0.39351393 62.70364894 -0.39185172 60.30740981 -0.390625 57.91015625 C-0.37563199 56.23862616 -0.35890249 54.56711082 -0.34051514 52.89561462 C-0.29695491 48.51446831 -0.27686782 44.13352181 -0.26177979 39.75219727 C-0.24216767 35.27413168 -0.20020235 30.79628059 -0.16015625 26.31835938 C-0.08497695 17.54562923 -0.03461139 8.77298359 0 0 Z " fill="#8195B6" transform="translate(234,8)"/>
<path d="M0 0 C0.66 1.32 1.32 2.64 2 4 C5.30126326 7.32200427 8.02735994 7.38935489 12.60449219 7.43237305 C13.25856552 7.4425647 13.91263885 7.45275635 14.58653259 7.46325684 C16.74006753 7.49335711 18.89315746 7.50264769 21.046875 7.51171875 C22.54332962 7.52856774 24.0397701 7.54671828 25.53619385 7.56611633 C29.46852197 7.61359902 33.40079278 7.64341933 37.33331299 7.66955566 C41.34862587 7.69937008 45.36374133 7.74589734 49.37890625 7.79101562 C57.25250713 7.87702896 65.12612602 7.94438276 73 8 C73 8.33 73 8.66 73 9 C48.91 9 24.82 9 0 9 C0 6.03 0 3.06 0 0 Z " fill="#B0B7BE" transform="translate(0,81)"/>
<path d="M0 0 C0.94921875 1.9609375 0.94921875 1.9609375 1.6875 4.375 C2.06455078 5.56222656 2.06455078 5.56222656 2.44921875 6.7734375 C3 9 3 9 3 12 C5.31 11.34 7.62 10.68 10 10 C9.67 11.32 9.34 12.64 9 14 C8.01 14 7.02 14 6 14 C6 14.66 6 15.32 6 16 C4.68 16 3.36 16 2 16 C-1.61598567 11.84831275 -1.60647781 7.27319735 -2 2 C-6.455 3.485 -6.455 3.485 -11 5 C-4.83050847 -1.61016949 -4.83050847 -1.61016949 0 0 Z " fill="#194E8F" transform="translate(90,29)"/>
<path d="M0 0 C0.66 0 1.32 0 2 0 C1.2133771 4.6830555 -0.24501039 9.08276255 -1.72265625 13.58203125 C-1.98759384 14.39621017 -2.25253143 15.2103891 -2.52549744 16.04924011 C-3.36851836 18.63786508 -4.21545129 21.22519055 -5.0625 23.8125 C-5.63632668 25.5721812 -6.20989727 27.33194593 -6.78320312 29.09179688 C-8.18583726 33.39550457 -9.59198018 37.69805144 -11 42 C-11.33 42 -11.66 42 -12 42 C-11.71082987 35.33462858 -10.39556419 29.78383556 -7.96875 23.578125 C-6.94271109 20.84753757 -6.28463081 18.09911491 -5.63671875 15.2578125 C-4.16566804 10.04144865 -2.00834829 5.02853619 0 0 Z " fill="#2A528B" transform="translate(32,11)"/>
<path d="M0 0 C0.33 0 0.66 0 1 0 C1 7.92 1 15.84 1 24 C-8.9 24 -18.8 24 -29 24 C-28.67 22.02 -28.34 20.04 -28 18 C-26 21 -26 21 -26 23 C-18.41 22.67 -10.82 22.34 -3 22 C-2.67 20.35 -2.34 18.7 -2 17 C-1.34 17 -0.68 17 0 17 C0 11.39 0 5.78 0 0 Z " fill="#DBF0F9" transform="translate(42,54)"/>
<path d="M0 0 C5.51754805 -0.07402793 11.03480856 -0.12854366 16.55273438 -0.16479492 C18.43071526 -0.17990325 20.30866076 -0.20039094 22.18652344 -0.22631836 C24.88225019 -0.26261246 27.57751146 -0.27970545 30.2734375 -0.29296875 C31.11619232 -0.30845261 31.95894714 -0.32393646 32.82723999 -0.33988953 C35.19287109 -0.34057617 35.19287109 -0.34057617 39 0 C39.66 0.99 40.32 1.98 41 3 C39.68 3.99 38.36 4.98 37 6 C36.01 5.34 35.02 4.68 34 4 C32.0103005 3.60986284 30.00980131 3.26797351 28 3 C28 2.67 28 2.34 28 2 C14.14 1.505 14.14 1.505 0 1 C0 0.67 0 0.34 0 0 Z " fill="#F4FEFE" transform="translate(192,2)"/>
<path d="M0 0 C0.66 0.66 1.32 1.32 2 2 C2.66 1.34 3.32 0.68 4 0 C4 8.58 4 17.16 4 26 C3.67 26 3.34 26 3 26 C3 23.36 3 20.72 3 18 C2.34 18 1.68 18 1 18 C-0.2039337 14.24600202 -0.09877617 10.66782588 -0.0625 6.75 C-0.05347656 5.48671875 -0.04445312 4.2234375 -0.03515625 2.921875 C-0.02355469 1.95765625 -0.01195312 0.9934375 0 0 Z " fill="#305B96" transform="translate(44,22)"/>
<path d="M0 0 C3.63 0 7.26 0 11 0 C11.33 1.65 11.66 3.3 12 5 C11.01 5 10.02 5 9 5 C8.67 4.01 8.34 3.02 8 2 C5.69 1.67 3.38 1.34 1 1 C1.16265854 1.58247498 1.32531708 2.16494995 1.49290466 2.76507568 C2.28048015 6.23616186 2.12148695 9.72510343 2.09765625 13.265625 C2.0962413 14.05902283 2.09482635 14.85242065 2.09336853 15.66986084 C2.08778415 18.19661272 2.07523454 20.72327504 2.0625 23.25 C2.05748298 24.96614455 2.05292043 26.68229049 2.04882812 28.3984375 C2.03781984 32.59899269 2.02056596 36.79948117 2 41 C1.67 41 1.34 41 1 41 C0.67 27.47 0.34 13.94 0 0 Z " fill="#D4E2EE" transform="translate(47,11)"/>
<path d="M0 0 C2.70019567 5.40039133 2.93367998 7.75941551 2.0625 13.625 C1.96259766 14.33140625 1.86269531 15.0378125 1.75976562 15.765625 C1.51208041 17.51121607 1.25676129 19.25572084 1 21 C5.08359816 20.86105043 9.16679956 20.71265062 13.25 20.5625 C14.98830078 20.50352539 14.98830078 20.50352539 16.76171875 20.44335938 C17.87675781 20.40146484 18.99179688 20.35957031 20.140625 20.31640625 C21.68024902 20.26141968 21.68024902 20.26141968 23.25097656 20.20532227 C25.63610887 20.02717872 27.71299499 19.67222637 30 19 C30 19.99 30 20.98 30 22 C20.1 22 10.2 22 0 22 C0 14.74 0 7.48 0 0 Z " fill="#EBFAFD" transform="translate(49,56)"/>
<path d="M0 0 C0.66 0 1.32 0 2 0 C2.92159579 6.21170074 3.12177385 12.22609106 3.0625 18.5 C3.05798828 19.4178125 3.05347656 20.335625 3.04882812 21.28125 C3.03716326 23.52090391 3.02079614 25.76041545 3 28 C1.68 27.34 0.36 26.68 -1 26 C-0.83628906 24.8759375 -0.67257813 23.751875 -0.50390625 22.59375 C0.0849631 17.88279524 0.11269251 13.24126159 0.0625 8.5 C0.05798828 7.67757812 0.05347656 6.85515625 0.04882812 6.0078125 C0.03718489 4.00517604 0.01925556 2.00257773 0 0 Z " fill="#0D4F9C" transform="translate(45,40)"/>
<path d="M0 0 C5.61 0 11.22 0 17 0 C17.33 0.66 17.66 1.32 18 2 C17.01 2 16.02 2 15 2 C15 2.66 15 3.32 15 4 C13.9275 3.979375 12.855 3.95875 11.75 3.9375 C8.85209576 3.9857984 6.71387859 4.13155885 4 5 C2.68 3.35 1.36 1.7 0 0 Z " fill="#08529A" transform="translate(57,8)"/>
<path d="M0 0 C0.86963379 0.16298584 1.73926758 0.32597168 2.63525391 0.49389648 C5.77223578 0.96574117 8.66904654 1.11468255 11.8359375 1.09765625 C13.43115234 1.09282227 13.43115234 1.09282227 15.05859375 1.08789062 C16.15300781 1.07951172 17.24742188 1.07113281 18.375 1.0625 C19.49261719 1.05798828 20.61023438 1.05347656 21.76171875 1.04882812 C24.50786804 1.03709244 27.25390586 1.02067363 30 1 C29.67 1.66 29.34 2.32 29 3 C19.76 3 10.52 3 1 3 C1.66 4.65 2.32 6.3 3 8 C1.68 7.67 0.36 7.34 -1 7 C-1.125 2.25 -1.125 2.25 0 0 Z " fill="#224F7F" transform="translate(74,8)"/>
<path d="M0 0 C0.33 0 0.66 0 1 0 C1 1.65 1 3.3 1 5 C0.01 5 -0.98 5 -2 5 C-2.33 11.27 -2.66 17.54 -3 24 C-5.7241562 21.2758438 -5.3308802 19.6781266 -5.375 15.875 C-5.30134893 9.8356121 -4.48016874 4.48016874 0 0 Z " fill="#215184" transform="translate(78,34)"/>
<path d="M0 0 C0.33 0 0.66 0 1 0 C1.125 6.625 1.125 6.625 0 10 C-0.66 10 -1.32 10 -2 10 C-1.79761719 10.57363281 -1.59523438 11.14726562 -1.38671875 11.73828125 C-0.90436493 14.55932024 -1.48478514 15.68689216 -2.8125 18.1875 C-3.34810547 19.22970703 -3.34810547 19.22970703 -3.89453125 20.29296875 C-5 22 -5 22 -7 23 C-4.97810834 15.21878058 -2.61369593 7.60227292 0 0 Z " fill="#CCDFF1" transform="translate(31,19)"/>
<path d="M0 0 C0.66 0 1.32 0 2 0 C1.91244571 3.02213254 1.80548937 6.04152681 1.6875 9.0625 C1.66494141 9.91005859 1.64238281 10.75761719 1.61914062 11.63085938 C1.38626894 17.11392914 0.48225886 21.09537592 -2 26 C-2.66 26 -3.32 26 -4 26 C-3.59243753 23.07913561 -3.21699127 20.48144938 -2 17.78125 C-0.73782293 14.27082004 -0.544467 10.87693783 -0.375 7.1875 C-0.33632812 6.49462891 -0.29765625 5.80175781 -0.2578125 5.08789062 C-0.16426432 3.39232985 -0.08107636 1.69620288 0 0 Z " fill="#214D88" transform="translate(103,12)"/>
<path d="M0 0 C1.65 0 3.3 0 5 0 C5 0.66 5 1.32 5 2 C5.66 2.33 6.32 2.66 7 3 C6.38125 3.0825 5.7625 3.165 5.125 3.25 C2.81562433 3.81258459 2.81562433 3.81258459 1.75 6.0625 C1.5025 6.701875 1.255 7.34125 1 8 C-0.32 7.67 -1.64 7.34 -3 7 C-3 6.01 -3 5.02 -3 4 C-2.34 4 -1.68 4 -1 4 C-0.67 2.68 -0.34 1.36 0 0 Z " fill="#E0F3F8" transform="translate(4,2)"/>
<path d="M0 0 C1.65 1.65 3.3 3.3 5 5 C3.25048432 5.95921722 1.50036756 6.91733817 -0.25 7.875 C-1.71179688 8.67550781 -1.71179688 8.67550781 -3.203125 9.4921875 C-5.45130408 10.70419466 -7.7072805 11.87547567 -10 13 C-10 12.34 -10 11.68 -10 11 C-9.34 11 -8.68 11 -8 11 C-7.67 10.01 -7.34 9.02 -7 8 C-5.68352881 7.30062468 -4.34977849 6.63270867 -3 6 C-2.67 5.34 -2.34 4.68 -2 4 C-1.01 4 -0.02 4 1 4 C0.67 2.68 0.34 1.36 0 0 Z " fill="#2E598E" transform="translate(78,16)"/>
<path d="M0 0 C0.33 0.99 0.66 1.98 1 3 C-0.4375 5.6875 -0.4375 5.6875 -2 8 C-3.32 7.67 -4.64 7.34 -6 7 C-5.8125 4.625 -5.8125 4.625 -5 2 C-2.4375 0.6875 -2.4375 0.6875 0 0 Z " fill="#E6F2FA" transform="translate(233,80)"/>
<path d="M0 0 C4.29 0 8.58 0 13 0 C13 0.33 13 0.66 13 1 C8.545 1.495 8.545 1.495 4 2 C3.67 3.32 3.34 4.64 3 6 C2.34 6 1.68 6 1 6 C0.67 6.66 0.34 7.32 0 8 C0 5.36 0 2.72 0 0 Z " fill="#265590" transform="translate(0,0)"/>
<path d="M0 0 C0.73046875 2.06640625 0.73046875 2.06640625 1.1875 4.5625 C1.34605469 5.38878906 1.50460938 6.21507812 1.66796875 7.06640625 C1.77753906 7.70449219 1.88710937 8.34257813 2 9 C1.34 9 0.68 9 0 9 C0 7.35 0 5.7 0 4 C-0.66 4 -1.32 4 -2 4 C-2 3.34 -2 2.68 -2 2 C-6.455 3.485 -6.455 3.485 -11 5 C-4.83050847 -1.61016949 -4.83050847 -1.61016949 0 0 Z " fill="#325C90" transform="translate(90,29)"/>
<path d="M0 0 C4.29 0 8.58 0 13 0 C14.61737724 4.85213172 15.22942798 7.18201244 15 12 C12.54176828 8.31265242 11.98757384 5.30300029 11 1 C7.37 1 3.74 1 0 1 C0 0.67 0 0.34 0 0 Z " fill="#235183" transform="translate(47,10)"/>
<path d="M0 0 C0.66 0 1.32 0 2 0 C2 0.66 2 1.32 2 2 C2.53625 1.67 3.0725 1.34 3.625 1 C6.5391061 -0.22699204 8.86867708 -0.14233286 12 0 C11 2 11 2 8.25 2.9375 C7.1775 3.288125 6.105 3.63875 5 4 C3.30792999 4.9563874 1.63183107 5.94410931 0 7 C-0.38133299 5.0085944 -0.71325582 3.00720923 -1 1 C-0.67 0.67 -0.34 0.34 0 0 Z " fill="#E2F0F7" transform="translate(78,27)"/>
<path d="M0 0 C3.63 0 7.26 0 11 0 C11.33 1.65 11.66 3.3 12 5 C11.01 5 10.02 5 9 5 C8.67 4.01 8.34 3.02 8 2 C5.69 1.67 3.38 1.34 1 1 C1 4.3 1 7.6 1 11 C0.67 11 0.34 11 0 11 C0 7.37 0 3.74 0 0 Z " fill="#CEE7F8" transform="translate(47,11)"/>
<path d="M0 0 C0.33 0 0.66 0 1 0 C1 4.95 1 9.9 1 15 C-0.98 15 -2.96 15 -5 15 C-4.360625 14.01 -3.72125 13.02 -3.0625 12 C-0.74593674 7.99717514 -0.32145895 4.58078998 0 0 Z " fill="#466A95" transform="translate(234,75)"/>
<path d="M0 0 C2.76324179 5.52648358 2.9002992 8.09909021 2.0625 14.125 C1.96259766 14.87910156 1.86269531 15.63320312 1.75976562 16.41015625 C1.51201596 18.27417753 1.25671943 20.13719288 1 22 C0.67 22 0.34 22 0 22 C0 14.74 0 7.48 0 0 Z " fill="#C3D8EC" transform="translate(49,56)"/>
<path d="M0 0 C1.65 0 3.3 0 5 0 C5.66 1.32 6.32 2.64 7 4 C5.68 3.67 4.36 3.34 3 3 C4.32 4.65 5.64 6.3 7 8 C4.08482708 6.92598892 2.22189824 6.22189824 0 4 C0 2.68 0 1.36 0 0 Z " fill="#E0EEF9" transform="translate(1,81)"/>
<path d="M0 0 C1.65 0 3.3 0 5 0 C5.1875 3.3125 5.1875 3.3125 5 7 C4.01 7.99 3.02 8.98 2 10 C2 7.03 2 4.06 2 1 C1.34 0.67 0.68 0.34 0 0 Z " fill="#FBFDF1" transform="translate(96,15)"/>
<path d="M0 0 C0.66 1.32 1.32 2.64 2 4 C3.96918846 5.37843192 5.96664791 6.71810412 8 8 C8 8.33 8 8.66 8 9 C5.36 9 2.72 9 0 9 C0 6.03 0 3.06 0 0 Z " fill="#2C598A" transform="translate(0,81)"/>
<path d="M0 0 C0.66 0 1.32 0 2 0 C1.875 1.8125 1.875 1.8125 1 4 C-1.875 5.625 -1.875 5.625 -5 7 C-5.99 7.66 -6.98 8.32 -8 9 C-8.99 8.67 -9.98 8.34 -11 8 C-7.43258745 5.51110752 -4.10958767 3.45044271 0 2 C0 1.34 0 0.68 0 0 Z " fill="#D2E4F2" transform="translate(82,19)"/>
<path d="M0 0 C2.875 -0.1875 2.875 -0.1875 6 0 C6.66 0.99 7.32 1.98 8 3 C6.68 3.99 5.36 4.98 4 6 C3.01 5.01 2.02 4.02 1 3 C1.33 2.34 1.66 1.68 2 1 C1.34 0.67 0.68 0.34 0 0 Z " fill="#DAEFF8" transform="translate(225,2)"/>
<path d="M0 0 C2.97 0.495 2.97 0.495 6 1 C6.33 3.31 6.66 5.62 7 8 C5.82512964 7.24172908 4.66027408 6.46792245 3.5 5.6875 C2.52546875 5.04361328 2.52546875 5.04361328 1.53125 4.38671875 C1.0259375 3.92910156 0.520625 3.47148437 0 3 C0 2.01 0 1.02 0 0 Z " fill="#D7E9F6" transform="translate(75,11)"/>
<path d="M0 0 C0.99 0.33 1.98 0.66 3 1 C3 2.32 3 3.64 3 5 C1.35 5 -0.3 5 -2 5 C-2 3.68 -2 2.36 -2 1 C-1.34 0.67 -0.68 0.34 0 0 Z " fill="#0F50A1" transform="translate(11,77)"/>
<path d="M0 0 C2.97 0.495 2.97 0.495 6 1 C5.34 2.32 4.68 3.64 4 5 C3.01 5 2.02 5 1 5 C0.67 3.35 0.34 1.7 0 0 Z " fill="#DAF1FA" transform="translate(92,36)"/>
<path d="M0 0 C1.98 0.495 1.98 0.495 4 1 C4 1.66 4 2.32 4 3 C3.01 3 2.02 3 1 3 C1.66 4.65 2.32 6.3 3 8 C1.68 7.67 0.36 7.34 -1 7 C-1.125 2.25 -1.125 2.25 0 0 Z " fill="#164B85" transform="translate(74,8)"/>
<path d="M0 0 C0.33 0 0.66 0 1 0 C1 1.65 1 3.3 1 5 C0.01 5 -0.98 5 -2 5 C-2 6.32 -2 7.64 -2 9 C-2.66 9 -3.32 9 -4 9 C-3.47181039 5.19703482 -2.56226812 2.88255163 0 0 Z " fill="#2E578B" transform="translate(78,34)"/>
<path d="M0 0 C0.33 0 0.66 0 1 0 C0.88637738 1.4800841 0.75877092 2.95910074 0.625 4.4375 C0.52058594 5.67306641 0.52058594 5.67306641 0.4140625 6.93359375 C0.27742188 7.61550781 0.14078125 8.29742187 0 9 C-0.99 9.495 -0.99 9.495 -2 10 C-2.17942163 6.05272412 -2.09350689 3.4019487 0 0 Z " fill="#1C4D83" transform="translate(28,22)"/>
<path d="M0 0 C1.32 0 2.64 0 4 0 C3.67 0.99 3.34 1.98 3 3 C2.34 3 1.68 3 1 3 C1 4.98 1 6.96 1 9 C0.67 9 0.34 9 0 9 C0 6.03 0 3.06 0 0 Z " fill="#124CA4" transform="translate(224,14)"/>
</svg>
