<?xml version="1.0" encoding="UTF-8"?>
<!DOCTYPE svg PUBLIC "-//W3C//DTD SVG 1.1//EN" "http://www.w3.org/Graphics/SVG/1.1/DTD/svg11.dtd">
<svg xmlns="http://www.w3.org/2000/svg" version="1.1" width="500px" height="500px" style="shape-rendering:geometricPrecision; text-rendering:geometricPrecision; image-rendering:optimizeQuality; fill-rule:evenodd; clip-rule:evenodd" xmlns:xlink="http://www.w3.org/1999/xlink">
<g><path style="opacity:1" fill="#8694bd" d="M 225.5,-0.5 C 225.833,-0.5 226.167,-0.5 226.5,-0.5C 226.5,-0.166667 226.5,0.166667 226.5,0.5C 224.393,1.46822 222.059,1.80155 219.5,1.5C 221.5,0.833333 223.5,0.166667 225.5,-0.5 Z"/></g>
<g><path style="opacity:1" fill="#53609b" d="M 253.5,-0.5 C 260.167,-0.5 266.833,-0.5 273.5,-0.5C 273.842,0.338246 274.508,0.67158 275.5,0.5C 276.568,1.43448 277.901,1.76781 279.5,1.5C 294.74,2.31548 309.407,5.31548 323.5,10.5C 314.245,8.95861 304.912,7.62528 295.5,6.5C 292.94,5.25254 290.273,4.25254 287.5,3.5C 280.141,2.80159 272.808,2.13492 265.5,1.5C 264.5,2.16667 263.5,2.83333 262.5,3.5C 261.304,3.15431 261.304,2.65431 262.5,2C 259.203,1.79634 256.203,0.963007 253.5,-0.5 Z"/></g>
<g><path style="opacity:1" fill="#c0d0e8" d="M 275.5,-0.5 C 276.167,-0.5 276.833,-0.5 277.5,-0.5C 278.167,0.166667 278.833,0.833333 279.5,1.5C 277.901,1.76781 276.568,1.43448 275.5,0.5C 275.5,0.166667 275.5,-0.166667 275.5,-0.5 Z"/></g>
<g><path style="opacity:0.767" fill="#fdfceb" d="M 334.5,10.5 C 333.448,10.6495 332.448,10.4828 331.5,10C 332.749,9.25988 333.749,9.42654 334.5,10.5 Z"/></g>
<g><path style="opacity:1" fill="#7784aa" d="M 181.5,8.5 C 178.921,10.0252 176.254,11.3586 173.5,12.5C 172.167,12.5 170.833,12.5 169.5,12.5C 173.216,10.5947 177.216,9.26135 181.5,8.5 Z"/></g>
<g><path style="opacity:1" fill="#3b4c84" d="M 190.5,6.5 C 187.522,7.7454 184.689,9.41207 182,11.5C 179.23,12.3479 176.397,12.6813 173.5,12.5C 176.254,11.3586 178.921,10.0252 181.5,8.5C 184.402,7.42222 187.402,6.75556 190.5,6.5 Z"/></g>
<g><path style="opacity:0.133" fill="#f9feee" d="M 334.5,10.5 C 335.833,11.1667 335.833,11.1667 334.5,10.5 Z"/></g>
<g><path style="opacity:1" fill="#515c97" d="M 323.5,10.5 C 334.369,13.3411 344.702,17.3411 354.5,22.5C 350.055,22.2797 345.722,21.4464 341.5,20C 338.49,17.2531 334.823,15.7531 330.5,15.5C 328.001,14.0822 325.668,12.4156 323.5,10.5 Z"/></g>
<g><path style="opacity:1" fill="#36488d" d="M 227.5,-0.5 C 234.167,-0.5 240.833,-0.5 247.5,-0.5C 243.744,1.04655 239.411,2.54655 234.5,4C 225.517,3.61583 216.517,3.61583 207.5,4C 202.68,5.816 197.68,6.816 192.5,7C 186.605,12.4379 179.605,14.7713 171.5,14C 171.043,14.414 170.709,14.914 170.5,15.5C 166.675,16.2652 162.842,16.9319 159,17.5C 154.343,19.9197 154.509,21.253 159.5,21.5C 159.5,22.8333 159.5,24.1667 159.5,25.5C 156.955,25.8495 154.955,25.0162 153.5,23C 150.12,22.0623 147.12,22.729 144.5,25C 146.618,25.2602 148.284,26.2602 149.5,28C 146.647,28.6644 143.981,28.1644 141.5,26.5C 138.868,26.6488 136.868,27.8155 135.5,30C 132.883,30.8215 130.216,31.3215 127.5,31.5C 128.167,30.8333 128.833,30.1667 129.5,29.5C 142.376,22.7277 155.71,17.061 169.5,12.5C 170.833,12.5 172.167,12.5 173.5,12.5C 176.397,12.6813 179.23,12.3479 182,11.5C 184.689,9.41207 187.522,7.7454 190.5,6.5C 199.841,3.66465 209.508,1.99799 219.5,1.5C 222.059,1.80155 224.393,1.46822 226.5,0.5C 227.167,0.5 227.5,0.166667 227.5,-0.5 Z"/></g>
<g><path style="opacity:1" fill="#6974a3" d="M 354.5,22.5 C 357.545,23.2794 360.211,24.6127 362.5,26.5C 358.869,26.8587 356.202,25.5254 354.5,22.5 Z"/></g>
<g><path style="opacity:0.267" fill="#f0f3ed" d="M 374.5,25.5 C 375.833,26.1667 375.833,26.1667 374.5,25.5 Z"/></g>
<g><path style="opacity:1" fill="#dee5fc" d="M 129.5,29.5 C 128.833,28.1667 128.833,28.1667 129.5,29.5 Z"/></g>
<g><path style="opacity:0.8" fill="#e9f1fa" d="M 371.5,28.5 C 372.833,29.1667 372.833,29.1667 371.5,28.5 Z"/></g>
<g><path style="opacity:1" fill="#67729d" d="M 362.5,26.5 C 366.655,27.7417 370.322,29.7417 373.5,32.5C 372.883,32.6107 372.383,32.944 372,33.5C 369.561,31.3625 366.728,29.8625 363.5,29C 362.748,28.3292 362.414,27.4959 362.5,26.5 Z"/></g>
<g><path style="opacity:0.267" fill="#f7fcee" d="M 383.5,36.5 C 383.897,35.475 384.563,35.3083 385.5,36C 384.906,36.4643 384.239,36.631 383.5,36.5 Z"/></g>
<g><path style="opacity:1" fill="#c7d7ec" d="M 379.5,35.5 C 380.833,35.8333 382.167,36.1667 383.5,36.5C 384.167,37.5 384.833,38.5 385.5,39.5C 383.147,38.6597 381.147,37.3264 379.5,35.5 Z"/></g>
<g><path style="opacity:1" fill="#44538d" d="M 127.5,31.5 C 126.294,34.2978 124.294,36.4645 121.5,38C 118.454,38.7388 115.454,39.5721 112.5,40.5C 116.662,36.246 121.662,33.246 127.5,31.5 Z"/></g>
<g><path style="opacity:1" fill="#47548c" d="M 373.5,32.5 C 375.819,32.9925 377.819,33.9925 379.5,35.5C 381.147,37.3264 383.147,38.6597 385.5,39.5C 387.517,40.5294 389.517,41.5294 391.5,42.5C 391.5,42.8333 391.5,43.1667 391.5,43.5C 391.5,43.8333 391.5,44.1667 391.5,44.5C 385.508,42.029 379.841,38.8624 374.5,35C 373.748,34.3292 373.414,33.4959 373.5,32.5 Z"/></g>
<g><path style="opacity:0.133" fill="#fdfaee" d="M 394.5,39.5 C 395.833,40.1667 395.833,40.1667 394.5,39.5 Z"/></g>
<g><path style="opacity:0.667" fill="#f6f4ea" d="M 394.5,40.5 C 393.833,41.1667 393.833,41.1667 394.5,40.5 Z"/></g>
<g><path style="opacity:0.533" fill="#ebf1f3" d="M 391.5,41.5 C 392.833,42.1667 392.833,42.1667 391.5,41.5 Z"/></g>
<g><path style="opacity:0.933" fill="#cddcf1" d="M 391.5,44.5 C 391.5,44.1667 391.5,43.8333 391.5,43.5C 393.027,43.427 394.027,44.0937 394.5,45.5C 393.391,45.4431 392.391,45.1098 391.5,44.5 Z"/></g>
<g><path style="opacity:1" fill="#515d91" d="M 112.5,40.5 C 111.766,41.7079 111.433,43.0413 111.5,44.5C 106.844,46.8278 102.178,49.1612 97.5,51.5C 101.652,46.6817 106.652,43.015 112.5,40.5 Z"/></g>
<g><path style="opacity:0.267" fill="#eef1ed" d="M 397.5,45.5 C 398.833,46.1667 398.833,46.1667 397.5,45.5 Z"/></g>
<g><path style="opacity:0.267" fill="#f5f6ed" d="M 406.5,49.5 C 407.833,50.1667 407.833,50.1667 406.5,49.5 Z"/></g>
<g><path style="opacity:1" fill="#4b5b95" d="M 394.5,45.5 C 398.451,48.114 402.117,51.114 405.5,54.5C 404.883,54.6107 404.383,54.944 404,55.5C 402.397,52.6367 400.231,51.3033 397.5,51.5C 395.423,50.0124 394.423,48.0124 394.5,45.5 Z"/></g>
<g><path style="opacity:0.267" fill="#f4f2ed" d="M 83.5,55.5 C 84.8333,56.1667 84.8333,56.1667 83.5,55.5 Z"/></g>
<g><path style="opacity:1" fill="#828fba" d="M 95.5,52.5 C 94.0892,54.914 92.0892,56.5806 89.5,57.5C 90.9108,55.086 92.9108,53.4194 95.5,52.5 Z"/></g>
<g><path style="opacity:0.4" fill="#ecf6f4" d="M 410.5,55.5 C 411.833,56.1667 411.833,56.1667 410.5,55.5 Z"/></g>
<g><path style="opacity:0.4" fill="#ecf3f0" d="M 413.5,57.5 C 412.833,56.1667 412.833,56.1667 413.5,57.5 Z"/></g>
<g><path style="opacity:0.533" fill="#ebf6ec" d="M 413.5,57.5 C 414.833,58.1667 414.833,58.1667 413.5,57.5 Z"/></g>
<g><path style="opacity:1" fill="#a0abd0" d="M 89.5,57.5 C 89.0269,58.9063 88.0269,59.573 86.5,59.5C 86.9731,58.0937 87.9731,57.427 89.5,57.5 Z"/></g>
<g><path style="opacity:0.133" fill="#d5daf7" d="M 414.5,61.5 C 416.5,61.5 417.5,62.5 417.5,64.5C 416.167,63.8333 415.167,62.8333 414.5,61.5 Z"/></g>
<g><path style="opacity:0.133" fill="#f6fcec" d="M 429.5,65.5 C 429.897,64.475 430.563,64.3083 431.5,65C 430.906,65.4643 430.239,65.631 429.5,65.5 Z"/></g>
<g><path style="opacity:0.667" fill="#f8fcea" d="M 425.5,69.5 C 426.077,68.2267 426.743,68.2267 427.5,69.5C 427.03,70.463 426.363,70.463 425.5,69.5 Z"/></g>
<g><path style="opacity:1" fill="#8d96ba" d="M 420.5,66.5 C 422.5,67.8333 424.167,69.5 425.5,71.5C 422.5,71.1667 420.833,69.5 420.5,66.5 Z"/></g>
<g><path style="opacity:0.267" fill="#e5edff" d="M 426.5,72.5 C 427.833,72.5 428.5,73.1667 428.5,74.5C 427.5,74.1667 426.833,73.5 426.5,72.5 Z"/></g>
<g><path style="opacity:0.267" fill="#edf6fe" d="M 69.5,75.5 C 68.8333,74.1667 68.8333,74.1667 69.5,75.5 Z"/></g>
<g><path style="opacity:1" fill="#a7afd2" d="M 430.5,76.5 C 432.587,77.5846 433.92,79.2512 434.5,81.5C 432.413,80.4154 431.08,78.7488 430.5,76.5 Z"/></g>
<g><path style="opacity:1" fill="#edeee5" d="M 57.5,80.5 C 58.8333,81.1667 58.8333,81.1667 57.5,80.5 Z"/></g>
<g><path style="opacity:0.533" fill="#f3f4eb" d="M 437.5,80.5 C 438.833,81.1667 438.833,81.1667 437.5,80.5 Z"/></g>
<g><path style="opacity:0.4" fill="#ecf5f6" d="M 437.5,81.5 C 436.833,82.1667 436.833,82.1667 437.5,81.5 Z"/></g>
<g><path style="opacity:1" fill="#424f8e" d="M 79.5,66.5 C 77.5873,70.2625 75.4206,73.9291 73,77.5C 72.1072,76.2888 71.2739,76.2888 70.5,77.5C 69.846,79.1151 69.346,80.7818 69,82.5C 68.6667,82.1667 68.3333,81.8333 68,81.5C 65.8166,84.3367 63.3166,86.8367 60.5,89C 59.255,89.7914 57.9217,90.2914 56.5,90.5C 60.5181,85.154 64.8515,80.154 69.5,75.5C 72.3737,72.051 75.707,69.051 79.5,66.5 Z"/></g>
<g><path style="opacity:0.4" fill="#f2f2ec" d="M 444.5,87.5 C 445.833,88.1667 445.833,88.1667 444.5,87.5 Z"/></g>
<g><path style="opacity:0.133" fill="#eef9fa" d="M 442.5,88.5 C 443.833,89.1667 443.833,89.1667 442.5,88.5 Z"/></g>
<g><path style="opacity:1" fill="#5e6a9d" d="M 439.5,87.5 C 440.5,88.1667 441.5,88.8333 442.5,89.5C 444.25,90.6594 445.25,92.326 445.5,94.5C 442.092,93.4222 440.092,91.0889 439.5,87.5 Z"/></g>
<g><path style="opacity:1" fill="#9eabd0" d="M 56.5,90.5 C 55.9202,92.7488 54.5869,94.4154 52.5,95.5C 53.0798,93.2512 54.4131,91.5846 56.5,90.5 Z"/></g>
<g><path style="opacity:1" fill="#ecf0e6" d="M 453.5,97.5 C 452.833,96.1667 452.833,96.1667 453.5,97.5 Z"/></g>
<g><path style="opacity:0.133" fill="#f2f6ee" d="M 453.5,97.5 C 454.833,98.1667 454.833,98.1667 453.5,97.5 Z"/></g>
<g><path style="opacity:1" fill="#515e96" d="M 445.5,94.5 C 447.984,96.8003 449.984,99.4669 451.5,102.5C 450.292,101.766 448.959,101.433 447.5,101.5C 447.6,98.8915 446.933,96.5582 445.5,94.5 Z"/></g>
<g><path style="opacity:1" fill="#434f8c" d="M 52.5,95.5 C 52.6621,97.5273 52.4955,99.5273 52,101.5C 49.4915,103.231 46.9915,104.898 44.5,106.5C 44.5,106.167 44.5,105.833 44.5,105.5C 46.7867,101.878 49.4534,98.5448 52.5,95.5 Z"/></g>
<g><path style="opacity:0.267" fill="#edf3fe" d="M 44.5,105.5 C 43.8333,104.167 43.8333,104.167 44.5,105.5 Z"/></g>
<g><path style="opacity:0.267" fill="#edf5fe" d="M 42.5,107.5 C 41.8333,106.167 41.8333,106.167 42.5,107.5 Z"/></g>
<g><path style="opacity:1" fill="#c9d8f2" d="M 456.5,108.5 C 457.906,108.973 458.573,109.973 458.5,111.5C 457.094,111.027 456.427,110.027 456.5,108.5 Z"/></g>
<g><path style="opacity:1" fill="#3a4a8d" d="M 451.5,102.5 C 453.633,104.091 455.299,106.091 456.5,108.5C 456.427,110.027 457.094,111.027 458.5,111.5C 459.737,112.965 460.737,114.632 461.5,116.5C 461.427,118.027 462.094,119.027 463.5,119.5C 465.086,121.67 466.42,124.004 467.5,126.5C 467.66,128.153 468.326,129.486 469.5,130.5C 470.596,132.103 471.93,133.603 473.5,135C 473.167,135.333 472.833,135.667 472.5,136C 473.399,137.652 474.399,139.152 475.5,140.5C 475.624,142.582 476.624,144.082 478.5,145C 477.366,146.016 477.699,146.683 479.5,147C 478.587,148.414 478.587,149.914 479.5,151.5C 478.178,151.67 477.011,151.337 476,150.5C 473.933,141.008 469.933,132.342 464,124.5C 462.556,122.845 460.722,122.178 458.5,122.5C 457.851,120.523 457.851,118.69 458.5,117C 458.22,115.605 457.553,114.438 456.5,113.5C 454.833,114.5 453.5,115.833 452.5,117.5C 450.616,116.307 450.116,114.641 451,112.5C 452.205,111.929 453.372,111.262 454.5,110.5C 452.506,108.184 451.506,105.518 451.5,102.5 Z"/></g>
<g><path style="opacity:0.133" fill="#f8f9ee" d="M 461.5,111.5 C 462.833,112.167 462.833,112.167 461.5,111.5 Z"/></g>
<g><path style="opacity:1" fill="#c0d1f1" d="M 461.5,116.5 C 462.906,116.973 463.573,117.973 463.5,119.5C 462.094,119.027 461.427,118.027 461.5,116.5 Z"/></g>
<g><path style="opacity:1" fill="#384a8c" d="M 44.5,106.5 C 43.5674,112.056 41.7341,117.389 39,122.5C 37.2828,123.988 36.1161,125.821 35.5,128C 34.552,128.483 33.552,128.649 32.5,128.5C 32.2714,130.433 31.4381,132.1 30,133.5C 29.3292,134.252 28.4959,134.586 27.5,134.5C 27.7512,132.83 28.4178,131.33 29.5,130C 29.1667,129.667 28.8333,129.333 28.5,129C 29.4162,128.626 30.2496,128.126 31,127.5C 34.6042,120.615 38.4375,113.949 42.5,107.5C 43.1667,107.167 43.8333,106.833 44.5,106.5 Z"/></g>
<g><path style="opacity:0.733" fill="#cedbec" d="M 467.5,126.5 C 469.762,127.345 470.429,128.678 469.5,130.5C 468.326,129.486 467.66,128.153 467.5,126.5 Z"/></g>
<g><path style="opacity:1" fill="#e5f2fe" d="M 25.5,136.5 C 24.8333,135.167 24.8333,135.167 25.5,136.5 Z"/></g>
<g><path style="opacity:0.533" fill="#ebf3fe" d="M 475.5,139.5 C 476.833,140.167 476.833,140.167 475.5,139.5 Z"/></g>
<g><path style="opacity:1" fill="#32458d" d="M 27.5,134.5 C 27.0371,137.482 26.7038,140.482 26.5,143.5C 27.5,143.5 28.5,143.5 29.5,143.5C 29.3379,145.527 29.5045,147.527 30,149.5C 31.6984,150.529 32.5317,152.029 32.5,154C 31.0395,154.804 30.2062,156.637 30,159.5C 30.6296,154.019 28.7963,149.686 24.5,146.5C 22.5799,150.931 20.4132,155.264 18,159.5C 17.2917,160.381 16.4584,161.047 15.5,161.5C 18.5565,153.054 21.8898,144.721 25.5,136.5C 26.1667,135.833 26.8333,135.167 27.5,134.5 Z"/></g>
<g><path style="opacity:0.8" fill="#eff3e9" d="M 485.5,155.5 C 486.833,156.167 486.833,156.167 485.5,155.5 Z"/></g>
<g><path style="opacity:1" fill="#424f8d" d="M 479.5,151.5 C 483.576,159.005 486.576,167.005 488.5,175.5C 486.112,174.781 484.612,173.115 484,170.5C 481.774,164.326 480.274,157.993 479.5,151.5 Z"/></g>
<g><path style="opacity:1" fill="#233c8f" d="M 247.5,-0.5 C 249.5,-0.5 251.5,-0.5 253.5,-0.5C 256.203,0.963007 259.203,1.79634 262.5,2C 261.304,2.65431 261.304,3.15431 262.5,3.5C 263.5,2.83333 264.5,2.16667 265.5,1.5C 272.808,2.13492 280.141,2.80159 287.5,3.5C 290.273,4.25254 292.94,5.25254 295.5,6.5C 304.912,7.62528 314.245,8.95861 323.5,10.5C 325.668,12.4156 328.001,14.0822 330.5,15.5C 334.823,15.7531 338.49,17.2531 341.5,20C 345.722,21.4464 350.055,22.2797 354.5,22.5C 356.202,25.5254 358.869,26.8587 362.5,26.5C 362.414,27.4959 362.748,28.3292 363.5,29C 366.728,29.8625 369.561,31.3625 372,33.5C 372.383,32.944 372.883,32.6107 373.5,32.5C 373.414,33.4959 373.748,34.3292 374.5,35C 379.841,38.8624 385.508,42.029 391.5,44.5C 392.391,45.1098 393.391,45.4431 394.5,45.5C 394.423,48.0124 395.423,50.0124 397.5,51.5C 400.231,51.3033 402.397,52.6367 404,55.5C 404.383,54.944 404.883,54.6107 405.5,54.5C 406.117,54.3893 406.617,54.056 407,53.5C 407.875,56.2146 409.708,57.5479 412.5,57.5C 412.389,58.1174 412.056,58.6174 411.5,59C 412.942,59.3768 413.942,60.2101 414.5,61.5C 415.167,62.8333 416.167,63.8333 417.5,64.5C 418.778,64.7822 419.778,65.4489 420.5,66.5C 420.833,69.5 422.5,71.1667 425.5,71.5C 426.167,71.5 426.5,71.8333 426.5,72.5C 426.833,73.5 427.5,74.1667 428.5,74.5C 429.5,74.8333 430.167,75.5 430.5,76.5C 431.08,78.7488 432.413,80.4154 434.5,81.5C 435.167,81.8333 435.833,82.1667 436.5,82.5C 437.925,83.922 438.925,85.5887 439.5,87.5C 440.092,91.0889 442.092,93.4222 445.5,94.5C 446.933,96.5582 447.6,98.8915 447.5,101.5C 448.959,101.433 450.292,101.766 451.5,102.5C 451.506,105.518 452.506,108.184 454.5,110.5C 453.372,111.262 452.205,111.929 451,112.5C 450.116,114.641 450.616,116.307 452.5,117.5C 453.5,115.833 454.833,114.5 456.5,113.5C 457.553,114.438 458.22,115.605 458.5,117C 457.851,118.69 457.851,120.523 458.5,122.5C 460.722,122.178 462.556,122.845 464,124.5C 469.933,132.342 473.933,141.008 476,150.5C 477.011,151.337 478.178,151.67 479.5,151.5C 480.274,157.993 481.774,164.326 484,170.5C 484.612,173.115 486.112,174.781 488.5,175.5C 488.5,175.833 488.5,176.167 488.5,176.5C 488.927,181.523 489.593,186.523 490.5,191.5C 490.982,194.703 492.315,197.369 494.5,199.5C 495.687,202.946 496.354,206.613 496.5,210.5C 496.492,217.124 497.492,223.457 499.5,229.5C 499.5,238.167 499.5,246.833 499.5,255.5C 498.213,256.871 497.547,258.705 497.5,261C 496.912,267.827 496.412,274.66 496,281.5C 492.804,295.368 490.304,309.368 488.5,323.5C 484.988,326.15 483.655,329.816 484.5,334.5C 484.5,334.833 484.5,335.167 484.5,335.5C 483.25,335.577 482.417,336.244 482,337.5C 480.443,340.666 479.61,344 479.5,347.5C 479.5,347.833 479.5,348.167 479.5,348.5C 478.599,349.29 477.932,350.29 477.5,351.5C 477.737,352.791 477.404,353.791 476.5,354.5C 475.326,355.514 474.66,356.847 474.5,358.5C 473.504,358.414 472.671,358.748 472,359.5C 471.095,362.982 469.428,365.982 467,368.5C 465.798,370.677 465.298,373.011 465.5,375.5C 464.883,375.389 464.383,375.056 464,374.5C 463.667,375.833 463.333,377.167 463,378.5C 462.667,378.167 462.333,377.833 462,377.5C 460.097,379.441 459.264,381.774 459.5,384.5C 457.692,384.491 456.025,384.991 454.5,386C 455.406,387.699 455.739,389.533 455.5,391.5C 454.094,391.973 453.427,392.973 453.5,394.5C 452.974,396.23 451.974,397.564 450.5,398.5C 450.167,398.5 449.833,398.5 449.5,398.5C 447.289,398.967 445.289,399.967 443.5,401.5C 444.509,403.185 444.009,404.518 442,405.5C 441.228,405.355 440.561,405.022 440,404.5C 440.135,406.425 440.302,408.425 440.5,410.5C 434.095,409.406 431.762,412.073 433.5,418.5C 431.511,417.519 429.511,416.519 427.5,415.5C 425.393,417.887 422.727,419.22 419.5,419.5C 419.785,421.288 419.452,422.955 418.5,424.5C 416.833,424.833 415.833,425.833 415.5,427.5C 416.937,429.577 417.604,431.91 417.5,434.5C 416.5,434.833 415.833,435.5 415.5,436.5C 411.719,436.296 409.386,437.963 408.5,441.5C 404.539,442.642 401.539,444.975 399.5,448.5C 399.5,448.833 399.5,449.167 399.5,449.5C 399.5,450.167 399.167,450.5 398.5,450.5C 397.29,450.932 396.29,451.599 395.5,452.5C 395.5,453.167 395.167,453.5 394.5,453.5C 392.973,453.427 391.973,454.094 391.5,455.5C 390.29,455.932 389.29,456.599 388.5,457.5C 386.856,458.316 385.69,459.65 385,461.5C 384.617,460.944 384.117,460.611 383.5,460.5C 380.125,460.767 376.958,461.767 374,463.5C 369.447,465.68 365.614,468.68 362.5,472.5C 362.158,473.338 361.492,473.672 360.5,473.5C 358.167,473.5 355.833,473.5 353.5,473.5C 353.567,474.959 353.234,476.292 352.5,477.5C 352.167,477.5 351.833,477.5 351.5,477.5C 348.144,477.714 345.477,479.047 343.5,481.5C 343.167,481.5 342.833,481.5 342.5,481.5C 340.847,481.66 339.514,482.326 338.5,483.5C 337.609,484.11 336.609,484.443 335.5,484.5C 330.687,483.741 326.687,485.075 323.5,488.5C 323.167,488.5 322.833,488.5 322.5,488.5C 318.78,488.564 315.114,489.064 311.5,490C 310.244,490.417 309.577,491.25 309.5,492.5C 306.15,492.335 302.817,492.502 299.5,493C 297.68,493.2 296.347,494.034 295.5,495.5C 290.289,496.815 284.956,497.482 279.5,497.5C 275.267,497.539 271.267,498.205 267.5,499.5C 260.833,499.5 254.167,499.5 247.5,499.5C 245.81,498.897 244.31,497.897 243,496.5C 241.984,497.634 241.317,497.301 241,495.5C 240.326,496.578 239.326,497.245 238,497.5C 222.46,495.327 206.626,493.661 190.5,492.5C 189.426,490.716 187.76,489.549 185.5,489C 182.518,488.502 179.518,488.335 176.5,488.5C 176.167,488.5 175.833,488.5 175.5,488.5C 175.5,487.5 175.5,486.5 175.5,485.5C 167.904,483.017 160.238,480.683 152.5,478.5C 152.167,477.667 151.833,476.833 151.5,476C 152.561,473.969 153.895,472.136 155.5,470.5C 155.42,468.67 154.587,467.337 153,466.5C 148.539,465.753 144.039,465.253 139.5,465C 138.286,463.431 136.619,462.598 134.5,462.5C 131.161,463.512 127.828,464.512 124.5,465.5C 124.586,464.504 124.252,463.671 123.5,463C 115.281,457.942 106.947,453.109 98.5,448.5C 96.5956,448.262 95.2623,447.262 94.5,445.5C 93.4007,442.068 91.0674,440.068 87.5,439.5C 86.5084,439.672 85.8417,439.338 85.5,438.5C 85.1667,437.5 84.5,436.833 83.5,436.5C 83.1667,436.5 82.8333,436.5 82.5,436.5C 82.1667,435.833 81.8333,435.167 81.5,434.5C 80.5,432.833 79.1667,431.5 77.5,430.5C 77.067,427.715 75.7337,425.381 73.5,423.5C 74.0253,422.808 74.6919,422.308 75.5,422C 75.0598,419.838 74.7265,417.671 74.5,415.5C 73.7261,414.289 72.8928,414.289 72,415.5C 71.5065,417.134 71.3398,418.801 71.5,420.5C 69.1791,419.523 66.8458,418.523 64.5,417.5C 63.1667,415.5 61.5,413.833 59.5,412.5C 57.057,409.894 54.3903,407.394 51.5,405C 52.5981,404.23 52.5981,403.397 51.5,402.5C 51.762,401.022 51.4287,399.689 50.5,398.5C 47.9556,395.885 45.9556,392.885 44.5,389.5C 43.675,388.614 42.675,388.281 41.5,388.5C 40.5987,387.71 39.9321,386.71 39.5,385.5C 39.1298,382.733 37.7964,380.733 35.5,379.5C 34.3995,378.395 33.7329,377.062 33.5,375.5C 33.0679,374.29 32.4013,373.29 31.5,372.5C 31.2163,369.368 30.383,366.368 29,363.5C 28.3292,362.748 27.4959,362.414 26.5,362.5C 26.6107,361.883 26.944,361.383 27.5,361C 26.283,359.352 25.4497,357.519 25,355.5C 24.3292,354.748 23.4959,354.414 22.5,354.5C 21.3255,349.613 20.3255,344.613 19.5,339.5C 18.0413,339.567 16.7079,339.234 15.5,338.5C 15.5,338.167 15.5,337.833 15.5,337.5C 15.6633,335.143 15.4966,332.81 15,330.5C 14.3292,329.748 13.4959,329.414 12.5,329.5C 12.405,327.214 11.7384,325.214 10.5,323.5C 8.84386,312.854 7.17719,302.187 5.5,291.5C 7.49185,284.905 7.82519,278.238 6.5,271.5C 5.67855,274.447 5.17855,277.447 5,280.5C 3.98398,281.634 3.31732,281.301 3,279.5C 2.07896,274.927 2.91229,270.761 5.5,267C 3.03594,260.477 1.36928,253.81 0.5,247C 2.95443,231.313 4.28776,215.48 4.5,199.5C 5.7682,197.095 6.43487,194.428 6.5,191.5C 6.5,191.167 6.5,190.833 6.5,190.5C 10.6097,184.609 12.6097,177.943 12.5,170.5C 12.9281,167.215 13.9281,164.215 15.5,161.5C 16.4584,161.047 17.2917,160.381 18,159.5C 20.4132,155.264 22.5799,150.931 24.5,146.5C 28.7963,149.686 30.6296,154.019 30,159.5C 30.2062,156.637 31.0395,154.804 32.5,154C 32.5317,152.029 31.6984,150.529 30,149.5C 29.5045,147.527 29.3379,145.527 29.5,143.5C 28.5,143.5 27.5,143.5 26.5,143.5C 26.7038,140.482 27.0371,137.482 27.5,134.5C 28.4959,134.586 29.3292,134.252 30,133.5C 31.4381,132.1 32.2714,130.433 32.5,128.5C 33.552,128.649 34.552,128.483 35.5,128C 36.1161,125.821 37.2828,123.988 39,122.5C 41.7341,117.389 43.5674,112.056 44.5,106.5C 46.9915,104.898 49.4915,103.231 52,101.5C 52.4955,99.5273 52.6621,97.5273 52.5,95.5C 54.5869,94.4154 55.9202,92.7488 56.5,90.5C 57.9217,90.2914 59.255,89.7914 60.5,89C 63.3166,86.8367 65.8166,84.3367 68,81.5C 68.3333,81.8333 68.6667,82.1667 69,82.5C 69.346,80.7818 69.846,79.1151 70.5,77.5C 71.2739,76.2888 72.1072,76.2888 73,77.5C 75.4206,73.9291 77.5873,70.2625 79.5,66.5C 81.5272,63.8061 83.8605,61.4728 86.5,59.5C 88.0269,59.573 89.0269,58.9063 89.5,57.5C 92.0892,56.5806 94.0892,54.914 95.5,52.5C 95.8417,51.6618 96.5084,51.3284 97.5,51.5C 102.178,49.1612 106.844,46.8278 111.5,44.5C 111.433,43.0413 111.766,41.7079 112.5,40.5C 115.454,39.5721 118.454,38.7388 121.5,38C 124.294,36.4645 126.294,34.2978 127.5,31.5C 130.216,31.3215 132.883,30.8215 135.5,30C 136.868,27.8155 138.868,26.6488 141.5,26.5C 143.981,28.1644 146.647,28.6644 149.5,28C 148.284,26.2602 146.618,25.2602 144.5,25C 147.12,22.729 150.12,22.0623 153.5,23C 154.955,25.0162 156.955,25.8495 159.5,25.5C 159.5,24.1667 159.5,22.8333 159.5,21.5C 154.509,21.253 154.343,19.9197 159,17.5C 162.842,16.9319 166.675,16.2652 170.5,15.5C 170.709,14.914 171.043,14.414 171.5,14C 179.605,14.7713 186.605,12.4379 192.5,7C 197.68,6.816 202.68,5.816 207.5,4C 216.517,3.61583 225.517,3.61583 234.5,4C 239.411,2.54655 243.744,1.04655 247.5,-0.5 Z"/></g>
<g><path style="opacity:1" fill="#304383" d="M 428.5,119.5 C 431.603,121.423 434.603,123.59 437.5,126C 436.483,127.049 436.316,128.216 437,129.5C 439.452,132.738 441.785,136.071 444,139.5C 444.662,141.813 445.162,144.146 445.5,146.5C 440.097,137.368 434.431,128.368 428.5,119.5 Z"/></g>
<g><path style="opacity:1" fill="#2d4281" d="M 357.5,56.5 C 348.557,51.8605 339.557,47.5272 330.5,43.5C 333.579,43.7399 336.579,43.4066 339.5,42.5C 341.111,43.3202 341.778,44.6536 341.5,46.5C 345.153,47.6296 348.486,49.463 351.5,52C 353.473,52.4955 355.473,52.6621 357.5,52.5C 357.5,53.8333 357.5,55.1667 357.5,56.5 Z"/></g>
<g><path style="opacity:1" fill="#fdfdfd" d="M 275.5,30.5 C 284.91,31.4572 294.244,32.9572 303.5,35C 312.484,37.9939 321.484,40.8273 330.5,43.5C 339.557,47.5272 348.557,51.8605 357.5,56.5C 385.441,72.6445 409.108,93.6445 428.5,119.5C 434.431,128.368 440.097,137.368 445.5,146.5C 452.94,160.818 458.606,175.818 462.5,191.5C 464.05,203.065 466.05,214.565 468.5,226C 468.294,227.366 467.96,228.699 467.5,230C 468.181,239.178 468.847,248.345 469.5,257.5C 469.148,272.967 467.481,288.301 464.5,303.5C 460.176,317.793 454.843,331.793 448.5,345.5C 420.013,401.655 376.013,439.988 316.5,460.5C 269.291,474.355 222.291,473.688 175.5,458.5C 145.127,446.816 118.127,429.816 94.5,407.5C 87.471,399.475 80.471,391.475 73.5,383.5C 67.2387,374.635 61.2387,365.635 55.5,356.5C 47.0898,339.246 40.0898,321.579 34.5,303.5C 34.6747,301.379 34.3414,299.379 33.5,297.5C 31.7983,286.029 30.1317,274.695 28.5,263.5C 26.6409,179.051 59.9743,112.551 128.5,64C 147.042,52.5629 166.708,43.5629 187.5,37C 194.717,34.8618 202.05,33.3618 209.5,32.5C 211.467,32.2606 213.301,32.5939 215,33.5C 215.75,32.8742 216.584,32.3742 217.5,32C 236.45,30.8595 255.783,30.3595 275.5,30.5 Z"/></g>
<g><path style="opacity:1" fill="#2c4188" d="M 391.5,157.5 C 385.467,156.965 379.801,158.132 374.5,161C 368.618,169.292 369.284,176.958 376.5,184C 379.898,185.357 382.898,187.19 385.5,189.5C 382.15,189.665 378.817,189.498 375.5,189C 374.167,186.395 372.167,184.395 369.5,183C 370.311,180.709 369.477,178.875 367,177.5C 366.833,175.667 366.667,173.833 366.5,172C 367.15,168.426 367.15,164.926 366.5,161.5C 368.738,158.567 369.738,158.901 369.5,162.5C 370.5,162.5 371.5,162.5 372.5,162.5C 372.5,161.5 372.5,160.5 372.5,159.5C 375.164,158.186 377.831,156.852 380.5,155.5C 384.35,155.932 388.017,156.598 391.5,157.5 Z"/></g>
<g><path style="opacity:1" fill="#334482" d="M 103.5,182.5 C 101.887,182.056 100.72,181.056 100,179.5C 99.6667,179.833 99.3333,180.167 99,180.5C 97.0881,174.122 97.2547,167.788 99.5,161.5C 101.487,159.673 103.821,158.673 106.5,158.5C 106.5,157.5 106.5,156.5 106.5,155.5C 107.93,155.579 109.264,155.246 110.5,154.5C 116.769,157.099 123.103,157.099 129.5,154.5C 131.208,154.703 132.541,155.536 133.5,157C 133.167,157.333 132.833,157.667 132.5,158C 135.637,158.601 138.637,159.601 141.5,161C 144.817,161.498 148.15,161.665 151.5,161.5C 151.529,157.757 152.529,154.423 154.5,151.5C 154.187,149.019 153.187,146.853 151.5,145C 151.82,143.347 152.82,142.347 154.5,142C 136.033,133.335 116.699,131.169 96.5,135.5C 118.548,129.818 139.882,132.151 160.5,142.5C 157.5,150.493 154,158.16 150,165.5C 137.238,158.934 123.738,156.434 109.5,158C 100.899,161.369 97.7323,167.535 100,176.5C 101.421,178.405 102.588,180.405 103.5,182.5 Z"/></g>
<g><path style="opacity:1" fill="#2a3f87" d="M 255.5,132.5 C 277.565,132.361 294.565,141.361 306.5,159.5C 305.167,159.5 303.833,159.5 302.5,159.5C 302.66,157.801 302.494,156.134 302,154.5C 296.798,156.241 291.632,158.907 286.5,162.5C 285.056,164.608 284.39,166.941 284.5,169.5C 283.5,169.5 282.5,169.5 281.5,169.5C 281.5,171.5 281.5,173.5 281.5,175.5C 279.147,173.14 277.147,170.473 275.5,167.5C 276.873,167.657 278.207,167.49 279.5,167C 282.096,164.203 284.429,161.203 286.5,158C 292.344,157.32 295.678,154.153 296.5,148.5C 292.488,149.113 290.488,147.446 290.5,143.5C 284.212,141.028 277.879,138.528 271.5,136C 265.971,135.114 260.638,133.947 255.5,132.5 Z"/></g>
<g><path style="opacity:1" fill="#233c8f" d="M 103.5,182.5 C 114.792,189.149 126.459,195.315 138.5,201C 150.134,206.793 157.467,215.96 160.5,228.5C 160.666,233.511 160.499,238.511 160,243.5C 157.932,247.96 156.766,252.627 156.5,257.5C 152.763,263.572 147.763,268.239 141.5,271.5C 138.774,271.264 136.441,272.097 134.5,274C 127.754,274.121 121.087,274.788 114.5,276C 116.167,276.333 117.833,276.667 119.5,277C 118.833,277.333 118.167,277.667 117.5,278C 110.5,278.667 103.5,278.667 96.5,278C 89.6153,275.923 82.6153,274.423 75.5,273.5C 73.079,273.122 70.7457,272.455 68.5,271.5C 68.1731,261.985 68.5064,252.652 69.5,243.5C 82.4354,249.796 96.1021,253.462 110.5,254.5C 114.19,254.308 117.857,253.975 121.5,253.5C 125.904,252.906 129.904,251.406 133.5,249C 132.201,242.71 132.201,236.376 133.5,230C 132.498,227.5 130.998,226.667 129,227.5C 125.152,225.909 121.818,223.575 119,220.5C 116.361,219.006 113.528,218.339 110.5,218.5C 98.1067,213.888 87.2733,206.888 78,197.5C 76.6063,195.612 75.4396,193.612 74.5,191.5C 73.6569,186.794 72.4903,182.128 71,177.5C 70.501,173.179 70.3343,168.846 70.5,164.5C 73.5451,149.788 82.2117,140.122 96.5,135.5C 116.699,131.169 136.033,133.335 154.5,142C 152.82,142.347 151.82,143.347 151.5,145C 153.187,146.853 154.187,149.019 154.5,151.5C 152.529,154.423 151.529,157.757 151.5,161.5C 148.15,161.665 144.817,161.498 141.5,161C 138.637,159.601 135.637,158.601 132.5,158C 132.833,157.667 133.167,157.333 133.5,157C 132.541,155.536 131.208,154.703 129.5,154.5C 123.103,157.099 116.769,157.099 110.5,154.5C 109.264,155.246 107.93,155.579 106.5,155.5C 106.5,156.5 106.5,157.5 106.5,158.5C 103.821,158.673 101.487,159.673 99.5,161.5C 97.2547,167.788 97.0881,174.122 99,180.5C 99.3333,180.167 99.6667,179.833 100,179.5C 100.72,181.056 101.887,182.056 103.5,182.5 Z"/></g>
<g><path style="opacity:1" fill="#233c8f" d="M 412.5,135.5 C 419.039,137.236 425.372,139.569 431.5,142.5C 427.902,149.966 424.902,157.632 422.5,165.5C 419.257,165.086 416.257,164.086 413.5,162.5C 413.047,161.542 412.381,160.708 411.5,160C 408.833,159.333 406.167,158.667 403.5,158C 404.167,157.667 404.833,157.333 405.5,157C 403.899,156.727 402.399,156.227 401,155.5C 399.599,157.192 397.766,157.859 395.5,157.5C 394.167,157.5 392.833,157.5 391.5,157.5C 388.017,156.598 384.35,155.932 380.5,155.5C 377.831,156.852 375.164,158.186 372.5,159.5C 372.5,160.5 372.5,161.5 372.5,162.5C 371.5,162.5 370.5,162.5 369.5,162.5C 369.738,158.901 368.738,158.567 366.5,161.5C 367.15,164.926 367.15,168.426 366.5,172C 366.667,173.833 366.833,175.667 367,177.5C 369.477,178.875 370.311,180.709 369.5,183C 372.167,184.395 374.167,186.395 375.5,189C 378.817,189.498 382.15,189.665 385.5,189.5C 399.818,194.74 412.651,202.406 424,212.5C 425.094,214.078 425.928,215.745 426.5,217.5C 426.5,218.833 426.5,220.167 426.5,221.5C 425.5,221.5 424.5,221.5 423.5,221.5C 423.934,225.277 425.934,227.943 429.5,229.5C 431.46,238.557 430.46,247.224 426.5,255.5C 425.833,255.167 425.167,254.833 424.5,254.5C 423.5,251.749 422.333,249.082 421,246.5C 419.989,245.663 418.822,245.33 417.5,245.5C 417.5,249.5 417.5,253.5 417.5,257.5C 416.5,257.5 415.5,257.5 414.5,257.5C 414.181,259.75 414.681,261.75 416,263.5C 417.097,260.735 419.097,259.069 422,258.5C 422.884,260.641 422.384,262.307 420.5,263.5C 419.808,262.975 419.308,262.308 419,261.5C 417.887,262.76 417.72,263.927 418.5,265C 415.583,265.662 414.25,267.495 414.5,270.5C 410.106,273.859 405.106,275.859 399.5,276.5C 379.745,280.748 360.745,278.748 342.5,270.5C 341.503,262.862 341.169,255.196 341.5,247.5C 345.86,248.007 350.193,248.673 354.5,249.5C 360.404,251.3 366.404,252.8 372.5,254C 377.352,254.815 382.019,254.648 386.5,253.5C 389.969,253.453 393.302,252.787 396.5,251.5C 399.808,252.026 401.974,250.693 403,247.5C 403.169,240.809 403.669,234.142 404.5,227.5C 406.904,226.992 407.571,225.825 406.5,224C 404.866,223.506 403.199,223.34 401.5,223.5C 401.5,224.5 401.5,225.5 401.5,226.5C 397.846,226.5 394.513,225.5 391.5,223.5C 390.508,223.672 389.842,223.338 389.5,222.5C 389.047,221.542 388.381,220.708 387.5,220C 380.009,215.918 372.342,212.418 364.5,209.5C 364.5,208.5 364.5,207.5 364.5,206.5C 362.833,206.5 361.167,206.5 359.5,206.5C 346.7,198.58 340.366,186.913 340.5,171.5C 340.411,167.239 341.078,163.239 342.5,159.5C 345.484,158.216 346.984,155.882 347,152.5C 348.667,151.167 350.333,149.833 352,148.5C 351.852,147.175 352.018,146.008 352.5,145C 353.833,144.667 355.167,144.333 356.5,144C 357.257,142.488 358.257,141.154 359.5,140C 368.979,135.76 378.979,133.593 389.5,133.5C 397.206,133.792 404.873,134.458 412.5,135.5 Z"/></g>
<g><path style="opacity:1" fill="#3b4d88" d="M 413.5,162.5 C 407.5,160.383 401.5,158.716 395.5,157.5C 397.766,157.859 399.599,157.192 401,155.5C 402.399,156.227 403.899,156.727 405.5,157C 404.833,157.333 404.167,157.667 403.5,158C 406.167,158.667 408.833,159.333 411.5,160C 412.381,160.708 413.047,161.542 413.5,162.5 Z"/></g>
<g><path style="opacity:1" fill="#233c8f" d="M 255.5,132.5 C 260.638,133.947 265.971,135.114 271.5,136C 277.879,138.528 284.212,141.028 290.5,143.5C 290.488,147.446 292.488,149.113 296.5,148.5C 295.678,154.153 292.344,157.32 286.5,158C 284.429,161.203 282.096,164.203 279.5,167C 278.207,167.49 276.873,167.657 275.5,167.5C 272.197,163.844 268.197,161.178 263.5,159.5C 263.047,158.542 262.381,157.708 261.5,157C 253.509,157.062 245.675,156.229 238,154.5C 235.755,155.137 233.588,155.97 231.5,157C 232.171,157.986 232.171,159.153 231.5,160.5C 218.984,170.339 212.984,183.339 213.5,199.5C 211.42,212.02 212.586,224.353 217,236.5C 217.383,235.944 217.883,235.611 218.5,235.5C 223.489,246.157 231.822,252.157 243.5,253.5C 251.362,254.682 259.362,254.516 267.5,253C 267.167,252.667 266.833,252.333 266.5,252C 277.39,247.413 283.89,239.247 286,227.5C 286.825,217.325 286.658,207.325 285.5,197.5C 285.123,189.991 283.789,182.658 281.5,175.5C 281.5,173.5 281.5,171.5 281.5,169.5C 282.5,169.5 283.5,169.5 284.5,169.5C 284.39,166.941 285.056,164.608 286.5,162.5C 291.632,158.907 296.798,156.241 302,154.5C 302.494,156.134 302.66,157.801 302.5,159.5C 303.833,159.5 305.167,159.5 306.5,159.5C 311.666,168.458 315.166,178.125 317,188.5C 319.055,207.318 317.055,225.651 311,243.5C 306.098,255.564 297.932,264.564 286.5,270.5C 283.31,270.513 280.476,271.513 278,273.5C 270.81,270.848 263.31,269.848 255.5,270.5C 255.5,271.5 255.5,272.5 255.5,273.5C 260.599,273.175 265.599,273.675 270.5,275C 266.863,275.717 263.196,276.217 259.5,276.5C 257.359,276.387 255.525,275.72 254,274.5C 251.599,275.602 249.099,275.769 246.5,275C 246.833,274.667 247.167,274.333 247.5,274C 244.854,273.503 242.187,273.336 239.5,273.5C 239.5,274.5 239.5,275.5 239.5,276.5C 232.932,275.341 226.265,274.174 219.5,273C 217.091,271.799 215.091,270.133 213.5,268C 211.527,267.505 209.527,267.338 207.5,267.5C 202.5,264.5 198.5,260.5 195.5,255.5C 195.657,254.127 195.49,252.793 195,251.5C 192.064,247.387 189.231,243.387 186.5,239.5C 186.5,238.833 186.5,238.167 186.5,237.5C 185.996,233.815 185.33,230.149 184.5,226.5C 184.833,224.5 185.167,222.5 185.5,220.5C 181.861,209.626 181.528,198.626 184.5,187.5C 185.086,187.291 185.586,186.957 186,186.5C 187.228,198.786 187.895,211.119 188,223.5C 188.333,223.167 188.667,222.833 189,222.5C 189.5,210.171 189.667,197.838 189.5,185.5C 188.5,185.5 187.5,185.5 186.5,185.5C 186.334,181.486 186.501,177.486 187,173.5C 188.731,171.138 189.565,168.471 189.5,165.5C 195.808,151.029 206.475,141.195 221.5,136C 226.833,134.667 232.167,133.333 237.5,132C 243.681,131.181 249.681,131.347 255.5,132.5 Z"/></g>
<g><path style="opacity:1" fill="#fdfdfd" d="M 263.5,159.5 C 268.197,161.178 272.197,163.844 275.5,167.5C 277.147,170.473 279.147,173.14 281.5,175.5C 283.789,182.658 285.123,189.991 285.5,197.5C 286.877,212.574 284.377,226.907 278,240.5C 269.003,251.137 257.503,255.47 243.5,253.5C 231.822,252.157 223.489,246.157 218.5,235.5C 214.114,223.949 212.448,211.949 213.5,199.5C 212.984,183.339 218.984,170.339 231.5,160.5C 242.052,156.945 252.719,156.612 263.5,159.5 Z"/></g>
<g><path style="opacity:1" fill="#354688" d="M 263.5,159.5 C 252.719,156.612 242.052,156.945 231.5,160.5C 232.171,159.153 232.171,157.986 231.5,157C 233.588,155.97 235.755,155.137 238,154.5C 245.675,156.229 253.509,157.062 261.5,157C 262.381,157.708 263.047,158.542 263.5,159.5 Z"/></g>
<g><path style="opacity:1" fill="#354581" d="M 412.5,135.5 C 404.873,134.458 397.206,133.792 389.5,133.5C 378.979,133.593 368.979,135.76 359.5,140C 358.257,141.154 357.257,142.488 356.5,144C 355.167,144.333 353.833,144.667 352.5,145C 352.018,146.008 351.852,147.175 352,148.5C 350.333,149.833 348.667,151.167 347,152.5C 346.984,155.882 345.484,158.216 342.5,159.5C 348.184,144.339 359.184,135.506 375.5,133C 384.167,132.333 392.833,132.333 401.5,133C 405.392,133.419 409.058,134.252 412.5,135.5 Z"/></g>
<g><path style="opacity:1" fill="#e5ecf8" d="M 275.5,30.5 C 255.783,30.3595 236.45,30.8595 217.5,32C 216.584,32.3742 215.75,32.8742 215,33.5C 213.301,32.5939 211.467,32.2606 209.5,32.5C 231.389,28.0451 253.389,27.3785 275.5,30.5 Z"/></g>
<g><path style="opacity:1" fill="#45528a" d="M 70.5,164.5 C 70.3343,168.846 70.501,173.179 71,177.5C 72.4903,182.128 73.6569,186.794 74.5,191.5C 69.8211,182.954 68.4877,173.954 70.5,164.5 Z"/></g>
<g><path style="opacity:1" fill="#516090" d="M 12.5,170.5 C 12.6097,177.943 10.6097,184.609 6.5,190.5C 7.58997,183.454 9.58997,176.787 12.5,170.5 Z"/></g>
<g><path style="opacity:1" fill="#304287" d="M 189.5,165.5 C 189.565,168.471 188.731,171.138 187,173.5C 186.501,177.486 186.334,181.486 186.5,185.5C 187.5,185.5 188.5,185.5 189.5,185.5C 189.667,197.838 189.5,210.171 189,222.5C 188.667,222.833 188.333,223.167 188,223.5C 187.895,211.119 187.228,198.786 186,186.5C 185.586,186.957 185.086,187.291 184.5,187.5C 181.528,198.626 181.861,209.626 185.5,220.5C 185.167,222.5 184.833,224.5 184.5,226.5C 185.33,230.149 185.996,233.815 186.5,237.5C 184.315,232.476 182.815,227.143 182,221.5C 181.333,210.167 181.333,198.833 182,187.5C 183.24,179.611 185.74,172.277 189.5,165.5 Z"/></g>
<g><path style="opacity:1" fill="#4a598f" d="M 488.5,176.5 C 489.465,179.161 490.798,181.661 492.5,184C 492.043,184.414 491.709,184.914 491.5,185.5C 492.817,190.102 493.817,194.769 494.5,199.5C 492.315,197.369 490.982,194.703 490.5,191.5C 489.593,186.523 488.927,181.523 488.5,176.5 Z"/></g>
<g><path style="opacity:1" fill="#818eb7" d="M 6.5,191.5 C 6.43487,194.428 5.7682,197.095 4.5,199.5C 4.29379,196.505 4.96046,193.838 6.5,191.5 Z"/></g>
<g><path style="opacity:1" fill="#364381" d="M 359.5,206.5 C 361.167,206.5 362.833,206.5 364.5,206.5C 364.5,207.5 364.5,208.5 364.5,209.5C 372.342,212.418 380.009,215.918 387.5,220C 388.381,220.708 389.047,221.542 389.5,222.5C 378.857,218.181 368.857,212.848 359.5,206.5 Z"/></g>
<g><path style="opacity:1" fill="#44558c" d="M 213.5,199.5 C 212.448,211.949 214.114,223.949 218.5,235.5C 217.883,235.611 217.383,235.944 217,236.5C 212.586,224.353 211.42,212.02 213.5,199.5 Z"/></g>
<g><path style="opacity:1" fill="#a1aed1" d="M 496.5,210.5 C 497.225,214.231 498.225,217.898 499.5,221.5C 499.5,224.167 499.5,226.833 499.5,229.5C 497.492,223.457 496.492,217.124 496.5,210.5 Z"/></g>
<g><path style="opacity:1" fill="#2e4182" d="M 110.5,218.5 C 113.528,218.339 116.361,219.006 119,220.5C 121.818,223.575 125.152,225.909 129,227.5C 130.998,226.667 132.498,227.5 133.5,230C 132.201,236.376 132.201,242.71 133.5,249C 129.904,251.406 125.904,252.906 121.5,253.5C 129.952,249.93 133.118,243.597 131,234.5C 129.078,231.157 126.578,228.323 123.5,226C 119.104,223.473 114.771,220.973 110.5,218.5 Z"/></g>
<g><path style="opacity:1" fill="#e6eef9" d="M 462.5,191.5 C 462.833,191.5 463.167,191.5 463.5,191.5C 467.789,209.235 470.122,227.235 470.5,245.5C 470.499,249.681 470.166,253.681 469.5,257.5C 468.847,248.345 468.181,239.178 467.5,230C 467.96,228.699 468.294,227.366 468.5,226C 466.05,214.565 464.05,203.065 462.5,191.5 Z"/></g>
<g><path style="opacity:1" fill="#374887" d="M 285.5,197.5 C 286.658,207.325 286.825,217.325 286,227.5C 283.89,239.247 277.39,247.413 266.5,252C 266.833,252.333 267.167,252.667 267.5,253C 259.362,254.516 251.362,254.682 243.5,253.5C 257.503,255.47 269.003,251.137 278,240.5C 284.377,226.907 286.877,212.574 285.5,197.5 Z"/></g>
<g><path style="opacity:1" fill="#2d418a" d="M 426.5,217.5 C 427.79,218.058 428.623,219.058 429,220.5C 434.453,234.853 433.12,248.519 425,261.5C 421.922,265.085 418.422,268.085 414.5,270.5C 414.25,267.495 415.583,265.662 418.5,265C 417.72,263.927 417.887,262.76 419,261.5C 419.308,262.308 419.808,262.975 420.5,263.5C 422.384,262.307 422.884,260.641 422,258.5C 419.097,259.069 417.097,260.735 416,263.5C 414.681,261.75 414.181,259.75 414.5,257.5C 415.5,257.5 416.5,257.5 417.5,257.5C 417.5,253.5 417.5,249.5 417.5,245.5C 418.822,245.33 419.989,245.663 421,246.5C 422.333,249.082 423.5,251.749 424.5,254.5C 425.167,254.833 425.833,255.167 426.5,255.5C 430.46,247.224 431.46,238.557 429.5,229.5C 425.934,227.943 423.934,225.277 423.5,221.5C 424.5,221.5 425.5,221.5 426.5,221.5C 426.5,220.167 426.5,218.833 426.5,217.5 Z"/></g>
<g><path style="opacity:1" fill="#34457d" d="M 186.5,239.5 C 189.231,243.387 192.064,247.387 195,251.5C 195.49,252.793 195.657,254.127 195.5,255.5C 191.488,250.818 188.488,245.485 186.5,239.5 Z"/></g>
<g><path style="opacity:1" fill="#314184" d="M 391.5,223.5 C 394.513,225.5 397.846,226.5 401.5,226.5C 401.5,225.5 401.5,224.5 401.5,223.5C 403.199,223.34 404.866,223.506 406.5,224C 407.571,225.825 406.904,226.992 404.5,227.5C 403.669,234.142 403.169,240.809 403,247.5C 401.974,250.693 399.808,252.026 396.5,251.5C 402.21,246.197 403.71,239.863 401,232.5C 397.938,229.268 394.771,226.268 391.5,223.5 Z"/></g>
<g><path style="opacity:1" fill="#dde6f6" d="M 351.5,247.5 C 357.174,247.035 362.34,248.369 367,251.5C 367.333,251.167 367.667,250.833 368,250.5C 374.003,252.333 380.17,253.333 386.5,253.5C 382.019,254.648 377.352,254.815 372.5,254C 366.404,252.8 360.404,251.3 354.5,249.5C 353.5,248.833 352.5,248.167 351.5,247.5 Z"/></g>
<g><path style="opacity:1" fill="#43548f" d="M 160.5,228.5 C 162.595,238.608 161.262,248.275 156.5,257.5C 156.766,252.627 157.932,247.96 160,243.5C 160.499,238.511 160.666,233.511 160.5,228.5 Z"/></g>
<g><path style="opacity:1" fill="#8797c5" d="M 69.5,243.5 C 68.5064,252.652 68.1731,261.985 68.5,271.5C 67.1775,261.992 67.1775,252.325 68.5,242.5C 69.1067,242.624 69.44,242.957 69.5,243.5 Z"/></g>
<g><path style="opacity:1" fill="#5c6993" d="M 340.5,243.5 C 339.184,252.735 339.184,262.068 340.5,271.5C 339.173,267.049 338.506,262.216 338.5,257C 338.833,252.167 339.167,247.333 339.5,242.5C 340.107,242.624 340.44,242.957 340.5,243.5 Z"/></g>
<g><path style="opacity:1" fill="#354686" d="M 340.5,243.5 C 343.992,245.22 347.659,246.554 351.5,247.5C 352.5,248.167 353.5,248.833 354.5,249.5C 350.193,248.673 345.86,248.007 341.5,247.5C 341.169,255.196 341.503,262.862 342.5,270.5C 360.745,278.748 379.745,280.748 399.5,276.5C 397.046,277.621 394.379,278.454 391.5,279C 373.695,281.476 356.695,278.976 340.5,271.5C 339.184,262.068 339.184,252.735 340.5,243.5 Z"/></g>
<g><path style="opacity:1" fill="#3c4d92" d="M 4.5,199.5 C 4.28776,215.48 2.95443,231.313 0.5,247C 1.36928,253.81 3.03594,260.477 5.5,267C 2.91229,270.761 2.07896,274.927 3,279.5C 3.31732,281.301 3.98398,281.634 5,280.5C 5.17855,277.447 5.67855,274.447 6.5,271.5C 7.82519,278.238 7.49185,284.905 5.5,291.5C 7.17719,302.187 8.84386,312.854 10.5,323.5C 7.91733,317.17 6.25067,310.503 5.5,303.5C 5.73731,302.209 5.40397,301.209 4.5,300.5C 2.77146,294.074 1.77146,287.407 1.5,280.5C 1.56214,275.924 0.895475,271.591 -0.5,267.5C -0.5,253.5 -0.5,239.5 -0.5,225.5C 0.980959,216.801 2.64763,208.134 4.5,199.5 Z"/></g>
<g><path style="opacity:1" fill="#55629c" d="M 499.5,255.5 C 499.5,260.833 499.5,266.167 499.5,271.5C 498.662,271.842 498.328,272.508 498.5,273.5C 497.631,275.717 497.298,278.05 497.5,280.5C 496.209,295.311 493.209,309.644 488.5,323.5C 490.304,309.368 492.804,295.368 496,281.5C 496.412,274.66 496.912,267.827 497.5,261C 497.547,258.705 498.213,256.871 499.5,255.5 Z"/></g>
<g><path style="opacity:0.162" fill="#d0e1ef" d="M -0.5,267.5 C 0.895475,271.591 1.56214,275.924 1.5,280.5C 0.833333,279.5 0.166667,278.5 -0.5,277.5C -0.5,274.167 -0.5,270.833 -0.5,267.5 Z"/></g>
<g><path style="opacity:1" fill="#2c3f8a" d="M 207.5,267.5 C 209.527,267.338 211.527,267.505 213.5,268C 215.091,270.133 217.091,271.799 219.5,273C 226.265,274.174 232.932,275.341 239.5,276.5C 239.5,275.5 239.5,274.5 239.5,273.5C 242.187,273.336 244.854,273.503 247.5,274C 247.167,274.333 246.833,274.667 246.5,275C 249.099,275.769 251.599,275.602 254,274.5C 255.525,275.72 257.359,276.387 259.5,276.5C 263.196,276.217 266.863,275.717 270.5,275C 265.599,273.675 260.599,273.175 255.5,273.5C 255.5,272.5 255.5,271.5 255.5,270.5C 263.31,269.848 270.81,270.848 278,273.5C 280.476,271.513 283.31,270.513 286.5,270.5C 281.973,273.518 276.973,275.684 271.5,277C 256.488,280.21 241.488,280.21 226.5,277C 219.548,274.857 213.214,271.691 207.5,267.5 Z"/></g>
<g><path style="opacity:1" fill="#354488" d="M 141.5,271.5 C 131.042,277.329 119.709,279.996 107.5,279.5C 101.126,279.471 94.7931,278.971 88.5,278C 83.7891,277.249 79.4557,275.749 75.5,273.5C 82.6153,274.423 89.6153,275.923 96.5,278C 103.5,278.667 110.5,278.667 117.5,278C 118.167,277.667 118.833,277.333 119.5,277C 117.833,276.667 116.167,276.333 114.5,276C 121.087,274.788 127.754,274.121 134.5,274C 136.441,272.097 138.774,271.264 141.5,271.5 Z"/></g>
<g><path style="opacity:1" fill="#3f4c87" d="M 463.5,191.5 C 464.315,192.429 465.148,193.429 466,194.5C 473.136,229.936 473.302,265.436 466.5,301C 466.316,302.376 465.649,303.209 464.5,303.5C 467.481,288.301 469.148,272.967 469.5,257.5C 470.166,253.681 470.499,249.681 470.5,245.5C 470.122,227.235 467.789,209.235 463.5,191.5 Z"/></g>
<g><path style="opacity:1" fill="#b5c6dd" d="M 498.5,273.5 C 498.833,273.5 499.167,273.5 499.5,273.5C 499.5,274.5 499.5,275.5 499.5,276.5C 498.833,277.833 498.167,279.167 497.5,280.5C 497.298,278.05 497.631,275.717 498.5,273.5 Z"/></g>
<g><path style="opacity:1" fill="#414e8a" d="M 28.5,263.5 C 30.1317,274.695 31.7983,286.029 33.5,297.5C 31.589,292.683 30.089,287.683 29,282.5C 28.5005,276.175 28.3338,269.842 28.5,263.5 Z"/></g>
<g><path style="opacity:1" fill="#5d6a9b" d="M 60.5,300.5 C 74.3234,299.504 88.3234,299.171 102.5,299.5C 102.813,303.042 102.479,306.375 101.5,309.5C 101.5,306.5 101.5,303.5 101.5,300.5C 87.8333,300.5 74.1667,300.5 60.5,300.5 Z"/></g>
<g><path style="opacity:1" fill="#5d699c" d="M 173.5,300.5 C 183.987,299.506 194.654,299.172 205.5,299.5C 205.813,303.042 205.479,306.375 204.5,309.5C 204.5,306.5 204.5,303.5 204.5,300.5C 194.167,300.5 183.833,300.5 173.5,300.5 Z"/></g>
<g><path style="opacity:1" fill="#314280" d="M 431.5,306.5 C 430.358,304.567 428.692,303.067 426.5,302C 418.018,301.007 409.684,301.507 401.5,303.5C 401.146,305.541 401.146,307.374 401.5,309C 400.107,310.171 399.273,311.671 399,313.5C 398.693,310.124 396.86,308.79 393.5,309.5C 396.921,304.614 401.588,301.447 407.5,300C 416.264,299.135 424.93,299.635 433.5,301.5C 433.598,303.553 432.931,305.22 431.5,306.5 Z"/></g>
<g><path style="opacity:1" fill="#b8cae6" d="M 4.5,300.5 C 5.40397,301.209 5.73731,302.209 5.5,303.5C 3.20432,303.196 2.87099,302.196 4.5,300.5 Z"/></g>
<g><path style="opacity:1" fill="#253c89" d="M 60.5,300.5 C 74.1667,300.5 87.8333,300.5 101.5,300.5C 101.5,303.5 101.5,306.5 101.5,309.5C 96.8333,309.5 92.1667,309.5 87.5,309.5C 87.5,308.167 87.5,306.833 87.5,305.5C 84.3992,305.692 81.3992,306.358 78.5,307.5C 77.5224,307.023 76.6891,306.357 76,305.5C 75.6924,306.308 75.1924,306.975 74.5,307.5C 73.5713,306.311 73.238,304.978 73.5,303.5C 72.5,303.5 71.5,303.5 70.5,303.5C 70.5,305.167 70.5,306.833 70.5,308.5C 72.4147,308.216 74.0813,308.549 75.5,309.5C 70.5,309.5 65.5,309.5 60.5,309.5C 60.5,306.5 60.5,303.5 60.5,300.5 Z"/></g>
<g><path style="opacity:1" fill="#2d4085" d="M 237.5,309.5 C 239.397,308.195 241.731,307.529 244.5,307.5C 248.121,308.017 251.621,308.017 255,307.5C 255.167,307.167 255.333,306.833 255.5,306.5C 251.833,305.833 248.167,305.167 244.5,304.5C 246.624,303.851 248.624,303.017 250.5,302C 244.804,301.17 239.137,301.337 233.5,302.5C 234.5,303.333 235.5,304.167 236.5,305C 235.833,305.167 235.167,305.333 234.5,305.5C 232.677,304.155 230.677,303.655 228.5,304C 228.167,304.333 227.833,304.667 227.5,305C 229.439,305.908 230.439,307.408 230.5,309.5C 232.5,309.5 234.5,309.5 236.5,309.5C 227.369,315.703 224.203,324.369 227,335.5C 228.343,338.862 230.176,341.862 232.5,344.5C 227.753,344.032 225.586,341.366 226,336.5C 225.333,329.833 225.333,323.167 226,316.5C 227.5,315.667 228.667,314.5 229.5,313C 227.323,311.814 226.323,309.981 226.5,307.5C 224.24,308.139 222.24,309.306 220.5,311C 219.809,312.067 219.309,313.234 219,314.5C 218.614,322.281 218.448,329.948 218.5,337.5C 220.82,341.726 222.486,346.059 223.5,350.5C 218.719,346.711 215.886,341.711 215,335.5C 212.506,307.997 225.006,296.163 252.5,300C 254.813,300.662 257.146,301.162 259.5,301.5C 258.858,305.274 257.358,308.607 255,311.5C 249.371,308.65 243.537,307.983 237.5,309.5 Z"/></g>
<g><path style="opacity:1" fill="#223b91" d="M 237.5,309.5 C 237.167,309.5 236.833,309.5 236.5,309.5C 234.5,309.5 232.5,309.5 230.5,309.5C 230.439,307.408 229.439,305.908 227.5,305C 227.833,304.667 228.167,304.333 228.5,304C 230.677,303.655 232.677,304.155 234.5,305.5C 235.167,305.333 235.833,305.167 236.5,305C 235.5,304.167 234.5,303.333 233.5,302.5C 239.137,301.337 244.804,301.17 250.5,302C 248.624,303.017 246.624,303.851 244.5,304.5C 248.167,305.167 251.833,305.833 255.5,306.5C 255.333,306.833 255.167,307.167 255,307.5C 251.621,308.017 248.121,308.017 244.5,307.5C 241.731,307.529 239.397,308.195 237.5,309.5 Z"/></g>
<g><path style="opacity:1" fill="#2f4283" d="M 309.5,327.5 C 306.918,320.252 303.585,313.252 299.5,306.5C 298.844,304.547 298.511,302.547 298.5,300.5C 296.833,300.5 295.167,300.5 293.5,300.5C 295.43,309.545 297.763,318.545 300.5,327.5C 300.5,328.5 300.5,329.5 300.5,330.5C 298.132,323.571 295.632,316.571 293,309.5C 290.364,317.047 288.197,324.714 286.5,332.5C 285.853,331.726 285.52,330.726 285.5,329.5C 287.467,323.551 288.967,317.551 290,311.5C 290.178,308.06 290.345,304.727 290.5,301.5C 288.993,300.261 287.826,300.595 287,302.5C 285.339,308.144 283.839,313.811 282.5,319.5C 281.5,319.5 280.5,319.5 279.5,319.5C 281.086,313.074 283.086,306.741 285.5,300.5C 290.5,299.167 295.5,299.167 300.5,300.5C 304.273,309.268 307.273,318.268 309.5,327.5 Z"/></g>
<g><path style="opacity:1" fill="#344586" d="M 431.5,308.5 C 431.092,309.643 430.425,310.643 429.5,311.5C 419.706,306.422 411.039,307.755 403.5,315.5C 403.302,312.23 404.802,310.23 408,309.5C 409.294,308.146 409.46,306.812 408.5,305.5C 409.833,304.167 411.167,304.167 412.5,305.5C 412.291,306.086 411.957,306.586 411.5,307C 418.184,307.39 424.85,307.89 431.5,308.5 Z"/></g>
<g><path style="opacity:1" fill="#324382" d="M 464.5,303.5 C 464.823,307.226 464.489,310.893 463.5,314.5C 461.879,316.153 460.712,318.153 460,320.5C 459.725,324.631 458.392,328.298 456,331.5C 454.282,335.319 452.949,339.319 452,343.5C 451.184,344.823 450.017,345.489 448.5,345.5C 454.843,331.793 460.176,317.793 464.5,303.5 Z"/></g>
<g><path style="opacity:1" fill="#223b90" d="M 87.5,309.5 C 86.6688,323.661 86.1688,337.994 86,352.5C 83,353.833 80,353.833 77,352.5C 76.3333,341.5 76.3333,330.5 77,319.5C 77.3333,330.167 77.6667,340.833 78,351.5C 79.4765,340.329 79.9765,328.996 79.5,317.5C 78.5,317.5 77.5,317.5 76.5,317.5C 76.8064,314.615 76.4731,311.948 75.5,309.5C 74.0813,308.549 72.4147,308.216 70.5,308.5C 70.5,306.833 70.5,305.167 70.5,303.5C 71.5,303.5 72.5,303.5 73.5,303.5C 73.238,304.978 73.5713,306.311 74.5,307.5C 75.1924,306.975 75.6924,306.308 76,305.5C 76.6891,306.357 77.5224,307.023 78.5,307.5C 81.3992,306.358 84.3992,305.692 87.5,305.5C 87.5,306.833 87.5,308.167 87.5,309.5 Z"/></g>
<g><path style="opacity:1" fill="#f1f5fb" d="M 300.5,330.5 C 296.285,332.436 291.619,333.103 286.5,332.5C 288.197,324.714 290.364,317.047 293,309.5C 295.632,316.571 298.132,323.571 300.5,330.5 Z"/></g>
<g><path style="opacity:1" fill="#243c90" d="M 185.5,309.5 C 185.5,313.5 185.5,317.5 185.5,321.5C 190.985,322.327 196.652,322.827 202.5,323C 201.167,325.333 201.167,327.667 202.5,330C 196.175,330.5 189.842,330.666 183.5,330.5C 183.221,335.595 183.555,340.595 184.5,345.5C 184.414,346.496 184.748,347.329 185.5,348C 187.899,348.711 190.232,348.544 192.5,347.5C 193.747,349.006 193.747,350.506 192.5,352C 194.025,353.009 195.692,353.509 197.5,353.5C 197.657,352.127 197.49,350.793 197,349.5C 196.333,348.167 195.667,348.167 195,349.5C 194.517,348.552 194.351,347.552 194.5,346.5C 197.5,346.5 200.5,346.5 203.5,346.5C 203.5,349.167 203.5,351.833 203.5,354.5C 193.833,354.5 184.167,354.5 174.5,354.5C 174.333,337.497 174.5,320.497 175,303.5C 175.5,303 176,302.5 176.5,302C 182.167,301.333 187.833,301.333 193.5,302C 194.138,303.707 194.138,305.54 193.5,307.5C 195.288,307.785 196.955,307.452 198.5,306.5C 196.035,302.632 197.368,300.965 202.5,301.5C 202.5,303.833 202.5,306.167 202.5,308.5C 196.697,308.791 191.03,308.125 185.5,306.5C 185.5,307.5 185.5,308.5 185.5,309.5 Z"/></g>
<g><path style="opacity:1" fill="#223b91" d="M 431.5,306.5 C 431.5,307.167 431.5,307.833 431.5,308.5C 424.85,307.89 418.184,307.39 411.5,307C 411.957,306.586 412.291,306.086 412.5,305.5C 411.167,304.167 409.833,304.167 408.5,305.5C 409.46,306.812 409.294,308.146 408,309.5C 404.802,310.23 403.302,312.23 403.5,315.5C 400.52,316.787 397.52,317.787 394.5,318.5C 395.689,319.429 397.022,319.762 398.5,319.5C 399.053,328.041 399.053,336.374 398.5,344.5C 399.167,343.5 399.833,342.5 400.5,341.5C 403.286,343.643 405.952,345.809 408.5,348C 413.489,348.499 418.489,348.666 423.5,348.5C 423.5,349.833 423.5,351.167 423.5,352.5C 418.213,353.342 412.88,353.676 407.5,353.5C 404.598,352.422 401.598,351.756 398.5,351.5C 397.833,351.5 397.5,351.167 397.5,350.5C 397.657,349.127 397.49,347.793 397,346.5C 393.161,344.367 391.161,341.034 391,336.5C 390.051,328.026 390.551,319.693 392.5,311.5C 392.833,310.833 393.167,310.167 393.5,309.5C 396.86,308.79 398.693,310.124 399,313.5C 399.273,311.671 400.107,310.171 401.5,309C 401.146,307.374 401.146,305.541 401.5,303.5C 409.684,301.507 418.018,301.007 426.5,302C 428.692,303.067 430.358,304.567 431.5,306.5 Z"/></g>
<g><path style="opacity:1" fill="#32468d" d="M 75.5,309.5 C 76.4731,311.948 76.8064,314.615 76.5,317.5C 77.5,317.5 78.5,317.5 79.5,317.5C 79.9765,328.996 79.4765,340.329 78,351.5C 77.6667,340.833 77.3333,330.167 77,319.5C 76.3333,330.5 76.3333,341.5 77,352.5C 80,353.833 83,353.833 86,352.5C 86.1688,337.994 86.6688,323.661 87.5,309.5C 87.5,324.833 87.5,340.167 87.5,355.5C 83.5,355.5 79.5,355.5 75.5,355.5C 75.5,340.167 75.5,324.833 75.5,309.5 Z"/></g>
<g><path style="opacity:1" fill="#324282" d="M 392.5,311.5 C 390.551,319.693 390.051,328.026 391,336.5C 391.161,341.034 393.161,344.367 397,346.5C 397.49,347.793 397.657,349.127 397.5,350.5C 392.909,346.999 390.076,342.333 389,336.5C 388.333,330.833 388.333,325.167 389,319.5C 389.387,316.401 390.554,313.734 392.5,311.5 Z"/></g>
<g><path style="opacity:1" fill="#abb5e1" d="M 376.5,355.5 C 376.5,337.167 376.5,318.833 376.5,300.5C 373.167,300.5 369.833,300.5 366.5,300.5C 366.5,310.833 366.5,321.167 366.5,331.5C 365.506,321.013 365.172,310.346 365.5,299.5C 369.5,299.5 373.5,299.5 377.5,299.5C 377.83,318.341 377.497,337.007 376.5,355.5 Z"/></g>
<g><path style="opacity:0.267" fill="#f6f9ed" d="M 491.5,324.5 C 492.833,325.167 492.833,325.167 491.5,324.5 Z"/></g>
<g><path style="opacity:1" fill="#283f8d" d="M 130.5,299.5 C 128.594,300.482 126.594,301.482 124.5,302.5C 125.833,304.167 125.833,305.833 124.5,307.5C 131.431,307.213 138.431,307.546 145.5,308.5C 146.164,304.409 144.83,301.409 141.5,299.5C 152.52,301.688 159.02,308.354 161,319.5C 163.769,348.741 150.935,360.241 122.5,354C 114.972,350.136 110.472,343.969 109,335.5C 107.204,325.508 108.87,316.175 114,307.5C 118.547,302.768 124.047,300.101 130.5,299.5 Z"/></g>
<g><path style="opacity:1" fill="#f9fbfc" d="M 130.5,308.5 C 140.836,307.073 147.003,311.406 149,321.5C 150.525,329.9 148.691,337.4 143.5,344C 133.469,349.206 126.302,346.706 122,336.5C 121.333,330.5 121.333,324.5 122,318.5C 123.261,313.745 126.095,310.412 130.5,308.5 Z"/></g>
<g><path style="opacity:1" fill="#243b8f" d="M 130.5,299.5 C 134.167,299.5 137.833,299.5 141.5,299.5C 144.83,301.409 146.164,304.409 145.5,308.5C 138.431,307.546 131.431,307.213 124.5,307.5C 125.833,305.833 125.833,304.167 124.5,302.5C 126.594,301.482 128.594,300.482 130.5,299.5 Z"/></g>
<g><path style="opacity:1" fill="#2a3f89" d="M 360.5,331.5 C 359.325,331.719 358.325,331.386 357.5,330.5C 356.974,328.77 355.974,327.436 354.5,326.5C 353.62,329.111 352.954,331.778 352.5,334.5C 352.556,335.737 353.056,336.737 354,337.5C 354.617,336.551 354.451,335.718 353.5,335C 354.108,334.13 354.941,333.63 356,333.5C 357.274,334.535 358.44,335.702 359.5,337C 357.354,337.479 356.354,338.812 356.5,341C 358.28,344.732 359.947,348.566 361.5,352.5C 365.317,353.915 368.984,353.748 372.5,352C 371.584,351.626 370.75,351.126 370,350.5C 369.333,335.167 369.333,319.833 370,304.5C 371.814,303.149 371.481,302.149 369,301.5C 368.5,315.496 368.333,329.496 368.5,343.5C 366.173,343.247 364.173,343.914 362.5,345.5C 361.541,341.204 360.875,336.871 360.5,332.5C 362.558,334.927 364.391,337.593 366,340.5C 366.498,337.518 366.665,334.518 366.5,331.5C 366.5,321.167 366.5,310.833 366.5,300.5C 369.833,300.5 373.167,300.5 376.5,300.5C 376.5,318.833 376.5,337.167 376.5,355.5C 371.238,355.805 366.072,355.471 361,354.5C 353.32,341.135 345.653,327.801 338,314.5C 337.5,328.163 337.333,341.829 337.5,355.5C 334.167,355.5 330.833,355.5 327.5,355.5C 327.5,336.833 327.5,318.167 327.5,299.5C 332.544,299.173 337.544,299.506 342.5,300.5C 348.56,310.871 354.56,321.204 360.5,331.5 Z"/></g>
<g><path style="opacity:1" fill="#223b91" d="M 360.5,331.5 C 360.5,331.833 360.5,332.167 360.5,332.5C 360.875,336.871 361.541,341.204 362.5,345.5C 364.173,343.914 366.173,343.247 368.5,343.5C 368.333,329.496 368.5,315.496 369,301.5C 371.481,302.149 371.814,303.149 370,304.5C 369.333,319.833 369.333,335.167 370,350.5C 370.75,351.126 371.584,351.626 372.5,352C 368.984,353.748 365.317,353.915 361.5,352.5C 359.947,348.566 358.28,344.732 356.5,341C 356.354,338.812 357.354,337.479 359.5,337C 358.44,335.702 357.274,334.535 356,333.5C 354.941,333.63 354.108,334.13 353.5,335C 354.451,335.718 354.617,336.551 354,337.5C 353.056,336.737 352.556,335.737 352.5,334.5C 352.954,331.778 353.62,329.111 354.5,326.5C 355.974,327.436 356.974,328.77 357.5,330.5C 358.325,331.386 359.325,331.719 360.5,331.5 Z"/></g>
<g><path style="opacity:1" fill="#223b91" d="M 328.5,301.5 C 332.884,301.174 337.217,301.508 341.5,302.5C 340.689,303.216 340.022,304.05 339.5,305C 341.349,308.423 343.016,311.923 344.5,315.5C 344,316.5 343.5,317.5 343,318.5C 339.592,314.697 336.926,310.364 335,305.5C 336.258,319.42 336.758,335.42 336.5,353.5C 333.881,353.768 331.381,353.435 329,352.5C 328.5,335.503 328.333,318.503 328.5,301.5 Z"/></g>
<g><path style="opacity:1" fill="#293d84" d="M 403.5,315.5 C 400.026,322.888 399.526,330.554 402,338.5C 403.458,340.96 405.291,343.127 407.5,345C 412.42,346.25 417.42,346.75 422.5,346.5C 422.5,342.5 422.5,338.5 422.5,334.5C 422.5,334.167 422.5,333.833 422.5,333.5C 419.167,333.5 415.833,333.5 412.5,333.5C 412.5,330.5 412.5,327.5 412.5,324.5C 419.5,324.5 426.5,324.5 433.5,324.5C 434.14,334.558 433.473,344.225 431.5,353.5C 423.341,354.578 415.341,354.578 407.5,353.5C 412.88,353.676 418.213,353.342 423.5,352.5C 423.5,351.167 423.5,349.833 423.5,348.5C 418.489,348.666 413.489,348.499 408.5,348C 405.952,345.809 403.286,343.643 400.5,341.5C 399.833,342.5 399.167,343.5 398.5,344.5C 399.053,336.374 399.053,328.041 398.5,319.5C 397.022,319.762 395.689,319.429 394.5,318.5C 397.52,317.787 400.52,316.787 403.5,315.5 Z"/></g>
<g><path style="opacity:0.071" fill="#cdd6f0" d="M 10.5,323.5 C 11.7384,325.214 12.405,327.214 12.5,329.5C 10.9261,327.898 10.2594,325.898 10.5,323.5 Z"/></g>
<g><path style="opacity:1" fill="#616da4" d="M 488.5,323.5 C 487.703,327.223 486.703,330.89 485.5,334.5C 485.167,334.5 484.833,334.5 484.5,334.5C 483.655,329.816 484.988,326.15 488.5,323.5 Z"/></g>
<g><path style="opacity:1" fill="#304385" d="M 34.5,303.5 C 40.0898,321.579 47.0898,339.246 55.5,356.5C 52.5182,353.216 50.0182,349.55 48,345.5C 45.6132,338.249 42.7799,331.249 39.5,324.5C 37.9547,323.548 36.288,323.215 34.5,323.5C 33.9457,316.882 33.9457,310.215 34.5,303.5 Z"/></g>
<g><path style="opacity:1" fill="#48568f" d="M 185.5,321.5 C 191.5,321.5 197.5,321.5 203.5,321.5C 203.5,324.833 203.5,328.167 203.5,331.5C 197.5,331.5 191.5,331.5 185.5,331.5C 185.5,336.167 185.5,340.833 185.5,345.5C 185.167,345.5 184.833,345.5 184.5,345.5C 183.555,340.595 183.221,335.595 183.5,330.5C 189.842,330.666 196.175,330.5 202.5,330C 201.167,327.667 201.167,325.333 202.5,323C 196.652,322.827 190.985,322.327 185.5,321.5 Z"/></g>
<g><path style="opacity:1" fill="#5f69a2" d="M 12.5,329.5 C 13.4959,329.414 14.3292,329.748 15,330.5C 15.4966,332.81 15.6633,335.143 15.5,337.5C 13.7673,336.992 13.434,336.159 14.5,335C 13.1387,333.416 12.472,331.582 12.5,329.5 Z"/></g>
<g><path style="opacity:1" fill="#99a7cf" d="M 259.5,324.5 C 252.5,324.5 245.5,324.5 238.5,324.5C 238.5,327.5 238.5,330.5 238.5,333.5C 241.833,333.5 245.167,333.5 248.5,333.5C 248.5,333.833 248.5,334.167 248.5,334.5C 244.833,334.5 241.167,334.5 237.5,334.5C 237.5,330.833 237.5,327.167 237.5,323.5C 245.019,323.175 252.352,323.508 259.5,324.5 Z"/></g>
<g><path style="opacity:1" fill="#98a6cc" d="M 433.5,324.5 C 426.5,324.5 419.5,324.5 412.5,324.5C 412.5,327.5 412.5,330.5 412.5,333.5C 415.833,333.5 419.167,333.5 422.5,333.5C 422.5,333.833 422.5,334.167 422.5,334.5C 418.833,334.5 415.167,334.5 411.5,334.5C 411.5,330.833 411.5,327.167 411.5,323.5C 419.019,323.175 426.352,323.508 433.5,324.5 Z"/></g>
<g><path style="opacity:1" fill="#223b92" d="M 422.5,333.5 C 419.759,332.917 417.092,331.917 414.5,330.5C 413.571,329.311 413.238,327.978 413.5,326.5C 417.514,326.334 421.514,326.501 425.5,327C 424.833,327.667 424.167,328.333 423.5,329C 426.014,330.252 428.68,330.752 431.5,330.5C 431.351,329.448 431.517,328.448 432,327.5C 432.167,328.833 432.333,330.167 432.5,331.5C 432.242,334.26 431.242,336.594 429.5,338.5C 431.665,342.461 431.832,346.461 430,350.5C 428.675,346.679 427.009,343.013 425,339.5C 424.349,337.765 424.515,336.098 425.5,334.5C 424.675,333.614 423.675,333.281 422.5,333.5 Z"/></g>
<g><path style="opacity:0.208" fill="#fbfded" d="M 9.5,330.5 C 11.3003,331.895 11.6336,333.561 10.5,335.5C 8.37372,334.091 8.04039,332.424 9.5,330.5 Z"/></g>
<g><path style="opacity:0.133" fill="#eef8fe" d="M 485.5,334.5 C 486.833,335.167 486.833,335.167 485.5,334.5 Z"/></g>
<g><path style="opacity:1" fill="#283e8b" d="M 286.5,332.5 C 291.619,333.103 296.285,332.436 300.5,330.5C 300.5,329.5 300.5,328.5 300.5,327.5C 302.117,328.038 303.784,328.371 305.5,328.5C 306.516,333.228 307.85,337.895 309.5,342.5C 308.833,344.5 308.167,346.5 307.5,348.5C 308.204,350.535 308.871,352.535 309.5,354.5C 311.167,354.5 312.833,354.5 314.5,354.5C 314.374,352.8 313.707,351.3 312.5,350C 313.388,348.78 314.055,347.447 314.5,346C 312.905,339.729 311.238,333.562 309.5,327.5C 313.804,336.408 317.138,345.741 319.5,355.5C 315.5,355.5 311.5,355.5 307.5,355.5C 306.098,351.405 304.765,347.238 303.5,343C 296.508,342.5 289.508,342.334 282.5,342.5C 281.703,346.223 280.703,349.89 279.5,353.5C 276.257,354.58 272.924,354.747 269.5,354C 268.724,352.23 268.89,350.397 270,348.5C 271.011,347.663 272.178,347.33 273.5,347.5C 273.5,348.5 273.5,349.5 273.5,350.5C 274.833,350.5 276.167,350.5 277.5,350.5C 277.421,349.07 277.754,347.736 278.5,346.5C 275.947,345.904 274.28,344.404 273.5,342C 274.73,337.916 275.397,333.749 275.5,329.5C 276.267,325.851 277.6,322.518 279.5,319.5C 280.5,319.5 281.5,319.5 282.5,319.5C 283.839,313.811 285.339,308.144 287,302.5C 287.826,300.595 288.993,300.261 290.5,301.5C 290.345,304.727 290.178,308.06 290,311.5C 288.967,317.551 287.467,323.551 285.5,329.5C 285.52,330.726 285.853,331.726 286.5,332.5 Z"/></g>
<g><path style="opacity:1" fill="#6975a2" d="M 484.5,335.5 C 483.991,338.192 482.991,340.692 481.5,343C 481.833,343.333 482.167,343.667 482.5,344C 481.364,345.145 480.364,346.312 479.5,347.5C 479.61,344 480.443,340.666 482,337.5C 482.417,336.244 483.25,335.577 484.5,335.5 Z"/></g>
<g><path style="opacity:1" fill="#283e90" d="M 232.5,344.5 C 232.577,345.75 233.244,346.583 234.5,347C 238.795,347.912 243.128,348.579 247.5,349C 247.727,350.135 248.06,351.302 248.5,352.5C 250.657,353.05 252.657,353.717 254.5,354.5C 245.461,357.287 236.461,357.121 227.5,354C 225.907,353.051 224.574,351.885 223.5,350.5C 222.486,346.059 220.82,341.726 218.5,337.5C 218.448,329.948 218.614,322.281 219,314.5C 219.309,313.234 219.809,312.067 220.5,311C 222.24,309.306 224.24,308.139 226.5,307.5C 226.323,309.981 227.323,311.814 229.5,313C 228.667,314.5 227.5,315.667 226,316.5C 225.333,323.167 225.333,329.833 226,336.5C 225.586,341.366 227.753,344.032 232.5,344.5 Z"/></g>
<g><path style="opacity:1" fill="#314485" d="M 275.5,329.5 C 275.397,333.749 274.73,337.916 273.5,342C 274.28,344.404 275.947,345.904 278.5,346.5C 277.754,347.736 277.421,349.07 277.5,350.5C 276.167,350.5 274.833,350.5 273.5,350.5C 273.5,349.5 273.5,348.5 273.5,347.5C 272.178,347.33 271.011,347.663 270,348.5C 268.89,350.397 268.724,352.23 269.5,354C 272.924,354.747 276.257,354.58 279.5,353.5C 277.777,354.8 275.61,355.467 273,355.5C 270.833,355.167 268.667,354.833 266.5,354.5C 269.333,345.992 272.333,337.659 275.5,329.5 Z"/></g>
<g><path style="opacity:1" fill="#556294" d="M 15.5,338.5 C 16.7079,339.234 18.0413,339.567 19.5,339.5C 20.3255,344.613 21.3255,349.613 22.5,354.5C 19.6554,349.469 17.3221,344.136 15.5,338.5 Z"/></g>
<g><path style="opacity:1" fill="#213b92" d="M 309.5,327.5 C 311.238,333.562 312.905,339.729 314.5,346C 314.055,347.447 313.388,348.78 312.5,350C 313.707,351.3 314.374,352.8 314.5,354.5C 312.833,354.5 311.167,354.5 309.5,354.5C 308.871,352.535 308.204,350.535 307.5,348.5C 308.167,346.5 308.833,344.5 309.5,342.5C 307.85,337.895 306.516,333.228 305.5,328.5C 303.784,328.371 302.117,328.038 300.5,327.5C 297.763,318.545 295.43,309.545 293.5,300.5C 295.167,300.5 296.833,300.5 298.5,300.5C 298.511,302.547 298.844,304.547 299.5,306.5C 303.585,313.252 306.918,320.252 309.5,327.5 Z"/></g>
<g><path style="opacity:0.667" fill="#eaf4ee" d="M 480.5,348.5 C 481.833,349.167 481.833,349.167 480.5,348.5 Z"/></g>
<g><path style="opacity:0.62" fill="#f3efeb" d="M 16.5,349.5 C 17.8333,350.167 17.8333,350.167 16.5,349.5 Z"/></g>
<g><path style="opacity:0.767" fill="#cfe3f6" d="M 479.5,348.5 C 479.715,350.179 479.048,351.179 477.5,351.5C 477.932,350.29 478.599,349.29 479.5,348.5 Z"/></g>
<g><path style="opacity:1" fill="#273c80" d="M 259.5,324.5 C 259.5,334.167 259.5,343.833 259.5,353.5C 257.784,353.629 256.117,353.962 254.5,354.5C 252.657,353.717 250.657,353.05 248.5,352.5C 248.06,351.302 247.727,350.135 247.5,349C 243.128,348.579 238.795,347.912 234.5,347C 233.244,346.583 232.577,345.75 232.5,344.5C 237.644,346.264 242.977,346.931 248.5,346.5C 248.5,342.5 248.5,338.5 248.5,334.5C 248.5,334.167 248.5,333.833 248.5,333.5C 245.167,333.5 241.833,333.5 238.5,333.5C 238.5,330.5 238.5,327.5 238.5,324.5C 245.5,324.5 252.5,324.5 259.5,324.5 Z"/></g>
<g><path style="opacity:1" fill="#223b90" d="M 248.5,333.5 C 246.031,332.683 243.365,332.183 240.5,332C 239.577,329.959 239.244,327.792 239.5,325.5C 245.833,325.5 252.167,325.5 258.5,325.5C 258.666,333.84 258.5,342.173 258,350.5C 256.957,346.774 256.457,347.107 256.5,351.5C 251.818,351.125 250.484,348.792 252.5,344.5C 250.584,341.277 250.251,337.943 251.5,334.5C 250.675,333.614 249.675,333.281 248.5,333.5 Z"/></g>
<g><path style="opacity:1" fill="#404f82" d="M 398.5,351.5 C 401.598,351.756 404.598,352.422 407.5,353.5C 415.341,354.578 423.341,354.578 431.5,353.5C 423.809,356.082 415.809,356.916 407.5,356C 404.128,354.981 401.128,353.481 398.5,351.5 Z"/></g>
<g><path style="opacity:1" fill="#2e3e82" d="M 173.5,300.5 C 183.833,300.5 194.167,300.5 204.5,300.5C 204.5,303.5 204.5,306.5 204.5,309.5C 198.167,309.5 191.833,309.5 185.5,309.5C 185.5,308.5 185.5,307.5 185.5,306.5C 191.03,308.125 196.697,308.791 202.5,308.5C 202.5,306.167 202.5,303.833 202.5,301.5C 197.368,300.965 196.035,302.632 198.5,306.5C 196.955,307.452 195.288,307.785 193.5,307.5C 194.138,305.54 194.138,303.707 193.5,302C 187.833,301.333 182.167,301.333 176.5,302C 176,302.5 175.5,303 175,303.5C 174.5,320.497 174.333,337.497 174.5,354.5C 184.167,354.5 193.833,354.5 203.5,354.5C 203.5,351.833 203.5,349.167 203.5,346.5C 200.5,346.5 197.5,346.5 194.5,346.5C 194.351,347.552 194.517,348.552 195,349.5C 195.667,348.167 196.333,348.167 197,349.5C 197.49,350.793 197.657,352.127 197.5,353.5C 195.692,353.509 194.025,353.009 192.5,352C 193.747,350.506 193.747,349.006 192.5,347.5C 190.232,348.544 187.899,348.711 185.5,348C 184.748,347.329 184.414,346.496 184.5,345.5C 184.833,345.5 185.167,345.5 185.5,345.5C 192.167,345.5 198.833,345.5 205.5,345.5C 205.5,348.833 205.5,352.167 205.5,355.5C 194.833,355.5 184.167,355.5 173.5,355.5C 173.5,337.167 173.5,318.833 173.5,300.5 Z"/></g>
<g><path style="opacity:1" fill="#546094" d="M 22.5,354.5 C 23.4959,354.414 24.3292,354.748 25,355.5C 25.4497,357.519 26.283,359.352 27.5,361C 26.944,361.383 26.6107,361.883 26.5,362.5C 24.4947,361.746 23.828,360.579 24.5,359C 23.4178,357.67 22.7512,356.17 22.5,354.5 Z"/></g>
<g><path style="opacity:1" fill="#a6b7d7" d="M 476.5,354.5 C 476.771,356.38 476.104,357.713 474.5,358.5C 474.66,356.847 475.326,355.514 476.5,354.5 Z"/></g>
<g><path style="opacity:1" fill="#67729d" d="M 26.5,362.5 C 27.4959,362.414 28.3292,362.748 29,363.5C 30.383,366.368 31.2163,369.368 31.5,372.5C 30.5268,370.75 29.1935,369.25 27.5,368C 27.8333,367.667 28.1667,367.333 28.5,367C 27.4178,365.67 26.7512,364.17 26.5,362.5 Z"/></g>
<g><path style="opacity:1" fill="#58669a" d="M 474.5,358.5 C 472.446,363.609 470.113,368.609 467.5,373.5C 466.833,374.167 466.167,374.833 465.5,375.5C 465.298,373.011 465.798,370.677 467,368.5C 469.428,365.982 471.095,362.982 472,359.5C 472.671,358.748 473.504,358.414 474.5,358.5 Z"/></g>
<g><path style="opacity:0.757" fill="#d9e6f8" d="M 31.5,372.5 C 32.4013,373.29 33.0679,374.29 33.5,375.5C 31.9519,375.179 31.2852,374.179 31.5,372.5 Z"/></g>
<g><path style="opacity:1" fill="#e3effe" d="M 467.5,373.5 C 468.167,373.5 468.5,373.833 468.5,374.5C 468.167,374.167 467.833,373.833 467.5,373.5 Z"/></g>
<g><path style="opacity:0.267" fill="#edf5fa" d="M 468.5,374.5 C 469.833,375.167 469.833,375.167 468.5,374.5 Z"/></g>
<g><path style="opacity:0.267" fill="#edf6fe" d="M 466.5,376.5 C 467.833,377.167 467.833,377.167 466.5,376.5 Z"/></g>
<g><path style="opacity:1" fill="#8897bc" d="M 35.5,380.5 C 35.5,380.167 35.5,379.833 35.5,379.5C 37.7964,380.733 39.1298,382.733 39.5,385.5C 37.9263,384.016 36.593,382.349 35.5,380.5 Z"/></g>
<g><path style="opacity:0.667" fill="#eaeef4" d="M 464.5,379.5 C 465.833,380.167 465.833,380.167 464.5,379.5 Z"/></g>
<g><path style="opacity:0.62" fill="#ebf4fe" d="M 35.5,380.5 C 34.8333,381.167 34.8333,381.167 35.5,380.5 Z"/></g>
<g><path style="opacity:0.8" fill="#f1efe9" d="M 468.5,381.5 C 469.833,382.167 469.833,382.167 468.5,381.5 Z"/></g>
<g><path style="opacity:0.133" fill="#eef8f4" d="M 461.5,383.5 C 462.167,383.5 462.5,383.833 462.5,384.5C 462.167,384.167 461.833,383.833 461.5,383.5 Z"/></g>
<g><path style="opacity:0.62" fill="#f6feeb" d="M 36.5,385.5 C 35.8333,384.167 35.8333,384.167 36.5,385.5 Z"/></g>
<g><path style="opacity:0.898" fill="#ecf5e9" d="M 36.5,385.5 C 37.8333,386.167 37.8333,386.167 36.5,385.5 Z"/></g>
<g><path style="opacity:1" fill="#4f5b96" d="M 465.5,375.5 C 465.167,376.833 464.833,378.167 464.5,379.5C 463.557,380.883 462.557,382.216 461.5,383.5C 460.512,384.795 459.512,386.128 458.5,387.5C 457.094,387.973 456.427,388.973 456.5,390.5C 456.5,391.167 456.167,391.5 455.5,391.5C 455.739,389.533 455.406,387.699 454.5,386C 456.025,384.991 457.692,384.491 459.5,384.5C 459.264,381.774 460.097,379.441 462,377.5C 462.333,377.833 462.667,378.167 463,378.5C 463.333,377.167 463.667,375.833 464,374.5C 464.383,375.056 464.883,375.389 465.5,375.5 Z"/></g>
<g><path style="opacity:0.133" fill="#f8fbed" d="M 462.5,384.5 C 463.525,384.897 463.692,385.563 463,386.5C 462.536,385.906 462.369,385.239 462.5,384.5 Z"/></g>
<g><path style="opacity:0.533" fill="#e0eef8" d="M 458.5,387.5 C 458.715,389.179 458.048,390.179 456.5,390.5C 456.427,388.973 457.094,387.973 458.5,387.5 Z"/></g>
<g><path style="opacity:1" fill="#ebede6" d="M 460.5,389.5 C 461.833,390.167 461.833,390.167 460.5,389.5 Z"/></g>
<g><path style="opacity:0.667" fill="#c5cfe8" d="M 455.5,391.5 C 455.573,393.027 454.906,394.027 453.5,394.5C 453.427,392.973 454.094,391.973 455.5,391.5 Z"/></g>
<g><path style="opacity:0.345" fill="#f9f7ed" d="M 39.5,394.5 C 40.8333,395.167 40.8333,395.167 39.5,394.5 Z"/></g>
<g><path style="opacity:1" fill="#6472a5" d="M 41.5,388.5 C 42.675,388.281 43.675,388.614 44.5,389.5C 45.9556,392.885 47.9556,395.885 50.5,398.5C 51.4287,399.689 51.762,401.022 51.5,402.5C 51.1667,402.5 50.8333,402.5 50.5,402.5C 48.8012,400.143 47.1345,397.81 45.5,395.5C 43.9019,393.302 42.5686,390.969 41.5,388.5 Z"/></g>
<g><path style="opacity:0.898" fill="#e9f1fe" d="M 45.5,395.5 C 44.8333,396.167 44.8333,396.167 45.5,395.5 Z"/></g>
<g><path style="opacity:0.898" fill="#e9eeee" d="M 42.5,397.5 C 43.8333,398.167 43.8333,398.167 42.5,397.5 Z"/></g>
<g><path style="opacity:1" fill="#34447e" d="M 73.5,383.5 C 80.471,391.475 87.471,399.475 94.5,407.5C 92.6916,407.509 91.0249,407.009 89.5,406C 87.6416,402.529 85.4749,399.362 83,396.5C 80.157,393.325 76.9903,390.491 73.5,388C 73.9662,386.701 73.9662,385.201 73.5,383.5 Z"/></g>
<g><path style="opacity:0.667" fill="#c8cce7" d="M 449.5,398.5 C 449.833,398.5 450.167,398.5 450.5,398.5C 450.5,399.167 450.5,399.833 450.5,400.5C 449.833,400.833 449.167,401.167 448.5,401.5C 448.557,400.391 448.89,399.391 449.5,398.5 Z"/></g>
<g><path style="opacity:0.8" fill="#ebeaf7" d="M 450.5,400.5 C 451.833,401.167 451.833,401.167 450.5,400.5 Z"/></g>
<g><path style="opacity:0.482" fill="#ecf1fb" d="M 50.5,402.5 C 49.8333,403.167 49.8333,403.167 50.5,402.5 Z"/></g>
<g><path style="opacity:0.071" fill="#f2f0f6" d="M 48.5,405.5 C 49.8333,406.167 49.8333,406.167 48.5,405.5 Z"/></g>
<g><path style="opacity:1" fill="#495595" d="M 449.5,398.5 C 448.89,399.391 448.557,400.391 448.5,401.5C 445.745,404.013 443.745,407.013 442.5,410.5C 439.5,412.833 436.833,415.5 434.5,418.5C 434.167,418.5 433.833,418.5 433.5,418.5C 431.762,412.073 434.095,409.406 440.5,410.5C 440.302,408.425 440.135,406.425 440,404.5C 440.561,405.022 441.228,405.355 442,405.5C 444.009,404.518 444.509,403.185 443.5,401.5C 445.289,399.967 447.289,398.967 449.5,398.5 Z"/></g>
<g><path style="opacity:1" fill="#e7eeeb" d="M 442.5,410.5 C 443.833,411.167 443.833,411.167 442.5,410.5 Z"/></g>
<g><path style="opacity:1" fill="#3a4a90" d="M 77.5,430.5 C 77.1667,430.5 76.8333,430.5 76.5,430.5C 75.1466,428.817 73.4799,427.484 71.5,426.5C 69.9228,423.95 67.9228,421.95 65.5,420.5C 65.6716,419.508 65.3382,418.842 64.5,418.5C 64.5,418.167 64.5,417.833 64.5,417.5C 66.8458,418.523 69.1791,419.523 71.5,420.5C 71.3398,418.801 71.5065,417.134 72,415.5C 72.8928,414.289 73.7261,414.289 74.5,415.5C 74.7265,417.671 75.0598,419.838 75.5,422C 74.6919,422.308 74.0253,422.808 73.5,423.5C 75.7337,425.381 77.067,427.715 77.5,430.5 Z"/></g>
<g><path style="opacity:0.898" fill="#c9d5ee" d="M 59.5,412.5 C 61.5,413.833 63.1667,415.5 64.5,417.5C 64.5,417.833 64.5,418.167 64.5,418.5C 62.66,416.832 60.66,415.332 58.5,414C 59.056,413.617 59.3893,413.117 59.5,412.5 Z"/></g>
<g><path style="opacity:0.267" fill="#edf7f3" d="M 437.5,416.5 C 438.833,417.167 438.833,417.167 437.5,416.5 Z"/></g>
<g><path style="opacity:0.267" fill="#edfdfe" d="M 434.5,418.5 C 435.833,419.167 435.833,419.167 434.5,418.5 Z"/></g>
<g><path style="opacity:1" fill="#e6f3fe" d="M 433.5,419.5 C 433.833,419.5 434.167,419.5 434.5,419.5C 434.5,419.833 434.5,420.167 434.5,420.5C 434.167,420.167 433.833,419.833 433.5,419.5 Z"/></g>
<g><path style="opacity:0.62" fill="#eff6eb" d="M 65.5,420.5 C 64.8333,421.167 64.8333,421.167 65.5,420.5 Z"/></g>
<g><path style="opacity:0.667" fill="#eaf3f5" d="M 434.5,420.5 C 435.833,421.167 435.833,421.167 434.5,420.5 Z"/></g>
<g><path style="opacity:0.071" fill="#fefdef" d="M 64.5,421.5 C 63.8333,422.167 63.8333,422.167 64.5,421.5 Z"/></g>
<g><path style="opacity:1" fill="#eeefe6" d="M 437.5,421.5 C 438.833,422.167 438.833,422.167 437.5,421.5 Z"/></g>
<g><path style="opacity:0.071" fill="#f0f8ef" d="M 68.5,425.5 C 67.8333,424.167 67.8333,424.167 68.5,425.5 Z"/></g>
<g><path style="opacity:0.345" fill="#f4fded" d="M 68.5,425.5 C 69.8333,426.167 69.8333,426.167 68.5,425.5 Z"/></g>
<g><path style="opacity:0.267" fill="#f9faed" d="M 430.5,425.5 C 431.833,426.167 431.833,426.167 430.5,425.5 Z"/></g>
<g><path style="opacity:0.208" fill="#eef7f8" d="M 71.5,426.5 C 70.8333,427.167 70.8333,427.167 71.5,426.5 Z"/></g>
<g><path style="opacity:0.4" fill="#f5f8ec" d="M 430.5,426.5 C 429.833,427.167 429.833,427.167 430.5,426.5 Z"/></g>
<g><path style="opacity:0.8" fill="#e8f0ff" d="M 429.5,423.5 C 428.833,426.167 427.167,427.833 424.5,428.5C 425.833,426.5 427.5,424.833 429.5,423.5 Z"/></g>
<g><path style="opacity:1" fill="#f2f3e8" d="M 72.5,429.5 C 73.8333,430.167 73.8333,430.167 72.5,429.5 Z"/></g>
<g><path style="opacity:1" fill="#334690" d="M 433.5,418.5 C 433.5,418.833 433.5,419.167 433.5,419.5C 432.167,419.833 432.167,420.167 433.5,420.5C 432.205,421.488 430.872,422.488 429.5,423.5C 427.5,424.833 425.833,426.5 424.5,428.5C 423.833,429.5 423.167,430.5 422.5,431.5C 421.833,431.5 421.5,431.833 421.5,432.5C 420.222,432.782 419.222,433.449 418.5,434.5C 418.167,434.5 417.833,434.5 417.5,434.5C 417.604,431.91 416.937,429.577 415.5,427.5C 415.833,425.833 416.833,424.833 418.5,424.5C 419.452,422.955 419.785,421.288 419.5,419.5C 422.727,419.22 425.393,417.887 427.5,415.5C 429.511,416.519 431.511,417.519 433.5,418.5 Z"/></g>
<g><path style="opacity:0.8" fill="#f2f5e9" d="M 426.5,429.5 C 427.833,430.167 427.833,430.167 426.5,429.5 Z"/></g>
<g><path style="opacity:1" fill="#f2ffe7" d="M 63.5,429.5 C 65.337,429.639 65.6704,430.306 64.5,431.5C 63.7025,431.043 63.3691,430.376 63.5,429.5 Z"/></g>
<g><path style="opacity:1" fill="#a2accf" d="M 76.5,430.5 C 76.8333,430.5 77.1667,430.5 77.5,430.5C 79.1667,431.5 80.5,432.833 81.5,434.5C 79.2512,433.92 77.5846,432.587 76.5,430.5 Z"/></g>
<g><path style="opacity:0.133" fill="#f9fcee" d="M 426.5,430.5 C 425.833,431.167 425.833,431.167 426.5,430.5 Z"/></g>
<g><path style="opacity:0.267" fill="#edf3f8" d="M 422.5,431.5 C 423.833,432.167 423.833,432.167 422.5,431.5 Z"/></g>
<g><path style="opacity:1" fill="#e0e6eb" d="M 421.5,432.5 C 421.833,432.5 422.167,432.5 422.5,432.5C 422.315,433.17 421.981,433.17 421.5,432.5 Z"/></g>
<g><path style="opacity:0.267" fill="#cfdded" d="M 417.5,434.5 C 417.833,434.5 418.167,434.5 418.5,434.5C 418.027,435.906 417.027,436.573 415.5,436.5C 415.833,435.5 416.5,434.833 417.5,434.5 Z"/></g>
<g><path style="opacity:0.933" fill="#eff1e8" d="M 421.5,435.5 C 422.833,436.167 422.833,436.167 421.5,435.5 Z"/></g>
<g><path style="opacity:0.482" fill="#ecf5f7" d="M 82.5,436.5 C 81.8333,437.167 81.8333,437.167 82.5,436.5 Z"/></g>
<g><path style="opacity:1" fill="#f0f1e6" d="M 81.5,437.5 C 80.8333,438.167 80.8333,438.167 81.5,437.5 Z"/></g>
<g><path style="opacity:0.482" fill="#dbe3fa" d="M 83.5,436.5 C 84.5,436.833 85.1667,437.5 85.5,438.5C 84.1667,438.5 83.5,437.833 83.5,436.5 Z"/></g>
<g><path style="opacity:0.267" fill="#f3f7ed" d="M 418.5,437.5 C 419.833,438.167 419.833,438.167 418.5,437.5 Z"/></g>
<g><path style="opacity:1" fill="#616d9e" d="M 87.5,439.5 C 91.0674,440.068 93.4007,442.068 94.5,445.5C 92.326,445.25 90.6594,444.25 89.5,442.5C 88.8333,441.5 88.1667,440.5 87.5,439.5 Z"/></g>
<g><path style="opacity:1" fill="#586397" d="M 415.5,436.5 C 411.485,440.513 407.152,444.179 402.5,447.5C 401.391,447.557 400.391,447.89 399.5,448.5C 401.539,444.975 404.539,442.642 408.5,441.5C 409.386,437.963 411.719,436.296 415.5,436.5 Z"/></g>
<g><path style="opacity:0.482" fill="#ecf7f8" d="M 89.5,442.5 C 88.8333,443.167 88.8333,443.167 89.5,442.5 Z"/></g>
<g><path style="opacity:0.267" fill="#edf3f8" d="M 410.5,442.5 C 411.833,443.167 411.833,443.167 410.5,442.5 Z"/></g>
<g><path style="opacity:1" fill="#eef3e4" d="M 413.5,442.5 C 414.833,443.167 414.833,443.167 413.5,442.5 Z"/></g>
<g><path style="opacity:0.071" fill="#f5f5ef" d="M 87.5,444.5 C 88.8333,445.167 88.8333,445.167 87.5,444.5 Z"/></g>
<g><path style="opacity:1" fill="#bdbed9" d="M 402.5,447.5 C 402.027,448.906 401.027,449.573 399.5,449.5C 399.5,449.167 399.5,448.833 399.5,448.5C 400.391,447.89 401.391,447.557 402.5,447.5 Z"/></g>
<g><path style="opacity:1" fill="#d9e8fa" d="M 398.5,450.5 C 398.179,452.048 397.179,452.715 395.5,452.5C 396.29,451.599 397.29,450.932 398.5,450.5 Z"/></g>
<g><path style="opacity:0.62" fill="#eff3eb" d="M 97.5,453.5 C 96.8333,452.167 96.8333,452.167 97.5,453.5 Z"/></g>
<g><path style="opacity:0.071" fill="#f2f4ef" d="M 97.5,453.5 C 98.2389,453.369 98.9056,453.536 99.5,454C 98.5632,454.692 97.8966,454.525 97.5,453.5 Z"/></g>
<g><path style="opacity:1" fill="#5a669a" d="M 98.5,448.5 C 106.947,453.109 115.281,457.942 123.5,463C 124.252,463.671 124.586,464.504 124.5,465.5C 124.5,465.833 124.5,466.167 124.5,466.5C 124.565,466.938 124.399,467.272 124,467.5C 123.722,466.584 123.222,465.918 122.5,465.5C 121.71,464.599 120.71,463.932 119.5,463.5C 118.564,462.026 117.23,461.026 115.5,460.5C 114.167,460.167 112.833,459.833 111.5,459.5C 111.5,459.167 111.5,458.833 111.5,458.5C 111.167,457.5 110.5,456.833 109.5,456.5C 107.236,455.419 105.069,454.085 103,452.5C 102.667,452.833 102.333,453.167 102,453.5C 101.003,451.677 99.8361,450.01 98.5,448.5 Z"/></g>
<g><path style="opacity:0.667" fill="#d5e1f6" d="M 394.5,453.5 C 394.027,454.906 393.027,455.573 391.5,455.5C 391.973,454.094 392.973,453.427 394.5,453.5 Z"/></g>
<g><path style="opacity:0.071" fill="#eff3f7" d="M 104.5,455.5 C 105.833,456.167 105.833,456.167 104.5,455.5 Z"/></g>
<g><path style="opacity:0.208" fill="#f8f6ee" d="M 104.5,456.5 C 103.833,457.167 103.833,457.167 104.5,456.5 Z"/></g>
<g><path style="opacity:0.533" fill="#dfecfc" d="M 391.5,455.5 C 391.179,457.048 390.179,457.715 388.5,457.5C 389.29,456.599 390.29,455.932 391.5,455.5 Z"/></g>
<g><path style="opacity:1" fill="#d3e3f5" d="M 109.5,456.5 C 110.5,456.833 111.167,457.5 111.5,458.5C 110.167,458.5 109.5,457.833 109.5,456.5 Z"/></g>
<g><path style="opacity:0.482" fill="#ecf2f7" d="M 111.5,459.5 C 110.833,460.167 110.833,460.167 111.5,459.5 Z"/></g>
<g><path style="opacity:0.345" fill="#f2f2ed" d="M 108.5,460.5 C 109.833,461.167 109.833,461.167 108.5,460.5 Z"/></g>
<g><path style="opacity:0.208" fill="#fbf8ee" d="M 111.5,462.5 C 110.833,461.167 110.833,461.167 111.5,462.5 Z"/></g>
<g><path style="opacity:0.208" fill="#d9e8f7" d="M 115.5,460.5 C 117.23,461.026 118.564,462.026 119.5,463.5C 117.368,463.446 116.035,462.446 115.5,460.5 Z"/></g>
<g><path style="opacity:0.133" fill="#f1eff5" d="M 388.5,461.5 C 389.833,462.167 389.833,462.167 388.5,461.5 Z"/></g>
<g><path style="opacity:0.208" fill="#fcfded" d="M 111.5,462.5 C 112.363,461.537 113.03,461.537 113.5,462.5C 112.743,463.773 112.077,463.773 111.5,462.5 Z"/></g>
<g><path style="opacity:0.4" fill="#fcffec" d="M 384.5,462.5 C 385.833,463.167 385.833,463.167 384.5,462.5 Z"/></g>
<g><path style="opacity:1" fill="#566395" d="M 383.5,460.5 C 377.461,465.055 370.461,469.055 362.5,472.5C 365.614,468.68 369.447,465.68 374,463.5C 376.958,461.767 380.125,460.767 383.5,460.5 Z"/></g>
<g><path style="opacity:0.071" fill="#eff5fe" d="M 122.5,465.5 C 121.833,466.167 121.833,466.167 122.5,465.5 Z"/></g>
<g><path style="opacity:1" fill="#32458c" d="M 175.5,488.5 C 170.466,487.602 165.799,485.935 161.5,483.5C 159.898,481.926 157.898,481.259 155.5,481.5C 152.833,480.5 150.167,479.5 147.5,478.5C 146.329,477.655 144.995,476.989 143.5,476.5C 143.027,475.094 142.027,474.427 140.5,474.5C 140.5,474.167 140.5,473.833 140.5,473.5C 143.469,474.329 146.469,474.495 149.5,474C 149.833,473.667 150.167,473.333 150.5,473C 145.676,470.219 140.509,468.053 135,466.5C 134.5,466.833 134,467.167 133.5,467.5C 134.127,468.417 134.461,469.417 134.5,470.5C 133.833,470.5 133.167,470.5 132.5,470.5C 129.605,469.601 126.938,468.267 124.5,466.5C 124.5,466.167 124.5,465.833 124.5,465.5C 127.828,464.512 131.161,463.512 134.5,462.5C 136.619,462.598 138.286,463.431 139.5,465C 144.039,465.253 148.539,465.753 153,466.5C 154.587,467.337 155.42,468.67 155.5,470.5C 153.895,472.136 152.561,473.969 151.5,476C 151.833,476.833 152.167,477.667 152.5,478.5C 160.238,480.683 167.904,483.017 175.5,485.5C 175.5,486.5 175.5,487.5 175.5,488.5 Z"/></g>
<g><path style="opacity:1" fill="#273b93" d="M 140.5,473.5 C 139.167,473.167 137.833,472.833 136.5,472.5C 136.167,472.5 135.833,472.5 135.5,472.5C 135.167,471.833 134.833,471.167 134.5,470.5C 134.461,469.417 134.127,468.417 133.5,467.5C 134,467.167 134.5,466.833 135,466.5C 140.509,468.053 145.676,470.219 150.5,473C 150.167,473.333 149.833,473.667 149.5,474C 146.469,474.495 143.469,474.329 140.5,473.5 Z"/></g>
<g><path style="opacity:0.071" fill="#f4fdef" d="M 127.5,470.5 C 128.833,471.167 128.833,471.167 127.5,470.5 Z"/></g>
<g><path style="opacity:0.482" fill="#d7e1f1" d="M 132.5,470.5 C 133.167,470.5 133.833,470.5 134.5,470.5C 134.833,471.167 135.167,471.833 135.5,472.5C 133.973,472.573 132.973,471.906 132.5,470.5 Z"/></g>
<g><path style="opacity:1" fill="#293d85" d="M 175.5,458.5 C 222.291,473.688 269.291,474.355 316.5,460.5C 315.859,461.482 315.193,462.482 314.5,463.5C 310.873,464.153 307.54,465.487 304.5,467.5C 305.025,468.192 305.692,468.692 306.5,469C 297.871,467.338 289.204,467.838 280.5,470.5C 288.472,471.171 296.472,471.171 304.5,470.5C 304.5,471.5 304.5,472.5 304.5,473.5C 299.57,473.803 294.737,473.469 290,472.5C 287.753,473.98 285.253,474.647 282.5,474.5C 276.834,473.932 271.334,472.932 266,471.5C 250.159,472.731 234.326,472.564 218.5,471C 202.817,466.631 186.817,464.131 170.5,463.5C 172.972,462.104 175.638,461.27 178.5,461C 177.058,460.623 176.058,459.79 175.5,458.5 Z"/></g>
<g><path style="opacity:1" fill="#c5d2eb" d="M 136.5,472.5 C 137.833,472.833 139.167,473.167 140.5,473.5C 140.5,473.833 140.5,474.167 140.5,474.5C 138.62,474.771 137.287,474.104 136.5,472.5 Z"/></g>
<g><path style="opacity:1" fill="#6d7bac" d="M 360.5,473.5 C 358.211,475.387 355.545,476.721 352.5,477.5C 353.234,476.292 353.567,474.959 353.5,473.5C 355.833,473.5 358.167,473.5 360.5,473.5 Z"/></g>
<g><path style="opacity:1" fill="#d1dcef" d="M 140.5,474.5 C 142.027,474.427 143.027,475.094 143.5,476.5C 141.973,476.573 140.973,475.906 140.5,474.5 Z"/></g>
<g><path style="opacity:0.933" fill="#e8efea" d="M 358.5,476.5 C 359.833,477.167 359.833,477.167 358.5,476.5 Z"/></g>
<g><path style="opacity:0.267" fill="#f0eef4" d="M 366.5,476.5 C 367.833,477.167 367.833,477.167 366.5,476.5 Z"/></g>
<g><path style="opacity:0.898" fill="#e9f4fe" d="M 147.5,478.5 C 146.833,479.167 146.833,479.167 147.5,478.5 Z"/></g>
<g><path style="opacity:1" fill="#8897bd" d="M 351.5,477.5 C 351.396,479.973 350.396,480.639 348.5,479.5C 346.742,480.128 345.242,481.128 344,482.5C 343.601,482.272 343.435,481.938 343.5,481.5C 345.477,479.047 348.144,477.714 351.5,477.5 Z"/></g>
<g><path style="opacity:1" fill="#929ec8" d="M 155.5,481.5 C 157.898,481.259 159.898,481.926 161.5,483.5C 159.102,483.741 157.102,483.074 155.5,481.5 Z"/></g>
<g><path style="opacity:1" fill="#d2dcf5" d="M 342.5,481.5 C 341.655,483.762 340.322,484.429 338.5,483.5C 339.514,482.326 340.847,481.66 342.5,481.5 Z"/></g>
<g><path style="opacity:1" fill="#7782b4" d="M 335.5,484.5 C 331.784,486.405 327.784,487.739 323.5,488.5C 326.687,485.075 330.687,483.741 335.5,484.5 Z"/></g>
<g><path style="opacity:0.482" fill="#f0f4ec" d="M 158.5,485.5 C 159.833,486.167 159.833,486.167 158.5,485.5 Z"/></g>
<g><path style="opacity:1" fill="#505d95" d="M 176.5,488.5 C 179.518,488.335 182.518,488.502 185.5,489C 187.76,489.549 189.426,490.716 190.5,492.5C 188.193,492.014 186.027,492.014 184,492.5C 181.583,490.872 179.083,489.539 176.5,488.5 Z"/></g>
<g><path style="opacity:1" fill="#6470a2" d="M 322.5,488.5 C 318.499,490.589 314.165,491.922 309.5,492.5C 309.577,491.25 310.244,490.417 311.5,490C 315.114,489.064 318.78,488.564 322.5,488.5 Z"/></g>
<g><path style="opacity:0.345" fill="#f8f9ec" d="M 175.5,492.5 C 175.897,491.475 176.563,491.308 177.5,492C 176.906,492.464 176.239,492.631 175.5,492.5 Z"/></g>
<g><path style="opacity:0.208" fill="#f2f6ee" d="M 179.5,492.5 C 180.833,493.167 180.833,493.167 179.5,492.5 Z"/></g>
<g><path style="opacity:1" fill="#727dab" d="M 309.5,492.5 C 305.027,493.867 300.36,494.867 295.5,495.5C 296.347,494.034 297.68,493.2 299.5,493C 302.817,492.502 306.15,492.335 309.5,492.5 Z"/></g>
<g><path style="opacity:1" fill="#3c4c90" d="M 190.5,492.5 C 206.626,493.661 222.46,495.327 238,497.5C 239.326,497.245 240.326,496.578 241,495.5C 241.317,497.301 241.984,497.634 243,496.5C 244.31,497.897 245.81,498.897 247.5,499.5C 241.5,499.5 235.5,499.5 229.5,499.5C 225.979,498.693 222.312,498.026 218.5,497.5C 208.857,496.894 199.524,495.228 190.5,492.5 Z"/></g>
<g><path style="opacity:0.208" fill="#ebfcfe" d="M 218.5,497.5 C 222.312,498.026 225.979,498.693 229.5,499.5C 225.167,499.5 220.833,499.5 216.5,499.5C 217.167,498.833 217.833,498.167 218.5,497.5 Z"/></g>
<g><path style="opacity:0.7" fill="#d1e3f2" d="M 279.5,497.5 C 278.833,498.167 278.167,498.833 277.5,499.5C 274.167,499.5 270.833,499.5 267.5,499.5C 271.267,498.205 275.267,497.539 279.5,497.5 Z"/></g>
</svg>
