<!DOCTYPE svg PUBLIC "-//W3C//DTD SVG 20010904//EN" "http://www.w3.org/TR/2001/REC-SVG-20010904/DTD/svg10.dtd">
<svg version="1.0" xmlns="http://www.w3.org/2000/svg" width="2480px" height="2480px" viewBox="0 0 12000 12000" preserveAspectRatio="xMidYMid meet">
<g id="layer101" fill="#ff0000" stroke="none">
 <path d="M5850 8410 l0 -950 -2590 0 -2590 0 0 -1460 0 -1460 2590 0 2590 0 2 -950 3 -949 45 28 c25 16 774 469 1665 1006 891 538 1729 1043 1862 1124 133 80 633 382 1112 671 479 289 871 527 870 530 0 3 -165 104 -367 226 -202 122 -1082 653 -1957 1181 -1978 1194 -2070 1250 -2125 1283 -25 15 -285 172 -577 348 l-533 322 0 -950z"/>
 </g>
<g id="layer102" fill="#ffffff" stroke="none">
 <path d="M6350 7711 l0 -751 -2590 0 -2590 0 0 -960 0 -960 2590 0 2590 0 0 -751 c0 -711 1 -751 18 -744 14 5 490 292 2342 1410 129 78 568 343 975 589 407 245 741 450 743 454 1 4 -105 72 -235 151 -131 79 -344 208 -473 286 -746 450 -2975 1796 -3141 1896 -108 65 -204 121 -213 125 -15 6 -16 -54 -16 -745z"/>
 </g>

</svg>