<!DOCTYPE svg PUBLIC "-//W3C//DTD SVG 20010904//EN" "http://www.w3.org/TR/2001/REC-SVG-20010904/DTD/svg10.dtd">
<svg version="1.0" xmlns="http://www.w3.org/2000/svg" width="377px" height="377px" viewBox="0 0 3770 3770" preserveAspectRatio="xMidYMid meet">
<g id="layer101" fill="#ff0000" stroke="none">
 <path d="M0 1885 l0 -1885 1885 0 1885 0 0 1885 0 1885 -1885 0 -1885 0 0 -1885z"/>
 </g>
<g id="layer102" fill="#ffffff" stroke="none">
 <path d="M0 1885 l0 -1885 1885 0 1885 0 0 1885 0 1885 -1885 0 -1885 0 0 -1885z m3730 5 l0 -1860 -1850 0 -1850 0 0 1860 0 1860 1850 0 1850 0 0 -1860z"/>
 <path d="M1722 3478 l-152 -113 80 -3 80 -3 0 -309 0 -310 150 0 150 0 0 310 0 309 80 3 80 3 -147 108 c-80 60 -151 111 -157 113 -6 2 -80 -46 -164 -108z"/>
 <path d="M574 2405 c-155 -34 -246 -122 -290 -282 -13 -47 -17 -134 -21 -465 l-6 -408 97 0 96 0 0 393 c0 426 4 464 54 529 41 55 86 72 198 76 117 5 179 -12 227 -62 61 -63 64 -87 69 -533 l3 -403 90 0 89 0 0 378 c0 207 -4 404 -9 437 -35 233 -191 356 -451 354 -47 0 -113 -7 -146 -14z"/>
 <path d="M1820 2405 c-280 -63 -456 -310 -436 -611 17 -271 157 -468 383 -540 26 -8 98 -18 158 -21 92 -5 124 -2 192 15 90 23 172 69 216 122 36 43 84 136 92 182 7 36 7 37 -37 48 -23 6 -58 15 -77 20 -19 5 -35 8 -36 7 -1 -1 -9 -23 -19 -49 -44 -120 -128 -178 -268 -186 -220 -13 -361 93 -407 306 -23 111 -7 283 35 364 30 58 102 124 167 154 50 23 80 29 157 32 114 5 182 -11 275 -63 l66 -36 -3 -92 -3 -92 -167 -3 -168 -2 0 -80 0 -80 255 0 255 0 0 220 0 220 -42 31 c-135 97 -257 140 -413 145 -73 3 -132 -1 -175 -11z"/>
 <path d="M2945 2405 c-90 -20 -145 -47 -206 -103 -63 -58 -104 -137 -119 -229 -5 -31 -8 -58 -6 -60 2 -2 41 -4 87 -6 l83 -2 7 42 c16 89 80 158 174 188 81 25 233 18 298 -14 97 -48 129 -154 66 -225 -36 -42 -90 -64 -279 -111 -230 -58 -321 -110 -367 -212 -33 -72 -30 -183 7 -256 59 -117 198 -187 372 -187 215 0 370 91 418 247 11 36 20 78 20 94 0 28 -2 29 -47 29 -27 0 -64 3 -84 6 l-35 6 -17 -59 c-32 -117 -94 -156 -249 -156 -85 0 -103 3 -151 27 -66 32 -92 76 -84 138 10 73 45 93 280 154 253 66 348 118 398 221 34 71 33 188 -2 263 -47 99 -142 171 -270 205 -66 18 -214 18 -294 0z"/>
 <path d="M1730 680 l0 -309 -79 -3 -80 -3 148 -110 c82 -60 154 -110 161 -110 7 0 79 50 161 110 l148 110 -80 3 -79 3 0 309 0 310 -150 0 -150 0 0 -310z"/>
 </g>

</svg>