<?xml version="1.0" encoding="UTF-8"?>
<svg version="1.1" xmlns="http://www.w3.org/2000/svg" width="496" height="496">
<path d="M0 0 C163.68 0 327.36 0 496 0 C496 163.68 496 327.36 496 496 C332.32 496 168.64 496 0 496 C0 332.32 0 168.64 0 0 Z " fill="#FEFEFE" transform="translate(0,0)"/>
<path d="M0 0 C8.47713524 5.7976893 13.38751864 13.7788994 18.25 22.5625 C18.98293169 23.85350984 19.71774725 25.1434518 20.4543457 26.43237305 C21.94169384 29.03944647 23.42010263 31.65125345 24.89111328 34.26757812 C27.92513655 39.65364708 31.05943281 44.98069859 34.1875 50.3125 C35.33139662 52.27304822 36.47462952 54.23398385 37.6171875 56.1953125 C38.17631836 57.15469727 38.73544922 58.11408203 39.31152344 59.10253906 C40.43717448 61.03417969 41.56282552 62.96582031 42.68847656 64.89746094 C49.97258999 77.39590801 57.27319725 89.88449894 64.59243774 102.36239624 C69.97234895 111.53448913 75.33734887 120.7151275 80.69140625 129.90234375 C85.28157972 137.77569368 89.88881408 145.63894745 94.5 153.5 C100.24429835 163.29275873 105.97495917 173.09329022 111.69140625 182.90234375 C116.28157986 190.77569394 120.88887184 198.63891337 125.5 206.5 C133.58598777 220.2856755 141.64162838 234.08890191 149.68847656 247.89746094 C156.97258999 260.39590801 164.27319725 272.88449894 171.59243774 285.36239624 C176.96802735 294.52712133 182.32936613 303.70000896 187.67822266 312.88037109 C190.89963504 318.4068789 194.12903775 323.928601 197.3671875 329.4453125 C197.7416803 330.08345886 198.1161731 330.72160522 198.50201416 331.37908936 C200.32187334 334.47992736 202.14260684 337.58024621 203.96484375 340.6796875 C207.4817766 346.66606808 210.97950123 352.66356043 214.4453125 358.6796875 C215.10289551 359.81905762 215.76047852 360.95842773 216.43798828 362.13232422 C219.16096183 367.13139383 219.65962248 371.40714461 219 377 C217.64169893 381.05161806 215.70893644 383.54748738 212.0625 385.875 C206.92133517 387.76359116 202.36768951 388.12601602 196.89745712 388.13142776 C196.19033244 388.1334804 195.48320776 388.13553303 194.75465506 388.13764787 C192.37920486 388.14331365 190.00381271 388.14186114 187.62835693 388.14044189 C185.91041346 388.14302577 184.19247059 388.14603899 182.47452855 388.1494453 C177.74874153 388.15751586 173.0229697 388.1593049 168.2971766 388.16004276 C163.20228941 388.1618932 158.1074101 388.16944046 153.01252747 388.17617798 C141.8700137 388.18976187 130.72750354 388.19578601 119.58498287 388.20018864 C112.62870902 388.20295077 105.67243655 388.20718805 98.71616364 388.21169281 C79.45927899 388.22388518 60.20239547 388.2341848 40.94550705 388.2375679 C39.71295282 388.23778747 38.48039859 388.23800703 37.21049424 388.23823325 C35.97498056 388.23845153 34.73946688 388.23866981 33.4665134 388.2388947 C30.9628644 388.23933817 28.4592154 388.23978473 25.95556641 388.24023438 C24.71366835 388.2404558 23.47177029 388.24067723 22.19223896 388.24090537 C2.06509008 388.24485413 -18.06202262 388.26231069 -38.18915752 388.2855939 C-58.84937743 388.30930106 -79.50957918 388.32176945 -100.16981292 388.32293582 C-111.77141398 388.3238529 -123.37296789 388.32961354 -134.97455597 388.34775543 C-144.8526735 388.36314777 -154.73072929 388.36828196 -164.60885653 388.36001733 C-169.64891596 388.35610787 -174.68885102 388.35705495 -179.72889519 388.37107468 C-184.34419417 388.38379555 -188.95927512 388.38263199 -193.57457373 388.37048396 C-195.24281232 388.36852384 -196.91106626 388.37161996 -198.57928327 388.38032833 C-217.65799459 388.47360433 -217.65799459 388.47360433 -224.5 383 C-228.03097839 378.29202882 -227.70248442 372.60553898 -227 367 C-225.5500299 362.70141607 -223.29651352 358.89161433 -221 355 C-220.33943604 353.86522217 -220.33943604 353.86522217 -219.66552734 352.70751953 C-216.98529757 348.10837733 -214.2753364 343.52770895 -211.546875 338.95703125 C-208.0756666 333.13961367 -204.65672477 327.29285392 -201.25 321.4375 C-196.07614548 312.55447228 -190.88777957 303.68007409 -185.6875 294.8125 C-185.15562576 293.90546326 -185.15562576 293.90546326 -184.61300659 292.98010254 C-181.71125395 288.03167256 -178.80883186 283.08363534 -175.90637207 278.13562012 C-165.91549112 261.1032493 -155.9421267 244.06089643 -146 227 C-138.15458515 213.53710477 -130.29405477 200.0832753 -122.4105835 186.64263916 C-115.25368097 174.44009423 -108.1226304 162.22258206 -101 150 C-90.33234843 131.69408778 -79.62645333 113.41085185 -68.90637207 95.13562012 C-66.37476856 90.81976349 -63.84342603 86.50375396 -61.3125 82.1875 C-60.95731293 81.58177155 -60.60212585 80.97604309 -60.23617554 80.35195923 C-55.48038711 72.24068957 -50.73531941 64.12324007 -46 56 C-44.87370444 54.07030869 -43.74740226 52.14062125 -42.62109375 50.2109375 C-40.32053599 46.2684105 -38.02588135 42.32252883 -35.73550415 38.37408447 C-34.21901233 35.76182206 -32.69880323 33.15173392 -31.17797852 30.54199219 C-30.44755286 29.28672796 -29.71865205 28.03057491 -28.99145508 26.7734375 C-11.30101972 -3.80119382 -11.30101972 -3.80119382 0 0 Z " fill="#F5B227" transform="translate(253,60)"/>
<path d="M0 0 C7.09351156 5.1312365 10.87048558 12.66411351 14.95703125 20.21484375 C16.1960843 22.46585334 17.4370179 24.71582866 18.6796875 26.96484375 C19.30762207 28.10308594 19.93555664 29.24132813 20.58251953 30.4140625 C23.44855389 35.55635077 26.41459209 40.63795733 29.39453125 45.71484375 C30.56262805 47.70825831 31.73059571 49.70174854 32.8984375 51.6953125 C33.48254395 52.69224121 34.06665039 53.68916992 34.66845703 54.71630859 C43.39154488 69.64533883 51.96697724 84.66007626 60.53311157 99.67950439 C65.7168825 108.76530253 70.95897146 117.81555416 76.24072266 126.84472656 C82.39661509 137.37128519 88.48376103 147.93715091 94.5703125 158.50390625 C96.43671505 161.74209535 98.30576888 164.97873813 100.17578125 168.21484375 C106.9952423 180.01851536 113.78170271 191.84013701 120.53439331 203.68206787 C125.6903857 212.72063803 130.91023798 221.72011513 136.16821289 230.69970703 C140.99575961 238.95658017 145.74251796 247.25828406 150.47753906 255.56835938 C155.09205929 263.66478508 159.7479838 271.73540884 164.45703125 279.77734375 C169.86059585 289.00534904 175.18355486 298.27729045 180.47753906 307.56835938 C185.09205977 315.66478593 189.74806919 323.73535832 194.45703125 331.77734375 C200.17078106 341.53721339 205.80356733 351.34185974 211.3972168 361.17089844 C214.80104979 367.14884676 218.22669173 373.11243098 221.69921875 379.05078125 C222.38949781 380.23448324 223.07968472 381.41823896 223.76977539 382.60205078 C225.06592602 384.82216962 226.36690213 387.03948106 227.67358398 389.25341797 C228.25825439 390.25646973 228.8429248 391.25952148 229.4453125 392.29296875 C229.95618408 393.16211914 230.46705566 394.03126953 230.9934082 394.92675781 C242.36121493 417.06695987 235.45703125 431.98921977 235.45703125 462.77734375 C71.77703125 462.77734375 -91.90296875 462.77734375 -260.54296875 462.77734375 C-260.54296875 402.56029782 -260.54296875 402.56029782 -249.10546875 383.52734375 C-247.85529093 381.41546984 -246.60529604 379.30348763 -245.35546875 377.19140625 C-244.40414062 375.59280762 -244.40414062 375.59280762 -243.43359375 373.96191406 C-240.46302547 368.9582864 -237.53436405 363.93044018 -234.60546875 358.90234375 C-233.74417358 357.42652832 -233.74417358 357.42652832 -232.86547852 355.92089844 C-227.93061475 347.46034791 -223.03749526 338.97598688 -218.14868164 330.48876953 C-213.96969252 323.23812338 -209.76558052 316.00266196 -205.54296875 308.77734375 C-198.15881982 296.13990921 -190.8480674 283.46059077 -183.54296875 270.77734375 C-175.66634286 257.10180061 -167.77176783 243.43773417 -159.81005859 229.81152344 C-153.00709252 218.1607519 -146.27654689 206.46830631 -139.54296875 194.77734375 C-131.66716151 181.10322195 -123.77441029 167.43997401 -115.81225586 153.81591797 C-111.53051958 146.48421896 -107.28076868 139.13451394 -103.04296875 131.77734375 C-98.23445031 123.42935916 -93.40391192 115.09491191 -88.54296875 106.77734375 C-81.15881982 94.13990921 -73.8480674 81.46059077 -66.54296875 68.77734375 C-62.16562525 61.17731923 -57.78579008 53.57875741 -53.39697266 45.98535156 C-52.1536989 43.83409832 -50.91119458 41.68240024 -49.66943359 39.53027344 C-28.4457623 2.77369791 -28.4457623 2.77369791 -19.16796875 -2.59765625 C-11.90090927 -4.32790851 -6.6626459 -3.28160171 0 0 Z M-38.60546875 57.46484375 C-39.3559351 58.74945687 -40.10658948 60.03396016 -40.85742188 61.31835938 C-42.73859226 64.53755275 -44.6173039 67.75817187 -46.49493408 70.97943115 C-48.05058718 73.64816759 -49.60739188 76.31623198 -51.1640625 78.984375 C-52.85619929 81.88518093 -54.54808968 84.78612923 -56.23925781 87.6875 C-60.76670604 95.45324217 -65.30849225 103.21052706 -69.85546875 110.96484375 C-70.21041412 111.57016937 -70.5653595 112.175495 -70.93106079 112.79916382 C-73.83244648 117.74695335 -76.73451033 122.69434504 -79.63659668 127.64172363 C-89.62747763 144.67409445 -99.60084205 161.71644732 -109.54296875 178.77734375 C-117.3883836 192.24023898 -125.24891398 205.69406845 -133.13238525 219.13470459 C-140.28928778 231.33724952 -147.42033835 243.55476169 -154.54296875 255.77734375 C-165.21062032 274.08325597 -175.91651542 292.3664919 -186.63659668 310.64172363 C-195.47810473 325.71465309 -204.31395212 340.7907327 -213.109375 355.890625 C-215.52616963 360.03839547 -217.95209029 364.18068928 -220.3828125 368.3203125 C-221.01614502 369.40078857 -221.64947754 370.48126465 -222.30200195 371.59448242 C-223.50813248 373.65183211 -224.71617218 375.70806426 -225.92651367 377.76293945 C-233.64678251 390.37057584 -233.64678251 390.37057584 -234.54296875 404.77734375 C-232.97143507 408.54902459 -231.06582816 410.72234243 -227.54296875 412.77734375 C-222.62603482 414.4251028 -218.36881538 415.02825749 -213.19433022 415.03181934 C-212.48489785 415.03502582 -211.77546548 415.0382323 -211.04453516 415.04153594 C-208.67321248 415.04982093 -206.30214336 415.04391699 -203.93081665 415.03804016 C-202.21114606 415.04106153 -200.49147681 415.04495094 -198.77180994 415.04963273 C-194.05052146 415.05992333 -189.32930883 415.05772819 -184.60801411 415.05345213 C-179.51452119 415.05098685 -174.42104663 415.05999662 -169.32756042 415.06748962 C-159.35051717 415.08024412 -149.37350081 415.08202938 -139.39645077 415.07968936 C-131.28742343 415.07790689 -123.17840426 415.07965433 -115.0693779 415.0839138 C-113.9155992 415.08450899 -112.7618205 415.08510418 -111.5730788 415.08571741 C-109.22923212 415.08692915 -106.88538544 415.08814328 -104.54153876 415.08935978 C-82.55693971 415.10023821 -60.572356 415.09807139 -38.58775608 415.09197494 C-18.47366479 415.08680547 1.64037807 415.09806147 21.75445978 415.11707316 C42.40570606 415.13644299 63.05692942 415.14470906 83.70818484 415.1409499 C95.30304535 415.13903657 106.89786464 415.14153834 118.49271774 415.15566444 C128.36347178 415.16756831 138.23415923 415.16899428 148.10491417 415.15687428 C153.14093374 415.15097864 158.17683144 415.14990514 163.21284294 415.16187668 C167.82436666 415.17271174 172.4356664 415.16966041 177.04717954 415.15561499 C178.71401027 415.15296152 180.38085841 415.155355 182.04767208 415.16335086 C196.14609706 415.45624202 196.14609706 415.45624202 208.45703125 409.27734375 C211.39311143 405.60724352 212.00346348 402.20073432 211.90625 397.51953125 C209.86624586 385.06663639 199.57365061 372.36525047 193.22167969 361.7421875 C190.28869802 356.81438875 187.40425688 351.85849631 184.51953125 346.90234375 C183.93655273 345.90178955 183.35357422 344.90123535 182.75292969 343.87036133 C181.57170183 341.84291224 180.39071206 339.81532442 179.20996094 337.78759766 C171.14569602 323.93907587 163.06482017 310.10042205 154.95703125 296.27734375 C146.8711454 282.49160828 138.81540307 268.68844219 130.76855469 254.87988281 C123.48444126 242.38143574 116.183834 229.89284481 108.86459351 217.41494751 C104.05121173 209.20871826 99.24732747 200.99708014 94.45703125 192.77734375 C89.36514107 184.04096337 84.25946619 175.31274465 79.14453125 166.58984375 C78.61211319 165.68185532 78.61211319 165.68185532 78.06893921 164.75552368 C75.53200815 160.42924573 72.99457496 156.10326238 70.45703125 151.77734375 C59.53589525 133.1593607 48.63627545 114.52911792 37.76855469 95.87988281 C34.30809993 89.94226101 30.84537691 84.00597117 27.37988281 78.07128906 C26.01916538 75.74030891 24.65910635 73.40895371 23.29980469 71.07714844 C21.41255399 67.83999336 19.52294313 64.60422493 17.63198853 61.36923218 C16.90367919 60.12245722 16.17609154 58.87526034 15.4493103 57.62759399 C6.06636945 38.72882712 6.06636945 38.72882712 -9.61328125 26.078125 C-24.53413667 24.76157893 -32.527817 47.03156467 -38.60546875 57.46484375 Z " fill="#F6B329" transform="translate(260.54296875,33.22265625)"/>
<path d="M0 0 C8.47713524 5.7976893 13.38751864 13.7788994 18.25 22.5625 C18.98293169 23.85350984 19.71774725 25.1434518 20.4543457 26.43237305 C21.94169384 29.03944647 23.42010263 31.65125345 24.89111328 34.26757812 C27.92513655 39.65364708 31.05943281 44.98069859 34.1875 50.3125 C35.33139662 52.27304822 36.47462952 54.23398385 37.6171875 56.1953125 C38.17631836 57.15469727 38.73544922 58.11408203 39.31152344 59.10253906 C40.43717448 61.03417969 41.56282552 62.96582031 42.68847656 64.89746094 C49.97258999 77.39590801 57.27319725 89.88449894 64.59243774 102.36239624 C69.97234895 111.53448913 75.33734887 120.7151275 80.69140625 129.90234375 C85.28157972 137.77569368 89.88881408 145.63894745 94.5 153.5 C100.24429835 163.29275873 105.97495917 173.09329022 111.69140625 182.90234375 C116.28157986 190.77569394 120.88887184 198.63891337 125.5 206.5 C133.58598777 220.2856755 141.64162838 234.08890191 149.68847656 247.89746094 C156.97258999 260.39590801 164.27319725 272.88449894 171.59243774 285.36239624 C176.96802735 294.52712133 182.32936613 303.70000896 187.67822266 312.88037109 C190.89963504 318.4068789 194.12903775 323.928601 197.3671875 329.4453125 C197.7416803 330.08345886 198.1161731 330.72160522 198.50201416 331.37908936 C200.32187334 334.47992736 202.14260684 337.58024621 203.96484375 340.6796875 C207.4817766 346.66606808 210.97950123 352.66356043 214.4453125 358.6796875 C215.10289551 359.81905762 215.76047852 360.95842773 216.43798828 362.13232422 C219.16096183 367.13139383 219.65962248 371.40714461 219 377 C217.64169893 381.05161806 215.70893644 383.54748738 212.0625 385.875 C206.92133517 387.76359116 202.36768951 388.12601602 196.89745712 388.13142776 C196.19033244 388.1334804 195.48320776 388.13553303 194.75465506 388.13764787 C192.37920486 388.14331365 190.00381271 388.14186114 187.62835693 388.14044189 C185.91041346 388.14302577 184.19247059 388.14603899 182.47452855 388.1494453 C177.74874153 388.15751586 173.0229697 388.1593049 168.2971766 388.16004276 C163.20228941 388.1618932 158.1074101 388.16944046 153.01252747 388.17617798 C141.8700137 388.18976187 130.72750354 388.19578601 119.58498287 388.20018864 C112.62870902 388.20295077 105.67243655 388.20718805 98.71616364 388.21169281 C79.45927899 388.22388518 60.20239547 388.2341848 40.94550705 388.2375679 C39.71295282 388.23778747 38.48039859 388.23800703 37.21049424 388.23823325 C35.97498056 388.23845153 34.73946688 388.23866981 33.4665134 388.2388947 C30.9628644 388.23933817 28.4592154 388.23978473 25.95556641 388.24023438 C24.71366835 388.2404558 23.47177029 388.24067723 22.19223896 388.24090537 C2.06509008 388.24485413 -18.06202262 388.26231069 -38.18915752 388.2855939 C-58.84937743 388.30930106 -79.50957918 388.32176945 -100.16981292 388.32293582 C-111.77141398 388.3238529 -123.37296789 388.32961354 -134.97455597 388.34775543 C-144.8526735 388.36314777 -154.73072929 388.36828196 -164.60885653 388.36001733 C-169.64891596 388.35610787 -174.68885102 388.35705495 -179.72889519 388.37107468 C-184.34419417 388.38379555 -188.95927512 388.38263199 -193.57457373 388.37048396 C-195.24281232 388.36852384 -196.91106626 388.37161996 -198.57928327 388.38032833 C-217.65799459 388.47360433 -217.65799459 388.47360433 -224.5 383 C-228.03097839 378.29202882 -227.70248442 372.60553898 -227 367 C-225.5500299 362.70141607 -223.29651352 358.89161433 -221 355 C-220.33943604 353.86522217 -220.33943604 353.86522217 -219.66552734 352.70751953 C-216.98529757 348.10837733 -214.2753364 343.52770895 -211.546875 338.95703125 C-208.0756666 333.13961367 -204.65672477 327.29285392 -201.25 321.4375 C-196.07614548 312.55447228 -190.88777957 303.68007409 -185.6875 294.8125 C-185.15562576 293.90546326 -185.15562576 293.90546326 -184.61300659 292.98010254 C-181.71125395 288.03167256 -178.80883186 283.08363534 -175.90637207 278.13562012 C-165.91549112 261.1032493 -155.9421267 244.06089643 -146 227 C-138.15458515 213.53710477 -130.29405477 200.0832753 -122.4105835 186.64263916 C-115.25368097 174.44009423 -108.1226304 162.22258206 -101 150 C-90.33234843 131.69408778 -79.62645333 113.41085185 -68.90637207 95.13562012 C-66.37476856 90.81976349 -63.84342603 86.50375396 -61.3125 82.1875 C-60.95731293 81.58177155 -60.60212585 80.97604309 -60.23617554 80.35195923 C-55.48038711 72.24068957 -50.73531941 64.12324007 -46 56 C-44.87370444 54.07030869 -43.74740226 52.14062125 -42.62109375 50.2109375 C-40.32053599 46.2684105 -38.02588135 42.32252883 -35.73550415 38.37408447 C-34.21901233 35.76182206 -32.69880323 33.15173392 -31.17797852 30.54199219 C-30.44755286 29.28672796 -29.71865205 28.03057491 -28.99145508 26.7734375 C-11.30101972 -3.80119382 -11.30101972 -3.80119382 0 0 Z M-5 42 C-6.34278596 43.8215619 -6.34278596 43.8215619 -7.66015625 46.23046875 C-8.46610229 47.62978638 -8.46610229 47.62978638 -9.28833008 49.05737305 C-9.87380615 50.09031494 -10.45928223 51.12325684 -11.0625 52.1875 C-12.33798612 54.40656941 -13.61405249 56.62530538 -14.890625 58.84375 C-15.22439651 59.42617966 -15.55816803 60.00860931 -15.90205383 60.60868835 C-19.31064006 66.55646063 -22.77732064 72.46955204 -26.25045776 78.37979126 C-27.68674728 80.82450864 -29.1209481 83.27044856 -30.55516052 85.71638489 C-31.64548155 87.57583941 -32.73604659 89.43515064 -33.82666016 91.29443359 C-37.03234269 96.75984483 -40.23637859 102.22622131 -43.44052124 107.6925354 C-45.21027838 110.71173078 -46.98014478 113.73086211 -48.75 116.75 C-49.45833386 117.95833303 -50.16666719 119.16666636 -50.875 120.375 C-63.625 142.125 -76.375 163.875 -89.125 185.625 C-89.47560989 186.22309982 -89.82621979 186.82119965 -90.18745422 187.43742371 C-90.89593806 188.64601258 -91.60442398 189.85460022 -92.31291199 191.06318665 C-94.08145979 194.08010023 -95.84997154 197.09703494 -97.6184082 200.11401367 C-100.83314451 205.59831873 -104.04816477 211.08245644 -107.26449585 216.56582642 C-114.1884396 228.37017338 -121.10874869 240.17652225 -128 252 C-135.25325139 264.44456957 -142.53897878 276.87001202 -149.82666016 289.29443359 C-151.97224418 292.95246863 -154.11710419 296.61092777 -156.26171875 300.26953125 C-156.78742966 301.16636375 -156.78742966 301.16636375 -157.32376099 302.08131409 C-158.73206885 304.48384672 -160.14034461 306.88639817 -161.54858398 309.28897095 C-165.20493628 315.52699867 -168.8616963 321.76478552 -172.5206604 328.00128174 C-174.07696015 330.65397714 -175.63297325 333.30684063 -177.18896484 335.9597168 C-177.92791686 337.21940358 -178.66700797 338.47900878 -179.40625 339.73852539 C-181.05664866 342.5504983 -182.70523 345.36349815 -184.35009766 348.17871094 C-185.34978083 349.88814255 -186.35351727 351.59522443 -187.36474609 353.29785156 C-189.35879834 356.43609094 -189.35879834 356.43609094 -190 360 C-67.24 360 55.52 360 182 360 C180.49051538 356.22628845 178.99678908 353.07514865 176.98046875 349.59765625 C176.37710693 348.55399902 175.77374512 347.5103418 175.15209961 346.43505859 C174.50378174 345.32211426 173.85546387 344.20916992 173.1875 343.0625 C172.50835986 341.89154612 171.8294073 340.72048342 171.15063477 339.54931641 C166.42179378 331.4001154 161.64226735 323.280997 156.83764648 315.17626953 C152.94718946 308.61278545 149.09017655 302.03051854 145.25 295.4375 C140.05149603 286.51506421 134.8452677 277.59721798 129.625 268.6875 C129.26847351 268.07892151 128.91194702 267.47034302 128.5446167 266.84332275 C123.35155273 257.98163777 118.12240372 249.14213646 112.875 240.3125 C106.98190823 230.39399327 101.18462349 220.42405819 95.43530273 210.42163086 C90.95725203 202.63780332 86.41400418 194.89521627 81.83422852 187.17089844 C77.9452744 180.60899139 74.08904199 174.02872448 70.25 167.4375 C65.07568797 158.55473798 59.88778026 149.68007527 54.6875 140.8125 C54.33291718 140.20780884 53.97833435 139.60311768 53.61300659 138.98010254 C51.07570778 134.65318461 48.53791715 130.32655526 46 126 C43.10382563 121.06269995 40.20786706 116.12527352 37.3125 111.1875 C36.95731293 110.58177155 36.60212585 109.97604309 36.23617554 109.35195923 C30.92325416 100.2904674 25.62449719 91.22079464 20.33642578 82.14477539 C17.0281873 76.469213 13.71134262 70.7987866 10.38671875 65.1328125 C9.99565948 64.46626648 9.60460022 63.79972046 9.20169067 63.11297607 C7.27537341 59.82997319 5.34821489 56.54746779 3.41992188 53.265625 C2.72133601 52.07553149 2.02276743 50.88542784 1.32421875 49.6953125 C0.70635498 48.64359863 0.08849121 47.59188477 -0.5480957 46.50830078 C-1.40506922 45.02779869 -2.23497842 43.53004315 -3 42 C-3.66 42 -4.32 42 -5 42 Z " fill="#252020" transform="translate(253,60)"/>
<path d="M0 0 C0.33 0 0.66 0 1 0 C1 15.84 1 31.68 1 48 C-162.68 48 -326.36 48 -495 48 C-495 32.82 -495 17.64 -495 2 C-493 5 -493 5 -491.5 7.875 C-488.37654475 12.3719186 -484.1351811 14.36758031 -479 16 C-472.74253348 16.72641755 -466.52821943 16.67179092 -460.23605347 16.62818909 C-458.31921034 16.63323788 -456.40237194 16.64046928 -454.48554432 16.64968723 C-449.23309303 16.66858854 -443.98110833 16.65638754 -438.72866893 16.6389643 C-433.05853889 16.62558231 -427.38847674 16.64103031 -421.71835327 16.65278625 C-410.61703586 16.6711602 -399.51589452 16.66265238 -388.4145826 16.64469803 C-379.39313728 16.63067082 -370.37173975 16.6267795 -361.35028458 16.6301403 C-359.42413018 16.63085647 -359.42413018 16.63085647 -357.45906357 16.6315871 C-354.85043675 16.63261343 -352.24180993 16.63366879 -349.63318314 16.63475286 C-325.87300414 16.64357803 -302.11292914 16.62492976 -278.3527739 16.59422263 C-256.66727814 16.56635628 -234.98189452 16.56140195 -213.29638672 16.57641602 C-207.74198856 16.58023853 -202.1875904 16.58403334 -196.63319206 16.5875864 C-195.94935607 16.58802422 -195.26552008 16.58846203 -194.56096179 16.58891311 C-176.43306844 16.6001542 -158.30518728 16.59273037 -140.1772958 16.57970566 C-137.57889184 16.57786126 -134.98048787 16.57602653 -132.38208389 16.57420158 C-131.1036123 16.57328949 -129.82514071 16.5723774 -128.50792756 16.57143768 C-119.49564042 16.56583002 -110.48338164 16.56914154 -101.47109604 16.57574654 C-90.49071438 16.58347446 -79.51045327 16.57674632 -68.53009592 16.5515715 C-62.92708788 16.5390648 -57.32426764 16.53294431 -51.72125244 16.54411316 C-46.59295399 16.55414281 -41.46503036 16.54572283 -36.33677758 16.52253198 C-34.48096351 16.51736639 -32.62511595 16.51894583 -30.76931642 16.52792663 C-28.2467324 16.53911935 -25.72541616 16.52568701 -23.20290947 16.50615788 C-22.48236777 16.51523669 -21.76182607 16.52431551 -21.01944977 16.53366944 C-14.51013385 16.43543213 -9.26342401 14.26342401 -4.6875 9.6875 C-2.7119473 6.5412494 -1.35575832 3.45718372 0 0 Z " fill="#FEFEFC" transform="translate(495,448)"/>
<path d="M0 0 C4.04420651 1.77945087 7.46078487 4.39529673 11 7 C11 5.35 11 3.7 11 2 C11.99 1.67 12.98 1.34 14 1 C20.11111111 7.11111111 20.11111111 7.11111111 20.23046875 12.796875 C19.95267038 15.45243904 19.07540179 17.56865682 18 20 C19.13179688 19.4225 20.26359375 18.845 21.4296875 18.25 C22.91135207 17.49979009 24.39312873 16.74980153 25.875 16 C26.99455078 15.42765625 26.99455078 15.42765625 28.13671875 14.84375 C28.85214844 14.4828125 29.56757813 14.121875 30.3046875 13.75 C31.2944458 13.24726563 31.2944458 13.24726563 32.30419922 12.734375 C34 12 34 12 36 12 C36.09498779 12.74685059 36.18997559 13.49370117 36.2878418 14.26318359 C36.7305753 17.63741719 37.20853472 21.00572703 37.6875 24.375 C37.83638672 25.550625 37.98527344 26.72625 38.13867188 27.9375 C38.38520508 29.61972656 38.38520508 29.61972656 38.63671875 31.3359375 C38.77811279 32.37282715 38.91950684 33.4097168 39.06518555 34.47802734 C39.77194275 37.2480802 39.77194275 37.2480802 42.58520508 38.35400391 C43.3820874 38.56718262 44.17896973 38.78036133 45 39 C45.495 42.96 45.495 42.96 46 47 C46.62648438 46.71125 47.25296875 46.4225 47.8984375 46.125 C48.71570313 45.75375 49.53296875 45.3825 50.375 45 C51.18710938 44.62875 51.99921875 44.2575 52.8359375 43.875 C55 43 55 43 57 43 C57.33872513 44.41538717 57.67074624 45.83237963 58 47.25 C58.185625 48.03890625 58.37125 48.8278125 58.5625 49.640625 C59 52 59 52 59 56 C59.804375 56.020625 60.60875 56.04125 61.4375 56.0625 C66.63387284 57.42996654 70.24678958 60.19874849 74 64 C74.36532837 64.78859909 74.73065674 65.57719818 75.10705566 66.38969421 C76.75282033 69.63298396 78.20297487 71.64787107 81 74 C87.26833819 75.48985151 93.43765316 75.26340114 99.84765625 75.1171875 C101.70656507 75.10867904 103.56549518 75.10402922 105.42442322 75.10305786 C109.31298731 75.09074948 113.19923664 75.04547516 117.0871582 74.97412109 C122.06294519 74.8835097 127.03664105 74.85406517 132.01317692 74.84664726 C135.84899898 74.83777645 139.68438519 74.80714677 143.52001762 74.7688942 C145.35434842 74.75117757 147.1887253 74.73769446 149.02311897 74.72857285 C151.58919942 74.71041813 154.15342136 74.66558996 156.71899414 74.61279297 C157.47188721 74.61146362 158.22478027 74.61013428 159.00048828 74.60876465 C164.15408678 74.46291052 166.91208693 73.02983277 171 70 C173.9296875 69.77734375 173.9296875 69.77734375 176.875 69.9375 C181.06907448 69.77015538 182.5087324 69.48075116 185.5546875 66.5 C187.53679404 63.7349261 189.3380089 60.96714293 191 58 C190.38125 57.731875 189.7625 57.46375 189.125 57.1875 C187 56 187 56 185 53 C184.64732221 49.75536433 184.88825672 47.37820804 185.8125 44.25 C189.40329758 40.5566082 193.97184848 40.13212661 199 40 C202.1875 41.375 202.1875 41.375 204 43 C203.67 39.37 203.34 35.74 203 32 C204.97793521 31.63901937 206.95739573 31.28638652 208.9375 30.9375 C210.03964844 30.74027344 211.14179688 30.54304688 212.27734375 30.33984375 C213.17582031 30.22769531 214.07429688 30.11554688 215 30 C216 31 216 31 216.0625 34.5625 C216.041875 35.696875 216.02125 36.83125 216 38 C217.65 38 219.3 38 221 38 C220.9071875 36.2984375 220.9071875 36.2984375 220.8125 34.5625 C220.7757753 26.94824534 222.56376622 19.44618822 224 12 C226.96393434 14.57219795 228.45304613 17.4934071 230.22265625 20.96875 C230.52419113 21.55660278 230.82572601 22.14445557 231.13639832 22.75012207 C232.11693089 24.66415634 233.08960876 26.58207222 234.0625 28.5 C234.7418387 29.82847005 235.42185619 31.15659318 236.10253906 32.484375 C237.12255806 34.47421073 238.1422159 36.46421939 239.15975952 38.45532227 C241.81840273 43.65718279 244.51912898 48.83566838 247.25 54 C247.632771 54.72630615 248.01554199 55.4526123 248.40991211 56.20092773 C250.09797872 59.40338863 251.78967642 62.60386527 253.48730469 65.80126953 C255.03662544 68.71988094 256.58098919 71.64107685 258.125 74.5625 C258.61129883 75.47451172 259.09759766 76.38652344 259.59863281 77.32617188 C260.04303711 78.16857422 260.48744141 79.01097656 260.9453125 79.87890625 C261.34250488 80.6272876 261.73969727 81.37566895 262.14892578 82.14672852 C263 84 263 84 263 86 C158.39 86 53.78 86 -54 86 C-52.62191266 82.55478164 -51.53527676 80.04051123 -49.6015625 77.0234375 C-48.89217529 75.90908325 -48.89217529 75.90908325 -48.16845703 74.7722168 C-47.65911621 73.98113525 -47.14977539 73.19005371 -46.625 72.375 C-45.53112864 70.66023366 -44.43738201 68.94538775 -43.34375 67.23046875 C-42.78558594 66.35825684 -42.22742188 65.48604492 -41.65234375 64.58740234 C-39.61575562 61.39831236 -37.59671993 58.19839937 -35.57983398 54.99682617 C-26.03192042 39.84097546 -16.43719555 24.71449144 -6.6875 9.6875 C-6.13006104 8.82713135 -5.57262207 7.9667627 -4.99829102 7.08032227 C-4.23150024 5.90167603 -4.23150024 5.90167603 -3.44921875 4.69921875 C-2.99893311 4.00658936 -2.54864746 3.31395996 -2.0847168 2.6003418 C-1 1 -1 1 0 0 Z " fill="#252020" transform="translate(141,322)"/>
<path d="M0 0 C2.8125 0.5625 2.8125 0.5625 4.8125 1.5625 C5.1486378 7.09004984 4.13986745 11.16533051 1.8671875 16.12890625 C1.54923721 16.83666199 1.23128693 17.54441772 0.90370178 18.27362061 C-0.14564823 20.5687964 -1.22465529 22.84783642 -2.3125 25.125 C-2.67955048 25.90539642 -3.04660095 26.68579285 -3.42477417 27.48983765 C-9.42040813 40.05651499 -16.39877061 49.51399657 -27.22509766 58.28540039 C-32.53404852 62.62433002 -32.53404852 62.62433002 -34.61132812 68.89477539 C-34.51852053 71.30238099 -34.38296664 73.7087003 -34.20581055 76.11157227 C-34.17575925 81.77524025 -36.65546435 85.66012822 -39.5625 90.375 C-40.10398682 91.30280273 -40.64547363 92.23060547 -41.20336914 93.18652344 C-42.30939854 95.07572722 -43.42756368 96.95788164 -44.55810547 98.83251953 C-46.10436884 101.42321732 -47.58047185 104.04063367 -49.03515625 106.68359375 C-49.89760349 108.22702883 -50.76083871 109.77002396 -51.625 111.3125 C-52.01284668 112.02124268 -52.40069336 112.72998535 -52.80029297 113.46020508 C-54.57316059 116.52892359 -55.79066457 118.35545543 -58.97265625 120.015625 C-59.70355469 120.19609375 -60.43445313 120.3765625 -61.1875 120.5625 C-60.8265625 121.70847656 -60.465625 122.85445313 -60.09375 124.03515625 C-59.62448889 125.56494748 -59.15576749 127.09490433 -58.6875 128.625 C-58.44902344 129.37716797 -58.21054688 130.12933594 -57.96484375 130.90429688 C-57.73925781 131.64873047 -57.51367188 132.39316406 -57.28125 133.16015625 C-57.07177734 133.83570557 -56.86230469 134.51125488 -56.64648438 135.20727539 C-55.5599978 140.78245409 -56.24728393 145.65477526 -57.83203125 151.046875 C-58.17943359 152.22894531 -58.52683594 153.41101563 -58.88476562 154.62890625 C-59.25279297 155.84449219 -59.62082031 157.06007813 -60 158.3125 C-60.35642578 159.54355469 -60.71285156 160.77460938 -61.08007812 162.04296875 C-61.43134766 163.21988281 -61.78261719 164.39679688 -62.14453125 165.609375 C-62.62369995 167.21570801 -62.62369995 167.21570801 -63.11254883 168.85449219 C-64.16665671 171.50999175 -64.92530269 172.85853537 -67.1875 174.5625 C-70.06629197 174.9943188 -71.55487712 174.94207373 -74.0625 173.4375 C-75.77925333 170.57624446 -74.8892416 168.81930076 -74.1875 165.5625 C-72.96074057 161.13509755 -71.62186866 156.7406759 -70.27148438 152.34960938 C-67.95800674 144.5465238 -67.5135423 138.72795997 -70.125 130.875 C-72.174677 124.62311784 -72.174677 124.62311784 -72.66015625 122.328125 C-73.54345555 119.37070808 -76.01947881 117.67632066 -78.1875 115.5625 C-79.82705951 110.64382148 -80.17207052 106.03038414 -78.21972656 101.13671875 C-76.83947816 98.5475916 -75.35955533 96.05551058 -73.8125 93.5625 C-73.27101318 92.65765869 -72.72952637 91.75281738 -72.17163086 90.82055664 C-71.06051282 88.96478944 -69.94225967 87.11327557 -68.81689453 85.26611328 C-67.28169714 82.71879894 -65.80046851 80.14922364 -64.33984375 77.55859375 C-63.90140137 76.78708984 -63.46295898 76.01558594 -63.01123047 75.22070312 C-62.19360607 73.78107642 -61.38110077 72.33852552 -60.57470703 70.89257812 C-58.28616579 66.93668521 -56.19446206 63.97611927 -52.1875 61.5625 C-51.09074951 61.45454102 -49.99399902 61.34658203 -48.86401367 61.23535156 C-42.29599045 60.03331477 -38.14068597 54.82208632 -33.5625 50.25 C-33.03103363 49.72672119 -32.49956726 49.20344238 -31.95199585 48.66430664 C-20.88858574 37.62654344 -15.13397837 25.86277617 -9.41967773 11.45874023 C-4.91356551 0.8670998 -4.91356551 0.8670998 0 0 Z " fill="#272120" transform="translate(267.1875,184.4375)"/>
<path d="M0 0 C3.89697826 2.13951748 6.64242605 4.23603467 9 8 C9.80407057 12.0605564 9.93064111 16.22072831 7.98046875 19.94921875 C5.34711854 23.2349397 3.12867015 24.71617731 -1.05078125 25.2734375 C-5.27905497 25.46330817 -8.12007673 25.41271658 -11.5 22.6875 C-15.09609385 18.82169911 -15.45513012 15.44740815 -15.421875 10.359375 C-14.69146105 6.27446734 -12.15083914 3.5758685 -9 1 C-5.64870516 -0.11709828 -3.51689744 -0.34479387 0 0 Z " fill="#272120" transform="translate(183,299)"/>
<path d="M0 0 C-0.66 1.98 -1.32 3.96 -2 6 C-5.28696233 6.79953138 -6.71023192 7.09658936 -10 6 C-16.36490575 5.47397473 -19.14641857 6.25769065 -24.5 10 C-32.08628134 14.8540895 -39.11114103 15.45995784 -48 14 C-50.96484375 12.45703125 -50.96484375 12.45703125 -53 11 C-52.01 9.02 -51.02 7.04 -50 5 C-48.98421875 5.08121094 -47.9684375 5.16242188 -46.921875 5.24609375 C-36.58691907 5.81165075 -30.67653289 4.00018941 -22 -2 C-14.38596602 -4.53801133 -7.35430221 -2.57937948 0 0 Z " fill="#2E2620" transform="translate(234,222)"/>
<path d="M0 0 C1.34931575 0.85014692 2.68315664 1.72537434 4 2.625 C10.26572132 6.76062521 16.86921147 6.36547014 24 5 C27 8.625 27 8.625 27 12 C19.9972395 15.31015609 10.79816434 15.33329608 3.5 12.75 C0.11887577 11.05943789 -2.90323132 9.16053629 -6 7 C-11.58384613 5.13871796 -17.31147144 5.86229429 -23 7 C-24.4606285 4.35261084 -25 3.10551666 -25 0 C-16.43715262 -4.37251781 -8.72379045 -3.97954663 0 0 Z " fill="#2C2520" transform="translate(286,222)"/>
<path d="M0 0 C3.63 0 7.26 0 11 0 C8.125 8.75 8.125 8.75 7 11 C2.71 10.34 -1.58 9.68 -6 9 C-6 7 -6 7 -3.5625 4.5 C-2.716875 3.675 -1.87125 2.85 -1 2 C-0.67 1.34 -0.34 0.68 0 0 Z " fill="#372C20" transform="translate(216,361)"/>
<path d="M0 0 C9.24 0 18.48 0 28 0 C28 1.98 28 3.96 28 6 C21.7515933 5.30654365 15.65596779 4.20358931 9.5 2.9375 C8.5821875 2.75123047 7.664375 2.56496094 6.71875 2.37304688 C4.47861146 1.91801873 2.23906274 1.46028733 0 1 C0 0.67 0 0.34 0 0 Z " fill="#413320" transform="translate(136,313)"/>
<path d="M0 0 C-2.91030509 1.98864885 -5.8292633 3.96421086 -8.75 5.9375 C-9.575 6.50146484 -10.4 7.06542969 -11.25 7.64648438 C-12.04921875 8.18466797 -12.8484375 8.72285156 -13.671875 9.27734375 C-14.77160645 10.02359009 -14.77160645 10.02359009 -15.89355469 10.78491211 C-17.95323593 11.97302448 -19.67654755 12.55689098 -22 13 C-22.66 11.35 -23.32 9.7 -24 8 C-20.38017873 6.46662201 -16.75339871 4.95045684 -13.125 3.4375 C-11.57619141 2.78104492 -11.57619141 2.78104492 -9.99609375 2.11132812 C-9.00996094 1.70205078 -8.02382812 1.29277344 -7.0078125 0.87109375 C-6.09660645 0.48880615 -5.18540039 0.10651855 -4.24658203 -0.28735352 C-2 -1 -2 -1 0 0 Z " fill="#342A20" transform="translate(236,336)"/>
<path d="M0 0 C1.3921875 1.2065625 1.3921875 1.2065625 2.8125 2.4375 C7.79948412 6.71645551 12.90348535 10.85274576 18 15 C17.49396008 17.16874252 17.00016187 18.99967627 16 21 C15.34 21 14.68 21 14 21 C12.59545898 19.39526367 12.59545898 19.39526367 10.99609375 17.16796875 C10.42052734 16.36939453 9.84496094 15.57082031 9.25195312 14.74804688 C8.35379883 13.48057617 8.35379883 13.48057617 7.4375 12.1875 C6.83486328 11.35412109 6.23222656 10.52074219 5.61132812 9.66210938 C1.13643973 3.4093192 1.13643973 3.4093192 0 0 Z " fill="#342B20" transform="translate(151,284)"/>
<path d="M0 0 C0.33 0 0.66 0 1 0 C1 7.26 1 14.52 1 22 C-0.98 22 -2.96 22 -5 22 C-4.38955672 14.36945905 -2.20378179 7.29810526 0 0 Z " fill="#392E20" transform="translate(180,268)"/>
<path d="M0 0 C0 1.98 0 3.96 0 6 C-2.95664519 7.4783226 -5.74229737 7.06032783 -9 7 C-9 6.34 -9 5.68 -9 5 C-7.5390625 3.7109375 -7.5390625 3.7109375 -5.625 2.375 C-4.99851563 1.92898438 -4.37203125 1.48296875 -3.7265625 1.0234375 C-2 0 -2 0 0 0 Z " fill="#4D3C20" transform="translate(218,352)"/>
<path d="M0 0 C0.66 0.33 1.32 0.66 2 1 C2 1.66 2 2.32 2 3 C2.99 3.33 3.98 3.66 5 4 C5 4.99 5 5.98 5 7 C4.34 7 3.68 7 3 7 C3 8.98 3 10.96 3 13 C2.67 13 2.34 13 2 13 C1.86722656 12.37351562 1.73445312 11.74703125 1.59765625 11.1015625 C1.42105469 10.28429687 1.24445313 9.46703125 1.0625 8.625 C0.80146484 7.40683594 0.80146484 7.40683594 0.53515625 6.1640625 C0.07669307 3.970537 0.07669307 3.970537 -1 2 C-0.67 1.34 -0.34 0.68 0 0 Z " fill="#C58F24" transform="translate(190,301)"/>
<path d="M0 0 C3.37503669 1.1858237 5.64722731 2.27573689 8 5 C7.01 5.99 6.02 6.98 5 8 C0 2.25 0 2.25 0 0 Z " fill="#3E3120" transform="translate(150,301)"/>
<path d="M0 0 C-1.98 1.32 -3.96 2.64 -6 4 C-7.32 3.34 -8.64 2.68 -10 2 C-8.71211992 1.46987262 -7.41953322 0.9511671 -6.125 0.4375 C-5.40570313 0.14746094 -4.68640625 -0.14257812 -3.9453125 -0.44140625 C-2 -1 -2 -1 0 0 Z " fill="#564220" transform="translate(236,336)"/>
<path d="M0 0 C2.31 1.98 4.62 3.96 7 6 C6.01 7.485 6.01 7.485 5 9 C4.16094435 7.87926138 3.32892169 6.75325453 2.5 5.625 C2.0359375 4.99851562 1.571875 4.37203125 1.09375 3.7265625 C0 2 0 2 0 0 Z " fill="#463720" transform="translate(151,284)"/>
</svg>
