<svg id="svg" version="1.1" xmlns="http://www.w3.org/2000/svg" xmlns:xlink="http://www.w3.org/1999/xlink" width="400" height="400" viewBox="0, 0, 400,400"><g id="svgg"><path id="path0" d="M185.161 25.656 C 178.430 26.253,173.674 26.957,166.487 28.418 C 163.008 29.125,159.139 29.898,157.890 30.136 C 153.102 31.047,143.421 34.220,135.645 37.426 C 132.984 38.524,129.718 39.851,128.387 40.375 C 122.228 42.802,104.021 53.259,100.044 56.654 C 99.446 57.164,97.632 58.485,96.011 59.589 C 85.860 66.509,66.871 85.594,59.875 95.908 C 58.653 97.709,57.110 99.839,56.447 100.640 C 54.939 102.462,51.781 107.454,49.199 112.097 C 42.045 124.963,42.188 124.664,37.483 136.613 C 21.474 177.271,21.629 224.131,37.908 265.045 C 41.371 273.749,42.980 277.356,45.013 280.968 C 48.423 287.028,49.852 289.610,50.280 290.484 C 50.963 291.881,55.365 298.613,56.598 300.147 C 57.175 300.864,58.592 302.847,59.746 304.552 C 66.443 314.443,84.956 333.313,94.395 339.869 C 97.548 342.059,100.088 343.928,100.609 344.441 C 101.391 345.210,106.794 348.751,108.675 349.726 C 109.670 350.242,111.355 351.216,112.419 351.891 C 115.679 353.959,123.912 358.361,126.129 359.221 C 127.282 359.668,129.483 360.607,131.020 361.306 C 137.606 364.304,148.338 368.139,153.548 369.357 C 155.234 369.751,158.355 370.485,160.484 370.988 C 186.305 377.089,213.640 377.088,239.516 370.986 C 241.645 370.484,244.694 369.767,246.290 369.393 C 252.069 368.039,264.583 363.547,269.462 361.075 C 270.371 360.614,271.896 359.969,272.851 359.640 C 274.862 358.948,282.395 355.009,286.613 352.443 C 288.210 351.472,290.345 350.235,291.358 349.695 C 293.593 348.504,297.924 345.703,299.032 344.732 C 299.834 344.030,302.758 341.880,306.107 339.530 C 311.262 335.912,324.890 323.187,330.132 317.097 C 336.332 309.894,338.225 307.547,340.226 304.586 C 341.391 302.862,342.880 300.798,343.535 300.000 C 344.765 298.499,348.878 292.189,349.737 290.484 C 350.005 289.952,351.569 287.121,353.211 284.194 C 356.811 277.779,358.018 275.394,359.170 272.419 C 359.651 271.177,360.246 269.718,360.491 269.177 C 361.077 267.883,364.409 259.361,365.214 257.097 C 380.292 214.673,376.305 159.357,355.356 120.323 C 349.821 110.009,345.164 102.235,343.376 100.323 C 342.961 99.879,341.632 98.041,340.424 96.239 C 335.674 89.156,323.358 75.770,314.703 68.283 C 312.411 66.300,309.764 63.992,308.822 63.154 C 307.880 62.316,306.489 61.229,305.732 60.739 C 303.703 59.425,299.917 56.687,299.349 56.121 C 298.638 55.413,292.589 51.538,289.194 49.615 C 279.535 44.145,275.974 42.240,273.387 41.159 C 271.790 40.491,269.177 39.387,267.581 38.706 C 257.770 34.518,248.225 31.309,242.097 30.140 C 240.855 29.903,237.371 29.195,234.355 28.566 C 219.226 25.410,200.461 24.300,185.161 25.656 M211.935 35.831 C 285.888 40.869,348.564 97.380,361.458 170.645 C 381.451 284.243,284.282 382.416,171.353 362.715 C 104.382 351.032,50.747 297.465,38.568 230.098 C 19.355 123.829,104.423 28.506,211.935 35.831 M187.419 83.243 C 180.263 84.116,176.708 85.895,175.754 89.082 C 175.381 90.325,179.318 241.068,179.859 246.292 C 180.398 251.490,184.213 253.149,196.330 253.454 C 209.264 253.780,214.769 252.426,216.510 248.492 C 217.284 246.742,221.913 91.403,221.251 89.397 C 220.343 86.645,217.659 84.943,212.428 83.800 C 209.099 83.073,191.950 82.691,187.419 83.243 M193.871 271.328 C 179.420 272.314,174.516 278.637,174.516 296.290 C 174.516 316.315,181.926 322.752,202.961 321.000 C 217.526 319.787,221.787 314.729,222.169 298.200 C 222.683 275.931,216.230 269.804,193.871 271.328 " stroke="none" fill="#040404" fill-rule="evenodd"></path><path id="path1" d="M193.548 35.680 C 93.628 40.347,21.486 130.359,38.580 229.032 C 50.403 297.275,104.794 351.534,172.581 362.707 C 285.023 381.242,380.601 284.434,361.406 171.452 C 347.778 91.237,274.422 31.903,193.548 35.680 M211.071 83.350 C 219.406 84.920,221.593 86.901,221.614 92.903 C 221.641 100.337,217.350 246.369,217.073 247.451 C 215.830 252.307,209.310 254.242,195.806 253.761 C 185.694 253.401,181.720 252.007,180.161 248.274 C 179.471 246.624,174.917 91.460,175.495 89.314 C 176.460 85.731,180.648 83.670,188.502 82.911 C 192.926 82.483,208.031 82.777,211.071 83.350 M206.148 271.436 C 218.454 273.291,222.355 279.180,222.400 295.968 C 222.453 315.863,217.602 321.044,198.871 321.104 C 180.881 321.162,175.640 316.814,174.534 300.917 C 173.324 283.519,177.236 274.678,187.285 272.106 C 191.934 270.915,200.641 270.606,206.148 271.436 " stroke="none" fill="#fbfb04" fill-rule="evenodd"></path><path id="path2" d="M191.371 35.706 C 191.681 35.787,192.190 35.787,192.500 35.706 C 192.810 35.625,192.556 35.559,191.935 35.559 C 191.315 35.559,191.060 35.625,191.371 35.706 M207.177 35.706 C 207.488 35.787,207.996 35.787,208.306 35.706 C 208.617 35.625,208.363 35.559,207.742 35.559 C 207.121 35.559,206.867 35.625,207.177 35.706 M194.119 82.814 C 194.698 82.886,195.569 82.885,196.054 82.811 C 196.539 82.738,196.065 82.679,195.000 82.681 C 193.935 82.682,193.539 82.743,194.119 82.814 M201.048 82.812 C 201.536 82.886,202.335 82.886,202.823 82.812 C 203.310 82.738,202.911 82.677,201.935 82.677 C 200.960 82.677,200.560 82.738,201.048 82.812 M195.081 253.776 C 195.480 253.853,196.133 253.853,196.532 253.776 C 196.931 253.699,196.605 253.636,195.806 253.636 C 195.008 253.636,194.681 253.699,195.081 253.776 M200.242 253.776 C 200.641 253.853,201.294 253.853,201.694 253.776 C 202.093 253.699,201.766 253.636,200.968 253.636 C 200.169 253.636,199.843 253.699,200.242 253.776 M192.181 365.067 C 192.582 365.144,193.163 365.141,193.472 365.060 C 193.780 364.980,193.452 364.916,192.742 364.920 C 192.032 364.924,191.780 364.990,192.181 365.067 M207.020 365.067 C 207.421 365.144,208.002 365.141,208.310 365.060 C 208.619 364.980,208.290 364.916,207.581 364.920 C 206.871 364.924,206.619 364.990,207.020 365.067 " stroke="none" fill="#7c7c04" fill-rule="evenodd"></path><path id="path3" d="M193.633 35.715 C 194.124 35.789,194.850 35.788,195.246 35.711 C 195.643 35.634,195.242 35.574,194.355 35.576 C 193.468 35.579,193.143 35.641,193.633 35.715 M204.601 35.715 C 205.092 35.789,205.817 35.788,206.214 35.711 C 206.611 35.634,206.210 35.574,205.323 35.576 C 204.435 35.579,204.111 35.641,204.601 35.715 M191.694 82.803 C 192.004 82.884,192.512 82.884,192.823 82.803 C 193.133 82.722,192.879 82.655,192.258 82.655 C 191.637 82.655,191.383 82.722,191.694 82.803 M175.254 95.000 C 175.256 95.887,175.319 96.212,175.393 95.721 C 175.467 95.231,175.465 94.505,175.388 94.108 C 175.312 93.712,175.251 94.113,175.254 95.000 M221.383 101.452 C 221.385 102.339,221.448 102.663,221.522 102.173 C 221.596 101.683,221.594 100.957,221.517 100.560 C 221.441 100.163,221.380 100.565,221.383 101.452 M175.576 106.290 C 175.579 107.177,175.641 107.502,175.715 107.012 C 175.789 106.521,175.788 105.796,175.711 105.399 C 175.634 105.002,175.574 105.403,175.576 106.290 M221.060 112.742 C 221.062 113.629,221.125 113.954,221.199 113.463 C 221.273 112.973,221.271 112.247,221.195 111.850 C 221.118 111.454,221.058 111.855,221.060 112.742 M175.899 117.581 C 175.901 118.468,175.964 118.792,176.038 118.302 C 176.112 117.812,176.110 117.086,176.034 116.689 C 175.957 116.292,175.896 116.694,175.899 117.581 M220.733 123.871 C 220.733 124.669,220.796 124.996,220.873 124.597 C 220.950 124.198,220.950 123.544,220.873 123.145 C 220.796 122.746,220.733 123.073,220.733 123.871 M176.221 128.871 C 176.224 129.758,176.286 130.083,176.361 129.592 C 176.435 129.102,176.433 128.376,176.356 127.979 C 176.280 127.583,176.219 127.984,176.221 128.871 M220.410 135.161 C 220.410 135.960,220.473 136.286,220.550 135.887 C 220.627 135.488,220.627 134.835,220.550 134.435 C 220.473 134.036,220.410 134.363,220.410 135.161 M176.544 140.161 C 176.546 141.048,176.609 141.373,176.683 140.883 C 176.757 140.392,176.755 139.667,176.679 139.270 C 176.602 138.873,176.541 139.274,176.544 140.161 M220.088 146.452 C 220.088 147.250,220.151 147.577,220.228 147.177 C 220.305 146.778,220.305 146.125,220.228 145.726 C 220.151 145.327,220.088 145.653,220.088 146.452 M176.866 151.452 C 176.869 152.339,176.932 152.663,177.006 152.173 C 177.080 151.683,177.078 150.957,177.001 150.560 C 176.925 150.163,176.864 150.565,176.866 151.452 M219.770 157.581 C 219.772 158.468,219.835 158.792,219.909 158.302 C 219.983 157.812,219.981 157.086,219.904 156.689 C 219.828 156.292,219.767 156.694,219.770 157.581 M177.185 162.581 C 177.185 163.379,177.248 163.706,177.324 163.306 C 177.401 162.907,177.401 162.254,177.324 161.855 C 177.248 161.456,177.185 161.782,177.185 162.581 M219.447 168.871 C 219.450 169.758,219.512 170.083,219.586 169.592 C 219.660 169.102,219.658 168.376,219.582 167.979 C 219.505 167.583,219.445 167.984,219.447 168.871 M177.507 173.871 C 177.507 174.669,177.570 174.996,177.647 174.597 C 177.724 174.198,177.724 173.544,177.647 173.145 C 177.570 172.746,177.507 173.073,177.507 173.871 M219.125 180.161 C 219.127 181.048,219.190 181.373,219.264 180.883 C 219.338 180.392,219.336 179.667,219.259 179.270 C 219.183 178.873,219.122 179.274,219.125 180.161 M177.830 185.161 C 177.830 185.960,177.893 186.286,177.970 185.887 C 178.046 185.488,178.046 184.835,177.970 184.435 C 177.893 184.036,177.830 184.363,177.830 185.161 M218.802 191.452 C 218.804 192.339,218.867 192.663,218.941 192.173 C 219.015 191.683,219.013 190.957,218.937 190.560 C 218.860 190.163,218.800 190.565,218.802 191.452 M178.157 196.290 C 178.159 197.177,178.222 197.502,178.296 197.012 C 178.370 196.521,178.368 195.796,178.292 195.399 C 178.215 195.002,178.154 195.403,178.157 196.290 M363.963 200.161 C 363.966 201.048,364.028 201.373,364.102 200.883 C 364.177 200.392,364.175 199.667,364.098 199.270 C 364.021 198.873,363.961 199.274,363.963 200.161 M218.479 202.742 C 218.482 203.629,218.544 203.954,218.619 203.463 C 218.693 202.973,218.691 202.247,218.614 201.850 C 218.538 201.454,218.477 201.855,218.479 202.742 M178.479 207.581 C 178.482 208.468,178.544 208.792,178.619 208.302 C 178.693 207.812,178.691 207.086,178.614 206.689 C 178.538 206.292,178.477 206.694,178.479 207.581 M218.157 214.032 C 218.159 214.919,218.222 215.244,218.296 214.754 C 218.370 214.263,218.368 213.537,218.292 213.141 C 218.215 212.744,218.154 213.145,218.157 214.032 M178.802 218.871 C 178.804 219.758,178.867 220.083,178.941 219.592 C 179.015 219.102,179.013 218.376,178.937 217.979 C 178.860 217.583,178.800 217.984,178.802 218.871 M217.834 225.323 C 217.837 226.210,217.899 226.534,217.973 226.044 C 218.048 225.554,218.046 224.828,217.969 224.431 C 217.892 224.034,217.832 224.435,217.834 225.323 M179.125 230.161 C 179.127 231.048,179.190 231.373,179.264 230.883 C 179.338 230.392,179.336 229.667,179.259 229.270 C 179.183 228.873,179.122 229.274,179.125 230.161 M217.512 236.613 C 217.514 237.500,217.577 237.825,217.651 237.334 C 217.725 236.844,217.723 236.118,217.646 235.721 C 217.570 235.325,217.509 235.726,217.512 236.613 M179.447 241.452 C 179.450 242.339,179.512 242.663,179.586 242.173 C 179.660 241.683,179.658 240.957,179.582 240.560 C 179.505 240.163,179.445 240.565,179.447 241.452 M174.290 296.452 C 174.290 297.427,174.351 297.827,174.425 297.339 C 174.499 296.851,174.499 296.052,174.425 295.565 C 174.351 295.077,174.290 295.476,174.290 296.452 M194.597 365.070 C 195.085 365.144,195.883 365.144,196.371 365.070 C 196.859 364.996,196.460 364.935,195.484 364.935 C 194.508 364.935,194.109 364.996,194.597 365.070 M203.952 365.070 C 204.440 365.144,205.238 365.144,205.726 365.070 C 206.214 364.996,205.815 364.935,204.839 364.935 C 203.863 364.935,203.464 364.996,203.952 365.070 " stroke="none" fill="#999904" fill-rule="evenodd"></path><path id="path4" d="M86.270 81.371 L 85.323 82.419 86.371 81.472 C 87.348 80.589,87.568 80.323,87.318 80.323 C 87.263 80.323,86.791 80.794,86.270 81.371 M312.581 80.424 C 312.581 80.479,313.052 80.951,313.629 81.472 L 314.677 82.419 313.730 81.371 C 312.847 80.394,312.581 80.174,312.581 80.424 M197.667 82.814 C 198.247 82.886,199.118 82.885,199.603 82.811 C 200.087 82.738,199.613 82.679,198.548 82.681 C 197.484 82.682,197.087 82.743,197.667 82.814 M221.383 97.258 C 221.385 98.145,221.448 98.470,221.522 97.979 C 221.596 97.489,221.594 96.763,221.517 96.367 C 221.441 95.970,221.380 96.371,221.383 97.258 M175.572 102.258 C 175.572 103.056,175.635 103.383,175.712 102.984 C 175.788 102.585,175.788 101.931,175.712 101.532 C 175.635 101.133,175.572 101.460,175.572 102.258 M221.060 108.548 C 221.062 109.435,221.125 109.760,221.199 109.270 C 221.273 108.779,221.271 108.054,221.195 107.657 C 221.118 107.260,221.058 107.661,221.060 108.548 M175.899 113.387 C 175.901 114.274,175.964 114.599,176.038 114.108 C 176.112 113.618,176.110 112.892,176.034 112.496 C 175.957 112.099,175.896 112.500,175.899 113.387 M220.737 119.839 C 220.740 120.726,220.802 121.050,220.877 120.560 C 220.951 120.070,220.949 119.344,220.872 118.947 C 220.796 118.550,220.735 118.952,220.737 119.839 M176.221 124.677 C 176.224 125.565,176.286 125.889,176.361 125.399 C 176.435 124.908,176.433 124.183,176.356 123.786 C 176.280 123.389,176.219 123.790,176.221 124.677 M220.415 131.129 C 220.417 132.016,220.480 132.341,220.554 131.850 C 220.628 131.360,220.626 130.634,220.550 130.238 C 220.473 129.841,220.412 130.242,220.415 131.129 M176.544 135.968 C 176.546 136.855,176.609 137.179,176.683 136.689 C 176.757 136.199,176.755 135.473,176.679 135.076 C 176.602 134.679,176.541 135.081,176.544 135.968 M220.088 142.258 C 220.088 143.056,220.151 143.383,220.228 142.984 C 220.305 142.585,220.305 141.931,220.228 141.532 C 220.151 141.133,220.088 141.460,220.088 142.258 M176.866 147.258 C 176.869 148.145,176.932 148.470,177.006 147.979 C 177.080 147.489,177.078 146.763,177.001 146.367 C 176.925 145.970,176.864 146.371,176.866 147.258 M219.765 153.548 C 219.765 154.347,219.828 154.673,219.905 154.274 C 219.982 153.875,219.982 153.222,219.905 152.823 C 219.828 152.423,219.765 152.750,219.765 153.548 M177.189 158.548 C 177.191 159.435,177.254 159.760,177.328 159.270 C 177.402 158.779,177.400 158.054,177.324 157.657 C 177.247 157.260,177.187 157.661,177.189 158.548 M219.443 164.839 C 219.443 165.637,219.506 165.964,219.582 165.565 C 219.659 165.165,219.659 164.512,219.582 164.113 C 219.506 163.714,219.443 164.040,219.443 164.839 M177.512 169.839 C 177.514 170.726,177.577 171.050,177.651 170.560 C 177.725 170.070,177.723 169.344,177.646 168.947 C 177.570 168.550,177.509 168.952,177.512 169.839 M219.120 176.129 C 219.120 176.927,219.183 177.254,219.260 176.855 C 219.337 176.456,219.337 175.802,219.260 175.403 C 219.183 175.004,219.120 175.331,219.120 176.129 M177.834 181.129 C 177.837 182.016,177.899 182.341,177.973 181.850 C 178.048 181.360,178.046 180.634,177.969 180.238 C 177.892 179.841,177.832 180.242,177.834 181.129 M218.798 187.419 C 218.798 188.218,218.860 188.544,218.937 188.145 C 219.014 187.746,219.014 187.093,218.937 186.694 C 218.860 186.294,218.798 186.621,218.798 187.419 M178.152 192.258 C 178.152 193.056,178.215 193.383,178.292 192.984 C 178.369 192.585,178.369 191.931,178.292 191.532 C 178.215 191.133,178.152 191.460,178.152 192.258 M363.963 195.645 C 363.966 196.532,364.028 196.857,364.102 196.367 C 364.177 195.876,364.175 195.150,364.098 194.754 C 364.021 194.357,363.961 194.758,363.963 195.645 M35.899 196.613 C 35.901 197.500,35.964 197.825,36.038 197.334 C 36.112 196.844,36.110 196.118,36.034 195.721 C 35.957 195.325,35.896 195.726,35.899 196.613 M218.475 198.710 C 218.475 199.508,218.538 199.835,218.615 199.435 C 218.692 199.036,218.692 198.383,218.615 197.984 C 218.538 197.585,218.475 197.911,218.475 198.710 M178.475 203.548 C 178.475 204.347,178.538 204.673,178.615 204.274 C 178.692 203.875,178.692 203.222,178.615 202.823 C 178.538 202.423,178.475 202.750,178.475 203.548 M35.903 204.194 C 35.903 205.169,35.964 205.569,36.038 205.081 C 36.111 204.593,36.111 203.794,36.038 203.306 C 35.964 202.819,35.903 203.218,35.903 204.194 M363.963 204.677 C 363.966 205.565,364.028 205.889,364.102 205.399 C 364.177 204.908,364.175 204.183,364.098 203.786 C 364.021 203.389,363.961 203.790,363.963 204.677 M218.157 209.839 C 218.159 210.726,218.222 211.050,218.296 210.560 C 218.370 210.070,218.368 209.344,218.292 208.947 C 218.215 208.550,218.154 208.952,218.157 209.839 M178.798 214.839 C 178.798 215.637,178.860 215.964,178.937 215.565 C 179.014 215.165,179.014 214.512,178.937 214.113 C 178.860 213.714,178.798 214.040,178.798 214.839 M217.834 221.129 C 217.837 222.016,217.899 222.341,217.973 221.850 C 218.048 221.360,218.046 220.634,217.969 220.238 C 217.892 219.841,217.832 220.242,217.834 221.129 M179.120 226.129 C 179.120 226.927,179.183 227.254,179.260 226.855 C 179.337 226.456,179.337 225.802,179.260 225.403 C 179.183 225.004,179.120 225.331,179.120 226.129 M217.512 232.419 C 217.514 233.306,217.577 233.631,217.651 233.141 C 217.725 232.650,217.723 231.925,217.646 231.528 C 217.570 231.131,217.509 231.532,217.512 232.419 M179.443 237.419 C 179.443 238.218,179.506 238.544,179.582 238.145 C 179.659 237.746,179.659 237.093,179.582 236.694 C 179.506 236.294,179.443 236.621,179.443 237.419 M217.189 243.710 C 217.191 244.597,217.254 244.921,217.328 244.431 C 217.402 243.941,217.400 243.215,217.324 242.818 C 217.247 242.421,217.187 242.823,217.189 243.710 M197.661 253.776 C 198.060 253.853,198.714 253.853,199.113 253.776 C 199.512 253.699,199.185 253.636,198.387 253.636 C 197.589 253.636,197.262 253.699,197.661 253.776 M195.403 271.195 C 195.802 271.272,196.456 271.272,196.855 271.195 C 197.254 271.119,196.927 271.056,196.129 271.056 C 195.331 271.056,195.004 271.119,195.403 271.195 M200.085 271.199 C 200.575 271.273,201.301 271.271,201.698 271.195 C 202.095 271.118,201.694 271.058,200.806 271.060 C 199.919 271.062,199.595 271.125,200.085 271.199 M222.381 296.290 C 222.382 298.419,222.434 299.248,222.497 298.133 C 222.560 297.017,222.560 295.275,222.496 294.262 C 222.432 293.248,222.381 294.161,222.381 296.290 M85.484 318.548 C 86.086 319.169,86.651 319.677,86.739 319.677 C 86.828 319.677,86.408 319.169,85.806 318.548 C 85.205 317.927,84.640 317.419,84.551 317.419 C 84.462 317.419,84.882 317.927,85.484 318.548 M313.854 318.952 L 312.742 320.161 313.952 319.050 C 315.078 318.015,315.310 317.742,315.063 317.742 C 315.009 317.742,314.465 318.286,313.854 318.952 " stroke="none" fill="#747404" fill-rule="evenodd"></path></g></svg>